<svg version="1.1" id="Layer_1" xmlns="http://www.w3.org/2000/svg" xmlns:xlink="http://www.w3.org/1999/xlink" x="0px" y="0px"
	 width="100%" viewBox="0 0 512 513" enable-background="new 0 0 512 513" xml:space="preserve">
<path fill="none" opacity="1.000000" stroke="none" 
	d="
M513.000000,222.000000 
	C513.000000,319.283783 513.000000,416.567535 513.000000,513.925659 
	C342.333344,513.925659 171.666672,513.925659 1.000000,513.925659 
	C1.000000,496.918304 1.000000,479.927002 1.274482,462.125793 
	C2.064918,462.274933 2.714508,463.186127 3.077343,464.199921 
	C12.985703,491.885223 35.037743,506.879730 63.587566,506.938446 
	C145.240677,507.106293 226.894394,507.020233 308.547821,506.954498 
	C315.135162,506.949188 321.769684,506.728149 328.300690,505.935333 
	C352.731140,502.969727 368.935089,489.358612 378.084930,466.805481 
	C382.882782,454.979431 381.930878,442.579285 381.994904,430.272552 
	C382.110596,408.043549 382.572205,385.843231 376.091064,364.129639 
	C369.926270,343.475922 359.796722,325.106506 345.518188,309.150970 
	C331.361298,293.331360 314.541840,281.034912 294.738647,272.884460 
	C279.371185,266.559631 263.618713,262.120148 246.941895,262.049957 
	C209.115341,261.890717 171.287598,261.965332 133.460541,262.045654 
	C129.031677,262.055054 124.507530,262.231903 120.193069,263.128052 
	C103.282166,266.640503 86.931931,271.694672 71.853241,280.515076 
	C47.605129,294.699249 28.969324,314.209106 16.109152,339.046844 
	C9.759110,351.311157 5.119989,364.341705 2.918986,378.112854 
	C2.805022,378.825928 1.663263,379.374725 1.000006,380.000000 
	C1.000000,253.717255 1.000000,127.434525 1.000000,1.075892 
	C171.547699,1.075892 342.095459,1.075892 513.000000,1.075892 
	C513.000000,66.687668 513.000000,132.375992 512.748169,198.862610 
	C511.914276,198.899338 511.221466,198.198318 510.766968,197.367020 
	C504.713348,186.294662 495.430542,180.845413 482.780121,180.978333 
	C472.669464,181.084579 462.556854,180.999771 451.999786,180.999771 
	C451.999786,169.916428 452.176453,159.297989 451.962067,148.687469 
	C451.550110,128.301575 432.543915,114.702110 413.745148,120.660576 
	C400.187775,124.957733 393.588074,135.821838 393.083099,148.971954 
	C392.677032,159.546158 393.000916,170.148392 393.000916,180.999954 
	C381.381927,180.999954 370.406921,180.833344 359.442444,181.100586 
	C356.115234,181.181702 352.585754,181.938766 349.546722,183.284515 
	C337.579193,188.584015 332.066315,197.841324 331.827148,211.109711 
	C331.619995,222.599686 339.682831,234.745270 349.940613,238.312057 
	C352.515533,239.207397 355.309143,239.884995 358.013397,239.925842 
	C369.595886,240.100769 381.182526,240.000397 393.000061,240.000397 
	C393.000061,250.818954 392.802704,260.966064 393.060089,271.101654 
	C393.281342,279.813599 395.757812,287.674103 402.400696,293.992432 
	C410.742645,301.926819 423.369537,304.395996 434.662537,299.770325 
	C444.164642,295.878265 451.990204,283.926239 451.998138,273.268738 
	C452.006287,262.324829 451.999939,251.380920 451.999939,240.000031 
	C463.758148,240.000031 475.040039,240.028290 486.321533,239.972931 
	C488.263733,239.963409 490.281311,239.872025 492.132202,239.350449 
	C500.440155,237.009232 506.429565,231.810104 510.430786,224.182800 
	C510.914917,223.259918 512.125854,222.718307 513.000000,222.000000 
M233.039154,41.540161 
	C212.151749,31.842730 190.280670,29.731686 168.140198,35.142143 
	C132.046997,43.962231 107.465187,66.187820 94.944328,101.350517 
	C90.179291,114.732330 88.840454,128.458832 89.816582,142.713943 
	C90.805618,157.157684 94.594696,170.701126 101.245033,183.222153 
	C108.264908,196.438950 117.951706,207.680527 130.148285,216.795364 
	C146.312881,228.875626 164.518250,235.345322 184.314835,236.849716 
	C204.297470,238.368271 223.234955,233.860855 240.873444,224.053772 
	C257.313049,214.913284 270.336487,202.322372 279.474091,185.941879 
	C290.619659,165.961929 295.254913,144.641708 292.090424,121.710693 
	C290.610260,110.984688 288.083801,100.640472 283.394257,90.921242 
	C276.712860,77.073929 268.016693,64.578674 255.602905,55.314251 
	C248.778397,50.221123 241.040207,46.352322 233.039154,41.540161 
z"/>
<path fill="#EB05A2" opacity="1.000000" stroke="none" 
	d="
M1.000006,380.468658 
	C1.663263,379.374725 2.805022,378.825928 2.918986,378.112854 
	C5.119989,364.341705 9.759110,351.311157 16.109152,339.046844 
	C28.969324,314.209106 47.605129,294.699249 71.853241,280.515076 
	C86.931931,271.694672 103.282166,266.640503 120.193069,263.128052 
	C124.507530,262.231903 129.031677,262.055054 133.460541,262.045654 
	C171.287598,261.965332 209.115341,261.890717 246.941895,262.049957 
	C263.618713,262.120148 279.371185,266.559631 294.738647,272.884460 
	C314.541840,281.034912 331.361298,293.331360 345.518188,309.150970 
	C359.796722,325.106506 369.926270,343.475922 376.091064,364.129639 
	C382.572205,385.843231 382.110596,408.043549 381.994904,430.272552 
	C381.930878,442.579285 382.882782,454.979431 378.084930,466.805481 
	C368.935089,489.358612 352.731140,502.969727 328.300690,505.935333 
	C321.769684,506.728149 315.135162,506.949188 308.547821,506.954498 
	C226.894394,507.020233 145.240677,507.106293 63.587566,506.938446 
	C35.037743,506.879730 12.985703,491.885223 3.077343,464.199921 
	C2.714508,463.186127 2.064918,462.274933 1.274482,461.657959 
	C1.000000,434.979095 1.000000,407.958221 1.000006,380.468658 
z"/>
<path fill="#EB05A2" opacity="1.000000" stroke="none" 
	d="
M513.000000,221.531372 
	C512.125854,222.718307 510.914917,223.259918 510.430786,224.182800 
	C506.429565,231.810104 500.440155,237.009232 492.132202,239.350449 
	C490.281311,239.872025 488.263733,239.963409 486.321533,239.972931 
	C475.040039,240.028290 463.758148,240.000031 451.999939,240.000031 
	C451.999939,251.380920 452.006287,262.324829 451.998138,273.268738 
	C451.990204,283.926239 444.164642,295.878265 434.662537,299.770325 
	C423.369537,304.395996 410.742645,301.926819 402.400696,293.992432 
	C395.757812,287.674103 393.281342,279.813599 393.060089,271.101654 
	C392.802704,260.966064 393.000061,250.818954 393.000061,240.000397 
	C381.182526,240.000397 369.595886,240.100769 358.013397,239.925842 
	C355.309143,239.884995 352.515533,239.207397 349.940613,238.312057 
	C339.682831,234.745270 331.619995,222.599686 331.827148,211.109711 
	C332.066315,197.841324 337.579193,188.584015 349.546722,183.284515 
	C352.585754,181.938766 356.115234,181.181702 359.442444,181.100586 
	C370.406921,180.833344 381.381927,180.999954 393.000916,180.999954 
	C393.000916,170.148392 392.677032,159.546158 393.083099,148.971954 
	C393.588074,135.821838 400.187775,124.957733 413.745148,120.660576 
	C432.543915,114.702110 451.550110,128.301575 451.962067,148.687469 
	C452.176453,159.297989 451.999786,169.916428 451.999786,180.999771 
	C462.556854,180.999771 472.669464,181.084579 482.780121,180.978333 
	C495.430542,180.845413 504.713348,186.294662 510.766968,197.367020 
	C511.221466,198.198318 511.914276,198.899338 512.748169,199.330475 
	C513.000000,206.354248 513.000000,213.708496 513.000000,221.531372 
z"/>
<path fill="#EB05A2" opacity="1.000000" stroke="none" 
	d="
M233.376556,41.735836 
	C241.040207,46.352322 248.778397,50.221123 255.602905,55.314251 
	C268.016693,64.578674 276.712860,77.073929 283.394257,90.921242 
	C288.083801,100.640472 290.610260,110.984688 292.090424,121.710693 
	C295.254913,144.641708 290.619659,165.961929 279.474091,185.941879 
	C270.336487,202.322372 257.313049,214.913284 240.873444,224.053772 
	C223.234955,233.860855 204.297470,238.368271 184.314835,236.849716 
	C164.518250,235.345322 146.312881,228.875626 130.148285,216.795364 
	C117.951706,207.680527 108.264908,196.438950 101.245033,183.222153 
	C94.594696,170.701126 90.805618,157.157684 89.816582,142.713943 
	C88.840454,128.458832 90.179291,114.732330 94.944328,101.350517 
	C107.465187,66.187820 132.046997,43.962231 168.140198,35.142143 
	C190.280670,29.731686 212.151749,31.842730 233.376556,41.735836 
z"/>
</svg>