<?xml version="1.0" encoding="UTF-8"?>
<!DOCTYPE svg PUBLIC "-//W3C//DTD SVG 1.1//EN" "http://www.w3.org/Graphics/SVG/1.1/DTD/svg11.dtd">
<svg xmlns="http://www.w3.org/2000/svg" version="1.1" width="512px" height="512px" style="shape-rendering:geometricPrecision; text-rendering:geometricPrecision; image-rendering:optimizeQuality; fill-rule:evenodd; clip-rule:evenodd" xmlns:xlink="http://www.w3.org/1999/xlink">
<g><path style="opacity:0.998" fill="#e91d62" d="M 65.5,95.5 C 191.834,95.3333 318.167,95.5 444.5,96C 460.097,100.678 468.431,111.178 469.5,127.5C 468.431,143.822 460.097,154.322 444.5,159C 318.5,159.667 192.5,159.667 66.5,159C 50.9028,154.322 42.5695,143.822 41.5,127.5C 42.7425,111.651 50.7425,100.985 65.5,95.5 Z"/></g>
<g><path style="opacity:0.998" fill="#e91d62" d="M 65.5,223.5 C 191.834,223.333 318.167,223.5 444.5,224C 460.097,228.678 468.431,239.178 469.5,255.5C 468.431,271.822 460.097,282.322 444.5,287C 318.5,287.667 192.5,287.667 66.5,287C 50.9028,282.322 42.5695,271.822 41.5,255.5C 42.7425,239.651 50.7425,228.985 65.5,223.5 Z"/></g>
<g><path style="opacity:0.998" fill="#e91d62" d="M 65.5,351.5 C 191.834,351.333 318.167,351.5 444.5,352C 460.097,356.678 468.431,367.178 469.5,383.5C 468.431,399.822 460.097,410.322 444.5,415C 318.5,415.667 192.5,415.667 66.5,415C 50.9028,410.322 42.5695,399.822 41.5,383.5C 42.7425,367.651 50.7425,356.985 65.5,351.5 Z"/></g>
</svg>
