<svg version="1.1" id="Layer_1" xmlns="http://www.w3.org/2000/svg" xmlns:xlink="http://www.w3.org/1999/xlink" x="0px" y="0px"
	 width="100%" viewBox="0 0 512 512" enable-background="new 0 0 512 512" xml:space="preserve">
<path fill="none" opacity="1.000000" stroke="none" 
	d="
M339.000000,513.000000 
	C226.027451,513.000000 113.554893,513.000000 1.041169,513.000000 
	C1.041169,342.402435 1.041169,171.804840 1.041169,1.103623 
	C171.555893,1.103623 342.111877,1.103623 512.833923,1.103623 
	C512.833923,171.666534 512.833923,342.333252 512.833923,513.000000 
	C455.138153,513.000000 397.319061,513.000000 339.000000,513.000000 
M114.071518,203.854736 
	C110.163704,203.854736 106.255890,203.854736 101.907158,203.854736 
	C101.907158,208.178925 101.907158,212.091415 101.002434,216.227341 
	C92.758194,216.227341 84.513954,216.227341 76.189476,216.227341 
	C76.189476,221.282532 76.189476,225.560745 75.991249,230.778671 
	C75.991249,264.712524 75.991249,298.646362 75.991249,332.555725 
	C80.617157,332.555725 84.406166,332.555725 89.072487,332.761597 
	C93.326454,332.892883 97.580414,333.024200 101.913857,334.056885 
	C101.909622,338.007172 101.905388,341.957428 100.987778,346.021240 
	C96.744637,346.021240 92.501503,346.021240 87.896919,346.021240 
	C87.896919,350.364410 87.896919,353.957001 87.896919,358.026184 
	C83.480217,358.026184 79.417282,358.026184 75.291367,358.026184 
	C75.291367,362.902313 75.291367,367.281464 75.291367,371.787842 
	C80.030037,371.787842 84.476028,371.787842 89.838882,371.949524 
	C93.530388,371.972687 97.221901,371.995880 100.979370,372.939728 
	C101.036095,376.937042 101.092812,380.934357 101.038933,385.865356 
	C101.038933,389.787109 101.038933,393.708862 101.038933,397.723206 
	C110.305130,397.723206 118.876747,397.723206 128.131561,397.723206 
	C128.131561,393.680878 128.131561,389.904297 128.853043,385.723541 
	C132.557175,385.431274 136.261292,385.139038 140.895798,384.964142 
	C145.087418,384.964142 149.279053,384.964142 153.926361,384.964142 
	C153.926361,380.099365 153.926361,376.013824 154.863510,371.901276 
	C158.636444,371.804108 162.409393,371.706940 167.068710,371.782379 
	C171.042786,371.914764 175.016876,372.047150 179.025299,373.087189 
	C179.025299,376.946747 179.025299,380.806335 179.025299,384.861572 
	C183.918442,384.861572 187.997787,384.861572 192.986984,384.973694 
	C196.984604,385.054565 200.982224,385.135437 205.054199,386.113068 
	C205.054199,389.948730 205.054199,393.784363 205.054199,397.680115 
	C210.026413,397.680115 214.091400,397.680115 219.053024,397.812653 
	C223.025543,397.948730 226.998047,398.084808 230.957550,399.119049 
	C230.957550,402.838318 230.957550,406.557587 230.957550,410.554047 
	C235.771332,410.554047 239.976318,410.554047 245.067245,410.707489 
	C248.984970,410.652039 252.902710,410.596619 257.748199,410.749237 
	C261.859131,410.840302 265.970062,410.931366 269.989410,411.941345 
	C269.989410,415.766907 269.989410,419.592468 269.989410,423.417999 
	C270.356171,423.418915 270.722961,423.419800 271.089722,423.420685 
	C271.089722,419.683014 271.089722,415.945343 271.089722,411.796997 
	C279.499359,411.796997 287.444550,411.796997 295.389740,411.796997 
	C295.383087,411.565796 295.376434,411.334625 295.369751,411.103424 
	C286.916626,411.103424 278.463470,411.103424 270.004211,410.165680 
	C270.001190,406.151917 269.998169,402.138184 270.898834,397.915100 
	C274.862671,397.809662 278.826508,397.704193 283.726227,397.818024 
	C287.634583,397.890350 291.542908,397.962677 295.689056,398.090576 
	C295.689056,398.090576 295.901703,397.970551 296.231842,398.805115 
	C304.594025,398.805115 312.956207,398.805115 321.318420,398.805115 
	C321.316345,398.482513 321.314301,398.159882 321.312256,397.837280 
	C317.210938,397.837280 313.109589,397.837280 308.996796,396.936005 
	C308.995361,393.028168 308.993927,389.120331 309.901123,385.062164 
	C313.804932,385.062164 317.708771,385.062164 321.837372,385.062164 
	C321.837372,380.538635 321.837372,376.221741 322.782349,371.866760 
	C326.480286,371.813354 330.178223,371.759949 334.809509,371.865784 
	C339.242340,371.912506 343.675140,371.959229 348.355225,372.847321 
	C356.737823,372.847321 365.120422,372.847321 373.502991,372.847321 
	C373.504486,372.590790 373.505951,372.334259 373.507446,372.077728 
	C365.014008,372.077728 356.520599,372.077728 347.932800,371.148193 
	C347.953979,367.143188 347.975159,363.138153 348.908356,358.976196 
	C352.578918,358.918732 356.249451,358.861237 360.853088,358.926788 
	C364.772125,358.926788 368.691162,358.926788 373.069489,358.926788 
	C373.069489,354.328583 373.069489,350.386475 373.963593,346.206909 
	C377.957916,346.104279 381.952209,346.001648 386.879913,346.000854 
	C390.766113,346.000854 394.652283,346.000854 399.069122,346.000854 
	C399.069122,341.416687 399.069122,337.372131 399.951874,333.056610 
	C403.915558,332.931610 407.879272,332.806641 412.779419,332.842651 
	C416.704407,332.842651 420.629395,332.842651 425.029053,332.842651 
	C425.029053,328.178802 425.029053,324.209076 425.931366,320.045715 
	C429.919312,319.972412 433.907288,319.899109 438.833923,319.956085 
	C442.759979,319.956085 446.686005,319.956085 451.049744,319.956085 
	C451.049744,315.140961 451.049744,311.005585 451.960052,307.005188 
	C455.777863,307.005188 459.595673,307.005188 463.413513,307.005188 
	C463.414307,306.643951 463.415100,306.282745 463.415894,305.921509 
	C459.683655,305.921509 455.951416,305.921509 451.816559,305.921509 
	C451.816559,301.841583 451.816559,298.216400 451.816559,294.591187 
	C451.584930,294.595459 451.353333,294.599731 451.121704,294.604034 
	C451.121704,298.717926 451.121704,302.831818 450.184662,307.010223 
	C446.190796,306.989258 442.196960,306.968292 437.988220,306.776367 
	C437.988220,306.776367 437.768860,306.941467 437.826721,306.026520 
	C437.826721,302.259369 437.826721,298.492188 437.826721,294.114197 
	C433.188873,294.114197 429.077057,294.114197 424.932007,293.174316 
	C424.867035,289.123596 424.802063,285.072906 424.904999,280.106598 
	C424.850677,276.080261 424.796356,272.053894 424.910248,267.111725 
	C424.845612,263.091949 424.780975,259.072174 424.894836,254.140854 
	C424.855743,250.446365 424.816650,246.751862 424.922394,242.127716 
	C424.922394,238.038864 424.922394,233.950027 424.922394,229.597900 
	C429.796753,229.597900 433.904297,229.597900 437.832794,229.597900 
	C437.832794,225.194656 437.832794,221.070877 438.783264,216.845856 
	C442.712250,216.845856 446.641235,216.845856 450.674927,216.845856 
	C450.674927,212.203278 450.674927,208.311295 450.674927,203.932953 
	C441.920380,203.932953 433.487732,203.932953 424.992981,203.966690 
	C424.992981,203.966690 425.060181,203.953033 425.021362,203.029755 
	C425.021362,199.152267 425.021362,195.274780 425.021362,190.866302 
	C415.847351,190.866302 407.487762,190.866302 399.007446,191.003189 
	C399.007446,191.003189 399.134094,190.869766 399.145752,189.958191 
	C399.144196,187.322021 398.973297,184.672195 399.184296,182.053146 
	C399.443604,178.834198 398.247803,177.716400 394.987549,177.796280 
	C387.743500,177.973755 380.491089,177.808716 373.047821,177.939651 
	C373.047821,177.939651 373.216980,177.756454 373.170624,176.865219 
	C373.170624,172.993652 373.170624,169.122070 373.170624,165.049591 
	C364.107086,165.049591 356.029968,165.049591 347.983948,165.017624 
	C347.983948,165.017624 347.960480,165.041870 347.916260,164.105804 
	C347.916260,160.184494 347.916260,156.263168 347.916260,151.829102 
	C338.806305,151.829102 330.552124,151.829102 321.734558,151.829102 
	C321.734558,147.402939 321.734558,143.491440 321.734558,139.363571 
	C317.040771,139.363571 312.927582,139.363571 307.926941,139.207260 
	C303.711914,139.122253 299.496857,139.037247 295.291229,138.030273 
	C295.178497,133.996307 295.065735,129.962326 295.394775,126.103027 
	C295.662323,125.962776 295.929871,125.822525 296.197418,125.682266 
	C296.115265,125.555458 296.033112,125.428658 295.950958,125.301865 
	C295.638184,125.541870 295.325409,125.781883 294.091064,125.941742 
	C290.379822,126.009529 286.668549,126.077316 282.051758,125.971733 
	C278.032990,126.019104 274.014221,126.066475 269.077087,125.945717 
	C265.184753,125.945717 261.292419,125.945717 257.011505,125.945717 
	C257.011505,130.576126 257.011505,134.801315 256.090515,139.148834 
	C252.062759,139.227936 248.035004,139.307053 243.095200,139.192978 
	C239.181915,139.192978 235.268616,139.192978 230.923721,139.192978 
	C230.923721,143.741821 230.923721,147.826782 230.010254,151.967773 
	C226.010086,152.033966 222.009903,152.100143 217.089493,152.017426 
	C213.198425,152.017426 209.307358,152.017426 204.984589,152.017426 
	C204.984589,156.766891 204.984589,160.865936 204.062134,164.929596 
	C200.043625,164.992096 196.025116,165.054581 191.097305,164.950241 
	C187.398163,164.999619 183.699020,165.048996 179.446228,165.033524 
	C179.364456,165.357056 179.282700,165.680588 179.086685,166.913498 
	C178.999344,170.538101 178.912003,174.162704 177.923279,177.707733 
	C173.953476,177.794815 169.983658,177.881897 165.101898,177.737854 
	C161.370697,177.737854 157.639496,177.737854 153.796936,177.737854 
	C153.796936,182.567596 153.796936,186.695602 152.897980,190.925400 
	C148.606079,191.006775 144.314178,191.088150 139.089264,191.017700 
	C135.202362,191.071274 131.315445,191.124847 127.553268,190.930939 
	C127.553268,190.930939 127.605835,190.791122 127.605835,190.791122 
	C127.605835,190.791122 127.499756,191.159409 127.487930,192.063019 
	C127.318504,196.022247 127.149086,199.981461 126.063484,203.843811 
	C122.370995,203.911652 118.678497,203.979492 114.071518,203.854736 
M375.134399,359.971161 
	C382.922302,359.971161 390.710175,359.971161 398.498077,359.971161 
	C398.495911,359.804169 398.493774,359.637177 398.491608,359.470184 
	C390.471924,359.470184 382.452240,359.470184 375.134399,359.971161 
z"/>
<path fill="#A8784F" opacity="1.000000" stroke="none" 
	d="
M295.281830,138.952240 
	C299.496857,139.037247 303.711914,139.122253 308.407898,139.721481 
	C308.888824,144.001007 308.888824,147.766312 308.888824,152.059601 
	C313.293640,152.059601 316.875092,152.059601 320.825439,152.059601 
	C321.031250,156.617538 321.213593,160.655319 321.411652,165.041870 
	C330.666046,165.041870 339.313263,165.041870 347.960480,165.041870 
	C347.960480,165.041870 347.983948,165.017624 347.959167,165.495117 
	C347.934204,168.624786 348.075439,171.286545 347.896179,173.926544 
	C347.694336,176.899979 348.750854,178.084045 351.843658,177.987930 
	C358.963623,177.766678 366.092010,177.816574 373.216980,177.756454 
	C373.216980,177.756454 373.047821,177.939651 373.078979,178.342316 
	C373.110138,182.670441 373.110138,186.595886 373.110138,190.869766 
	C382.238434,190.869766 390.686249,190.869766 399.134094,190.869766 
	C399.134094,190.869766 399.007446,191.003189 399.048187,191.410782 
	C399.080505,194.464355 399.239471,197.124268 399.020905,199.752777 
	C398.751801,202.989517 399.954224,204.114227 403.232208,204.022583 
	C410.503174,203.819351 417.783600,203.955353 425.060181,203.953033 
	C425.060181,203.953033 424.992981,203.966690 424.999573,204.415833 
	C425.003479,208.592758 425.000824,212.320541 424.993866,216.021271 
	C424.989563,215.994232 425.044342,215.993729 424.572906,216.024780 
	C420.112274,216.065674 416.123047,216.082916 412.133850,216.084045 
	C399.235657,216.087677 399.235657,216.085403 399.003296,229.027130 
	C398.997955,228.998917 399.054260,229.010101 398.581116,229.025955 
	C394.479462,229.045120 390.847992,228.957733 387.223145,229.074631 
	C382.669617,229.221451 376.701447,227.913544 374.005432,230.273743 
	C371.712189,232.281372 373.192078,238.598999 372.534332,242.982544 
	C367.924072,242.947784 363.782074,242.938065 359.640106,242.933121 
	C347.708740,242.918915 347.708740,242.919678 347.538330,255.043640 
	C342.769897,255.055450 338.470551,255.068710 334.171234,255.069672 
	C321.217377,255.072586 321.217377,255.070709 320.552612,268.034485 
	C316.128204,268.039459 312.174896,268.041046 308.221588,268.039734 
	C295.193512,268.035461 295.193512,268.035065 294.553345,281.022766 
	C286.210022,281.021759 278.337769,281.021759 270.015564,281.021759 
	C270.015564,285.830048 270.015564,289.922729 269.546143,294.030762 
	C256.360870,294.055756 243.645065,294.065399 230.947906,293.603882 
	C230.966553,289.240173 230.966553,285.347656 230.966553,281.007416 
	C221.790283,281.007416 213.391281,281.007416 205.012573,280.541870 
	C205.037155,277.434143 204.863754,274.776672 205.090302,272.153717 
	C205.379593,268.804138 203.931854,267.910675 200.782761,267.984802 
	C193.521225,268.155640 186.252533,268.022522 179.000610,267.548706 
	C179.017914,264.925415 178.825195,262.743744 179.068100,260.611725 
	C179.495209,256.862701 178.031525,255.557861 174.299530,255.842285 
	C170.501282,256.131775 166.663742,255.908035 162.843399,255.904343 
	C154.163177,255.895920 154.039062,255.895264 154.003387,247.265732 
	C153.990524,244.154907 153.250275,242.758026 149.836838,242.872177 
	C142.370682,243.121918 134.893112,243.030121 127.273727,243.059845 
	C127.127251,243.041870 126.943878,242.805176 126.974052,242.354034 
	C126.946678,237.677673 126.889130,233.452469 127.124672,228.911972 
	C127.583328,227.799271 127.863472,227.006638 127.897079,226.203705 
	C128.320526,216.085342 128.311417,216.084961 138.825638,216.083206 
	C139.487244,216.083099 140.148865,216.083191 140.810471,216.083191 
	C152.951355,216.083176 152.951355,216.083176 153.215302,203.944672 
	C153.411057,203.869873 153.806992,203.732437 154.288177,203.810730 
	C158.575134,203.913864 162.380890,203.956924 166.186691,203.960190 
	C178.981674,203.971130 178.981674,203.965714 179.016327,191.017059 
	C179.000000,191.000000 179.034042,191.032745 179.499619,191.026566 
	C188.161179,191.020386 196.357162,191.020386 204.976791,191.020386 
	C204.976791,186.166397 204.976791,182.072311 204.988403,177.989120 
	C205.000000,178.000000 204.978378,177.976990 205.448975,177.976730 
	C210.044098,177.965652 214.168625,177.945160 218.293152,177.945831 
	C231.085464,177.947906 231.085464,177.951019 230.976257,164.978592 
	C230.999435,164.999435 230.957779,164.953018 231.429962,164.963745 
	C240.098343,164.974472 248.294525,164.974472 257.008270,164.974472 
	C257.008270,160.188004 257.008270,156.098083 257.004150,152.004074 
	C257.000000,152.000000 257.008148,152.008286 257.476135,152.006409 
	C261.900269,152.003952 265.856476,152.002975 269.812653,152.002869 
	C282.834045,152.002518 282.834045,152.002625 282.988831,138.989502 
	C283.000000,139.000000 282.979004,138.977478 283.444489,139.000793 
	C287.700592,139.000153 291.491211,138.976196 295.281830,138.952240 
z"/>
<path fill="#78451D" opacity="1.000000" stroke="none" 
	d="
M88.195168,332.555725 
	C84.406166,332.555725 80.617157,332.555725 75.991249,332.555725 
	C75.991249,298.646362 75.991249,264.712524 76.533333,230.313660 
	C80.893082,229.901764 84.710739,229.954880 88.572784,230.467743 
	C88.672905,234.889938 88.728653,238.852417 88.679840,243.285934 
	C88.561470,256.723297 88.499680,269.689819 88.547661,282.655884 
	C88.593750,295.110168 88.753563,307.564026 88.615128,320.336670 
	C88.309631,324.622070 88.252403,328.588898 88.195168,332.555725 
z"/>
<path fill="#7A7978" opacity="1.000000" stroke="none" 
	d="
M437.832794,216.947083 
	C437.832794,221.070877 437.832794,225.194656 437.832794,229.597900 
	C433.904297,229.597900 429.796753,229.597900 424.922394,229.597900 
	C424.922394,233.950027 424.922394,238.038864 424.396667,242.579498 
	C415.569641,243.012634 407.268341,242.994019 398.993683,242.513580 
	C399.031647,237.704544 399.042938,233.357330 399.054260,229.010101 
	C399.054260,229.010101 398.997955,228.998917 399.471130,229.040436 
	C408.139252,229.081955 416.334167,229.081955 425.044342,229.081955 
	C425.044342,224.199051 425.044342,220.096390 425.044342,215.993729 
	C425.044342,215.993729 424.989563,215.994232 425.449951,216.050781 
	C429.884521,216.387268 433.858643,216.667175 437.832794,216.947083 
z"/>
<path fill="#F34536" opacity="1.000000" stroke="none" 
	d="
M88.922020,371.787842 
	C84.476028,371.787842 80.030037,371.787842 75.291367,371.787842 
	C75.291367,367.281464 75.291367,362.902313 75.291367,358.026184 
	C79.417282,358.026184 83.480217,358.026184 87.896919,358.026184 
	C87.896919,353.957001 87.896919,350.364410 87.896919,346.021240 
	C92.501503,346.021240 96.744637,346.021240 101.909744,346.003357 
	C106.564896,346.007996 110.298080,346.030518 114.022369,346.515076 
	C114.013474,350.883331 114.013474,354.789581 114.013474,359.264709 
	C105.149963,359.264709 97.232269,359.264709 88.922020,359.264709 
	C88.922020,363.830475 88.922020,367.809174 88.922020,371.787842 
z"/>
<path fill="#B23024" opacity="1.000000" stroke="none" 
	d="
M89.380447,371.868683 
	C88.922020,367.809174 88.922020,363.830475 88.922020,359.264709 
	C97.232269,359.264709 105.149963,359.264709 114.013474,359.264709 
	C114.013474,354.789581 114.013474,350.883331 114.225342,346.476166 
	C114.437210,345.975220 114.850075,345.947083 115.328827,345.971313 
	C119.869614,345.986237 123.931648,345.976868 127.987198,346.434875 
	C127.976059,349.876343 128.276398,352.898438 127.819687,355.801483 
	C127.631691,356.996399 125.903343,358.733490 124.724648,358.864349 
	C114.983459,359.946045 114.972595,359.849426 114.982964,369.530731 
	C114.983849,370.356873 114.988213,371.183044 114.995483,372.004578 
	C115.000000,372.000000 115.009247,371.990845 114.543228,371.990723 
	C109.689278,372.000092 105.301338,372.009583 100.913406,372.019073 
	C97.221901,371.995880 93.530388,371.972687 89.380447,371.868683 
z"/>
<path fill="#75421C" opacity="1.000000" stroke="none" 
	d="
M347.938354,164.573837 
	C339.313263,165.041870 330.666046,165.041870 321.411652,165.041870 
	C321.213593,160.655319 321.031250,156.617538 320.825439,152.059601 
	C316.875092,152.059601 313.293640,152.059601 308.888824,152.059601 
	C308.888824,147.766312 308.888824,144.001007 308.851624,139.799637 
	C312.927582,139.363571 317.040771,139.363571 321.734558,139.363571 
	C321.734558,143.491440 321.734558,147.402939 321.734558,151.829102 
	C330.552124,151.829102 338.806305,151.829102 347.916260,151.829102 
	C347.916260,156.263168 347.916260,160.184494 347.938354,164.573837 
z"/>
<path fill="#A57B58" opacity="1.000000" stroke="none" 
	d="
M88.528404,230.007996 
	C84.710739,229.954880 80.893082,229.901764 76.632446,229.843811 
	C76.189476,225.560745 76.189476,221.282532 76.189476,216.227341 
	C84.513954,216.227341 92.758194,216.227341 101.528610,216.009293 
	C102.054779,215.791245 102.294884,215.887985 102.207787,216.359528 
	C102.113899,221.061630 102.107109,225.292160 102.114578,229.647614 
	C102.128845,229.772507 102.007423,229.992661 101.543243,229.937225 
	C96.895515,229.923843 92.711960,229.965912 88.528404,230.007996 
z"/>
<path fill="#95271D" opacity="1.000000" stroke="none" 
	d="
M128.131561,386.127716 
	C128.131561,389.904297 128.131561,393.680878 128.131561,397.723206 
	C118.876747,397.723206 110.305130,397.723206 101.038933,397.723206 
	C101.038933,393.708862 101.038933,389.787109 101.547562,385.421478 
	C106.346664,384.960480 110.637154,384.943390 115.390114,384.949219 
	C119.945580,385.357330 124.038574,385.742523 128.131561,386.127716 
z"/>
<path fill="#D6D6D6" opacity="1.000000" stroke="none" 
	d="
M424.737122,281.022156 
	C424.802063,285.072906 424.867035,289.123596 424.989258,293.720520 
	C425.046509,294.266693 424.910522,294.373291 424.461670,294.247925 
	C415.686157,294.088654 407.359528,294.054718 399.022186,293.556152 
	C399.015625,289.068939 399.019745,285.046326 399.490997,281.018127 
	C408.217773,281.015717 416.477448,281.018951 424.737122,281.022156 
z"/>
<path fill="#C7C7C7" opacity="1.000000" stroke="none" 
	d="
M424.821045,280.564392 
	C416.477448,281.018951 408.217773,281.015717 399.482269,281.009430 
	C399.006409,281.006378 398.992676,280.992676 398.996521,280.530579 
	C399.024261,276.075500 399.048157,272.082581 399.535461,268.064026 
	C408.246643,268.034760 416.494324,268.031158 424.742035,268.027557 
	C424.796356,272.053894 424.850677,276.080261 424.821045,280.564392 
z"/>
<path fill="#78451D" opacity="1.000000" stroke="none" 
	d="
M399.139923,190.413971 
	C390.686249,190.869766 382.238434,190.869766 373.110138,190.869766 
	C373.110138,186.595886 373.110138,182.670441 373.176086,178.264160 
	C380.491089,177.808716 387.743500,177.973755 394.987549,177.796280 
	C398.247803,177.716400 399.443604,178.834198 399.184296,182.053146 
	C398.973297,184.672195 399.144196,187.322021 399.139923,190.413971 
z"/>
<path fill="#78451D" opacity="1.000000" stroke="none" 
	d="
M425.040771,203.491394 
	C417.783600,203.955353 410.503174,203.819351 403.232208,204.022583 
	C399.954224,204.114227 398.751801,202.989517 399.020905,199.752777 
	C399.239471,197.124268 399.080505,194.464355 399.108551,191.342346 
	C407.487762,190.866302 415.847351,190.866302 425.021362,190.866302 
	C425.021362,195.274780 425.021362,199.152267 425.040771,203.491394 
z"/>
<path fill="#B7B5B4" opacity="1.000000" stroke="none" 
	d="
M424.826141,267.569641 
	C416.494324,268.031158 408.246643,268.034760 399.516541,268.042114 
	C399.034149,268.045807 399.001221,268.001221 399.006714,267.540283 
	C398.998444,263.375793 398.984650,259.672241 399.014801,255.751831 
	C399.058716,255.534988 399.188202,255.111847 399.644470,255.090103 
	C408.305969,255.063049 416.511139,255.057724 424.716370,255.052399 
	C424.780975,259.072174 424.845612,263.091949 424.826141,267.569641 
z"/>
<path fill="#B23024" opacity="1.000000" stroke="none" 
	d="
M128.492310,385.925629 
	C124.038574,385.742523 119.945580,385.357330 115.409973,384.494324 
	C114.981323,380.007935 114.995285,375.999390 115.009247,371.990845 
	C115.009247,371.990845 115.000000,372.000000 115.465073,371.997070 
	C123.949242,371.991730 131.968338,371.989380 139.992493,372.449982 
	C139.986847,376.890869 139.976135,380.868835 139.965424,384.846802 
	C136.261292,385.139038 132.557175,385.431274 128.492310,385.925629 
z"/>
<path fill="#75421C" opacity="1.000000" stroke="none" 
	d="
M438.308044,216.896469 
	C433.858643,216.667175 429.884521,216.387268 425.454285,216.077835 
	C425.000824,212.320541 425.003479,208.592758 425.030640,204.398956 
	C433.487732,203.932953 441.920380,203.932953 450.674927,203.932953 
	C450.674927,208.311295 450.674927,212.203278 450.674927,216.845856 
	C446.641235,216.845856 442.712250,216.845856 438.308044,216.896469 
z"/>
<path fill="#78451D" opacity="1.000000" stroke="none" 
	d="
M373.193787,177.310837 
	C366.092010,177.816574 358.963623,177.766678 351.843658,177.987930 
	C348.750854,178.084045 347.694336,176.899979 347.896179,173.926544 
	C348.075439,171.286545 347.934204,168.624786 347.943604,165.511108 
	C356.029968,165.049591 364.107086,165.049591 373.170624,165.049591 
	C373.170624,169.122070 373.170624,172.993652 373.193787,177.310837 
z"/>
<path fill="#9A9A9A" opacity="1.000000" stroke="none" 
	d="
M424.805603,254.596619 
	C416.511139,255.057724 408.305969,255.063049 399.588623,254.620422 
	C399.043884,250.437363 399.011261,246.702225 398.986206,242.974915 
	C398.993835,242.982712 398.967041,242.975388 398.967041,242.975388 
	C407.268341,242.994019 415.569641,243.012634 424.324249,243.044312 
	C424.816650,246.751862 424.855743,250.446365 424.805603,254.596619 
z"/>
<path fill="#75421C" opacity="1.000000" stroke="none" 
	d="
M348.107971,372.005951 
	C343.675140,371.959229 339.242340,371.912506 334.385376,371.348511 
	C333.993744,366.934540 334.026215,363.037811 334.512268,359.060669 
	C339.254364,358.850525 343.542938,358.720764 347.860687,358.730164 
	C347.889893,358.869354 347.996338,359.133148 347.996338,359.133148 
	C347.975159,363.138153 347.953979,367.143188 347.980042,371.572327 
	C348.027252,371.996429 348.107971,372.005951 348.107971,372.005951 
z"/>
<path fill="#95271D" opacity="1.000000" stroke="none" 
	d="
M140.430603,384.905457 
	C139.976135,380.868835 139.986847,376.890869 139.997086,372.455505 
	C139.996597,371.998047 139.987091,371.987488 140.452332,371.991699 
	C145.194794,371.913818 149.472015,371.831696 153.793625,371.794128 
	C153.837997,371.838715 153.926361,371.928253 153.926361,371.928253 
	C153.926361,376.013824 153.926361,380.099365 153.926361,384.964142 
	C149.279053,384.964142 145.087418,384.964142 140.430603,384.905457 
z"/>
<path fill="#DB3D2F" opacity="1.000000" stroke="none" 
	d="
M114.543228,371.990723 
	C114.995285,375.999390 114.981323,380.007935 114.947495,384.471375 
	C110.637154,384.943390 106.346664,384.960480 101.602859,384.954651 
	C101.092812,380.934357 101.036095,376.937042 100.946388,372.479401 
	C105.301338,372.009583 109.689278,372.000092 114.543228,371.990723 
z"/>
<path fill="#FDD3B1" opacity="1.000000" stroke="none" 
	d="
M153.807007,203.732437 
	C153.806992,203.732437 153.411057,203.869873 152.750778,203.925873 
	C148.072754,203.944519 144.054993,203.907166 140.029358,203.416626 
	C140.021744,199.032120 140.022003,195.100815 140.022278,191.169525 
	C144.314178,191.088150 148.606079,191.006775 153.385559,190.936279 
	C153.873138,190.947144 153.995056,191.026016 153.978516,191.485962 
	C153.910324,195.874756 153.858658,199.803589 153.807007,203.732437 
z"/>
<path fill="#A8784F" opacity="1.000000" stroke="none" 
	d="
M88.633827,332.658661 
	C88.252403,328.588898 88.309631,324.622070 89.089890,320.330261 
	C93.712227,320.005310 97.611542,320.005310 102.225349,320.005310 
	C102.225349,324.631989 102.225349,328.700745 102.128075,332.866455 
	C102.030800,332.963409 101.834381,333.155487 101.834381,333.155518 
	C97.580414,333.024200 93.326454,332.892883 88.633827,332.658661 
z"/>
<path fill="#040C29" opacity="1.000000" stroke="none" 
	d="
M295.901703,397.970520 
	C295.901703,397.970551 295.689056,398.090576 295.434143,397.619751 
	C295.136566,393.224243 295.093933,389.299530 295.502228,385.263824 
	C300.283356,385.031708 304.613556,384.910614 308.936829,384.897461 
	C308.929932,385.005402 308.992523,385.212494 308.992523,385.212494 
	C308.993927,389.120331 308.995361,393.028168 308.543701,397.463409 
	C304.027649,397.984070 299.964691,397.977295 295.901703,397.970520 
z"/>
<path fill="#75421C" opacity="1.000000" stroke="none" 
	d="
M321.837372,371.904877 
	C321.837372,376.221741 321.837372,380.538635 321.837372,385.062164 
	C317.708771,385.062164 313.804932,385.062164 309.446838,385.137329 
	C308.992523,385.212494 308.929932,385.005402 308.943359,384.449402 
	C308.974274,379.938324 308.991730,375.983215 309.460571,371.951477 
	C313.530701,371.834442 317.149445,371.794067 321.036011,371.787720 
	C321.481659,371.849457 321.659515,371.877167 321.837372,371.904877 
z"/>
<path fill="#A8784F" opacity="1.000000" stroke="none" 
	d="
M204.979843,385.216309 
	C200.982224,385.135437 196.984604,385.054565 192.504425,384.465973 
	C192.006775,379.989685 191.991653,376.021088 192.438797,371.972473 
	C196.827271,371.892426 200.753479,371.892426 205.101608,371.892426 
	C205.101608,376.523560 205.101608,380.626099 205.089111,384.855042 
	C205.076599,384.981415 204.979843,385.216309 204.979843,385.216309 
z"/>
<path fill="#75421C" opacity="1.000000" stroke="none" 
	d="
M191.976532,372.052521 
	C191.991653,376.021088 192.006775,379.989685 192.049500,384.409912 
	C187.997787,384.861572 183.918442,384.861572 179.025299,384.861572 
	C179.025299,380.806335 179.025299,376.946747 179.065353,372.494873 
	C179.105408,371.902557 179.152740,371.606659 179.599457,371.693207 
	C184.022964,371.870667 187.999741,371.961578 191.976532,372.052521 
z"/>
<path fill="#794821" opacity="1.000000" stroke="none" 
	d="
M373.069489,346.444397 
	C373.069489,350.386475 373.069489,354.328583 373.069489,358.926788 
	C368.691162,358.926788 364.772125,358.926788 360.421539,358.420898 
	C360.020386,354.038300 360.050781,350.161652 360.531891,346.200317 
	C364.984253,346.045166 368.985931,345.974701 372.996277,346.041046 
	C373.004944,346.177887 373.069489,346.444397 373.069489,346.444397 
z"/>
<path fill="#A8784F" opacity="1.000000" stroke="none" 
	d="
M230.970566,398.220886 
	C226.998047,398.084808 223.025543,397.948730 218.570038,397.310486 
	C218.040634,392.922272 217.994217,389.036285 218.410278,385.085510 
	C222.911880,384.994507 226.950989,384.968323 230.972931,385.407440 
	C231.002518,389.795135 231.049271,393.717560 231.069824,397.786316 
	C231.043625,397.932648 230.970566,398.220886 230.970566,398.220886 
z"/>
<path fill="#75421C" opacity="1.000000" stroke="none" 
	d="
M217.947800,385.150269 
	C217.994217,389.036285 218.040634,392.922272 218.121735,397.244202 
	C214.091400,397.680115 210.026413,397.680115 205.054199,397.680115 
	C205.054199,393.784363 205.054199,389.948730 205.017029,385.664673 
	C204.979843,385.216309 205.076599,384.981415 205.537567,384.949341 
	C209.981628,384.994934 213.964722,385.072601 217.947800,385.150269 
z"/>
<path fill="#A8784F" opacity="1.000000" stroke="none" 
	d="
M179.048187,372.041046 
	C175.016876,372.047150 171.042786,371.914764 166.600433,371.260498 
	C166.212448,366.759613 166.292740,362.780640 166.802399,358.846252 
	C171.128220,358.946869 175.024689,359.002930 178.978989,359.511597 
	C179.075470,363.845032 179.114090,367.725861 179.152740,371.606659 
	C179.152740,371.606659 179.105408,371.902557 179.048187,372.041046 
z"/>
<path fill="#A8784F" opacity="1.000000" stroke="none" 
	d="
M322.309875,371.885803 
	C321.659515,371.877167 321.481659,371.849457 321.167603,371.356995 
	C321.176270,366.982605 321.321167,363.072906 321.625793,359.149292 
	C321.785492,359.135376 322.011383,358.904419 322.472015,358.916565 
	C326.641327,358.999481 330.350006,359.070282 334.058716,359.141083 
	C334.026215,363.037811 333.993744,366.934540 333.918701,371.268921 
	C330.178223,371.759949 326.480286,371.813354 322.309875,371.885803 
z"/>
<path fill="#A8784F" opacity="1.000000" stroke="none" 
	d="
M282.790344,397.598755 
	C278.826508,397.704193 274.862671,397.809662 270.390533,397.874207 
	C269.882233,397.833313 269.817963,397.527954 269.812988,397.096039 
	C269.876129,392.780273 269.944214,388.896454 270.475250,385.007202 
	C274.973022,385.042114 279.007904,385.082428 283.004089,385.574341 
	C282.907043,389.883575 282.848694,393.741150 282.790344,397.598755 
z"/>
<path fill="#78451D" opacity="1.000000" stroke="none" 
	d="
M399.069122,333.327576 
	C399.069122,337.372131 399.069122,341.416687 399.069122,346.000854 
	C394.652283,346.000854 390.766113,346.000854 386.431213,345.495911 
	C385.994965,341.010406 386.007446,337.029846 386.473724,332.960571 
	C390.920441,332.822937 394.913361,332.774017 398.930725,332.880127 
	C398.955139,333.035156 399.069122,333.327576 399.069122,333.327576 
z"/>
<path fill="#FFD08C" opacity="1.000000" stroke="none" 
	d="
M257.011505,139.026489 
	C257.011505,134.801315 257.011505,130.576126 257.011505,125.945717 
	C261.292419,125.945717 265.184753,125.945717 269.535614,126.484543 
	C269.993256,131.013779 269.992371,135.004196 269.529572,139.005920 
	C265.052246,139.027512 261.036804,139.037811 257.014099,139.043304 
	C257.006866,139.038483 257.011505,139.026489 257.011505,139.026489 
z"/>
<path fill="#FDD3B1" opacity="1.000000" stroke="none" 
	d="
M269.991455,138.994614 
	C269.992371,135.004196 269.993256,131.013779 269.994812,126.568604 
	C274.014221,126.066475 278.032990,126.019104 282.500183,126.512039 
	C282.958740,131.027390 282.968872,135.002426 282.979004,138.977478 
	C282.979004,138.977478 283.000000,139.000000 282.527740,138.995621 
	C278.034149,138.992371 274.012787,138.993484 269.991455,138.994614 
z"/>
<path fill="#FFD08C" opacity="1.000000" stroke="none" 
	d="
M230.923721,151.911743 
	C230.923721,147.826782 230.923721,143.741821 230.923721,139.192978 
	C235.268616,139.192978 239.181915,139.192978 243.552185,139.727158 
	C244.008575,144.155716 244.007996,148.050110 243.543976,151.965637 
	C239.056137,152.002609 235.031693,152.018417 230.970261,152.014587 
	C230.933258,151.994965 230.923721,151.911743 230.923721,151.911743 
z"/>
<path fill="#FDD3B1" opacity="1.000000" stroke="none" 
	d="
M244.007401,151.944489 
	C244.007996,148.050110 244.008575,144.155716 244.008209,139.823746 
	C248.035004,139.307053 252.062759,139.227936 256.551025,139.087662 
	C257.011505,139.026489 257.006866,139.038483 256.986938,139.502762 
	C256.980743,143.980789 256.994446,147.994537 257.008118,152.008286 
	C257.008148,152.008286 257.000000,152.000000 256.540253,152.002808 
	C252.056137,151.985229 248.031769,151.964844 244.007401,151.944489 
z"/>
<path fill="#FFD08C" opacity="1.000000" stroke="none" 
	d="
M204.984589,164.964996 
	C204.984589,160.865936 204.984589,156.766891 204.984589,152.017426 
	C209.307358,152.017426 213.198425,152.017426 217.546753,152.542862 
	C218.011322,157.019135 218.018631,160.969986 217.560822,164.948853 
	C213.069946,164.997665 209.044159,165.018463 204.996338,165.026901 
	C204.974304,165.014542 204.984589,164.964996 204.984589,164.964996 
z"/>
<path fill="#FDD3B1" opacity="1.000000" stroke="none" 
	d="
M218.025925,164.920822 
	C218.018631,160.969986 218.011322,157.019135 218.006882,152.617310 
	C222.009903,152.100143 226.010086,152.033966 230.466980,151.939758 
	C230.923721,151.911743 230.933258,151.994965 230.964355,152.475281 
	C230.982895,156.954742 230.970337,160.953873 230.957779,164.953018 
	C230.957779,164.953018 230.999435,164.999435 230.517456,164.985443 
	C226.032288,164.954575 222.029099,164.937698 218.025925,164.920822 
z"/>
<path fill="#75421C" opacity="1.000000" stroke="none" 
	d="
M270.080994,411.022400 
	C265.970062,410.931366 261.859131,410.840302 257.333771,410.219421 
	C256.959259,405.767883 256.999176,401.846222 257.496765,397.888184 
	C261.908936,397.743896 265.863434,397.635925 269.817963,397.527954 
	C269.817963,397.527954 269.882233,397.833313 269.938690,397.978882 
	C269.998169,402.138184 270.001190,406.151917 270.002075,410.594360 
	C269.999908,411.023041 270.080994,411.022430 270.080994,411.022400 
z"/>
<path fill="#FDD3B1" opacity="1.000000" stroke="none" 
	d="
M192.006607,165.117065 
	C196.025116,165.054581 200.043625,164.992096 204.523361,164.947296 
	C204.984589,164.964996 204.974304,165.014542 205.005508,165.487396 
	C205.017273,169.965820 204.997818,173.971405 204.978378,177.976990 
	C204.978378,177.976990 205.000000,178.000000 204.527679,177.978271 
	C200.050034,177.916641 196.044724,177.876724 192.028687,177.385162 
	C192.014175,172.994705 192.010391,169.055878 192.006607,165.117065 
z"/>
<path fill="#FDD3B1" opacity="1.000000" stroke="none" 
	d="
M166.013855,177.968994 
	C169.983658,177.881897 173.953476,177.794815 178.403229,177.816818 
	C178.883194,177.925903 178.997787,178.023224 179.005722,178.484985 
	C179.020447,182.975403 179.027237,187.004074 179.034042,191.032745 
	C179.034042,191.032745 179.000000,191.000000 178.550415,191.007355 
	C174.078888,190.986588 170.056946,190.958466 166.028015,190.471313 
	C166.018616,185.997849 166.016235,181.983414 166.013855,177.968994 
z"/>
<path fill="#A8784F" opacity="1.000000" stroke="none" 
	d="
M257.039093,397.924530 
	C256.999176,401.846222 256.959259,405.767883 256.869873,410.115387 
	C252.902710,410.596619 248.984970,410.652039 244.563217,410.206177 
	C244.038330,405.798859 244.017471,401.892883 243.874847,397.913910 
	C243.753082,397.840912 243.795334,397.560150 244.264740,397.688477 
	C248.899429,397.744202 253.064697,397.671539 257.250244,397.720154 
	C257.270538,397.841461 257.039093,397.924530 257.039093,397.924530 
z"/>
<path fill="#FFD08C" opacity="1.000000" stroke="none" 
	d="
M139.555771,191.093597 
	C140.022003,195.100815 140.021744,199.032120 139.563675,203.456573 
	C135.076630,203.978561 131.047379,204.007401 126.988708,204.020325 
	C126.959305,204.004395 126.979660,203.940689 126.979660,203.940689 
	C127.149086,199.981461 127.318504,196.022247 127.474129,191.588394 
	C127.460327,191.113770 127.428543,191.178421 127.428543,191.178436 
	C131.315445,191.124847 135.202362,191.071274 139.555771,191.093597 
z"/>
<path fill="#78451D" opacity="1.000000" stroke="none" 
	d="
M243.996613,397.986877 
	C244.017471,401.892883 244.038330,405.798859 244.120239,410.129456 
	C239.976318,410.554047 235.771332,410.554047 230.957550,410.554047 
	C230.957550,406.557587 230.957550,402.838318 230.964050,398.669983 
	C230.970566,398.220886 231.043625,397.932648 231.521194,397.867004 
	C235.998047,397.863220 239.997330,397.925049 243.996613,397.986877 
z"/>
<path fill="#A8784F" opacity="1.000000" stroke="none" 
	d="
M386.019958,333.049286 
	C386.007446,337.029846 385.994965,341.010406 385.964508,345.445007 
	C381.952209,346.001648 377.957916,346.104279 373.516541,346.325653 
	C373.069489,346.444397 373.004944,346.177887 373.057922,345.589172 
	C373.104248,341.031219 373.097595,337.061951 373.543030,333.024048 
	C378.003357,332.986725 382.011658,333.018005 386.019958,333.049286 
z"/>
<path fill="#A8784F" opacity="1.000000" stroke="none" 
	d="
M114.850075,345.947083 
	C114.850075,345.947083 114.437210,345.975220 114.234238,346.014130 
	C110.298080,346.030518 106.564896,346.007996 102.366432,345.946594 
	C101.905388,341.957428 101.909622,338.007172 101.874115,333.606201 
	C101.834381,333.155487 102.030800,332.963409 102.571411,332.898285 
	C106.944405,332.778717 110.776779,332.724243 114.707001,333.146149 
	C114.819923,337.730682 114.834999,341.838898 114.850075,345.947083 
z"/>
<path fill="#A8784F" opacity="1.000000" stroke="none" 
	d="
M437.895233,319.825836 
	C433.907288,319.899109 429.919312,319.972412 425.448608,320.031738 
	C424.965820,320.017761 424.948486,319.787994 424.943298,319.585541 
	C424.938080,319.383087 424.788239,319.006531 424.846924,318.549530 
	C424.975891,314.415009 425.046143,310.737457 425.085388,307.058197 
	C425.054382,307.056458 425.092010,307.108398 425.546722,307.089844 
	C429.923920,307.028015 433.846375,306.984741 437.768860,306.941467 
	C437.768860,306.941467 437.988220,306.776367 438.014984,307.318665 
	C437.992920,311.849243 437.944061,315.837555 437.895233,319.825836 
z"/>
<path fill="#75421C" opacity="1.000000" stroke="none" 
	d="
M438.364563,319.890961 
	C437.944061,315.837555 437.992920,311.849243 438.122437,307.404114 
	C442.196960,306.968292 446.190796,306.989258 450.607300,306.985687 
	C451.029938,306.961151 451.049744,306.870239 451.049744,306.870239 
	C451.049744,311.005585 451.049744,315.140961 451.049744,319.956085 
	C446.686005,319.956085 442.759979,319.956085 438.364563,319.890961 
z"/>
<path fill="#75421C" opacity="1.000000" stroke="none" 
	d="
M424.997437,320.128540 
	C425.029053,324.209076 425.029053,328.178802 425.029053,332.842651 
	C420.629395,332.842651 416.704407,332.842651 412.352966,332.326202 
	C411.975006,327.926422 412.023499,324.043091 412.523956,320.095581 
	C416.650940,319.963867 420.325989,319.896332 424.240570,319.880432 
	C424.480103,319.932129 424.948486,319.787994 424.948486,319.787994 
	C424.948486,319.787994 424.965820,320.017761 424.997437,320.128540 
z"/>
<path fill="#F1F1F1" opacity="1.000000" stroke="none" 
	d="
M437.797791,306.484009 
	C433.846375,306.984741 429.923920,307.028015 425.516663,306.620483 
	C424.991425,302.237518 424.950989,298.305420 424.910522,294.373291 
	C424.910522,294.373291 425.046509,294.266693 425.005859,294.190430 
	C429.077057,294.114197 433.188873,294.114197 437.826721,294.114197 
	C437.826721,298.492188 437.826721,302.259369 437.797791,306.484009 
z"/>
<path fill="#A57B58" opacity="1.000000" stroke="none" 
	d="
M412.072021,320.159760 
	C412.023499,324.043091 411.975006,327.926422 411.884735,332.245728 
	C407.879272,332.806641 403.915558,332.931610 399.510498,333.192078 
	C399.069122,333.327576 398.955139,333.035156 399.007446,332.442596 
	C399.102509,327.970428 399.145264,324.090851 399.633423,320.146027 
	C404.076569,320.107147 408.074280,320.133453 412.072021,320.159760 
z"/>
<path fill="#FFD08C" opacity="1.000000" stroke="none" 
	d="
M191.551956,165.033661 
	C192.010391,169.055878 192.014175,172.994705 191.563232,177.433441 
	C187.071594,177.963303 183.034698,177.993256 178.997787,178.023224 
	C178.997787,178.023224 178.883194,177.925903 178.853928,177.856598 
	C178.912003,174.162704 178.999344,170.538101 179.323715,166.354736 
	C179.769958,165.603012 179.916336,165.370483 179.999878,165.098389 
	C183.699020,165.048996 187.398163,164.999619 191.551956,165.033661 
z"/>
<path fill="#95271D" opacity="1.000000" stroke="none" 
	d="
M166.373016,358.801636 
	C166.292740,362.780640 166.212448,366.759613 166.157257,371.174194 
	C162.409393,371.706940 158.636444,371.804108 154.394928,371.914764 
	C153.926361,371.928253 153.837997,371.838715 153.877396,371.361603 
	C153.929199,366.909515 153.941620,362.934540 153.976715,358.979187 
	C153.999390,358.998779 153.959488,358.954041 154.425537,358.969543 
	C158.643539,358.953094 162.395493,358.921082 166.193222,358.839813 
	C166.238983,358.790558 166.373016,358.801636 166.373016,358.801636 
z"/>
<path fill="#D4A882" opacity="1.000000" stroke="none" 
	d="
M283.444519,139.000793 
	C282.968872,135.002426 282.958740,131.027390 282.952942,126.598724 
	C286.668549,126.077316 290.379822,126.009529 294.549896,125.950172 
	C295.008728,125.958603 294.953003,125.928360 294.953003,125.928360 
	C295.065735,129.962326 295.178497,133.996307 295.286530,138.491257 
	C291.491211,138.976196 287.700592,139.000153 283.444519,139.000793 
z"/>
<path fill="#A8784F" opacity="1.000000" stroke="none" 
	d="
M360.081207,346.284973 
	C360.050781,350.161652 360.020386,354.038300 359.955017,358.359375 
	C356.249451,358.861237 352.578918,358.918732 348.452332,359.054688 
	C347.996338,359.133148 347.889893,358.869354 347.818085,358.295898 
	C347.837158,353.821503 347.928040,349.920502 348.479126,346.036194 
	C352.653290,346.130219 356.367249,346.207581 360.081207,346.284973 
z"/>
<path fill="#FFD08C" opacity="1.000000" stroke="none" 
	d="
M165.557877,177.853424 
	C166.016235,181.983414 166.018616,185.997849 165.564087,190.497574 
	C161.403122,190.997253 157.699097,191.011627 153.995056,191.026016 
	C153.995056,191.026016 153.873138,190.947144 153.835037,190.885376 
	C153.796936,186.695602 153.796936,182.567596 153.796936,177.737854 
	C157.639496,177.737854 161.370697,177.737854 165.557877,177.853424 
z"/>
<path fill="#FFD08C" opacity="1.000000" stroke="none" 
	d="
M101.980972,215.897568 
	C101.907158,212.091415 101.907158,208.178925 101.907158,203.854736 
	C106.255890,203.854736 110.163704,203.854736 114.529465,204.409271 
	C114.979042,208.657181 114.970673,212.350540 114.504868,216.045410 
	C110.129921,215.993942 106.212402,215.940964 102.294884,215.887970 
	C102.294884,215.887985 102.054779,215.791245 101.980972,215.897568 
z"/>
<path fill="#75421C" opacity="1.000000" stroke="none" 
	d="
M283.258301,397.708374 
	C282.848694,393.741150 282.907043,389.883575 283.459351,385.521362 
	C287.634521,384.981476 291.315765,384.946228 294.986084,385.029785 
	C294.975128,385.148621 295.051300,385.374817 295.051300,385.374817 
	C295.093933,389.299530 295.136566,393.224243 295.315247,397.591980 
	C291.542908,397.962677 287.634583,397.890350 283.258301,397.708374 
z"/>
<path fill="#FDD3B1" opacity="1.000000" stroke="none" 
	d="
M114.962311,216.043915 
	C114.970673,212.350540 114.979042,208.657181 114.986710,204.505569 
	C118.678497,203.979492 122.370995,203.911652 126.521576,203.892242 
	C126.979660,203.940689 126.959305,204.004395 127.010391,204.481049 
	C127.104012,216.125183 127.104012,216.125320 115.951172,216.064880 
	C115.621529,216.063095 115.291931,216.051132 114.962311,216.043915 
z"/>
<path fill="#FEFEFE" opacity="1.000000" stroke="none" 
	d="
M270.005127,411.063232 
	C278.463470,411.103424 286.916626,411.103424 295.369751,411.103424 
	C295.376434,411.334625 295.383087,411.565796 295.389740,411.796997 
	C287.444550,411.796997 279.499359,411.796997 271.089722,411.796997 
	C271.089722,415.945343 271.089722,419.683014 271.089722,423.420685 
	C270.722961,423.419800 270.356171,423.418915 269.989410,423.417999 
	C269.989410,419.592468 269.989410,415.766907 270.035217,411.481873 
	C270.080994,411.022430 269.999908,411.023041 270.005127,411.063232 
z"/>
<path fill="#FEFEFE" opacity="1.000000" stroke="none" 
	d="
M348.027222,372.037079 
	C356.520599,372.077728 365.014008,372.077728 373.507446,372.077728 
	C373.505951,372.334259 373.504486,372.590790 373.502991,372.847321 
	C365.120422,372.847321 356.737823,372.847321 348.231598,372.426636 
	C348.107971,372.005951 348.027252,371.996429 348.027222,372.037079 
z"/>
<path fill="#FEFEFE" opacity="1.000000" stroke="none" 
	d="
M296.066772,398.387817 
	C299.964691,397.977295 304.027649,397.984070 308.549438,397.914062 
	C313.109589,397.837280 317.210938,397.837280 321.312256,397.837280 
	C321.314301,398.159882 321.316345,398.482513 321.318420,398.805115 
	C312.956207,398.805115 304.594025,398.805115 296.066772,398.387817 
z"/>
<path fill="#FEFEFE" opacity="1.000000" stroke="none" 
	d="
M374.783478,359.720673 
	C382.452240,359.470184 390.471924,359.470184 398.491608,359.470184 
	C398.493774,359.637177 398.495911,359.804169 398.498077,359.971161 
	C390.710175,359.971161 382.922302,359.971161 374.783478,359.720673 
z"/>
<path fill="#FEFEFE" opacity="1.000000" stroke="none" 
	d="
M451.075806,306.953430 
	C451.121704,302.831818 451.121704,298.717926 451.121704,294.604034 
	C451.353333,294.599731 451.584930,294.595459 451.816559,294.591187 
	C451.816559,298.216400 451.816559,301.841583 451.816559,305.921509 
	C455.951416,305.921509 459.683655,305.921509 463.415894,305.921509 
	C463.415100,306.282745 463.414307,306.643951 463.413513,307.005188 
	C459.595673,307.005188 455.777863,307.005188 451.504883,306.937714 
	C451.049744,306.870239 451.029938,306.961151 451.075806,306.953430 
z"/>
<path fill="#A8784F" opacity="1.000000" stroke="none" 
	d="
M295.010681,125.990250 
	C295.325409,125.781883 295.638184,125.541870 295.950958,125.301865 
	C296.033112,125.428658 296.115265,125.555458 296.197418,125.682266 
	C295.929871,125.822525 295.662323,125.962776 295.173889,126.015694 
	C294.953003,125.928360 295.008728,125.958603 295.010681,125.990250 
z"/>
<path fill="#D4A882" opacity="1.000000" stroke="none" 
	d="
M127.490906,191.054688 
	C127.428543,191.178421 127.460327,191.113770 127.480042,191.136597 
	C127.499756,191.159409 127.605835,190.791122 127.605835,190.791122 
	C127.605835,190.791122 127.553268,190.930939 127.490906,191.054688 
z"/>
<path fill="#D4A882" opacity="1.000000" stroke="none" 
	d="
M179.723053,165.065948 
	C179.916336,165.370483 179.769958,165.603012 179.380844,165.900055 
	C179.282700,165.680588 179.364456,165.357056 179.723053,165.065948 
z"/>
<path fill="#D4A882" opacity="1.000000" stroke="none" 
	d="
M114.504875,216.045410 
	C115.291931,216.051132 115.621529,216.063095 115.951172,216.064880 
	C127.104012,216.125320 127.104012,216.125183 127.039795,204.496979 
	C131.047379,204.007401 135.076630,203.978561 139.571564,203.909760 
	C144.054993,203.907166 148.072754,203.944519 152.555023,204.000671 
	C152.951355,216.083176 152.951355,216.083176 140.810471,216.083191 
	C140.148865,216.083191 139.487244,216.083099 138.825638,216.083206 
	C128.311417,216.084961 128.320526,216.085342 127.897079,226.203705 
	C127.863472,227.006638 127.583328,227.799271 126.671921,228.894318 
	C117.984161,229.302216 110.042236,229.412460 102.100319,229.522705 
	C102.107109,225.292160 102.113899,221.061630 102.207787,216.359528 
	C106.212402,215.940964 110.129921,215.993942 114.504875,216.045410 
z"/>
<path fill="#78451D" opacity="1.000000" stroke="none" 
	d="
M127.420204,243.077805 
	C134.893112,243.030121 142.370682,243.121918 149.836838,242.872177 
	C153.250275,242.758026 153.990524,244.154907 154.003387,247.265732 
	C154.039062,255.895264 154.163177,255.895920 162.843399,255.904343 
	C166.663742,255.908035 170.501282,256.131775 174.299530,255.842285 
	C178.031525,255.557861 179.495209,256.862701 179.068100,260.611725 
	C178.825195,262.743744 179.017914,264.925415 179.006897,267.542694 
	C178.999344,268.000671 178.989059,268.011902 178.523834,268.063629 
	C169.986496,268.155945 161.914398,268.196533 153.841980,268.199066 
	C153.841660,268.161041 153.765564,268.161285 153.767303,267.687256 
	C153.769043,263.496735 153.769043,259.780273 153.769043,255.296280 
	C144.623199,255.296280 136.246689,255.296280 127.784431,254.823547 
	C127.605850,250.593140 127.513023,246.835464 127.420204,243.077805 
z"/>
<path fill="#78451D" opacity="1.000000" stroke="none" 
	d="
M230.929245,294.075043 
	C243.645065,294.065399 256.360870,294.055756 269.539337,294.024048 
	C270.001984,294.001953 269.990784,293.990173 269.979126,294.453430 
	C269.920990,298.891174 269.874542,302.865662 269.373322,306.895935 
	C260.534149,307.050659 252.149734,307.149597 243.321365,307.190338 
	C238.903351,307.110718 234.929306,307.089294 230.981995,307.060730 
	C231.008743,307.053619 231.006119,306.998291 230.982483,306.535889 
	C230.948959,302.073914 230.939087,298.074280 230.935608,294.067932 
	C230.942001,294.061218 230.929245,294.075043 230.929245,294.075043 
z"/>
<path fill="#794821" opacity="1.000000" stroke="none" 
	d="
M398.581116,229.025955 
	C399.042938,233.357330 399.031647,237.704544 398.993683,242.513580 
	C398.967041,242.975388 398.993835,242.982712 398.519836,242.957214 
	C389.691681,242.950836 381.337524,242.969971 372.990448,242.991913 
	C372.997559,242.994690 373.002594,243.009766 373.002625,243.009766 
	C373.192078,238.598999 371.712189,232.281372 374.005432,230.273743 
	C376.701447,227.913544 382.669617,229.221451 387.223145,229.074631 
	C390.847992,228.957733 394.479462,229.045120 398.581116,229.025955 
z"/>
<path fill="#78451D" opacity="1.000000" stroke="none" 
	d="
M102.114578,229.647598 
	C110.042236,229.412460 117.984161,229.302216 126.378830,229.209625 
	C126.889130,233.452469 126.946678,237.677673 126.509354,242.341019 
	C118.051300,242.813599 110.088127,242.848038 102.125198,242.888474 
	C102.125435,242.894455 102.129494,242.874725 102.104881,242.420059 
	C102.055984,237.974487 102.031708,233.983566 102.007423,229.992661 
	C102.007423,229.992661 102.128845,229.772507 102.114578,229.647598 
z"/>
<path fill="#794821" opacity="1.000000" stroke="none" 
	d="
M321.023743,268.029785 
	C321.217377,255.070709 321.217377,255.072586 334.171234,255.069672 
	C338.470551,255.068710 342.769897,255.055450 347.530396,255.211044 
	C347.991547,255.374252 347.958221,255.708862 347.946228,256.199524 
	C347.897858,260.406189 347.861450,264.122131 347.371460,267.904083 
	C338.280182,267.983551 329.642487,267.997040 321.007751,268.009705 
	C321.010712,268.008911 321.023743,268.029785 321.023743,268.029785 
z"/>
<path fill="#78451D" opacity="1.000000" stroke="none" 
	d="
M204.992279,281.007416 
	C213.391281,281.007416 221.790283,281.007416 230.966553,281.007416 
	C230.966553,285.347656 230.966553,289.240173 230.947906,293.603882 
	C230.929245,294.075043 230.942001,294.061218 230.477295,294.122009 
	C221.674683,294.119385 213.336807,294.055908 204.998230,293.996399 
	C204.997559,294.000366 204.997375,294.009521 205.047821,293.547699 
	C205.069931,289.052460 205.041580,285.019012 205.008087,280.991241 
	C205.002960,280.996887 204.992279,281.007416 204.992279,281.007416 
z"/>
<path fill="#D4A882" opacity="1.000000" stroke="none" 
	d="
M257.476105,152.006409 
	C256.994446,147.994537 256.980743,143.980789 256.994202,139.507584 
	C261.036804,139.037811 265.052246,139.027512 269.529572,139.005920 
	C274.012787,138.993484 278.034149,138.992371 282.516602,138.985123 
	C282.834045,152.002625 282.834045,152.002518 269.812653,152.002869 
	C265.856476,152.002975 261.900269,152.003952 257.476105,152.006409 
z"/>
<path fill="#D4A882" opacity="1.000000" stroke="none" 
	d="
M205.448975,177.976730 
	C204.997818,173.971405 205.017273,169.965820 205.027557,165.499756 
	C209.044159,165.018463 213.069946,164.997665 217.560822,164.948853 
	C222.029099,164.937698 226.032288,164.954575 230.494263,164.964600 
	C231.085464,177.951019 231.085464,177.947906 218.293152,177.945831 
	C214.168625,177.945160 210.044098,177.965652 205.448975,177.976730 
z"/>
<path fill="#78451D" opacity="1.000000" stroke="none" 
	d="
M178.993042,268.006714 
	C186.252533,268.022522 193.521225,268.155640 200.782761,267.984802 
	C203.931854,267.910675 205.379593,268.804138 205.090302,272.153717 
	C204.863754,274.776672 205.037155,277.434143 205.012573,280.541870 
	C204.992279,281.007416 205.002960,280.996887 204.539124,281.024048 
	C195.723251,281.024261 187.371231,280.997345 179.009155,280.985229 
	C178.999115,281.000000 179.029297,280.981323 179.041870,280.519409 
	C179.032639,276.042297 179.010849,272.027100 178.989059,268.011902 
	C178.989059,268.011902 178.999344,268.000671 178.993042,268.006714 
z"/>
<path fill="#D4A882" opacity="1.000000" stroke="none" 
	d="
M179.005722,178.484985 
	C183.034698,177.993256 187.071594,177.963303 191.573944,177.885071 
	C196.044724,177.876724 200.050034,177.916641 204.516083,177.967407 
	C204.976791,182.072311 204.976791,186.166397 204.976791,191.020386 
	C196.357162,191.020386 188.161179,191.020386 179.499619,191.026566 
	C179.027237,187.004074 179.020447,182.975403 179.005722,178.484985 
z"/>
<path fill="#D4A882" opacity="1.000000" stroke="none" 
	d="
M231.429962,164.963745 
	C230.970337,160.953873 230.982895,156.954742 231.001358,152.494904 
	C235.031693,152.018417 239.056137,152.002609 243.543976,151.965637 
	C248.031769,151.964844 252.056137,151.985229 256.544373,152.006866 
	C257.008270,156.098083 257.008270,160.188004 257.008270,164.974472 
	C248.294525,164.974472 240.098343,164.974472 231.429962,164.963745 
z"/>
<path fill="#78451D" opacity="1.000000" stroke="none" 
	d="
M295.024445,281.023743 
	C295.193512,268.035065 295.193512,268.035461 308.221588,268.039734 
	C312.174896,268.041046 316.128204,268.039459 320.552612,268.034485 
	C321.023743,268.029785 321.010712,268.008911 321.048706,268.472992 
	C321.086670,272.830505 321.086670,276.723907 321.086670,280.992798 
	C311.843292,280.992798 303.417938,280.992798 295.000031,281.000061 
	C295.007477,281.007355 295.024445,281.023743 295.024445,281.023743 
z"/>
<path fill="#78451D" opacity="1.000000" stroke="none" 
	d="
M424.572906,216.024780 
	C425.044342,220.096390 425.044342,224.199051 425.044342,229.081955 
	C416.334167,229.081955 408.139252,229.081955 399.476471,229.068649 
	C399.235657,216.085403 399.235657,216.087677 412.133850,216.084045 
	C416.123047,216.082916 420.112274,216.065674 424.572906,216.024780 
z"/>
<path fill="#B9B9B9" opacity="1.000000" stroke="none" 
	d="
M102.124954,242.882492 
	C110.088127,242.848038 118.051300,242.813599 126.479172,242.792175 
	C126.943878,242.805176 127.127251,243.041870 127.273727,243.059845 
	C127.513023,246.835464 127.605850,250.593140 127.707077,254.972198 
	C127.570709,255.777084 127.383820,255.892273 126.679077,255.898224 
	C118.226700,255.602280 110.250046,255.347244 102.124954,255.087463 
	C102.124954,250.435822 102.124954,246.659149 102.124954,242.882492 
z"/>
<path fill="#D4A882" opacity="1.000000" stroke="none" 
	d="
M153.978516,191.485962 
	C157.699097,191.011627 161.403122,190.997253 165.571091,190.956619 
	C170.056946,190.958466 174.078888,190.986588 178.566742,191.024414 
	C178.981674,203.965714 178.981674,203.971130 166.186691,203.960190 
	C162.380890,203.956924 158.575134,203.913864 154.288177,203.810730 
	C153.858658,199.803589 153.910324,195.874756 153.978516,191.485962 
z"/>
<path fill="#78451D" opacity="1.000000" stroke="none" 
	d="
M270.008789,294.008667 
	C270.015564,289.922729 270.015564,285.830048 270.015564,281.021759 
	C278.337769,281.021759 286.210022,281.021759 294.553345,281.022766 
	C295.024445,281.023743 295.007477,281.007355 295.033386,281.463318 
	C295.060425,285.967590 295.061615,290.015900 294.590302,294.076416 
	C286.075470,294.055786 278.033142,294.022980 269.990784,293.990173 
	C269.990784,293.990173 270.001984,294.001953 270.008789,294.008667 
z"/>
<path fill="#78451D" opacity="1.000000" stroke="none" 
	d="
M347.958221,255.708862 
	C347.958221,255.708862 347.991547,255.374252 347.999481,255.206848 
	C347.708740,242.919678 347.708740,242.918915 359.640106,242.933121 
	C363.782074,242.938065 367.924072,242.947784 372.534302,242.982544 
	C373.002594,243.009766 372.997559,242.994690 373.018616,243.454208 
	C372.989166,247.900040 372.938690,251.886368 372.907196,255.879776 
	C372.926178,255.886871 372.897736,255.889511 372.444702,255.879974 
	C363.980530,255.816574 355.969360,255.762711 347.958221,255.708862 
z"/>
<path fill="#FEFEFE" opacity="1.000000" stroke="none" 
	d="
M102.125198,242.888474 
	C102.124954,246.659149 102.124954,250.435822 102.124954,255.087463 
	C110.250046,255.347244 118.226700,255.602280 126.691681,256.366425 
	C127.180016,260.460144 127.180016,264.044800 127.180016,268.161285 
	C136.559570,268.161285 145.162567,268.161285 153.765564,268.161285 
	C153.765564,268.161285 153.841660,268.161041 153.831146,268.648804 
	C153.820648,272.999878 153.820648,276.863220 153.820648,280.981323 
	C162.895538,280.981323 170.962418,280.981323 179.029297,280.981323 
	C179.029297,280.981323 178.999115,281.000000 179.000824,281.452820 
	C179.002548,285.815887 179.002548,289.726105 179.002548,294.009521 
	C188.178925,294.009521 196.588150,294.009521 204.997375,294.009521 
	C204.997375,294.009521 204.997559,294.000366 204.989487,294.462524 
	C204.981415,298.813141 204.981415,302.701630 204.981415,306.998291 
	C214.239944,306.998291 222.623032,306.998291 231.006119,306.998291 
	C231.006119,306.998291 231.008743,307.053619 230.981720,307.520233 
	C230.992706,312.012238 231.030731,316.037598 231.025040,320.524597 
	C230.970093,342.316895 230.958847,363.647614 230.970764,384.985107 
	C230.993942,384.991882 230.990097,384.942108 230.990097,384.942139 
	C226.950989,384.968323 222.911880,384.994507 218.410278,385.085510 
	C213.964722,385.072601 209.981628,384.994934 205.550079,384.822937 
	C205.101608,380.626099 205.101608,376.523560 205.101608,371.892426 
	C200.753479,371.892426 196.827271,371.892426 192.438797,371.972473 
	C187.999741,371.961578 184.022964,371.870667 179.599457,371.693207 
	C179.114090,367.725861 179.075470,363.845032 179.022171,359.048523 
	C179.046158,354.170135 179.084808,350.207489 179.576752,346.176056 
	C183.940277,346.107300 187.850494,346.107300 191.742920,346.107300 
	C191.742920,341.352264 191.742920,337.280396 191.742920,332.679413 
	C187.389755,332.679413 183.283112,332.679413 179.148010,332.235931 
	C179.119553,327.962006 179.119553,324.131592 179.119553,320.078461 
	C174.083008,320.078461 170.017075,320.078461 165.494385,320.046844 
	C161.354965,319.999786 157.672318,319.984344 153.894958,319.515350 
	C153.800217,315.143951 153.800217,311.226166 153.800217,307.374634 
	C144.605698,307.374634 136.216354,307.374634 127.654175,307.374634 
	C127.429909,311.796265 127.221504,315.905396 126.547806,320.009460 
	C122.360756,320.004395 118.639000,320.004395 114.609161,320.004395 
	C114.609161,324.739471 114.609161,328.704651 114.609161,332.669800 
	C110.776779,332.724243 106.944405,332.778717 102.668686,332.801331 
	C102.225349,328.700745 102.225349,324.631989 102.225349,320.005310 
	C97.611542,320.005310 93.712227,320.005310 89.338165,320.011688 
	C88.753563,307.564026 88.593750,295.110168 88.547661,282.655884 
	C88.499680,269.689819 88.561470,256.723297 89.159637,243.299133 
	C93.872498,242.852417 98.000999,242.863571 102.129494,242.874725 
	C102.129494,242.874725 102.125435,242.894455 102.125198,242.888474 
z"/>
<path fill="#B7B5B4" opacity="1.000000" stroke="none" 
	d="
M102.104881,242.420059 
	C98.000999,242.863571 93.872498,242.852417 89.264206,242.828079 
	C88.728653,238.852417 88.672905,234.889938 88.572784,230.467743 
	C92.711960,229.965912 96.895515,229.923843 101.543243,229.937225 
	C102.031708,233.983566 102.055984,237.974487 102.104881,242.420059 
z"/>
<path fill="#DB3D2F" opacity="1.000000" stroke="none" 
	d="
M153.989685,319.968933 
	C157.672318,319.984344 161.354965,319.999786 165.571198,320.497192 
	C166.126236,324.877502 166.147675,328.775848 166.126785,333.156921 
	C166.087326,337.811432 166.090195,341.983276 166.084976,346.109406 
	C166.076889,346.063690 166.163635,346.096741 165.686478,346.064758 
	C154.006790,345.919800 154.007004,345.919800 153.976807,356.977570 
	C153.975021,357.636383 153.965439,358.295227 153.959488,358.954041 
	C153.959488,358.954041 153.999390,358.998779 153.515747,358.989502 
	C140.093781,359.061676 140.093781,359.061676 139.987091,371.987488 
	C139.987091,371.987488 139.996597,371.998047 139.992004,371.992554 
	C131.968338,371.989380 123.949242,371.991730 115.460556,372.001648 
	C114.988213,371.183044 114.983849,370.356873 114.982964,369.530731 
	C114.972595,359.849426 114.983459,359.946045 124.724648,358.864349 
	C125.903343,358.733490 127.631691,356.996399 127.819687,355.801483 
	C128.276398,352.898438 127.976059,349.876343 127.988808,346.452240 
	C127.996902,346.002289 127.965561,345.999207 128.432159,346.000488 
	C132.350677,345.823944 136.481689,346.703827 139.006805,345.082550 
	C140.591522,344.065094 139.487366,339.229736 140.152100,336.231995 
	C140.428299,334.986420 142.020950,333.410553 143.275314,333.123810 
	C146.683533,332.344727 151.790955,333.394897 153.317017,331.444641 
	C155.110580,329.152527 153.844070,324.465271 153.900925,320.816711 
	C153.903488,320.651581 153.869568,320.485840 153.899231,320.237335 
	C153.945816,320.154266 153.989685,319.968903 153.989685,319.968933 
z"/>
<path fill="#F34536" opacity="1.000000" stroke="none" 
	d="
M114.707001,333.146149 
	C114.609161,328.704651 114.609161,324.739471 114.609161,320.004395 
	C118.639000,320.004395 122.360756,320.004395 126.601212,320.096863 
	C127.119904,320.189301 127.249100,320.348328 127.183067,320.778961 
	C127.399879,329.472809 127.682724,337.735992 127.965561,345.999207 
	C127.965561,345.999207 127.996902,346.002289 127.995300,345.984924 
	C123.931648,345.976868 119.869614,345.986237 115.328827,345.971313 
	C114.834999,341.838898 114.819923,337.730682 114.707001,333.146149 
z"/>
<path fill="#E3E2E2" opacity="1.000000" stroke="none" 
	d="
M424.461670,294.247925 
	C424.950989,298.305420 424.991425,302.237518 425.061951,306.639038 
	C425.092010,307.108398 425.054382,307.056458 424.606720,307.040283 
	C415.776947,307.019928 407.394806,307.015717 399.009521,306.547150 
	C399.012268,302.067810 399.018219,298.052795 399.020447,294.030762 
	C399.016693,294.023743 399.032867,294.020782 399.032867,294.020813 
	C407.359528,294.054718 415.686157,294.088654 424.461670,294.247925 
z"/>
<path fill="#C7C7C7" opacity="1.000000" stroke="none" 
	d="
M399.015137,281.015076 
	C399.019745,285.046326 399.015625,289.068939 399.022186,293.556152 
	C399.032867,294.020782 399.016693,294.023743 398.549133,294.019409 
	C389.729126,294.016235 381.376617,294.017426 373.016174,293.553986 
	C373.022644,289.076202 373.037048,285.063049 373.516663,281.035828 
	C382.318817,281.012085 390.655762,281.002380 398.992676,280.992676 
	C398.992676,280.992676 399.006409,281.006378 399.015137,281.015076 
z"/>
<path fill="#B9B9B9" opacity="1.000000" stroke="none" 
	d="
M398.996521,280.530579 
	C390.655762,281.002380 382.318817,281.012085 373.499756,281.019501 
	C373.017639,281.017212 372.984406,280.984314 372.995728,280.523163 
	C373.027130,276.069885 373.047272,272.077728 373.067291,268.076538 
	C373.067200,268.067505 373.087677,268.065216 373.550720,268.054688 
	C382.342896,268.029816 390.672058,268.015503 399.001221,268.001221 
	C399.001221,268.001221 399.034149,268.045807 399.053101,268.067719 
	C399.048157,272.082581 399.024261,276.075500 398.996521,280.530579 
z"/>
<path fill="#7A7978" opacity="1.000000" stroke="none" 
	d="
M372.888214,255.872681 
	C372.938690,251.886368 372.989166,247.900040 373.011475,243.451416 
	C381.337524,242.969971 389.691681,242.950836 398.512238,242.949402 
	C399.011261,246.702225 399.043884,250.437363 399.132355,254.642166 
	C399.188202,255.111847 399.058716,255.534988 398.549255,255.748047 
	C389.655945,255.931625 381.272095,255.902145 372.888214,255.872681 
z"/>
<path fill="#9A9A9A" opacity="1.000000" stroke="none" 
	d="
M372.907196,255.879776 
	C381.272095,255.902145 389.655945,255.931625 398.505371,255.964890 
	C398.984650,259.672241 398.998444,263.375793 399.006714,267.540283 
	C390.672058,268.015503 382.342896,268.029816 373.524963,267.587097 
	C372.990051,263.383240 372.943878,259.636383 372.897705,255.889511 
	C372.897736,255.889511 372.926178,255.886871 372.907196,255.879776 
z"/>
<path fill="#F1F1F1" opacity="1.000000" stroke="none" 
	d="
M348.018921,346.019531 
	C347.928040,349.920502 347.837158,353.821503 347.788879,358.156738 
	C343.542938,358.720764 339.254364,358.850525 334.512268,359.060669 
	C330.350006,359.070282 326.641327,358.999481 322.468628,358.458618 
	C322.000488,355.655670 322.206696,353.298981 321.945343,350.995300 
	C321.497192,347.045532 322.975037,345.744354 326.968445,345.913208 
	C333.953766,346.208527 340.961517,345.973297 347.974670,345.975159 
	C347.989471,345.989868 348.018890,346.019531 348.018921,346.019531 
z"/>
<path fill="#B23024" opacity="1.000000" stroke="none" 
	d="
M140.452332,371.991699 
	C140.093781,359.061676 140.093781,359.061676 153.493073,358.969879 
	C153.941620,362.934540 153.929199,366.909515 153.833023,371.317017 
	C149.472015,371.831696 145.194794,371.913818 140.452332,371.991699 
z"/>
<path fill="#A8784F" opacity="1.000000" stroke="none" 
	d="
M309.009186,372.028137 
	C308.991730,375.983215 308.974274,379.938324 308.950256,384.341461 
	C304.613556,384.910614 300.283356,385.031708 295.502228,385.263824 
	C295.051300,385.374817 294.975128,385.148621 295.078125,384.581543 
	C295.183044,380.064087 295.184998,376.113708 295.633759,372.080017 
	C300.390106,372.007172 304.699646,372.017670 309.009186,372.028137 
z"/>
<path fill="#F1F1F1" opacity="1.000000" stroke="none" 
	d="
M309.460571,371.951477 
	C304.699646,372.017670 300.390106,372.007172 295.580475,372.033936 
	C295.080383,372.071198 294.976379,371.976227 294.987213,371.515137 
	C295.003967,367.041321 295.009918,363.028564 295.483459,359.010681 
	C304.456055,359.058105 312.961060,359.110687 321.466064,359.163239 
	C321.321167,363.072906 321.176270,366.982605 320.899780,371.322998 
	C317.149445,371.794067 313.530701,371.834442 309.460571,371.951477 
z"/>
<path fill="#F1F1F1" opacity="1.000000" stroke="none" 
	d="
M360.531891,346.200317 
	C356.367249,346.207581 352.653290,346.130219 348.479126,346.036194 
	C348.018890,346.019531 347.989471,345.989868 347.985107,345.515015 
	C347.987976,341.027557 347.995209,337.014984 348.470764,333.000397 
	C356.948547,332.987915 364.957977,332.977448 372.998291,332.998413 
	C373.029205,333.029816 373.090973,333.092682 373.090973,333.092682 
	C373.097595,337.061951 373.104248,341.031219 373.049255,345.452332 
	C368.985931,345.974701 364.984253,346.045166 360.531891,346.200317 
z"/>
<path fill="#D6D6D6" opacity="1.000000" stroke="none" 
	d="
M243.874847,397.913879 
	C239.997330,397.925049 235.998047,397.863220 231.547394,397.720673 
	C231.049271,393.717560 231.002518,389.795135 230.972931,385.407410 
	C230.990097,384.942108 230.993942,384.991882 231.437683,384.992676 
	C235.926178,384.990601 239.970947,384.987762 243.996582,385.446350 
	C243.916733,389.791901 243.856033,393.676025 243.795334,397.560150 
	C243.795334,397.560150 243.753082,397.840912 243.874847,397.913879 
z"/>
<path fill="#D4AAA7" opacity="1.000000" stroke="none" 
	d="
M179.123444,346.244812 
	C179.084808,350.207489 179.046158,354.170135 178.964325,358.595886 
	C175.024689,359.002930 171.128220,358.946869 166.802399,358.846252 
	C166.373016,358.801636 166.238983,358.790558 166.215729,358.387756 
	C166.182861,354.022247 166.173264,350.059479 166.163635,346.096741 
	C166.163635,346.096741 166.076889,346.063690 166.540680,346.089142 
	C171.044113,346.157990 175.083786,346.201385 179.123444,346.244812 
z"/>
<path fill="#E3E2E2" opacity="1.000000" stroke="none" 
	d="
M348.002411,333.002411 
	C347.995209,337.014984 347.987976,341.027557 347.970306,345.500275 
	C340.961517,345.973297 333.953766,346.208527 326.968445,345.913208 
	C322.975037,345.744354 321.497192,347.045532 321.945343,350.995300 
	C322.206696,353.298981 322.000488,355.655670 322.007996,358.446472 
	C322.011383,358.904419 321.785492,359.135376 321.625763,359.149292 
	C312.961060,359.110687 304.456055,359.058105 295.475342,359.002563 
	C294.999573,358.999573 294.985748,358.985687 294.991028,358.524078 
	C295.004852,354.048828 295.013367,350.035156 295.489136,346.015747 
	C299.911072,346.006561 303.865784,346.001251 307.820465,345.999969 
	C320.999634,345.995728 320.999634,345.996307 321.246155,333.003174 
	C321.485779,332.998688 321.963531,332.960449 322.435730,332.973907 
	C331.260986,332.980591 339.614014,332.973816 347.975830,332.975830 
	C347.984650,332.984650 348.002411,333.002411 348.002411,333.002411 
z"/>
<path fill="#F1F1F1" opacity="1.000000" stroke="none" 
	d="
M295.133667,372.117249 
	C295.184998,376.113708 295.183044,380.064087 295.089050,384.462708 
	C291.315765,384.946228 287.634521,384.981476 283.498016,385.069763 
	C279.007904,385.082428 274.973022,385.042114 270.462189,384.994080 
	C269.986206,384.986328 269.959961,384.960297 269.972260,384.500519 
	C269.991608,380.029053 269.998657,376.017395 270.473999,372.002869 
	C278.953644,371.992096 286.964996,371.984161 294.976379,371.976196 
	C294.976379,371.976227 295.080383,372.071198 295.133667,372.117249 
z"/>
<path fill="#F1F1F1" opacity="1.000000" stroke="none" 
	d="
M269.812988,397.096039 
	C265.863434,397.635925 261.908936,397.743896 257.496765,397.888184 
	C257.039093,397.924530 257.270538,397.841461 257.185883,397.291626 
	C257.046997,392.832153 256.992737,388.922516 257.407166,385.008118 
	C261.903900,384.989044 265.931946,384.974670 269.959961,384.960297 
	C269.959961,384.960297 269.986206,384.986328 269.999268,384.999451 
	C269.944214,388.896454 269.876129,392.780273 269.812988,397.096039 
z"/>
<path fill="#F1F1F1" opacity="1.000000" stroke="none" 
	d="
M399.187988,320.211243 
	C399.145264,324.090851 399.102509,327.970428 398.983032,332.287567 
	C394.913361,332.774017 390.920441,332.822937 386.473755,332.960571 
	C382.011658,333.018005 378.003357,332.986725 373.543030,333.024048 
	C373.090973,333.092682 373.029205,333.029816 373.013550,332.538208 
	C373.003876,328.036346 373.009857,324.026093 373.482666,320.010132 
	C382.294220,319.997467 390.638977,319.990570 399.035370,320.040039 
	C399.087036,320.096375 399.187988,320.211243 399.187988,320.211243 
z"/>
<path fill="#ABABAB" opacity="1.000000" stroke="none" 
	d="
M256.938477,385.012878 
	C256.992737,388.922516 257.046997,392.832153 257.165588,397.170349 
	C253.064697,397.671539 248.899429,397.744202 244.264740,397.688477 
	C243.856033,393.676025 243.916733,389.791901 243.985870,385.456909 
	C243.994293,385.006073 243.973846,385.027008 244.438858,385.017212 
	C248.915405,385.009216 252.926941,385.011047 256.938477,385.012878 
z"/>
<path fill="#F1F1F1" opacity="1.000000" stroke="none" 
	d="
M399.012695,307.011505 
	C407.394806,307.015717 415.776947,307.019928 424.637756,307.042053 
	C425.046143,310.737457 424.975891,314.415009 424.677948,318.646332 
	C424.244232,319.369446 424.094513,319.579010 424.001038,319.828766 
	C420.325989,319.896332 416.650940,319.963867 412.523956,320.095581 
	C408.074280,320.133453 404.076569,320.107147 399.633423,320.146027 
	C399.187988,320.211243 399.087036,320.096375 399.041443,319.578369 
	C399.001099,315.044464 399.006317,311.028564 399.007080,307.007385 
	C399.002625,307.002136 399.012695,307.011505 399.012695,307.011505 
z"/>
<path fill="#E3E2E2" opacity="1.000000" stroke="none" 
	d="
M424.240570,319.880432 
	C424.094513,319.579010 424.244232,319.369446 424.619263,319.103333 
	C424.788239,319.006531 424.938080,319.383087 424.943298,319.585541 
	C424.948486,319.787994 424.480103,319.932129 424.240570,319.880432 
z"/>
<path fill="#B23024" opacity="1.000000" stroke="none" 
	d="
M165.686493,346.064758 
	C166.173264,350.059479 166.182861,354.022247 166.169968,358.437012 
	C162.395493,358.921082 158.643539,358.953094 154.425537,358.969543 
	C153.965439,358.295227 153.975021,357.636383 153.976807,356.977570 
	C154.007004,345.919800 154.006790,345.919800 165.686493,346.064758 
z"/>
<path fill="#B7B5B4" opacity="1.000000" stroke="none" 
	d="
M153.767303,267.687256 
	C145.162567,268.161285 136.559570,268.161285 127.180016,268.161285 
	C127.180016,264.044800 127.180016,260.460144 127.167412,256.407318 
	C127.383820,255.892273 127.570709,255.777084 127.792831,255.444931 
	C136.246689,255.296280 144.623199,255.296280 153.769043,255.296280 
	C153.769043,259.780273 153.769043,263.496735 153.767303,267.687256 
z"/>
<path fill="#B9B9B9" opacity="1.000000" stroke="none" 
	d="
M179.041870,280.519409 
	C170.962418,280.981323 162.895538,280.981323 153.820648,280.981323 
	C153.820648,276.863220 153.820648,272.999878 153.831467,268.686829 
	C161.914398,268.196533 169.986496,268.155945 178.523834,268.063629 
	C179.010849,272.027100 179.032639,276.042297 179.041870,280.519409 
z"/>
<path fill="#B7B5B4" opacity="1.000000" stroke="none" 
	d="
M230.982483,306.535889 
	C222.623032,306.998291 214.239944,306.998291 204.981415,306.998291 
	C204.981415,302.701630 204.981415,298.813141 204.990173,294.458557 
	C213.336807,294.055908 221.674683,294.119385 230.470886,294.128754 
	C230.939087,298.074280 230.948959,302.073914 230.982483,306.535889 
z"/>
<path fill="#7A7978" opacity="1.000000" stroke="none" 
	d="
M243.765320,307.248535 
	C252.149734,307.149597 260.534149,307.050659 269.440674,306.959229 
	C269.962830,306.966705 270.093658,307.094116 270.054749,307.546326 
	C269.969727,311.960693 269.923645,315.922852 269.417755,319.918427 
	C260.666260,319.944733 252.374557,319.937592 244.004410,319.937164 
	C243.925949,319.943878 243.801971,320.041016 243.831848,319.578247 
	C243.829575,315.159821 243.797455,311.204163 243.765320,307.248535 
z"/>
<path fill="#7A7978" opacity="1.000000" stroke="none" 
	d="
M269.979126,294.453430 
	C278.033142,294.022980 286.075470,294.055786 294.645233,294.130920 
	C295.172638,294.173248 295.282318,294.282440 295.196045,294.712494 
	C295.060516,299.082428 295.011261,303.022308 294.495911,306.974976 
	C286.051086,307.023224 278.072388,307.058655 270.093658,307.094116 
	C270.093658,307.094116 269.962830,306.966705 269.895447,306.903442 
	C269.874542,302.865662 269.920990,298.891174 269.979126,294.453430 
z"/>
<path fill="#D6D6D6" opacity="1.000000" stroke="none" 
	d="
M243.321365,307.190338 
	C243.797455,311.204163 243.829575,315.159821 243.388428,319.550751 
	C238.966339,320.011688 235.017548,320.037354 231.068756,320.062988 
	C231.030731,316.037598 230.992706,312.012238 230.954971,307.527344 
	C234.929306,307.089294 238.903351,307.110718 243.321365,307.190338 
z"/>
<path fill="#7A7978" opacity="1.000000" stroke="none" 
	d="
M295.117706,294.118744 
	C295.061615,290.015900 295.060425,285.967590 295.025940,281.456024 
	C303.417938,280.992798 311.843292,280.992798 321.086670,280.992798 
	C321.086670,276.723907 321.086670,272.830505 321.045715,268.473816 
	C329.642487,267.997040 338.280182,267.983551 347.442505,267.970581 
	C347.967102,267.971100 348.104401,268.105103 348.061249,268.555115 
	C347.996765,272.986115 347.975433,276.967041 347.976501,280.973572 
	C347.998901,280.999176 347.947937,280.953735 347.484680,280.964111 
	C342.901367,280.984131 338.781311,281.000854 334.661224,281.002045 
	C321.889130,281.005646 321.889130,281.003357 321.771301,294.029694 
	C321.559875,294.076447 321.150024,294.216309 320.675201,294.159790 
	C311.894348,294.162994 303.588348,294.222717 295.282318,294.282440 
	C295.282318,294.282440 295.172638,294.173248 295.117706,294.118744 
z"/>
<path fill="#7A7978" opacity="1.000000" stroke="none" 
	d="
M372.444702,255.879974 
	C372.943878,259.636383 372.990051,263.383240 373.061951,267.597656 
	C373.087677,268.065216 373.067200,268.067505 372.592072,268.051483 
	C364.112762,268.058655 356.108582,268.081879 348.104401,268.105103 
	C348.104401,268.105103 347.967102,267.971100 347.896057,267.904602 
	C347.861450,264.122131 347.897858,260.406189 347.946228,256.199524 
	C355.969360,255.762711 363.980530,255.816574 372.444702,255.879974 
z"/>
<path fill="#B9B9B9" opacity="1.000000" stroke="none" 
	d="
M205.047821,293.547699 
	C196.588150,294.009521 188.178925,294.009521 179.002548,294.009521 
	C179.002548,289.726105 179.002548,285.815887 179.010864,281.438049 
	C187.371231,280.997345 195.723251,281.024261 204.544250,281.018402 
	C205.041580,285.019012 205.069931,289.052460 205.047821,293.547699 
z"/>
<path fill="#ABABAB" opacity="1.000000" stroke="none" 
	d="
M231.025040,320.524597 
	C235.017548,320.037354 238.966339,320.011688 243.358551,320.013550 
	C243.801971,320.041016 243.925949,319.943878 243.973633,320.406555 
	C244.014618,324.905670 244.007919,328.942108 244.000977,333.444031 
	C244.005630,337.944489 244.010559,341.979462 244.005646,346.476074 
	C244.003845,350.962372 244.011887,354.987000 244.004364,359.473846 
	C243.998688,363.959595 244.008530,367.983093 243.991302,372.468567 
	C243.967422,376.962708 243.970627,380.994843 243.973846,385.027008 
	C243.973846,385.027008 243.994293,385.006073 244.005005,384.995483 
	C239.970947,384.987762 235.926178,384.990601 231.414505,384.985870 
	C230.958847,363.647614 230.970093,342.316895 231.025040,320.524597 
z"/>
<path fill="#F64D3E" opacity="1.000000" stroke="none" 
	d="
M127.066498,320.101898 
	C127.221504,315.905396 127.429909,311.796265 127.654175,307.374634 
	C136.216354,307.374634 144.605698,307.374634 153.800217,307.374634 
	C153.800217,311.226166 153.800217,315.143951 153.894958,319.515320 
	C153.989685,319.968903 153.945816,320.154266 153.451599,320.133606 
	C144.387939,320.191437 135.818527,320.269867 127.249100,320.348328 
	C127.249100,320.348328 127.119904,320.189301 127.066498,320.101898 
z"/>
<path fill="#B23024" opacity="1.000000" stroke="none" 
	d="
M179.576752,346.176025 
	C175.083786,346.201385 171.044113,346.157990 166.548767,346.134857 
	C166.090195,341.983276 166.087326,337.811432 166.572235,333.223694 
	C171.098816,332.765015 175.137650,332.722229 179.176468,332.679413 
	C183.283112,332.679413 187.389755,332.679413 191.742920,332.679413 
	C191.742920,337.280396 191.742920,341.352264 191.742920,346.107300 
	C187.850494,346.107300 183.940277,346.107300 179.576752,346.176025 
z"/>
<path fill="#D4AAA7" opacity="1.000000" stroke="none" 
	d="
M179.148010,332.235931 
	C175.137650,332.722229 171.098816,332.765015 166.614563,332.741028 
	C166.147675,328.775848 166.126236,324.877502 166.027985,320.528809 
	C170.017075,320.078461 174.083008,320.078461 179.119553,320.078461 
	C179.119553,324.131592 179.119553,327.962006 179.148010,332.235931 
z"/>
<path fill="#B23024" opacity="1.000000" stroke="none" 
	d="
M127.183067,320.778961 
	C135.818527,320.269867 144.387939,320.191437 153.404999,320.216675 
	C153.869568,320.485840 153.903488,320.651581 153.900925,320.816711 
	C153.844070,324.465271 155.110580,329.152527 153.317017,331.444641 
	C151.790955,333.394897 146.683533,332.344727 143.275314,333.123810 
	C142.020950,333.410553 140.428299,334.986420 140.152100,336.231995 
	C139.487366,339.229736 140.591522,344.065094 139.006805,345.082550 
	C136.481689,346.703827 132.350677,345.823944 128.432175,346.000488 
	C127.682724,337.735992 127.399879,329.472809 127.183067,320.778961 
z"/>
<path fill="#D6D6D6" opacity="1.000000" stroke="none" 
	d="
M373.024139,294.018616 
	C381.376617,294.017426 389.729126,294.016235 398.552887,294.026428 
	C399.018219,298.052795 399.012268,302.067810 399.009521,306.547150 
	C399.012695,307.011505 399.002625,307.002136 398.537170,307.002686 
	C389.715149,307.002686 381.358643,307.002136 373.002014,306.538300 
	C373.008179,302.058807 373.014404,298.042603 373.015930,294.019836 
	C373.011200,294.013336 373.024139,294.018616 373.024139,294.018616 
z"/>
<path fill="#B9B9B9" opacity="1.000000" stroke="none" 
	d="
M373.034546,281.033569 
	C373.037048,285.063049 373.022644,289.076202 373.016174,293.553986 
	C373.024139,294.018616 373.011200,294.013336 372.544983,294.012390 
	C364.063110,294.018219 356.047424,294.024994 348.010468,294.010559 
	C347.989197,293.989288 347.946472,293.946960 347.957520,293.489288 
	C347.961670,289.005646 347.954803,284.979706 347.947937,280.953735 
	C347.947937,280.953735 347.998901,280.999176 348.449554,280.994965 
	C356.928284,280.988617 364.956329,280.986481 372.984406,280.984314 
	C372.984406,280.984314 373.017639,281.017212 373.034546,281.033569 
z"/>
<path fill="#9A9A9A" opacity="1.000000" stroke="none" 
	d="
M372.995728,280.523163 
	C364.956329,280.986481 356.928284,280.988617 348.427124,280.969360 
	C347.975433,276.967041 347.996765,272.986115 348.061249,268.555115 
	C356.108582,268.081879 364.112762,268.058655 372.592163,268.060547 
	C373.047272,272.077728 373.027130,276.069885 372.995728,280.523163 
z"/>
<path fill="#E3E2E2" opacity="1.000000" stroke="none" 
	d="
M294.987213,371.515137 
	C286.964996,371.984161 278.953644,371.992096 270.465637,371.994537 
	C269.989044,371.989044 269.973145,371.973145 269.981384,371.512817 
	C269.996674,367.038513 270.003693,363.024506 270.478699,359.006714 
	C278.959686,358.997162 286.972717,358.991425 294.985748,358.985687 
	C294.985748,358.985687 294.999573,358.999573 295.007690,359.007690 
	C295.009918,363.028564 295.003967,367.041321 294.987213,371.515137 
z"/>
<path fill="#E3E2E2" opacity="1.000000" stroke="none" 
	d="
M373.015869,320.015869 
	C373.009857,324.026093 373.003876,328.036346 372.982605,332.506775 
	C364.957977,332.977448 356.948547,332.987915 348.470764,333.000397 
	C348.002411,333.002411 347.984650,332.984650 347.985382,332.516449 
	C347.984406,328.026764 347.982666,324.005310 347.990479,319.991913 
	C348.000000,320.000000 347.983856,319.980988 348.454285,319.987366 
	C356.945343,319.991364 364.965942,319.988953 372.993347,319.993347 
	C373.000153,320.000153 373.015869,320.015869 373.015869,320.015869 
z"/>
<path fill="#C7C7C7" opacity="1.000000" stroke="none" 
	d="
M321.963531,332.960449 
	C321.963531,332.960449 321.485779,332.998688 320.776764,332.999390 
	C311.713043,333.001251 303.358368,333.002472 295.002563,332.540161 
	C295.006470,328.058838 295.011505,324.041046 295.008270,320.011627 
	C295.000000,320.000000 295.023590,320.016846 295.489685,320.013428 
	C299.905426,320.006775 303.855072,320.001709 307.804688,320.000580 
	C320.916107,319.996857 320.916107,319.997437 321.025391,307.034302 
	C321.014038,307.009247 321.061066,307.037994 321.523529,307.028473 
	C330.648102,307.003693 339.310242,306.988464 347.982056,306.982574 
	C347.991760,306.991913 348.008545,307.008545 348.003906,307.470764 
	C347.994110,311.948975 347.988983,315.964966 347.983856,319.980988 
	C347.983856,319.980988 348.000000,320.000000 347.523926,319.996490 
	C343.095642,319.995636 339.143433,320.001038 335.191193,320.000488 
	C322.082245,319.998657 322.082245,319.997833 321.963531,332.960449 
z"/>
<path fill="#D6D6D6" opacity="1.000000" stroke="none" 
	d="
M322.435730,332.973907 
	C322.082245,319.997833 322.082245,319.998657 335.191193,320.000488 
	C339.143433,320.001038 343.095642,319.995636 347.514404,319.988403 
	C347.982666,324.005310 347.984406,328.026764 347.976562,332.507629 
	C339.614014,332.973816 331.260986,332.980591 322.435730,332.973907 
z"/>
<path fill="#D6D6D6" opacity="1.000000" stroke="none" 
	d="
M295.003662,333.003662 
	C303.358368,333.002472 311.713043,333.001251 320.537140,333.003876 
	C320.999634,345.996307 320.999634,345.995728 307.820465,345.999969 
	C303.865784,346.001251 299.911072,346.006561 295.480591,346.007416 
	C295.004822,346.004822 294.991455,345.991455 294.996094,345.529297 
	C295.001709,341.045959 295.002686,337.024811 295.001831,333.001831 
	C295.000000,333.000000 295.003662,333.003662 295.003662,333.003662 
z"/>
<path fill="#D6D6D6" opacity="1.000000" stroke="none" 
	d="
M294.991028,358.524078 
	C286.972717,358.991425 278.959686,358.997162 270.470581,358.998718 
	C269.994507,358.994476 269.979858,358.979858 269.986267,358.519043 
	C269.994019,354.037750 269.995300,350.017334 269.998291,345.998444 
	C270.000000,346.000000 269.996918,345.996613 270.465881,345.997986 
	C278.953735,345.996735 286.972595,345.994080 294.991455,345.991455 
	C294.991455,345.991455 295.004822,346.004822 295.013367,346.013184 
	C295.013367,350.035156 295.004852,354.048828 294.991028,358.524078 
z"/>
<path fill="#E3E2E2" opacity="1.000000" stroke="none" 
	d="
M244.438843,385.017212 
	C243.970627,380.994843 243.967422,376.962708 244.458008,372.465332 
	C253.292252,371.991119 261.632690,371.982147 269.973145,371.973145 
	C269.973145,371.973145 269.989044,371.989044 269.997375,371.997375 
	C269.998657,376.017395 269.991608,380.029053 269.972260,384.500519 
	C265.931946,384.974670 261.903900,384.989044 257.407166,385.008118 
	C252.926941,385.011047 248.915405,385.009216 244.438843,385.017212 
z"/>
<path fill="#E3E2E2" opacity="1.000000" stroke="none" 
	d="
M373.002106,307.001556 
	C381.358643,307.002136 389.715149,307.002686 398.541595,307.007935 
	C399.006317,311.028564 399.001099,315.044464 398.989807,319.522034 
	C390.638977,319.990570 382.294220,319.997467 373.482666,320.010132 
	C373.015869,320.015869 373.000153,320.000153 372.998047,319.531738 
	C372.997833,315.042908 372.999695,311.022522 373.000793,307.001038 
	C373.000000,307.000000 373.002106,307.001556 373.002106,307.001556 
z"/>
<path fill="#9A9A9A" opacity="1.000000" stroke="none" 
	d="
M244.001221,332.978516 
	C244.007919,328.942108 244.014618,324.905670 244.052094,320.399841 
	C252.374557,319.937592 260.666260,319.944733 269.459534,319.957520 
	C269.961090,319.963226 270.040741,320.040894 270.018311,320.499207 
	C269.969452,324.945312 269.943054,328.933136 269.453552,332.937439 
	C260.660706,332.962158 252.330963,332.970337 244.001221,332.978516 
z"/>
<path fill="#9A9A9A" opacity="1.000000" stroke="none" 
	d="
M270.054749,307.546326 
	C278.072388,307.058655 286.051086,307.023224 294.542175,307.021179 
	C295.054504,307.054596 295.146271,307.146332 295.103027,307.593445 
	C295.047760,312.032684 295.035675,316.024750 295.023590,320.016846 
	C295.023590,320.016846 295.000000,320.000000 294.537903,320.002441 
	C286.064087,320.016876 278.052429,320.028870 270.040741,320.040894 
	C270.040741,320.040894 269.961090,319.963226 269.919312,319.924133 
	C269.923645,315.922852 269.969727,311.960693 270.054749,307.546326 
z"/>
<path fill="#9A9A9A" opacity="1.000000" stroke="none" 
	d="
M295.196045,294.712494 
	C303.588348,294.222717 311.894348,294.162994 320.639893,294.598938 
	C321.073303,299.075745 321.067169,303.056854 321.061035,307.037994 
	C321.061066,307.037994 321.014038,307.009247 320.553040,307.013245 
	C311.776794,307.060242 303.461548,307.103302 295.146271,307.146332 
	C295.146271,307.146332 295.054504,307.054596 295.008240,307.008392 
	C295.011261,303.022308 295.060516,299.082428 295.196045,294.712494 
z"/>
<path fill="#B9B9B9" opacity="1.000000" stroke="none" 
	d="
M321.523499,307.028473 
	C321.067169,303.056854 321.073303,299.075745 321.114716,294.655457 
	C321.150024,294.216309 321.559875,294.076447 322.241577,294.045868 
	C331.264374,293.992523 339.605408,293.969727 347.946472,293.946960 
	C347.946472,293.946960 347.989197,293.989288 347.998199,294.469879 
	C347.995575,298.958069 347.983978,302.965637 347.972351,306.973236 
	C339.310242,306.988464 330.648102,307.003693 321.523499,307.028473 
z"/>
<path fill="#9A9A9A" opacity="1.000000" stroke="none" 
	d="
M347.957520,293.489288 
	C339.605408,293.969727 331.264374,293.992523 322.453003,293.999115 
	C321.889130,281.003357 321.889130,281.005646 334.661224,281.002045 
	C338.781311,281.000854 342.901367,280.984131 347.484680,280.964111 
	C347.954803,284.979706 347.961670,289.005646 347.957520,293.489288 
z"/>
<path fill="#D6D6D6" opacity="1.000000" stroke="none" 
	d="
M269.981384,371.512817 
	C261.632690,371.982147 253.292252,371.991119 244.485092,372.003357 
	C244.008530,367.983093 243.998688,363.959595 244.470840,359.469727 
	C253.295181,358.995514 261.637512,358.987671 269.979858,358.979858 
	C269.979858,358.979858 269.994507,358.994476 270.002625,359.002502 
	C270.003693,363.024506 269.996674,367.038513 269.981384,371.512817 
z"/>
<path fill="#B9B9B9" opacity="1.000000" stroke="none" 
	d="
M244.000977,333.444031 
	C252.330963,332.970337 260.660706,332.962158 269.478760,332.961121 
	C269.967072,332.968262 270.014648,333.014648 270.008301,333.476257 
	C270.000244,337.957458 269.998566,341.977051 269.996887,345.996613 
	C269.996918,345.996613 270.000000,346.000000 269.530029,345.998871 
	C260.711853,346.003296 252.363663,346.008850 244.015472,346.014404 
	C244.010559,341.979462 244.005630,337.944489 244.000977,333.444031 
z"/>
<path fill="#C7C7C7" opacity="1.000000" stroke="none" 
	d="
M244.005630,346.476074 
	C252.363663,346.008850 260.711853,346.003296 269.528320,345.997314 
	C269.995300,350.017334 269.994019,354.037750 269.986267,358.519043 
	C261.637512,358.987671 253.295181,358.995514 244.486389,359.007446 
	C244.011887,354.987000 244.003845,350.962372 244.005630,346.476074 
z"/>
<path fill="#C7C7C7" opacity="1.000000" stroke="none" 
	d="
M347.982056,306.982574 
	C347.983978,302.965637 347.995575,298.958069 348.019470,294.491150 
	C356.047424,294.024994 364.063110,294.018219 372.549713,294.018890 
	C373.014404,298.042603 373.008179,302.058807 373.002014,306.538300 
	C373.002106,307.001556 373.000000,307.000000 372.531982,307.000610 
	C364.045471,307.003662 356.027008,307.006104 348.008545,307.008545 
	C348.008545,307.008545 347.991760,306.991913 347.982056,306.982574 
z"/>
<path fill="#D6D6D6" opacity="1.000000" stroke="none" 
	d="
M348.003906,307.470764 
	C356.027008,307.006104 364.045471,307.003662 372.532745,307.001648 
	C372.999695,311.022522 372.997833,315.042908 372.991272,319.524933 
	C364.965942,319.988953 356.945343,319.991364 348.454285,319.987366 
	C347.988983,315.964966 347.994110,311.948975 348.003906,307.470764 
z"/>
<path fill="#B9B9B9" opacity="1.000000" stroke="none" 
	d="
M295.103027,307.593445 
	C303.461548,307.103302 311.776794,307.060242 320.564392,307.038300 
	C320.916107,319.997437 320.916107,319.996857 307.804688,320.000580 
	C303.855072,320.001709 299.905426,320.006775 295.489685,320.013428 
	C295.035675,316.024750 295.047760,312.032684 295.103027,307.593445 
z"/>
<path fill="#B9B9B9" opacity="1.000000" stroke="none" 
	d="
M270.018311,320.499207 
	C278.052429,320.028870 286.064087,320.016876 294.546143,320.014069 
	C295.011505,324.041046 295.006470,328.058838 295.002563,332.540161 
	C295.003662,333.003662 295.000000,333.000000 294.532776,332.999146 
	C286.048553,333.003754 278.031616,333.009186 270.014648,333.014648 
	C270.014648,333.014648 269.967072,332.968262 269.941864,332.944580 
	C269.943054,328.933136 269.969452,324.945312 270.018311,320.499207 
z"/>
<path fill="#C7C7C7" opacity="1.000000" stroke="none" 
	d="
M270.008301,333.476257 
	C278.031616,333.009186 286.048553,333.003754 294.534607,333.000977 
	C295.002686,337.024811 295.001709,341.045959 294.996094,345.529266 
	C286.972595,345.994080 278.953735,345.996735 270.465881,345.997986 
	C269.998566,341.977051 270.000244,337.957458 270.008301,333.476257 
z"/>
</svg>