<svg version="1.1" id="Layer_1" xmlns="http://www.w3.org/2000/svg" xmlns:xlink="http://www.w3.org/1999/xlink" x="0px" y="0px"
	 width="100%" viewBox="0 0 512 512" enable-background="new 0 0 512 512" xml:space="preserve">
<path fill="#2196F3" opacity="1.000000" stroke="none" 
	d="
M264.000000,513.000000 
	C259.643097,513.000000 255.286194,513.000000 250.805588,512.701050 
	C250.339966,512.039368 250.058609,511.460876 249.647247,511.345428 
	C239.667984,508.543152 229.669312,505.810150 219.685287,503.024658 
	C193.469376,495.710541 167.268692,488.341705 141.042816,481.063568 
	C121.525055,475.647095 101.972824,470.354980 82.448090,464.963531 
	C79.498596,464.149048 75.939667,463.809967 73.929993,461.910278 
	C72.503708,460.562012 73.208717,456.958069 72.964302,454.360748 
	C71.642662,440.316071 70.274940,426.275452 69.017540,412.225006 
	C68.240540,403.542542 67.725296,394.836456 66.925819,386.156311 
	C65.692421,372.765167 64.234177,359.394562 63.028812,346.001038 
	C62.203194,336.827148 61.743145,327.620636 60.944977,318.443909 
	C59.708294,304.225433 58.295391,290.022369 57.010532,275.807953 
	C56.271034,267.626892 55.682304,259.432220 54.944614,251.250961 
	C53.662819,237.035355 52.282204,222.828644 51.013386,208.611923 
	C50.253429,200.096786 49.705555,191.562500 48.922722,183.049667 
	C47.676502,169.497757 46.243565,155.962875 45.024975,142.408615 
	C44.214718,133.396240 43.728432,124.354935 42.939964,115.340324 
	C41.696041,101.118446 40.284908,86.911263 39.013329,72.691704 
	C38.266830,64.343918 37.677841,55.982166 36.974907,47.630318 
	C35.666565,32.085480 34.326721,16.543291 33.000000,1.000000 
	C182.020889,1.000000 331.041779,1.000000 480.531311,1.460521 
	C479.995453,16.035809 479.031097,30.153591 477.970703,44.264156 
	C477.379761,52.128250 476.689484,59.986134 475.936829,67.836548 
	C474.669281,81.057045 473.235992,94.262016 472.027405,107.487679 
	C471.204193,116.496506 470.726257,125.536469 469.949432,134.550064 
	C468.695404,149.100479 467.306335,163.639206 466.009125,178.185974 
	C465.599854,182.775452 465.373169,187.381577 464.939789,191.968445 
	C463.659454,205.518448 462.246521,219.056259 461.024689,232.611374 
	C460.212646,241.620422 459.732208,250.659195 458.937775,259.670044 
	C457.698975,273.721771 456.284027,287.757874 455.013336,301.806915 
	C454.258270,310.155060 453.711182,318.522217 452.937927,326.868530 
	C451.682465,340.419556 450.245758,353.953918 449.025177,367.507935 
	C448.213562,376.520264 447.735718,385.562439 446.946899,394.577087 
	C445.702545,408.797852 444.308258,423.005463 443.005432,437.221161 
	C442.301270,444.904541 441.770355,452.607208 440.845886,460.263092 
	C440.721649,461.292206 438.880829,462.565125 437.605316,462.936249 
	C419.405731,468.231445 401.179749,473.437286 382.933289,478.569458 
	C365.625092,483.437744 348.293732,488.224396 330.957703,492.992798 
	C308.932556,499.050934 286.889954,505.045685 264.876862,511.146942 
	C264.446442,511.266266 264.286255,512.360596 264.000000,513.000000 
M179.500580,207.142242 
	C161.384628,207.142242 143.268677,207.142242 124.429543,207.142242 
	C126.400330,226.043381 128.224060,243.534042 130.086487,261.395935 
	C196.423187,261.395935 262.443237,261.395935 328.655640,261.395935 
	C325.970245,286.148743 323.284454,310.473450 320.743713,334.813324 
	C320.382721,338.272125 319.020447,339.878143 315.531555,340.776245 
	C297.165283,345.504211 278.889282,350.582062 260.541718,355.384766 
	C258.392700,355.947266 255.857529,356.092804 253.736084,355.536530 
	C235.068832,350.641876 216.472733,345.475891 197.806213,340.578369 
	C194.920120,339.821167 193.734955,338.582062 193.494080,335.607239 
	C192.459137,322.825775 191.049377,310.073029 190.141281,297.283905 
	C189.873550,293.513275 188.910431,292.141266 184.905014,292.198822 
	C169.077957,292.426392 153.245697,292.282593 137.415421,292.309418 
	C136.008163,292.311798 134.601318,292.552032 133.254974,292.676208 
	C133.138336,293.673279 132.993149,294.171570 133.036133,294.653046 
	C135.568375,323.019318 138.157654,351.380615 140.600235,379.754547 
	C140.853409,382.695557 142.261353,383.529083 144.814407,384.229828 
	C181.071304,394.180847 217.289917,404.271454 253.552505,414.201538 
	C255.655762,414.777466 258.192444,414.763702 260.298676,414.187836 
	C296.404968,404.316315 332.456055,394.242615 368.582703,384.447113 
	C372.199585,383.466431 373.271667,381.790924 373.542969,378.386200 
	C374.707184,363.776764 376.064484,349.182617 377.373169,334.584839 
	C380.585358,298.754608 383.808289,262.925323 387.029266,227.095886 
	C389.892334,195.247269 392.770050,163.399948 395.617401,131.549927 
	C396.682526,119.635880 397.680176,107.715813 398.738281,95.454285 
	C304.158752,95.454285 209.940659,95.454285 115.211555,95.454285 
	C116.437050,113.238556 117.643814,130.751038 118.860985,148.414551 
	C192.150803,148.414551 264.840057,148.414551 337.685150,148.414551 
	C336.421600,165.773529 335.013763,182.702820 334.072754,199.658005 
	C333.822937,204.159210 332.484436,205.495789 327.961304,205.533463 
	C278.806671,205.942825 229.653824,206.566589 179.500580,207.142242 
z"/>
<path fill="#000000" opacity="1.000000" stroke="none" 
	d="
M264.468658,513.000000 
	C264.286255,512.360596 264.446442,511.266266 264.876862,511.146942 
	C286.889954,505.045685 308.932556,499.050934 330.957703,492.992798 
	C348.293732,488.224396 365.625092,483.437744 382.933289,478.569458 
	C401.179749,473.437286 419.405731,468.231445 437.605316,462.936249 
	C438.880829,462.565125 440.721649,461.292206 440.845886,460.263092 
	C441.770355,452.607208 442.301270,444.904541 443.005432,437.221161 
	C444.308258,423.005463 445.702545,408.797852 446.946899,394.577087 
	C447.735718,385.562439 448.213562,376.520264 449.025177,367.507935 
	C450.245758,353.953918 451.682465,340.419556 452.937927,326.868530 
	C453.711182,318.522217 454.258270,310.155060 455.013336,301.806915 
	C456.284027,287.757874 457.698975,273.721771 458.937775,259.670044 
	C459.732208,250.659195 460.212646,241.620422 461.024689,232.611374 
	C462.246521,219.056259 463.659454,205.518448 464.939789,191.968445 
	C465.373169,187.381577 465.599854,182.775452 466.009125,178.185974 
	C467.306335,163.639206 468.695404,149.100479 469.949432,134.550064 
	C470.726257,125.536469 471.204193,116.496506 472.027405,107.487679 
	C473.235992,94.262016 474.669281,81.057045 475.936829,67.836548 
	C476.689484,59.986134 477.379761,52.128250 477.970703,44.264156 
	C479.031097,30.153591 479.995453,16.035809 480.999969,1.460521 
	C491.660797,1.000000 502.321564,1.000000 512.986816,1.000000 
	C512.991211,171.566605 512.991211,342.133209 512.991211,513.000000 
	C430.312683,513.000000 347.625000,513.000000 264.468658,513.000000 
z"/>
<path fill="#000000" opacity="1.000000" stroke="none" 
	d="
M32.531342,1.000000 
	C34.326721,16.543291 35.666565,32.085480 36.974907,47.630318 
	C37.677841,55.982166 38.266830,64.343918 39.013329,72.691704 
	C40.284908,86.911263 41.696041,101.118446 42.939964,115.340324 
	C43.728432,124.354935 44.214718,133.396240 45.024975,142.408615 
	C46.243565,155.962875 47.676502,169.497757 48.922722,183.049667 
	C49.705555,191.562500 50.253429,200.096786 51.013386,208.611923 
	C52.282204,222.828644 53.662819,237.035355 54.944614,251.250961 
	C55.682304,259.432220 56.271034,267.626892 57.010532,275.807953 
	C58.295391,290.022369 59.708294,304.225433 60.944977,318.443909 
	C61.743145,327.620636 62.203194,336.827148 63.028812,346.001038 
	C64.234177,359.394562 65.692421,372.765167 66.925819,386.156311 
	C67.725296,394.836456 68.240540,403.542542 69.017540,412.225006 
	C70.274940,426.275452 71.642662,440.316071 72.964302,454.360748 
	C73.208717,456.958069 72.503708,460.562012 73.929993,461.910278 
	C75.939667,463.809967 79.498596,464.149048 82.448090,464.963531 
	C101.972824,470.354980 121.525055,475.647095 141.042816,481.063568 
	C167.268692,488.341705 193.469376,495.710541 219.685287,503.024658 
	C229.669312,505.810150 239.667984,508.543152 249.647247,511.345428 
	C250.058609,511.460876 250.339966,512.039368 250.340942,512.701050 
	C167.045807,513.000000 84.091614,513.000000 1.068709,513.000000 
	C1.068709,342.333344 1.068709,171.666672 1.074226,1.000005 
	C11.407391,1.000000 21.735037,1.000000 32.531342,1.000000 
z"/>
<path fill="#F9FAFA" opacity="1.000000" stroke="none" 
	d="
M180.000549,207.137085 
	C229.653824,206.566589 278.806671,205.942825 327.961304,205.533463 
	C332.484436,205.495789 333.822937,204.159210 334.072754,199.658005 
	C335.013763,182.702820 336.421600,165.773529 337.685150,148.414551 
	C264.840057,148.414551 192.150803,148.414551 118.860985,148.414551 
	C117.643814,130.751038 116.437050,113.238556 115.211555,95.454285 
	C209.940659,95.454285 304.158752,95.454285 398.738281,95.454285 
	C397.680176,107.715813 396.682526,119.635880 395.617401,131.549927 
	C392.770050,163.399948 389.892334,195.247269 387.029266,227.095886 
	C383.808289,262.925323 380.585358,298.754608 377.373169,334.584839 
	C376.064484,349.182617 374.707184,363.776764 373.542969,378.386200 
	C373.271667,381.790924 372.199585,383.466431 368.582703,384.447113 
	C332.456055,394.242615 296.404968,404.316315 260.298676,414.187836 
	C258.192444,414.763702 255.655762,414.777466 253.552505,414.201538 
	C217.289917,404.271454 181.071304,394.180847 144.814407,384.229828 
	C142.261353,383.529083 140.853409,382.695557 140.600235,379.754547 
	C138.157654,351.380615 135.568375,323.019318 133.036133,294.653046 
	C132.993149,294.171570 133.138336,293.673279 133.254974,292.676208 
	C134.601318,292.552032 136.008163,292.311798 137.415421,292.309418 
	C153.245697,292.282593 169.077957,292.426392 184.905014,292.198822 
	C188.910431,292.141266 189.873550,293.513275 190.141281,297.283905 
	C191.049377,310.073029 192.459137,322.825775 193.494080,335.607239 
	C193.734955,338.582062 194.920120,339.821167 197.806213,340.578369 
	C216.472733,345.475891 235.068832,350.641876 253.736084,355.536530 
	C255.857529,356.092804 258.392700,355.947266 260.541718,355.384766 
	C278.889282,350.582062 297.165283,345.504211 315.531555,340.776245 
	C319.020447,339.878143 320.382721,338.272125 320.743713,334.813324 
	C323.284454,310.473450 325.970245,286.148743 328.655640,261.395935 
	C262.443237,261.395935 196.423187,261.395935 130.086487,261.395935 
	C128.224060,243.534042 126.400330,226.043381 124.429543,207.142242 
	C143.268677,207.142242 161.384628,207.142242 180.000549,207.137085 
z"/>
</svg>