<svg version="1.1" id="Layer_1" xmlns="http://www.w3.org/2000/svg" xmlns:xlink="http://www.w3.org/1999/xlink" x="0px" y="0px"
	 width="100%" viewBox="0 0 512 512" enable-background="new 0 0 512 512" xml:space="preserve">
<path fill="none" opacity="1.000000" stroke="none" 
	d="
M284.000000,513.000000 
	C189.356308,513.000000 95.212616,513.000000 1.034460,513.000000 
	C1.034460,342.397949 1.034460,171.795883 1.034460,1.096914 
	C171.560379,1.096914 342.120819,1.096914 512.840637,1.096914 
	C512.840637,171.666550 512.840637,342.333252 512.840637,513.000000 
	C436.795868,513.000000 360.647919,513.000000 284.000000,513.000000 
M190.549515,473.006500 
	C226.936722,484.036926 263.839966,486.082977 301.114166,478.661255 
	C417.160736,455.555206 495.484680,346.930176 481.112061,229.102371 
	C475.175598,180.434921 455.471436,137.848160 421.600800,102.582214 
	C368.934143,47.745956 304.245300,24.289608 228.568085,33.021797 
	C180.427872,38.576565 138.280960,58.375217 103.291023,91.741653 
	C47.983810,144.482697 24.251862,209.385483 33.025639,285.468994 
	C38.577965,333.617004 58.845428,375.320374 91.690445,410.826050 
	C118.833206,440.167572 151.759033,460.570648 190.549515,473.006500 
z"/>
<path fill="#EB05A2" opacity="1.000000" stroke="none" 
	d="
M190.159119,472.916931 
	C151.759033,460.570648 118.833206,440.167572 91.690445,410.826050 
	C58.845428,375.320374 38.577965,333.617004 33.025639,285.468994 
	C24.251862,209.385483 47.983810,144.482697 103.291023,91.741653 
	C138.280960,58.375217 180.427872,38.576565 228.568085,33.021797 
	C304.245300,24.289608 368.934143,47.745956 421.600800,102.582214 
	C455.471436,137.848160 475.175598,180.434921 481.112061,229.102371 
	C495.484680,346.930176 417.160736,455.555206 301.114166,478.661255 
	C263.839966,486.082977 226.936722,484.036926 190.159119,472.916931 
M128.397003,212.812271 
	C106.636314,220.993362 94.317253,242.375992 98.115486,265.372986 
	C101.736404,287.296448 121.343002,303.976318 144.343979,304.017395 
	C219.331100,304.151337 294.318665,304.096466 369.305908,304.005096 
	C373.419128,304.000061 377.646545,303.443787 381.624756,302.398163 
	C404.928192,296.273651 419.109375,274.406281 415.989197,249.764404 
	C413.204773,227.773804 393.297760,210.074875 370.271606,210.020508 
	C294.784973,209.842285 219.297531,209.904938 143.810791,210.060974 
	C138.914032,210.071091 134.020523,211.651566 128.397003,212.812271 
z"/>
<path fill="#010101" opacity="1.000000" stroke="none" 
	d="
M128.761261,212.656906 
	C134.020523,211.651566 138.914032,210.071091 143.810791,210.060974 
	C219.297531,209.904938 294.784973,209.842285 370.271606,210.020508 
	C393.297760,210.074875 413.204773,227.773804 415.989197,249.764404 
	C419.109375,274.406281 404.928192,296.273651 381.624756,302.398163 
	C377.646545,303.443787 373.419128,304.000061 369.305908,304.005096 
	C294.318665,304.096466 219.331100,304.151337 144.343979,304.017395 
	C121.343002,303.976318 101.736404,287.296448 98.115486,265.372986 
	C94.317253,242.375992 106.636314,220.993362 128.761261,212.656906 
M147.624268,239.924835 
	C137.033951,239.970123 130.407074,244.080276 128.109955,252.028137 
	C124.732079,263.715363 133.089844,274.058472 146.051270,274.062988 
	C218.326004,274.088135 290.600739,274.075439 362.875488,274.073761 
	C365.373322,274.073700 367.875275,274.141907 370.368195,274.025604 
	C378.185333,273.661041 384.609344,268.106720 386.141327,260.477203 
	C388.422180,249.118484 380.346191,239.940720 367.914703,239.936661 
	C294.807312,239.912781 221.699905,239.924866 147.624268,239.924835 
z"/>
<path fill="#FFFFFF" opacity="1.000000" stroke="none" 
	d="
M148.108398,239.924835 
	C221.699905,239.924866 294.807312,239.912781 367.914703,239.936661 
	C380.346191,239.940720 388.422180,249.118484 386.141327,260.477203 
	C384.609344,268.106720 378.185333,273.661041 370.368195,274.025604 
	C367.875275,274.141907 365.373322,274.073700 362.875488,274.073761 
	C290.600739,274.075439 218.326004,274.088135 146.051270,274.062988 
	C133.089844,274.058472 124.732079,263.715363 128.109955,252.028137 
	C130.407074,244.080276 137.033951,239.970123 148.108398,239.924835 
z"/>
</svg>