<?xml version="1.0" encoding="UTF-8"?>
<!DOCTYPE svg PUBLIC "-//W3C//DTD SVG 1.1//EN" "http://www.w3.org/Graphics/SVG/1.1/DTD/svg11.dtd">
<svg xmlns="http://www.w3.org/2000/svg" version="1.1" width="512px" height="512px" style="shape-rendering:geometricPrecision; text-rendering:geometricPrecision; image-rendering:optimizeQuality; fill-rule:evenodd; clip-rule:evenodd" xmlns:xlink="http://www.w3.org/1999/xlink">
<g><path style="opacity:1" fill="#050103" d="M 232.5,-0.5 C 247.833,-0.5 263.167,-0.5 278.5,-0.5C 330.333,4.76093 376.333,23.7609 416.5,56.5C 416.973,57.9063 417.973,58.573 419.5,58.5C 421.167,59.5 422.5,60.8333 423.5,62.5C 424.262,64.2624 425.596,65.2624 427.5,65.5C 468.175,101.828 494.175,146.828 505.5,200.5C 505.42,203.781 506.087,206.781 507.5,209.5C 509.078,217.129 510.412,224.795 511.5,232.5C 511.5,247.833 511.5,263.167 511.5,278.5C 507.456,319.301 494.456,356.967 472.5,391.5C 471.094,391.973 470.427,392.973 470.5,394.5C 458.791,413.557 444.457,430.557 427.5,445.5C 425.973,445.427 424.973,446.094 424.5,447.5C 420.246,451.963 415.579,455.963 410.5,459.5C 408.973,459.427 407.973,460.094 407.5,461.5C 369.183,489.944 326.183,506.611 278.5,511.5C 263.167,511.5 247.833,511.5 232.5,511.5C 224.899,510.363 217.232,509.03 209.5,507.5C 206.781,506.087 203.781,505.42 200.5,505.5C 156.888,496.696 118.888,477.363 86.5,447.5C 85.4154,445.413 83.7488,444.08 81.5,443.5C 73.4651,436.466 66.1317,428.799 59.5,420.5C 59.2624,418.596 58.2624,417.262 56.5,416.5C 23.7609,376.333 4.76093,330.333 -0.5,278.5C -0.5,263.167 -0.5,247.833 -0.5,232.5C 4.76093,180.667 23.7609,134.667 56.5,94.5C 58.914,93.0892 60.5806,91.0892 61.5,88.5C 61.5,87.8333 61.8333,87.5 62.5,87.5C 64.5869,86.4154 65.9202,84.7488 66.5,82.5C 69.5,78.8333 72.8333,75.5 76.5,72.5C 80.7706,69.8991 84.4372,66.5658 87.5,62.5C 107.591,44.2694 130.257,29.7694 155.5,19C 180.379,8.86392 206.046,2.36392 232.5,-0.5 Z"/></g>
<g><path style="opacity:1" fill="#ea04a1" d="M 236.5,31.5 C 331.405,28.1902 403.238,66.8569 452,147.5C 488.517,219.478 488.517,291.478 452,363.5C 403.281,444.287 331.448,482.787 236.5,479C 173.9,472.455 122.4,445.288 82,397.5C 33.1697,334.071 19.8364,263.737 42,186.5C 71.0618,106.434 126.895,56.267 209.5,36C 218.601,34.2432 227.601,32.7432 236.5,31.5 Z"/></g>
<g><path style="opacity:0.071" fill="#640050" d="M 416.5,56.5 C 418.027,56.427 419.027,57.0937 419.5,58.5C 417.973,58.573 416.973,57.9063 416.5,56.5 Z"/></g>
<g><path style="opacity:0.039" fill="#640046" d="M 423.5,62.5 C 425.404,62.7376 426.738,63.7376 427.5,65.5C 425.596,65.2624 424.262,64.2624 423.5,62.5 Z"/></g>
<g><path style="opacity:0.996" fill="#320a24" d="M 87.5,62.5 C 84.4372,66.5658 80.7706,69.8991 76.5,72.5C 79.5628,68.4342 83.2294,65.1009 87.5,62.5 Z"/></g>
<g><path style="opacity:0.863" fill="#53023c" d="M 66.5,82.5 C 65.9202,84.7488 64.5869,86.4154 62.5,87.5C 63.0798,85.2512 64.4131,83.5846 66.5,82.5 Z"/></g>
<g><path style="opacity:0.953" fill="#460534" d="M 61.5,88.5 C 60.5806,91.0892 58.914,93.0892 56.5,94.5C 57.4194,91.9108 59.086,89.9108 61.5,88.5 Z"/></g>
<g><path style="opacity:1" fill="#010000" d="M 171.5,160.5 C 176.449,159.959 181.116,160.792 185.5,163C 208.68,186.347 232.014,209.514 255.5,232.5C 278.986,209.514 302.32,186.347 325.5,163C 339.296,157.563 347.629,162.063 350.5,176.5C 350.705,179.795 349.872,182.795 348,185.5C 324.653,208.68 301.486,232.014 278.5,255.5C 301.486,278.986 324.653,302.32 348,325.5C 353.467,339.569 348.801,347.902 334,350.5C 330.871,350.671 328.037,349.838 325.5,348C 302.32,324.653 278.986,301.486 255.5,278.5C 232.014,301.486 208.68,324.653 185.5,348C 171.458,353.48 163.124,348.813 160.5,334C 160.329,330.871 161.162,328.037 163,325.5C 186.347,302.32 209.514,278.986 232.5,255.5C 209.514,232.014 186.347,208.68 163,185.5C 157.876,174.423 160.709,166.09 171.5,160.5 Z"/></g>
<g><path style="opacity:0.804" fill="#46062f" d="M 505.5,200.5 C 506.913,203.219 507.58,206.219 507.5,209.5C 506.087,206.781 505.42,203.781 505.5,200.5 Z"/></g>
<g><path style="opacity:0.294" fill="#60024a" d="M 472.5,391.5 C 472.573,393.027 471.906,394.027 470.5,394.5C 470.427,392.973 471.094,391.973 472.5,391.5 Z"/></g>
<g><path style="opacity:0.071" fill="#5d0149" d="M 56.5,416.5 C 58.2624,417.262 59.2624,418.596 59.5,420.5C 57.7376,419.738 56.7376,418.404 56.5,416.5 Z"/></g>
<g><path style="opacity:0.98" fill="#440631" d="M 81.5,443.5 C 83.7488,444.08 85.4154,445.413 86.5,447.5C 84.2512,446.92 82.5846,445.587 81.5,443.5 Z"/></g>
<g><path style="opacity:0.035" fill="#6b0045" d="M 427.5,445.5 C 427.027,446.906 426.027,447.573 424.5,447.5C 424.973,446.094 425.973,445.427 427.5,445.5 Z"/></g>
<g><path style="opacity:0.016" fill="#6a003c" d="M 410.5,459.5 C 410.027,460.906 409.027,461.573 407.5,461.5C 407.973,460.094 408.973,459.427 410.5,459.5 Z"/></g>
<g><path style="opacity:0.753" fill="#480632" d="M 200.5,505.5 C 203.781,505.42 206.781,506.087 209.5,507.5C 206.219,507.58 203.219,506.913 200.5,505.5 Z"/></g>
</svg>
