<svg version="1.1" id="Layer_1" xmlns="http://www.w3.org/2000/svg" xmlns:xlink="http://www.w3.org/1999/xlink" x="0px" y="0px"
	 width="100%" viewBox="0 0 512 513" enable-background="new 0 0 512 513" xml:space="preserve">
<path fill="none" opacity="1.000000" stroke="none" 
	d="
M311.000000,514.000000 
	C207.358475,514.000000 104.216957,514.000000 1.037716,514.000000 
	C1.037716,343.066833 1.037716,172.133652 1.037716,1.100231 
	C171.558197,1.100231 342.116455,1.100231 512.837402,1.100231 
	C512.837402,171.999878 512.837402,342.999939 512.837402,514.000000 
	C445.800262,514.000000 378.650116,514.000000 311.000000,514.000000 
M160.185486,276.268219 
	C158.590256,276.844879 157.006653,277.878540 155.397797,277.919495 
	C148.254486,278.101166 141.103256,277.948578 133.956619,278.044312 
	C132.683594,278.061371 131.418671,278.681610 129.997284,279.946655 
	C129.997284,321.552368 129.997284,363.158081 129.997284,405.050476 
	C138.169632,405.050476 146.022644,405.414429 153.820908,404.918091 
	C158.736511,404.605225 160.965805,405.862244 160.990814,410.952148 
	C161.026840,418.280579 160.878555,425.613342 161.117233,432.934204 
	C161.160660,434.266235 162.673874,436.673401 163.519028,436.678009 
	C170.087479,436.713989 176.656036,436.167725 183.229385,436.027863 
	C189.915009,435.885620 191.955933,438.086426 191.991928,445.069305 
	C192.024567,451.398407 191.963104,457.728394 192.056244,464.056305 
	C192.069962,464.988800 192.708878,465.912018 193.975494,466.971100 
	C202.289719,466.986847 210.603928,467.002563 219.238525,467.782837 
	C219.750000,468.172485 220.258469,468.896729 220.773422,468.901367 
	C227.899185,468.965607 235.051147,469.295105 242.144012,468.801910 
	C247.517792,468.428253 252.911545,465.823547 258.127747,466.254303 
	C267.464386,467.025269 276.619995,469.991638 286.142242,468.983521 
	C288.159607,468.769928 290.088776,467.722687 292.801697,467.266754 
	C295.282135,467.179138 297.762146,467.033295 300.243073,467.015808 
	C305.696808,466.977356 311.153229,467.078735 316.602539,466.918640 
	C317.374207,466.895996 318.112244,465.729279 318.975433,464.148834 
	C318.984222,458.985443 319.203888,453.811401 318.943054,448.661682 
	C318.677429,443.417053 318.192657,438.320465 324.842285,436.542664 
	C324.939087,436.516785 324.971405,436.249847 325.963593,436.005005 
	C333.638611,435.946777 341.313629,435.888550 349.789948,435.730469 
	C350.195923,434.024109 350.918030,432.324066 350.952209,430.610291 
	C351.087646,423.818756 350.939636,417.021790 351.055511,410.229553 
	C351.084808,408.513702 351.702057,406.807892 352.976654,405.012360 
	C359.204437,405.008606 365.432312,405.019623 371.660004,404.994293 
	C374.416656,404.983093 377.173035,404.898224 380.754974,404.766296 
	C381.170593,403.093750 381.947083,401.421722 381.949310,399.748627 
	C382.014160,350.997864 382.009888,302.246979 381.963898,253.496155 
	C381.962494,251.986053 381.400604,250.476471 380.979248,248.094269 
	C379.870697,247.735062 378.766388,247.080521 377.652954,247.064636 
	C370.496948,246.962463 363.332855,246.820648 356.184174,247.065048 
	C352.411957,247.194016 350.856934,246.298828 350.916779,242.127457 
	C351.143524,226.317963 350.939636,210.502762 351.061371,194.690948 
	C351.088104,191.218689 351.790741,187.751617 352.214874,183.992065 
	C349.937103,183.992065 348.457977,183.992065 346.978821,183.992065 
	C339.489075,183.992065 331.999359,183.993149 324.509613,183.990982 
	C323.344604,183.990646 322.174683,184.041031 321.015472,183.954742 
	C317.298889,183.678101 313.582581,183.057922 309.872925,183.104889 
	C303.812714,183.181610 297.760071,183.782532 291.698853,183.911896 
	C290.509216,183.937286 289.295319,182.826660 288.092621,182.239975 
	C290.618805,179.420456 287.772949,176.689285 287.842072,173.854782 
	C288.199158,159.216049 288.007660,144.563934 288.007507,129.916489 
	C288.007477,127.322601 288.007477,124.728722 288.007477,121.991989 
	C278.909058,121.991989 270.428375,121.790207 261.964478,122.079361 
	C257.893677,122.218430 256.758453,120.798721 256.931183,116.904602 
	C257.211182,110.592186 257.063690,104.256653 256.947357,97.933624 
	C256.917175,96.290802 256.333466,94.658165 255.932404,92.150276 
	C254.317719,91.766281 252.704605,91.056351 251.088089,91.048508 
	C234.260849,90.966911 217.432770,90.943382 200.605667,91.038300 
	C196.606445,91.060852 194.541885,90.021202 194.907913,85.430855 
	C195.317154,80.298569 195.112305,75.105171 194.956100,69.944977 
	C194.875717,67.289452 194.320221,64.648308 193.987671,61.117542 
	C193.718170,60.775398 193.450958,60.136112 193.178818,60.134007 
	C182.924881,60.054672 172.670303,60.010231 162.416809,60.089649 
	C161.992783,60.092937 161.578339,61.330292 161.021729,62.920002 
	C161.073044,73.301430 161.124359,83.682854 161.304672,94.803093 
	C164.960800,94.860695 168.621262,94.825684 172.272125,94.996170 
	C178.843658,95.303032 185.409454,95.733047 191.986557,97.034920 
	C191.986557,106.619247 191.986557,116.203575 191.986557,126.023590 
	C200.760178,126.023590 209.049622,126.125923 217.334641,125.979057 
	C221.292023,125.908920 223.118576,127.370621 223.014496,131.473801 
	C222.841644,138.288315 222.926682,145.109375 222.143433,152.309021 
	C220.565384,152.538742 218.989090,152.951584 217.408966,152.966873 
	C210.084244,153.037704 202.756485,152.914703 195.435150,153.087570 
	C194.327850,153.113724 193.248749,154.333588 191.998886,155.926666 
	C191.963104,185.602768 191.927322,215.278885 191.175385,245.278595 
	C184.354889,248.846008 176.909561,247.647339 170.217957,246.175400 
	C166.158463,245.282455 164.245560,248.140976 161.020050,248.905045 
	C160.982101,257.919128 160.944138,266.933228 160.185486,276.268219 
M315.978394,124.966988 
	C315.977997,134.216660 315.929016,143.466873 316.029938,152.715439 
	C316.044952,154.094162 316.764923,155.465179 317.635590,156.973984 
	C317.635590,156.973984 318.110260,156.832306 318.984344,156.903397 
	C328.604370,157.872223 338.224426,158.841064 348.822845,159.908432 
	C349.575958,156.369659 350.739746,153.028549 350.916290,149.636047 
	C351.303436,142.195389 350.666656,134.669601 351.498322,127.297081 
	C351.927429,123.493774 350.256531,122.187798 347.739075,122.113724 
	C337.787872,121.820915 327.822510,121.960320 317.864197,122.083839 
	C317.281311,122.091072 316.714203,123.368889 315.978394,124.966988 
z"/>
<path fill="#FFFEFD" opacity="1.000000" stroke="none" 
	d="
M292.058594,467.059509 
	C290.088776,467.722687 288.159607,468.769928 286.142242,468.983521 
	C276.619995,469.991638 267.464386,467.025269 258.127747,466.254303 
	C252.911545,465.823547 247.517792,468.428253 242.144012,468.801910 
	C235.051147,469.295105 227.899185,468.965607 220.773422,468.901367 
	C220.258469,468.896729 219.750000,468.172485 219.510162,467.384033 
	C221.387268,466.288239 224.630615,468.784363 224.391190,464.211792 
	C224.211899,454.498108 224.085510,445.166351 224.086517,435.559570 
	C224.223953,434.878906 224.233994,434.473297 224.491821,433.731873 
	C224.739609,424.048096 224.739609,414.700134 224.739609,404.902039 
	C233.966843,404.902039 242.204300,404.987854 250.436859,404.825836 
	C251.985367,404.795349 253.514435,403.776306 255.253891,402.842255 
	C255.496155,393.732574 255.537003,384.994141 255.729706,375.883972 
	C255.864685,374.981140 255.847778,374.449951 255.842148,373.888733 
	C255.853424,373.858643 255.902588,373.817322 256.376831,373.854584 
	C263.980499,373.885712 271.112427,373.768188 278.238007,373.929810 
	C280.978851,373.991943 283.705322,374.689545 286.506775,375.446960 
	C286.526306,376.502258 286.477356,377.208252 286.113831,378.096924 
	C285.588837,379.059509 285.195770,379.839172 285.194458,380.619446 
	C285.149200,407.923401 285.119537,435.227448 285.201324,462.531158 
	C285.204773,463.681335 286.293640,464.828278 287.298096,466.044983 
	C289.145569,466.168793 290.571777,466.224335 291.940552,466.480438 
	C291.883057,466.681000 292.058594,467.059540 292.058594,467.059509 
z"/>
<path fill="#F74A0A" opacity="1.000000" stroke="none" 
	d="
M318.110260,156.832306 
	C318.110260,156.832306 317.635590,156.973984 317.396423,156.450134 
	C317.191284,145.394974 317.225281,134.863647 317.171265,124.241409 
	C317.083221,124.150482 317.291748,124.293938 317.584106,124.320755 
	C318.247559,124.231888 318.618652,124.116203 319.457825,124.036926 
	C329.489532,124.073341 339.053101,124.073341 348.556396,124.073341 
	C348.556396,135.165817 348.556396,145.395065 348.556396,155.908173 
	C347.250702,155.908173 346.284332,155.880508 345.319946,155.912506 
	C336.249847,156.213287 327.180115,156.524277 318.110260,156.832306 
z"/>
<path fill="#FFFAF8" opacity="1.000000" stroke="none" 
	d="
M256.003998,93.020851 
	C256.333466,94.658165 256.917175,96.290802 256.947357,97.933624 
	C257.063690,104.256653 257.211182,110.592186 256.931183,116.904602 
	C256.758453,120.798721 257.893677,122.218430 261.964478,122.079361 
	C270.428375,121.790207 278.909058,121.991989 288.007477,121.991989 
	C288.007477,124.728722 288.007477,127.322601 288.007507,129.916489 
	C288.007660,144.563934 288.199158,159.216049 287.842072,173.854782 
	C287.772949,176.689285 290.618805,179.420456 288.092621,182.239975 
	C289.295319,182.826660 290.509216,183.937286 291.698853,183.911896 
	C297.760071,183.782532 303.812714,183.181610 309.872925,183.104889 
	C313.582581,183.057922 317.298889,183.678101 321.015472,183.954742 
	C322.174683,184.041031 323.344604,183.990646 324.509613,183.990982 
	C331.999359,183.993149 339.489075,183.992065 346.978821,183.992065 
	C348.457977,183.992065 349.937103,183.992065 352.214874,183.992065 
	C351.790741,187.751617 351.088104,191.218689 351.061371,194.690948 
	C350.939636,210.502762 351.143524,226.317963 350.916779,242.127457 
	C350.856934,246.298828 352.411957,247.194016 356.184174,247.065048 
	C363.332855,246.820648 370.496948,246.962463 377.652954,247.064636 
	C378.766388,247.080521 379.870697,247.735062 380.791229,248.543793 
	C380.603210,248.993332 380.105865,249.002136 379.817596,248.680908 
	C370.761047,248.261230 361.991730,248.211655 353.225555,248.017822 
	C351.710022,247.984299 350.208008,247.339249 348.765533,246.514908 
	C348.758301,226.731659 348.685272,207.410202 348.712463,187.821289 
	C347.282104,187.055878 345.754089,186.133896 344.220642,186.124802 
	C326.899780,186.022049 309.578125,186.059265 292.256653,186.058960 
	C290.501984,186.058929 288.747284,186.058960 286.679291,186.058960 
	C286.679291,165.076538 286.679291,144.815796 286.679291,123.961006 
	C276.321930,123.961006 266.269440,123.961006 256.027954,123.961006 
	C256.027954,113.230957 256.027954,103.098106 256.029602,92.982605 
	C256.031281,92.999954 256.003998,93.020851 256.003998,93.020851 
z"/>
<path fill="#FFFEFD" opacity="1.000000" stroke="none" 
	d="
M380.105865,249.002136 
	C380.105865,249.002136 380.603210,248.993332 380.851624,248.979980 
	C381.400604,250.476471 381.962494,251.986053 381.963898,253.496155 
	C382.009888,302.246979 382.014160,350.997864 381.949310,399.748627 
	C381.947083,401.421722 381.170593,403.093750 380.338745,404.540955 
	C379.893005,404.140991 379.863464,403.966309 379.882751,403.444458 
	C379.958588,369.515656 379.970337,335.933960 380.019409,302.352356 
	C380.041504,287.228424 380.138000,272.104645 380.340393,256.889954 
	C380.673004,256.465271 380.583252,256.205597 380.132629,255.682861 
	C380.096710,254.888153 380.138916,254.430725 380.395782,253.778564 
	C380.465027,252.731277 380.319611,251.878738 380.093384,250.692413 
	C380.043640,249.906464 380.074768,249.454300 380.105865,249.002136 
z"/>
<path fill="#FFBABA" opacity="1.000000" stroke="none" 
	d="
M193.058533,466.839539 
	C192.708878,465.912018 192.069962,464.988800 192.056244,464.056305 
	C191.963104,457.728394 192.024567,451.398407 191.991928,445.069305 
	C191.955933,438.086426 189.915009,435.885620 183.229385,436.027863 
	C176.656036,436.167725 170.087479,436.713989 163.519028,436.678009 
	C162.673874,436.673401 161.160660,434.266235 161.117233,432.934204 
	C160.878555,425.613342 161.026840,418.280579 160.990814,410.952148 
	C160.965805,405.862244 158.736511,404.605225 153.820908,404.918091 
	C146.022644,405.414429 138.169632,405.050476 129.997284,405.050476 
	C129.997284,363.158081 129.997284,321.552368 130.338989,279.497986 
	C130.854630,279.082794 131.028580,279.116302 131.182281,279.460938 
	C131.201752,280.183502 131.241470,280.595032 131.220840,281.245911 
	C131.160492,281.485321 131.283783,281.962616 131.203476,282.427216 
	C131.123169,323.063385 131.123169,363.234985 131.123169,403.550232 
	C141.448090,403.550232 151.203033,403.550232 161.293518,403.689941 
	C161.867096,403.876404 162.105118,403.923126 162.282715,404.436584 
	C162.222305,414.815613 162.222305,424.727844 162.222305,434.677887 
	C172.599594,434.677887 182.396851,434.677887 192.411407,434.875336 
	C192.904053,435.348999 193.179428,435.625244 193.368378,436.368896 
	C193.256897,446.465759 193.231842,456.095215 193.162994,466.002472 
	C193.098953,466.466736 193.078751,466.653137 193.058533,466.839539 
z"/>
<path fill="#FFFAF8" opacity="1.000000" stroke="none" 
	d="
M318.547302,156.867859 
	C327.180115,156.524277 336.249847,156.213287 345.319946,155.912506 
	C346.284332,155.880508 347.250702,155.908173 348.556396,155.908173 
	C348.556396,145.395065 348.556396,135.165817 348.556396,124.073341 
	C339.053101,124.073341 329.489532,124.073341 319.291565,123.833588 
	C318.202026,123.827202 317.746887,124.060562 317.291748,124.293930 
	C317.291748,124.293938 317.083221,124.150482 316.897919,124.145386 
	C316.521667,124.111992 316.330688,124.083702 316.139740,124.055420 
	C316.714203,123.368889 317.281311,122.091072 317.864197,122.083839 
	C327.822510,121.960320 337.787872,121.820915 347.739075,122.113724 
	C350.256531,122.187798 351.927429,123.493774 351.498322,127.297081 
	C350.666656,134.669601 351.303436,142.195389 350.916290,149.636047 
	C350.739746,153.028549 349.575958,156.369659 348.822845,159.908432 
	C338.224426,158.841064 328.604370,157.872223 318.547302,156.867859 
z"/>
<path fill="#FFFEFD" opacity="1.000000" stroke="none" 
	d="
M193.979431,62.000664 
	C194.320221,64.648308 194.875717,67.289452 194.956100,69.944977 
	C195.112305,75.105171 195.317154,80.298569 194.907913,85.430855 
	C194.541885,90.021202 196.606445,91.060852 200.605667,91.038300 
	C217.432770,90.943382 234.260849,90.966911 251.088089,91.048508 
	C252.704605,91.056351 254.317719,91.766281 255.968201,92.585564 
	C256.003998,93.020851 256.031281,92.999954 255.741516,93.040756 
	C254.829117,93.365051 254.206497,93.648544 253.195999,93.753242 
	C233.546158,93.481728 214.284195,93.389008 194.767151,93.165993 
	C194.337219,92.958954 194.162369,92.882202 193.983627,92.513329 
	C193.889771,92.048447 193.799835,91.875687 193.710510,91.254402 
	C193.817917,81.194473 193.924713,71.583076 194.014252,61.971638 
	C193.997009,61.971596 193.979431,62.000664 193.979431,62.000664 
z"/>
<path fill="#FFBABA" opacity="1.000000" stroke="none" 
	d="
M193.709885,91.702927 
	C193.799835,91.875687 193.889771,92.048447 193.968811,92.785965 
	C193.958328,93.531921 193.958725,93.713112 193.804062,94.152786 
	C193.656250,94.612076 193.663528,94.812897 193.487000,95.383530 
	C193.297775,104.843140 193.292374,113.932938 193.235565,123.256325 
	C193.212158,123.874420 193.418381,124.081497 193.824036,124.139511 
	C193.845276,124.167877 193.910568,124.195465 194.011627,124.387619 
	C194.112701,124.579781 194.529755,124.699791 194.529755,124.699791 
	C194.529755,124.699791 194.936417,124.547920 195.401733,124.630280 
	C205.148392,124.549927 214.429718,124.387207 223.794556,124.531219 
	C224.055450,125.224030 224.232849,125.610100 224.309982,126.454834 
	C224.079529,135.298782 223.949326,143.684052 223.583679,152.075562 
	C223.348236,152.081802 222.903076,151.927689 222.903076,151.927689 
	C222.926682,145.109375 222.841644,138.288315 223.014496,131.473801 
	C223.118576,127.370621 221.292023,125.908920 217.334641,125.979057 
	C209.049622,126.125923 200.760178,126.023590 191.986557,126.023590 
	C191.986557,116.203575 191.986557,106.619247 191.984955,96.148849 
	C191.973679,94.697372 191.963989,94.131973 192.082062,93.340126 
	C192.709824,92.643433 193.209854,92.173180 193.709885,91.702927 
z"/>
<path fill="#FFBABA" opacity="1.000000" stroke="none" 
	d="
M191.891541,244.954987 
	C191.927322,215.278885 191.963104,185.602768 192.337418,155.477875 
	C192.845108,155.067078 193.014282,155.105072 193.164337,155.463181 
	C193.200531,156.204819 193.255875,156.626358 193.227524,157.506500 
	C193.117859,175.559006 193.120041,193.153000 193.055893,210.746750 
	C193.014191,222.187332 192.875854,233.627594 192.551285,245.096436 
	C192.321762,245.124863 191.891541,244.954987 191.891541,244.954987 
z"/>
<path fill="#FFFAF8" opacity="1.000000" stroke="none" 
	d="
M161.159439,61.992714 
	C161.578339,61.330292 161.992783,60.092937 162.416809,60.089649 
	C172.670303,60.010231 182.924881,60.054672 193.178818,60.134007 
	C193.450958,60.136112 193.718170,60.775398 193.983551,61.559105 
	C193.979431,62.000664 193.997009,61.971596 193.555344,62.087212 
	C182.819000,62.191166 172.524323,62.179501 161.966354,62.098022 
	C161.521851,62.016376 161.340637,62.004543 161.159439,61.992714 
z"/>
<path fill="#FFFEFD" opacity="1.000000" stroke="none" 
	d="
M193.183472,155.143066 
	C193.014282,155.105072 192.845108,155.067078 192.416275,155.015182 
	C193.248749,154.333588 194.327850,153.113724 195.435150,153.087570 
	C202.756485,152.914703 210.084244,153.037704 217.408966,152.966873 
	C218.989090,152.951584 220.565384,152.538742 222.523254,152.118347 
	C222.903076,151.927689 223.348236,152.081802 223.634613,152.419327 
	C223.642044,153.570679 223.363083,154.384491 222.609802,155.129410 
	C212.484802,155.088013 202.834137,155.115540 193.183472,155.143066 
z"/>
<path fill="#FFFAF8" opacity="1.000000" stroke="none" 
	d="
M352.049103,405.097473 
	C351.702057,406.807892 351.084808,408.513702 351.055511,410.229553 
	C350.939636,417.021790 351.087646,423.818756 350.952209,430.610291 
	C350.918030,432.324066 350.195923,434.024109 349.380554,435.519135 
	C348.930847,435.138214 348.890472,434.968658 348.892151,434.346008 
	C348.977234,424.271606 349.020203,414.650299 349.271301,404.926147 
	C349.780609,404.674805 349.960815,404.435272 350.341431,404.075256 
	C351.088226,404.099792 351.513672,404.153809 351.913940,404.436768 
	C351.888763,404.665680 352.049103,405.097473 352.049103,405.097473 
z"/>
<path fill="#FFFEFD" opacity="1.000000" stroke="none" 
	d="
M325.033813,436.095428 
	C324.971405,436.249847 324.939087,436.516785 324.842285,436.542664 
	C318.192657,438.320465 318.677429,443.417053 318.943054,448.661682 
	C319.203888,453.811401 318.984222,458.985443 318.697479,464.611969 
	C318.419525,465.075104 317.973083,465.063324 317.940674,464.589661 
	C317.925995,454.748108 317.943726,445.380219 318.196350,435.961121 
	C318.766449,435.794495 318.969696,435.563141 319.459503,435.168457 
	C321.560974,435.169983 323.243927,435.218872 324.889404,435.482971 
	C324.851959,435.698181 325.033844,436.095428 325.033813,436.095428 
z"/>
<path fill="#FFFEFD" opacity="1.000000" stroke="none" 
	d="
M191.533463,245.116791 
	C191.891541,244.954987 192.321762,245.124863 192.619949,245.333954 
	C192.918137,245.543030 193.140427,245.984756 193.040710,246.246384 
	C193.009491,246.681641 193.078003,246.855286 192.857941,247.356796 
	C182.436661,247.833817 172.303955,247.982956 161.923187,248.067719 
	C161.504486,247.993866 161.333893,247.984406 161.163284,247.974930 
	C164.245560,248.140976 166.158463,245.282455 170.217957,246.175400 
	C176.909561,247.647339 184.354889,248.846008 191.533463,245.116791 
z"/>
<path fill="#FFFAF8" opacity="1.000000" stroke="none" 
	d="
M191.954315,93.566559 
	C191.963989,94.131973 191.973679,94.697372 191.980499,95.687202 
	C185.409454,95.733047 178.843658,95.303032 172.272125,94.996170 
	C168.621262,94.825684 164.960800,94.860695 161.516800,94.403320 
	C161.902557,93.938377 162.076202,93.873207 162.701157,93.839920 
	C172.753082,93.770058 182.353699,93.668312 191.954315,93.566559 
z"/>
<path fill="#FFFEFD" opacity="1.000000" stroke="none" 
	d="
M131.202545,279.149841 
	C131.028580,279.116302 130.854630,279.082794 130.415344,279.036316 
	C131.418671,278.681610 132.683594,278.061371 133.956619,278.044312 
	C141.103256,277.948578 148.254486,278.101166 155.397797,277.919495 
	C157.006653,277.878540 158.590256,276.844879 160.758362,276.192078 
	C161.331223,276.115967 161.785797,276.066010 161.843994,276.431885 
	C161.925293,277.538330 161.948395,278.278839 161.504593,279.017334 
	C151.092636,279.060120 141.147583,279.104980 131.202545,279.149841 
z"/>
<path fill="#F9CC9C" opacity="1.000000" stroke="none" 
	d="
M193.517029,466.905334 
	C193.078751,466.653137 193.098953,466.466736 193.611847,466.062653 
	C202.695206,465.866913 211.286682,465.953064 219.875900,465.850922 
	C221.403397,465.832764 222.921585,465.032745 224.444077,464.593781 
	C224.630615,468.784363 221.387268,466.288239 219.349976,467.001770 
	C210.603928,467.002563 202.289719,466.986847 193.517029,466.905334 
z"/>
<path fill="#FFBABA" opacity="1.000000" stroke="none" 
	d="
M316.059082,124.511200 
	C316.330688,124.083702 316.521667,124.111992 316.985962,124.236305 
	C317.225281,134.863647 317.191284,145.394974 317.158020,156.383026 
	C316.764923,155.465179 316.044952,154.094162 316.029938,152.715439 
	C315.929016,143.466873 315.977997,134.216660 316.059082,124.511200 
z"/>
<path fill="#F9CC9C" opacity="1.000000" stroke="none" 
	d="
M317.973083,465.063324 
	C317.973083,465.063324 318.419525,465.075104 318.642700,465.083618 
	C318.112244,465.729279 317.374207,466.895996 316.602539,466.918640 
	C311.153229,467.078735 305.696808,466.977356 300.243073,467.015808 
	C297.762146,467.033295 295.282135,467.179138 292.430145,467.163147 
	C292.058594,467.059540 291.883057,466.681000 292.390076,466.353882 
	C295.709076,466.007843 298.524750,466.073975 301.332275,465.952026 
	C306.881592,465.710815 312.426422,465.365570 317.973083,465.063324 
z"/>
<path fill="#FFBABA" opacity="1.000000" stroke="none" 
	d="
M162.249847,93.808029 
	C162.076202,93.873207 161.902557,93.938377 161.452301,94.033913 
	C161.124359,83.682854 161.073044,73.301430 161.090576,62.456360 
	C161.340637,62.004543 161.521851,62.016376 161.945236,62.555405 
	C162.208221,73.324409 162.229034,83.566223 162.249847,93.808029 
z"/>
<path fill="#FFBABA" opacity="1.000000" stroke="none" 
	d="
M352.512878,405.054932 
	C352.049103,405.097473 351.888763,404.665680 352.372192,404.311951 
	C361.234680,403.884369 369.613770,403.810516 378.296875,403.788666 
	C379.011902,403.824341 379.422882,403.807983 379.833893,403.791656 
	C379.863464,403.966309 379.893005,404.140991 379.926025,404.581238 
	C377.173035,404.898224 374.416656,404.983093 371.660004,404.994293 
	C365.432312,405.019623 359.204437,405.008606 352.512878,405.054932 
z"/>
<path fill="#FFBABA" opacity="1.000000" stroke="none" 
	d="
M161.785797,276.066010 
	C161.785797,276.066010 161.331223,276.115967 161.118713,276.031647 
	C160.944138,266.933228 160.982101,257.919128 161.091675,248.439987 
	C161.333893,247.984406 161.504486,247.993866 161.924805,248.382996 
	C162.213104,249.178436 162.251724,249.594208 162.206802,250.473038 
	C162.010773,259.312714 161.898285,267.689362 161.785797,276.066010 
z"/>
<path fill="#FFBABA" opacity="1.000000" stroke="none" 
	d="
M325.498718,436.050232 
	C325.033844,436.095428 324.851959,435.698181 325.346497,435.350922 
	C332.893707,434.919373 339.946442,434.835083 347.304504,434.806366 
	C348.023254,434.840942 348.436676,434.820007 348.850067,434.799072 
	C348.890472,434.968658 348.930847,435.138214 348.979919,435.569031 
	C341.313629,435.888550 333.638611,435.946777 325.498718,436.050232 
z"/>
<path fill="#F9D002" opacity="1.000000" stroke="none" 
	d="
M255.577835,376.255676 
	C255.537003,384.994141 255.496155,393.732574 254.784744,402.795685 
	C244.153381,403.181854 234.192566,403.243378 224.157806,402.813354 
	C224.059631,398.544922 224.140671,394.763763 223.987381,390.992096 
	C223.735916,384.804474 223.332306,378.623016 223.024109,372.031189 
	C223.074265,371.081696 223.093155,370.539978 223.125565,369.674438 
	C223.123352,368.918793 223.107620,368.487030 223.102371,367.594452 
	C223.104767,364.070557 223.096680,361.007477 223.103012,357.479492 
	C223.107758,350.027557 223.098114,343.040466 223.099426,335.614563 
	C223.395111,328.451874 223.679840,321.727997 223.984833,314.601746 
	C223.994308,313.124237 223.983521,312.049103 223.986069,310.986084 
	C223.999390,310.998169 223.971924,310.970215 224.443298,310.983643 
	C254.053970,310.992004 283.193329,310.999359 312.332581,310.963318 
	C315.352356,310.959564 318.013000,310.853516 317.975922,315.174713 
	C317.807281,334.816406 317.785706,354.459381 317.319275,374.004639 
	C314.991547,373.602386 313.059174,373.061157 311.119476,373.033661 
	C302.996521,372.918488 294.871368,372.957367 286.438110,372.709961 
	C276.907745,372.376740 267.686188,372.229401 258.464905,372.243073 
	C257.610016,372.244324 256.756653,373.268250 255.902588,373.817322 
	C255.902588,373.817322 255.853424,373.858643 255.592987,373.933350 
	C255.414307,374.757233 255.496078,375.506470 255.577835,376.255676 
z"/>
<path fill="#F2FA02" opacity="1.000000" stroke="none" 
	d="
M286.747040,372.939819 
	C294.871368,372.957367 302.996521,372.918488 311.119476,373.033661 
	C313.059174,373.061157 314.991547,373.602386 317.374878,374.461914 
	C317.870758,384.337463 317.919098,393.658417 317.918579,403.234467 
	C317.905365,403.659027 317.940979,403.828461 317.857117,404.180756 
	C317.737671,404.363586 317.590454,404.774811 317.266998,404.976807 
	C316.707611,409.891541 316.298828,414.604675 316.309723,419.316864 
	C316.315063,421.624359 317.100433,423.929993 317.559570,426.501160 
	C317.580566,427.120087 317.574829,427.474396 317.283997,427.976135 
	C316.648865,429.957703 316.298737,431.791809 315.834412,434.224213 
	C306.225067,434.224213 296.636292,434.224213 286.990723,433.744293 
	C286.915405,425.943573 286.941010,418.622375 286.868164,411.302094 
	C286.757385,400.172485 286.578430,389.043488 286.428406,377.914246 
	C286.477356,377.208252 286.526306,376.502258 286.653564,375.108826 
	C286.736938,373.927521 286.741974,373.433655 286.747040,372.939819 
z"/>
<path fill="#F40607" opacity="1.000000" stroke="none" 
	d="
M224.391190,464.211792 
	C222.921585,465.032745 221.403397,465.832764 219.875900,465.850922 
	C211.286682,465.953064 202.695206,465.866913 193.655655,465.784821 
	C193.231842,456.095215 193.256897,446.465759 193.802856,436.364868 
	C204.202209,435.873840 214.080658,435.854248 223.959106,435.834625 
	C224.085510,445.166351 224.211899,454.498108 224.391190,464.211792 
z"/>
<path fill="#F40607" opacity="1.000000" stroke="none" 
	d="
M317.940674,464.589661 
	C312.426422,465.365570 306.881592,465.710815 301.332275,465.952026 
	C298.524750,466.073975 295.709076,466.007843 292.447540,466.153320 
	C290.571777,466.224335 289.145569,466.168793 287.274384,465.580719 
	C286.876617,455.246338 286.923767,445.444489 287.438110,435.702881 
	C297.756500,435.843292 307.607727,435.923370 317.583313,436.077881 
	C317.707672,436.152283 317.961456,436.012299 317.961456,436.012299 
	C317.943726,445.380219 317.925995,454.748108 317.940674,464.589661 
z"/>
<path fill="#F9CC9C" opacity="1.000000" stroke="none" 
	d="
M286.970947,435.642609 
	C286.923767,445.444489 286.876617,455.246338 286.853149,465.512451 
	C286.293640,464.828278 285.204773,463.681335 285.201324,462.531158 
	C285.119537,435.227448 285.149200,407.923401 285.194458,380.619446 
	C285.195770,379.839172 285.588837,379.059509 286.113831,378.096924 
	C286.578430,389.043488 286.757385,400.172485 286.868164,411.302094 
	C286.941010,418.622375 286.915405,425.943573 286.936493,433.977997 
	C286.860016,435.011627 286.870636,435.328613 286.970947,435.642609 
z"/>
<path fill="#F9CC9C" opacity="1.000000" stroke="none" 
	d="
M224.231766,403.304871 
	C234.192566,403.243378 244.153381,403.181854 254.583328,403.166901 
	C253.514435,403.776306 251.985367,404.795349 250.436859,404.825836 
	C242.204300,404.987854 233.966843,404.902039 224.739609,404.902039 
	C224.739609,414.700134 224.739609,424.048096 224.293793,433.756287 
	C223.847992,434.116516 223.461685,434.018311 223.416656,433.547302 
	C223.378586,431.084534 223.336273,429.091156 223.401169,427.101257 
	C223.659897,419.168549 223.952011,411.236908 224.231766,403.304871 
z"/>
<path fill="#FA8804" opacity="1.000000" stroke="none" 
	d="
M223.461685,434.018311 
	C223.461685,434.018311 223.847992,434.116516 224.046005,434.092102 
	C224.233994,434.473297 224.223953,434.878906 224.086517,435.559570 
	C214.080658,435.854248 204.202209,435.873840 193.889267,435.897461 
	C193.179428,435.625244 192.904053,435.348999 192.409683,434.605316 
	C192.548141,433.771576 192.905609,433.405304 193.619492,433.224274 
	C203.804504,433.612457 213.633087,433.815399 223.461685,434.018311 
z"/>
<path fill="#F9CC9C" opacity="1.000000" stroke="none" 
	d="
M286.438110,372.709930 
	C286.741974,373.433655 286.736938,373.927521 286.585114,374.759521 
	C283.705322,374.689545 280.978851,373.991943 278.238007,373.929810 
	C271.112427,373.768188 263.980499,373.885712 256.376831,373.854584 
	C256.756653,373.268250 257.610016,372.244324 258.464905,372.243073 
	C267.686188,372.229401 276.907745,372.376740 286.438110,372.709930 
z"/>
<path fill="#F9CC9C" opacity="1.000000" stroke="none" 
	d="
M255.729706,375.883972 
	C255.496078,375.506470 255.414307,374.757233 255.581711,373.963409 
	C255.847778,374.449951 255.864685,374.981140 255.729706,375.883972 
z"/>
<path fill="#FFBABA" opacity="1.000000" stroke="none" 
	d="
M317.584106,124.320747 
	C317.746887,124.060562 318.202026,123.827202 318.823425,123.797180 
	C318.618652,124.116203 318.247559,124.231888 317.584106,124.320747 
z"/>
<path fill="#F40103" opacity="1.000000" stroke="none" 
	d="
M348.612244,188.088730 
	C348.685272,207.410202 348.758301,226.731659 348.298828,246.525574 
	C345.353149,247.345917 342.944336,247.952820 340.525940,247.993683 
	C332.973999,248.121292 325.418457,248.034943 317.855347,247.559082 
	C317.815857,237.791733 317.785339,228.496857 317.803406,218.851959 
	C317.174652,218.079407 316.497253,217.656845 315.363464,217.216095 
	C305.594025,217.204605 296.280945,217.211304 286.969055,216.791107 
	C286.923645,215.240784 286.877075,214.117355 286.865479,212.527130 
	C286.906982,204.037155 286.913513,196.013962 287.393677,187.987854 
	C308.115662,188.019516 328.363983,188.054123 348.612244,188.088730 
z"/>
<path fill="#F73B12" opacity="1.000000" stroke="none" 
	d="
M317.864288,248.031540 
	C325.418457,248.034943 332.973999,248.121292 340.525940,247.993683 
	C342.944336,247.952820 345.353149,247.345917 348.233063,246.987350 
	C350.208008,247.339249 351.710022,247.984299 353.225555,248.017822 
	C361.991730,248.211655 370.761047,248.261230 379.817596,248.680908 
	C380.074768,249.454300 380.043640,249.906464 380.010590,251.056549 
	C380.066132,252.494080 380.123627,253.233673 380.181122,253.973282 
	C380.138916,254.430725 380.096710,254.888153 380.061371,255.922302 
	C380.068237,256.498993 380.200775,256.980774 380.200775,256.980774 
	C380.138000,272.104645 380.041504,287.228424 380.019409,302.352356 
	C379.970337,335.933960 379.958588,369.515656 379.882751,403.444458 
	C379.422882,403.807983 379.011902,403.824341 378.304138,403.338135 
	C378.017151,353.563599 377.990173,304.291443 378.108521,255.019653 
	C378.117645,251.209717 377.246674,249.668381 373.130524,249.879211 
	C366.489502,250.219345 359.813965,250.116547 353.161865,249.912094 
	C349.842163,249.810059 348.867065,251.030396 348.904816,254.245331 
	C349.006287,262.894348 348.805878,271.546906 348.349854,280.067871 
	C340.546234,279.641418 333.120331,279.251190 325.689362,279.071899 
	C315.711456,278.831116 317.075562,280.372406 317.112305,270.241852 
	C317.139160,262.837585 317.597992,255.434921 317.864288,248.031540 
z"/>
<path fill="#F73B12" opacity="1.000000" stroke="none" 
	d="
M348.712463,187.821289 
	C328.363983,188.054123 308.115662,188.019516 287.060974,187.784805 
	C285.837250,185.883743 285.081848,184.187363 285.058899,182.481110 
	C284.935883,173.340149 284.995514,164.196701 285.007446,154.580292 
	C285.023865,146.273407 284.901917,138.437515 285.084473,130.608704 
	C285.161041,127.325569 284.441498,125.744698 280.718353,125.882050 
	C273.728027,126.139931 266.718567,125.854698 259.724518,126.055534 
	C258.407867,126.093338 257.126007,127.342987 255.563980,127.990189 
	C254.861359,126.654007 254.422867,125.361069 253.991669,123.596603 
	C253.984390,118.749420 253.969803,114.373764 253.974792,109.529732 
	C253.857544,104.018250 253.720703,98.975143 253.583878,93.932037 
	C254.206497,93.648544 254.829117,93.365051 255.739838,93.023407 
	C256.027954,103.098106 256.027954,113.230957 256.027954,123.961006 
	C266.269440,123.961006 276.321930,123.961006 286.679291,123.961006 
	C286.679291,144.815796 286.679291,165.076538 286.679291,186.058960 
	C288.747284,186.058960 290.501984,186.058929 292.256653,186.058960 
	C309.578125,186.059265 326.899780,186.022049 344.220642,186.124802 
	C345.754089,186.133896 347.282104,187.055878 348.712463,187.821289 
z"/>
<path fill="#FFFAF8" opacity="1.000000" stroke="none" 
	d="
M380.395782,253.778564 
	C380.123627,253.233673 380.066132,252.494080 380.091431,251.390320 
	C380.319611,251.878738 380.465027,252.731277 380.395782,253.778564 
z"/>
<path fill="#FFFAF8" opacity="1.000000" stroke="none" 
	d="
M380.340393,256.889954 
	C380.200775,256.980774 380.068237,256.498993 380.139465,256.259552 
	C380.583252,256.205597 380.673004,256.465271 380.340393,256.889954 
z"/>
<path fill="#F93D08" opacity="1.000000" stroke="none" 
	d="
M162.290314,250.010010 
	C162.251724,249.594208 162.213104,249.178436 162.172882,248.447372 
	C172.303955,247.982956 182.436661,247.833817 193.074966,247.356735 
	C193.580582,247.028809 194.015045,247.062668 194.125854,247.270081 
	C194.427536,247.745865 194.682831,247.919632 195.470734,248.016235 
	C202.953171,248.035858 209.967438,248.038040 217.245880,248.302948 
	C219.365295,248.056778 221.220535,247.547867 223.328461,246.821198 
	C223.709793,245.735718 223.838486,244.867966 223.984970,243.531769 
	C223.708298,215.060364 223.413834,187.057404 223.348145,158.862549 
	C223.751282,158.103958 223.925629,157.537292 224.492386,156.969635 
	C228.997421,156.312653 233.091812,155.293488 237.226990,155.085587 
	C243.455215,154.772446 249.711960,155.026489 255.917786,155.451599 
	C255.588165,157.143311 255.064102,158.418686 255.041367,159.702972 
	C254.684570,179.850906 254.392380,199.999985 254.091934,220.597137 
	C254.102493,224.635773 254.106445,228.226059 254.071625,232.301361 
	C254.032837,238.344757 254.032837,243.903137 254.032837,249.087585 
	C250.316986,248.660034 247.455627,248.154999 244.578827,248.041672 
	C240.424225,247.878006 236.247131,247.816437 232.102081,248.073380 
	C229.992203,248.204178 226.729218,245.201935 225.930588,250.160217 
	C225.532578,252.631317 223.347229,254.967010 223.402740,257.330292 
	C223.573105,264.582916 224.435791,271.819244 225.005035,279.469574 
	C224.650772,282.586334 224.320755,285.295471 223.698044,288.294373 
	C223.600311,292.721252 223.795258,296.858398 224.000839,301.330383 
	C224.002396,302.111786 223.993317,302.558289 223.760376,303.149841 
	C223.687531,303.862061 223.838547,304.429230 224.003738,305.423462 
	C224.002563,307.557098 223.987244,309.263672 223.971924,310.970215 
	C223.971924,310.970215 223.999390,310.998169 223.539261,310.978210 
	C220.390823,310.935059 217.702499,310.911835 214.909454,310.506714 
	C207.836792,309.832214 200.869949,309.486053 193.898956,309.345367 
	C193.319641,309.333679 192.185150,310.720367 192.198929,311.440338 
	C192.349152,319.293335 192.676956,327.142914 192.975494,335.395874 
	C192.977646,336.871826 192.960754,337.945374 192.706299,339.189423 
	C192.315125,339.914093 192.161514,340.468231 191.672180,341.044312 
	C190.560974,341.389038 189.785492,341.711823 188.541931,342.009399 
	C182.715714,341.996887 177.357574,342.009613 171.599304,342.003174 
	C170.131149,341.994965 169.063156,342.005920 167.569824,341.997955 
	C165.721176,341.906769 164.297867,341.834503 162.851974,341.500214 
	C162.554535,340.825378 162.279663,340.412537 162.004395,339.748901 
	C161.993561,339.331207 161.983124,339.164337 161.985107,338.529083 
	C162.003601,320.808838 161.901367,303.555695 162.096939,286.305939 
	C162.142120,282.321472 161.223236,280.667145 156.904282,280.886230 
	C149.954468,281.238770 142.974945,281.005249 135.687042,280.978638 
	C134.266327,280.972137 133.166504,281.006317 132.044067,281.043976 
	C132.021423,281.047424 131.989868,281.080627 131.812866,281.060486 
	C131.635864,281.040344 131.281189,281.006531 131.281189,281.006531 
	C131.241470,280.595032 131.201752,280.183502 131.182281,279.460938 
	C141.147583,279.104980 151.092636,279.060120 161.975983,278.998840 
	C171.408646,279.001556 179.905624,278.904266 188.395981,279.097992 
	C191.717850,279.173798 193.225708,278.369812 193.086884,274.684296 
	C192.830017,267.865051 192.882446,261.025330 193.075439,254.201752 
	C193.167908,250.932617 192.041977,249.834885 188.771835,249.905121 
	C179.947983,250.094620 171.117920,249.994934 162.290314,250.010010 
z"/>
<path fill="#F40103" opacity="1.000000" stroke="none" 
	d="
M136.007965,281.019348 
	C142.974945,281.005249 149.954468,281.238770 156.904282,280.886230 
	C161.223236,280.667145 162.142120,282.321472 162.096939,286.305939 
	C161.901367,303.555695 162.003601,320.808838 161.821930,338.622009 
	C161.765823,339.455444 161.885300,339.727600 162.004791,339.999725 
	C162.279663,340.412537 162.554535,340.825378 162.825790,341.531494 
	C162.822174,341.824768 162.761734,341.876251 162.461914,341.960297 
	C162.139420,343.030365 162.116760,344.016418 162.086395,345.424011 
	C162.178970,347.239044 162.279282,348.632568 162.262726,350.479980 
	C162.360046,358.661804 162.574219,366.389709 162.766846,374.576904 
	C162.527786,382.024231 162.310257,389.012299 161.799072,396.252136 
	C161.322937,398.852692 161.140457,401.201477 160.957977,403.550232 
	C151.203033,403.550232 141.448090,403.550232 131.123169,403.550232 
	C131.123169,363.234985 131.123169,323.063385 131.365570,282.319336 
	C131.800354,281.562103 131.927658,281.340027 131.989868,281.080627 
	C131.989868,281.080627 132.021423,281.047424 132.269196,281.209717 
	C132.834488,282.002625 133.152008,282.633240 133.514008,283.352203 
	C134.444778,282.481537 135.226379,281.750458 136.007965,281.019348 
M134.000610,350.500000 
	C134.000610,330.773041 134.000610,311.046051 134.000610,291.319092 
	C133.762833,291.322327 133.525040,291.325562 133.287262,291.328796 
	C133.287262,324.510406 133.287262,357.692017 133.287262,390.873596 
	C133.525040,390.874573 133.762833,390.875519 134.000610,390.876495 
	C134.000610,377.750977 134.000610,364.625488 134.000610,350.500000 
M136.704193,284.566833 
	C136.989105,284.294861 137.274033,284.022919 137.558960,283.750977 
	C137.446213,283.633026 137.241638,283.406342 137.233978,283.412811 
	C136.933456,283.666626 136.650864,283.941681 136.704193,284.566833 
M133.587616,402.518677 
	C133.587616,402.518677 133.476929,402.585724 133.587616,402.518677 
z"/>
<path fill="#F40606" opacity="1.000000" stroke="none" 
	d="
M193.263062,433.039032 
	C192.905609,433.405304 192.548141,433.771576 192.192413,434.407867 
	C182.396851,434.677887 172.599594,434.677887 162.222305,434.677887 
	C162.222305,424.727844 162.222305,414.815613 162.428055,404.406921 
	C162.816956,403.807098 162.938812,403.654694 163.411713,403.377289 
	C171.546509,403.402161 179.269028,403.502991 187.300461,403.719727 
	C188.045731,403.863953 188.482056,403.892334 189.276505,403.968323 
	C190.113800,403.980316 190.593002,403.944672 191.326370,403.879944 
	C191.749527,403.827728 191.918503,403.804535 192.189835,404.052917 
	C192.597321,404.542938 192.902435,404.761444 193.202271,405.449402 
	C193.205811,412.586334 193.214645,419.253754 193.084717,426.321350 
	C193.034409,427.833801 193.122849,428.946167 193.195923,430.431030 
	C193.208038,431.548737 193.235550,432.293884 193.263062,433.039032 
z"/>
<path fill="#F93D08" opacity="1.000000" stroke="none" 
	d="
M162.999405,403.453247 
	C162.938812,403.654694 162.816956,403.807098 162.488464,403.940125 
	C162.105118,403.923126 161.867096,403.876404 161.293518,403.689941 
	C161.140457,401.201477 161.322937,398.852692 162.143784,396.346680 
	C162.854584,398.610687 162.927002,401.031952 162.999405,403.453247 
z"/>
<path fill="#F5070A" opacity="1.000000" stroke="none" 
	d="
M131.812866,281.060486 
	C131.927658,281.340027 131.800354,281.562103 131.445862,281.854736 
	C131.283783,281.962616 131.160492,281.485321 131.220840,281.245911 
	C131.281189,281.006531 131.635864,281.040344 131.812866,281.060486 
z"/>
<path fill="#F40103" opacity="1.000000" stroke="none" 
	d="
M253.195999,93.753242 
	C253.720703,98.975143 253.857544,104.018250 253.570984,109.546555 
	C252.431961,111.261162 251.032364,112.542534 251.121124,113.710815 
	C251.473511,118.348450 250.016815,120.589119 244.999878,120.075897 
	C242.428665,119.812881 239.879684,120.431473 239.537170,124.017944 
	C235.058884,124.066986 231.043411,124.102638 226.612823,124.095543 
	C225.368820,124.110031 224.539932,124.167267 223.711060,124.224487 
	C214.429718,124.387207 205.148392,124.549927 195.273468,124.478180 
	C194.432526,124.083946 194.176086,124.067856 193.910568,124.195465 
	C193.910568,124.195465 193.845276,124.167877 193.841492,123.920410 
	C193.758118,123.368149 193.574539,123.151405 193.286987,123.022728 
	C193.292374,113.932938 193.297775,104.843140 193.753052,95.313400 
	C194.446381,94.616608 194.689804,94.359749 194.970642,93.902908 
	C195.008041,93.702927 195.022232,93.296280 195.022232,93.296280 
	C214.284195,93.389008 233.546158,93.481728 253.195999,93.753242 
z"/>
<path fill="#F4090B" opacity="1.000000" stroke="none" 
	d="
M162.701157,93.839920 
	C162.229034,83.566223 162.208221,73.324409 162.208527,62.625221 
	C172.524323,62.179501 182.819000,62.191166 193.572601,62.087254 
	C193.924713,71.583076 193.817917,81.194473 193.710510,91.254395 
	C193.209854,92.173180 192.709824,92.643433 192.082062,93.340118 
	C182.353699,93.668312 172.753082,93.770058 162.701157,93.839920 
z"/>
<path fill="#F73B12" opacity="1.000000" stroke="none" 
	d="
M194.767151,93.165985 
	C195.022232,93.296280 195.008041,93.702927 194.726471,93.855972 
	C194.444885,94.009018 193.959137,93.894310 193.959137,93.894310 
	C193.958725,93.713112 193.958328,93.531921 193.972717,93.078094 
	C194.162369,92.882202 194.337219,92.958954 194.767151,93.165985 
z"/>
<path fill="#F74704" opacity="1.000000" stroke="none" 
	d="
M227.027954,124.138283 
	C231.043411,124.102638 235.058884,124.066986 240.001617,124.031631 
	C245.280731,124.043991 249.632538,124.056053 253.984360,124.068123 
	C254.422867,125.361069 254.861359,126.654007 255.606689,128.435303 
	C255.935837,137.622330 255.958160,146.321030 255.980301,155.018524 
	C255.980103,155.017334 255.956573,155.039413 255.956573,155.039413 
	C249.711960,155.026489 243.455215,154.772446 237.226990,155.085587 
	C233.091812,155.293488 228.997421,156.312653 224.244812,156.958282 
	C223.604843,156.947891 223.112228,156.919113 223.098907,156.632385 
	C223.085114,155.963196 223.084625,155.580765 223.084122,155.198318 
	C223.363083,154.384491 223.642044,153.570679 223.870071,152.413086 
	C223.949326,143.684052 224.079529,135.298782 224.622574,126.448944 
	C225.699600,125.369011 226.363785,124.753647 227.027954,124.138283 
z"/>
<path fill="#F73B12" opacity="1.000000" stroke="none" 
	d="
M226.612823,124.095543 
	C226.363785,124.753647 225.699600,125.369011 224.722839,125.990273 
	C224.232849,125.610100 224.055450,125.224030 223.794556,124.531219 
	C224.539932,124.167267 225.368820,124.110031 226.612823,124.095543 
z"/>
<path fill="#F4090B" opacity="1.000000" stroke="none" 
	d="
M193.804062,94.152786 
	C193.959137,93.894310 194.444885,94.009018 194.689056,94.055954 
	C194.689804,94.359749 194.446381,94.616608 193.936890,94.943588 
	C193.663528,94.812897 193.656250,94.612076 193.804062,94.152786 
z"/>
<path fill="#F73B12" opacity="1.000000" stroke="none" 
	d="
M193.235565,123.256325 
	C193.574539,123.151405 193.758118,123.368149 193.820251,123.892044 
	C193.418381,124.081497 193.212158,123.874420 193.235565,123.256325 
z"/>
<path fill="#F73B12" opacity="1.000000" stroke="none" 
	d="
M194.011627,124.387619 
	C194.176086,124.067856 194.432526,124.083946 194.808151,124.395821 
	C194.936417,124.547920 194.529755,124.699791 194.529755,124.699791 
	C194.529755,124.699791 194.112701,124.579781 194.011627,124.387619 
z"/>
<path fill="#F40103" opacity="1.000000" stroke="none" 
	d="
M223.967163,244.000214 
	C223.838486,244.867966 223.709793,245.735718 222.914581,246.807465 
	C220.492584,247.354385 218.737152,247.697281 216.981720,248.040192 
	C209.967438,248.038040 202.953171,248.035858 195.451859,247.724792 
	C194.664093,246.950211 194.363373,246.484543 193.832397,246.001968 
	C193.602158,245.985062 193.140427,245.984756 193.140427,245.984756 
	C193.140427,245.984756 192.918137,245.543030 192.849472,245.305511 
	C192.875854,233.627594 193.014191,222.187332 193.055893,210.746750 
	C193.120041,193.153000 193.117859,175.559006 193.675064,157.497162 
	C202.470871,157.032639 210.735428,157.036057 219.000000,157.504120 
	C219.000000,186.766907 219.000000,215.565048 219.000000,244.558563 
	C221.070862,244.325790 222.519012,244.162994 223.967163,244.000214 
z"/>
<path fill="#F3191A" opacity="1.000000" stroke="none" 
	d="
M219.000000,157.039490 
	C210.735428,157.036057 202.470871,157.032639 193.758759,157.038544 
	C193.255875,156.626358 193.200531,156.204819 193.164337,155.463181 
	C202.834137,155.115540 212.484802,155.088013 222.609802,155.129410 
	C223.084625,155.580765 223.085114,155.963196 222.819519,156.666382 
	C222.367233,157.001602 222.181030,157.016068 221.620483,157.024109 
	C220.497421,157.024963 219.748718,157.032227 219.000000,157.039490 
z"/>
<path fill="#F40204" opacity="1.000000" stroke="none" 
	d="
M348.725311,280.198059 
	C348.805878,271.546906 349.006287,262.894348 348.904816,254.245331 
	C348.867065,251.030396 349.842163,249.810059 353.161865,249.912094 
	C359.813965,250.116547 366.489502,250.219345 373.130524,249.879211 
	C377.246674,249.668381 378.117645,251.209717 378.108521,255.019653 
	C377.990173,304.291443 378.017151,353.563599 378.000122,403.286133 
	C369.613770,403.810516 361.234680,403.884369 352.397400,404.083038 
	C351.513672,404.153809 351.088226,404.099792 350.110962,403.882568 
	C349.365509,403.668304 349.171783,403.617279 348.999634,403.394043 
	C349.021149,403.221863 348.915588,402.891205 348.885040,402.434540 
	C348.811432,361.384613 348.768372,320.791321 348.725311,280.198059 
z"/>
<path fill="#F73B12" opacity="1.000000" stroke="none" 
	d="
M348.915588,402.891205 
	C348.915588,402.891205 349.021149,403.221863 348.971497,403.762878 
	C348.968964,404.545593 349.016083,404.787292 349.063171,405.028992 
	C349.020203,414.650299 348.977234,424.271606 348.892151,434.346008 
	C348.436676,434.820007 348.023254,434.840942 347.302673,434.355408 
	C347.008728,426.726685 347.053802,419.604340 347.026855,412.482300 
	C346.994659,403.963501 347.818573,405.155396 339.669250,404.934998 
	C332.435211,404.739410 325.207214,404.319061 317.976562,403.997925 
	C317.940979,403.828461 317.905365,403.659027 318.389771,403.259979 
	C328.911713,402.983978 338.913666,402.937592 348.915588,402.891205 
z"/>
<path fill="#FFBABA" opacity="1.000000" stroke="none" 
	d="
M349.271301,404.926147 
	C349.016083,404.787292 348.968964,404.545593 348.949951,403.935059 
	C349.171783,403.617279 349.365509,403.668304 349.789673,403.912048 
	C349.960815,404.435272 349.780609,404.674805 349.271301,404.926147 
z"/>
<path fill="#F40204" opacity="1.000000" stroke="none" 
	d="
M317.857117,404.180756 
	C325.207214,404.319061 332.435211,404.739410 339.669250,404.934998 
	C347.818573,405.155396 346.994659,403.963501 347.026855,412.482300 
	C347.053802,419.604340 347.008728,426.726685 346.997314,434.299866 
	C339.946442,434.835083 332.893707,434.919373 325.383942,435.135712 
	C323.243927,435.218872 321.560974,435.169983 319.226013,434.987122 
	C318.382019,434.808563 318.190002,434.764008 318.022491,434.291077 
	C317.887695,431.851349 317.728363,429.840027 317.569061,427.828674 
	C317.574829,427.474396 317.580566,427.120087 317.718628,426.037109 
	C317.764130,418.463867 317.677277,411.619324 317.590454,404.774811 
	C317.590454,404.774811 317.737671,404.363586 317.857117,404.180756 
z"/>
<path fill="#FFBABA" opacity="1.000000" stroke="none" 
	d="
M317.997986,434.719452 
	C318.190002,434.764008 318.382019,434.808563 318.807495,435.034485 
	C318.969696,435.563141 318.766449,435.794495 318.196350,435.961121 
	C317.961456,436.012299 317.707672,436.152283 317.734436,435.764465 
	C317.840149,435.157562 317.919067,434.938507 317.997986,434.719452 
z"/>
<path fill="#F3191A" opacity="1.000000" stroke="none" 
	d="
M193.040710,246.246384 
	C193.140427,245.984756 193.602158,245.985062 193.815994,246.262543 
	C194.024887,246.714264 194.019958,246.888474 194.015045,247.062668 
	C194.015045,247.062668 193.580582,247.028809 193.363556,247.028870 
	C193.078003,246.855286 193.009491,246.681641 193.040710,246.246384 
z"/>
<path fill="#F40204" opacity="1.000000" stroke="none" 
	d="
M162.206787,250.473053 
	C171.117920,249.994934 179.947983,250.094620 188.771835,249.905121 
	C192.041977,249.834885 193.167908,250.932617 193.075439,254.201752 
	C192.882446,261.025330 192.830017,267.865051 193.086884,274.684296 
	C193.225708,278.369812 191.717850,279.173798 188.395981,279.097992 
	C179.905624,278.904266 171.408646,279.001556 162.442902,279.000916 
	C161.948395,278.278839 161.925293,277.538330 161.843994,276.431885 
	C161.898285,267.689362 162.010773,259.312714 162.206787,250.473053 
z"/>
<path fill="#FA8704" opacity="1.000000" stroke="none" 
	d="
M348.885040,402.434540 
	C338.913666,402.937592 328.911713,402.983978 318.438599,403.004883 
	C317.919098,393.658417 317.870758,384.337463 317.766846,374.559204 
	C317.785706,354.459381 317.807281,334.816406 317.975922,315.174713 
	C318.013000,310.853516 315.352356,310.959564 312.332581,310.963318 
	C283.193329,310.999359 254.053970,310.992004 224.443298,310.983643 
	C223.987244,309.263672 224.002563,307.557098 224.225494,305.278229 
	C224.283478,304.138885 224.133850,303.571838 223.984238,303.004822 
	C223.993317,302.558289 224.002396,302.111786 224.288605,301.037231 
	C224.374054,296.274323 224.182404,292.139465 223.990753,288.004578 
	C224.320755,285.295471 224.650772,282.586334 225.470520,279.464783 
	C234.275391,279.049927 242.590729,279.013428 250.905518,279.066559 
	C253.304993,279.081909 255.031570,278.902405 255.075150,275.710358 
	C255.256287,262.440338 255.694794,249.173782 255.863480,235.903732 
	C255.880692,234.548904 254.722931,233.179169 254.110397,231.816345 
	C254.106445,228.226059 254.102493,224.635773 254.442383,220.486572 
	C257.062683,218.966690 259.308807,217.274246 261.621185,217.178299 
	C269.379913,216.856339 277.162262,217.103912 285.087524,217.340958 
	C285.815613,217.438293 286.391754,217.328156 286.967896,217.218018 
	C296.280945,217.211304 305.594025,217.204605 315.458801,217.491333 
	C316.591980,218.257172 317.173370,218.729568 317.754791,219.201965 
	C317.785339,228.496857 317.815857,237.791733 317.855347,247.559082 
	C317.597992,255.434921 317.139160,262.837585 317.112305,270.241852 
	C317.075562,280.372406 315.711456,278.831116 325.689362,279.071899 
	C333.120331,279.251190 340.546234,279.641418 348.349854,280.067871 
	C348.768372,320.791321 348.811432,361.384613 348.885040,402.434540 
z"/>
<path fill="#FA8804" opacity="1.000000" stroke="none" 
	d="
M163.411713,403.377289 
	C162.927002,401.031952 162.854584,398.610687 162.437439,396.094849 
	C162.310257,389.012299 162.527786,382.024231 163.102264,374.292786 
	C163.621643,366.268799 163.819046,358.988525 163.877258,351.707153 
	C163.881699,351.150818 162.901901,350.586609 162.379593,350.026062 
	C162.279282,348.632568 162.178970,347.239044 162.313385,345.247467 
	C162.704666,344.099579 162.861267,343.549805 163.359085,343.062134 
	C164.496246,344.274200 165.292191,345.424072 166.247055,346.803558 
	C166.926636,344.942719 167.460907,343.479797 167.995163,342.016876 
	C169.063156,342.005920 170.131149,341.994965 171.602036,342.422729 
	C173.092117,343.906067 174.067947,345.662323 175.288712,345.853333 
	C178.208649,346.310181 181.389160,345.462280 184.198441,346.181000 
	C188.377075,347.250061 189.298370,345.611389 189.010025,342.034607 
	C189.785492,341.711823 190.560974,341.389038 191.968781,341.021484 
	C193.066727,340.651154 193.532349,340.325592 194.249329,339.789856 
	C194.324020,338.029480 194.147354,336.479248 193.959869,334.464966 
	C193.946991,327.008636 193.944946,320.016327 194.177368,312.908447 
	C194.611893,312.513336 194.811951,312.233887 195.423737,311.891357 
	C202.228363,311.515076 208.621277,311.201843 215.014191,310.888611 
	C217.702499,310.911835 220.390823,310.935059 223.525940,310.966125 
	C223.983521,312.049103 223.994308,313.124237 223.592789,314.694946 
	C223.149811,322.144836 223.119141,329.099121 223.088455,336.053406 
	C223.098114,343.040466 223.107758,350.027557 222.796692,357.758423 
	C222.681274,361.686584 222.886581,364.870911 223.091888,368.055267 
	C223.107620,368.487030 223.123352,368.918793 222.718811,369.666016 
	C221.199081,367.904938 219.229019,365.864685 219.140594,363.745911 
	C218.537979,349.306580 218.343750,334.850372 217.968384,320.400909 
	C217.943680,319.450043 217.511108,318.509827 217.268250,317.564636 
	C216.845505,317.611176 216.422745,317.657745 216.000000,317.704285 
	C216.000000,319.443756 216.000000,321.183228 215.999985,322.922699 
	C215.999817,336.249847 216.096359,349.578613 215.878632,362.902191 
	C215.851028,364.591156 214.323776,367.598572 213.242905,367.716370 
	C204.057144,368.717590 194.813812,369.190857 185.759232,369.810638 
	C184.894257,374.158173 182.751068,378.231750 183.739990,381.293762 
	C186.116669,388.652832 187.261932,395.967163 186.991531,403.603851 
	C179.269028,403.502991 171.546509,403.402161 163.411713,403.377289 
M169.997131,396.961761 
	C169.997131,380.873016 169.997131,364.784241 169.997131,348.695496 
	C169.529266,348.653687 169.061386,348.611847 168.593521,348.570038 
	C168.397156,349.426392 168.031586,350.282379 168.029572,351.139221 
	C167.994095,366.239777 167.992340,381.340454 168.027496,396.441010 
	C168.029694,397.386505 168.395828,398.331146 168.592636,399.276184 
	C169.054626,398.787689 169.516602,398.299225 169.997131,396.961761 
M174.648483,397.063385 
	C177.825012,397.691833 181.001556,398.320282 184.144592,398.942078 
	C185.985947,391.813660 184.982956,390.753052 177.508194,390.973999 
	C173.392136,391.095673 171.897339,392.586029 174.648483,397.063385 
z"/>
<path fill="#F2FA02" opacity="1.000000" stroke="none" 
	d="
M193.223465,425.921204 
	C193.214645,419.253754 193.205811,412.586334 193.403107,405.300171 
	C193.427368,404.112793 193.245514,403.544128 193.061157,402.521362 
	C193.308823,393.609314 193.608810,385.152313 193.777069,376.692688 
	C193.823883,374.339050 194.348007,372.933472 197.101654,372.910797 
	C205.732773,372.839813 214.362564,372.608276 222.992859,372.438965 
	C223.332306,378.623016 223.735916,384.804474 223.987381,390.992096 
	C224.140671,394.763763 224.059631,398.544922 224.157806,402.813354 
	C223.952011,411.236908 223.659897,419.168549 223.401169,427.101257 
	C223.336273,429.091156 223.378586,431.084534 223.416656,433.547333 
	C213.633087,433.815399 203.804504,433.612457 193.619476,433.224274 
	C193.235550,432.293884 193.208038,431.548737 193.418686,430.194763 
	C193.512390,428.364380 193.367920,427.142792 193.223465,425.921204 
z"/>
<path fill="#FA8704" opacity="1.000000" stroke="none" 
	d="
M223.024124,372.031158 
	C214.362564,372.608276 205.732773,372.839813 197.101654,372.910797 
	C194.348007,372.933472 193.823883,374.339050 193.777069,376.692688 
	C193.608810,385.152313 193.308823,393.609314 192.857422,402.603760 
	C192.391205,403.287048 192.201630,403.500763 192.087479,403.781342 
	C191.918503,403.804535 191.749527,403.827728 191.190826,403.650513 
	C190.173523,403.607025 189.545959,403.763855 188.918396,403.920715 
	C188.482056,403.892334 188.045731,403.863953 187.300461,403.719727 
	C187.261932,395.967163 186.116669,388.652832 183.739990,381.293762 
	C182.751068,378.231750 184.894257,374.158173 185.759232,369.810638 
	C194.813812,369.190857 204.057144,368.717590 213.242905,367.716370 
	C214.323776,367.598572 215.851028,364.591156 215.878632,362.902191 
	C216.096359,349.578613 215.999817,336.249847 215.999985,322.922699 
	C216.000000,321.183228 216.000000,319.443756 216.000000,317.704285 
	C216.422745,317.657745 216.845505,317.611176 217.268250,317.564636 
	C217.511108,318.509827 217.943680,319.450043 217.968384,320.400909 
	C218.343750,334.850372 218.537979,349.306580 219.140594,363.745911 
	C219.229019,365.864685 221.199081,367.904938 222.705292,369.989899 
	C223.093155,370.539978 223.074265,371.081696 223.024124,372.031158 
M189.768982,379.241302 
	C189.483063,383.257263 189.197144,387.273193 188.911240,391.289154 
	C189.646240,391.280304 190.381256,391.271454 191.116272,391.262604 
	C190.901047,387.374756 190.685822,383.486877 189.768982,379.241302 
z"/>
<path fill="#FA8704" opacity="1.000000" stroke="none" 
	d="
M223.099426,335.614563 
	C223.119141,329.099121 223.149811,322.144836 223.572525,315.097351 
	C223.679840,321.727997 223.395111,328.451874 223.099426,335.614563 
z"/>
<path fill="#FA8704" opacity="1.000000" stroke="none" 
	d="
M223.102371,367.594452 
	C222.886581,364.870911 222.681274,361.686584 222.782288,358.223328 
	C223.096680,361.007477 223.104767,364.070557 223.102371,367.594452 
z"/>
<path fill="#FA8804" opacity="1.000000" stroke="none" 
	d="
M318.022491,434.291077 
	C317.919067,434.938507 317.840149,435.157562 317.610077,435.690063 
	C307.607727,435.923370 297.756500,435.843292 287.438110,435.702881 
	C286.870636,435.328613 286.860016,435.011627 286.993286,434.457916 
	C296.636292,434.224213 306.225067,434.224213 315.834412,434.224213 
	C316.298737,431.791809 316.648865,429.957703 317.283997,427.976135 
	C317.728363,429.840027 317.887695,431.851349 318.022491,434.291077 
z"/>
<path fill="#FA8804" opacity="1.000000" stroke="none" 
	d="
M317.266998,404.976807 
	C317.677277,411.619324 317.764130,418.463867 317.691895,425.772430 
	C317.100433,423.929993 316.315063,421.624359 316.309723,419.316864 
	C316.298828,414.604675 316.707611,409.891541 317.266998,404.976807 
z"/>
<path fill="#F74704" opacity="1.000000" stroke="none" 
	d="
M284.935577,217.133484 
	C277.162262,217.103912 269.379913,216.856339 261.621185,217.178299 
	C259.308807,217.274246 257.062683,218.966690 254.435776,220.038223 
	C254.392380,199.999985 254.684570,179.850906 255.041367,159.702972 
	C255.064102,158.418686 255.588165,157.143311 255.917786,155.451599 
	C255.956573,155.039413 255.980103,155.017334 256.450867,155.025131 
	C266.278442,155.039993 275.635223,155.047058 284.992035,155.054123 
	C284.995514,164.196701 284.935883,173.340149 285.058899,182.481110 
	C285.081848,184.187363 285.837250,185.883743 286.587311,187.787735 
	C286.913513,196.013962 286.906982,204.037155 286.522705,212.609192 
	C285.741852,214.483185 285.338715,215.808334 284.935577,217.133484 
z"/>
<path fill="#F73B12" opacity="1.000000" stroke="none" 
	d="
M285.087524,217.340958 
	C285.338715,215.808334 285.741852,214.483185 286.487732,213.075989 
	C286.877075,214.117355 286.923645,215.240784 286.969055,216.791107 
	C286.391754,217.328156 285.815613,217.438293 285.087524,217.340958 
z"/>
<path fill="#F73B12" opacity="1.000000" stroke="none" 
	d="
M317.803406,218.851959 
	C317.173370,218.729568 316.591980,218.257172 315.915222,217.509521 
	C316.497253,217.656845 317.174652,218.079407 317.803406,218.851959 
z"/>
<path fill="#F40204" opacity="1.000000" stroke="none" 
	d="
M285.007446,154.580292 
	C275.635223,155.047058 266.278442,155.039993 256.451050,155.026321 
	C255.958160,146.321030 255.935837,137.622330 255.870789,128.478546 
	C257.126007,127.342987 258.407867,126.093338 259.724518,126.055534 
	C266.718567,125.854698 273.728027,126.139931 280.718353,125.882050 
	C284.441498,125.744698 285.161041,127.325569 285.084473,130.608704 
	C284.901917,138.437515 285.023865,146.273407 285.007446,154.580292 
z"/>
<path fill="#F40204" opacity="1.000000" stroke="none" 
	d="
M253.991669,123.596603 
	C249.632538,124.056053 245.280731,124.043991 240.464447,124.018234 
	C239.879684,120.431473 242.428665,119.812881 244.999878,120.075897 
	C250.016815,120.589119 251.473511,118.348450 251.121124,113.710815 
	C251.032364,112.542534 252.431961,111.261162 253.551392,110.014938 
	C253.969803,114.373764 253.984390,118.749420 253.991669,123.596603 
z"/>
<path fill="#F74704" opacity="1.000000" stroke="none" 
	d="
M254.071625,232.301361 
	C254.722931,233.179169 255.880692,234.548904 255.863480,235.903732 
	C255.694794,249.173782 255.256287,262.440338 255.075150,275.710358 
	C255.031570,278.902405 253.304993,279.081909 250.905518,279.066559 
	C242.590729,279.013428 234.275391,279.049927 225.494781,279.057129 
	C224.435791,271.819244 223.573105,264.582916 223.402740,257.330292 
	C223.347229,254.967010 225.532578,252.631317 225.930588,250.160217 
	C226.729218,245.201935 229.992203,248.204178 232.102081,248.073380 
	C236.247131,247.816437 240.424225,247.878006 244.578827,248.041672 
	C247.455627,248.154999 250.316986,248.660034 254.032837,249.087585 
	C254.032837,243.903137 254.032837,238.344757 254.071625,232.301361 
z"/>
<path fill="#F40103" opacity="1.000000" stroke="none" 
	d="
M219.000000,157.504120 
	C219.748718,157.032227 220.497421,157.024963 221.648438,157.330963 
	C222.406967,158.114304 222.763168,158.584381 223.119370,159.054459 
	C223.413834,187.057404 223.708298,215.060364 223.984970,243.531769 
	C222.519012,244.162994 221.070862,244.325790 219.000000,244.558563 
	C219.000000,215.565048 219.000000,186.766907 219.000000,157.504120 
z"/>
<path fill="#F74A0A" opacity="1.000000" stroke="none" 
	d="
M193.942902,313.024048 
	C193.944946,320.016327 193.946991,327.008636 193.706818,334.486877 
	C193.295197,334.979736 193.125824,334.986572 192.956451,334.993439 
	C192.676956,327.142914 192.349152,319.293335 192.198929,311.440338 
	C192.185150,310.720367 193.319641,309.333679 193.898956,309.345367 
	C200.869949,309.486053 207.836792,309.832214 214.909454,310.506714 
	C208.621277,311.201843 202.228363,311.515076 195.188385,311.900085 
	C194.341858,312.322601 194.142380,312.673309 193.942902,313.024048 
z"/>
<path fill="#FA8704" opacity="1.000000" stroke="none" 
	d="
M188.541931,342.009399 
	C189.298370,345.611389 188.377075,347.250061 184.198441,346.181000 
	C181.389160,345.462280 178.208649,346.310181 175.288712,345.853333 
	C174.067947,345.662323 173.092117,343.906067 172.002197,342.441895 
	C177.357574,342.009613 182.715714,341.996887 188.541931,342.009399 
z"/>
<path fill="#F74A0A" opacity="1.000000" stroke="none" 
	d="
M223.698059,288.294373 
	C224.182404,292.139465 224.374054,296.274323 224.277954,300.702362 
	C223.795258,296.858398 223.600311,292.721252 223.698059,288.294373 
z"/>
<path fill="#FA8704" opacity="1.000000" stroke="none" 
	d="
M167.569824,341.997955 
	C167.460907,343.479797 166.926636,344.942719 166.247055,346.803558 
	C165.292191,345.424072 164.496246,344.274200 163.312347,342.777222 
	C162.870193,342.245544 162.815964,342.060913 162.761734,341.876251 
	C162.761734,341.876251 162.822174,341.824768 162.848358,341.793518 
	C164.297867,341.834503 165.721176,341.906769 167.569824,341.997955 
z"/>
<path fill="#F40606" opacity="1.000000" stroke="none" 
	d="
M217.245880,248.302948 
	C218.737152,247.697281 220.492584,247.354385 222.661911,247.025208 
	C221.220535,247.547867 219.365295,248.056778 217.245880,248.302948 
z"/>
<path fill="#F5070A" opacity="1.000000" stroke="none" 
	d="
M135.687042,280.978638 
	C135.226379,281.750458 134.444778,282.481537 133.514008,283.352203 
	C133.152008,282.633240 132.834488,282.002625 132.291840,281.206238 
	C133.166504,281.006317 134.266327,280.972137 135.687042,280.978638 
z"/>
<path fill="#FA8704" opacity="1.000000" stroke="none" 
	d="
M192.975494,335.395874 
	C193.125824,334.986572 193.295197,334.979736 193.717621,334.950928 
	C194.147354,336.479248 194.324020,338.029480 194.129028,339.572144 
	C193.552246,339.284241 193.281067,339.102325 192.943848,339.018890 
	C192.960754,337.945374 192.977646,336.871826 192.975494,335.395874 
z"/>
<path fill="#F74A0A" opacity="1.000000" stroke="none" 
	d="
M223.760376,303.149841 
	C224.133850,303.571838 224.283478,304.138885 224.211334,304.851135 
	C223.838547,304.429230 223.687531,303.862061 223.760376,303.149841 
z"/>
<path fill="#F74A0A" opacity="1.000000" stroke="none" 
	d="
M192.706299,339.189423 
	C193.281067,339.102325 193.552246,339.284241 193.877655,339.782288 
	C193.532349,340.325592 193.066727,340.651154 192.304520,340.999573 
	C192.161514,340.468231 192.315125,339.914093 192.706299,339.189423 
z"/>
<path fill="#F40606" opacity="1.000000" stroke="none" 
	d="
M223.348145,158.862549 
	C222.763168,158.584381 222.406967,158.114304 222.022797,157.337387 
	C222.181030,157.016068 222.367233,157.001602 222.832840,156.953125 
	C223.112228,156.919113 223.604843,156.947891 223.852417,156.959259 
	C223.925629,157.537292 223.751282,158.103958 223.348145,158.862549 
z"/>
<path fill="#F40606" opacity="1.000000" stroke="none" 
	d="
M194.125854,247.270081 
	C194.019958,246.888474 194.024887,246.714264 194.046234,246.279449 
	C194.363373,246.484543 194.664093,246.950211 194.983704,247.707336 
	C194.682831,247.919632 194.427536,247.745865 194.125854,247.270081 
z"/>
<path fill="#F5070A" opacity="1.000000" stroke="none" 
	d="
M162.004395,339.748901 
	C161.885300,339.727600 161.765823,339.455444 161.809509,339.090393 
	C161.983124,339.164337 161.993561,339.331207 162.004395,339.748901 
z"/>
<path fill="#F5070A" opacity="1.000000" stroke="none" 
	d="
M134.000610,351.000000 
	C134.000610,364.625488 134.000610,377.750977 134.000610,390.876495 
	C133.762833,390.875519 133.525040,390.874573 133.287262,390.873596 
	C133.287262,357.692017 133.287262,324.510406 133.287262,291.328796 
	C133.525040,291.325562 133.762833,291.322327 134.000610,291.319092 
	C134.000610,311.046051 134.000610,330.773041 134.000610,351.000000 
z"/>
<path fill="#FA8704" opacity="1.000000" stroke="none" 
	d="
M162.262726,350.479980 
	C162.901901,350.586609 163.881699,351.150818 163.877258,351.707153 
	C163.819046,358.988525 163.621643,366.268799 163.123795,373.833466 
	C162.574219,366.389709 162.360046,358.661804 162.262726,350.479980 
z"/>
<path fill="#F93D08" opacity="1.000000" stroke="none" 
	d="
M162.461914,341.960297 
	C162.815964,342.060913 162.870193,342.245544 162.971130,342.715088 
	C162.861267,343.549805 162.704666,344.099579 162.321106,344.825928 
	C162.116760,344.016418 162.139420,343.030365 162.461914,341.960297 
z"/>
<path fill="#F5070A" opacity="1.000000" stroke="none" 
	d="
M136.535065,284.390381 
	C136.650864,283.941681 136.933456,283.666626 137.233978,283.412811 
	C137.241638,283.406342 137.446213,283.633026 137.558960,283.750977 
	C137.274033,284.022919 136.989105,284.294861 136.535065,284.390381 
z"/>
<path fill="#F5070A" opacity="1.000000" stroke="none" 
	d="
M133.532272,402.552185 
	C133.476929,402.585724 133.587616,402.518677 133.532272,402.552185 
z"/>
<path fill="#FA8804" opacity="1.000000" stroke="none" 
	d="
M192.189835,404.052917 
	C192.201630,403.500763 192.391205,403.287048 192.859955,403.057800 
	C193.245514,403.544128 193.427368,404.112793 193.408386,404.830719 
	C192.902435,404.761444 192.597321,404.542938 192.189835,404.052917 
z"/>
<path fill="#FA8804" opacity="1.000000" stroke="none" 
	d="
M193.084717,426.321350 
	C193.367920,427.142792 193.512390,428.364380 193.434082,429.822235 
	C193.122849,428.946167 193.034409,427.833801 193.084717,426.321350 
z"/>
<path fill="#F93D08" opacity="1.000000" stroke="none" 
	d="
M189.276505,403.968323 
	C189.545959,403.763855 190.173523,403.607025 190.936646,403.679565 
	C190.593002,403.944672 190.113800,403.980316 189.276505,403.968323 
z"/>
<path fill="#FA8704" opacity="1.000000" stroke="none" 
	d="
M169.987854,397.386230 
	C169.516602,398.299225 169.054626,398.787689 168.592636,399.276184 
	C168.395828,398.331146 168.029694,397.386505 168.027496,396.441010 
	C167.992340,381.340454 167.994095,366.239777 168.029572,351.139221 
	C168.031586,350.282379 168.397156,349.426392 168.593521,348.570038 
	C169.061386,348.611847 169.529266,348.653687 169.997131,348.695496 
	C169.997131,364.784241 169.997131,380.873016 169.987854,397.386230 
z"/>
<path fill="#FA8704" opacity="1.000000" stroke="none" 
	d="
M174.354706,396.779968 
	C171.897339,392.586029 173.392136,391.095673 177.508194,390.973999 
	C184.982956,390.753052 185.985947,391.813660 184.144592,398.942078 
	C181.001556,398.320282 177.825012,397.691833 174.354706,396.779968 
z"/>
<path fill="#FA8704" opacity="1.000000" stroke="none" 
	d="
M194.177353,312.908447 
	C194.142380,312.673309 194.341858,312.322601 194.776672,311.963135 
	C194.811951,312.233887 194.611893,312.513336 194.177353,312.908447 
z"/>
<path fill="#FA8804" opacity="1.000000" stroke="none" 
	d="
M190.119781,379.420166 
	C190.685822,383.486877 190.901047,387.374756 191.116272,391.262604 
	C190.381256,391.271454 189.646240,391.280304 188.911240,391.289154 
	C189.197144,387.273193 189.483063,383.257263 190.119781,379.420166 
z"/>
</svg>