<svg width="31" height="30" viewBox="0 0 31 30" fill="none" xmlns="http://www.w3.org/2000/svg">
<path d="M22.8334 7.5V11.25H21.5834V12.5H20.3334V13.75H19.0834V15H17.8334V16.25H16.5834V17.5H15.3334V16.25H14.0834V15H12.8334V13.75H11.5834V12.5H10.3334V11.25H9.08337V7.5H10.3334V6.25H14.0834V7.5H15.3334V8.75H16.5834V7.5H17.8334V6.25H21.5834V7.5H22.8334Z" fill="white"/>
<path d="M25.3334 21.25H26.5834V20H27.8334V2.5H26.5834V1.25H5.33337V2.5H4.08337V3.75H2.83337V26.25H4.08337V27.5H5.33337V28.75H26.5834V27.5H27.8334V26.25H26.5834V25H25.3334V21.25ZM22.8334 26.25H6.58337V25H5.33337V22.5H6.58337V21.25H22.8334V26.25ZM5.33337 3.75H25.3334V18.75H5.33337V3.75Z" fill="white"/>
</svg>
