<svg width="31" height="30" viewBox="0 0 31 30" fill="none" xmlns="http://www.w3.org/2000/svg">
<path d="M29.303 13.6364V12.2727H27.9394V10.9091H26.5757V9.54545H25.2121V8.18182H23.8484V6.81818H22.4848V5.45455H21.1212V4.09091H19.7575V2.72727H18.3939V1.36364H17.0303V0H14.303V1.36364H12.9394V2.72727H11.5757V4.09091H10.2121V5.45455H8.84844V6.81818H7.48481V8.18182H6.12117V9.54545H4.75754V10.9091H3.3939V12.2727H2.03026V13.6364H0.666626V15H4.75754V28.6364H6.12117V30H11.5757V20.4545H19.7575V30H25.2121V28.6364H26.5757V15H30.6666V13.6364H29.303ZM25.2121 13.6364H23.8484V27.2727H22.4848V19.0909H21.1212V17.7273H10.2121V19.0909H8.84844V27.2727H7.48481V13.6364H6.12117V12.2727H7.48481V10.9091H8.84844V9.54545H10.2121V8.18182H11.5757V6.81818H12.9394V5.45455H14.303V4.09091H17.0303V5.45455H18.3939V6.81818H19.7575V8.18182H21.1212V9.54545H22.4848V10.9091H23.8484V12.2727H25.2121V13.6364Z" fill="white"/>
</svg>
