<svg version="1.1" id="Layer_1" xmlns="http://www.w3.org/2000/svg" xmlns:xlink="http://www.w3.org/1999/xlink" x="0px" y="0px"
	 width="100%" viewBox="0 0 512 512" enable-background="new 0 0 512 512" xml:space="preserve">
<path fill="#FF4B00" opacity="1.000000" stroke="none" 
	d="
M257.000000,1.000000 
	C332.354218,1.000000 407.708466,1.000000 483.535492,1.441873 
	C483.673645,4.641610 483.232971,7.391402 483.022278,10.158703 
	C481.985291,23.777185 480.992493,37.399105 480.016571,51.022141 
	C478.993103,65.308258 478.009094,79.597206 477.002991,93.884575 
	C476.008698,108.003662 475.009796,122.122421 474.010284,136.241135 
	C473.010529,150.363647 471.931061,164.481033 471.029144,178.609772 
	C470.251434,190.792953 469.692810,202.990005 468.999756,215.178772 
	C468.709869,220.277252 468.362427,225.373245 467.972473,230.465103 
	C467.005585,243.088837 465.950134,255.705963 465.029388,268.332977 
	C464.573517,274.584839 464.471405,280.863403 463.974060,287.111176 
	C462.722321,302.834595 461.276978,318.542542 460.023285,334.265808 
	C458.937775,347.879761 457.991577,361.504944 457.015533,375.127441 
	C455.991943,389.413605 454.957306,403.699280 454.019897,417.991241 
	C453.331024,428.493927 452.791107,439.006409 452.184753,449.515930 
	C420.014923,460.105835 388.272919,470.575317 356.517029,481.002655 
	C326.896759,490.728729 297.255005,500.389374 267.654846,510.176025 
	C266.276062,510.631897 265.211121,512.036987 264.000000,513.000000 
	C261.958344,513.000000 259.916656,513.000000 257.445526,512.531372 
	C257.018677,486.373718 257.021332,460.684631 257.373108,434.885498 
	C296.862946,421.672485 335.978851,408.494415 375.180176,395.575348 
	C379.389252,394.188202 380.827545,392.198364 381.004181,387.900055 
	C381.503021,375.763336 382.420654,363.642334 383.267029,351.521729 
	C384.808868,329.441467 386.400482,307.364655 388.005463,285.288910 
	C389.188049,269.023590 390.458282,252.764603 391.623535,236.498077 
	C392.200287,228.445999 392.628265,220.383286 393.143616,211.999374 
	C377.738007,211.999374 363.095612,212.018631 348.453247,211.995361 
	C317.959564,211.946915 287.465912,211.875977 256.982666,211.357483 
	C256.986206,186.328842 256.979279,161.756989 257.437347,137.109650 
	C304.800995,137.034149 351.699646,137.034149 398.679596,137.034149 
	C400.101929,116.656471 401.472778,97.016136 402.869873,77.000153 
	C400.498444,77.000153 398.690216,77.000153 396.881989,77.000153 
	C368.398254,77.000153 339.914520,77.022240 311.430817,76.992165 
	C293.278717,76.973007 275.126648,76.876549 256.985626,76.357819 
	C256.997772,50.933918 256.998871,25.966959 257.000000,1.000000 
z"/>
<path fill="#FF7816" opacity="1.000000" stroke="none" 
	d="
M257.023956,434.995544 
	C257.021332,460.684631 257.018677,486.373718 257.008026,512.531372 
	C255.285645,513.000000 253.571289,513.000000 251.769638,512.720093 
	C243.950043,509.682434 236.262466,506.790619 228.476837,504.192719 
	C207.083679,497.054291 185.657669,490.013885 164.229462,482.981049 
	C130.208511,471.815186 96.175224,460.686951 62.481625,449.652344 
	C61.965622,444.571472 61.383839,439.834930 61.020916,435.081696 
	C59.968670,421.300323 58.986362,407.513519 58.010380,393.726471 
	C56.987411,379.275635 56.016476,364.821106 54.998997,350.369904 
	C54.016548,336.416168 52.999542,322.464874 52.005493,308.511963 
	C50.999382,294.389832 49.932064,280.271576 49.023697,266.143097 
	C48.251179,254.127472 47.677219,242.099167 46.994198,230.077667 
	C46.685692,224.647766 46.373074,219.217377 45.980362,213.793137 
	C44.673561,195.743057 43.318424,177.696503 42.006847,159.646774 
	C41.624794,154.388962 41.405399,149.118576 40.974911,143.865158 
	C39.686565,128.142929 38.271477,112.430977 37.019039,96.705994 
	C35.934879,83.093826 34.879250,69.477127 34.038441,55.848396 
	C32.910938,37.572674 32.002491,19.283436 31.000000,1.000000 
	C106.020897,1.000000 181.041794,1.000000 256.531342,1.000000 
	C256.998871,25.966959 256.997772,50.933918 257.032166,76.446396 
	C257.067627,76.991905 257.044830,77.190720 256.579559,77.112167 
	C208.169312,77.033607 160.224319,77.033607 111.694702,77.033607 
	C116.318680,142.317993 120.901901,207.026947 125.503845,272.000275 
	C139.919281,272.000275 153.740265,272.019684 167.561188,271.996277 
	C197.389038,271.945801 227.216873,271.873322 257.056580,271.909088 
	C257.068451,272.008331 256.975647,272.185425 256.985046,272.642395 
	C256.991028,305.688416 256.987549,338.277466 257.031677,370.969727 
	C257.079254,371.072968 257.065063,371.299896 256.690826,371.190002 
	C235.969391,364.346283 215.645767,357.539459 195.250717,350.953766 
	C192.016800,349.909515 190.776321,348.419159 190.826935,345.003448 
	C190.884903,341.091248 190.216812,337.168335 189.874207,333.361450 
	C169.637756,333.361450 149.925049,333.361450 130.016541,333.361450 
	C131.364059,352.819092 132.603531,371.909637 134.173630,390.972961 
	C134.290833,392.395996 136.551147,394.281006 138.194138,394.842621 
	C158.320282,401.722504 178.508209,408.422577 198.698532,415.113678 
	C218.090500,421.540222 237.503937,427.902008 256.930847,434.469055 
	C256.953735,434.645905 257.023956,434.995544 257.023956,434.995544 
z"/>
<path fill="none" opacity="1.000000" stroke="none" 
	d="
M30.531342,1.000000 
	C32.002491,19.283436 32.910938,37.572674 34.038441,55.848396 
	C34.879250,69.477127 35.934879,83.093826 37.019039,96.705994 
	C38.271477,112.430977 39.686565,128.142929 40.974911,143.865158 
	C41.405399,149.118576 41.624794,154.388962 42.006847,159.646774 
	C43.318424,177.696503 44.673561,195.743057 45.980362,213.793137 
	C46.373074,219.217377 46.685692,224.647766 46.994198,230.077667 
	C47.677219,242.099167 48.251179,254.127472 49.023697,266.143097 
	C49.932064,280.271576 50.999382,294.389832 52.005493,308.511963 
	C52.999542,322.464874 54.016548,336.416168 54.998997,350.369904 
	C56.016476,364.821106 56.987411,379.275635 58.010380,393.726471 
	C58.986362,407.513519 59.968670,421.300323 61.020916,435.081696 
	C61.383839,439.834930 61.965622,444.571472 62.481625,449.652344 
	C96.175224,460.686951 130.208511,471.815186 164.229462,482.981049 
	C185.657669,490.013885 207.083679,497.054291 228.476837,504.192719 
	C236.262466,506.790619 243.950043,509.682434 251.341171,512.720093 
	C167.712723,513.000000 84.425430,513.000000 1.069074,513.000000 
	C1.069074,342.333344 1.069074,171.666672 1.073860,1.000005 
	C10.739993,1.000000 20.401339,1.000000 30.531342,1.000000 
z"/>
<path fill="none" opacity="1.000000" stroke="none" 
	d="
M264.468689,513.000000 
	C265.211121,512.036987 266.276062,510.631897 267.654846,510.176025 
	C297.255005,500.389374 326.896759,490.728729 356.517029,481.002655 
	C388.272919,470.575317 420.014923,460.105835 452.184753,449.515930 
	C452.791107,439.006409 453.331024,428.493927 454.019897,417.991241 
	C454.957306,403.699280 455.991943,389.413605 457.015533,375.127441 
	C457.991577,361.504944 458.937775,347.879761 460.023285,334.265808 
	C461.276978,318.542542 462.722321,302.834595 463.974060,287.111176 
	C464.471405,280.863403 464.573517,274.584839 465.029388,268.332977 
	C465.950134,255.705963 467.005585,243.088837 467.972473,230.465103 
	C468.362427,225.373245 468.709869,220.277252 468.999756,215.178772 
	C469.692810,202.990005 470.251434,190.792953 471.029144,178.609772 
	C471.931061,164.481033 473.010529,150.363647 474.010284,136.241135 
	C475.009796,122.122421 476.008698,108.003662 477.002991,93.884575 
	C478.009094,79.597206 478.993103,65.308258 480.016571,51.022141 
	C480.992493,37.399105 481.985291,23.777185 483.022278,10.158703 
	C483.232971,7.391402 483.673645,4.641610 484.004150,1.441873 
	C493.661316,1.000000 503.322632,1.000000 512.987915,1.000000 
	C512.991943,171.566788 512.991943,342.133575 512.991943,513.000000 
	C430.312683,513.000000 347.625000,513.000000 264.468689,513.000000 
z"/>
<path fill="#E2E2E6" opacity="1.000000" stroke="none" 
	d="
M257.373108,434.885498 
	C257.023956,434.995544 256.953735,434.645905 256.949829,433.981476 
	C256.985626,412.644653 257.025330,391.972290 257.065063,371.299896 
	C257.065063,371.299896 257.079254,371.072968 257.409180,371.022919 
	C278.136841,364.248169 298.522064,357.484863 318.946838,350.843231 
	C321.789551,349.918884 323.049255,348.685059 323.251404,345.394531 
	C324.269562,328.819824 325.711700,312.271698 326.900543,295.706696 
	C327.455261,287.977356 327.773712,280.231049 328.216156,272.185425 
	C304.111816,272.185425 280.543732,272.185425 256.975647,272.185425 
	C256.975647,272.185425 257.068451,272.008331 257.048523,271.452576 
	C257.033875,251.328018 257.039185,231.759201 257.055359,212.090790 
	C257.066223,211.991196 256.972229,211.814270 256.972229,211.814270 
	C287.465912,211.875977 317.959564,211.946915 348.453247,211.995361 
	C363.095612,212.018631 377.738007,211.999374 393.143616,211.999374 
	C392.628265,220.383286 392.200287,228.445999 391.623535,236.498077 
	C390.458282,252.764603 389.188049,269.023590 388.005463,285.288910 
	C386.400482,307.364655 384.808868,329.441467 383.267029,351.521729 
	C382.420654,363.642334 381.503021,375.763336 381.004181,387.900055 
	C380.827545,392.198364 379.389252,394.188202 375.180176,395.575348 
	C335.978851,408.494415 296.862946,421.672485 257.373108,434.885498 
z"/>
<path fill="#E2E2E7" opacity="1.000000" stroke="none" 
	d="
M257.021118,76.903328 
	C275.126648,76.876549 293.278717,76.973007 311.430817,76.992165 
	C339.914520,77.022240 368.398254,77.000153 396.881989,77.000153 
	C398.690216,77.000153 400.498444,77.000153 402.869873,77.000153 
	C401.472778,97.016136 400.101929,116.656471 398.679596,137.034149 
	C351.699646,137.034149 304.800995,137.034149 257.484985,137.021301 
	C257.067566,137.008469 257.044647,136.809052 257.036377,136.352509 
	C257.033661,116.327553 257.039246,96.759132 257.044830,77.190720 
	C257.044830,77.190720 257.067627,76.991905 257.021118,76.903328 
z"/>
<path fill="#FF7816" opacity="1.000000" stroke="none" 
	d="
M257.019958,137.096802 
	C256.979279,161.756989 256.986206,186.328842 256.982666,211.357483 
	C256.972229,211.814270 257.066223,211.991196 256.590057,212.012527 
	C231.385513,212.033859 206.657135,212.033859 181.590317,212.033859 
	C179.776001,186.726868 178.010040,162.094238 176.210968,136.999985 
	C178.710434,136.999985 180.678589,137.004303 182.646729,136.999329 
	C207.446030,136.936691 232.245346,136.872696 257.044647,136.809052 
	C257.044647,136.809052 257.067566,137.008469 257.019958,137.096802 
z"/>
<path fill="#ECECF1" opacity="1.000000" stroke="none" 
	d="
M257.036377,136.352509 
	C232.245346,136.872696 207.446030,136.936691 182.646729,136.999329 
	C180.678589,137.004303 178.710434,136.999985 176.210968,136.999985 
	C178.010040,162.094238 179.776001,186.726868 181.590317,212.033859 
	C206.657135,212.033859 231.385513,212.033859 256.579193,212.112122 
	C257.039185,231.759201 257.033875,251.328018 257.036621,271.353333 
	C227.216873,271.873322 197.389038,271.945801 167.561188,271.996277 
	C153.740265,272.019684 139.919281,272.000275 125.503845,272.000275 
	C120.901901,207.026947 116.318680,142.317993 111.694702,77.033607 
	C160.224319,77.033607 208.169312,77.033607 256.579559,77.112167 
	C257.039246,96.759132 257.033661,116.327553 257.036377,136.352509 
z"/>
<path fill="#ECECF0" opacity="1.000000" stroke="none" 
	d="
M256.690796,371.190002 
	C257.025330,391.972290 256.985626,412.644653 256.926941,433.804626 
	C237.503937,427.902008 218.090500,421.540222 198.698532,415.113678 
	C178.508209,408.422577 158.320282,401.722504 138.194138,394.842621 
	C136.551147,394.281006 134.290833,392.395996 134.173630,390.972961 
	C132.603531,371.909637 131.364059,352.819092 130.016541,333.361450 
	C149.925049,333.361450 169.637756,333.361450 189.874207,333.361450 
	C190.216812,337.168335 190.884903,341.091248 190.826935,345.003448 
	C190.776321,348.419159 192.016800,349.909515 195.250717,350.953766 
	C215.645767,357.539459 235.969391,364.346283 256.690796,371.190002 
z"/>
<path fill="#FF4B00" opacity="1.000000" stroke="none" 
	d="
M256.985046,272.642395 
	C280.543732,272.185425 304.111816,272.185425 328.216156,272.185425 
	C327.773712,280.231049 327.455261,287.977356 326.900543,295.706696 
	C325.711700,312.271698 324.269562,328.819824 323.251404,345.394531 
	C323.049255,348.685059 321.789551,349.918884 318.946838,350.843231 
	C298.522064,357.484863 278.136841,364.248169 257.361572,370.919678 
	C256.987549,338.277466 256.991028,305.688416 256.985046,272.642395 
z"/>
</svg>