<svg version="1.1" id="Layer_1" xmlns="http://www.w3.org/2000/svg" xmlns:xlink="http://www.w3.org/1999/xlink" x="0px" y="0px"
	 width="100%" viewBox="0 0 512 512" enable-background="new 0 0 512 512" xml:space="preserve">
<path fill="none" opacity="1.000000" stroke="none" 
	d="
M303.000000,513.000000 
	C202.024521,513.000000 101.549034,513.000000 1.036777,513.000000 
	C1.036777,342.399506 1.036777,171.798981 1.036777,1.099231 
	C171.558823,1.099231 342.117737,1.099231 512.838318,1.099231 
	C512.838318,171.666550 512.838318,342.333252 512.838318,513.000000 
	C443.132294,513.000000 373.316132,513.000000 303.000000,513.000000 
M439.650970,315.098785 
	C449.365387,217.679459 459.079803,120.260124 468.810638,22.676332 
	C327.344116,22.676332 186.170380,22.676332 44.664730,22.676332 
	C44.883434,25.745764 45.003868,28.395363 45.270592,31.030155 
	C47.786495,55.883232 50.374920,80.729050 52.850887,105.586075 
	C57.670856,153.975327 62.390224,202.374619 67.227936,250.762085 
	C73.076263,309.257904 79.053848,367.740936 84.776215,426.248962 
	C85.125923,429.824463 86.601082,430.957275 89.571938,431.943970 
	C147.453995,451.167572 205.298920,470.503174 263.207397,489.646606 
	C265.604248,490.438965 268.805267,490.284485 271.194305,489.395630 
	C321.046448,470.848511 370.783783,451.991058 420.704163,433.631012 
	C426.728729,431.415283 428.504272,428.370453 429.052032,422.404053 
	C432.310272,386.915497 435.976379,351.464355 439.650970,315.098785 
z"/>
<path fill="#FEC007" opacity="1.000000" stroke="none" 
	d="
M439.578217,315.549744 
	C435.976379,351.464355 432.310272,386.915497 429.052032,422.404053 
	C428.504272,428.370453 426.728729,431.415283 420.704163,433.631012 
	C370.783783,451.991058 321.046448,470.848511 271.194305,489.395630 
	C268.805267,490.284485 265.604248,490.438965 263.207397,489.646606 
	C205.298920,470.503174 147.453995,451.167572 89.571938,431.943970 
	C86.601082,430.957275 85.125923,429.824463 84.776215,426.248962 
	C79.053848,367.740936 73.076263,309.257904 67.227936,250.762085 
	C62.390224,202.374619 57.670856,153.975327 52.850887,105.586075 
	C50.374920,80.729050 47.786495,55.883232 45.270592,31.030155 
	C45.003868,28.395363 44.883434,25.745764 44.664730,22.676332 
	C186.170380,22.676332 327.344116,22.676332 468.810638,22.676332 
	C459.079803,120.260124 449.365387,217.679459 439.578217,315.549744 
M357.239502,257.001526 
	C358.469116,257.118835 359.698730,257.236145 360.870483,257.347931 
	C360.870483,258.227509 360.947510,258.738953 360.859436,259.220184 
	C355.317963,289.499603 349.651337,319.757019 344.336792,350.076141 
	C343.589172,354.341217 341.920898,356.123657 337.888000,357.402740 
	C321.257050,362.677368 304.756409,368.363770 288.223389,373.944885 
	C286.345032,374.578979 284.397675,375.254547 282.773438,376.344635 
	C279.338623,378.649841 277.710876,382.047241 278.208466,386.199219 
	C278.730530,390.555481 281.109070,393.963684 285.364716,394.846558 
	C288.267914,395.448853 291.678223,395.057007 294.548370,394.134460 
	C314.175018,387.826019 333.684021,381.151703 353.309692,374.840179 
	C359.398956,372.881897 362.639709,369.185944 363.761353,362.910370 
	C370.406586,325.729462 377.260101,288.585815 383.925110,251.408401 
	C385.925476,240.250397 382.025665,235.751190 370.792694,235.740158 
	C348.794556,235.718567 326.796387,235.733749 304.798248,235.733704 
	C303.045990,235.733704 301.293732,235.733704 299.593903,235.733704 
	C299.593903,199.696075 299.593903,164.459473 299.593903,129.339920 
	C327.006256,129.339920 354.054840,129.339920 381.352173,129.339920 
	C381.022217,131.006439 380.816406,132.312332 380.501770,133.591461 
	C378.475891,141.827621 376.287354,150.026810 374.431824,158.300827 
	C373.135742,164.080322 376.285583,169.431732 381.447998,170.992828 
	C387.046753,172.685867 392.469177,169.945190 394.729767,164.237350 
	C395.157043,163.158478 395.474274,162.028458 395.755310,160.900360 
	C398.850281,148.475479 401.967102,136.055847 404.998413,123.615395 
	C407.569336,113.064499 403.354675,107.750893 392.411560,107.743011 
	C358.914368,107.718872 325.417175,107.720016 291.919983,107.742264 
	C281.641571,107.749084 278.007019,111.367538 278.003876,121.529541 
	C277.991364,162.026138 277.992432,202.522736 278.003113,243.019333 
	C278.005798,253.145981 281.794403,256.986816 291.799805,256.995575 
	C313.298004,257.014404 334.796173,257.001373 357.239502,257.001526 
M256.751801,125.596817 
	C256.745789,109.963181 254.503525,107.724800 238.848267,107.724792 
	C200.031998,107.724762 161.215744,107.721031 122.399490,107.735573 
	C120.404617,107.736320 118.383972,107.719528 116.419754,108.010635 
	C110.187386,108.934296 106.416420,114.650986 107.864746,120.788116 
	C109.149857,126.233665 113.267166,128.992035 120.417671,128.996536 
	C156.735016,129.019470 193.052383,129.007202 229.369751,129.007263 
	C231.161682,129.007263 232.953598,129.007278 234.976105,129.007278 
	C234.976105,209.667923 234.976105,289.878906 234.976105,370.155731 
	C234.246811,370.155731 233.724030,370.267761 233.268951,370.139557 
	C216.472214,365.406830 199.663391,360.714142 182.927048,355.775909 
	C181.654877,355.400543 180.312500,353.387695 180.000946,351.923553 
	C177.024521,337.935577 174.381149,323.876648 171.393616,309.891144 
	C169.763489,302.260101 164.693039,298.665405 158.317810,300.039734 
	C152.132721,301.373047 149.156693,306.985748 150.645126,314.523071 
	C153.802582,330.512054 157.089951,346.476929 160.061523,362.500366 
	C161.290131,369.125397 164.502762,373.398346 171.271637,374.832581 
	C174.516800,375.520203 177.684067,376.579681 180.880600,377.491852 
	C200.698883,383.147156 220.531250,388.753998 240.322144,394.503601 
	C245.683151,396.061066 250.968643,396.371552 254.222015,391.330475 
	C256.044983,388.505829 256.647705,384.458069 256.652954,380.959686 
	C256.779877,296.163818 256.751984,211.367767 256.751801,125.596817 
z"/>
<path fill="#020100" opacity="1.000000" stroke="none" 
	d="
M356.766937,257.001465 
	C334.796173,257.001373 313.298004,257.014404 291.799805,256.995575 
	C281.794403,256.986816 278.005798,253.145981 278.003113,243.019333 
	C277.992432,202.522736 277.991364,162.026138 278.003876,121.529541 
	C278.007019,111.367538 281.641571,107.749084 291.919983,107.742264 
	C325.417175,107.720016 358.914368,107.718872 392.411560,107.743011 
	C403.354675,107.750893 407.569336,113.064499 404.998413,123.615395 
	C401.967102,136.055847 398.850281,148.475479 395.755310,160.900360 
	C395.474274,162.028458 395.157043,163.158478 394.729767,164.237350 
	C392.469177,169.945190 387.046753,172.685867 381.447998,170.992828 
	C376.285583,169.431732 373.135742,164.080322 374.431824,158.300827 
	C376.287354,150.026810 378.475891,141.827621 380.501770,133.591461 
	C380.816406,132.312332 381.022217,131.006439 381.352173,129.339920 
	C354.054840,129.339920 327.006256,129.339920 299.593903,129.339920 
	C299.593903,164.459473 299.593903,199.696075 299.593903,235.733704 
	C301.293732,235.733704 303.045990,235.733704 304.798248,235.733704 
	C326.796387,235.733749 348.794556,235.718567 370.792694,235.740158 
	C382.025665,235.751190 385.925476,240.250397 383.925110,251.408401 
	C377.260101,288.585815 370.406586,325.729462 363.761353,362.910370 
	C362.639709,369.185944 359.398956,372.881897 353.309692,374.840179 
	C333.684021,381.151703 314.175018,387.826019 294.548370,394.134460 
	C291.678223,395.057007 288.267914,395.448853 285.364716,394.846558 
	C281.109070,393.963684 278.730530,390.555481 278.208466,386.199219 
	C277.710876,382.047241 279.338623,378.649841 282.773438,376.344635 
	C284.397675,375.254547 286.345032,374.578979 288.223389,373.944885 
	C304.756409,368.363770 321.257050,362.677368 337.888000,357.402740 
	C341.920898,356.123657 343.589172,354.341217 344.336792,350.076141 
	C349.651337,319.757019 355.317963,289.499603 360.859436,259.220184 
	C360.947510,258.738953 360.870483,258.227509 360.870483,257.347931 
	C359.698730,257.236145 358.469116,257.118835 356.766937,257.001465 
z"/>
<path fill="#050400" opacity="1.000000" stroke="none" 
	d="
M256.751892,126.084274 
	C256.751984,211.367767 256.779877,296.163818 256.652954,380.959686 
	C256.647705,384.458069 256.044983,388.505829 254.222015,391.330475 
	C250.968643,396.371552 245.683151,396.061066 240.322144,394.503601 
	C220.531250,388.753998 200.698883,383.147156 180.880600,377.491852 
	C177.684067,376.579681 174.516800,375.520203 171.271637,374.832581 
	C164.502762,373.398346 161.290131,369.125397 160.061523,362.500366 
	C157.089951,346.476929 153.802582,330.512054 150.645126,314.523071 
	C149.156693,306.985748 152.132721,301.373047 158.317810,300.039734 
	C164.693039,298.665405 169.763489,302.260101 171.393616,309.891144 
	C174.381149,323.876648 177.024521,337.935577 180.000946,351.923553 
	C180.312500,353.387695 181.654877,355.400543 182.927048,355.775909 
	C199.663391,360.714142 216.472214,365.406830 233.268951,370.139557 
	C233.724030,370.267761 234.246811,370.155731 234.976105,370.155731 
	C234.976105,289.878906 234.976105,209.667923 234.976105,129.007278 
	C232.953598,129.007278 231.161682,129.007263 229.369751,129.007263 
	C193.052383,129.007202 156.735016,129.019470 120.417671,128.996536 
	C113.267166,128.992035 109.149857,126.233665 107.864746,120.788116 
	C106.416420,114.650986 110.187386,108.934296 116.419754,108.010635 
	C118.383972,107.719528 120.404617,107.736320 122.399490,107.735573 
	C161.215744,107.721031 200.031998,107.724762 238.848267,107.724792 
	C254.503525,107.724800 256.745789,109.963181 256.751892,126.084274 
z"/>
</svg>