<svg width="100" height="100" viewBox="0 0 100 100" fill="none" xmlns="http://www.w3.org/2000/svg">
<mask id="path-1-inside-1_457_1028" fill="white">
<path d="M0 20C0 8.9543 8.95431 0 20 0H80C91.0457 0 100 8.95431 100 20V80C100 91.0457 91.0457 100 80 100H20C8.9543 100 0 91.0457 0 80V20Z"/>
</mask>
<path d="M0 20C0 8.9543 8.95431 0 20 0H80C91.0457 0 100 8.95431 100 20V80C100 91.0457 91.0457 100 80 100H20C8.9543 100 0 91.0457 0 80V20Z" fill="#21EF80"/>
<path d="M-6 20C-6 5.6406 5.6406 -6 20 -6H80C94.3594 -6 106 5.6406 106 20H94C94 12.268 87.732 6 80 6H20C12.268 6 6 12.268 6 20H-6ZM106 84C106 98.3594 94.3594 110 80 110H20C5.6406 110 -6 98.3594 -6 84L6 80C6 85.5228 12.268 90 20 90H80C87.732 90 94 85.5228 94 80L106 84ZM20 110C5.6406 110 -6 98.3594 -6 84V20C-6 5.6406 5.6406 -6 20 -6V6C12.268 6 6 12.268 6 20V80C6 85.5228 12.268 90 20 90V110ZM80 -6C94.3594 -6 106 5.6406 106 20V84C106 98.3594 94.3594 110 80 110V90C87.732 90 94 85.5228 94 80V20C94 12.268 87.732 6 80 6V-6Z" fill="#00D293" mask="url(#path-1-inside-1_457_1028)"/>
<path opacity="0.982" fill-rule="evenodd" clip-rule="evenodd" d="M31.21 17.204C43.7829 17.1809 56.3559 17.204 68.9287 17.2733C69.6692 17.4689 70.2008 17.908 70.5234 18.5907C70.7061 19.4584 70.7754 20.3367 70.7315 21.2255C73.0505 21.1643 75.3617 21.2336 77.665 21.4335C79.5812 22.1011 80.7599 23.4185 81.2012 25.3856C81.2937 27.3732 81.2937 29.3609 81.2012 31.3485C79.8788 39.096 75.3258 43.5105 67.542 44.5917C65.2283 48.2447 62.085 50.9257 58.1123 52.6346C55.8416 54.0071 54.5242 56.0178 54.1602 58.6669C54.0677 60.3309 54.0677 61.995 54.1602 63.6591C54.3682 64.7916 55.0384 65.4618 56.1709 65.6698C58.2972 65.716 60.4236 65.7623 62.5498 65.8085C63.5807 66.1461 64.2972 66.8163 64.6992 67.8192C64.8931 69.5684 64.9624 71.325 64.9072 73.0887C55.0154 73.0887 45.1233 73.0887 35.2315 73.0887C35.2083 71.5165 35.2315 69.9448 35.3008 68.3739C35.5358 67.049 36.2985 66.1938 37.5889 65.8085C39.7151 65.7623 41.8415 65.716 43.9678 65.6698C45.0656 65.3576 45.7358 64.6411 45.9785 63.5204C46.071 61.9488 46.071 60.3771 45.9785 58.8055C45.6115 55.9911 44.2017 53.888 41.749 52.496C37.8891 50.8093 34.8383 48.1745 32.5967 44.5917C25.1014 43.7462 20.5021 39.6554 18.7988 32.3192C16.8278 23.3582 20.364 19.6603 29.4072 21.2255C29.3559 20.3345 29.4253 19.4562 29.6152 18.5907C29.9195 17.8517 30.451 17.3895 31.21 17.204ZM23.3057 25.247C25.3395 25.247 27.3734 25.247 29.4072 25.247C29.3841 28.4367 29.4072 31.6261 29.4766 34.8153C29.5753 36.6033 29.922 38.3367 30.5166 40.0155C27.2684 39.1735 24.9341 37.2089 23.5137 34.122C22.771 32.3235 22.4705 30.4514 22.6123 28.5057C22.6354 27.6506 22.6585 26.7955 22.6816 25.9403C22.8238 25.637 23.0318 25.4059 23.3057 25.247ZM69.7607 39.9462C70.2847 38.1354 70.5852 36.2863 70.6621 34.3993C70.7315 31.3489 70.7546 28.2981 70.7315 25.247C72.7788 25.1822 74.8126 25.2516 76.833 25.455C76.9996 25.5801 77.1152 25.7419 77.1797 25.9403C77.2722 27.6506 77.2722 29.3609 77.1797 31.0712C76.4863 35.5307 74.0134 38.489 69.7607 39.9462ZM49.9307 26.7723C50.5281 26.8516 51.0134 27.1289 51.3867 27.6044C51.7652 28.9259 52.2505 30.197 52.8428 31.4178C53.0276 31.5103 53.2126 31.6027 53.3975 31.6952C54.6455 31.7414 55.8936 31.7877 57.1416 31.8339C58.2574 32.2398 58.604 33.0025 58.1816 34.122C57.2733 34.8917 56.3258 35.6081 55.3389 36.2714C54.827 36.85 54.6652 37.5204 54.8535 38.2821C55.2249 39.2805 55.5254 40.2974 55.7549 41.3329C55.6026 42.479 54.9556 42.9644 53.8135 42.7889C52.889 42.1418 51.9646 41.4947 51.04 40.8475C50.2778 40.3896 49.5381 40.4358 48.8213 40.9862C48.028 41.6409 47.1959 42.2417 46.3252 42.7889C45.1831 42.9644 44.5361 42.479 44.3838 41.3329C44.6191 40.2533 44.9195 39.1901 45.2852 38.1434C45.4647 37.4266 45.3029 36.8026 44.7998 36.2714C44.0603 35.7629 43.3206 35.2545 42.5811 34.746C41.8408 34.2594 41.5865 33.5892 41.8184 32.7352C41.9802 32.3886 42.2344 32.1344 42.5811 31.9725C43.9577 31.7981 45.3444 31.7057 46.7412 31.6952C47.1116 31.5219 47.412 31.2677 47.6426 30.9325C48.0128 29.8216 48.3827 28.7122 48.752 27.6044C49.074 27.2029 49.4668 26.9255 49.9307 26.7723Z" fill="#15124E"/>
<path opacity="0.976" fill-rule="evenodd" clip-rule="evenodd" d="M31.21 75.8622C43.6443 75.839 56.0786 75.8622 68.5127 75.9315C69.6121 76.2445 70.421 76.9149 70.9395 77.9423C71.1594 79.6909 71.2057 81.4474 71.0782 83.2118C70.9098 83.4266 70.7018 83.5883 70.4541 83.6972C56.7256 83.7897 42.9971 83.7897 29.2686 83.6972C28.9681 83.5816 28.7601 83.3736 28.6446 83.0731C28.5521 81.5477 28.5521 80.0224 28.6446 78.497C29.0593 77.181 29.9145 76.3026 31.21 75.8622Z" fill="#15124E"/>
</svg>
