<svg width="30" height="30" viewBox="0 0 30 30" fill="none" xmlns="http://www.w3.org/2000/svg">
<path d="M21.25 6.25V3.75H20V2.5H17.5V1.25H12.5V2.5H10V3.75H8.75V6.25H7.5V11.25H8.75V13.75H10V15H12.5V16.25H17.5V15H20V13.75H21.25V11.25H22.5V6.25H21.25ZM18.75 11.25V12.5H17.5V13.75H12.5V12.5H11.25V11.25H10V6.25H11.25V5H12.5V3.75H17.5V5H18.75V6.25H20V11.25H18.75Z" fill="white"/>
<path d="M26.25 23.75V22.5H25V21.25H23.75V20H21.25V18.75H8.75V20H6.25V21.25H5V22.5H3.75V23.75H2.5V27.5H3.75V28.75H26.25V27.5H27.5V23.75H26.25ZM6.25 23.75V22.5H8.75V21.25H21.25V22.5H23.75V23.75H25V26.25H5V23.75H6.25Z" fill="white"/>
</svg>
