<svg version="1.1" id="Layer_1" xmlns="http://www.w3.org/2000/svg" xmlns:xlink="http://www.w3.org/1999/xlink" x="0px" y="0px"
	 width="100%" viewBox="0 0 512 512" enable-background="new 0 0 512 512" xml:space="preserve">
<path fill="#5ADAFD" opacity="1.000000" stroke="none" 
	d="
M225.000000,1.000001 
	C246.020889,1.000000 267.041779,1.000000 288.193726,1.339341 
	C288.995483,2.108514 289.619080,2.795765 290.344208,2.928542 
	C297.990845,4.328756 305.672485,5.541520 313.308655,6.994366 
	C341.571350,12.371600 367.595093,23.625204 391.913544,38.576023 
	C416.933350,53.958038 438.533508,73.454987 456.977814,96.415504 
	C470.521759,113.275749 481.809753,131.435028 490.710815,151.173416 
	C501.083923,174.176147 508.169617,198.028687 511.079803,223.114090 
	C511.160248,223.807663 512.335327,224.374222 513.000000,225.000000 
	C513.000000,246.020889 513.000000,267.041779 512.664795,288.194397 
	C511.896820,288.993317 511.217712,289.609741 511.067993,290.335388 
	C508.684265,301.891144 506.664215,313.530182 503.976440,325.013336 
	C497.996826,350.560638 486.623169,373.756683 472.712494,395.869202 
	C460.372101,415.485626 445.027344,432.499084 428.165924,448.186523 
	C422.396698,453.554016 415.744110,457.972015 409.555054,462.388214 
	C410.079590,458.488220 410.592194,455.029480 411.000916,451.558533 
	C413.763489,428.096222 410.915009,405.014130 405.910767,382.141693 
	C404.939697,377.703186 405.703461,376.106903 410.157471,374.333557 
	C426.366852,367.879761 442.637390,361.394745 458.205963,353.570679 
	C472.416840,346.428955 484.729370,336.301147 494.262390,323.282288 
	C509.079193,303.047638 509.436249,278.650299 494.078705,258.834045 
	C487.743469,250.659576 479.855957,243.354797 471.595276,237.073792 
	C453.235657,223.114075 432.067230,214.415497 410.214142,207.534744 
	C405.498505,206.049942 404.637085,204.206970 405.930359,199.828613 
	C407.197388,195.538895 407.859863,191.054871 408.582001,186.622620 
	C412.025208,165.490143 413.653412,144.314606 409.906891,123.023674 
	C407.500427,109.348068 403.166260,96.436234 393.570251,86.059288 
	C376.411652,67.504311 355.231598,65.789345 332.422729,72.478302 
	C315.277039,77.506470 299.907898,86.166870 285.695007,96.826660 
	C275.877106,104.190178 266.420685,112.035629 256.784912,119.679840 
	C256.520599,119.558601 256.174622,119.480034 255.935333,119.276222 
	C254.921066,118.412231 253.942810,117.506180 252.943726,116.624161 
	C231.704361,97.873337 209.286026,80.976250 181.704514,72.527740 
	C163.393829,66.918991 145.448532,66.864410 129.076889,78.325684 
	C115.344460,87.939323 108.601707,102.059944 105.100822,117.990608 
	C100.453110,139.139832 101.437271,160.350143 104.646751,181.547119 
	C105.857452,189.543121 107.462509,197.479416 108.900963,205.516556 
	C107.451202,206.089844 106.370476,206.486374 105.314056,206.939560 
	C88.664619,214.081696 71.611015,220.428635 55.489170,228.611160 
	C40.253067,236.344101 26.997580,247.190201 17.582417,261.890594 
	C7.428069,277.745087 5.680992,294.528687 13.189691,311.923737 
	C19.269024,326.007416 30.067268,336.156219 42.184105,344.959106 
	C60.294857,358.116547 80.631096,366.798859 101.723846,373.875610 
	C104.169052,374.695984 106.583748,375.607269 109.114510,376.512878 
	C102.717743,405.447144 99.311310,433.925720 104.148575,462.888092 
	C86.339279,449.551971 70.502289,434.508606 56.783039,417.286499 
	C43.416943,400.507782 32.181061,382.471619 23.303822,362.875854 
	C12.876461,339.858368 6.062462,315.923248 2.921008,290.886414 
	C2.833404,290.188232 1.664632,289.625732 1.000003,289.000000 
	C1.000000,267.979095 1.000000,246.958206 1.339325,225.806274 
	C2.116996,224.838333 2.804675,224.043411 2.953768,223.157822 
	C4.030645,216.761307 4.776502,210.302322 6.039541,203.945053 
	C11.432983,176.798111 21.330532,151.268860 35.307652,127.477669 
	C51.284431,100.282730 71.769638,76.825470 96.416634,57.023865 
	C113.275757,43.479111 131.414413,32.163437 151.170975,23.282537 
	C174.185593,12.937094 198.028809,5.830289 223.114105,2.920241 
	C223.807663,2.839786 224.374222,1.664670 225.000000,1.000001 
z"/>
<path fill="none" opacity="1.000000" stroke="none" 
	d="
M409.495087,462.823853 
	C415.744110,457.972015 422.396698,453.554016 428.165924,448.186523 
	C445.027344,432.499084 460.372101,415.485626 472.712494,395.869202 
	C486.623169,373.756683 497.996826,350.560638 503.976440,325.013336 
	C506.664215,313.530182 508.684265,301.891144 511.067993,290.335388 
	C511.217712,289.609741 511.896820,288.993317 512.664795,288.663055 
	C513.000000,363.593719 513.000000,438.187408 513.000000,513.000000 
	C438.645905,513.000000 364.291626,513.000000 289.131744,512.664795 
	C288.824432,511.908875 289.272919,511.207764 289.828339,511.109192 
	C300.004639,509.303528 310.193756,507.570007 320.676636,505.628479 
	C331.625732,501.943146 342.358582,498.672699 352.897369,494.865082 
	C358.236389,492.936127 363.225037,490.037384 368.349396,487.531067 
	C368.326721,487.485016 368.406067,487.545837 368.760071,487.408630 
	C374.178711,484.816803 379.505219,482.781311 384.250824,479.816193 
	C392.848236,474.444397 401.099396,468.518433 409.495087,462.823853 
z"/>
<path fill="none" opacity="1.000000" stroke="none" 
	d="
M1.000003,289.468658 
	C1.664632,289.625732 2.833404,290.188232 2.921008,290.886414 
	C6.062462,315.923248 12.876461,339.858368 23.303822,362.875854 
	C32.181061,382.471619 43.416943,400.507782 56.783039,417.286499 
	C70.502289,434.508606 86.339279,449.551971 104.353836,463.123535 
	C115.634018,470.186768 126.018646,477.648132 137.118439,483.824188 
	C154.889343,493.712158 174.018677,500.459930 194.053040,505.904236 
	C204.033905,507.660370 213.590942,509.298340 223.121994,511.075684 
	C223.842560,511.210022 224.378342,512.335327 225.000000,513.000000 
	C150.406296,513.000000 75.812599,513.000000 1.000000,513.000000 
	C1.000000,438.645905 1.000000,364.291626 1.000003,289.468658 
z"/>
<path fill="#none" opacity="1.000000" stroke="none" 
	d="
M513.000000,224.531342 
	C512.335327,224.374222 511.160248,223.807663 511.079803,223.114090 
	C508.169617,198.028687 501.083923,174.176147 490.710815,151.173416 
	C481.809753,131.435028 470.521759,113.275749 456.977814,96.415504 
	C438.533508,73.454987 416.933350,53.958038 391.913544,38.576023 
	C367.595093,23.625204 341.571350,12.371600 313.308655,6.994366 
	C305.672485,5.541520 297.990845,4.328756 290.344208,2.928542 
	C289.619080,2.795765 288.995483,2.108514 288.662384,1.339341 
	C363.593719,1.000000 438.187408,1.000000 513.000000,1.000000 
	C513.000000,75.354088 513.000000,149.708389 513.000000,224.531342 
z"/>
<path fill="none" opacity="1.000000" stroke="none" 
	d="
M224.531342,1.000001 
	C224.374222,1.664670 223.807663,2.839786 223.114105,2.920241 
	C198.028809,5.830289 174.185593,12.937094 151.170975,23.282537 
	C131.414413,32.163437 113.275757,43.479111 96.416634,57.023865 
	C71.769638,76.825470 51.284431,100.282730 35.307652,127.477669 
	C21.330532,151.268860 11.432983,176.798111 6.039541,203.945053 
	C4.776502,210.302322 4.030645,216.761307 2.953768,223.157822 
	C2.804675,224.043411 2.116996,224.838333 1.339325,225.337616 
	C1.000000,150.406296 1.000000,75.812576 1.000000,1.000000 
	C75.354088,1.000000 149.708389,1.000000 224.531342,1.000001 
z"/>
<path fill="#5BDAFD" opacity="1.000000" stroke="none" 
	d="
M225.468658,513.000000 
	C224.378342,512.335327 223.842560,511.210022 223.121994,511.075684 
	C213.590942,509.298340 204.033905,507.660370 194.315094,505.647827 
	C217.683884,494.592438 238.002106,479.145447 256.995728,461.716705 
	C272.543396,475.859375 288.342377,488.582703 306.275360,498.404144 
	C310.933716,500.955444 315.676270,503.353027 320.380157,505.821228 
	C310.193756,507.570007 300.004639,509.303528 289.828339,511.109192 
	C289.272919,511.207764 288.824432,511.908875 288.663086,512.664795 
	C267.979095,513.000000 246.958206,513.000000 225.468658,513.000000 
z"/>
<path fill="#F0F2F2" opacity="1.000000" stroke="none" 
	d="
M320.676636,505.628448 
	C315.676270,503.353027 310.933716,500.955444 306.275360,498.404144 
	C288.342377,488.582703 272.543396,475.859375 256.995728,461.716705 
	C238.002106,479.145447 217.683884,494.592438 193.884750,505.564514 
	C174.018677,500.459930 154.889343,493.712158 137.118439,483.824188 
	C126.018646,477.648132 115.634018,470.186768 104.723221,463.066711 
	C99.311310,433.925720 102.717743,405.447144 109.114510,376.512878 
	C106.583748,375.607269 104.169052,374.695984 101.723846,373.875610 
	C80.631096,366.798859 60.294857,358.116547 42.184105,344.959106 
	C30.067268,336.156219 19.269024,326.007416 13.189691,311.923737 
	C5.680992,294.528687 7.428069,277.745087 17.582417,261.890594 
	C26.997580,247.190201 40.253067,236.344101 55.489170,228.611160 
	C71.611015,220.428635 88.664619,214.081696 105.314056,206.939560 
	C106.370476,206.486374 107.451202,206.089844 108.900963,205.516556 
	C107.462509,197.479416 105.857452,189.543121 104.646751,181.547119 
	C101.437271,160.350143 100.453110,139.139832 105.100822,117.990608 
	C108.601707,102.059944 115.344460,87.939323 129.076889,78.325684 
	C145.448532,66.864410 163.393829,66.918991 181.704514,72.527740 
	C209.286026,80.976250 231.704361,97.873337 252.943726,116.624161 
	C253.942810,117.506180 254.921066,118.412231 255.935333,119.276222 
	C256.174622,119.480034 256.520599,119.558601 256.784912,119.679840 
	C266.420685,112.035629 275.877106,104.190178 285.695007,96.826660 
	C299.907898,86.166870 315.277039,77.506470 332.422729,72.478302 
	C355.231598,65.789345 376.411652,67.504311 393.570251,86.059288 
	C403.166260,96.436234 407.500427,109.348068 409.906891,123.023674 
	C413.653412,144.314606 412.025208,165.490143 408.582001,186.622620 
	C407.859863,191.054871 407.197388,195.538895 405.930359,199.828613 
	C404.637085,204.206970 405.498505,206.049942 410.214142,207.534744 
	C432.067230,214.415497 453.235657,223.114075 471.595276,237.073792 
	C479.855957,243.354797 487.743469,250.659576 494.078705,258.834045 
	C509.436249,278.650299 509.079193,303.047638 494.262390,323.282288 
	C484.729370,336.301147 472.416840,346.428955 458.205963,353.570679 
	C442.637390,361.394745 426.366852,367.879761 410.157471,374.333557 
	C405.703461,376.106903 404.939697,377.703186 405.910767,382.141693 
	C410.915009,405.014130 413.763489,428.096222 411.000916,451.558533 
	C410.592194,455.029480 410.079590,458.488220 409.555054,462.388245 
	C401.099396,468.518433 392.848236,474.444397 384.250824,479.816193 
	C379.505219,482.781311 374.178711,484.816803 368.711914,487.046082 
	C375.112640,481.994843 380.300842,475.935059 383.259247,468.004639 
	C387.522614,456.576202 389.103821,444.593018 388.363098,432.665039 
	C387.427765,417.603577 384.789642,402.652344 383.073700,387.632111 
	C382.584503,383.349823 380.880981,382.776917 376.796082,383.506104 
	C357.810425,386.895294 338.734924,389.779053 319.734741,393.091431 
	C317.588776,393.465546 315.202087,394.978210 313.796631,396.680786 
	C302.881165,409.903473 292.204041,423.322601 281.391815,436.631073 
	C279.041290,439.524384 276.443634,442.216949 273.009888,446.067047 
	C287.409424,456.463135 300.763611,466.966003 314.991547,476.109222 
	C326.771271,483.679199 339.711578,489.382996 354.266357,489.138367 
	C358.975677,489.059204 363.670593,488.121887 368.372070,487.577118 
	C363.225037,490.037384 358.236389,492.936127 352.897369,494.865082 
	C342.358582,498.672699 331.625732,501.943146 320.676636,505.628448 
M195.429092,234.924408 
	C185.810852,252.432968 176.123550,269.904510 166.683731,287.508698 
	C165.764038,289.223785 165.571655,292.138245 166.389099,293.854004 
	C178.659561,319.608704 192.842133,344.288788 209.010315,367.797089 
	C210.107285,369.392059 212.608612,370.763794 214.560349,370.916626 
	C242.829025,373.129883 271.119629,373.134369 299.388550,370.920044 
	C301.346375,370.766663 303.866455,369.425781 304.958099,367.835907 
	C321.107086,344.316193 335.293335,319.638550 347.607910,293.905273 
	C348.388641,292.273773 348.373871,289.612518 347.588837,287.977936 
	C335.239410,262.263641 321.078644,237.571243 304.910950,214.063675 
	C303.825623,212.485641 301.271057,211.215225 299.298553,211.055969 
	C271.030182,208.773834 242.740234,208.785995 214.473267,211.073151 
	C212.531586,211.230270 210.100815,212.661469 208.971619,214.259262 
	C204.361130,220.782898 200.168259,227.601685 195.429092,234.924408 
M193.015030,102.456833 
	C184.931030,99.456642 177.067795,95.317093 168.716034,93.698814 
	C152.462723,90.549461 140.256973,93.601364 131.888870,111.442101 
	C126.302521,123.352173 124.962357,136.268936 125.637154,149.013107 
	C126.443253,164.237137 129.191910,179.354370 130.961105,194.533951 
	C131.421799,198.486649 132.912094,199.181717 136.881866,198.477295 
	C156.033493,195.078857 175.274963,192.189209 194.446350,188.896515 
	C196.456589,188.551254 198.711426,187.146347 200.010986,185.548447 
	C208.729218,174.828842 217.117508,163.841049 225.826004,153.113281 
	C230.302963,147.598221 235.219040,142.439590 240.091858,136.944946 
	C225.595169,123.730736 210.835648,111.646523 193.015030,102.456833 
M381.367065,305.140228 
	C387.293030,320.992126 393.218994,336.843994 399.355042,353.257843 
	C405.177704,351.243347 411.169739,349.368073 417.014832,347.112030 
	C437.011566,339.393738 456.159119,330.240906 471.200745,314.302368 
	C485.072876,299.603058 485.066101,282.319550 471.217590,267.664764 
	C456.286682,251.864532 437.304901,242.748917 417.497925,235.020279 
	C411.508301,232.683136 405.357483,230.759216 398.827911,228.488647 
	C398.067535,230.787292 397.550659,232.501663 396.937103,234.180695 
	C391.627838,248.709549 387.230560,263.670135 380.661163,277.606293 
	C376.091095,287.301086 375.197876,295.563385 381.367065,305.140228 
M46.921055,318.595856 
	C66.520561,336.067444 90.221809,345.371399 114.824104,353.249268 
	C115.375702,352.267944 115.767204,351.740509 115.990570,351.149506 
	C123.281616,331.859009 130.611053,312.582458 137.733612,293.229797 
	C138.324142,291.625305 137.903122,289.350037 137.269348,287.639343 
	C130.451706,269.237274 123.432846,250.909653 116.645157,232.496735 
	C115.569351,229.578400 114.570045,228.418610 111.322235,229.732574 
	C101.148048,233.848801 90.673523,237.271713 80.678650,241.770370 
	C66.336143,248.225876 52.895618,256.289337 42.310978,268.242004 
	C35.239975,276.226929 30.508226,285.149170 32.885071,296.410797 
	C34.762642,305.306824 40.225182,311.914520 46.921055,318.595856 
M377.895416,198.574677 
	C381.096954,199.759796 382.494049,198.378571 382.935486,195.239944 
	C383.375000,192.114761 384.053650,189.023254 384.626465,185.916794 
	C388.419312,165.348236 390.204468,144.727219 386.128418,123.971863 
	C381.046997,98.096977 365.450409,87.993813 340.155487,94.803459 
	C320.292572,100.150757 303.842010,111.844734 288.090027,124.547142 
	C283.230377,128.465958 278.646210,132.726364 274.533936,136.309311 
	C288.246643,153.506287 301.488098,170.172745 314.852966,186.739624 
	C315.762085,187.866547 317.528748,188.662735 319.013489,188.909576 
	C338.359772,192.125885 357.727173,195.215088 377.895416,198.574677 
M238.751343,446.386719 
	C238.444809,445.032959 238.553757,443.342041 237.769592,442.375885 
	C225.289413,426.998718 212.733322,411.682373 200.066452,396.458740 
	C198.814438,394.954010 196.847183,393.441406 195.005936,393.122803 
	C175.514160,389.750183 155.965820,386.704803 136.472626,383.339966 
	C133.083389,382.754913 131.710526,383.426819 131.011139,386.882324 
	C127.136513,406.026093 124.532211,425.260986 125.983078,444.854584 
	C126.713417,454.717682 128.517929,464.340576 133.184967,473.185760 
	C138.708527,483.654388 147.294128,489.161499 159.325607,489.255707 
	C169.950684,489.338837 179.619644,485.952209 189.007904,481.536011 
	C207.442535,472.864410 223.122162,460.243011 238.751343,446.386719 
M147.683029,220.125595 
	C144.630234,220.839401 141.577438,221.553207 137.760941,222.445572 
	C142.540436,235.948730 147.181473,249.060776 152.084259,262.912262 
	C161.618332,246.363129 170.517380,230.916275 180.133408,214.224884 
	C168.713669,216.310562 158.614838,218.154999 147.683029,220.125595 
M355.893890,252.610916 
	C357.658051,255.790359 359.422211,258.969788 361.788879,263.235168 
	C366.798981,249.104431 371.442688,236.007111 376.395386,222.038284 
	C362.110504,219.413315 348.574829,216.926010 333.846802,214.219604 
	C341.641876,227.779800 348.592468,239.870941 355.893890,252.610916 
M158.827957,330.673462 
	C156.818161,327.057800 154.808365,323.442139 152.181030,318.715515 
	C147.182632,332.858154 142.551956,345.960327 137.609161,359.945648 
	C151.910629,362.566376 165.445633,365.046661 180.190109,367.748566 
	C172.611877,354.631897 165.882233,342.983978 158.827957,330.673462 
M352.357330,335.848755 
	C346.415802,346.015045 340.474274,356.181366 333.677490,367.811035 
	C348.574585,365.054108 362.121674,362.547028 376.414978,359.901825 
	C371.421722,345.880951 366.777985,332.841461 361.742340,318.701569 
	C358.299042,325.023621 355.522034,330.122375 352.357330,335.848755 
M246.503159,186.000351 
	C258.837524,186.000351 271.171906,186.000351 285.118408,186.000351 
	C275.214569,174.441086 266.342316,164.085770 256.953064,153.127106 
	C247.462906,164.272171 238.638931,174.634857 228.958359,186.003525 
	C235.610901,186.003525 240.558319,186.003525 246.503159,186.000351 
M261.222717,423.721069 
	C268.865601,414.844604 276.508514,405.968170 284.918915,396.200348 
	C265.783508,396.200348 248.165421,396.200348 229.093552,396.200348 
	C238.772980,407.511383 247.646881,417.881104 256.775146,428.548065 
	C258.538269,426.668427 259.660919,425.471558 261.222717,423.721069 
z"/>
<path fill="#5BDAFD" opacity="1.000000" stroke="none" 
	d="
M195.625336,234.618073 
	C200.168259,227.601685 204.361130,220.782898 208.971619,214.259262 
	C210.100815,212.661469 212.531586,211.230270 214.473267,211.073151 
	C242.740234,208.785995 271.030182,208.773834 299.298553,211.055969 
	C301.271057,211.215225 303.825623,212.485641 304.910950,214.063675 
	C321.078644,237.571243 335.239410,262.263641 347.588837,287.977936 
	C348.373871,289.612518 348.388641,292.273773 347.607910,293.905273 
	C335.293335,319.638550 321.107086,344.316193 304.958099,367.835907 
	C303.866455,369.425781 301.346375,370.766663 299.388550,370.920044 
	C271.119629,373.134369 242.829025,373.129883 214.560349,370.916626 
	C212.608612,370.763794 210.107285,369.392059 209.010315,367.797089 
	C192.842133,344.288788 178.659561,319.608704 166.389099,293.854004 
	C165.571655,292.138245 165.764038,289.223785 166.683731,287.508698 
	C176.123550,269.904510 185.810852,252.432968 195.625336,234.618073 
M257.431335,337.716309 
	C259.079498,337.499451 260.723572,337.243225 262.376434,337.071594 
	C289.600311,334.244598 308.549866,307.896606 302.365753,280.532806 
	C297.389465,258.513367 276.205902,241.908936 251.802673,244.882278 
	C233.861084,247.068298 221.074753,256.633209 214.176651,272.989502 
	C207.277237,289.348907 209.443100,305.289795 220.328552,319.546997 
	C229.386673,331.410889 241.886459,336.850983 257.431335,337.716309 
z"/>
<path fill="#5BDAFD" opacity="1.000000" stroke="none" 
	d="
M193.341354,102.635437 
	C210.835648,111.646523 225.595169,123.730736 240.091858,136.944946 
	C235.219040,142.439590 230.302963,147.598221 225.826004,153.113281 
	C217.117508,163.841049 208.729218,174.828842 200.010986,185.548447 
	C198.711426,187.146347 196.456589,188.551254 194.446350,188.896515 
	C175.274963,192.189209 156.033493,195.078857 136.881866,198.477295 
	C132.912094,199.181717 131.421799,198.486649 130.961105,194.533951 
	C129.191910,179.354370 126.443253,164.237137 125.637154,149.013107 
	C124.962357,136.268936 126.302521,123.352173 131.888870,111.442101 
	C140.256973,93.601364 152.462723,90.549461 168.716034,93.698814 
	C177.067795,95.317093 184.931030,99.456642 193.341354,102.635437 
z"/>
<path fill="#5BDAFD" opacity="1.000000" stroke="none" 
	d="
M381.218994,304.788544 
	C375.197876,295.563385 376.091095,287.301086 380.661163,277.606293 
	C387.230560,263.670135 391.627838,248.709549 396.937103,234.180695 
	C397.550659,232.501663 398.067535,230.787292 398.827911,228.488647 
	C405.357483,230.759216 411.508301,232.683136 417.497925,235.020279 
	C437.304901,242.748917 456.286682,251.864532 471.217590,267.664764 
	C485.066101,282.319550 485.072876,299.603058 471.200745,314.302368 
	C456.159119,330.240906 437.011566,339.393738 417.014832,347.112030 
	C411.169739,349.368073 405.177704,351.243347 399.355042,353.257843 
	C393.218994,336.843994 387.293030,320.992126 381.218994,304.788544 
z"/>
<path fill="#5BDAFD" opacity="1.000000" stroke="none" 
	d="
M46.667717,318.344635 
	C40.225182,311.914520 34.762642,305.306824 32.885071,296.410797 
	C30.508226,285.149170 35.239975,276.226929 42.310978,268.242004 
	C52.895618,256.289337 66.336143,248.225876 80.678650,241.770370 
	C90.673523,237.271713 101.148048,233.848801 111.322235,229.732574 
	C114.570045,228.418610 115.569351,229.578400 116.645157,232.496735 
	C123.432846,250.909653 130.451706,269.237274 137.269348,287.639343 
	C137.903122,289.350037 138.324142,291.625305 137.733612,293.229797 
	C130.611053,312.582458 123.281616,331.859009 115.990570,351.149506 
	C115.767204,351.740509 115.375702,352.267944 114.824104,353.249268 
	C90.221809,345.371399 66.520561,336.067444 46.667717,318.344635 
z"/>
<path fill="#5BDAFD" opacity="1.000000" stroke="none" 
	d="
M377.492340,198.455475 
	C357.727173,195.215088 338.359772,192.125885 319.013489,188.909576 
	C317.528748,188.662735 315.762085,187.866547 314.852966,186.739624 
	C301.488098,170.172745 288.246643,153.506287 274.533936,136.309311 
	C278.646210,132.726364 283.230377,128.465958 288.090027,124.547142 
	C303.842010,111.844734 320.292572,100.150757 340.155487,94.803459 
	C365.450409,87.993813 381.046997,98.096977 386.128418,123.971863 
	C390.204468,144.727219 388.419312,165.348236 384.626465,185.916794 
	C384.053650,189.023254 383.375000,192.114761 382.935486,195.239944 
	C382.494049,198.378571 381.096954,199.759796 377.492340,198.455475 
z"/>
<path fill="#5BDAFD" opacity="1.000000" stroke="none" 
	d="
M368.349426,487.531067 
	C363.670593,488.121887 358.975677,489.059204 354.266357,489.138367 
	C339.711578,489.382996 326.771271,483.679199 314.991547,476.109222 
	C300.763611,466.966003 287.409424,456.463135 273.009888,446.067047 
	C276.443634,442.216949 279.041290,439.524384 281.391815,436.631073 
	C292.204041,423.322601 302.881165,409.903473 313.796631,396.680786 
	C315.202087,394.978210 317.588776,393.465546 319.734741,393.091431 
	C338.734924,389.779053 357.810425,386.895294 376.796082,383.506104 
	C380.880981,382.776917 382.584503,383.349823 383.073700,387.632111 
	C384.789642,402.652344 387.427765,417.603577 388.363098,432.665039 
	C389.103821,444.593018 387.522614,456.576202 383.259247,468.004639 
	C380.300842,475.935059 375.112640,481.994843 368.357910,487.183289 
	C368.406067,487.545837 368.326721,487.485016 368.349426,487.531067 
z"/>
<path fill="#5BDAFD" opacity="1.000000" stroke="none" 
	d="
M238.490845,446.608795 
	C223.122162,460.243011 207.442535,472.864410 189.007904,481.536011 
	C179.619644,485.952209 169.950684,489.338837 159.325607,489.255707 
	C147.294128,489.161499 138.708527,483.654388 133.184967,473.185760 
	C128.517929,464.340576 126.713417,454.717682 125.983078,444.854584 
	C124.532211,425.260986 127.136513,406.026093 131.011139,386.882324 
	C131.710526,383.426819 133.083389,382.754913 136.472626,383.339966 
	C155.965820,386.704803 175.514160,389.750183 195.005936,393.122803 
	C196.847183,393.441406 198.814438,394.954010 200.066452,396.458740 
	C212.733322,411.682373 225.289413,426.998718 237.769592,442.375885 
	C238.553757,443.342041 238.444809,445.032959 238.490845,446.608795 
z"/>
<path fill="#5DDAFD" opacity="1.000000" stroke="none" 
	d="
M148.099518,220.062515 
	C158.614838,218.154999 168.713669,216.310562 180.133408,214.224884 
	C170.517380,230.916275 161.618332,246.363129 152.084259,262.912262 
	C147.181473,249.060776 142.540436,235.948730 137.760941,222.445572 
	C141.577438,221.553207 144.630234,220.839401 148.099518,220.062515 
z"/>
<path fill="#5DDAFD" opacity="1.000000" stroke="none" 
	d="
M355.718475,252.286499 
	C348.592468,239.870941 341.641876,227.779800 333.846802,214.219604 
	C348.574829,216.926010 362.110504,219.413315 376.395386,222.038284 
	C371.442688,236.007111 366.798981,249.104431 361.788879,263.235168 
	C359.422211,258.969788 357.658051,255.790359 355.718475,252.286499 
z"/>
<path fill="#5DDAFD" opacity="1.000000" stroke="none" 
	d="
M158.990265,331.004761 
	C165.882233,342.983978 172.611877,354.631897 180.190109,367.748566 
	C165.445633,365.046661 151.910629,362.566376 137.609161,359.945648 
	C142.551956,345.960327 147.182632,332.858154 152.181030,318.715515 
	C154.808365,323.442139 156.818161,327.057800 158.990265,331.004761 
z"/>
<path fill="#5DDAFD" opacity="1.000000" stroke="none" 
	d="
M352.551147,335.534943 
	C355.522034,330.122375 358.299042,325.023621 361.742340,318.701569 
	C366.777985,332.841461 371.421722,345.880951 376.414978,359.901825 
	C362.121674,362.547028 348.574585,365.054108 333.677490,367.811035 
	C340.474274,356.181366 346.415802,346.015045 352.551147,335.534943 
z"/>
<path fill="#5CDAFD" opacity="1.000000" stroke="none" 
	d="
M246.004456,186.001938 
	C240.558319,186.003525 235.610901,186.003525 228.958359,186.003525 
	C238.638931,174.634857 247.462906,164.272171 256.953064,153.127106 
	C266.342316,164.085770 275.214569,174.441086 285.118408,186.000351 
	C271.171906,186.000351 258.837524,186.000351 246.004456,186.001938 
z"/>
<path fill="#5CDAFD" opacity="1.000000" stroke="none" 
	d="
M261.003174,423.997864 
	C259.660919,425.471558 258.538269,426.668427 256.775146,428.548065 
	C247.646881,417.881104 238.772980,407.511383 229.093552,396.200348 
	C248.165421,396.200348 265.783508,396.200348 284.918915,396.200348 
	C276.508514,405.968170 268.865601,414.844604 261.003174,423.997864 
z"/>
<path fill="#F1F2F2" opacity="1.000000" stroke="none" 
	d="
M257.001099,337.716003 
	C241.886459,336.850983 229.386673,331.410889 220.328552,319.546997 
	C209.443100,305.289795 207.277237,289.348907 214.176651,272.989502 
	C221.074753,256.633209 233.861084,247.068298 251.802673,244.882278 
	C276.205902,241.908936 297.389465,258.513367 302.365753,280.532806 
	C308.549866,307.896606 289.600311,334.244598 262.376434,337.071594 
	C260.723572,337.243225 259.079498,337.499451 257.001099,337.716003 
z"/>
</svg>