<svg width="30" height="30" viewBox="0 0 30 30" fill="none" xmlns="http://www.w3.org/2000/svg">
<path d="M26.25 12.5V11.25H25V8.75H26.25V6.25H25V5H23.75V3.75H21.25V5H18.75V3.75H17.5V1.25H12.5V3.75H11.25V5H8.75V3.75H6.25V5H5V6.25H3.75V8.75H5V11.25H3.75V12.5H1.25V17.5H3.75V18.75H5V21.25H3.75V23.75H5V25H6.25V26.25H8.75V25H11.25V26.25H12.5V28.75H17.5V26.25H18.75V25H21.25V26.25H23.75V25H25V23.75H26.25V21.25H25V18.75H26.25V17.5H28.75V12.5H26.25ZM26.25 16.25H25V17.5H23.75V18.75H22.5V21.25H23.75V23.75H21.25V22.5H18.75V23.75H17.5V25H16.25V26.25H13.75V25H12.5V23.75H11.25V22.5H8.75V23.75H6.25V21.25H7.5V18.75H6.25V17.5H5V16.25H3.75V13.75H5V12.5H6.25V11.25H7.5V8.75H6.25V6.25H8.75V7.5H11.25V6.25H12.5V5H13.75V3.75H16.25V5H17.5V6.25H18.75V7.5H21.25V6.25H23.75V8.75H22.5V11.25H23.75V12.5H25V13.75H26.25V16.25Z" fill="white"/>
<path d="M20 12.5V11.25H18.75V10H17.5V8.75H12.5V10H11.25V11.25H10V12.5H8.75V17.5H10V18.75H11.25V20H12.5V21.25H17.5V20H18.75V18.75H20V17.5H21.25V12.5H20ZM18.75 17.5H17.5V18.75H12.5V17.5H11.25V12.5H12.5V11.25H17.5V12.5H18.75V17.5Z" fill="white"/>
</svg>
