<svg version="1.1" id="Layer_1" xmlns="http://www.w3.org/2000/svg" xmlns:xlink="http://www.w3.org/1999/xlink" x="0px" y="0px"
	 width="100%" viewBox="0 0 513 513" enable-background="new 0 0 513 513" xml:space="preserve">
<path fill="none" opacity="1.000000" stroke="none" 
	d="
M294.000000,514.000000 
	C196.023758,514.000000 98.547501,514.000000 1.035627,514.000000 
	C1.035627,343.065399 1.035627,172.130814 1.035627,1.098112 
	C171.892899,1.098112 342.785858,1.098112 513.839417,1.098112 
	C513.839417,171.999878 513.839417,342.999939 513.839417,514.000000 
	C440.797516,514.000000 367.648773,514.000000 294.000000,514.000000 
M456.465698,424.800232 
	C445.350983,448.588501 426.646729,461.032318 400.414001,461.084991 
	C313.437592,461.259613 226.460648,461.163849 139.483917,461.146027 
	C102.791962,461.138489 77.191307,435.558350 77.165337,398.921997 
	C77.145027,370.263000 77.117729,341.603912 77.186279,312.945068 
	C77.203308,305.826416 74.886429,299.817535 69.320503,295.368500 
	C62.630367,290.020782 55.072849,288.918335 47.268299,292.441772 
	C38.446430,296.424469 34.451687,303.766907 34.436111,313.266693 
	C34.387211,343.091919 34.302086,372.918060 34.484997,402.742279 
	C34.571720,416.882538 37.256310,430.654327 43.480583,443.409088 
	C62.585140,482.558105 94.150841,503.447113 137.632629,503.755371 
	C225.271454,504.376709 312.917755,503.953064 400.560944,503.908447 
	C404.880676,503.906250 409.212189,503.535034 413.517853,503.123138 
	C459.487152,498.725159 499.928650,459.426056 502.775818,413.417206 
	C504.891907,379.222321 503.820160,344.817657 503.738770,310.507446 
	C503.716278,301.021851 496.503021,293.263275 487.635345,291.155151 
	C473.839813,287.875488 461.240021,298.014954 461.186584,312.712128 
	C461.081116,341.703979 461.465149,370.702026 460.950958,399.685181 
	C460.806183,407.845154 458.241669,415.962189 456.465698,424.800232 
M290.618103,141.500061 
	C290.618103,130.769653 290.618103,120.039246 290.618103,107.805077 
	C293.027100,110.078087 294.325714,111.243294 295.557922,112.474915 
	C320.194641,137.099503 344.820007,161.735382 369.457611,186.359055 
	C373.818634,190.717621 378.107758,195.157959 382.639893,199.332809 
	C387.717682,204.010269 393.850037,205.913895 400.665924,204.591614 
	C409.054840,202.964157 414.850098,198.008011 417.281097,189.768021 
	C419.824707,181.146194 417.326294,173.770599 410.997345,167.450592 
	C369.366974,125.878983 327.790314,84.253578 286.174500,42.667377 
	C275.078735,31.579500 263.282776,31.636147 252.136108,42.778053 
	C210.879883,84.016777 169.635635,125.267471 128.389999,166.516800 
	C127.329842,167.577057 126.241127,168.618790 125.275223,169.761688 
	C118.705849,177.534851 118.397118,188.555206 124.490601,196.543549 
	C132.703796,207.310791 147.423325,207.844803 157.708359,197.588394 
	C186.149780,169.226257 214.526535,140.799271 242.943420,112.412506 
	C244.239349,111.117958 245.677490,109.965759 247.928024,107.966881 
	C247.928024,111.346962 247.927994,113.310593 247.928024,115.274223 
	C247.929138,200.440033 247.929901,285.605835 247.933533,370.771637 
	C247.933624,372.938049 247.883820,375.108734 247.996170,377.270172 
	C248.529968,387.540710 256.948608,396.240845 267.110413,397.081024 
	C277.912567,397.974152 287.712067,391.152924 289.880920,380.939697 
	C290.531036,377.878296 290.587830,374.649841 290.589355,371.497772 
	C290.625671,295.165222 290.617676,218.832657 290.618103,141.500061 
z"/>
<path fill="#EB08A4" opacity="1.000000" stroke="none" 
	d="
M456.626343,424.449585 
	C458.241669,415.962189 460.806183,407.845154 460.950958,399.685181 
	C461.465149,370.702026 461.081116,341.703979 461.186584,312.712128 
	C461.240021,298.014954 473.839813,287.875488 487.635345,291.155151 
	C496.503021,293.263275 503.716278,301.021851 503.738770,310.507446 
	C503.820160,344.817657 504.891907,379.222321 502.775818,413.417206 
	C499.928650,459.426056 459.487152,498.725159 413.517853,503.123138 
	C409.212189,503.535034 404.880676,503.906250 400.560944,503.908447 
	C312.917755,503.953064 225.271454,504.376709 137.632629,503.755371 
	C94.150841,503.447113 62.585140,482.558105 43.480583,443.409088 
	C37.256310,430.654327 34.571720,416.882538 34.484997,402.742279 
	C34.302086,372.918060 34.387211,343.091919 34.436111,313.266693 
	C34.451687,303.766907 38.446430,296.424469 47.268299,292.441772 
	C55.072849,288.918335 62.630367,290.020782 69.320503,295.368500 
	C74.886429,299.817535 77.203308,305.826416 77.186279,312.945068 
	C77.117729,341.603912 77.145027,370.263000 77.165337,398.921997 
	C77.191307,435.558350 102.791962,461.138489 139.483917,461.146027 
	C226.460648,461.163849 313.437592,461.259613 400.414001,461.084991 
	C426.646729,461.032318 445.350983,448.588501 456.626343,424.449585 
z"/>
<path fill="#EB08A4" opacity="1.000000" stroke="none" 
	d="
M290.617859,142.000076 
	C290.617676,218.832657 290.625671,295.165222 290.589355,371.497772 
	C290.587830,374.649841 290.531036,377.878296 289.880920,380.939697 
	C287.712067,391.152924 277.912567,397.974152 267.110413,397.081024 
	C256.948608,396.240845 248.529968,387.540710 247.996170,377.270172 
	C247.883820,375.108734 247.933624,372.938049 247.933533,370.771637 
	C247.929901,285.605835 247.929138,200.440033 247.928024,115.274223 
	C247.927994,113.310593 247.928024,111.346962 247.928024,107.966881 
	C245.677490,109.965759 244.239349,111.117958 242.943420,112.412506 
	C214.526535,140.799271 186.149780,169.226257 157.708359,197.588394 
	C147.423325,207.844803 132.703796,207.310791 124.490601,196.543549 
	C118.397118,188.555206 118.705849,177.534851 125.275223,169.761688 
	C126.241127,168.618790 127.329842,167.577057 128.389999,166.516800 
	C169.635635,125.267471 210.879883,84.016777 252.136108,42.778053 
	C263.282776,31.636147 275.078735,31.579500 286.174500,42.667377 
	C327.790314,84.253578 369.366974,125.878983 410.997345,167.450592 
	C417.326294,173.770599 419.824707,181.146194 417.281097,189.768021 
	C414.850098,198.008011 409.054840,202.964157 400.665924,204.591614 
	C393.850037,205.913895 387.717682,204.010269 382.639893,199.332809 
	C378.107758,195.157959 373.818634,190.717621 369.457611,186.359055 
	C344.820007,161.735382 320.194641,137.099503 295.557922,112.474915 
	C294.325714,111.243294 293.027100,110.078087 290.618103,107.805077 
	C290.618103,120.039246 290.618103,130.769653 290.617859,142.000076 
z"/>
</svg>