<svg version="1.1" id="Layer_1" xmlns="http://www.w3.org/2000/svg" xmlns:xlink="http://www.w3.org/1999/xlink" x="0px" y="0px"
	 width="100%" viewBox="0 0 192 192" enable-background="new 0 0 192 192" xml:space="preserve">
<path fill="#F7F5EC" opacity="1.000000" stroke="none" 
	d="
M31.000000,193.000000 
	C21.006807,193.000000 11.013615,193.000000 1.015317,193.000000 
	C1.010211,129.050369 1.010211,65.100754 1.010211,1.075563 
	C64.905983,1.075563 128.812073,1.075563 192.859085,1.075563 
	C192.859085,64.999779 192.859085,128.999847 192.859085,193.000000 
	C180.921021,193.000000 168.929169,193.000000 156.648193,192.637634 
	C156.204803,191.510056 156.050507,190.744812 155.948059,189.551331 
	C155.999908,187.663864 155.999908,186.204636 155.999908,184.662521 
	C153.736191,184.400162 151.842422,184.180679 150.024902,183.970047 
	C149.854797,182.007828 149.716614,180.413803 149.540527,178.382416 
	C145.334412,178.382416 141.409775,178.382416 137.348938,178.382416 
	C137.348938,176.682083 137.348938,175.462830 137.348938,173.813385 
	C141.527588,173.813385 145.449646,173.813385 149.533218,173.813385 
	C149.716461,171.617325 149.865799,169.827621 150.459290,168.034698 
	C152.505692,168.031494 154.107941,168.031494 155.813599,168.031494 
	C156.129776,166.136978 156.386261,164.600067 156.634979,163.109772 
	C158.787827,162.894379 160.684570,162.704605 162.490189,162.523956 
	C162.806198,160.764664 163.055389,159.377380 163.098602,159.136795 
	C165.619736,157.799545 167.320969,156.897202 169.151093,155.589905 
	C169.203751,153.501236 169.127533,151.817505 169.137177,149.714905 
	C169.345688,147.885162 169.468323,146.474258 169.991608,145.053757 
	C172.145294,145.044144 173.898376,145.044144 176.135925,145.044144 
	C176.135925,140.927185 176.135925,137.352173 176.135925,133.093750 
	C182.831024,134.724579 182.536987,130.603867 182.274002,126.524963 
	C182.189651,125.216782 182.049820,123.912178 182.102325,122.528198 
	C182.479660,122.308441 182.626266,122.117477 183.027237,121.941444 
	C183.557144,121.964256 183.768875,121.923172 184.352936,121.979034 
	C185.488037,122.019920 186.250824,121.963852 187.292740,121.949623 
	C187.672638,121.667877 187.773407,121.344292 187.941833,120.594193 
	C187.979645,118.441483 187.949799,116.715279 187.989441,114.651489 
	C187.693451,114.150665 187.327972,113.987419 186.602966,113.706253 
	C185.503372,113.679901 184.763290,113.771484 183.707947,113.792328 
	C183.193451,113.803497 182.994232,113.885406 182.742371,113.838188 
	C182.524979,113.586403 182.347351,113.563431 182.241150,113.141212 
	C182.325455,109.192490 182.325455,105.742706 182.325455,101.775635 
	C175.870514,103.221840 174.805176,99.955536 175.148148,94.977028 
	C175.442352,90.706154 175.209091,86.398949 175.209091,81.897598 
	C173.204422,81.897598 171.591660,81.897598 169.817993,81.770874 
	C169.657104,81.644142 169.248322,81.617599 169.290558,81.219826 
	C169.240936,78.694389 169.149078,76.566727 169.137268,73.994781 
	C169.113892,72.375420 169.010437,71.200333 168.908051,69.623192 
	C167.134689,68.757660 165.360245,68.294182 163.384781,67.778206 
	C163.224731,65.367989 163.056396,62.833134 162.868256,59.999699 
	C160.241165,59.999699 158.120621,59.999699 156.021423,59.567497 
	C155.701492,57.484917 155.300644,55.844032 155.035721,54.181484 
	C154.772629,52.530453 154.316025,50.811066 154.542343,49.205990 
	C154.834641,47.132977 155.720734,45.143692 156.766144,43.069454 
	C159.056213,42.924675 160.931274,42.828789 163.075043,42.719162 
	C163.075043,41.028885 163.075043,39.621677 163.473297,38.094620 
	C165.639603,37.438087 167.407623,36.901398 168.791824,36.481224 
	C168.791824,30.542198 168.791824,24.988995 168.791824,19.151266 
	C166.621582,19.151266 164.820694,19.151266 162.758972,18.793941 
	C162.336624,16.719706 162.175125,15.002793 162.023697,13.393063 
	C159.831467,13.393063 158.078079,13.393063 155.910370,13.393063 
	C155.910370,15.387341 155.910370,17.146307 155.462860,18.991657 
	C151.074951,19.410723 147.134537,19.743402 143.090332,20.523300 
	C142.986542,24.584530 142.986542,28.198540 142.986542,31.722792 
	C144.613174,31.979527 145.725235,32.155045 146.884872,32.338074 
	C147.085052,34.003983 147.260483,35.463871 147.444275,37.305973 
	C150.006622,38.328590 152.560593,38.968990 155.573135,39.724377 
	C154.209976,40.963974 153.292130,41.798611 151.993378,42.537849 
	C150.579193,44.154797 149.545959,45.867134 148.206345,48.087193 
	C146.874817,48.087193 144.918488,48.087193 142.970734,47.672188 
	C142.955734,45.882298 142.932175,44.507416 142.881775,42.724133 
	C139.111664,41.820438 135.368393,41.325142 131.526306,40.615341 
	C131.427475,40.400841 131.161453,40.010521 131.267441,39.641563 
	C131.299744,38.515461 131.226059,37.758316 131.169815,36.668324 
	C130.795181,36.215698 130.403107,36.095917 129.617157,35.885742 
	C127.723953,35.787025 126.224648,35.771618 124.725334,35.771454 
	C105.899475,35.769398 87.073235,35.721893 68.248520,35.868103 
	C66.880859,35.878727 63.742359,33.989109 64.034142,38.385384 
	C63.984749,39.856384 64.022453,40.931610 63.620255,41.906925 
	C61.190430,41.807014 59.200504,41.807014 57.001259,41.807014 
	C57.001259,44.469292 57.001259,46.235092 56.570160,47.990124 
	C54.582039,47.979355 53.025009,47.979355 51.523064,47.979355 
	C51.261414,45.773552 51.076534,44.214928 50.891651,42.656303 
	C50.438541,42.908451 49.985432,43.160599 49.532322,43.412746 
	C48.282314,41.941311 47.032310,40.469879 46.005337,38.651329 
	C51.015301,38.823109 51.321262,35.467712 51.313705,32.099812 
	C52.728436,31.995836 53.856369,31.912937 55.297657,31.890945 
	C55.863831,31.286676 56.116653,30.621502 56.488117,29.604736 
	C56.576271,28.515457 56.545784,27.777775 56.623844,26.831625 
	C56.175709,26.484734 55.619030,26.346306 54.672527,26.121206 
	C53.224937,25.946556 52.167168,25.858580 51.037239,25.517839 
	C50.629452,24.864923 50.293823,24.464773 50.057671,23.693581 
	C50.191532,22.558392 50.225922,21.794243 50.605103,20.869287 
	C48.907913,19.811800 46.865929,18.915123 44.782120,17.610577 
	C45.241131,10.972698 40.965240,13.884096 38.991093,13.577731 
	C37.865715,15.895981 36.971649,17.737741 35.648952,19.455734 
	C33.478798,19.331964 31.737274,19.331964 30.042309,19.331964 
	C30.042309,25.754101 30.042309,31.477295 30.042309,37.200489 
	C30.491547,36.896561 30.940784,36.592636 31.390022,36.288708 
	C32.841999,37.844528 34.293980,39.400349 35.579037,41.168465 
	C35.964787,41.837387 36.517456,42.294018 37.525940,42.791649 
	C39.919815,42.832642 41.857872,42.832642 44.115429,42.832642 
	C44.115429,46.846355 44.115429,50.438705 43.669907,54.065338 
	C41.290596,54.099617 39.356815,54.099617 37.407257,54.099617 
	C37.083961,56.514717 36.848705,58.272144 36.622284,59.963581 
	C34.616550,60.274982 32.867840,60.546478 30.888369,60.853806 
	C30.888369,63.405895 30.888369,65.703812 30.888369,67.674759 
	C28.750412,68.548050 26.961220,69.278877 25.102524,70.420624 
	C25.021013,72.220207 25.009005,73.608864 24.551439,74.982735 
	C22.183697,75.054291 20.261515,75.140633 18.001966,75.242134 
	C18.001966,84.146675 18.001966,92.573059 17.570450,101.029114 
	C15.431340,101.058777 13.723744,101.058777 12.128107,101.058777 
	C11.708735,103.550285 11.395042,105.413948 10.662452,107.288071 
	C9.141600,107.403656 8.039643,107.508789 6.782475,107.511490 
	C6.318646,107.504654 6.226617,107.701591 6.210925,108.434982 
	C6.122974,111.914108 6.175272,114.958145 6.147021,118.249207 
	C6.117575,118.661728 6.168678,118.827232 6.145608,119.438278 
	C6.118190,122.589539 6.164945,125.295265 6.133177,128.249100 
	C6.107039,128.662613 6.159423,128.828003 6.141683,129.365784 
	C6.114848,130.492218 6.158135,131.246262 6.145521,132.279739 
	C6.392835,132.706299 6.696050,132.853424 7.410161,133.111069 
	C10.675220,132.844238 12.891810,133.263718 12.388884,137.240875 
	C12.874000,137.858673 13.459341,138.192276 14.438901,138.605408 
	C15.904104,138.729050 16.975088,138.773163 18.105659,139.285614 
	C18.165245,143.265366 18.165245,146.776779 18.165245,150.376541 
	C20.810856,150.664429 22.871532,150.888657 24.908676,151.543777 
	C24.968212,153.553268 25.051279,155.131866 25.148287,156.975433 
	C27.467890,156.975433 29.284826,156.975433 31.140202,157.398239 
	C31.245615,159.282364 31.312590,160.743683 31.390911,162.452591 
	C32.970779,162.636963 34.368038,162.800018 35.745342,162.960739 
	C36.035225,164.796860 36.279835,166.346237 36.571320,168.192535 
	C39.274189,168.192535 41.693798,168.192535 44.724804,168.192535 
	C44.724804,171.656021 44.724804,174.775848 44.327286,178.036102 
	C42.020996,178.390915 40.112232,178.605301 38.185322,178.821732 
	C37.936440,180.682144 37.711887,182.360672 37.531105,183.712036 
	C35.143642,184.221741 33.190704,184.638672 31.112133,185.480286 
	C30.990997,188.269974 30.995499,190.634979 31.000000,193.000000 
z"/>
<path fill="#1B1A53" opacity="1.000000" stroke="none" 
	d="
M150.015137,168.037903 
	C149.865799,169.827621 149.716461,171.617325 149.533218,173.813385 
	C145.449646,173.813385 141.527588,173.813385 137.348938,173.813385 
	C137.348938,175.462830 137.348938,176.682083 137.348938,178.382416 
	C141.409775,178.382416 145.334412,178.382416 149.540527,178.382416 
	C149.716614,180.413803 149.854797,182.007828 150.024902,183.970047 
	C151.842422,184.180679 153.736191,184.400162 155.999908,184.662521 
	C155.999908,186.204636 155.999908,187.663864 155.525909,189.553009 
	C153.086395,189.981445 151.120880,189.979950 149.093338,189.559845 
	C148.949036,187.728531 148.866760,186.315826 148.749054,184.294479 
	C144.903732,184.545258 141.464493,184.769577 137.756180,185.041565 
	C137.293549,185.393280 137.099960,185.697327 136.536819,186.050354 
	C134.716751,186.420471 133.266235,186.741577 131.658340,186.668579 
	C129.799957,185.756607 128.103104,184.804001 126.397316,184.787689 
	C108.107559,184.612854 89.816376,184.585938 71.413544,184.182953 
	C71.091370,182.283279 70.881248,180.719116 70.693024,179.317932 
	C68.270729,179.317932 66.246559,179.317932 64.000000,179.317932 
	C64.000000,184.149429 64.000000,188.574722 64.000000,193.000000 
	C62.285641,193.000000 60.571285,193.000000 58.367294,192.537598 
	C57.877663,187.843079 57.877663,183.610977 57.877663,178.745651 
	C53.476326,178.745651 49.721798,178.745651 45.803253,178.547333 
	C45.334419,178.197891 45.029610,178.046783 44.724800,177.895691 
	C44.724804,174.775848 44.724804,171.656021 44.724804,168.192535 
	C41.693798,168.192535 39.274189,168.192535 36.571320,168.192535 
	C36.279835,166.346237 36.035225,164.796860 35.745342,162.960739 
	C34.368038,162.800018 32.970779,162.636963 31.390911,162.452591 
	C31.312590,160.743683 31.245615,159.282364 31.311367,157.357666 
	C31.666615,156.794067 31.836420,156.636887 32.382473,156.400360 
	C34.418873,156.377991 36.026310,156.377991 37.732605,156.377991 
	C37.937412,158.544632 38.089146,160.149796 38.144852,160.739105 
	C44.787304,163.461517 50.712509,165.889984 56.945621,168.444626 
	C57.098396,169.582413 57.312538,171.177200 57.530052,172.797119 
	C64.583389,173.131012 71.341385,173.450928 78.083107,174.208740 
	C77.660629,177.866913 79.703239,177.998230 82.086372,177.988983 
	C92.824753,177.947311 103.567871,177.808762 114.299629,178.082794 
	C118.108826,178.180054 119.422623,176.836044 119.529037,173.229218 
	C123.573822,173.158478 127.165230,173.158478 130.758530,173.158478 
	C131.036514,170.901337 131.232468,169.310257 131.452438,167.524246 
	C137.740829,167.238739 143.803619,166.963470 149.899780,167.026062 
	C149.960495,167.588562 149.987808,167.813232 150.015137,168.037903 
z"/>
<path fill="#F6FBFB" opacity="1.000000" stroke="none" 
	d="
M71.525589,184.518478 
	C89.816376,184.585938 108.107559,184.612854 126.397316,184.787689 
	C128.103104,184.804001 129.799957,185.756607 131.524048,187.079346 
	C131.698090,189.589493 131.849045,191.294739 132.000000,193.000000 
	C128.307098,193.000000 124.614182,193.000000 120.352158,192.609329 
	C118.376007,191.841919 116.971863,191.151688 115.561493,191.138748 
	C105.602341,191.047379 95.640495,191.012787 85.683342,191.183456 
	C84.112305,191.210388 82.560631,192.366165 81.000000,193.000000 
	C77.969406,193.000000 74.938812,193.000000 71.457764,192.562958 
	C71.180061,189.590118 71.352829,187.054291 71.525589,184.518478 
z"/>
<path fill="#E80A9F" opacity="1.000000" stroke="none" 
	d="
M45.967270,178.745651 
	C49.721798,178.745651 53.476326,178.745651 57.877663,178.745651 
	C57.877663,183.610977 57.877663,187.843079 57.938831,192.537598 
	C53.975456,193.000000 49.950912,193.000000 45.567795,192.761414 
	C45.479843,192.077942 45.750465,191.633041 46.424011,191.124908 
	C48.185699,191.028381 49.544460,190.995087 51.223824,190.721191 
	C52.566719,184.029999 52.566719,184.029999 44.924988,183.473541 
	C45.246712,181.633972 45.606991,180.189804 45.967270,178.745651 
z"/>
<path fill="#25E782" opacity="1.000000" stroke="none" 
	d="
M71.413544,184.182953 
	C71.352829,187.054291 71.180061,189.590118 71.003647,192.562958 
	C68.958336,193.000000 66.916664,193.000000 64.437500,193.000000 
	C64.000000,188.574722 64.000000,184.149429 64.000000,179.317932 
	C66.246559,179.317932 68.270729,179.317932 70.693024,179.317932 
	C70.881248,180.719116 71.091370,182.283279 71.413544,184.182953 
z"/>
<path fill="#DD1698" opacity="1.000000" stroke="none" 
	d="
M138.025238,184.993881 
	C141.464493,184.769577 144.903732,184.545258 148.749054,184.294479 
	C148.866760,186.315826 148.949036,187.728531 149.113068,189.866486 
	C149.796555,191.394501 150.398270,192.197250 151.000000,193.000000 
	C148.629440,193.000000 146.258896,193.000000 143.392914,192.661377 
	C141.273407,189.879807 139.649323,187.436844 138.025238,184.993881 
z"/>
<path fill="#282A5C" opacity="1.000000" stroke="none" 
	d="
M81.468658,193.000000 
	C82.560631,192.366165 84.112305,191.210388 85.683342,191.183456 
	C95.640495,191.012787 105.602341,191.047379 115.561493,191.138748 
	C116.971863,191.151688 118.376007,191.841919 119.891518,192.609329 
	C107.312439,193.000000 94.624878,193.000000 81.468658,193.000000 
z"/>
<path fill="#E22CA1" opacity="1.000000" stroke="none" 
	d="
M46.021088,191.188141 
	C45.750465,191.633041 45.479843,192.077942 45.104610,192.761414 
	C43.285797,193.000000 41.571590,193.000000 39.303402,192.619263 
	C38.466629,189.838272 38.183842,187.438034 38.327152,184.962860 
	C40.753357,184.850586 42.753468,184.813217 44.782402,185.210342 
	C45.214520,187.492615 45.617805,189.340378 46.021088,191.188141 
z"/>
<path fill="#17144E" opacity="1.000000" stroke="none" 
	d="
M37.901054,185.037781 
	C38.183842,187.438034 38.466629,189.838272 38.874710,192.619263 
	C36.629444,193.000000 34.258884,193.000000 31.444164,193.000000 
	C30.995499,190.634979 30.990997,188.269974 31.427052,185.630585 
	C33.878757,185.250076 35.889904,185.143921 37.901054,185.037781 
z"/>
<path fill="#151D50" opacity="1.000000" stroke="none" 
	d="
M132.416656,193.000000 
	C131.849045,191.294739 131.698090,189.589493 131.681427,187.473450 
	C133.266235,186.741577 134.716751,186.420471 136.609985,186.483032 
	C137.035141,188.911133 137.017563,190.955566 137.000000,193.000000 
	C135.611115,193.000000 134.222214,193.000000 132.416656,193.000000 
z"/>
<path fill="#C5248A" opacity="1.000000" stroke="none" 
	d="
M137.428467,193.000000 
	C137.017563,190.955566 137.035141,188.911133 136.979538,186.434036 
	C137.099960,185.697327 137.293549,185.393280 137.756180,185.041565 
	C139.649323,187.436844 141.273407,189.879807 142.948730,192.661377 
	C141.285645,193.000000 139.571289,193.000000 137.428467,193.000000 
z"/>
<path fill="#162E54" opacity="1.000000" stroke="none" 
	d="
M151.416656,193.000000 
	C150.398270,192.197250 149.796555,191.394501 149.175110,190.285095 
	C151.120880,189.979950 153.086395,189.981445 155.474060,189.981262 
	C156.050507,190.744812 156.204803,191.510056 156.179535,192.637634 
	C154.611115,193.000000 153.222214,193.000000 151.416656,193.000000 
z"/>
<path fill="#20F180" opacity="1.000000" stroke="none" 
	d="
M169.590973,145.063370 
	C169.468323,146.474258 169.345688,147.885162 168.687607,149.730988 
	C166.356873,150.203049 164.561554,150.240158 162.808807,149.831146 
	C163.925079,144.344849 160.896591,143.745041 156.979584,143.814270 
	C156.795105,143.302185 156.594116,143.087708 156.253738,142.566254 
	C156.257263,141.128540 156.310593,140.081772 156.539581,138.868713 
	C156.611984,138.124069 156.508728,137.545715 156.354141,136.571838 
	C156.348389,135.116440 156.393936,134.056534 156.643829,132.643723 
	C156.958420,115.498306 157.068665,98.705803 157.504517,81.862267 
	C158.484650,81.826775 159.139130,81.842331 160.156708,81.967239 
	C161.245514,84.070625 161.971237,86.064659 162.757538,88.519287 
	C162.765030,98.001625 162.711975,107.023369 162.442581,116.385590 
	C162.524857,122.137138 162.823471,127.548225 163.345306,132.957825 
	C163.568527,132.956345 163.998245,132.835159 164.403656,132.910889 
	C166.182770,132.970688 167.556442,132.954742 169.007355,133.399292 
	C169.253372,137.594330 169.422165,141.328857 169.590973,145.063370 
z"/>
<path fill="#181450" opacity="1.000000" stroke="none" 
	d="
M44.115429,54.031055 
	C44.115429,50.438705 44.115429,46.846355 44.115429,42.832642 
	C41.857872,42.832642 39.919815,42.832642 37.476006,42.494499 
	C36.562157,41.756298 36.154057,41.356232 35.745956,40.956169 
	C34.293980,39.400349 32.841999,37.844528 31.390022,36.288708 
	C30.940784,36.592636 30.491547,36.896561 30.042309,37.200489 
	C30.042309,31.477295 30.042309,25.754101 30.042309,19.331964 
	C31.737274,19.331964 33.478798,19.331964 35.707611,19.526186 
	C36.194901,19.720407 36.269207,19.888084 36.314743,20.147945 
	C36.830399,20.605259 37.300514,20.802711 37.836693,21.383141 
	C37.930454,23.053078 37.958153,24.340038 37.907143,25.667179 
	C37.828430,25.707357 37.832127,25.884062 37.587753,25.886761 
	C37.343384,25.889458 36.861294,25.977341 36.620823,26.251732 
	C36.574074,28.348536 36.767796,30.170950 36.983818,31.991842 
	C37.006119,31.990322 36.998592,32.034393 37.072121,32.217567 
	C37.278206,32.636814 37.463108,32.820061 37.793873,33.352829 
	C38.923870,34.973736 39.960358,36.192310 41.105495,37.732773 
	C42.736866,38.369259 44.259586,38.683853 45.782303,38.998444 
	C47.032310,40.469879 48.282314,41.941311 49.532322,43.412746 
	C49.985432,43.160599 50.438541,42.908451 50.891651,42.656303 
	C51.076534,44.214928 51.261414,45.773552 51.523064,47.979355 
	C53.025009,47.979355 54.582039,47.979355 56.558121,47.976898 
	C56.977180,47.974442 56.949547,47.951748 57.090942,48.365044 
	C57.232338,50.372650 57.232338,51.966957 57.232338,54.005066 
	C59.836361,54.005066 61.930664,54.005066 64.088409,54.437977 
	C64.139816,56.329056 64.127769,57.787220 63.810112,59.267578 
	C62.900051,59.783142 62.295616,60.276524 61.273407,60.703979 
	C58.318050,60.690750 55.780468,60.743443 53.022976,60.476501 
	C52.221786,58.330341 51.640499,56.503811 50.973053,54.406544 
	C49.135372,54.313538 47.190346,54.215099 44.963882,54.081581 
	C44.493439,54.041355 44.304436,54.036205 44.115429,54.031055 
z"/>
<path fill="#110F49" opacity="1.000000" stroke="none" 
	d="
M64.121231,37.989605 
	C63.742359,33.989109 66.880859,35.878727 68.248520,35.868103 
	C87.073235,35.721893 105.899475,35.769398 124.725334,35.771454 
	C126.224648,35.771618 127.723953,35.787025 129.748932,36.115273 
	C130.567200,36.623848 130.859802,36.812504 131.152390,37.001167 
	C131.226059,37.758316 131.299744,38.515461 130.788055,39.642067 
	C120.266541,40.011250 110.330414,40.003826 100.394302,40.015701 
	C97.899582,40.018684 95.404922,40.083607 92.453033,40.091587 
	C86.977997,40.028225 81.960152,39.993340 76.860474,39.572155 
	C72.844955,38.801373 68.911285,38.416897 64.763512,38.021805 
	C64.549416,38.011196 64.121231,37.989605 64.121231,37.989605 
z"/>
<path fill="#1B1752" opacity="1.000000" stroke="none" 
	d="
M169.991608,145.053757 
	C169.422165,141.328857 169.253372,137.594330 169.083618,132.940674 
	C169.203430,125.719658 169.324203,119.417778 169.852753,113.133850 
	C172.188812,113.110229 174.117126,113.068642 176.016510,113.017151 
	C175.987610,113.007256 175.969208,112.948975 175.912994,113.403595 
	C175.856796,116.407776 175.856796,118.957336 175.856796,121.403656 
	C178.211716,121.869438 180.073547,122.237694 181.935379,122.605942 
	C182.049820,123.912178 182.189651,125.216782 182.274002,126.524963 
	C182.536987,130.603867 182.831024,134.724579 176.135925,133.093750 
	C176.135925,137.352173 176.135925,140.927185 176.135925,145.044144 
	C173.898376,145.044144 172.145294,145.044144 169.991608,145.053757 
z"/>
<path fill="#171550" opacity="1.000000" stroke="none" 
	d="
M6.211699,128.000992 
	C6.164945,125.295265 6.118190,122.589539 6.287072,119.345505 
	C6.548814,118.704872 6.661440,118.564812 6.628748,118.507172 
	C6.523960,118.322433 6.365388,118.168198 6.227571,118.002190 
	C6.175272,114.958145 6.122974,111.914108 6.334006,108.415100 
	C6.597338,107.960144 6.937688,107.613914 6.937688,107.613914 
	C8.039643,107.508789 9.141600,107.403656 10.770391,107.466293 
	C11.687182,107.752098 12.077136,107.870148 12.520082,108.432983 
	C12.748419,110.357201 12.923762,111.836617 13.056353,113.757950 
	C13.013598,118.431023 13.013598,122.662186 13.013598,127.222946 
	C15.250886,127.494301 17.171272,127.727219 19.065092,128.416992 
	C18.953121,131.927109 18.867716,134.980408 18.608135,138.110947 
	C18.200407,138.333588 18.071110,138.543289 18.046072,138.817276 
	C16.975088,138.773163 15.904104,138.729050 14.421959,138.352020 
	C13.503570,137.664963 12.996339,137.310837 12.489108,136.956711 
	C12.891810,133.263718 10.675220,132.844238 7.330011,132.906219 
	C6.687493,132.328110 6.474980,132.131256 6.201423,132.000290 
	C6.158135,131.246262 6.114848,130.492218 6.282256,129.271637 
	C6.399201,128.537064 6.305451,128.269028 6.211699,128.000992 
z"/>
<path fill="#120F4C" opacity="1.000000" stroke="none" 
	d="
M169.978897,81.897598 
	C171.591660,81.897598 173.204422,81.897598 175.209091,81.897598 
	C175.209091,86.398949 175.442352,90.706154 175.148148,94.977028 
	C174.805176,99.955536 175.870514,103.221840 182.325455,101.775635 
	C182.325455,105.742706 182.325455,109.192490 181.811859,113.018089 
	C179.521927,113.245598 177.745560,113.097282 175.969208,112.948975 
	C175.969208,112.948975 175.987610,113.007256 175.917145,112.608002 
	C175.699448,110.668633 175.552231,109.128517 175.366638,107.187111 
	C173.173782,107.187111 171.290314,107.187111 169.288666,106.719971 
	C169.213287,98.520378 169.256073,90.787926 169.477844,82.906494 
	C169.862183,82.507584 169.969528,82.220947 169.978897,81.897598 
z"/>
<path fill="#14114E" opacity="1.000000" stroke="none" 
	d="
M18.001966,100.999451 
	C18.001966,92.573059 18.001966,84.146675 18.001966,75.242134 
	C20.261515,75.140633 22.183697,75.054291 24.533871,74.973236 
	C24.961859,74.978531 24.937836,74.946503 25.155167,75.240097 
	C25.398685,76.015511 25.424871,76.497330 25.346724,77.435905 
	C25.258610,82.893494 25.274834,87.894333 25.175179,93.227867 
	C25.127651,94.021133 25.196001,94.481712 25.196270,95.372391 
	C25.090691,97.541656 25.053188,99.280830 24.605692,101.092796 
	C22.539473,101.155548 20.883245,101.145500 18.922901,101.082138 
	C18.413177,101.019035 18.207573,101.009247 18.001966,100.999451 
z"/>
<path fill="#1C1953" opacity="1.000000" stroke="none" 
	d="
M142.962158,48.087193 
	C144.918488,48.087193 146.874817,48.087193 148.206345,48.087193 
	C149.545959,45.867134 150.579193,44.154797 152.479065,42.677788 
	C154.347504,42.981525 155.349319,43.049938 156.351135,43.118351 
	C155.720734,45.143692 154.834641,47.132977 154.542343,49.205990 
	C154.316025,50.811066 154.772629,52.530453 155.035721,54.181484 
	C155.300644,55.844032 155.701492,57.484917 155.975861,59.795891 
	C155.908936,60.456482 156.021698,60.908413 155.599396,60.824776 
	C153.474655,60.606522 151.772202,60.471905 150.028641,60.334038 
	C149.871078,58.164948 149.744827,56.426975 149.628677,54.828003 
	C147.217606,54.152130 145.114990,53.562725 143.085709,52.723740 
	C143.132568,52.302757 143.106064,52.131348 143.207901,51.569984 
	C143.231659,50.101818 143.127075,49.023605 143.022400,47.987228 
	C143.022324,48.029060 142.962158,48.087193 142.962158,48.087193 
z"/>
<path fill="#19144F" opacity="1.000000" stroke="none" 
	d="
M147.435898,36.923759 
	C147.260483,35.463871 147.085052,34.003983 146.884872,32.338074 
	C145.725235,32.155045 144.613174,31.979527 142.986542,31.722792 
	C142.986542,28.198540 142.986542,24.584530 143.438965,20.719751 
	C147.887192,20.343939 151.882996,20.218897 155.925827,20.517675 
	C155.861526,22.324329 155.750183,23.707165 155.644867,25.015356 
	C153.409485,25.225063 151.784805,25.377480 149.807739,25.562956 
	C149.807739,27.631830 149.807739,29.510773 149.807739,31.531841 
	C152.048721,31.801634 153.961319,32.031891 156.191635,32.300400 
	C156.191635,34.018734 156.191635,35.492012 155.744812,36.972088 
	C152.677292,36.960510 150.056595,36.942135 147.435898,36.923759 
z"/>
<path fill="#1E1B55" opacity="1.000000" stroke="none" 
	d="
M43.669907,54.065338 
	C44.304436,54.036205 44.493439,54.041355 44.873569,54.495773 
	C46.070816,60.509865 42.669235,61.592239 38.205696,61.229927 
	C38.033741,63.882477 37.888245,66.126869 37.770824,67.938118 
	C35.176407,68.727341 33.083588,69.363983 30.574268,69.993805 
	C28.495855,69.994560 26.833941,70.002129 25.172028,70.009705 
	C26.961220,69.278877 28.750412,68.548050 30.888369,67.674759 
	C30.888369,65.703812 30.888369,63.405895 30.888369,60.853806 
	C32.867840,60.546478 34.616550,60.274982 36.622284,59.963581 
	C36.848705,58.272144 37.083961,56.514717 37.407257,54.099617 
	C39.356815,54.099617 41.290596,54.099617 43.669907,54.065338 
z"/>
<path fill="#17154F" opacity="1.000000" stroke="none" 
	d="
M163.019806,19.151266 
	C164.820694,19.151266 166.621582,19.151266 168.791824,19.151266 
	C168.791824,24.988995 168.791824,30.542198 168.791824,36.481224 
	C167.407623,36.901398 165.639603,37.438087 163.355743,37.831238 
	C162.533127,37.459946 162.226334,37.232201 162.032501,36.632698 
	C162.217575,35.489788 162.289719,34.718628 162.509140,33.761269 
	C162.797729,33.262436 162.789856,32.953514 162.663391,32.208271 
	C162.783020,27.539700 162.872040,23.311174 162.987167,19.089668 
	C163.013275,19.096689 163.019806,19.151266 163.019806,19.151266 
z"/>
<path fill="#282D5E" opacity="1.000000" stroke="none" 
	d="
M150.459290,168.034698 
	C149.987808,167.813232 149.960495,167.588562 149.862061,166.924805 
	C149.790939,166.485687 149.891785,166.293716 149.923080,165.857269 
	C149.931030,164.837448 149.907684,164.254044 149.820450,163.388702 
	C149.813919,162.728714 149.871262,162.350693 150.358810,161.950592 
	C152.351273,161.928543 153.913513,161.928543 155.772873,161.928543 
	C155.772873,159.890152 155.772873,158.460037 156.099365,156.767487 
	C158.442551,156.350647 160.459259,156.196274 162.881897,156.020630 
	C165.199265,155.997864 167.110733,155.996338 169.022186,155.994843 
	C167.320969,156.897202 165.619736,157.799545 163.098602,159.136795 
	C163.055389,159.377380 162.806198,160.764664 162.490189,162.523956 
	C160.684570,162.704605 158.787827,162.894379 156.634979,163.109772 
	C156.386261,164.600067 156.129776,166.136978 155.813599,168.031494 
	C154.107941,168.031494 152.505692,168.031494 150.459290,168.034698 
z"/>
<path fill="#EB0AA1" opacity="1.000000" stroke="none" 
	d="
M49.958195,24.064621 
	C50.293823,24.464773 50.629452,24.864923 50.965416,25.919394 
	C50.607311,28.038298 50.248875,29.502884 49.754242,31.000044 
	C49.440105,31.095062 49.280704,31.188974 48.732861,31.435698 
	C47.195168,31.644983 46.064461,31.732925 44.737095,31.708904 
	C42.023949,31.394588 39.507458,31.192234 36.889530,30.600624 
	C36.857735,29.144238 36.927376,28.077110 37.209595,26.883087 
	C37.691879,26.528034 37.828529,26.237322 37.832127,25.884062 
	C37.832127,25.884062 37.828430,25.707357 38.325092,25.725594 
	C41.232372,25.194275 43.642990,24.644720 46.442513,24.048119 
	C47.873680,24.022257 48.915936,24.043440 49.958195,24.064621 
z"/>
<path fill="#2E275E" opacity="1.000000" stroke="none" 
	d="
M18.105659,139.285614 
	C18.071110,138.543289 18.200407,138.333588 18.846048,138.198502 
	C19.543684,138.386093 19.829231,138.563400 20.171082,138.944504 
	C20.514725,139.012207 20.802065,138.876099 21.351410,138.612579 
	C21.995634,138.500244 22.377853,138.515335 22.930782,138.841507 
	C23.715927,139.449463 24.330360,139.746338 25.003408,140.486328 
	C25.019051,143.609482 24.976078,146.289505 24.780239,149.073929 
	C24.747602,149.450562 24.867832,149.722778 24.995794,149.998154 
	C25.003527,150.001297 24.998489,150.022430 24.987190,150.295364 
	C24.961330,150.749832 24.946770,150.931351 24.932207,151.112885 
	C22.871532,150.888657 20.810856,150.664429 18.165245,150.376541 
	C18.165245,146.776779 18.165245,143.265366 18.105659,139.285614 
z"/>
<path fill="#373769" opacity="1.000000" stroke="none" 
	d="
M156.021698,60.908413 
	C156.021698,60.908413 155.908936,60.456482 155.954498,60.228088 
	C158.120621,59.999699 160.241165,59.999699 162.868256,59.999699 
	C163.056396,62.833134 163.224731,65.367989 163.384781,67.778206 
	C165.360245,68.294182 167.134689,68.757660 168.503448,69.665298 
	C166.472061,70.087173 164.846313,70.064865 163.019104,69.698265 
	C160.806961,69.353973 158.796295,69.353973 156.021698,69.353973 
	C156.021698,66.647217 156.021698,63.777813 156.021698,60.908413 
z"/>
<path fill="#191848" opacity="1.000000" stroke="none" 
	d="
M92.910233,40.120064 
	C95.404922,40.083607 97.899582,40.018684 100.394302,40.015701 
	C110.330414,40.003826 120.266541,40.011250 130.682068,40.011024 
	C131.161453,40.010521 131.427475,40.400841 131.336685,40.916142 
	C131.179550,41.659004 131.113205,41.886566 130.683868,42.004951 
	C128.537216,41.959160 126.753517,42.022545 124.511177,41.992676 
	C113.708885,41.829655 103.365242,41.759892 93.016197,41.426880 
	C92.977280,40.815781 92.943756,40.467922 92.910233,40.120064 
z"/>
<path fill="#1B1451" opacity="1.000000" stroke="none" 
	d="
M44.933754,31.820869 
	C46.064461,31.732925 47.195168,31.644983 48.886810,31.515217 
	C49.687523,31.385584 49.835087,31.216944 49.890434,30.967470 
	C50.248875,29.502884 50.607311,28.038298 51.037575,26.172157 
	C52.167168,25.858580 53.224937,25.946556 54.777996,26.322069 
	C55.687294,26.753101 56.101295,26.896597 56.515301,27.040091 
	C56.545784,27.777775 56.576271,28.515457 56.243141,29.678001 
	C55.581116,30.678589 55.282711,31.254313 54.984303,31.830036 
	C53.856369,31.912937 52.728436,31.995836 51.313705,32.099812 
	C51.321262,35.467712 51.015301,38.823109 46.005337,38.651329 
	C44.259586,38.683853 42.736866,38.369259 41.435749,37.637577 
	C42.107201,37.137360 42.557056,37.054230 43.253235,37.014259 
	C43.653904,36.994385 43.808247,36.931351 44.294582,36.678070 
	C44.728966,34.932167 44.831360,33.376518 44.933754,31.820869 
z"/>
<path fill="#3D3469" opacity="1.000000" stroke="none" 
	d="
M161.919540,37.004452 
	C162.226334,37.232201 162.533127,37.459946 162.957489,37.951080 
	C163.075043,39.621677 163.075043,41.028885 163.075043,42.719162 
	C160.931274,42.828789 159.056213,42.924675 156.766144,43.069454 
	C155.349319,43.049938 154.347504,42.981525 152.859985,42.773178 
	C153.292130,41.798611 154.209976,40.963974 155.573135,39.724377 
	C152.560593,38.968990 150.006622,38.328590 147.444275,37.305973 
	C150.056595,36.942135 152.677292,36.960510 156.152100,37.001637 
	C158.643982,37.017742 160.281769,37.011097 161.919540,37.004452 
z"/>
<path fill="#E50E97" opacity="1.000000" stroke="none" 
	d="
M175.912994,113.403595 
	C177.745560,113.097282 179.521927,113.245598 181.727570,113.517029 
	C182.347351,113.563431 182.524979,113.586403 182.856354,114.079086 
	C183.072205,114.619888 183.121460,114.790665 183.106873,115.391823 
	C183.074081,117.561501 183.105118,119.300789 183.027252,121.248352 
	C182.918335,121.456635 182.709076,121.877556 182.709076,121.877556 
	C182.626266,122.117477 182.479660,122.308441 182.102325,122.528198 
	C180.073547,122.237694 178.211716,121.869438 175.856796,121.403656 
	C175.856796,118.957336 175.856796,116.407776 175.912994,113.403595 
z"/>
<path fill="#15124E" opacity="1.000000" stroke="none" 
	d="
M142.908615,43.132530 
	C142.932175,44.507416 142.955734,45.882298 142.970734,47.672188 
	C142.962158,48.087193 143.022324,48.029060 142.666809,48.008194 
	C140.719772,48.088890 139.128235,48.190449 137.262177,48.239716 
	C136.802444,48.207821 136.617249,48.228214 136.194855,48.142742 
	C135.626465,48.107300 135.295273,48.177727 134.585297,48.202538 
	C133.203339,48.031288 132.200150,47.905655 131.225433,47.821159 
	C131.253922,47.862301 131.271423,47.763771 131.365051,47.406754 
	C131.411346,45.829361 131.364029,44.608986 131.738403,43.258770 
	C135.742935,43.130131 139.325775,43.131329 142.908615,43.132530 
z"/>
<path fill="#341E59" opacity="1.000000" stroke="none" 
	d="
M38.327152,184.962860 
	C35.889904,185.143921 33.878757,185.250076 31.552689,185.205917 
	C33.190704,184.638672 35.143642,184.221741 37.531105,183.712036 
	C37.711887,182.360672 37.936440,180.682144 38.185322,178.821732 
	C40.112232,178.605301 42.020996,178.390915 44.327282,178.036102 
	C45.029610,178.046783 45.334419,178.197891 45.803253,178.547333 
	C45.606991,180.189804 45.246712,181.633972 44.808731,183.690643 
	C44.731033,184.303146 44.765388,184.792068 44.769508,184.799377 
	C44.773632,184.806686 44.753574,184.775833 44.753574,184.775833 
	C42.753468,184.813217 40.753357,184.850586 38.327152,184.962860 
z"/>
<path fill="#232646" opacity="1.000000" stroke="none" 
	d="
M92.453033,40.091587 
	C92.943756,40.467922 92.977280,40.815781 92.556648,41.521393 
	C87.412361,41.947590 82.722221,42.016029 77.572372,41.994076 
	C72.725258,41.923584 68.337868,41.943489 63.984077,41.958641 
	C64.017677,41.953888 64.060150,42.006836 64.060150,42.006836 
	C64.022453,40.931610 63.984749,39.856384 64.034142,38.385384 
	C64.121231,37.989605 64.549416,38.011196 64.863190,38.410534 
	C69.098755,39.192734 73.020531,39.575596 76.942314,39.958458 
	C81.960152,39.993340 86.977997,40.028225 92.453033,40.091587 
z"/>
<path fill="#3CDF96" opacity="1.000000" stroke="none" 
	d="
M162.696976,88.058693 
	C161.971237,86.064659 161.245514,84.070625 160.491913,81.792358 
	C164.592422,80.686150 162.059525,77.190857 163.425903,75.141319 
	C165.563995,74.932579 167.310608,74.685822 169.057205,74.439064 
	C169.149078,76.566727 169.240936,78.694389 169.273254,81.332329 
	C169.213699,81.842606 169.061905,82.003868 168.638184,81.998459 
	C166.807205,82.037979 165.399948,82.082916 163.650665,82.315613 
	C163.104752,84.355141 162.900864,86.206917 162.696976,88.058693 
z"/>
<path fill="#1E2E59" opacity="1.000000" stroke="none" 
	d="
M24.908676,151.543777 
	C24.946770,150.931351 24.961330,150.749832 25.420431,150.345367 
	C27.765545,150.233276 29.666119,150.344116 31.652063,150.459930 
	C31.771542,152.823288 31.862526,154.623016 31.953510,156.422745 
	C31.836420,156.636887 31.666615,156.794067 31.272926,156.934860 
	C29.284826,156.975433 27.467890,156.975433 25.148287,156.975433 
	C25.051279,155.131866 24.968212,153.553268 24.908676,151.543777 
z"/>
<path fill="#100C49" opacity="1.000000" stroke="none" 
	d="
M36.269207,19.888084 
	C36.269207,19.888084 36.194901,19.720407 36.136238,19.649956 
	C36.971649,17.737741 37.865715,15.895981 38.991093,13.577731 
	C40.965240,13.884096 45.241131,10.972698 44.541443,17.704201 
	C44.191078,18.688643 44.039551,19.171591 43.451805,19.668634 
	C41.272041,19.767813 39.528496,19.852898 37.530502,19.934010 
	C36.940437,19.916054 36.604824,19.902069 36.269207,19.888084 
z"/>
<path fill="#2C285C" opacity="1.000000" stroke="none" 
	d="
M17.570450,101.029114 
	C18.207573,101.009247 18.413177,101.019035 18.832222,101.500900 
	C18.946941,103.552559 18.848221,105.132133 18.751202,106.684464 
	C16.473501,107.156998 14.470296,107.572594 12.467091,107.988190 
	C12.077136,107.870148 11.687182,107.752098 11.189289,107.455841 
	C11.395042,105.413948 11.708735,103.550285 12.128107,101.058777 
	C13.723744,101.058777 15.431340,101.058777 17.570450,101.029114 
z"/>
<path fill="#132451" opacity="1.000000" stroke="none" 
	d="
M169.151077,155.589905 
	C167.110733,155.996338 165.199265,155.997864 162.853912,155.609650 
	C162.495911,153.572601 162.571808,151.925308 162.677338,150.279739 
	C162.707001,150.281479 162.766251,150.277267 162.766251,150.277267 
	C164.561554,150.240158 166.356873,150.203049 168.601746,150.149841 
	C169.127533,151.817505 169.203751,153.501236 169.151077,155.589905 
z"/>
<path fill="#181550" opacity="1.000000" stroke="none" 
	d="
M56.989220,47.987667 
	C57.001259,46.235092 57.001259,44.469292 57.001259,41.807014 
	C59.200504,41.807014 61.190430,41.807014 63.620255,41.906925 
	C64.060150,42.006836 64.017677,41.953888 64.019424,42.407845 
	C64.021164,44.578011 64.021164,46.294220 64.021164,47.951748 
	C61.189255,47.951748 59.069401,47.951748 56.949547,47.951748 
	C56.949547,47.951748 56.977180,47.974442 56.989220,47.987667 
z"/>
<path fill="#3A3768" opacity="1.000000" stroke="none" 
	d="
M155.910370,18.905272 
	C155.910370,17.146307 155.910370,15.387341 155.910370,13.393063 
	C158.078079,13.393063 159.831467,13.393063 162.023697,13.393063 
	C162.175125,15.002793 162.336624,16.719706 162.758972,18.793941 
	C163.019806,19.151266 163.013275,19.096689 162.577438,19.213505 
	C160.192398,19.330978 158.243195,19.331635 156.198242,19.225395 
	C156.102493,19.118496 155.910370,18.905272 155.910370,18.905272 
z"/>
<path fill="#15124E" opacity="1.000000" stroke="none" 
	d="
M183.136169,121.040077 
	C183.105118,119.300789 183.074081,117.561501 183.304489,115.257858 
	C183.786636,114.454285 183.939056,114.177467 184.023224,113.863060 
	C184.763290,113.771484 185.503372,113.679901 186.703613,113.945557 
	C187.415833,114.531563 187.667877,114.760323 187.919937,114.989082 
	C187.949799,116.715279 187.979645,118.441483 187.753220,120.693016 
	C187.266510,121.399567 187.105392,121.629372 187.013596,121.907784 
	C186.250824,121.963852 185.488037,122.019920 184.257446,121.797302 
	C183.623398,121.288666 183.405563,121.129150 183.136169,121.040077 
z"/>
<path fill="#130F4C" opacity="1.000000" stroke="none" 
	d="
M25.102524,70.420624 
	C26.833941,70.002129 28.495855,69.994560 30.645702,70.409264 
	C31.098711,72.234230 31.063786,73.636917 30.685268,75.109573 
	C29.885759,75.268509 29.429842,75.357475 28.568508,75.361130 
	C27.088005,75.166046 26.012920,75.056274 24.937836,74.946503 
	C24.937836,74.946503 24.961859,74.978531 24.979427,74.988022 
	C25.009005,73.608864 25.021013,72.220207 25.102524,70.420624 
z"/>
<path fill="#15104E" opacity="1.000000" stroke="none" 
	d="
M169.137268,73.994781 
	C167.310608,74.685822 165.563995,74.932579 163.370392,74.716309 
	C163.022446,72.849709 163.121506,71.446136 163.220581,70.042557 
	C164.846313,70.064865 166.472061,70.087173 168.502380,70.067368 
	C169.010437,71.200333 169.113892,72.375420 169.137268,73.994781 
z"/>
<path fill="#3A3768" opacity="1.000000" stroke="none" 
	d="
M155.878784,20.093857 
	C151.882996,20.218897 147.887192,20.343939 143.542770,20.272530 
	C147.134537,19.743402 151.074951,19.410723 155.462860,18.991657 
	C155.910370,18.905272 156.102493,19.118496 156.120758,19.429119 
	C156.139038,19.739740 155.878784,20.093857 155.878784,20.093857 
z"/>
<path fill="#AEBAC6" opacity="1.000000" stroke="none" 
	d="
M142.881775,42.724129 
	C139.325775,43.131329 135.742935,43.130131 131.621841,43.065361 
	C130.974457,42.709904 130.962204,42.414017 131.046844,42.114128 
	C131.113205,41.886566 131.179550,41.659004 131.435516,41.130646 
	C135.368393,41.325142 139.111664,41.820438 142.881775,42.724129 
z"/>
<path fill="#646389" opacity="1.000000" stroke="none" 
	d="
M43.888023,19.654541 
	C44.039551,19.171591 44.191078,18.688643 44.583275,18.112068 
	C46.865929,18.915123 48.907913,19.811800 50.153854,20.861116 
	C48.158558,21.013910 46.959297,21.014067 45.457230,20.983318 
	C44.732288,20.519789 44.310158,20.087164 43.888023,19.654541 
z"/>
<path fill="#16124E" opacity="1.000000" stroke="none" 
	d="
M45.760040,21.014223 
	C46.959297,21.014067 48.158558,21.013910 49.809059,21.021925 
	C50.225922,21.794243 50.191532,22.558392 50.057671,23.693581 
	C48.915936,24.043440 47.873680,24.022257 46.341045,23.672504 
	C45.820461,22.567366 45.790253,21.790794 45.760040,21.014223 
z"/>
<path fill="#28255D" opacity="1.000000" stroke="none" 
	d="
M56.623844,26.831625 
	C56.101295,26.896597 55.687294,26.753101 55.167820,26.408743 
	C55.619030,26.346306 56.175709,26.484734 56.623844,26.831625 
z"/>
<path fill="#28255D" opacity="1.000000" stroke="none" 
	d="
M55.297657,31.890944 
	C55.282711,31.254313 55.581116,30.678589 56.124496,30.029596 
	C56.116653,30.621502 55.863831,31.286676 55.297657,31.890944 
z"/>
<path fill="#474774" opacity="1.000000" stroke="none" 
	d="
M35.579037,41.168465 
	C36.154057,41.356232 36.562157,41.756298 37.020191,42.453506 
	C36.517456,42.294018 35.964787,41.837387 35.579037,41.168465 
z"/>
<path fill="#2E275E" opacity="1.000000" stroke="none" 
	d="
M12.388884,137.240875 
	C12.996339,137.310837 13.503570,137.664963 14.027740,138.272491 
	C13.459341,138.192276 12.874000,137.858673 12.388884,137.240875 
z"/>
<path fill="#383B6C" opacity="1.000000" stroke="none" 
	d="
M169.817993,81.770874 
	C169.969528,82.220947 169.862183,82.507584 169.364044,82.655884 
	C169.068130,82.370789 169.065018,82.187325 169.061905,82.003868 
	C169.061905,82.003868 169.213699,81.842606 169.231018,81.730103 
	C169.248322,81.617599 169.657104,81.644142 169.817993,81.770874 
z"/>
<path fill="#191848" opacity="1.000000" stroke="none" 
	d="
M131.169815,36.668320 
	C130.859802,36.812504 130.567200,36.623848 130.142822,36.205666 
	C130.403107,36.095917 130.795181,36.215698 131.169815,36.668320 
z"/>
<path fill="#2C285C" opacity="1.000000" stroke="none" 
	d="
M6.782475,107.511490 
	C6.937688,107.613914 6.597338,107.960144 6.474256,107.980026 
	C6.226617,107.701591 6.318646,107.504654 6.782475,107.511490 
z"/>
<path fill="#080946" opacity="1.000000" stroke="none" 
	d="
M183.707947,113.792328 
	C183.939056,114.177467 183.786636,114.454285 183.368317,114.827469 
	C183.121460,114.790665 183.072205,114.619888 182.908981,114.208221 
	C182.994232,113.885406 183.193451,113.803497 183.707947,113.792328 
z"/>
<path fill="#080946" opacity="1.000000" stroke="none" 
	d="
M187.989441,114.651489 
	C187.667877,114.760323 187.415833,114.531563 187.063126,114.063492 
	C187.327972,113.987419 187.693451,114.150665 187.989441,114.651489 
z"/>
<path fill="#2C285C" opacity="1.000000" stroke="none" 
	d="
M6.147021,118.249207 
	C6.365388,118.168198 6.523960,118.322433 6.628748,118.507172 
	C6.661440,118.564812 6.548814,118.704872 6.361245,118.899979 
	C6.168678,118.827232 6.117575,118.661728 6.147021,118.249207 
z"/>
<path fill="#080946" opacity="1.000000" stroke="none" 
	d="
M183.027252,121.248352 
	C183.405563,121.129150 183.623398,121.288666 183.885132,121.700348 
	C183.768875,121.923172 183.557144,121.964256 183.027237,121.941444 
	C182.709076,121.877556 182.918335,121.456635 183.027252,121.248352 
z"/>
<path fill="#080946" opacity="1.000000" stroke="none" 
	d="
M187.292740,121.949623 
	C187.105392,121.629372 187.266510,121.399567 187.685547,121.119530 
	C187.773407,121.344292 187.672638,121.667877 187.292740,121.949623 
z"/>
<path fill="#2C285C" opacity="1.000000" stroke="none" 
	d="
M6.133178,128.249100 
	C6.305451,128.269028 6.399201,128.537064 6.352379,128.899231 
	C6.159423,128.828003 6.107039,128.662613 6.133178,128.249100 
z"/>
<path fill="#2C285C" opacity="1.000000" stroke="none" 
	d="
M6.145521,132.279739 
	C6.474980,132.131256 6.687493,132.328110 6.919114,132.795700 
	C6.696050,132.853424 6.392835,132.706299 6.145521,132.279739 
z"/>
<path fill="#23EE81" opacity="1.000000" stroke="none" 
	d="
M32.382477,156.400360 
	C31.862526,154.623016 31.771542,152.823288 31.652063,150.459930 
	C29.666119,150.344116 27.765545,150.233276 25.431730,150.072433 
	C24.998489,150.022430 25.003527,150.001297 25.024273,149.739563 
	C25.007715,149.308395 24.970411,149.138962 24.933105,148.969528 
	C24.976078,146.289505 25.019051,143.609482 25.069262,140.281036 
	C25.076500,139.632599 25.083279,139.202423 25.322216,139.068542 
	C25.709642,138.828232 25.858133,138.721817 26.445950,138.671600 
	C29.122282,138.727798 31.359291,138.727798 33.752869,138.727798 
	C33.945755,136.476974 34.096096,134.722641 34.672272,132.953156 
	C37.531612,132.598480 38.307568,133.759888 38.196823,136.069489 
	C38.064854,138.821854 38.165733,141.585388 38.165733,144.537872 
	C40.913097,144.708206 43.029007,144.839386 45.076168,145.403900 
	C45.095493,147.215591 45.183567,148.593964 45.290222,150.263092 
	C47.534050,150.085587 49.277565,149.947662 51.053482,150.256165 
	C50.059963,156.461670 53.314121,157.518265 57.949497,157.441605 
	C57.298580,161.167542 58.647457,162.447906 61.948399,162.068024 
	C63.754448,161.860153 65.603432,162.026352 67.433052,162.022202 
	C94.879585,161.959793 122.326126,161.897095 149.808868,161.872162 
	C149.845062,161.909866 149.928619,161.972656 149.928619,161.972656 
	C149.871262,162.350693 149.813919,162.728714 149.691162,163.638367 
	C149.714432,164.877884 149.803101,165.585800 149.891785,166.293716 
	C149.891785,166.293716 149.790939,166.485687 149.828674,166.586945 
	C143.803619,166.963470 137.740829,167.238739 131.452438,167.524246 
	C131.232468,169.310257 131.036514,170.901337 130.758530,173.158478 
	C127.165230,173.158478 123.573822,173.158478 119.102325,173.181793 
	C104.847946,173.393677 91.473656,173.582245 78.099373,173.770844 
	C71.341385,173.450928 64.583389,173.131012 57.530052,172.797119 
	C57.312538,171.177200 57.098396,169.582413 56.945621,168.444626 
	C50.712509,165.889984 44.787304,163.461517 38.144852,160.739105 
	C38.089146,160.149796 37.937412,158.544632 37.732605,156.377991 
	C36.026310,156.377991 34.418873,156.377991 32.382477,156.400360 
z"/>
<path fill="#1A4561" opacity="1.000000" stroke="none" 
	d="
M78.083107,174.208740 
	C91.473656,173.582245 104.847946,173.393677 118.648941,173.252518 
	C119.422623,176.836044 118.108826,178.180054 114.299629,178.082794 
	C103.567871,177.808762 92.824753,177.947311 82.086372,177.988983 
	C79.703239,177.998230 77.660629,177.866913 78.083107,174.208740 
z"/>
<path fill="#FCF5F7" opacity="1.000000" stroke="none" 
	d="
M46.424011,191.124908 
	C45.617805,189.340378 45.214520,187.492615 44.782402,185.210342 
	C44.753574,184.775833 44.773632,184.806686 45.232883,184.748825 
	C47.427616,184.690964 49.163097,184.690964 50.903225,184.690964 
	C50.903225,187.337189 50.903225,189.149490 50.903225,190.961792 
	C49.544460,190.995087 48.185699,191.028381 46.424011,191.124908 
z"/>
<path fill="#E22CA1" opacity="1.000000" stroke="none" 
	d="
M51.223824,190.721191 
	C50.903225,189.149490 50.903225,187.337189 50.903225,184.690964 
	C49.163097,184.690964 47.427616,184.690964 45.228760,184.741516 
	C44.765388,184.792068 44.731033,184.303146 44.847290,184.086060 
	C52.566719,184.029999 52.566719,184.029999 51.223824,190.721191 
z"/>
<path fill="#010220" opacity="1.000000" stroke="none" 
	d="
M156.363922,139.035019 
	C156.310593,140.081772 156.257263,141.128540 156.123840,142.820038 
	C155.976471,143.642456 155.909180,143.820160 155.422104,144.003082 
	C149.715683,143.053757 149.585983,146.299652 150.058975,150.045288 
	C150.038940,150.037842 150.035156,150.080429 149.694702,150.050537 
	C148.898041,150.022446 148.441803,150.024277 147.517883,150.020020 
	C121.107773,150.010788 95.165329,149.990555 69.223045,150.042877 
	C67.483330,150.046387 65.744728,150.598999 63.584526,150.932388 
	C61.474987,150.962906 59.786526,150.957245 58.011238,150.716339 
	C57.652000,150.303024 57.379593,150.124969 57.067451,149.520874 
	C56.929070,147.748932 56.830418,146.403046 56.728951,145.018753 
	C54.820107,145.018753 53.393066,145.018753 51.789024,144.575653 
	C51.512646,136.841614 51.413269,129.550674 51.444511,121.796425 
	C51.492184,117.811546 51.409233,114.289986 51.465252,110.338242 
	C51.604218,100.535576 51.604218,91.163101 51.604218,81.921394 
	C54.093838,81.512009 55.698120,81.248199 57.441441,80.961533 
	C57.616928,79.001060 57.776520,77.218132 57.989265,74.841393 
	C60.329353,74.841393 62.655678,74.571693 64.895462,74.897308 
	C69.616257,75.583595 71.736031,73.864944 71.318199,69.043648 
	C71.564674,69.048309 72.053474,69.112816 72.135803,69.252045 
	C72.218132,69.391281 72.644348,69.466301 72.644348,69.466301 
	C72.644348,69.466301 72.952484,69.115723 73.298859,69.082756 
	C74.107910,69.075333 74.570580,69.100868 75.349472,69.390518 
	C77.477119,69.769264 79.288445,69.981567 81.099991,69.983597 
	C101.702438,70.006668 122.304924,69.997620 142.974731,70.416550 
	C142.381836,77.162239 147.288055,74.303162 149.987610,75.026962 
	C149.969727,74.998077 149.916794,75.040710 149.858887,75.478104 
	C149.740891,82.121155 149.740891,82.121155 156.114471,81.877884 
	C155.999420,81.994202 156.234116,81.766884 156.197540,82.251266 
	C156.253784,99.489319 156.346634,116.242981 156.439484,132.996643 
	C156.393936,134.056534 156.348389,135.116440 156.236252,136.908051 
	C156.234421,138.104858 156.299179,138.569946 156.363922,139.035019 
M124.421646,94.207062 
	C123.964966,94.814438 123.118217,95.417007 123.110680,96.029907 
	C123.013519,103.926460 122.979286,111.825485 123.119354,119.720512 
	C123.132797,120.477943 124.419960,121.212776 126.037178,121.925888 
	C131.607071,121.925888 137.176971,121.925888 142.822296,121.925888 
	C142.822296,114.534325 142.822296,107.699959 142.822296,100.902161 
	C141.048065,100.722504 139.577545,100.573608 138.373047,99.796921 
	C138.936264,99.524826 139.565323,99.337677 140.048889,98.962845 
	C141.032562,98.200363 141.937653,97.336548 142.875137,96.514496 
	C141.797623,95.704491 140.813614,94.677086 139.610336,94.159447 
	C138.781555,93.802925 137.648941,94.152664 135.782394,94.204552 
	C132.269470,94.164284 128.756546,94.124008 124.421646,94.207062 
M80.502167,121.907852 
	C83.904984,121.907852 87.307800,121.907852 90.710968,121.907852 
	C90.710968,114.580872 90.710968,107.987411 90.710968,100.978279 
	C85.143272,102.191475 83.019981,99.656006 83.886314,94.457039 
	C79.392456,94.457039 75.323029,94.457039 71.226883,94.457039 
	C71.226883,103.745773 71.226883,112.748009 71.226883,121.907951 
	C74.241096,121.907951 76.881233,121.907951 80.502167,121.907852 
M97.363998,135.859604 
	C97.363998,137.465988 97.363998,139.072357 97.363998,140.922379 
	C103.267372,140.922379 108.983902,140.922379 114.732819,140.922379 
	C114.732819,138.925537 114.732819,137.206696 114.732819,135.306793 
	C108.980820,135.306793 103.530708,135.306793 97.363998,135.859604 
z"/>
<path fill="#BCDBD9" opacity="1.000000" stroke="none" 
	d="
M163.019104,69.698265 
	C163.121506,71.446136 163.022446,72.849709 162.978897,74.678299 
	C162.059525,77.190857 164.592422,80.686150 160.128815,81.683014 
	C159.139130,81.842331 158.484650,81.826775 157.278046,81.759125 
	C156.725952,81.707031 156.234116,81.766884 156.234116,81.766884 
	C156.234116,81.766884 155.999420,81.994202 156.080627,81.449387 
	C156.028229,79.029602 155.894623,77.154633 155.744003,75.040710 
	C153.476700,75.040710 151.696747,75.040710 149.916794,75.040710 
	C149.916794,75.040710 149.969727,74.998077 149.969482,74.586227 
	C149.873398,72.261185 149.777588,70.347984 149.682449,68.448425 
	C147.162735,68.229904 145.189011,68.058739 143.176743,67.458511 
	C143.044373,65.431557 142.950562,63.833656 142.853561,62.181507 
	C140.957001,62.021214 139.481415,61.896500 138.003738,61.586102 
	C138.001663,61.400417 137.995789,61.029076 138.423599,61.014641 
	C141.998672,61.410286 143.454880,60.159946 143.054031,56.882580 
	C142.896790,55.597027 143.017975,54.277416 143.012360,52.973316 
	C145.114990,53.562725 147.217606,54.152130 149.628677,54.828003 
	C149.744827,56.426975 149.871078,58.164948 150.028641,60.334038 
	C151.772202,60.471905 153.474655,60.606522 155.599396,60.824776 
	C156.021698,63.777813 156.021698,66.647217 156.021698,69.353973 
	C158.796295,69.353973 160.806961,69.353973 163.019104,69.698265 
z"/>
<path fill="#C1DFDB" opacity="1.000000" stroke="none" 
	d="
M168.638184,81.998459 
	C169.065018,82.187325 169.068130,82.370789 169.185059,82.804863 
	C169.256073,90.787926 169.213287,98.520378 169.203918,107.131195 
	C169.306549,109.711662 169.375763,111.413773 169.444977,113.115891 
	C169.324203,119.417778 169.203430,125.719658 169.006393,132.480164 
	C167.556442,132.954742 166.182770,132.970688 164.403687,132.454498 
	C163.996414,115.324196 163.994553,98.726021 163.992676,82.127853 
	C165.399948,82.082916 166.807205,82.037979 168.638184,81.998459 
z"/>
<path fill="#C5E1EA" opacity="1.000000" stroke="none" 
	d="
M163.650665,82.315613 
	C163.994553,98.726021 163.996414,115.324196 163.998260,132.378754 
	C163.998245,132.835159 163.568527,132.956345 163.286987,132.496094 
	C162.889938,126.705612 162.774429,121.375359 162.658920,116.045113 
	C162.711975,107.023369 162.765030,98.001625 162.757538,88.519287 
	C162.900864,86.206917 163.104752,84.355141 163.650665,82.315613 
z"/>
<path fill="#1BAD70" opacity="1.000000" stroke="none" 
	d="
M156.197540,82.251266 
	C156.234116,81.766884 156.725952,81.707031 156.952423,81.810165 
	C157.068665,98.705803 156.958420,115.498306 156.643829,132.643723 
	C156.346634,116.242981 156.253784,99.489319 156.197540,82.251266 
z"/>
<path fill="#B5DAD7" opacity="1.000000" stroke="none" 
	d="
M162.808807,149.831146 
	C162.766251,150.277267 162.707001,150.281479 162.191757,150.266266 
	C159.781693,150.210556 157.886871,150.170074 156.062134,149.678833 
	C156.201523,147.726578 156.270813,146.225067 156.511780,144.690521 
	C156.883423,144.514404 157.013580,144.323624 157.076660,144.067505 
	C157.079407,144.049850 157.052658,144.027893 157.052658,144.027893 
	C160.896591,143.745041 163.925079,144.344849 162.808807,149.831146 
z"/>
<path fill="#3CDF96" opacity="1.000000" stroke="none" 
	d="
M162.442581,116.385590 
	C162.774429,121.375359 162.889938,126.705612 163.063766,132.497589 
	C162.823471,127.548225 162.524857,122.137138 162.442581,116.385590 
z"/>
<path fill="#1BAD70" opacity="1.000000" stroke="none" 
	d="
M156.539581,138.868713 
	C156.299179,138.569946 156.234421,138.104858 156.287567,137.303574 
	C156.508728,137.545715 156.611984,138.124069 156.539581,138.868713 
z"/>
<path fill="#1BAD70" opacity="1.000000" stroke="none" 
	d="
M155.841888,143.997864 
	C155.909180,143.820160 155.976471,143.642456 156.173645,143.210999 
	C156.594116,143.087708 156.795105,143.302185 156.979584,143.814270 
	C157.052658,144.027893 157.079407,144.049850 156.881683,144.030762 
	C156.683945,144.011658 156.290604,143.962311 156.179306,143.982239 
	C156.068008,144.002167 155.841888,143.997864 155.841888,143.997864 
z"/>
<path fill="#FEFEFE" opacity="1.000000" stroke="none" 
	d="
M78.032089,42.084469 
	C82.722221,42.016029 87.412361,41.947590 92.562042,41.784637 
	C103.365242,41.759892 113.708885,41.829655 124.501633,42.422474 
	C125.063896,44.526882 125.177055,46.108234 125.295525,47.763771 
	C127.662483,47.763771 129.466949,47.763771 131.271423,47.763771 
	C131.271423,47.763771 131.253922,47.862301 131.157806,48.269562 
	C131.761383,53.225029 129.607056,54.302708 125.366066,54.105278 
	C118.220009,53.772617 111.047211,54.010220 103.885666,54.015316 
	C97.089920,54.020149 97.089920,54.024292 96.514793,60.970497 
	C93.563614,61.000404 91.075790,60.929123 88.594688,61.027382 
	C82.714325,61.260250 76.837151,61.573559 70.948425,61.891037 
	C70.938164,61.927723 70.863350,61.913269 70.444778,61.901901 
	C68.346008,61.898067 66.665817,61.905609 64.908859,61.731079 
	C64.690979,61.317104 64.498543,61.141384 64.263382,60.721966 
	C64.219894,60.029854 64.167809,59.637619 64.115730,59.245388 
	C64.127769,57.787220 64.139816,56.329056 64.526543,54.468529 
	C66.794670,53.951492 68.688103,53.836815 70.409462,53.732559 
	C70.846550,51.528080 71.155998,49.967350 71.478844,48.339046 
	C73.655281,48.088997 75.565948,47.869484 78.032089,47.586147 
	C78.032089,45.619541 78.032089,43.852005 78.032089,42.084469 
z"/>
<path fill="#BBD2D4" opacity="1.000000" stroke="none" 
	d="
M31.028860,75.039604 
	C31.063786,73.636917 31.098711,72.234230 31.062201,70.416084 
	C33.083588,69.363983 35.176407,68.727341 37.770824,67.938118 
	C37.888245,66.126869 38.033741,63.882477 38.205696,61.229927 
	C42.669235,61.592239 46.070816,60.509865 45.155006,54.530853 
	C47.190346,54.215099 49.135372,54.313538 50.973053,54.406544 
	C51.640499,56.503811 52.221786,58.330341 52.645378,60.639412 
	C51.987484,63.731487 51.487286,66.341019 50.554573,68.928116 
	C44.800468,67.873917 44.504997,71.101433 44.541527,74.970581 
	C42.080711,74.991440 40.054245,75.020111 37.598511,75.031609 
	C35.208298,75.148148 33.247345,75.281845 31.213745,75.327217 
	C31.141098,75.238892 31.028860,75.039604 31.028860,75.039604 
z"/>
<path fill="#C0D9D9" opacity="1.000000" stroke="none" 
	d="
M77.572372,41.994076 
	C78.032089,43.852005 78.032089,45.619541 78.032089,47.586147 
	C75.565948,47.869484 73.655281,48.088997 71.478844,48.339046 
	C71.155998,49.967350 70.846550,51.528080 70.409462,53.732559 
	C68.688103,53.836815 66.794670,53.951492 64.463097,54.035618 
	C61.930664,54.005066 59.836361,54.005066 57.232338,54.005066 
	C57.232338,51.966957 57.232338,50.372650 57.090942,48.365044 
	C59.069401,47.951748 61.189255,47.951748 64.021164,47.951748 
	C64.021164,46.294220 64.021164,44.578011 63.985817,42.412598 
	C68.337868,41.943489 72.725258,41.923584 77.572372,41.994076 
z"/>
<path fill="#F5F9F8" opacity="1.000000" stroke="none" 
	d="
M50.987087,68.950554 
	C51.487286,66.341019 51.987484,63.731487 52.865280,60.959045 
	C55.780468,60.743443 58.318050,60.690750 61.686081,60.836365 
	C63.095951,61.030399 63.675369,61.026123 64.254791,61.021847 
	C64.498543,61.141384 64.690979,61.317104 64.911896,62.170223 
	C64.997910,64.532639 65.004135,66.273849 64.586609,68.092384 
	C60.662983,68.337402 56.701416,67.343445 54.644890,71.971207 
	C53.586636,72.738365 52.806335,73.376404 51.744686,73.762009 
	C51.304588,71.989906 51.145836,70.470230 50.987087,68.950554 
z"/>
<path fill="#EBE0E8" opacity="1.000000" stroke="none" 
	d="
M45.457230,20.983318 
	C45.790253,21.790794 45.820461,22.567366 45.952141,23.719551 
	C43.642990,24.644720 41.232372,25.194275 38.403801,25.685413 
	C37.958153,24.340038 37.930454,23.053078 37.909401,21.118542 
	C37.872353,20.293306 37.828651,20.115644 37.784954,19.937983 
	C39.528496,19.852898 41.272041,19.767813 43.451805,19.668634 
	C44.310158,20.087164 44.732288,20.519789 45.457230,20.983318 
z"/>
<path fill="#DD0C96" opacity="1.000000" stroke="none" 
	d="
M44.737099,31.708904 
	C44.831360,33.376518 44.728966,34.932167 44.193222,36.538895 
	C43.508888,36.717014 43.257900,36.844059 43.006908,36.971100 
	C42.557056,37.054230 42.107201,37.137360 41.327095,37.315685 
	C39.960358,36.192310 38.923870,34.973736 37.806931,33.130692 
	C37.557507,32.235348 37.314880,32.078072 36.998592,32.034393 
	C36.998592,32.034393 37.006119,31.990322 36.958755,31.740131 
	C36.937916,31.323254 36.964443,31.156567 36.990967,30.989882 
	C39.507458,31.192234 42.023949,31.394588 44.737099,31.708904 
z"/>
<path fill="#1B1451" opacity="1.000000" stroke="none" 
	d="
M36.889530,30.600624 
	C36.964443,31.156567 36.937916,31.323254 36.936455,31.741650 
	C36.767796,30.170950 36.574074,28.348536 36.611290,26.515532 
	C36.893826,26.673286 36.945423,26.841633 36.997017,27.009981 
	C36.927376,28.077110 36.857735,29.144238 36.889530,30.600624 
z"/>
<path fill="#BBD2D4" opacity="1.000000" stroke="none" 
	d="
M64.263382,60.721966 
	C63.675369,61.026123 63.095951,61.030399 62.103851,60.902290 
	C62.295616,60.276524 62.900051,59.783142 63.810112,59.267578 
	C64.167809,59.637619 64.219894,60.029854 64.263382,60.721966 
z"/>
<path fill="#1B1451" opacity="1.000000" stroke="none" 
	d="
M37.530502,19.934010 
	C37.828651,20.115644 37.872353,20.293306 37.843338,20.735565 
	C37.300514,20.802711 36.830399,20.605259 36.314743,20.147945 
	C36.604824,19.902069 36.940437,19.916054 37.530502,19.934010 
z"/>
<path fill="#1B1451" opacity="1.000000" stroke="none" 
	d="
M37.072121,32.217567 
	C37.314880,32.078072 37.557507,32.235348 37.713417,32.728355 
	C37.463108,32.820061 37.278206,32.636814 37.072121,32.217567 
z"/>
<path fill="#DD0C96" opacity="1.000000" stroke="none" 
	d="
M37.209595,26.883087 
	C36.945423,26.841633 36.893826,26.673286 36.851761,26.241140 
	C36.861294,25.977341 37.343384,25.889458 37.587753,25.886761 
	C37.828529,26.237322 37.691879,26.528034 37.209595,26.883087 
z"/>
<path fill="#191848" opacity="1.000000" stroke="none" 
	d="
M76.860474,39.572155 
	C73.020531,39.575596 69.098755,39.192734 65.077286,38.421143 
	C68.911285,38.416897 72.844955,38.801373 76.860474,39.572155 
z"/>
<path fill="#D31299" opacity="1.000000" stroke="none" 
	d="
M169.852753,113.133850 
	C169.375763,111.413773 169.306549,109.711662 169.322083,107.598328 
	C171.290314,107.187111 173.173782,107.187111 175.366638,107.187111 
	C175.552231,109.128517 175.699448,110.668633 175.946045,112.617905 
	C174.117126,113.068642 172.188812,113.110229 169.852753,113.133850 
z"/>
<path fill="#E608A0" opacity="1.000000" stroke="none" 
	d="
M12.520082,108.432983 
	C14.470296,107.572594 16.473501,107.156998 18.751202,106.684464 
	C18.848221,105.132133 18.946941,103.552559 19.136341,101.554214 
	C20.883245,101.145500 22.539473,101.155548 24.599632,101.071701 
	C25.003569,100.977798 24.959452,100.986862 24.995705,101.418015 
	C25.227493,103.460770 25.423029,105.072380 25.635082,106.820129 
	C27.773687,107.077644 29.683758,107.307648 31.542538,107.531471 
	C31.542538,114.183075 31.542538,120.528244 31.542538,126.810410 
	C29.165632,127.196426 27.241470,127.508919 25.206064,127.839478 
	C25.206064,131.118484 25.206064,134.091507 25.124538,137.289185 
	C25.043013,137.513855 24.988092,137.988708 24.714890,138.080963 
	C23.881149,138.292267 23.320610,138.411346 22.760073,138.530426 
	C22.377853,138.515335 21.995634,138.500244 21.107498,138.574463 
	C20.601582,138.663788 20.114779,138.740707 20.114780,138.740707 
	C19.829231,138.563400 19.543684,138.386093 19.020222,138.121246 
	C18.867716,134.980408 18.953121,131.927109 19.394064,128.149490 
	C19.749603,122.757927 19.749603,118.090683 19.749603,113.316040 
	C17.334896,113.316040 15.217001,113.316040 13.099106,113.316040 
	C12.923762,111.836617 12.748419,110.357201 12.520082,108.432983 
z"/>
<path fill="#24E581" opacity="1.000000" stroke="none" 
	d="
M13.056353,113.757950 
	C15.217001,113.316040 17.334896,113.316040 19.749603,113.316040 
	C19.749603,118.090683 19.749603,122.757927 19.420631,127.692657 
	C17.171272,127.727219 15.250886,127.494301 13.013598,127.222946 
	C13.013598,122.662186 13.013598,118.431023 13.056353,113.757950 
z"/>
<path fill="#BEDFDB" opacity="1.000000" stroke="none" 
	d="
M45.144917,144.970581 
	C43.029007,144.839386 40.913097,144.708206 38.165733,144.537872 
	C38.165733,141.585388 38.064854,138.821854 38.196823,136.069489 
	C38.307568,133.759888 37.531612,132.598480 34.593536,132.490982 
	C34.080387,122.778992 34.020649,113.513580 34.102711,104.249413 
	C34.120991,102.185783 33.996376,100.610947 31.367378,100.321503 
	C31.390160,97.065826 31.718775,94.022377 27.175207,94.030838 
	C26.673180,93.517784 26.355194,93.258995 25.852524,92.960762 
	C25.667843,92.921318 25.291056,92.895172 25.291056,92.895172 
	C25.274834,87.894333 25.258610,82.893494 25.662025,77.434448 
	C27.045750,76.466309 28.009838,75.956375 28.973927,75.446449 
	C29.429842,75.357475 29.885759,75.268509 30.685268,75.109573 
	C31.028860,75.039604 31.141098,75.238892 31.118578,75.746735 
	C31.065285,78.222198 31.010706,80.189781 31.008064,82.157440 
	C30.999025,88.891266 31.005983,88.891273 37.949059,89.477631 
	C36.956715,96.182503 41.350182,94.985023 44.982094,95.400330 
	C45.045994,111.873680 45.045994,127.877693 45.045994,143.994476 
	C47.435078,144.107010 49.082233,144.184601 50.789543,144.467072 
	C50.849697,144.671967 51.107552,145.010757 51.009148,145.010742 
	C50.910744,145.010727 50.714325,144.998306 50.315605,145.006500 
	C48.326229,144.999985 46.735573,144.985275 45.144917,144.970581 
z"/>
<path fill="#21E67F" opacity="1.000000" stroke="none" 
	d="
M27.359249,94.285103 
	C31.718775,94.022377 31.390160,97.065826 30.904545,100.408432 
	C28.637840,100.927849 26.798647,100.957359 24.959452,100.986862 
	C24.959452,100.986862 25.003569,100.977798 25.009628,100.998901 
	C25.053188,99.280830 25.090691,97.541656 25.403969,95.317291 
	C25.679749,94.832092 26.055468,94.621536 26.269127,94.669647 
	C26.812542,94.724701 27.044500,94.577599 27.223396,94.287216 
	C27.268131,94.297989 27.359249,94.285103 27.359249,94.285103 
z"/>
<path fill="#CFEAE3" opacity="1.000000" stroke="none" 
	d="
M28.568508,75.361130 
	C28.009838,75.956375 27.045750,76.466309 25.766361,76.977699 
	C25.424871,76.497330 25.398685,76.015511 25.155167,75.240097 
	C26.012920,75.056274 27.088005,75.166046 28.568508,75.361130 
z"/>
<path fill="#8E9DB6" opacity="1.000000" stroke="none" 
	d="
M26.055468,94.621536 
	C26.055468,94.621536 25.679749,94.832092 25.472050,94.887192 
	C25.196001,94.481712 25.127651,94.021133 25.175179,93.227867 
	C25.291056,92.895172 25.667843,92.921318 25.850389,93.204300 
	C26.032936,93.487289 26.144318,93.961594 26.114952,94.125618 
	C26.085588,94.289642 26.055468,94.621536 26.055468,94.621536 
z"/>
<path fill="#EAECE5" opacity="1.000000" stroke="none" 
	d="
M96.981209,60.946365 
	C97.089920,54.024292 97.089920,54.020149 103.885666,54.015316 
	C111.047211,54.010220 118.220009,53.772617 125.366066,54.105278 
	C129.607056,54.302708 131.761383,53.225029 131.129303,48.228424 
	C132.200150,47.905655 133.203339,48.031288 134.813095,48.365837 
	C135.757111,48.466042 136.094574,48.357327 136.432037,48.248611 
	C136.617249,48.228214 136.802444,48.207821 137.154221,48.686707 
	C137.724304,50.727177 138.127808,52.268364 138.531311,53.809555 
	C140.047379,53.193020 141.563461,52.576481 143.079544,51.959938 
	C143.106064,52.131348 143.132568,52.302757 143.085709,52.723740 
	C143.017975,54.277416 142.896790,55.597027 143.054031,56.882580 
	C143.454880,60.159946 141.998672,61.410286 137.955475,61.003834 
	C123.700096,60.987099 110.340652,60.966732 96.981209,60.946365 
z"/>
<path fill="#AEBAC6" opacity="1.000000" stroke="none" 
	d="
M143.207901,51.569984 
	C141.563461,52.576481 140.047379,53.193020 138.531311,53.809555 
	C138.127808,52.268364 137.724304,50.727177 137.428772,48.738998 
	C139.128235,48.190449 140.719772,48.088890 142.666885,47.966362 
	C143.127075,49.023605 143.231659,50.101818 143.207901,51.569984 
z"/>
<path fill="#DC0899" opacity="1.000000" stroke="none" 
	d="
M155.925827,20.517677 
	C155.878784,20.093857 156.139038,19.739740 156.216522,19.536016 
	C158.243195,19.331635 160.192398,19.330978 162.551331,19.206486 
	C162.872040,23.311174 162.783020,27.539700 162.517975,32.396599 
	C162.190552,33.335873 162.197174,33.643372 162.361847,33.947464 
	C162.289719,34.718628 162.217575,35.489788 162.032501,36.632698 
	C160.281769,37.011097 158.643982,37.017742 156.598923,36.994839 
	C156.191635,35.492012 156.191635,34.018734 156.191635,32.300400 
	C153.961319,32.031891 152.048721,31.801634 149.807739,31.531841 
	C149.807739,29.510773 149.807739,27.631830 149.807739,25.562956 
	C151.784805,25.377480 153.409485,25.225063 155.644867,25.015356 
	C155.750183,23.707165 155.861526,22.324329 155.925827,20.517677 
z"/>
<path fill="#3D3469" opacity="1.000000" stroke="none" 
	d="
M162.509125,33.761269 
	C162.197174,33.643372 162.190552,33.335873 162.487366,32.836639 
	C162.789856,32.953514 162.797729,33.262436 162.509125,33.761269 
z"/>
<path fill="#42D990" opacity="1.000000" stroke="none" 
	d="
M155.992050,150.129593 
	C157.886871,150.170074 159.781693,150.210556 162.162109,150.264526 
	C162.571808,151.925308 162.495911,153.572601 162.447998,155.630890 
	C160.459259,156.196274 158.442551,156.350647 155.814697,156.723022 
	C154.790237,156.366730 154.376938,155.792465 154.347260,155.143219 
	C156.319122,151.874649 156.257339,151.824234 150.538177,151.744232 
	C150.206284,151.120773 150.120728,150.600601 150.035156,150.080429 
	C150.035156,150.080429 150.038940,150.037842 150.482010,150.058197 
	C152.614075,150.095581 154.303055,150.112579 155.992050,150.129593 
z"/>
<path fill="#24E582" opacity="1.000000" stroke="none" 
	d="
M153.963623,155.218201 
	C154.376938,155.792465 154.790237,156.366730 155.488220,156.985458 
	C155.772873,158.460037 155.772873,159.890152 155.772873,161.928543 
	C153.913513,161.928543 152.351273,161.928543 150.358826,161.950592 
	C149.928619,161.972656 149.845062,161.909866 149.833527,161.476044 
	C149.804443,159.720459 149.786911,158.398697 150.067596,156.925293 
	C150.568314,156.159134 150.770828,155.544617 150.990204,154.962311 
	C151.007080,154.994537 150.943466,155.029800 151.323730,155.007767 
	C152.457214,155.063217 153.210419,155.140717 153.963623,155.218201 
z"/>
<path fill="#26345E" opacity="1.000000" stroke="none" 
	d="
M149.923080,165.857269 
	C149.803101,165.585800 149.714432,164.877884 149.755051,163.920319 
	C149.907684,164.254044 149.931030,164.837448 149.923080,165.857269 
z"/>
<path fill="#DD0C96" opacity="1.000000" stroke="none" 
	d="
M49.754242,31.000044 
	C49.835087,31.216944 49.687523,31.385584 49.293793,31.393871 
	C49.280704,31.188974 49.440105,31.095062 49.754242,31.000044 
z"/>
<path fill="#1E2E59" opacity="1.000000" stroke="none" 
	d="
M22.930782,138.841507 
	C23.320610,138.411346 23.881149,138.292267 24.731171,138.384918 
	C25.041529,138.798569 25.062403,139.000504 25.083279,139.202423 
	C25.083279,139.202423 25.076500,139.632599 25.010647,139.837906 
	C24.330360,139.746338 23.715927,139.449463 22.930782,138.841507 
z"/>
<path fill="#1E2E59" opacity="1.000000" stroke="none" 
	d="
M24.780239,149.073929 
	C24.970411,149.138962 25.007715,149.308395 25.016541,149.736420 
	C24.867832,149.722778 24.747602,149.450562 24.780239,149.073929 
z"/>
<path fill="#1E2E59" opacity="1.000000" stroke="none" 
	d="
M20.171082,138.944504 
	C20.114779,138.740707 20.601582,138.663788 20.845493,138.701904 
	C20.802065,138.876099 20.514725,139.012207 20.171082,138.944504 
z"/>
<path fill="#C2E1DD" opacity="1.000000" stroke="none" 
	d="
M131.365051,47.406754 
	C129.466949,47.763771 127.662483,47.763771 125.295525,47.763771 
	C125.177055,46.108234 125.063896,44.526882 124.960281,42.515724 
	C126.753517,42.022545 128.537216,41.959160 130.683868,42.004951 
	C130.962204,42.414017 130.974457,42.709904 131.200134,43.195198 
	C131.364029,44.608986 131.411346,45.829361 131.365051,47.406754 
z"/>
<path fill="#EB0AA1" opacity="1.000000" stroke="none" 
	d="
M43.253235,37.014259 
	C43.257900,36.844059 43.508888,36.717014 43.861237,36.729145 
	C43.808247,36.931351 43.653904,36.994385 43.253235,37.014259 
z"/>
<path fill="#AEBAC6" opacity="1.000000" stroke="none" 
	d="
M136.194855,48.142738 
	C136.094574,48.357327 135.757111,48.466042 135.191864,48.411457 
	C135.295273,48.177727 135.626465,48.107300 136.194855,48.142738 
z"/>
<path fill="#C5E1DF" opacity="1.000000" stroke="none" 
	d="
M149.769379,157.076935 
	C149.786911,158.398697 149.804443,159.720459 149.797318,161.438354 
	C122.326126,161.897095 94.879585,161.959793 67.433052,162.022202 
	C65.603432,162.026352 63.754448,161.860153 61.948399,162.068024 
	C58.647457,162.447906 57.298580,161.167542 57.972183,157.300293 
	C58.048458,156.715851 57.969631,156.440704 58.390434,156.389526 
	C60.217163,156.386932 61.623093,156.435532 63.171658,156.615158 
	C63.541912,156.886902 63.789532,156.958710 64.050690,156.985153 
	C64.044212,157.008713 64.002899,157.034897 64.190208,157.272156 
	C65.256325,157.371521 66.135132,157.233643 67.054962,156.912079 
	C67.095985,156.728378 67.123055,156.352905 67.582306,156.317764 
	C71.039772,156.276245 74.037994,156.272217 77.036201,156.263138 
	C100.681335,156.191498 124.326469,156.118912 147.877884,156.100250 
	C147.784164,156.153870 147.849335,156.359726 147.856323,156.554962 
	C147.863297,156.750198 147.995819,157.117767 148.080399,157.255112 
	C148.164978,157.392456 148.578262,157.514435 148.578262,157.514435 
	C148.578262,157.514435 148.911499,157.202606 149.125702,157.169403 
	C149.339920,157.136200 149.769379,157.076935 149.769379,157.076935 
z"/>
<path fill="#1A1250" opacity="1.000000" stroke="none" 
	d="
M24.995705,101.418015 
	C26.798647,100.957359 28.637840,100.927849 30.939869,100.811417 
	C33.996376,100.610947 34.120991,102.185783 34.102711,104.249413 
	C34.020649,113.513580 34.080387,122.778992 34.167702,132.506134 
	C34.096096,134.722641 33.945755,136.476974 33.752869,138.727798 
	C31.359291,138.727798 29.122282,138.727798 26.426962,138.442017 
	C25.714455,137.792328 25.460260,137.428436 25.206064,137.064529 
	C25.206064,134.091507 25.206064,131.118484 25.206064,127.839478 
	C27.241470,127.508919 29.165632,127.196426 31.542538,126.810410 
	C31.542538,120.528244 31.542538,114.183075 31.542538,107.531471 
	C29.683758,107.307648 27.773687,107.077644 25.635082,106.820129 
	C25.423029,105.072380 25.227493,103.460770 24.995705,101.418015 
z"/>
<path fill="#A1E3D3" opacity="1.000000" stroke="none" 
	d="
M57.969631,156.440704 
	C57.969631,156.440704 58.048458,156.715851 58.025772,156.857147 
	C53.314121,157.518265 50.059963,156.461670 51.020996,149.940918 
	C50.990791,148.756973 51.025482,148.334702 51.275803,148.231247 
	C53.363350,149.015686 55.235264,149.481323 57.107182,149.946930 
	C57.379593,150.124969 57.652000,150.303024 57.950798,151.163757 
	C57.974670,153.377853 57.972149,154.909271 57.969631,156.440704 
z"/>
<path fill="#CAE1E4" opacity="1.000000" stroke="none" 
	d="
M51.060173,147.912430 
	C51.025482,148.334702 50.990791,148.756973 50.988594,149.494476 
	C49.277565,149.947662 47.534050,150.085587 45.290222,150.263092 
	C45.183567,148.593964 45.095493,147.215591 45.076168,145.403900 
	C46.735573,144.985275 48.326229,144.999985 50.469757,145.346222 
	C51.035145,146.422653 51.047657,147.167542 51.060173,147.912430 
z"/>
<path fill="#2E275E" opacity="1.000000" stroke="none" 
	d="
M25.124538,137.289185 
	C25.460260,137.428436 25.714455,137.792328 25.987637,138.385803 
	C25.858133,138.721817 25.709642,138.828232 25.322216,139.068542 
	C25.062403,139.000504 25.041529,138.798569 25.004372,138.292679 
	C24.988092,137.988708 25.043013,137.513855 25.124538,137.289185 
z"/>
<path fill="#F8F9F9" opacity="1.000000" stroke="none" 
	d="
M80.011772,121.907898 
	C76.881233,121.907951 74.241096,121.907951 71.226883,121.907951 
	C71.226883,112.748009 71.226883,103.745773 71.226883,94.457039 
	C75.323029,94.457039 79.392456,94.457039 83.886314,94.457039 
	C83.019981,99.656006 85.143272,102.191475 90.710968,100.978279 
	C90.710968,107.987411 90.710968,114.580872 90.710968,121.907852 
	C87.307800,121.907852 83.904984,121.907852 80.011772,121.907898 
z"/>
<path fill="#101E44" opacity="1.000000" stroke="none" 
	d="
M147.971603,156.046631 
	C124.326469,156.118912 100.681335,156.191498 77.036201,156.263138 
	C74.037994,156.272217 71.039772,156.276245 67.302299,156.178009 
	C66.365295,156.007019 66.167557,155.940643 65.892754,155.732132 
	C65.513786,155.365814 65.260483,155.430267 64.848030,155.822998 
	C64.640282,155.862640 64.218445,155.831345 64.199677,155.419952 
	C64.122482,153.637787 64.064049,152.266998 64.005608,150.896225 
	C65.744728,150.598999 67.483330,150.046387 69.223045,150.042877 
	C95.165329,149.990555 121.107773,150.010788 147.524994,150.448410 
	C147.990433,152.604141 147.981018,154.325394 147.971603,156.046631 
z"/>
<path fill="#FAFBFB" opacity="1.000000" stroke="none" 
	d="
M138.107025,100.424713 
	C139.577545,100.573608 141.048065,100.722504 142.822296,100.902161 
	C142.822296,107.699959 142.822296,114.534325 142.822296,121.925888 
	C137.176971,121.925888 131.607071,121.925888 125.473862,121.485870 
	C125.021568,112.058487 125.132591,103.071114 125.243614,94.083740 
	C128.756546,94.124008 132.269470,94.164284 136.291504,94.590454 
	C137.236084,96.792480 137.671555,98.608597 138.107025,100.424713 
z"/>
<path fill="#22E681" opacity="1.000000" stroke="none" 
	d="
M50.729385,144.262177 
	C49.082233,144.184601 47.435078,144.107010 45.045994,143.994476 
	C45.045994,127.877693 45.045994,111.873680 45.078995,94.954330 
	C45.108513,90.099388 45.105026,86.159790 45.490299,82.088356 
	C47.488724,81.836685 49.098392,81.716843 50.780632,82.085991 
	C51.010899,91.972794 51.168594,101.370605 51.326286,110.768425 
	C51.409233,114.289986 51.492184,117.811546 51.319668,122.157883 
	C50.952599,130.075836 50.840992,137.169006 50.729385,144.262177 
z"/>
<path fill="#000015" opacity="1.000000" stroke="none" 
	d="
M142.907394,69.997154 
	C122.304924,69.997620 101.702438,70.006668 81.099991,69.983597 
	C79.288445,69.981567 77.477119,69.769264 75.393143,69.208893 
	C75.120598,68.763153 75.129555,68.391190 75.587227,68.358116 
	C81.698654,68.234444 87.352402,68.143845 93.225769,68.151581 
	C93.445381,68.249916 93.916878,68.346298 94.227631,68.549881 
	C96.719788,68.625832 98.901184,68.498199 101.535751,68.341629 
	C105.632271,68.333008 109.275620,68.353317 113.242973,68.575882 
	C116.071648,68.642357 118.576332,68.506569 121.542778,68.341614 
	C128.331909,68.220184 134.659271,68.127914 141.235001,68.105392 
	C141.647476,68.123627 141.811569,68.072121 141.887558,68.089722 
	C141.799454,68.158829 141.901398,68.358215 142.046600,68.525002 
	C142.438797,68.867607 142.713226,68.969765 143.047455,69.254372 
	C143.022339,69.672714 142.964874,69.834930 142.907394,69.997154 
z"/>
<path fill="#EDEFF0" opacity="1.000000" stroke="none" 
	d="
M97.722298,135.583191 
	C103.530708,135.306793 108.980820,135.306793 114.732819,135.306793 
	C114.732819,137.206696 114.732819,138.925537 114.732819,140.922379 
	C108.983902,140.922379 103.267372,140.922379 97.363998,140.922379 
	C97.363998,139.072357 97.363998,137.465988 97.722298,135.583191 
z"/>
<path fill="#24D687" opacity="1.000000" stroke="none" 
	d="
M51.465256,110.338242 
	C51.168594,101.370605 51.010899,91.972794 50.874840,81.909119 
	C51.058899,81.017723 51.274158,80.868332 51.935059,80.742035 
	C53.508392,79.649811 54.688919,78.610649 55.869446,77.571487 
	C54.504772,77.032295 53.140095,76.493095 51.744541,75.686539 
	C51.718807,75.239822 51.723946,75.060471 51.840126,74.677063 
	C51.951168,74.473007 52.026035,74.014442 52.026035,74.014442 
	C52.806335,73.376404 53.586636,72.738365 54.930374,72.287148 
	C59.738255,72.703377 63.982697,72.932777 68.097885,73.155197 
	C68.833923,71.207047 69.351929,69.835983 70.144630,68.321030 
	C70.616745,68.115761 70.814163,68.054390 70.999481,68.256073 
	C71.015488,68.692406 71.043602,68.865692 71.071724,69.038986 
	C71.736031,73.864944 69.616257,75.583595 64.895462,74.897308 
	C62.655678,74.571693 60.329353,74.841393 57.989265,74.841393 
	C57.776520,77.218132 57.616928,79.001060 57.441441,80.961533 
	C55.698120,81.248199 54.093838,81.512009 51.604218,81.921394 
	C51.604218,91.163101 51.604218,100.535576 51.465256,110.338242 
z"/>
<path fill="#000010" opacity="1.000000" stroke="none" 
	d="
M124.832626,94.145401 
	C125.132591,103.071114 125.021568,112.058487 125.013184,121.501984 
	C124.419960,121.212776 123.132797,120.477943 123.119354,119.720512 
	C122.979286,111.825485 123.013519,103.926460 123.110680,96.029907 
	C123.118217,95.417007 123.964966,94.814438 124.832626,94.145401 
z"/>
<path fill="#27DD84" opacity="1.000000" stroke="none" 
	d="
M142.974731,70.416550 
	C142.964874,69.834930 143.022339,69.672714 143.093674,69.011383 
	C143.107544,68.512283 142.954468,68.042046 143.017395,67.999573 
	C143.080322,67.957108 143.215302,67.887573 143.215302,67.887573 
	C145.189011,68.058739 147.162735,68.229904 149.682449,68.448425 
	C149.777588,70.347984 149.873398,72.261185 149.987366,74.615112 
	C147.288055,74.303162 142.381836,77.162239 142.974731,70.416550 
z"/>
<path fill="#1BAD70" opacity="1.000000" stroke="none" 
	d="
M149.858887,75.478104 
	C151.696747,75.040710 153.476700,75.040710 155.744003,75.040710 
	C155.894623,77.154633 156.028229,79.029602 156.195679,81.333069 
	C149.740891,82.121155 149.740891,82.121155 149.858887,75.478104 
z"/>
<path fill="#0E193C" opacity="1.000000" stroke="none" 
	d="
M156.062134,149.678833 
	C154.303055,150.112579 152.614075,150.095581 150.502045,150.065659 
	C149.585983,146.299652 149.715683,143.053757 155.422104,144.003082 
	C155.841888,143.997864 156.068008,144.002167 156.135437,144.176300 
	C156.202866,144.350433 156.340103,144.723572 156.340103,144.723572 
	C156.270813,146.225067 156.201523,147.726578 156.062134,149.678833 
z"/>
<path fill="#252B45" opacity="1.000000" stroke="none" 
	d="
M138.240036,100.110817 
	C137.671555,98.608597 137.236084,96.792480 136.726379,94.581558 
	C137.648941,94.152664 138.781555,93.802925 139.610336,94.159447 
	C140.813614,94.677086 141.797623,95.704491 142.875137,96.514496 
	C141.937653,97.336548 141.032562,98.200363 140.048889,98.962845 
	C139.565323,99.337677 138.936264,99.524826 138.240036,100.110817 
z"/>
<path fill="#1FF180" opacity="1.000000" stroke="none" 
	d="
M63.584526,150.932388 
	C64.064049,152.266998 64.122482,153.637787 64.085770,155.508820 
	C63.990623,156.009079 63.831608,156.248856 63.614380,156.251114 
	C63.397156,156.253372 63.029022,156.484131 63.029022,156.484131 
	C61.623093,156.435532 60.217163,156.386932 58.390434,156.389526 
	C57.972149,154.909271 57.974670,153.377853 58.037628,151.399002 
	C59.786526,150.957245 61.474987,150.962906 63.584526,150.932388 
z"/>
<path fill="#27F186" opacity="1.000000" stroke="none" 
	d="
M51.275803,148.231247 
	C51.047657,147.167542 51.035145,146.422653 50.868477,145.338043 
	C50.714325,144.998306 50.910744,145.010727 51.223625,145.032349 
	C51.536510,145.053970 51.966026,145.018753 51.966026,145.018753 
	C53.393066,145.018753 54.820107,145.018753 56.728951,145.018753 
	C56.830418,146.403046 56.929070,147.748932 57.067451,149.520874 
	C55.235264,149.481323 53.363350,149.015686 51.275803,148.231247 
z"/>
<path fill="#24D687" opacity="1.000000" stroke="none" 
	d="
M51.789024,144.575653 
	C51.966026,145.018753 51.536510,145.053970 51.322029,145.032364 
	C51.107552,145.010757 50.849697,144.671967 50.789539,144.467072 
	C50.840992,137.169006 50.952599,130.075836 51.189049,122.621201 
	C51.413269,129.550674 51.512646,136.841614 51.789024,144.575653 
z"/>
<path fill="#061537" opacity="1.000000" stroke="none" 
	d="
M147.877884,156.100250 
	C147.981018,154.325394 147.990433,152.604141 147.992706,150.454498 
	C148.441803,150.024277 148.898041,150.022446 149.694702,150.050537 
	C150.120728,150.600601 150.206284,151.120773 150.627014,152.137375 
	C150.955933,153.432465 150.949707,154.231140 150.943466,155.029800 
	C150.943466,155.029800 151.007080,154.994537 150.670013,155.104858 
	C149.505066,155.596695 148.677200,155.978210 147.849335,156.359726 
	C147.849335,156.359726 147.784164,156.153870 147.877884,156.100250 
z"/>
<path fill="#0C534A" opacity="1.000000" stroke="none" 
	d="
M71.318199,69.043648 
	C71.043602,68.865692 71.015488,68.692406 70.996170,68.250084 
	C71.004967,67.981041 71.020821,67.974098 71.435432,67.985909 
	C72.943214,68.128876 74.036385,68.260033 75.129555,68.391190 
	C75.129555,68.391190 75.120598,68.763153 75.076927,68.944778 
	C74.570580,69.100868 74.107910,69.075333 73.074402,69.056145 
	C72.503578,69.062500 72.053474,69.112816 72.053474,69.112816 
	C72.053474,69.112816 71.564674,69.048309 71.318199,69.043648 
z"/>
<path fill="#000015" opacity="1.000000" stroke="none" 
	d="
M72.135803,69.252045 
	C72.053474,69.112816 72.503578,69.062500 72.728027,69.089111 
	C72.952484,69.115723 72.644348,69.466301 72.644348,69.466301 
	C72.644348,69.466301 72.218132,69.391281 72.135803,69.252045 
z"/>
<path fill="#19D485" opacity="1.000000" stroke="none" 
	d="
M138.005814,61.771786 
	C139.481415,61.896500 140.957001,62.021214 142.853561,62.181507 
	C142.950562,63.833656 143.044373,65.431557 143.176743,67.458511 
	C143.215302,67.887573 143.080322,67.957108 142.737350,68.022713 
	C142.230057,68.178284 142.065720,68.268250 141.901398,68.358215 
	C141.901398,68.358215 141.799454,68.158829 141.894272,67.836258 
	C141.987534,67.344704 141.985962,67.175705 141.985550,66.585419 
	C142.245377,62.348461 139.462860,63.024906 137.244873,63.021160 
	C122.830978,62.996822 108.417023,63.009113 93.534195,63.005325 
	C87.566490,63.002537 82.050049,62.754654 76.578506,63.141598 
	C74.687965,63.275295 72.909088,64.987816 71.015366,65.576530 
	C70.922127,64.087029 70.892738,63.000149 70.863342,61.913269 
	C70.863350,61.913269 70.938164,61.927723 71.417618,61.934532 
	C93.933319,61.884819 115.969566,61.828300 138.005814,61.771786 
z"/>
<path fill="#B4DFDF" opacity="1.000000" stroke="none" 
	d="
M138.003738,61.586102 
	C115.969566,61.828300 93.933319,61.884819 71.427879,61.897842 
	C76.837151,61.573559 82.714325,61.260250 88.594688,61.027382 
	C91.075790,60.929123 93.563614,61.000404 96.514793,60.970497 
	C110.340652,60.966732 123.700096,60.987099 137.527664,61.018272 
	C137.995789,61.029076 138.001663,61.400417 138.003738,61.586102 
z"/>
<path fill="#42D990" opacity="1.000000" stroke="none" 
	d="
M156.511780,144.690521 
	C156.340103,144.723572 156.202866,144.350433 156.246735,144.156372 
	C156.290604,143.962311 156.683945,144.011658 156.878937,144.048401 
	C157.013580,144.323624 156.883423,144.514404 156.511780,144.690521 
z"/>
<path fill="#B4DFDF" opacity="1.000000" stroke="none" 
	d="
M70.444778,61.901901 
	C70.892738,63.000149 70.922127,64.087029 70.955322,65.906036 
	C70.979698,67.083473 71.000259,67.528786 71.020821,67.974098 
	C71.020821,67.974098 71.004967,67.981041 71.008270,67.987030 
	C70.814163,68.054390 70.616745,68.115761 69.747589,68.237030 
	C67.720688,68.202980 66.365524,68.109016 65.010361,68.015053 
	C65.004135,66.273849 64.997910,64.532639 64.988655,62.352291 
	C66.665817,61.905609 68.346008,61.898067 70.444778,61.901901 
z"/>
<path fill="#FCFDFD" opacity="1.000000" stroke="none" 
	d="
M45.101540,82.220192 
	C45.105026,86.159790 45.108513,90.099388 45.015099,94.484985 
	C41.350182,94.985023 36.956715,96.182503 37.970722,89.008301 
	C37.998020,83.756248 38.012897,79.402512 38.027775,75.048775 
	C40.054245,75.020111 42.080711,74.991440 44.550289,74.977997 
	C44.993397,74.993217 45.002289,75.002510 45.013840,75.450096 
	C45.050774,78.005188 45.076157,80.112686 45.101540,82.220192 
z"/>
<path fill="#E7E9E1" opacity="1.000000" stroke="none" 
	d="
M37.598511,75.031609 
	C38.012897,79.402512 37.998020,83.756248 37.961479,88.579315 
	C31.005983,88.891273 30.999025,88.891266 31.008064,82.157440 
	C31.010706,80.189781 31.065285,78.222198 31.191227,75.835060 
	C33.247345,75.281845 35.208298,75.148148 37.598511,75.031609 
z"/>
<path fill="#FEFEFD" opacity="1.000000" stroke="none" 
	d="
M51.744686,73.762009 
	C52.026035,74.014442 51.951168,74.473007 51.422844,74.712509 
	C48.930447,74.968842 46.966366,74.985672 45.002289,75.002510 
	C45.002289,75.002510 44.993397,74.993217 44.984634,74.985794 
	C44.504997,71.101433 44.800468,67.873917 50.554573,68.928116 
	C51.145836,70.470230 51.304588,71.989906 51.744686,73.762009 
z"/>
<path fill="#25DD86" opacity="1.000000" stroke="none" 
	d="
M64.586609,68.092384 
	C66.365524,68.109016 67.720688,68.202980 69.472900,68.380928 
	C69.351929,69.835983 68.833923,71.207047 68.097885,73.155197 
	C63.982697,72.932777 59.738255,72.703377 55.208328,72.158035 
	C56.701416,67.343445 60.662983,68.337402 64.586609,68.092384 
z"/>
<path fill="#CFEAE3" opacity="1.000000" stroke="none" 
	d="
M26.144318,93.961594 
	C26.144318,93.961594 26.032936,93.487289 26.035072,93.243744 
	C26.355194,93.258995 26.673180,93.517784 27.175207,94.030838 
	C27.359249,94.285103 27.268131,94.297989 26.970604,94.186920 
	C26.496824,94.037773 26.320570,93.999687 26.144318,93.961594 
z"/>
<path fill="#BEDFDB" opacity="1.000000" stroke="none" 
	d="
M26.114952,94.125618 
	C26.320570,93.999687 26.496824,94.037773 26.925869,94.176155 
	C27.044500,94.577599 26.812542,94.724701 26.269127,94.669647 
	C26.055468,94.621536 26.085588,94.289642 26.114952,94.125618 
z"/>
<path fill="#C4E0DF" opacity="1.000000" stroke="none" 
	d="
M151.323730,155.007767 
	C150.949707,154.231140 150.955933,153.432465 150.873322,152.240662 
	C156.257339,151.824234 156.319122,151.874649 154.347260,155.143219 
	C153.210419,155.140717 152.457214,155.063217 151.323730,155.007767 
z"/>
<path fill="#89A2AD" opacity="1.000000" stroke="none" 
	d="
M147.856323,156.554962 
	C148.677200,155.978210 149.505066,155.596695 150.653137,155.072647 
	C150.770828,155.544617 150.568314,156.159134 150.067596,156.925293 
	C149.769379,157.076935 149.339920,157.136200 148.900345,157.112152 
	C148.460770,157.088120 147.995819,157.117767 147.995819,157.117767 
	C147.995819,157.117767 147.863297,156.750198 147.856323,156.554962 
z"/>
<path fill="#D1ECE8" opacity="1.000000" stroke="none" 
	d="
M67.013947,157.095764 
	C66.135132,157.233643 65.256325,157.371521 64.566406,157.255096 
	C65.508186,157.032440 66.261063,157.064102 67.013947,157.095764 
z"/>
<path fill="#89A2AD" opacity="1.000000" stroke="none" 
	d="
M67.054962,156.912079 
	C66.261063,157.064102 65.508186,157.032440 64.379105,157.017838 
	C64.002899,157.034897 64.044212,157.008713 64.008499,156.802551 
	C63.972778,156.596390 63.831608,156.248856 63.831608,156.248856 
	C63.831608,156.248856 63.990623,156.009079 64.104538,155.920212 
	C64.218445,155.831345 64.640282,155.862640 65.070732,155.903687 
	C65.501183,155.944717 65.969810,155.874268 65.969810,155.874268 
	C66.167557,155.940643 66.365295,156.007019 66.843048,156.213165 
	C67.123055,156.352905 67.095985,156.728378 67.054962,156.912079 
z"/>
<path fill="#D1ECE8" opacity="1.000000" stroke="none" 
	d="
M148.080399,157.255112 
	C147.995819,157.117767 148.460770,157.088120 148.686127,157.145355 
	C148.911499,157.202606 148.578262,157.514435 148.578262,157.514435 
	C148.578262,157.514435 148.164978,157.392456 148.080399,157.255112 
z"/>
<path fill="#A1E3D3" opacity="1.000000" stroke="none" 
	d="
M63.614380,156.251114 
	C63.831608,156.248856 63.972778,156.596390 64.014969,156.778992 
	C63.789532,156.958710 63.541912,156.886902 63.171658,156.615158 
	C63.029022,156.484131 63.397156,156.253372 63.614380,156.251114 
z"/>
<path fill="#061537" opacity="1.000000" stroke="none" 
	d="
M65.892754,155.732132 
	C65.969810,155.874268 65.501183,155.944717 65.278481,155.864044 
	C65.260483,155.430267 65.513786,155.365814 65.892754,155.732132 
z"/>
<path fill="#BAE1DF" opacity="1.000000" stroke="none" 
	d="
M45.013840,75.450096 
	C46.966366,74.985672 48.930447,74.968842 51.311802,74.916565 
	C51.723946,75.060471 51.718807,75.239822 51.612907,75.952698 
	C51.522182,77.922508 51.532215,79.358803 51.542248,80.795097 
	C51.274158,80.868332 51.058899,81.017723 50.802261,81.420135 
	C49.098392,81.716843 47.488724,81.836685 45.490299,82.088356 
	C45.076157,80.112686 45.050774,78.005188 45.013840,75.450096 
z"/>
<path fill="#20EF81" opacity="1.000000" stroke="none" 
	d="
M94.003090,63.009415 
	C108.417023,63.009113 122.830978,62.996822 137.244873,63.021160 
	C139.462860,63.024906 142.245377,62.348461 141.768799,66.702087 
	C141.284500,67.449707 141.096420,67.714905 140.986633,68.035652 
	C134.659271,68.127914 128.331909,68.220184 121.102982,68.214378 
	C117.773933,68.202072 115.346458,68.287842 112.918976,68.373627 
	C109.275620,68.353317 105.632271,68.333008 101.101158,68.214104 
	C98.114563,68.192436 96.015717,68.269371 93.916878,68.346298 
	C93.916878,68.346298 93.445381,68.249916 93.227951,67.779015 
	C93.341377,65.875214 93.672234,64.442314 94.003090,63.009415 
z"/>
<path fill="#1EE984" opacity="1.000000" stroke="none" 
	d="
M93.534195,63.005325 
	C93.672234,64.442314 93.341377,65.875214 93.008339,67.680679 
	C87.352402,68.143845 81.698654,68.234444 75.587227,68.358116 
	C74.036385,68.260033 72.943214,68.128876 71.435432,67.985909 
	C71.000259,67.528786 70.979698,67.083473 71.019165,66.308655 
	C72.909088,64.987816 74.687965,63.275295 76.578506,63.141598 
	C82.050049,62.754654 87.566490,63.002537 93.534195,63.005325 
z"/>
<path fill="#0C534A" opacity="1.000000" stroke="none" 
	d="
M113.242973,68.575882 
	C115.346458,68.287842 117.773933,68.202072 120.641212,68.243546 
	C118.576332,68.506569 116.071648,68.642357 113.242973,68.575882 
z"/>
<path fill="#0C534A" opacity="1.000000" stroke="none" 
	d="
M94.227631,68.549881 
	C96.015717,68.269371 98.114563,68.192436 100.647995,68.243042 
	C98.901184,68.498199 96.719788,68.625832 94.227631,68.549881 
z"/>
<path fill="#23F789" opacity="1.000000" stroke="none" 
	d="
M141.235001,68.105392 
	C141.096420,67.714905 141.284500,67.449707 141.767624,67.123367 
	C141.985962,67.175705 141.987534,67.344704 141.982376,67.767159 
	C141.811569,68.072121 141.647476,68.123627 141.235001,68.105392 
z"/>
<path fill="#0C534A" opacity="1.000000" stroke="none" 
	d="
M142.046600,68.525002 
	C142.065720,68.268250 142.230057,68.178284 142.674423,68.065186 
	C142.954468,68.042046 143.107544,68.512283 143.061325,68.755264 
	C142.713226,68.969765 142.438797,68.867607 142.046600,68.525002 
z"/>
<path fill="#25DD86" opacity="1.000000" stroke="none" 
	d="
M51.935059,80.742035 
	C51.532215,79.358803 51.522182,77.922508 51.643784,76.220055 
	C53.140095,76.493095 54.504772,77.032295 55.869446,77.571487 
	C54.688919,78.610649 53.508392,79.649811 51.935059,80.742035 
z"/>
</svg>