<svg width="276" height="100" viewBox="0 0 276 100" fill="none" xmlns="http://www.w3.org/2000/svg">
<path d="M19.1433 12.3891H26.0017V43.252H43.1478V46.6812H19.1433V12.3891ZM52.6125 12.3891H73.1878V15.8183H59.4709V26.1059H69.7586V29.5351H59.4709V43.252H73.1878V46.6812H52.6125V12.3891ZM82.6526 12.3891H89.511V19.2475H92.9402V26.1059H96.3694V29.5351H99.7987V19.2475H103.228V12.3891H110.086V19.2475H106.657V29.5351H103.228V39.8228H99.7987V46.6812H92.9402V39.8228H89.511V29.5351H86.0818V19.2475H82.6526V12.3891ZM119.551 12.3891H140.126V15.8183H126.409V26.1059H136.697V29.5351H126.409V43.252H140.126V46.6812H119.551V12.3891ZM149.591 12.3891H156.449V43.252H173.596V46.6812H149.591V12.3891ZM183.06 12.3891H189.918V39.8228H193.348V43.252H200.206V39.8228H203.635V12.3891H210.493V39.8228H207.065V43.252H203.635V46.6812H189.918V43.252H186.49V39.8228H183.06V12.3891ZM223.387 12.3891H240.534V15.8183H243.962V26.1059H240.534V29.5351H237.104V32.9643H226.817V46.6812H219.959V15.8183H223.387V12.3891ZM226.817 15.8183V29.5351H233.676V26.1059H237.104V15.8183H226.817ZM253.428 8.95984H260.286V36.3936H253.428V8.95984ZM253.428 39.8228H260.286V46.6812H253.428V39.8228Z" fill="url(#paint0_linear_514_5762)"/>
<mask id="mask0_514_5762" style="mask-type:luminance" maskUnits="userSpaceOnUse" x="14" y="5" width="251" height="46">
<path d="M264.361 5.11499H14.9639V50.0066H264.361V5.11499Z" fill="white"/>
<path d="M19.1433 12.3891H26.0017V43.252H43.1478V46.6812H19.1433V12.3891ZM52.6125 12.3891H73.1878V15.8183H59.4709V26.1059H69.7586V29.5351H59.4709V43.252H73.1878V46.6812H52.6125V12.3891ZM82.6526 12.3891H89.511V19.2475H92.9402V26.1059H96.3694V29.5351H99.7987V19.2475H103.228V12.3891H110.086V19.2475H106.657V29.5351H103.228V39.8228H99.7987V46.6812H92.9402V39.8228H89.511V29.5351H86.0818V19.2475H82.6526V12.3891ZM119.551 12.3891H140.126V15.8183H126.409V26.1059H136.697V29.5351H126.409V43.252H140.126V46.6812H119.551V12.3891ZM149.591 12.3891H156.449V43.252H173.596V46.6812H149.591V12.3891ZM183.06 12.3891H189.918V39.8228H193.348V43.252H200.206V39.8228H203.635V12.3891H210.493V39.8228H207.065V43.252H203.635V46.6812H189.918V43.252H186.49V39.8228H183.06V12.3891ZM223.387 12.3891H240.534V15.8183H243.962V26.1059H240.534V29.5351H237.104V32.9643H226.817V46.6812H219.959V15.8183H223.387V12.3891ZM226.817 15.8183V29.5351H233.676V26.1059H237.104V15.8183H226.817ZM253.428 8.95984H260.286V36.3936H253.428V8.95984ZM253.428 39.8228H260.286V46.6812H253.428V39.8228Z" fill="black"/>
</mask>
<g mask="url(#mask0_514_5762)">
<path d="M19.1432 12.389V9.06374H15.818V12.389H19.1432ZM26.0016 12.389H29.3269V9.06374H26.0016V12.389ZM26.0016 43.252H22.6763V46.5773H26.0016V43.252ZM43.1477 43.252H46.473V39.9267H43.1477V43.252ZM43.1477 46.6812V50.0065H46.473V46.6812H43.1477ZM19.1432 46.6812H15.818V50.0065H19.1432V46.6812ZM19.1432 15.7143H26.0016V9.06374H19.1432V15.7143ZM22.6763 12.389V43.252H29.3269V12.389H22.6763ZM26.0016 46.5773H43.1477V39.9267H26.0016V46.5773ZM39.8224 43.252V46.6812H46.473V43.252H39.8224ZM43.1477 43.3559H19.1432V50.0065H43.1477V43.3559ZM22.4685 46.6812V12.389H15.818V46.6812H22.4685ZM52.6124 12.389V9.06374H49.2871V12.389H52.6124ZM73.1877 12.389H76.513V9.06374H73.1877V12.389ZM73.1877 15.8183V19.1435H76.513V15.8183H73.1877ZM59.4708 15.8183V12.493H56.1455V15.8183H59.4708ZM59.4708 26.1059H56.1455V29.4312H59.4708V26.1059ZM69.7585 26.1059H73.0838V22.7806H69.7585V26.1059ZM69.7585 29.5351V32.8604H73.0838V29.5351H69.7585ZM59.4708 29.5351V26.2098H56.1455V29.5351H59.4708ZM59.4708 43.252H56.1455V46.5773H59.4708V43.252ZM73.1877 43.252H76.513V39.9267H73.1877V43.252ZM73.1877 46.6812V50.0065H76.513V46.6812H73.1877ZM52.6124 46.6812H49.2871V50.0065H52.6124V46.6812ZM52.6124 15.7143H73.1877V9.06374H52.6124V15.7143ZM69.8624 12.389V15.8183H76.513V12.389H69.8624ZM73.1877 12.493H59.4708V19.1435H73.1877V12.493ZM56.1455 15.8183V26.1059H62.7961V15.8183H56.1455ZM59.4708 29.4312H69.7585V22.7806H59.4708V29.4312ZM66.4331 26.1059V29.5351H73.0838V26.1059H66.4331ZM69.7585 26.2098H59.4708V32.8604H69.7585V26.2098ZM56.1455 29.5351V43.252H62.7961V29.5351H56.1455ZM59.4708 46.5773H73.1877V39.9267H59.4708V46.5773ZM69.8624 43.252V46.6812H76.513V43.252H69.8624ZM73.1877 43.3559H52.6124V50.0065H73.1877V43.3559ZM55.9377 46.6812V12.389H49.2871V46.6812H55.9377ZM82.6525 12.389V9.06374H79.3272V12.389H82.6525ZM89.5109 12.389H92.8362V9.06374H89.5109V12.389ZM89.5109 19.2475H86.1856V22.5728H89.5109V19.2475ZM92.9401 19.2475H96.2654V15.9222H92.9401V19.2475ZM92.9401 26.1059H89.6148V29.4312H92.9401V26.1059ZM96.3693 26.1059H99.6946V22.7806H96.3693V26.1059ZM96.3693 29.5351H93.044V32.8604H96.3693V29.5351ZM99.7986 29.5351V32.8604H103.124V29.5351H99.7986ZM99.7986 19.2475V15.9222H96.4733V19.2475H99.7986ZM103.228 19.2475V22.5728H106.553V19.2475H103.228ZM103.228 12.389V9.06374H99.9025V12.389H103.228ZM110.086 12.389H113.412V9.06374H110.086V12.389ZM110.086 19.2475V22.5728H113.412V19.2475H110.086ZM106.657 19.2475V15.9222H103.332V19.2475H106.657ZM106.657 29.5351V32.8604H109.982V29.5351H106.657ZM103.228 29.5351V26.2098H99.9025V29.5351H103.228ZM103.228 39.8228V43.1481H106.553V39.8228H103.228ZM99.7986 39.8228V36.4975H96.4733V39.8228H99.7986ZM99.7986 46.6812V50.0065H103.124V46.6812H99.7986ZM92.9401 46.6812H89.6148V50.0065H92.9401V46.6812ZM92.9401 39.8228H96.2654V36.4975H92.9401V39.8228ZM89.5109 39.8228H86.1856V43.1481H89.5109V39.8228ZM89.5109 29.5351H92.8362V26.2098H89.5109V29.5351ZM86.0817 29.5351H82.7564V32.8604H86.0817V29.5351ZM86.0817 19.2475H89.407V15.9222H86.0817V19.2475ZM82.6525 19.2475H79.3272V22.5728H82.6525V19.2475ZM82.6525 15.7143H89.5109V9.06374H82.6525V15.7143ZM86.1856 12.389V19.2475H92.8362V12.389H86.1856ZM89.5109 22.5728H92.9401V15.9222H89.5109V22.5728ZM89.6148 19.2475V26.1059H96.2654V19.2475H89.6148ZM92.9401 29.4312H96.3693V22.7806H92.9401V29.4312ZM93.044 26.1059V29.5351H99.6946V26.1059H93.044ZM96.3693 32.8604H99.7986V26.2098H96.3693V32.8604ZM103.124 29.5351V19.2475H96.4733V29.5351H103.124ZM99.7986 22.5728H103.228V15.9222H99.7986V22.5728ZM106.553 19.2475V12.389H99.9025V19.2475H106.553ZM103.228 15.7143H110.086V9.06374H103.228V15.7143ZM106.761 12.389V19.2475H113.412V12.389H106.761ZM110.086 15.9222H106.657V22.5728H110.086V15.9222ZM103.332 19.2475V29.5351H109.982V19.2475H103.332ZM106.657 26.2098H103.228V32.8604H106.657V26.2098ZM99.9025 29.5351V39.8228H106.553V29.5351H99.9025ZM103.228 36.4975H99.7986V43.1481H103.228V36.4975ZM96.4733 39.8228V46.6812H103.124V39.8228H96.4733ZM99.7986 43.3559H92.9401V50.0065H99.7986V43.3559ZM96.2654 46.6812V39.8228H89.6148V46.6812H96.2654ZM92.9401 36.4975H89.5109V43.1481H92.9401V36.4975ZM92.8362 39.8228V29.5351H86.1856V39.8228H92.8362ZM89.5109 26.2098H86.0817V32.8604H89.5109V26.2098ZM89.407 29.5351V19.2475H82.7564V29.5351H89.407ZM86.0817 15.9222H82.6525V22.5728H86.0817V15.9222ZM85.9778 19.2475V12.389H79.3272V19.2475H85.9778ZM119.551 12.389V9.06374H116.225V12.389H119.551ZM140.126 12.389H143.451V9.06374H140.126V12.389ZM140.126 15.8183V19.1435H143.451V15.8183H140.126ZM126.409 15.8183V12.493H123.084V15.8183H126.409ZM126.409 26.1059H123.084V29.4312H126.409V26.1059ZM136.697 26.1059H140.022V22.7806H136.697V26.1059ZM136.697 29.5351V32.8604H140.022V29.5351H136.697ZM126.409 29.5351V26.2098H123.084V29.5351H126.409ZM126.409 43.252H123.084V46.5773H126.409V43.252ZM140.126 43.252H143.451V39.9267H140.126V43.252ZM140.126 46.6812V50.0065H143.451V46.6812H140.126ZM119.551 46.6812H116.225V50.0065H119.551V46.6812ZM119.551 15.7143H140.126V9.06374H119.551V15.7143ZM136.801 12.389V15.8183H143.451V12.389H136.801ZM140.126 12.493H126.409V19.1435H140.126V12.493ZM123.084 15.8183V26.1059H129.734V15.8183H123.084ZM126.409 29.4312H136.697V22.7806H126.409V29.4312ZM133.371 26.1059V29.5351H140.022V26.1059H133.371ZM136.697 26.2098H126.409V32.8604H136.697V26.2098ZM123.084 29.5351V43.252H129.734V29.5351H123.084ZM126.409 46.5773H140.126V39.9267H126.409V46.5773ZM136.801 43.252V46.6812H143.451V43.252H136.801ZM140.126 43.3559H119.551V50.0065H140.126V43.3559ZM122.876 46.6812V12.389H116.225V46.6812H122.876ZM149.591 12.389V9.06374H146.265V12.389H149.591ZM156.449 12.389H159.775V9.06374H156.449V12.389ZM156.449 43.252H153.124V46.5773H156.449V43.252ZM173.596 43.252H176.921V39.9267H173.596V43.252ZM173.596 46.6812V50.0065H176.921V46.6812H173.596ZM149.591 46.6812H146.265V50.0065H149.591V46.6812ZM149.591 15.7143H156.449V9.06374H149.591V15.7143ZM153.124 12.389V43.252H159.775V12.389H153.124ZM156.449 46.5773H173.596V39.9267H156.449V46.5773ZM170.27 43.252V46.6812H176.921V43.252H170.27ZM173.596 43.3559H149.591V50.0065H173.596V43.3559ZM152.916 46.6812V12.389H146.265V46.6812H152.916ZM183.059 12.389V9.06374H179.734V12.389H183.059ZM189.918 12.389H193.243V9.06374H189.918V12.389ZM189.918 39.8228H186.593V43.1481H189.918V39.8228ZM193.348 39.8228H196.673V36.4975H193.348V39.8228ZM193.348 43.252H190.023V46.5773H193.348V43.252ZM200.206 43.252V46.5773H203.532V43.252H200.206ZM200.206 39.8228V36.4975H196.881V39.8228H200.206ZM203.635 39.8228V43.1481H206.96V39.8228H203.635ZM203.635 12.389V9.06374H200.309V12.389H203.635ZM210.493 12.389H213.818V9.06374H210.493V12.389ZM210.493 39.8228V43.1481H213.818V39.8228H210.493ZM207.065 39.8228V36.4975H203.739V39.8228H207.065ZM207.065 43.252V46.5773H210.39V43.252H207.065ZM203.635 43.252V39.9267H200.309V43.252H203.635ZM203.635 46.6812V50.0065H206.96V46.6812H203.635ZM189.918 46.6812H186.593V50.0065H189.918V46.6812ZM189.918 43.252H193.243V39.9267H189.918V43.252ZM186.489 43.252H183.164V46.5773H186.489V43.252ZM186.489 39.8228H189.815V36.4975H186.489V39.8228ZM183.059 39.8228H179.734V43.1481H183.059V39.8228ZM183.059 15.7143H189.918V9.06374H183.059V15.7143ZM186.593 12.389V39.8228H193.243V12.389H186.593ZM189.918 43.1481H193.348V36.4975H189.918V43.1481ZM190.023 39.8228V43.252H196.673V39.8228H190.023ZM193.348 46.5773H200.206V39.9267H193.348V46.5773ZM203.532 43.252V39.8228H196.881V43.252H203.532ZM200.206 43.1481H203.635V36.4975H200.206V43.1481ZM206.96 39.8228V12.389H200.309V39.8228H206.96ZM203.635 15.7143H210.493V9.06374H203.635V15.7143ZM207.168 12.389V39.8228H213.818V12.389H207.168ZM210.493 36.4975H207.065V43.1481H210.493V36.4975ZM203.739 39.8228V43.252H210.39V39.8228H203.739ZM207.065 39.9267H203.635V46.5773H207.065V39.9267ZM200.309 43.252V46.6812H206.96V43.252H200.309ZM203.635 43.3559H189.918V50.0065H203.635V43.3559ZM193.243 46.6812V43.252H186.593V46.6812H193.243ZM189.918 39.9267H186.489V46.5773H189.918V39.9267ZM189.815 43.252V39.8228H183.164V43.252H189.815ZM186.489 36.4975H183.059V43.1481H186.489V36.4975ZM186.385 39.8228V12.389H179.734V39.8228H186.385ZM223.387 12.389V9.06374H220.062V12.389H223.387ZM240.534 12.389H243.859V9.06374H240.534V12.389ZM240.534 15.8183H237.209V19.1435H240.534V15.8183ZM243.962 15.8183H247.288V12.493H243.962V15.8183ZM243.962 26.1059V29.4312H247.288V26.1059H243.962ZM240.534 26.1059V22.7806H237.209V26.1059H240.534ZM240.534 29.5351V32.8604H243.859V29.5351H240.534ZM237.104 29.5351V26.2098H233.779V29.5351H237.104ZM237.104 32.9643V36.2896H240.429V32.9643H237.104ZM226.817 32.9643V29.639H223.492V32.9643H226.817ZM226.817 46.6812V50.0065H230.142V46.6812H226.817ZM219.959 46.6812H216.633V50.0065H219.959V46.6812ZM219.959 15.8183V12.493H216.633V15.8183H219.959ZM223.387 15.8183V19.1435H226.712V15.8183H223.387ZM226.817 15.8183V12.493H223.492V15.8183H226.817ZM226.817 29.5351H223.492V32.8604H226.817V29.5351ZM233.676 29.5351V32.8604H237.001V29.5351H233.676ZM233.676 26.1059V22.7806H230.35V26.1059H233.676ZM237.104 26.1059V29.4312H240.429V26.1059H237.104ZM237.104 15.8183H240.429V12.493H237.104V15.8183ZM223.387 15.7143H240.534V9.06374H223.387V15.7143ZM237.209 12.389V15.8183H243.859V12.389H237.209ZM240.534 19.1435H243.962V12.493H240.534V19.1435ZM240.637 15.8183V26.1059H247.288V15.8183H240.637ZM243.962 22.7806H240.534V29.4312H243.962V22.7806ZM237.209 26.1059V29.5351H243.859V26.1059H237.209ZM240.534 26.2098H237.104V32.8604H240.534V26.2098ZM233.779 29.5351V32.9643H240.429V29.5351H233.779ZM237.104 29.639H226.817V36.2896H237.104V29.639ZM223.492 32.9643V46.6812H230.142V32.9643H223.492ZM226.817 43.3559H219.959V50.0065H226.817V43.3559ZM223.284 46.6812V15.8183H216.633V46.6812H223.284ZM219.959 19.1435H223.387V12.493H219.959V19.1435ZM226.712 15.8183V12.389H220.062V15.8183H226.712ZM223.492 15.8183V29.5351H230.142V15.8183H223.492ZM226.817 32.8604H233.676V26.2098H226.817V32.8604ZM237.001 29.5351V26.1059H230.35V29.5351H237.001ZM233.676 29.4312H237.104V22.7806H233.676V29.4312ZM240.429 26.1059V15.8183H233.779V26.1059H240.429ZM237.104 12.493H226.817V19.1435H237.104V12.493ZM253.428 8.95982V5.63452H250.102V8.95982H253.428ZM260.286 8.95982H263.612V5.63452H260.286V8.95982ZM260.286 36.3935V39.7188H263.612V36.3935H260.286ZM253.428 36.3935H250.102V39.7188H253.428V36.3935ZM253.428 39.8228V36.4975H250.102V39.8228H253.428ZM260.286 39.8228H263.612V36.4975H260.286V39.8228ZM260.286 46.6812V50.0065H263.612V46.6812H260.286ZM253.428 46.6812H250.102V50.0065H253.428V46.6812ZM253.428 12.2851H260.286V5.63452H253.428V12.2851ZM256.961 8.95982V36.3935H263.612V8.95982H256.961ZM260.286 33.0682H253.428V39.7188H260.286V33.0682ZM256.753 36.3935V8.95982H250.102V36.3935H256.753ZM253.428 43.1481H260.286V36.4975H253.428V43.1481ZM256.961 39.8228V46.6812H263.612V39.8228H256.961ZM260.286 43.3559H253.428V50.0065H260.286V43.3559ZM256.753 46.6812V39.8228H250.102V46.6812H256.753Z" fill="white"/>
</g>
<path d="M91.9094 64.5721H105.418V67.274H94.6112V69.9758H91.9094V86.1866H94.6112V88.8884H105.418V91.5902H91.9094V88.8884H89.2075V86.1866H86.5057V69.9758H89.2075V67.274H91.9094V64.5721ZM105.418 67.274H108.12V69.9758H105.418V67.274ZM105.418 86.1866H108.12V88.8884H105.418V86.1866ZM120.981 64.5721H131.788V67.274H134.49V69.9758H137.192V86.1866H134.49V88.8884H131.788V91.5902H120.981V88.8884H118.279V86.1866H115.577V69.9758H118.279V67.274H120.981V64.5721ZM123.683 67.274V69.9758H120.981V86.1866H123.683V88.8884H129.086V86.1866H131.788V69.9758H129.086V67.274H123.683ZM144.649 64.5721H155.456V67.274H150.052V88.8884H155.456V91.5902H144.649V64.5721ZM155.456 67.274H160.859V69.9758H163.561V72.6776H166.263V83.4848H163.561V86.1866H160.859V88.8884H155.456V86.1866H158.158V83.4848H160.859V72.6776H158.158V69.9758H155.456V67.274ZM173.72 64.5721H189.931V67.274H179.124V75.3794H187.229V78.0812H179.124V88.8884H189.931V91.5902H173.72V64.5721Z" fill="url(#paint1_linear_514_5762)"/>
<mask id="mask1_514_5762" style="mask-type:luminance" maskUnits="userSpaceOnUse" x="82" y="59" width="112" height="36">
<path d="M193.398 59.9999H82V94.9155H193.398V59.9999Z" fill="white"/>
<path d="M91.9094 64.5721H105.418V67.274H94.6112V69.9758H91.9094V86.1866H94.6112V88.8884H105.418V91.5902H91.9094V88.8884H89.2075V86.1866H86.5057V69.9758H89.2075V67.274H91.9094V64.5721ZM105.418 67.274H108.12V69.9758H105.418V67.274ZM105.418 86.1866H108.12V88.8884H105.418V86.1866ZM120.981 64.5721H131.788V67.274H134.49V69.9758H137.192V86.1866H134.49V88.8884H131.788V91.5902H120.981V88.8884H118.279V86.1866H115.577V69.9758H118.279V67.274H120.981V64.5721ZM123.683 67.274V69.9758H120.981V86.1866H123.683V88.8884H129.086V86.1866H131.788V69.9758H129.086V67.274H123.683ZM144.649 64.5721H155.456V67.274H150.052V88.8884H155.456V91.5902H144.649V64.5721ZM155.456 67.274H160.859V69.9758H163.561V72.6776H166.263V83.4848H163.561V86.1866H160.859V88.8884H155.456V86.1866H158.158V83.4848H160.859V72.6776H158.158V69.9758H155.456V67.274ZM173.72 64.5721H189.931V67.274H179.124V75.3794H187.229V78.0812H179.124V88.8884H189.931V91.5902H173.72V64.5721Z" fill="black"/>
</mask>
<g mask="url(#mask1_514_5762)">
<path d="M91.9095 64.5721V61.2468H88.5842V64.5721H91.9095ZM105.418 64.5721H108.744V61.2468H105.418V64.5721ZM105.418 67.2739V70.5992H108.744V67.2739H105.418ZM94.6113 67.2739V63.9486H91.286V67.2739H94.6113ZM94.6113 69.9757V73.301H97.9366V69.9757H94.6113ZM91.9095 69.9757V66.6504H88.5842V69.9757H91.9095ZM91.9095 86.1866H88.5842V89.5119H91.9095V86.1866ZM94.6113 86.1866H97.9366V82.8613H94.6113V86.1866ZM94.6113 88.8884H91.286V92.2137H94.6113V88.8884ZM105.418 88.8884H108.744V85.5631H105.418V88.8884ZM105.418 91.5902V94.9155H108.744V91.5902H105.418ZM91.9095 91.5902H88.5842V94.9155H91.9095V91.5902ZM91.9095 88.8884H95.2348V85.5631H91.9095V88.8884ZM89.2077 88.8884H85.8823V92.2137H89.2077V88.8884ZM89.2077 86.1866H92.533V82.8613H89.2077V86.1866ZM86.5058 86.1866H83.1805V89.5119H86.5058V86.1866ZM86.5058 69.9757V66.6504H83.1805V69.9757H86.5058ZM89.2077 69.9757V73.301H92.533V69.9757H89.2077ZM89.2077 67.2739V63.9486H85.8823V67.2739H89.2077ZM91.9095 67.2739V70.5992H95.2348V67.2739H91.9095ZM105.418 67.2739V63.9486H102.093V67.2739H105.418ZM108.12 67.2739H111.446V63.9486H108.12V67.2739ZM108.12 69.9757V73.301H111.446V69.9757H108.12ZM105.418 69.9757H102.093V73.301H105.418V69.9757ZM105.418 86.1866V82.8613H102.093V86.1866H105.418ZM108.12 86.1866H111.446V82.8613H108.12V86.1866ZM108.12 88.8884V92.2137H111.446V88.8884H108.12ZM105.418 88.8884H102.093V92.2137H105.418V88.8884ZM91.9095 67.8974H105.418V61.2468H91.9095V67.8974ZM102.093 64.5721V67.2739H108.744V64.5721H102.093ZM105.418 63.9486H94.6113V70.5992H105.418V63.9486ZM91.286 67.2739V69.9757H97.9366V67.2739H91.286ZM94.6113 66.6504H91.9095V73.301H94.6113V66.6504ZM88.5842 69.9757V86.1866H95.2348V69.9757H88.5842ZM91.9095 89.5119H94.6113V82.8613H91.9095V89.5119ZM91.286 86.1866V88.8884H97.9366V86.1866H91.286ZM94.6113 92.2137H105.418V85.5631H94.6113V92.2137ZM102.093 88.8884V91.5902H108.744V88.8884H102.093ZM105.418 88.2649H91.9095V94.9155H105.418V88.2649ZM95.2348 91.5902V88.8884H88.5842V91.5902H95.2348ZM91.9095 85.5631H89.2077V92.2137H91.9095V85.5631ZM92.533 88.8884V86.1866H85.8823V88.8884H92.533ZM89.2077 82.8613H86.5058V89.5119H89.2077V82.8613ZM89.8311 86.1866V69.9757H83.1805V86.1866H89.8311ZM86.5058 73.301H89.2077V66.6504H86.5058V73.301ZM92.533 69.9757V67.2739H85.8823V69.9757H92.533ZM89.2077 70.5992H91.9095V63.9486H89.2077V70.5992ZM95.2348 67.2739V64.5721H88.5842V67.2739H95.2348ZM105.418 70.5992H108.12V63.9486H105.418V70.5992ZM104.795 67.2739V69.9757H111.446V67.2739H104.795ZM108.12 66.6504H105.418V73.301H108.12V66.6504ZM108.744 69.9757V67.2739H102.093V69.9757H108.744ZM105.418 89.5119H108.12V82.8613H105.418V89.5119ZM104.795 86.1866V88.8884H111.446V86.1866H104.795ZM108.12 85.5631H105.418V92.2137H108.12V85.5631ZM108.744 88.8884V86.1866H102.093V88.8884H108.744ZM120.981 64.5721V61.2468H117.656V64.5721H120.981ZM131.788 64.5721H135.113V61.2468H131.788V64.5721ZM131.788 67.2739H128.463V70.5992H131.788V67.2739ZM134.49 67.2739H137.815V63.9486H134.49V67.2739ZM134.49 69.9757H131.165V73.301H134.49V69.9757ZM137.192 69.9757H140.517V66.6504H137.192V69.9757ZM137.192 86.1866V89.5119H140.517V86.1866H137.192ZM134.49 86.1866V82.8613H131.165V86.1866H134.49ZM134.49 88.8884V92.2137H137.815V88.8884H134.49ZM131.788 88.8884V85.5631H128.463V88.8884H131.788ZM131.788 91.5902V94.9155H135.113V91.5902H131.788ZM120.981 91.5902H117.656V94.9155H120.981V91.5902ZM120.981 88.8884H124.306V85.5631H120.981V88.8884ZM118.279 88.8884H114.954V92.2137H118.279V88.8884ZM118.279 86.1866H121.604V82.8613H118.279V86.1866ZM115.577 86.1866H112.252V89.5119H115.577V86.1866ZM115.577 69.9757V66.6504H112.252V69.9757H115.577ZM118.279 69.9757V73.301H121.604V69.9757H118.279ZM118.279 67.2739V63.9486H114.954V67.2739H118.279ZM120.981 67.2739V70.5992H124.306V67.2739H120.981ZM123.683 67.2739V63.9486H120.357V67.2739H123.683ZM123.683 69.9757V73.301H127.008V69.9757H123.683ZM120.981 69.9757V66.6504H117.656V69.9757H120.981ZM120.981 86.1866H117.656V89.5119H120.981V86.1866ZM123.683 86.1866H127.008V82.8613H123.683V86.1866ZM123.683 88.8884H120.357V92.2137H123.683V88.8884ZM129.086 88.8884V92.2137H132.412V88.8884H129.086ZM129.086 86.1866V82.8613H125.761V86.1866H129.086ZM131.788 86.1866V89.5119H135.113V86.1866H131.788ZM131.788 69.9757H135.113V66.6504H131.788V69.9757ZM129.086 69.9757H125.761V73.301H129.086V69.9757ZM129.086 67.2739H132.412V63.9486H129.086V67.2739ZM120.981 67.8974H131.788V61.2468H120.981V67.8974ZM128.463 64.5721V67.2739H135.113V64.5721H128.463ZM131.788 70.5992H134.49V63.9486H131.788V70.5992ZM131.165 67.2739V69.9757H137.815V67.2739H131.165ZM134.49 73.301H137.192V66.6504H134.49V73.301ZM133.866 69.9757V86.1866H140.517V69.9757H133.866ZM137.192 82.8613H134.49V89.5119H137.192V82.8613ZM131.165 86.1866V88.8884H137.815V86.1866H131.165ZM134.49 85.5631H131.788V92.2137H134.49V85.5631ZM128.463 88.8884V91.5902H135.113V88.8884H128.463ZM131.788 88.2649H120.981V94.9155H131.788V88.2649ZM124.306 91.5902V88.8884H117.656V91.5902H124.306ZM120.981 85.5631H118.279V92.2137H120.981V85.5631ZM121.604 88.8884V86.1866H114.954V88.8884H121.604ZM118.279 82.8613H115.577V89.5119H118.279V82.8613ZM118.903 86.1866V69.9757H112.252V86.1866H118.903ZM115.577 73.301H118.279V66.6504H115.577V73.301ZM121.604 69.9757V67.2739H114.954V69.9757H121.604ZM118.279 70.5992H120.981V63.9486H118.279V70.5992ZM124.306 67.2739V64.5721H117.656V67.2739H124.306ZM120.357 67.2739V69.9757H127.008V67.2739H120.357ZM123.683 66.6504H120.981V73.301H123.683V66.6504ZM117.656 69.9757V86.1866H124.306V69.9757H117.656ZM120.981 89.5119H123.683V82.8613H120.981V89.5119ZM120.357 86.1866V88.8884H127.008V86.1866H120.357ZM123.683 92.2137H129.086V85.5631H123.683V92.2137ZM132.412 88.8884V86.1866H125.761V88.8884H132.412ZM129.086 89.5119H131.788V82.8613H129.086V89.5119ZM135.113 86.1866V69.9757H128.463V86.1866H135.113ZM131.788 66.6504H129.086V73.301H131.788V66.6504ZM132.412 69.9757V67.2739H125.761V69.9757H132.412ZM129.086 63.9486H123.683V70.5992H129.086V63.9486ZM144.649 64.5721V61.2468H141.323V64.5721H144.649ZM155.456 64.5721H158.781V61.2468H155.456V64.5721ZM155.456 67.2739V70.5992H158.781V67.2739H155.456ZM150.052 67.2739V63.9486H146.727V67.2739H150.052ZM150.052 88.8884H146.727V92.2137H150.052V88.8884ZM155.456 88.8884H158.781V85.5631H155.456V88.8884ZM155.456 91.5902V94.9155H158.781V91.5902H155.456ZM144.649 91.5902H141.323V94.9155H144.649V91.5902ZM155.456 67.2739V63.9486H152.131V67.2739H155.456ZM160.86 67.2739H164.185V63.9486H160.86V67.2739ZM160.86 69.9757H157.534V73.301H160.86V69.9757ZM163.561 69.9757H166.887V66.6504H163.561V69.9757ZM163.561 72.6775H160.236V76.0029H163.561V72.6775ZM166.263 72.6775H169.588V69.3522H166.263V72.6775ZM166.263 83.4848V86.8101H169.588V83.4848H166.263ZM163.561 83.4848V80.1595H160.236V83.4848H163.561ZM163.561 86.1866V89.5119H166.887V86.1866H163.561ZM160.86 86.1866V82.8613H157.534V86.1866H160.86ZM160.86 88.8884V92.2137H164.185V88.8884H160.86ZM155.456 88.8884H152.131V92.2137H155.456V88.8884ZM155.456 86.1866V82.8613H152.131V86.1866H155.456ZM158.158 86.1866V89.5119H161.483V86.1866H158.158ZM158.158 83.4848V80.1595H154.832V83.4848H158.158ZM160.86 83.4848V86.8101H164.185V83.4848H160.86ZM160.86 72.6775H164.185V69.3522H160.86V72.6775ZM158.158 72.6775H154.832V76.0029H158.158V72.6775ZM158.158 69.9757H161.483V66.6504H158.158V69.9757ZM155.456 69.9757H152.131V73.301H155.456V69.9757ZM144.649 67.8974H155.456V61.2468H144.649V67.8974ZM152.131 64.5721V67.2739H158.781V64.5721H152.131ZM155.456 63.9486H150.052V70.5992H155.456V63.9486ZM146.727 67.2739V88.8884H153.378V67.2739H146.727ZM150.052 92.2137H155.456V85.5631H150.052V92.2137ZM152.131 88.8884V91.5902H158.781V88.8884H152.131ZM155.456 88.2649H144.649V94.9155H155.456V88.2649ZM147.974 91.5902V64.5721H141.323V91.5902H147.974ZM155.456 70.5992H160.86V63.9486H155.456V70.5992ZM157.534 67.2739V69.9757H164.185V67.2739H157.534ZM160.86 73.301H163.561V66.6504H160.86V73.301ZM160.236 69.9757V72.6775H166.887V69.9757H160.236ZM163.561 76.0029H166.263V69.3522H163.561V76.0029ZM162.938 72.6775V83.4848H169.588V72.6775H162.938ZM166.263 80.1595H163.561V86.8101H166.263V80.1595ZM160.236 83.4848V86.1866H166.887V83.4848H160.236ZM163.561 82.8613H160.86V89.5119H163.561V82.8613ZM157.534 86.1866V88.8884H164.185V86.1866H157.534ZM160.86 85.5631H155.456V92.2137H160.86V85.5631ZM158.781 88.8884V86.1866H152.131V88.8884H158.781ZM155.456 89.5119H158.158V82.8613H155.456V89.5119ZM161.483 86.1866V83.4848H154.832V86.1866H161.483ZM158.158 86.8101H160.86V80.1595H158.158V86.8101ZM164.185 83.4848V72.6775H157.534V83.4848H164.185ZM160.86 69.3522H158.158V76.0029H160.86V69.3522ZM161.483 72.6775V69.9757H154.832V72.6775H161.483ZM158.158 66.6504H155.456V73.301H158.158V66.6504ZM158.781 69.9757V67.2739H152.131V69.9757H158.781ZM173.72 64.5721V61.2468H170.395V64.5721H173.72ZM189.931 64.5721H193.256V61.2468H189.931V64.5721ZM189.931 67.2739V70.5992H193.256V67.2739H189.931ZM179.124 67.2739V63.9486H175.798V67.2739H179.124ZM179.124 75.3794H175.798V78.7047H179.124V75.3794ZM187.229 75.3794H190.555V72.0541H187.229V75.3794ZM187.229 78.0812V81.4065H190.555V78.0812H187.229ZM179.124 78.0812V74.7559H175.798V78.0812H179.124ZM179.124 88.8884H175.798V92.2137H179.124V88.8884ZM189.931 88.8884H193.256V85.5631H189.931V88.8884ZM189.931 91.5902V94.9155H193.256V91.5902H189.931ZM173.72 91.5902H170.395V94.9155H173.72V91.5902ZM173.72 67.8974H189.931V61.2468H173.72V67.8974ZM186.606 64.5721V67.2739H193.256V64.5721H186.606ZM189.931 63.9486H179.124V70.5992H189.931V63.9486ZM175.798 67.2739V75.3794H182.449V67.2739H175.798ZM179.124 78.7047H187.229V72.0541H179.124V78.7047ZM183.904 75.3794V78.0812H190.555V75.3794H183.904ZM187.229 74.7559H179.124V81.4065H187.229V74.7559ZM175.798 78.0812V88.8884H182.449V78.0812H175.798ZM179.124 92.2137H189.931V85.5631H179.124V92.2137ZM186.606 88.8884V91.5902H193.256V88.8884H186.606ZM189.931 88.2649H173.72V94.9155H189.931V88.2649ZM177.045 91.5902V64.5721H170.395V91.5902H177.045Z" fill="white"/>
</g>
<defs>
<linearGradient id="paint0_linear_514_5762" x1="138" y1="0.127002" x2="138" y2="40.0306" gradientUnits="userSpaceOnUse">
<stop stop-color="#21EF80"/>
<stop offset="1" stop-color="#50A0FF"/>
</linearGradient>
<linearGradient id="paint1_linear_514_5762" x1="136.867" y1="55.0119" x2="136.867" y2="104.891" gradientUnits="userSpaceOnUse">
<stop stop-color="#21EF80"/>
<stop offset="1" stop-color="#50A0FF"/>
</linearGradient>
</defs>
</svg>
