<?xml version="1.0" encoding="UTF-8"?>
<!DOCTYPE svg PUBLIC "-//W3C//DTD SVG 1.1//EN" "http://www.w3.org/Graphics/SVG/1.1/DTD/svg11.dtd">
<svg xmlns="http://www.w3.org/2000/svg" version="1.1" width="192px" height="192px" style="shape-rendering:geometricPrecision; text-rendering:geometricPrecision; image-rendering:optimizeQuality; fill-rule:evenodd; clip-rule:evenodd" xmlns:xlink="http://www.w3.org/1999/xlink">
<g><path style="opacity:1" fill="#16114f" d="M 44.5,18.5 C 42.1667,18.5 39.8333,18.5 37.5,18.5C 37.5,16.5 37.5,14.5 37.5,12.5C 39.8333,12.5 42.1667,12.5 44.5,12.5C 44.5,14.5 44.5,16.5 44.5,18.5 Z"/></g>
<g><path style="opacity:1" fill="#16114f" d="M 163.5,18.5 C 161.167,18.5 158.833,18.5 156.5,18.5C 156.5,16.5 156.5,14.5 156.5,12.5C 158.833,12.5 161.167,12.5 163.5,12.5C 163.5,14.5 163.5,16.5 163.5,18.5 Z"/></g>
<g><path style="opacity:1" fill="#16114f" d="M 37.5,18.5 C 37.5,23.8333 37.5,29.1667 37.5,34.5C 35.5,34.5 33.5,34.5 31.5,34.5C 31.5,29.1667 31.5,23.8333 31.5,18.5C 33.5,18.5 35.5,18.5 37.5,18.5 Z"/></g>
<g><path style="opacity:1" fill="#ea05a0" d="M 37.5,18.5 C 39.8333,18.5 42.1667,18.5 44.5,18.5C 44.5,20.1667 44.5,21.8333 44.5,23.5C 46.8333,23.5 49.1667,23.5 51.5,23.5C 51.5,25.8333 51.5,28.1667 51.5,30.5C 49.1667,30.5 46.8333,30.5 44.5,30.5C 44.5,32.1667 44.5,33.8333 44.5,35.5C 42.1667,35.5 39.8333,35.5 37.5,35.5C 37.5,35.1667 37.5,34.8333 37.5,34.5C 37.5,29.1667 37.5,23.8333 37.5,18.5 Z"/></g>
<g><path style="opacity:1" fill="#ea05a0" d="M 156.5,18.5 C 158.833,18.5 161.167,18.5 163.5,18.5C 163.5,23.8333 163.5,29.1667 163.5,34.5C 163.5,34.8333 163.5,35.1667 163.5,35.5C 161.167,35.5 158.833,35.5 156.5,35.5C 156.5,33.8333 156.5,32.1667 156.5,30.5C 154.167,30.5 151.833,30.5 149.5,30.5C 149.5,28.1667 149.5,25.8333 149.5,23.5C 151.833,23.5 154.167,23.5 156.5,23.5C 156.5,21.8333 156.5,20.1667 156.5,18.5 Z"/></g>
<g><path style="opacity:1" fill="#16114f" d="M 163.5,18.5 C 165.5,18.5 167.5,18.5 169.5,18.5C 169.5,23.8333 169.5,29.1667 169.5,34.5C 167.5,34.5 165.5,34.5 163.5,34.5C 163.5,29.1667 163.5,23.8333 163.5,18.5 Z"/></g>
<g><path style="opacity:1" fill="#15114e" d="M 44.5,18.5 C 48.5,18.5 52.5,18.5 56.5,18.5C 56.5,22.5 56.5,26.5 56.5,30.5C 55.1667,30.5 53.8333,30.5 52.5,30.5C 52.5,32.1667 52.5,33.8333 52.5,35.5C 50.1667,35.5 47.8333,35.5 45.5,35.5C 45.5,37.5 45.5,39.5 45.5,41.5C 47.1667,41.5 48.8333,41.5 50.5,41.5C 50.5,43.1667 50.5,44.8333 50.5,46.5C 52.8333,46.5 55.1667,46.5 57.5,46.5C 57.5,48.5 57.5,50.5 57.5,52.5C 55.5,52.5 53.5,52.5 51.5,52.5C 51.5,54.8333 51.5,57.1667 51.5,59.5C 49.1667,59.5 46.8333,59.5 44.5,59.5C 44.5,62.1667 44.5,64.8333 44.5,67.5C 42.1667,67.5 39.8333,67.5 37.5,67.5C 37.5,64.5 37.5,61.5 37.5,58.5C 39.8333,58.5 42.1667,58.5 44.5,58.5C 44.5,56.5 44.5,54.5 44.5,52.5C 45.5,52.5 46.5,52.5 47.5,52.5C 47.5,50.5 47.5,48.5 47.5,46.5C 46.5,46.5 45.5,46.5 44.5,46.5C 44.5,44.8333 44.5,43.1667 44.5,41.5C 42.1667,41.5 39.8333,41.5 37.5,41.5C 37.5,39.5 37.5,37.5 37.5,35.5C 39.8333,35.5 42.1667,35.5 44.5,35.5C 44.5,33.8333 44.5,32.1667 44.5,30.5C 46.8333,30.5 49.1667,30.5 51.5,30.5C 51.5,28.1667 51.5,25.8333 51.5,23.5C 49.1667,23.5 46.8333,23.5 44.5,23.5C 44.5,21.8333 44.5,20.1667 44.5,18.5 Z"/></g>
<g><path style="opacity:1" fill="#16114f" d="M 131.5,40.5 C 110.833,40.5 90.1667,40.5 69.5,40.5C 69.5,38.5 69.5,36.5 69.5,34.5C 90.1667,34.5 110.833,34.5 131.5,34.5C 131.5,36.5 131.5,38.5 131.5,40.5 Z"/></g>
<g><path style="opacity:1" fill="#15114e" d="M 156.5,18.5 C 156.5,20.1667 156.5,21.8333 156.5,23.5C 154.167,23.5 151.833,23.5 149.5,23.5C 149.5,25.8333 149.5,28.1667 149.5,30.5C 151.833,30.5 154.167,30.5 156.5,30.5C 156.5,32.1667 156.5,33.8333 156.5,35.5C 158.833,35.5 161.167,35.5 163.5,35.5C 163.5,37.5 163.5,39.5 163.5,41.5C 161.167,41.5 158.833,41.5 156.5,41.5C 156.5,43.1667 156.5,44.8333 156.5,46.5C 155.5,46.5 154.5,46.5 153.5,46.5C 153.5,48.5 153.5,50.5 153.5,52.5C 154.5,52.5 155.5,52.5 156.5,52.5C 156.5,54.5 156.5,56.5 156.5,58.5C 158.833,58.5 161.167,58.5 163.5,58.5C 163.5,61.5 163.5,64.5 163.5,67.5C 161.167,67.5 158.833,67.5 156.5,67.5C 156.5,64.8333 156.5,62.1667 156.5,59.5C 154.167,59.5 151.833,59.5 149.5,59.5C 149.5,57.1667 149.5,54.8333 149.5,52.5C 147.5,52.5 145.5,52.5 143.5,52.5C 143.5,50.5 143.5,48.5 143.5,46.5C 145.833,46.5 148.167,46.5 150.5,46.5C 150.5,44.8333 150.5,43.1667 150.5,41.5C 152.167,41.5 153.833,41.5 155.5,41.5C 155.5,39.5 155.5,37.5 155.5,35.5C 153.167,35.5 150.833,35.5 148.5,35.5C 148.5,33.8333 148.5,32.1667 148.5,30.5C 147.167,30.5 145.833,30.5 144.5,30.5C 144.5,26.5 144.5,22.5 144.5,18.5C 148.5,18.5 152.5,18.5 156.5,18.5 Z"/></g>
<g><path style="opacity:1" fill="#16114f" d="M 69.5,40.5 C 69.5,42.5 69.5,44.5 69.5,46.5C 67.5,46.5 65.5,46.5 63.5,46.5C 61.5,46.5 59.5,46.5 57.5,46.5C 57.5,44.5 57.5,42.5 57.5,40.5C 61.5,40.5 65.5,40.5 69.5,40.5 Z"/></g>
<g><path style="opacity:1" fill="#f5faf9" d="M 69.5,40.5 C 90.1667,40.5 110.833,40.5 131.5,40.5C 131.5,42.5 131.5,44.5 131.5,46.5C 131.5,48.5 131.5,50.5 131.5,52.5C 110.833,52.5 90.1667,52.5 69.5,52.5C 69.5,50.5 69.5,48.5 69.5,46.5C 69.5,44.5 69.5,42.5 69.5,40.5 Z"/></g>
<g><path style="opacity:1" fill="#16114f" d="M 131.5,40.5 C 135.5,40.5 139.5,40.5 143.5,40.5C 143.5,42.5 143.5,44.5 143.5,46.5C 141.5,46.5 139.5,46.5 137.5,46.5C 135.5,46.5 133.5,46.5 131.5,46.5C 131.5,44.5 131.5,42.5 131.5,40.5 Z"/></g>
<g><path style="opacity:1" fill="#acdcd5" d="M 57.5,46.5 C 59.5,46.5 61.5,46.5 63.5,46.5C 63.5,48.8333 63.5,51.1667 63.5,53.5C 61.5,53.5 59.5,53.5 57.5,53.5C 57.5,55.5 57.5,57.5 57.5,59.5C 86.1667,59.5 114.833,59.5 143.5,59.5C 143.5,57.5 143.5,55.5 143.5,53.5C 141.5,53.5 139.5,53.5 137.5,53.5C 137.5,51.1667 137.5,48.8333 137.5,46.5C 139.5,46.5 141.5,46.5 143.5,46.5C 143.5,48.5 143.5,50.5 143.5,52.5C 145.5,52.5 147.5,52.5 149.5,52.5C 149.5,54.8333 149.5,57.1667 149.5,59.5C 151.833,59.5 154.167,59.5 156.5,59.5C 156.5,62.1667 156.5,64.8333 156.5,67.5C 158.833,67.5 161.167,67.5 163.5,67.5C 163.5,69.5 163.5,71.5 163.5,73.5C 163.5,75.5 163.5,77.5 163.5,79.5C 161.5,79.5 159.5,79.5 157.5,79.5C 157.5,77.1667 157.5,74.8333 157.5,72.5C 155.167,72.5 152.833,72.5 150.5,72.5C 150.5,70.5 150.5,68.5 150.5,66.5C 148.167,66.5 145.833,66.5 143.5,66.5C 143.5,64.5 143.5,62.5 143.5,60.5C 114.833,60.5 86.1667,60.5 57.5,60.5C 57.5,62.5 57.5,64.5 57.5,66.5C 55.1667,66.5 52.8333,66.5 50.5,66.5C 50.5,68.5 50.5,70.5 50.5,72.5C 48.1667,72.5 45.8333,72.5 43.5,72.5C 43.5,74.8333 43.5,77.1667 43.5,79.5C 41.5,79.5 39.5,79.5 37.5,79.5C 37.5,77.5 37.5,75.5 37.5,73.5C 37.5,71.5 37.5,69.5 37.5,67.5C 39.8333,67.5 42.1667,67.5 44.5,67.5C 44.5,64.8333 44.5,62.1667 44.5,59.5C 46.8333,59.5 49.1667,59.5 51.5,59.5C 51.5,57.1667 51.5,54.8333 51.5,52.5C 53.5,52.5 55.5,52.5 57.5,52.5C 57.5,50.5 57.5,48.5 57.5,46.5 Z"/></g>
<g><path style="opacity:1" fill="#e8eae3" d="M 63.5,46.5 C 65.5,46.5 67.5,46.5 69.5,46.5C 69.5,48.5 69.5,50.5 69.5,52.5C 90.1667,52.5 110.833,52.5 131.5,52.5C 131.5,50.5 131.5,48.5 131.5,46.5C 133.5,46.5 135.5,46.5 137.5,46.5C 137.5,48.8333 137.5,51.1667 137.5,53.5C 139.5,53.5 141.5,53.5 143.5,53.5C 143.5,55.5 143.5,57.5 143.5,59.5C 114.833,59.5 86.1667,59.5 57.5,59.5C 57.5,57.5 57.5,55.5 57.5,53.5C 59.5,53.5 61.5,53.5 63.5,53.5C 63.5,51.1667 63.5,48.8333 63.5,46.5 Z"/></g>
<g><path style="opacity:1" fill="#21ef7f" d="M 143.5,66.5 C 114.833,66.5 86.1667,66.5 57.5,66.5C 57.5,64.5 57.5,62.5 57.5,60.5C 86.1667,60.5 114.833,60.5 143.5,60.5C 143.5,62.5 143.5,64.5 143.5,66.5 Z"/></g>
<g><path style="opacity:1" fill="#21ef7f" d="M 57.5,66.5 C 57.5,68.8333 57.5,71.1667 57.5,73.5C 55.1667,73.5 52.8333,73.5 50.5,73.5C 50.5,75.5 50.5,77.5 50.5,79.5C 48.1667,79.5 45.8333,79.5 43.5,79.5C 43.5,77.1667 43.5,74.8333 43.5,72.5C 45.8333,72.5 48.1667,72.5 50.5,72.5C 50.5,70.5 50.5,68.5 50.5,66.5C 52.8333,66.5 55.1667,66.5 57.5,66.5 Z"/></g>
<g><path style="opacity:1" fill="#21ef7f" d="M 143.5,66.5 C 145.833,66.5 148.167,66.5 150.5,66.5C 150.5,68.5 150.5,70.5 150.5,72.5C 152.833,72.5 155.167,72.5 157.5,72.5C 157.5,74.8333 157.5,77.1667 157.5,79.5C 155.167,79.5 152.833,79.5 150.5,79.5C 150.5,77.5 150.5,75.5 150.5,73.5C 148.167,73.5 145.833,73.5 143.5,73.5C 143.5,71.1667 143.5,68.8333 143.5,66.5 Z"/></g>
<g><path style="opacity:1" fill="#16114f" d="M 37.5,67.5 C 37.5,69.5 37.5,71.5 37.5,73.5C 35.5,73.5 33.5,73.5 31.5,73.5C 31.5,71.5 31.5,69.5 31.5,67.5C 33.5,67.5 35.5,67.5 37.5,67.5 Z"/></g>
<g><path style="opacity:1" fill="#16114f" d="M 163.5,67.5 C 165.5,67.5 167.5,67.5 169.5,67.5C 169.5,69.5 169.5,71.5 169.5,73.5C 167.5,73.5 165.5,73.5 163.5,73.5C 163.5,71.5 163.5,69.5 163.5,67.5 Z"/></g>
<g><path style="opacity:1" fill="#21ef7f" d="M 31.5,73.5 C 33.5,73.5 35.5,73.5 37.5,73.5C 37.5,75.5 37.5,77.5 37.5,79.5C 39.5,79.5 41.5,79.5 43.5,79.5C 43.5,100.5 43.5,121.5 43.5,142.5C 41.8333,142.5 40.1667,142.5 38.5,142.5C 38.5,144.5 38.5,146.5 38.5,148.5C 36.1667,148.5 33.8333,148.5 31.5,148.5C 31.5,142.833 31.5,137.167 31.5,131.5C 33.5,131.5 35.5,131.5 37.5,131.5C 37.5,114.5 37.5,97.5 37.5,80.5C 35.5,80.5 33.5,80.5 31.5,80.5C 31.5,78.5 31.5,76.5 31.5,74.5C 31.5,74.1667 31.5,73.8333 31.5,73.5 Z"/></g>
<g><path style="opacity:1" fill="#21ef7f" d="M 163.5,73.5 C 165.5,73.5 167.5,73.5 169.5,73.5C 169.5,73.8333 169.5,74.1667 169.5,74.5C 169.5,76.5 169.5,78.5 169.5,80.5C 167.5,80.5 165.5,80.5 163.5,80.5C 163.5,97.5 163.5,114.5 163.5,131.5C 165.5,131.5 167.5,131.5 169.5,131.5C 169.5,137.167 169.5,142.833 169.5,148.5C 167.167,148.5 164.833,148.5 162.5,148.5C 162.5,146.5 162.5,144.5 162.5,142.5C 160.833,142.5 159.167,142.5 157.5,142.5C 157.5,121.5 157.5,100.5 157.5,79.5C 159.5,79.5 161.5,79.5 163.5,79.5C 163.5,77.5 163.5,75.5 163.5,73.5 Z"/></g>
<g><path style="opacity:1" fill="#15114e" d="M 31.5,74.5 C 31.5,76.5 31.5,78.5 31.5,80.5C 31.5,88.8333 31.5,97.1667 31.5,105.5C 29.1667,105.5 26.8333,105.5 24.5,105.5C 24.5,107.5 24.5,109.5 24.5,111.5C 22.5,111.5 20.5,111.5 18.5,111.5C 18.5,107.833 18.5,104.167 18.5,100.5C 20.8333,100.5 23.1667,100.5 25.5,100.5C 25.5,91.8333 25.5,83.1667 25.5,74.5C 27.5,74.5 29.5,74.5 31.5,74.5 Z"/></g>
<g><path style="opacity:1" fill="#15114e" d="M 169.5,74.5 C 171.5,74.5 173.5,74.5 175.5,74.5C 175.5,83.1667 175.5,91.8333 175.5,100.5C 177.833,100.5 180.167,100.5 182.5,100.5C 182.5,104.167 182.5,107.833 182.5,111.5C 180.5,111.5 178.5,111.5 176.5,111.5C 176.5,109.5 176.5,107.5 176.5,105.5C 174.167,105.5 171.833,105.5 169.5,105.5C 169.5,97.1667 169.5,88.8333 169.5,80.5C 169.5,78.5 169.5,76.5 169.5,74.5 Z"/></g>
<g><path style="opacity:1" fill="#00001e" d="M 57.5,66.5 C 86.1667,66.5 114.833,66.5 143.5,66.5C 143.5,68.8333 143.5,71.1667 143.5,73.5C 145.833,73.5 148.167,73.5 150.5,73.5C 150.5,75.5 150.5,77.5 150.5,79.5C 152.833,79.5 155.167,79.5 157.5,79.5C 157.5,100.5 157.5,121.5 157.5,142.5C 154.833,142.5 152.167,142.5 149.5,142.5C 149.5,144.5 149.5,146.5 149.5,148.5C 116.833,148.5 84.1667,148.5 51.5,148.5C 51.5,146.5 51.5,144.5 51.5,142.5C 48.8333,142.5 46.1667,142.5 43.5,142.5C 43.5,121.5 43.5,100.5 43.5,79.5C 45.8333,79.5 48.1667,79.5 50.5,79.5C 50.5,77.5 50.5,75.5 50.5,73.5C 52.8333,73.5 55.1667,73.5 57.5,73.5C 57.5,71.1667 57.5,68.8333 57.5,66.5 Z"/></g>
<g><path style="opacity:1" fill="#acddd3" d="M 31.5,80.5 C 33.5,80.5 35.5,80.5 37.5,80.5C 37.5,97.5 37.5,114.5 37.5,131.5C 35.5,131.5 33.5,131.5 31.5,131.5C 31.5,124.833 31.5,118.167 31.5,111.5C 31.5,109.5 31.5,107.5 31.5,105.5C 31.5,97.1667 31.5,88.8333 31.5,80.5 Z"/></g>
<g><path style="opacity:1" fill="#acddd3" d="M 169.5,80.5 C 169.5,88.8333 169.5,97.1667 169.5,105.5C 169.5,107.5 169.5,109.5 169.5,111.5C 169.5,118.167 169.5,124.833 169.5,131.5C 167.5,131.5 165.5,131.5 163.5,131.5C 163.5,114.5 163.5,97.5 163.5,80.5C 165.5,80.5 167.5,80.5 169.5,80.5 Z"/></g>
<g><path style="opacity:1" fill="#000010" d="M 58.5,120.5 C 64.1667,120.5 69.8333,120.5 75.5,120.5C 75.5,111.167 75.5,101.833 75.5,92.5C 71.5,92.5 67.5,92.5 63.5,92.5C 63.5,94.8333 63.5,97.1667 63.5,99.5C 61.5,99.5 59.5,99.5 57.5,99.5C 57.5,106.5 57.5,113.5 57.5,120.5C 56.179,117.402 55.5123,113.902 55.5,110C 55.7544,103.824 56.0877,97.6572 56.5,91.5C 63.5,91.5 70.5,91.5 77.5,91.5C 77.5,101.5 77.5,111.5 77.5,121.5C 70.9779,121.823 64.6446,121.49 58.5,120.5 Z"/></g>
<g><path style="opacity:1" fill="#000010" d="M 143.5,120.5 C 143.5,113.5 143.5,106.5 143.5,99.5C 141.5,99.5 139.5,99.5 137.5,99.5C 137.5,97.1667 137.5,94.8333 137.5,92.5C 133.5,92.5 129.5,92.5 125.5,92.5C 125.5,101.833 125.5,111.167 125.5,120.5C 131.167,120.5 136.833,120.5 142.5,120.5C 136.355,121.49 130.022,121.823 123.5,121.5C 123.5,111.5 123.5,101.5 123.5,91.5C 130.5,91.5 137.5,91.5 144.5,91.5C 144.912,97.6572 145.246,103.824 145.5,110C 145.488,113.902 144.821,117.402 143.5,120.5 Z"/></g>
<g><path style="opacity:1" fill="#fdfffd" d="M 58.5,120.5 C 58.1667,120.5 57.8333,120.5 57.5,120.5C 57.5,113.5 57.5,106.5 57.5,99.5C 59.5,99.5 61.5,99.5 63.5,99.5C 63.5,97.1667 63.5,94.8333 63.5,92.5C 67.5,92.5 71.5,92.5 75.5,92.5C 75.5,101.833 75.5,111.167 75.5,120.5C 69.8333,120.5 64.1667,120.5 58.5,120.5 Z"/></g>
<g><path style="opacity:1" fill="#fdfffd" d="M 143.5,120.5 C 143.167,120.5 142.833,120.5 142.5,120.5C 136.833,120.5 131.167,120.5 125.5,120.5C 125.5,111.167 125.5,101.833 125.5,92.5C 129.5,92.5 133.5,92.5 137.5,92.5C 137.5,94.8333 137.5,97.1667 137.5,99.5C 139.5,99.5 141.5,99.5 143.5,99.5C 143.5,106.5 143.5,113.5 143.5,120.5 Z"/></g>
<g><path style="opacity:1" fill="#f40f9f" d="M 31.5,105.5 C 31.5,107.5 31.5,109.5 31.5,111.5C 29.1667,111.5 26.8333,111.5 24.5,111.5C 24.5,109.5 24.5,107.5 24.5,105.5C 26.8333,105.5 29.1667,105.5 31.5,105.5 Z"/></g>
<g><path style="opacity:1" fill="#f40f9f" d="M 169.5,105.5 C 171.833,105.5 174.167,105.5 176.5,105.5C 176.5,107.5 176.5,109.5 176.5,111.5C 174.167,111.5 171.833,111.5 169.5,111.5C 169.5,109.5 169.5,107.5 169.5,105.5 Z"/></g>
<g><path style="opacity:1" fill="#f40f9f" d="M 18.5,111.5 C 20.5,111.5 22.5,111.5 24.5,111.5C 24.5,114.5 24.5,117.5 24.5,120.5C 22.5,120.5 20.5,120.5 18.5,120.5C 18.5,117.833 18.5,115.167 18.5,112.5C 18.5,112.167 18.5,111.833 18.5,111.5 Z"/></g>
<g><path style="opacity:1" fill="#15124e" d="M 24.5,111.5 C 26.8333,111.5 29.1667,111.5 31.5,111.5C 31.5,118.167 31.5,124.833 31.5,131.5C 31.5,137.167 31.5,142.833 31.5,148.5C 33.8333,148.5 36.1667,148.5 38.5,148.5C 38.5,150.5 38.5,152.5 38.5,154.5C 40.5,154.5 42.5,154.5 44.5,154.5C 44.5,156.5 44.5,158.5 44.5,160.5C 40.1667,160.5 35.8333,160.5 31.5,160.5C 31.5,158.5 31.5,156.5 31.5,154.5C 29.1667,154.5 26.8333,154.5 24.5,154.5C 24.5,146.833 24.5,139.167 24.5,131.5C 22.5,131.5 20.5,131.5 18.5,131.5C 18.5,127.833 18.5,124.167 18.5,120.5C 20.5,120.5 22.5,120.5 24.5,120.5C 24.5,117.5 24.5,114.5 24.5,111.5 Z"/></g>
<g><path style="opacity:1" fill="#15124e" d="M 169.5,111.5 C 171.833,111.5 174.167,111.5 176.5,111.5C 176.5,114.5 176.5,117.5 176.5,120.5C 178.5,120.5 180.5,120.5 182.5,120.5C 182.5,124.167 182.5,127.833 182.5,131.5C 180.5,131.5 178.5,131.5 176.5,131.5C 176.5,139.167 176.5,146.833 176.5,154.5C 174.167,154.5 171.833,154.5 169.5,154.5C 169.5,156.5 169.5,158.5 169.5,160.5C 165.167,160.5 160.833,160.5 156.5,160.5C 156.5,158.5 156.5,156.5 156.5,154.5C 158.5,154.5 160.5,154.5 162.5,154.5C 162.5,152.5 162.5,150.5 162.5,148.5C 164.833,148.5 167.167,148.5 169.5,148.5C 169.5,142.833 169.5,137.167 169.5,131.5C 169.5,124.833 169.5,118.167 169.5,111.5 Z"/></g>
<g><path style="opacity:1" fill="#f40f9f" d="M 176.5,111.5 C 178.5,111.5 180.5,111.5 182.5,111.5C 182.5,111.833 182.5,112.167 182.5,112.5C 182.5,115.167 182.5,117.833 182.5,120.5C 180.5,120.5 178.5,120.5 176.5,120.5C 176.5,117.5 176.5,114.5 176.5,111.5 Z"/></g>
<g><path style="opacity:1" fill="#16114f" d="M 18.5,112.5 C 18.5,115.167 18.5,117.833 18.5,120.5C 16.5,120.5 14.5,120.5 12.5,120.5C 12.5,117.833 12.5,115.167 12.5,112.5C 14.5,112.5 16.5,112.5 18.5,112.5 Z"/></g>
<g><path style="opacity:1" fill="#16114f" d="M 182.5,112.5 C 184.5,112.5 186.5,112.5 188.5,112.5C 188.5,115.167 188.5,117.833 188.5,120.5C 186.5,120.5 184.5,120.5 182.5,120.5C 182.5,117.833 182.5,115.167 182.5,112.5 Z"/></g>
<g><path style="opacity:1" fill="#fefffe" d="M 85.5,133.5 C 95.5,133.5 105.5,133.5 115.5,133.5C 115.5,135.5 115.5,137.5 115.5,139.5C 105.5,139.5 95.5,139.5 85.5,139.5C 85.5,137.5 85.5,135.5 85.5,133.5 Z"/></g>
<g><path style="opacity:1" fill="#acddd3" d="M 43.5,142.5 C 43.5,144.5 43.5,146.5 43.5,148.5C 41.8333,148.5 40.1667,148.5 38.5,148.5C 38.5,146.5 38.5,144.5 38.5,142.5C 40.1667,142.5 41.8333,142.5 43.5,142.5 Z"/></g>
<g><path style="opacity:1" fill="#132147" d="M 43.5,142.5 C 46.1667,142.5 48.8333,142.5 51.5,142.5C 51.5,144.5 51.5,146.5 51.5,148.5C 84.1667,148.5 116.833,148.5 149.5,148.5C 149.5,146.5 149.5,144.5 149.5,142.5C 152.167,142.5 154.833,142.5 157.5,142.5C 157.5,144.5 157.5,146.5 157.5,148.5C 157.167,148.5 156.833,148.5 156.5,148.5C 154.5,148.5 152.5,148.5 150.5,148.5C 150.5,150.5 150.5,152.5 150.5,154.5C 150.167,154.5 149.833,154.5 149.5,154.5C 116.833,154.5 84.1667,154.5 51.5,154.5C 51.1667,154.5 50.8333,154.5 50.5,154.5C 50.5,152.5 50.5,150.5 50.5,148.5C 48.5,148.5 46.5,148.5 44.5,148.5C 44.1667,148.5 43.8333,148.5 43.5,148.5C 43.5,146.5 43.5,144.5 43.5,142.5 Z"/></g>
<g><path style="opacity:1" fill="#acddd3" d="M 157.5,142.5 C 159.167,142.5 160.833,142.5 162.5,142.5C 162.5,144.5 162.5,146.5 162.5,148.5C 160.833,148.5 159.167,148.5 157.5,148.5C 157.5,146.5 157.5,144.5 157.5,142.5 Z"/></g>
<g><path style="opacity:1" fill="#21ef7f" d="M 38.5,148.5 C 40.1667,148.5 41.8333,148.5 43.5,148.5C 43.8333,148.5 44.1667,148.5 44.5,148.5C 44.5,150.5 44.5,152.5 44.5,154.5C 42.5,154.5 40.5,154.5 38.5,154.5C 38.5,152.5 38.5,150.5 38.5,148.5 Z"/></g>
<g><path style="opacity:1" fill="#acddd3" d="M 44.5,148.5 C 46.5,148.5 48.5,148.5 50.5,148.5C 50.5,150.5 50.5,152.5 50.5,154.5C 48.5,154.5 46.5,154.5 44.5,154.5C 44.5,152.5 44.5,150.5 44.5,148.5 Z"/></g>
<g><path style="opacity:1" fill="#acddd3" d="M 156.5,148.5 C 156.5,150.5 156.5,152.5 156.5,154.5C 154.5,154.5 152.5,154.5 150.5,154.5C 150.5,152.5 150.5,150.5 150.5,148.5C 152.5,148.5 154.5,148.5 156.5,148.5 Z"/></g>
<g><path style="opacity:1" fill="#21ef7f" d="M 156.5,148.5 C 156.833,148.5 157.167,148.5 157.5,148.5C 159.167,148.5 160.833,148.5 162.5,148.5C 162.5,150.5 162.5,152.5 162.5,154.5C 160.5,154.5 158.5,154.5 156.5,154.5C 156.5,152.5 156.5,150.5 156.5,148.5 Z"/></g>
<g><path style="opacity:1" fill="#21ef7f" d="M 44.5,154.5 C 46.5,154.5 48.5,154.5 50.5,154.5C 50.8333,154.5 51.1667,154.5 51.5,154.5C 51.5,156.5 51.5,158.5 51.5,160.5C 49.1667,160.5 46.8333,160.5 44.5,160.5C 44.5,158.5 44.5,156.5 44.5,154.5 Z"/></g>
<g><path style="opacity:1" fill="#21ef7f" d="M 149.5,154.5 C 149.833,154.5 150.167,154.5 150.5,154.5C 152.5,154.5 154.5,154.5 156.5,154.5C 156.5,156.5 156.5,158.5 156.5,160.5C 154.167,160.5 151.833,160.5 149.5,160.5C 149.5,158.5 149.5,156.5 149.5,154.5 Z"/></g>
<g><path style="opacity:1" fill="#bed8d8" d="M 51.5,154.5 C 84.1667,154.5 116.833,154.5 149.5,154.5C 149.5,156.5 149.5,158.5 149.5,160.5C 116.833,160.5 84.1667,160.5 51.5,160.5C 51.5,158.5 51.5,156.5 51.5,154.5 Z"/></g>
<g><path style="opacity:1" fill="#13124c" d="M 44.5,160.5 C 46.8333,160.5 49.1667,160.5 51.5,160.5C 51.5,162.167 51.5,163.833 51.5,165.5C 57.5,165.5 63.5,165.5 69.5,165.5C 69.5,167.5 69.5,169.5 69.5,171.5C 90.1667,171.5 110.833,171.5 131.5,171.5C 131.5,169.5 131.5,167.5 131.5,165.5C 137.5,165.5 143.5,165.5 149.5,165.5C 149.5,163.833 149.5,162.167 149.5,160.5C 151.833,160.5 154.167,160.5 156.5,160.5C 156.5,162.5 156.5,164.5 156.5,166.5C 154.167,166.5 151.833,166.5 149.5,166.5C 149.5,168.167 149.5,169.833 149.5,171.5C 145.486,171.334 141.486,171.501 137.5,172C 136.594,173.699 136.261,175.533 136.5,177.5C 140.833,177.5 145.167,177.5 149.5,177.5C 149.5,179.167 149.5,180.833 149.5,182.5C 145.5,182.5 141.5,182.5 137.5,182.5C 137.5,185.5 137.5,188.5 137.5,191.5C 135.5,191.5 133.5,191.5 131.5,191.5C 131.5,188.833 131.5,186.167 131.5,183.5C 110.833,183.5 90.1667,183.5 69.5,183.5C 69.5,186.167 69.5,188.833 69.5,191.5C 67.5,191.5 65.5,191.5 63.5,191.5C 63.5,188.5 63.5,185.5 63.5,182.5C 59.5,182.5 55.5,182.5 51.5,182.5C 51.5,180.833 51.5,179.167 51.5,177.5C 55.8333,177.5 60.1667,177.5 64.5,177.5C 64.7394,175.533 64.4061,173.699 63.5,172C 59.5138,171.501 55.5138,171.334 51.5,171.5C 51.5,169.833 51.5,168.167 51.5,166.5C 49.1667,166.5 46.8333,166.5 44.5,166.5C 44.5,164.5 44.5,162.5 44.5,160.5 Z"/></g>
<g><path style="opacity:1" fill="#20ef80" d="M 51.5,160.5 C 84.1667,160.5 116.833,160.5 149.5,160.5C 149.5,162.167 149.5,163.833 149.5,165.5C 143.5,165.5 137.5,165.5 131.5,165.5C 131.5,167.5 131.5,169.5 131.5,171.5C 110.833,171.5 90.1667,171.5 69.5,171.5C 69.5,169.5 69.5,167.5 69.5,165.5C 63.5,165.5 57.5,165.5 51.5,165.5C 51.5,163.833 51.5,162.167 51.5,160.5 Z"/></g>
<g><path style="opacity:1" fill="#ee0da3" d="M 51.5,182.5 C 55.5,182.5 59.5,182.5 63.5,182.5C 63.5,185.5 63.5,188.5 63.5,191.5C 59.5,191.5 55.5,191.5 51.5,191.5C 51.5,190.833 51.5,190.167 51.5,189.5C 51.5,187.5 51.5,185.5 51.5,183.5C 51.5,183.167 51.5,182.833 51.5,182.5 Z"/></g>
<g><path style="opacity:1" fill="#ee0da3" d="M 149.5,182.5 C 149.5,182.833 149.5,183.167 149.5,183.5C 149.5,185.5 149.5,187.5 149.5,189.5C 149.5,190.167 149.5,190.833 149.5,191.5C 145.5,191.5 141.5,191.5 137.5,191.5C 137.5,188.5 137.5,185.5 137.5,182.5C 141.5,182.5 145.5,182.5 149.5,182.5 Z"/></g>
<g><path style="opacity:1" fill="#16114f" d="M 51.5,183.5 C 51.5,185.5 51.5,187.5 51.5,189.5C 49.1667,189.5 46.8333,189.5 44.5,189.5C 44.5,187.5 44.5,185.5 44.5,183.5C 46.8333,183.5 49.1667,183.5 51.5,183.5 Z"/></g>
<g><path style="opacity:1" fill="#f7fdfa" d="M 131.5,191.5 C 129.5,191.5 127.5,191.5 125.5,191.5C 123.721,189.656 121.388,188.99 118.5,189.5C 106.5,189.5 94.5,189.5 82.5,189.5C 79.6122,188.99 77.2789,189.656 75.5,191.5C 73.5,191.5 71.5,191.5 69.5,191.5C 69.5,188.833 69.5,186.167 69.5,183.5C 90.1667,183.5 110.833,183.5 131.5,183.5C 131.5,186.167 131.5,188.833 131.5,191.5 Z"/></g>
<g><path style="opacity:1" fill="#16114f" d="M 149.5,183.5 C 151.833,183.5 154.167,183.5 156.5,183.5C 156.5,185.5 156.5,187.5 156.5,189.5C 154.167,189.5 151.833,189.5 149.5,189.5C 149.5,187.5 149.5,185.5 149.5,183.5 Z"/></g>
<g><path style="opacity:1" fill="#16114f" d="M 44.5,189.5 C 44.5,190.167 44.5,190.833 44.5,191.5C 42.1667,191.5 39.8333,191.5 37.5,191.5C 39.2789,189.656 41.6122,188.99 44.5,189.5 Z"/></g>
<g><path style="opacity:1" fill="#21f480" d="M 44.5,189.5 C 46.8333,189.5 49.1667,189.5 51.5,189.5C 51.5,190.167 51.5,190.833 51.5,191.5C 49.1667,191.5 46.8333,191.5 44.5,191.5C 44.5,190.833 44.5,190.167 44.5,189.5 Z"/></g>
<g><path style="opacity:1" fill="#21ef7f" d="M 82.5,189.5 C 82.5,190.167 82.5,190.833 82.5,191.5C 80.1667,191.5 77.8333,191.5 75.5,191.5C 77.2789,189.656 79.6122,188.99 82.5,189.5 Z"/></g>
<g><path style="opacity:1" fill="#14124d" d="M 82.5,189.5 C 94.5,189.5 106.5,189.5 118.5,189.5C 118.5,190.167 118.5,190.833 118.5,191.5C 106.5,191.5 94.5,191.5 82.5,191.5C 82.5,190.833 82.5,190.167 82.5,189.5 Z"/></g>
<g><path style="opacity:1" fill="#21ef7f" d="M 118.5,189.5 C 121.388,188.99 123.721,189.656 125.5,191.5C 123.167,191.5 120.833,191.5 118.5,191.5C 118.5,190.833 118.5,190.167 118.5,189.5 Z"/></g>
<g><path style="opacity:1" fill="#21f480" d="M 149.5,189.5 C 151.833,189.5 154.167,189.5 156.5,189.5C 156.5,190.167 156.5,190.833 156.5,191.5C 154.167,191.5 151.833,191.5 149.5,191.5C 149.5,190.833 149.5,190.167 149.5,189.5 Z"/></g>
<g><path style="opacity:1" fill="#16114f" d="M 156.5,189.5 C 159.388,188.99 161.721,189.656 163.5,191.5C 161.167,191.5 158.833,191.5 156.5,191.5C 156.5,190.833 156.5,190.167 156.5,189.5 Z"/></g>
</svg>
