<?xml version="1.0" encoding="UTF-8"?>
<!DOCTYPE svg PUBLIC "-//W3C//DTD SVG 1.1//EN" "http://www.w3.org/Graphics/SVG/1.1/DTD/svg11.dtd">
<svg xmlns="http://www.w3.org/2000/svg" version="1.1" width="908px" height="243px" style="shape-rendering:geometricPrecision; text-rendering:geometricPrecision; image-rendering:optimizeQuality; fill-rule:evenodd; clip-rule:evenodd" xmlns:xlink="http://www.w3.org/1999/xlink">
<g><path style="opacity:1" fill="#3a1be3" d="M -0.5,-0.5 C 302.167,-0.5 604.833,-0.5 907.5,-0.5C 907.5,80.5 907.5,161.5 907.5,242.5C 604.833,242.5 302.167,242.5 -0.5,242.5C -0.5,209.167 -0.5,175.833 -0.5,142.5C 1.83333,142.5 4.16667,142.5 6.5,142.5C 6.5,147.167 6.5,151.833 6.5,156.5C 9.16667,156.5 11.8333,156.5 14.5,156.5C 14.5,166.167 14.5,175.833 14.5,185.5C 17.5,185.5 20.5,185.5 23.5,185.5C 23.5,187.833 23.5,190.167 23.5,192.5C 28.8333,192.5 34.1667,192.5 39.5,192.5C 39.5,192.833 39.5,193.167 39.5,193.5C 39.5,195.833 39.5,198.167 39.5,200.5C 42.5,200.5 45.5,200.5 48.5,200.5C 48.5,202.5 48.5,204.5 48.5,206.5C 53.1785,206.334 57.8452,206.501 62.5,207C 64.2785,209.135 64.9452,211.635 64.5,214.5C 59.1667,214.5 53.8333,214.5 48.5,214.5C 47.5318,216.607 47.1984,218.941 47.5,221.5C 44.6146,221.194 41.9479,221.527 39.5,222.5C 39.5,224.833 39.5,227.167 39.5,229.5C 36.5178,229.104 33.8511,229.771 31.5,231.5C 34.0865,232.48 36.7531,232.813 39.5,232.5C 42.7131,232.81 45.7131,232.477 48.5,231.5C 53.5,231.5 58.5,231.5 63.5,231.5C 65.8333,231.5 68.1667,231.5 70.5,231.5C 75.9753,232.489 81.642,232.822 87.5,232.5C 102.5,232.5 117.5,232.5 132.5,232.5C 137.833,232.5 143.167,232.5 148.5,232.5C 156.167,232.5 163.833,232.5 171.5,232.5C 177.206,232.829 182.872,232.495 188.5,231.5C 186.255,229.377 183.588,228.377 180.5,228.5C 180.5,226.167 180.5,223.833 180.5,221.5C 177.5,221.5 174.5,221.5 171.5,221.5C 171.5,220.833 171.167,220.5 170.5,220.5C 170.5,218.5 170.5,216.5 170.5,214.5C 165.167,214.5 159.833,214.5 154.5,214.5C 154.22,211.728 154.887,209.228 156.5,207C 161.489,206.501 166.489,206.334 171.5,206.5C 171.5,204.5 171.5,202.5 171.5,200.5C 174.167,200.5 176.833,200.5 179.5,200.5C 179.5,198.167 179.5,195.833 179.5,193.5C 179.5,193.167 179.5,192.833 179.5,192.5C 179.833,192.5 180.167,192.5 180.5,192.5C 185.833,192.5 191.167,192.5 196.5,192.5C 196.5,190.167 196.5,187.833 196.5,185.5C 199.167,185.5 201.833,185.5 204.5,185.5C 204.5,175.833 204.5,166.167 204.5,156.5C 207.167,156.5 209.833,156.5 212.5,156.5C 212.5,151.833 212.5,147.167 212.5,142.5C 215.167,142.5 217.833,142.5 220.5,142.5C 220.5,139.167 220.5,135.833 220.5,132.5C 217.833,132.5 215.167,132.5 212.5,132.5C 212.5,132.167 212.5,131.833 212.5,131.5C 212.5,126.833 212.5,122.167 212.5,117.5C 209.5,117.5 206.5,117.5 203.5,117.5C 203.5,106.5 203.5,95.5 203.5,84.5C 201.167,84.5 198.833,84.5 196.5,84.5C 196.5,84.1667 196.5,83.8333 196.5,83.5C 196.5,81.1667 196.5,78.8333 196.5,76.5C 193.833,76.5 191.167,76.5 188.5,76.5C 188.5,76.1667 188.5,75.8333 188.5,75.5C 188.5,71.8333 188.5,68.1667 188.5,64.5C 185.833,64.5 183.167,64.5 180.5,64.5C 180.5,62.1667 180.5,59.8333 180.5,57.5C 179.167,57.5 177.833,57.5 176.5,57.5C 176.5,55.1667 176.5,52.8333 176.5,50.5C 177.5,50.5 178.5,50.5 179.5,50.5C 179.5,48.1667 179.5,45.8333 179.5,43.5C 182.5,43.5 185.5,43.5 188.5,43.5C 188.5,40.8333 188.5,38.1667 188.5,35.5C 188.5,35.1667 188.5,34.8333 188.5,34.5C 191.167,34.5 193.833,34.5 196.5,34.5C 196.5,27.8333 196.5,21.1667 196.5,14.5C 193.833,14.5 191.167,14.5 188.5,14.5C 188.5,12.1667 188.5,9.83333 188.5,7.5C 185.5,7.5 182.5,7.5 179.5,7.5C 179.5,9.83333 179.5,12.1667 179.5,14.5C 174.5,14.5 169.5,14.5 164.5,14.5C 164.5,19.5 164.5,24.5 164.5,29.5C 166.167,29.5 167.833,29.5 169.5,29.5C 169.5,31.8333 169.5,34.1667 169.5,36.5C 172.5,36.5 175.5,36.5 178.5,36.5C 178.5,38.8333 178.5,41.1667 178.5,43.5C 176.5,43.5 174.5,43.5 172.5,43.5C 172.5,45.5 172.5,47.5 172.5,49.5C 169.5,49.5 166.5,49.5 163.5,49.5C 163.5,47.1667 163.5,44.8333 163.5,42.5C 158.5,42.5 153.5,42.5 148.5,42.5C 148.5,40.1667 148.5,37.8333 148.5,35.5C 122.672,34.5022 96.672,34.1689 70.5,34.5C 70.5,37.1667 70.5,39.8333 70.5,42.5C 65.5,42.5 60.5,42.5 55.5,42.5C 55.5,44.8333 55.5,47.1667 55.5,49.5C 52.8333,49.5 50.1667,49.5 47.5,49.5C 47.5,47.5 47.5,45.5 47.5,43.5C 45.1667,43.5 42.8333,43.5 40.5,43.5C 40.5,41.1667 40.5,38.8333 40.5,36.5C 43.5,36.5 46.5,36.5 49.5,36.5C 49.5,34.1667 49.5,31.8333 49.5,29.5C 51.1667,29.5 52.8333,29.5 54.5,29.5C 54.5,24.5 54.5,19.5 54.5,14.5C 49.5,14.5 44.5,14.5 39.5,14.5C 39.5,12.1667 39.5,9.83333 39.5,7.5C 36.5,7.5 33.5,7.5 30.5,7.5C 30.5,9.83333 30.5,12.1667 30.5,14.5C 27.8333,14.5 25.1667,14.5 22.5,14.5C 22.176,21.3543 22.5093,28.021 23.5,34.5C 25.8333,34.5 28.1667,34.5 30.5,34.5C 30.5,35.1667 30.5,35.8333 30.5,36.5C 30.5,38.8333 30.5,41.1667 30.5,43.5C 33.5,43.5 36.5,43.5 39.5,43.5C 39.5,45.5 39.5,47.5 39.5,49.5C 40.8333,49.5 42.1667,49.5 43.5,49.5C 43.5,52.1667 43.5,54.8333 43.5,57.5C 42.1667,57.5 40.8333,57.5 39.5,57.5C 39.5,59.8333 39.5,62.1667 39.5,64.5C 36.5,64.5 33.5,64.5 30.5,64.5C 30.5,68.5 30.5,72.5 30.5,76.5C 28.1667,76.5 25.8333,76.5 23.5,76.5C 23.5,78.8333 23.5,81.1667 23.5,83.5C 23.5,83.8333 23.5,84.1667 23.5,84.5C 22.8333,84.5 22.5,84.8333 22.5,85.5C 20.1667,85.5 17.8333,85.5 15.5,85.5C 15.5,96.1667 15.5,106.833 15.5,117.5C 12.5,117.5 9.5,117.5 6.5,117.5C 6.5,122.167 6.5,126.833 6.5,131.5C 6.5,131.833 6.5,132.167 6.5,132.5C 4.16667,132.5 1.83333,132.5 -0.5,132.5C -0.5,88.1667 -0.5,43.8333 -0.5,-0.5 Z"/></g>
<g><path style="opacity:1" fill="#141152" d="M 39.5,14.5 C 36.5,14.5 33.5,14.5 30.5,14.5C 30.5,12.1667 30.5,9.83333 30.5,7.5C 33.5,7.5 36.5,7.5 39.5,7.5C 39.5,9.83333 39.5,12.1667 39.5,14.5 Z"/></g>
<g><path style="opacity:1" fill="#151154" d="M 188.5,14.5 C 185.5,14.5 182.5,14.5 179.5,14.5C 179.5,12.1667 179.5,9.83333 179.5,7.5C 182.5,7.5 185.5,7.5 188.5,7.5C 188.5,9.83333 188.5,12.1667 188.5,14.5 Z"/></g>
<g><path style="opacity:1" fill="#fdfafd" d="M 865.5,7.5 C 876.833,7.5 888.167,7.5 899.5,7.5C 899.5,44.5 899.5,81.5 899.5,118.5C 888.167,118.5 876.833,118.5 865.5,118.5C 865.5,81.5 865.5,44.5 865.5,7.5 Z"/></g>
<g><path style="opacity:1" fill="#14114e" d="M 30.5,15.5 C 30.5,21.8333 30.5,28.1667 30.5,34.5C 28.1667,34.5 25.8333,34.5 23.5,34.5C 23.5,28.1667 23.5,21.8333 23.5,15.5C 25.8333,15.5 28.1667,15.5 30.5,15.5 Z"/></g>
<g><path style="opacity:1" fill="#1a1155" d="M 188.5,14.5 C 191.167,14.5 193.833,14.5 196.5,14.5C 196.5,21.1667 196.5,27.8333 196.5,34.5C 193.833,34.5 191.167,34.5 188.5,34.5C 188.5,27.8333 188.5,21.1667 188.5,14.5 Z"/></g>
<g><path style="opacity:1" fill="#a294f2" d="M 589.5,41.5 C 577.833,41.5 566.167,41.5 554.5,41.5C 565.988,40.5051 577.655,40.1717 589.5,40.5C 589.5,32.5 589.5,24.5 589.5,16.5C 566.5,16.5 543.5,16.5 520.5,16.5C 520.5,50.1667 520.5,83.8333 520.5,117.5C 520.5,117.833 520.5,118.167 520.5,118.5C 519.502,84.3374 519.168,50.0041 519.5,15.5C 543.167,15.5 566.833,15.5 590.5,15.5C 590.826,24.3494 590.493,33.0161 589.5,41.5 Z"/></g>
<g><path style="opacity:1" fill="#9482f0" d="M 857.5,24.5 C 854.5,24.5 851.5,24.5 848.5,24.5C 848.5,21.8333 848.5,19.1667 848.5,16.5C 828.167,16.5 807.833,16.5 787.5,16.5C 787.5,19.1667 787.5,21.8333 787.5,24.5C 784.5,24.5 781.5,24.5 778.5,24.5C 780.948,23.5269 783.615,23.1936 786.5,23.5C 786.5,20.8333 786.5,18.1667 786.5,15.5C 807.5,15.5 828.5,15.5 849.5,15.5C 849.5,18.1667 849.5,20.8333 849.5,23.5C 852.385,23.1936 855.052,23.5269 857.5,24.5 Z"/></g>
<g><path style="opacity:1" fill="#261596" d="M 30.5,14.5 C 30.5,14.8333 30.5,15.1667 30.5,15.5C 28.1667,15.5 25.8333,15.5 23.5,15.5C 23.5,21.8333 23.5,28.1667 23.5,34.5C 22.5093,28.021 22.176,21.3543 22.5,14.5C 25.1667,14.5 27.8333,14.5 30.5,14.5 Z"/></g>
<g><path style="opacity:1" fill="#e0069d" d="M 30.5,14.5 C 33.5,14.5 36.5,14.5 39.5,14.5C 39.5,16.5 39.5,18.5 39.5,20.5C 42.5,20.5 45.5,20.5 48.5,20.5C 48.5,23.8333 48.5,27.1667 48.5,30.5C 45.5,30.5 42.5,30.5 39.5,30.5C 39.5,32.5 39.5,34.5 39.5,36.5C 36.5,36.5 33.5,36.5 30.5,36.5C 30.5,35.8333 30.5,35.1667 30.5,34.5C 30.5,28.1667 30.5,21.8333 30.5,15.5C 30.5,15.1667 30.5,14.8333 30.5,14.5 Z"/></g>
<g><path style="opacity:1" fill="#e7059f" d="M 179.5,14.5 C 182.5,14.5 185.5,14.5 188.5,14.5C 188.5,21.1667 188.5,27.8333 188.5,34.5C 188.5,34.8333 188.5,35.1667 188.5,35.5C 185.833,35.5 183.167,35.5 180.5,35.5C 180.5,33.5 180.5,31.5 180.5,29.5C 177.5,29.5 174.5,29.5 171.5,29.5C 171.5,26.5 171.5,23.5 171.5,20.5C 174.167,20.5 176.833,20.5 179.5,20.5C 179.5,18.5 179.5,16.5 179.5,14.5 Z"/></g>
<g><path style="opacity:1" fill="#a596f3" d="M 260.5,16.5 C 260.833,16.5 261.167,16.5 261.5,16.5C 261.168,50.3375 261.502,84.0041 262.5,117.5C 288.328,118.498 314.328,118.831 340.5,118.5C 314.005,119.498 287.339,119.831 260.5,119.5C 260.5,85.1667 260.5,50.8333 260.5,16.5 Z"/></g>
<g><path style="opacity:1" fill="#fef9fc" d="M 295.5,93.5 C 309.99,94.496 324.657,94.8293 339.5,94.5C 339.5,102.167 339.5,109.833 339.5,117.5C 313.833,117.5 288.167,117.5 262.5,117.5C 262.5,84.1667 262.5,50.8333 262.5,17.5C 273.167,17.5 283.833,17.5 294.5,17.5C 294.169,43.0055 294.502,68.3388 295.5,93.5 Z"/></g>
<g><path style="opacity:1" fill="#9989f1" d="M 260.5,16.5 C 272.322,15.5049 284.322,15.1716 296.5,15.5C 296.5,41.5 296.5,67.5 296.5,93.5C 296.167,93.5 295.833,93.5 295.5,93.5C 295.5,67.8333 295.5,42.1667 295.5,16.5C 284.167,16.5 272.833,16.5 261.5,16.5C 261.167,16.5 260.833,16.5 260.5,16.5 Z"/></g>
<g><path style="opacity:1" fill="#fcf7fd" d="M 417.5,16.5 C 417.5,24.8333 417.5,33.1667 417.5,41.5C 405.833,41.5 394.167,41.5 382.5,41.5C 382.5,44.5 382.5,47.5 382.5,50.5C 390.65,51.4927 398.983,51.8261 407.5,51.5C 407.5,59.1667 407.5,66.8333 407.5,74.5C 398.983,74.1739 390.65,74.5073 382.5,75.5C 382.5,81.5 382.5,87.5 382.5,93.5C 393.654,94.4948 404.988,94.8281 416.5,94.5C 416.5,102.167 416.5,109.833 416.5,117.5C 393.833,117.5 371.167,117.5 348.5,117.5C 348.5,83.8333 348.5,50.1667 348.5,16.5C 371.5,16.5 394.5,16.5 417.5,16.5 Z"/></g>
<g><path style="opacity:1" fill="#fbf8fd" d="M 425.5,16.5 C 436.833,16.5 448.167,16.5 459.5,16.5C 459.5,22.1667 459.5,27.8333 459.5,33.5C 461.948,34.4731 464.615,34.8064 467.5,34.5C 468.167,55.8333 468.833,55.8333 469.5,34.5C 472.385,34.8064 475.052,34.4731 477.5,33.5C 478.489,28.0247 478.822,22.358 478.5,16.5C 489.5,16.5 500.5,16.5 511.5,16.5C 511.5,27.1667 511.5,37.8333 511.5,48.5C 508.302,47.9644 505.635,48.631 503.5,50.5C 503.5,58.8333 503.5,67.1667 503.5,75.5C 500.833,75.5 498.167,75.5 495.5,75.5C 495.5,84.1667 495.5,92.8333 495.5,101.5C 492.5,101.5 489.5,101.5 486.5,101.5C 486.5,107.167 486.5,112.833 486.5,118.5C 474.833,118.5 463.167,118.5 451.5,118.5C 451.5,112.833 451.5,107.167 451.5,101.5C 448.5,101.5 445.5,101.5 442.5,101.5C 442.5,92.8333 442.5,84.1667 442.5,75.5C 439.833,75.5 437.167,75.5 434.5,75.5C 434.5,66.8333 434.5,58.1667 434.5,49.5C 431.5,49.5 428.5,49.5 425.5,49.5C 425.5,38.5 425.5,27.5 425.5,16.5 Z"/></g>
<g><path style="opacity:1" fill="#bfb4f6" d="M 478.5,16.5 C 489.654,15.5052 500.988,15.1719 512.5,15.5C 512.5,27.1667 512.5,38.8333 512.5,50.5C 509.5,50.5 506.5,50.5 503.5,50.5C 505.635,48.631 508.302,47.9644 511.5,48.5C 511.5,37.8333 511.5,27.1667 511.5,16.5C 500.5,16.5 489.5,16.5 478.5,16.5 Z"/></g>
<g><path style="opacity:1" fill="#fdf7fc" d="M 554.5,41.5 C 554.5,44.5 554.5,47.5 554.5,50.5C 563.167,50.5 571.833,50.5 580.5,50.5C 580.5,58.5 580.5,66.5 580.5,74.5C 571.651,74.1736 562.984,74.507 554.5,75.5C 554.5,81.5 554.5,87.5 554.5,93.5C 566.167,93.5 577.833,93.5 589.5,93.5C 589.5,101.5 589.5,109.5 589.5,117.5C 566.5,117.5 543.5,117.5 520.5,117.5C 520.5,83.8333 520.5,50.1667 520.5,16.5C 543.5,16.5 566.5,16.5 589.5,16.5C 589.5,24.5 589.5,32.5 589.5,40.5C 577.655,40.1717 565.988,40.5051 554.5,41.5 Z"/></g>
<g><path style="opacity:1" fill="#fdf8fd" d="M 718.5,84.5 C 724.5,84.5 730.5,84.5 736.5,84.5C 737.497,62.0061 737.831,39.3395 737.5,16.5C 748.5,16.5 759.5,16.5 770.5,16.5C 770.5,44.8333 770.5,73.1667 770.5,101.5C 767.833,101.5 765.167,101.5 762.5,101.5C 761.527,103.948 761.194,106.615 761.5,109.5C 758.615,109.194 755.948,109.527 753.5,110.5C 753.5,113.167 753.5,115.833 753.5,118.5C 736.167,118.5 718.833,118.5 701.5,118.5C 701.5,115.5 701.5,112.5 701.5,109.5C 698.5,109.5 695.5,109.5 692.5,109.5C 692.5,106.833 692.5,104.167 692.5,101.5C 689.833,101.5 687.167,101.5 684.5,101.5C 684.5,73.1667 684.5,44.8333 684.5,16.5C 695.5,16.5 706.5,16.5 717.5,16.5C 717.169,39.3395 717.503,62.0061 718.5,84.5 Z"/></g>
<g><path style="opacity:1" fill="#fdf9fd" d="M 848.5,24.5 C 850.948,25.4731 853.615,25.8064 856.5,25.5C 856.5,39.1667 856.5,52.8333 856.5,66.5C 853.615,66.1936 850.948,66.5269 848.5,67.5C 848.5,70.1667 848.5,72.8333 848.5,75.5C 845.5,75.5 842.5,75.5 839.5,75.5C 839.5,78.5 839.5,81.5 839.5,84.5C 830.833,84.5 822.167,84.5 813.5,84.5C 812.505,95.3206 812.172,106.321 812.5,117.5C 801.5,117.5 790.5,117.5 779.5,117.5C 779.5,86.8333 779.5,56.1667 779.5,25.5C 782.385,25.8064 785.052,25.4731 787.5,24.5C 787.5,21.8333 787.5,19.1667 787.5,16.5C 807.833,16.5 828.167,16.5 848.5,16.5C 848.5,19.1667 848.5,21.8333 848.5,24.5 Z"/></g>
<g><path style="opacity:1" fill="#eb0aa2" d="M 890.5,15.5 C 890.5,38.5 890.5,61.5 890.5,84.5C 884.833,84.5 879.167,84.5 873.5,84.5C 873.5,61.5 873.5,38.5 873.5,15.5C 879.167,15.5 884.833,15.5 890.5,15.5 Z"/></g>
<g><path style="opacity:1" fill="#f47acd" d="M 890.5,15.5 C 891.498,38.6607 891.831,61.994 891.5,85.5C 885.31,85.8229 879.31,85.4896 873.5,84.5C 879.167,84.5 884.833,84.5 890.5,84.5C 890.5,61.5 890.5,38.5 890.5,15.5 Z"/></g>
<g><path style="opacity:1" fill="#e8e3fc" d="M 261.5,16.5 C 272.833,16.5 284.167,16.5 295.5,16.5C 295.5,42.1667 295.5,67.8333 295.5,93.5C 294.502,68.3388 294.169,43.0055 294.5,17.5C 283.833,17.5 273.167,17.5 262.5,17.5C 262.5,50.8333 262.5,84.1667 262.5,117.5C 261.502,84.0041 261.168,50.3375 261.5,16.5 Z"/></g>
<g><path style="opacity:1" fill="#bcb0f5" d="M 718.5,84.5 C 717.503,62.0061 717.169,39.3395 717.5,16.5C 706.5,16.5 695.5,16.5 684.5,16.5C 684.5,44.8333 684.5,73.1667 684.5,101.5C 684.167,101.5 683.833,101.5 683.5,101.5C 683.5,72.8333 683.5,44.1667 683.5,15.5C 695.167,15.5 706.833,15.5 718.5,15.5C 718.5,38.5 718.5,61.5 718.5,84.5 Z"/></g>
<g><path style="opacity:1" fill="#b7acf5" d="M 770.5,101.5 C 770.5,73.1667 770.5,44.8333 770.5,16.5C 759.5,16.5 748.5,16.5 737.5,16.5C 737.831,39.3395 737.497,62.0061 736.5,84.5C 736.5,61.5 736.5,38.5 736.5,15.5C 748.167,15.5 759.833,15.5 771.5,15.5C 771.831,44.3382 771.498,73.0049 770.5,101.5 Z"/></g>
<g><path style="opacity:1" fill="#eb0ca2" d="M 287.5,101.5 C 302.167,101.5 316.833,101.5 331.5,101.5C 331.5,104.167 331.5,106.833 331.5,109.5C 311.167,109.5 290.833,109.5 270.5,109.5C 270.5,81.1667 270.5,52.8333 270.5,24.5C 275.833,24.5 281.167,24.5 286.5,24.5C 286.169,50.3388 286.502,76.0054 287.5,101.5 Z"/></g>
<g><path style="opacity:1" fill="#ec20a6" d="M 356.5,24.5 C 373.833,24.5 391.167,24.5 408.5,24.5C 408.5,27.1667 408.5,29.8333 408.5,32.5C 396.988,32.1719 385.654,32.5052 374.5,33.5C 373.507,41.6499 373.174,49.9832 373.5,58.5C 382.5,58.5 391.5,58.5 400.5,58.5C 400.5,61.5 400.5,64.5 400.5,67.5C 391.5,67.5 382.5,67.5 373.5,67.5C 373.5,78.8333 373.5,90.1667 373.5,101.5C 385.5,101.5 397.5,101.5 409.5,101.5C 409.5,104.5 409.5,107.5 409.5,110.5C 391.5,110.5 373.5,110.5 355.5,110.5C 355.169,81.6618 355.502,52.9951 356.5,24.5 Z"/></g>
<g><path style="opacity:1" fill="#eb1aa5" d="M 433.5,24.5 C 439.167,24.5 444.833,24.5 450.5,24.5C 450.178,30.358 450.511,36.0247 451.5,41.5C 454.5,41.5 457.5,41.5 460.5,41.5C 460.5,47.1667 460.5,52.8333 460.5,58.5C 463.5,58.5 466.5,58.5 469.5,58.5C 469.5,61.1667 469.5,63.8333 469.5,66.5C 471.948,67.4731 474.615,67.8064 477.5,67.5C 477.5,58.8333 477.5,50.1667 477.5,41.5C 480.5,41.5 483.5,41.5 486.5,41.5C 486.5,35.8333 486.5,30.1667 486.5,24.5C 492.5,24.5 498.5,24.5 504.5,24.5C 504.5,30.1667 504.5,35.8333 504.5,41.5C 501.5,41.5 498.5,41.5 495.5,41.5C 495.5,50.1667 495.5,58.8333 495.5,67.5C 492.5,67.5 489.5,67.5 486.5,67.5C 486.5,76.1667 486.5,84.8333 486.5,93.5C 483.5,93.5 480.5,93.5 477.5,93.5C 477.5,99.1667 477.5,104.833 477.5,110.5C 471.5,110.5 465.5,110.5 459.5,110.5C 459.5,104.833 459.5,99.1667 459.5,93.5C 456.5,93.5 453.5,93.5 450.5,93.5C 450.5,84.8333 450.5,76.1667 450.5,67.5C 447.833,67.5 445.167,67.5 442.5,67.5C 442.5,58.8333 442.5,50.1667 442.5,41.5C 439.5,41.5 436.5,41.5 433.5,41.5C 433.5,35.8333 433.5,30.1667 433.5,24.5 Z"/></g>
<g><path style="opacity:1" fill="#eb0fa2" d="M 546.5,58.5 C 554.984,59.493 563.651,59.8264 572.5,59.5C 572.5,61.8333 572.5,64.1667 572.5,66.5C 563.651,66.1736 554.984,66.507 546.5,67.5C 546.5,78.8333 546.5,90.1667 546.5,101.5C 558.167,101.5 569.833,101.5 581.5,101.5C 581.5,104.167 581.5,106.833 581.5,109.5C 564.167,109.5 546.833,109.5 529.5,109.5C 529.5,81.5 529.5,53.5 529.5,25.5C 546.5,25.5 563.5,25.5 580.5,25.5C 580.5,27.5 580.5,29.5 580.5,31.5C 568.833,31.5 557.167,31.5 545.5,31.5C 545.173,40.6822 545.507,49.6822 546.5,58.5 Z"/></g>
<g><path style="opacity:1" fill="#ec23a6" d="M 736.5,93.5 C 739.5,93.5 742.5,93.5 745.5,93.5C 745.5,70.5 745.5,47.5 745.5,24.5C 751.5,24.5 757.5,24.5 763.5,24.5C 763.5,47.5 763.5,70.5 763.5,93.5C 760.5,93.5 757.5,93.5 754.5,93.5C 754.664,96.1873 754.497,98.854 754,101.5C 751.281,102.444 748.448,102.777 745.5,102.5C 745.5,105.167 745.5,107.833 745.5,110.5C 733.5,110.5 721.5,110.5 709.5,110.5C 709.5,107.833 709.5,105.167 709.5,102.5C 707.052,101.527 704.385,101.194 701.5,101.5C 701.806,98.6146 701.473,95.9479 700.5,93.5C 697.5,93.5 694.5,93.5 691.5,93.5C 691.5,70.5 691.5,47.5 691.5,24.5C 697.5,24.5 703.5,24.5 709.5,24.5C 709.5,47.1667 709.5,69.8333 709.5,92.5C 712.5,92.5 715.5,92.5 718.5,92.5C 718.5,95.5 718.5,98.5 718.5,101.5C 724.167,101.5 729.833,101.5 735.5,101.5C 735.194,98.6146 735.527,95.9479 736.5,93.5 Z"/></g>
<g><path style="opacity:1" fill="#f799d8" d="M 745.5,24.5 C 745.5,47.5 745.5,70.5 745.5,93.5C 742.5,93.5 739.5,93.5 736.5,93.5C 738.948,92.5269 741.615,92.1936 744.5,92.5C 744.169,69.6605 744.503,46.9939 745.5,24.5 Z"/></g>
<g><path style="opacity:1" fill="#ec1da5" d="M 787.5,110.5 C 787.5,84.8333 787.5,59.1667 787.5,33.5C 790.385,33.8064 793.052,33.4731 795.5,32.5C 795.5,29.8333 795.5,27.1667 795.5,24.5C 810.5,24.5 825.5,24.5 840.5,24.5C 840.5,27.1667 840.5,29.8333 840.5,32.5C 843.5,32.5 846.5,32.5 849.5,32.5C 849.5,41.1667 849.5,49.8333 849.5,58.5C 846.5,58.5 843.5,58.5 840.5,58.5C 840.5,61.5 840.5,64.5 840.5,67.5C 837.5,67.5 834.5,67.5 831.5,67.5C 831.5,70.5 831.5,73.5 831.5,76.5C 822.833,76.5 814.167,76.5 805.5,76.5C 805.5,87.8333 805.5,99.1667 805.5,110.5C 799.5,110.5 793.5,110.5 787.5,110.5 Z"/></g>
<g><path style="opacity:1" fill="#f68dd4" d="M 433.5,24.5 C 439.31,23.5104 445.31,23.1771 451.5,23.5C 451.5,29.5 451.5,35.5 451.5,41.5C 450.511,36.0247 450.178,30.358 450.5,24.5C 444.833,24.5 439.167,24.5 433.5,24.5 Z"/></g>
<g><path style="opacity:1" fill="#f9b2e2" d="M 486.5,24.5 C 486.5,30.1667 486.5,35.8333 486.5,41.5C 483.5,41.5 480.5,41.5 477.5,41.5C 479.948,40.5269 482.615,40.1936 485.5,40.5C 485.179,34.9738 485.512,29.6405 486.5,24.5 Z"/></g>
<g><path style="opacity:1" fill="#f04dbb" d="M 546.5,58.5 C 545.507,49.6822 545.173,40.6822 545.5,31.5C 557.167,31.5 568.833,31.5 580.5,31.5C 580.5,29.5 580.5,27.5 580.5,25.5C 563.5,25.5 546.5,25.5 529.5,25.5C 529.5,53.5 529.5,81.5 529.5,109.5C 546.833,109.5 564.167,109.5 581.5,109.5C 564.008,110.497 546.341,110.83 528.5,110.5C 528.5,81.8333 528.5,53.1667 528.5,24.5C 546.167,24.5 563.833,24.5 581.5,24.5C 581.5,27.5 581.5,30.5 581.5,33.5C 569.833,33.5 558.167,33.5 546.5,33.5C 546.5,41.8333 546.5,50.1667 546.5,58.5 Z"/></g>
<g><path style="opacity:1" fill="#cfc7f8" d="M 848.5,24.5 C 851.5,24.5 854.5,24.5 857.5,24.5C 857.5,38.8333 857.5,53.1667 857.5,67.5C 854.5,67.5 851.5,67.5 848.5,67.5C 850.948,66.5269 853.615,66.1936 856.5,66.5C 856.5,52.8333 856.5,39.1667 856.5,25.5C 853.615,25.8064 850.948,25.4731 848.5,24.5 Z"/></g>
<g><path style="opacity:1" fill="#f79cda" d="M 356.5,24.5 C 373.992,23.5033 391.659,23.1699 409.5,23.5C 409.5,26.8333 409.5,30.1667 409.5,33.5C 397.833,33.5 386.167,33.5 374.5,33.5C 385.654,32.5052 396.988,32.1719 408.5,32.5C 408.5,29.8333 408.5,27.1667 408.5,24.5C 391.167,24.5 373.833,24.5 356.5,24.5 Z"/></g>
<g><path style="opacity:1" fill="#917eef" d="M 424.5,16.5 C 436.322,15.5049 448.322,15.1716 460.5,15.5C 460.5,21.1667 460.5,26.8333 460.5,32.5C 466.167,32.5 471.833,32.5 477.5,32.5C 477.179,26.9738 477.512,21.6405 478.5,16.5C 478.822,22.358 478.489,28.0247 477.5,33.5C 471.5,33.5 465.5,33.5 459.5,33.5C 459.5,27.8333 459.5,22.1667 459.5,16.5C 448.167,16.5 436.833,16.5 425.5,16.5C 425.167,16.5 424.833,16.5 424.5,16.5 Z"/></g>
<g><path style="opacity:1" fill="#21147d" d="M 148.5,35.5 C 122.833,35.5 97.1667,35.5 71.5,35.5C 71.5,37.8333 71.5,40.1667 71.5,42.5C 71.1667,42.5 70.8333,42.5 70.5,42.5C 70.5,39.8333 70.5,37.1667 70.5,34.5C 96.672,34.1689 122.672,34.5022 148.5,35.5 Z"/></g>
<g><path style="opacity:1" fill="#faf8fe" d="M 805.5,33.5 C 813.833,33.5 822.167,33.5 830.5,33.5C 830.5,41.8333 830.5,50.1667 830.5,58.5C 827.833,58.5 825.167,58.5 822.5,58.5C 821.527,60.9479 821.194,63.6146 821.5,66.5C 816.167,66.5 810.833,66.5 805.5,66.5C 805.5,55.5 805.5,44.5 805.5,33.5 Z"/></g>
<g><path style="opacity:1" fill="#191450" d="M 148.5,35.5 C 148.5,37.8333 148.5,40.1667 148.5,42.5C 122.833,42.5 97.1667,42.5 71.5,42.5C 71.5,40.1667 71.5,37.8333 71.5,35.5C 97.1667,35.5 122.833,35.5 148.5,35.5 Z"/></g>
<g><path style="opacity:1" fill="#cfc7f8" d="M 459.5,33.5 C 465.5,33.5 471.5,33.5 477.5,33.5C 475.052,34.4731 472.385,34.8064 469.5,34.5C 468.833,55.8333 468.167,55.8333 467.5,34.5C 464.615,34.8064 461.948,34.4731 459.5,33.5 Z"/></g>
<g><path style="opacity:1" fill="#f58dd4" d="M 795.5,32.5 C 793.052,33.4731 790.385,33.8064 787.5,33.5C 787.5,59.1667 787.5,84.8333 787.5,110.5C 786.502,84.672 786.169,58.672 786.5,32.5C 789.5,32.5 792.5,32.5 795.5,32.5 Z"/></g>
<g><path style="opacity:1" fill="#f9b1e2" d="M 805.5,33.5 C 813.984,32.507 822.651,32.1736 831.5,32.5C 831.826,41.3494 831.493,50.0161 830.5,58.5C 830.5,50.1667 830.5,41.8333 830.5,33.5C 822.167,33.5 813.833,33.5 805.5,33.5 Z"/></g>
<g><path style="opacity:1" fill="#141251" d="M 39.5,14.5 C 44.5,14.5 49.5,14.5 54.5,14.5C 54.5,19.5 54.5,24.5 54.5,29.5C 52.8333,29.5 51.1667,29.5 49.5,29.5C 49.5,31.8333 49.5,34.1667 49.5,36.5C 46.5,36.5 43.5,36.5 40.5,36.5C 40.5,38.8333 40.5,41.1667 40.5,43.5C 42.8333,43.5 45.1667,43.5 47.5,43.5C 47.5,45.5 47.5,47.5 47.5,49.5C 50.1667,49.5 52.8333,49.5 55.5,49.5C 55.5,52.1667 55.5,54.8333 55.5,57.5C 53.1667,57.5 50.8333,57.5 48.5,57.5C 47.5269,59.9479 47.1936,62.6146 47.5,65.5C 44.6146,65.1936 41.9479,65.5269 39.5,66.5C 39.5,69.8333 39.5,73.1667 39.5,76.5C 36.5,76.5 33.5,76.5 30.5,76.5C 30.5,72.5 30.5,68.5 30.5,64.5C 33.5,64.5 36.5,64.5 39.5,64.5C 39.5,62.1667 39.5,59.8333 39.5,57.5C 40.8333,57.5 42.1667,57.5 43.5,57.5C 43.5,54.8333 43.5,52.1667 43.5,49.5C 42.1667,49.5 40.8333,49.5 39.5,49.5C 39.5,47.5 39.5,45.5 39.5,43.5C 36.5,43.5 33.5,43.5 30.5,43.5C 30.5,41.1667 30.5,38.8333 30.5,36.5C 33.5,36.5 36.5,36.5 39.5,36.5C 39.5,34.5 39.5,32.5 39.5,30.5C 42.5,30.5 45.5,30.5 48.5,30.5C 48.5,27.1667 48.5,23.8333 48.5,20.5C 45.5,20.5 42.5,20.5 39.5,20.5C 39.5,18.5 39.5,16.5 39.5,14.5 Z"/></g>
<g><path style="opacity:1" fill="#664eea" d="M 417.5,41.5 C 406.346,42.4948 395.012,42.8281 383.5,42.5C 383.5,44.8333 383.5,47.1667 383.5,49.5C 392.017,49.1739 400.35,49.5073 408.5,50.5C 399.833,50.5 391.167,50.5 382.5,50.5C 382.5,47.5 382.5,44.5 382.5,41.5C 394.167,41.5 405.833,41.5 417.5,41.5 Z"/></g>
<g><path style="opacity:1" fill="#110e4d" d="M 70.5,42.5 C 70.5,44.8333 70.5,47.1667 70.5,49.5C 65.5,49.5 60.5,49.5 55.5,49.5C 55.5,47.1667 55.5,44.8333 55.5,42.5C 60.5,42.5 65.5,42.5 70.5,42.5 Z"/></g>
<g><path style="opacity:1" fill="#13104c" d="M 148.5,42.5 C 153.5,42.5 158.5,42.5 163.5,42.5C 163.5,44.8333 163.5,47.1667 163.5,49.5C 158.5,49.5 153.5,49.5 148.5,49.5C 148.5,47.1667 148.5,44.8333 148.5,42.5 Z"/></g>
<g><path style="opacity:1" fill="#fac8ea" d="M 477.5,41.5 C 477.5,50.1667 477.5,58.8333 477.5,67.5C 474.615,67.8064 471.948,67.4731 469.5,66.5C 471.833,66.5 474.167,66.5 476.5,66.5C 476.174,57.9832 476.507,49.6499 477.5,41.5 Z"/></g>
<g><path style="opacity:1" fill="#482be5" d="M 813.5,41.5 C 816.5,41.5 819.5,41.5 822.5,41.5C 822.5,44.5 822.5,47.5 822.5,50.5C 819.5,50.5 816.5,50.5 813.5,50.5C 813.5,47.5 813.5,44.5 813.5,41.5 Z"/></g>
<g><path style="opacity:1" fill="#1a1155" d="M 179.5,14.5 C 179.5,16.5 179.5,18.5 179.5,20.5C 176.833,20.5 174.167,20.5 171.5,20.5C 171.5,23.5 171.5,26.5 171.5,29.5C 174.5,29.5 177.5,29.5 180.5,29.5C 180.5,31.5 180.5,33.5 180.5,35.5C 183.167,35.5 185.833,35.5 188.5,35.5C 188.5,38.1667 188.5,40.8333 188.5,43.5C 185.5,43.5 182.5,43.5 179.5,43.5C 179.5,45.8333 179.5,48.1667 179.5,50.5C 178.5,50.5 177.5,50.5 176.5,50.5C 176.5,52.8333 176.5,55.1667 176.5,57.5C 177.833,57.5 179.167,57.5 180.5,57.5C 180.5,59.8333 180.5,62.1667 180.5,64.5C 183.167,64.5 185.833,64.5 188.5,64.5C 188.5,68.1667 188.5,71.8333 188.5,75.5C 185.833,75.5 183.167,75.5 180.5,75.5C 180.81,72.2869 180.477,69.2869 179.5,66.5C 177.052,65.5269 174.385,65.1936 171.5,65.5C 171.806,62.6146 171.473,59.9479 170.5,57.5C 168.167,57.5 165.833,57.5 163.5,57.5C 163.5,54.8333 163.5,52.1667 163.5,49.5C 166.5,49.5 169.5,49.5 172.5,49.5C 172.5,47.5 172.5,45.5 172.5,43.5C 174.5,43.5 176.5,43.5 178.5,43.5C 178.5,41.1667 178.5,38.8333 178.5,36.5C 175.5,36.5 172.5,36.5 169.5,36.5C 169.5,34.1667 169.5,31.8333 169.5,29.5C 167.833,29.5 166.167,29.5 164.5,29.5C 164.5,24.5 164.5,19.5 164.5,14.5C 169.5,14.5 174.5,14.5 179.5,14.5 Z"/></g>
<g><path style="opacity:1" fill="#f5faf9" d="M 70.5,42.5 C 70.8333,42.5 71.1667,42.5 71.5,42.5C 97.1667,42.5 122.833,42.5 148.5,42.5C 148.5,44.8333 148.5,47.1667 148.5,49.5C 151.167,50.1667 153.833,50.8333 156.5,51.5C 153.833,51.5 151.167,51.5 148.5,51.5C 148.5,53.5 148.5,55.5 148.5,57.5C 122.5,57.5 96.5,57.5 70.5,57.5C 70.5,55.5 70.5,53.5 70.5,51.5C 68.1667,51.5 65.8333,51.5 63.5,51.5C 65.8333,50.8333 68.1667,50.1667 70.5,49.5C 70.5,47.1667 70.5,44.8333 70.5,42.5 Z"/></g>
<g><path style="opacity:1" fill="#f7a1db" d="M 433.5,41.5 C 436.5,41.5 439.5,41.5 442.5,41.5C 442.5,50.1667 442.5,58.8333 442.5,67.5C 441.507,59.3501 441.174,51.0168 441.5,42.5C 438.615,42.8064 435.948,42.4731 433.5,41.5 Z"/></g>
<g><path style="opacity:1" fill="#6c55eb" d="M 554.5,41.5 C 566.167,41.5 577.833,41.5 589.5,41.5C 578.346,42.4948 567.012,42.8281 555.5,42.5C 555.5,44.8333 555.5,47.1667 555.5,49.5C 564.349,49.1736 573.016,49.507 581.5,50.5C 581.167,50.5 580.833,50.5 580.5,50.5C 571.833,50.5 563.167,50.5 554.5,50.5C 554.5,47.5 554.5,44.5 554.5,41.5 Z"/></g>
<g><path style="opacity:1" fill="#b4a8f4" d="M 424.5,16.5 C 424.833,16.5 425.167,16.5 425.5,16.5C 425.5,27.5 425.5,38.5 425.5,49.5C 428.5,49.5 431.5,49.5 434.5,49.5C 434.5,58.1667 434.5,66.8333 434.5,75.5C 433.507,67.3501 433.174,59.0168 433.5,50.5C 430.5,50.5 427.5,50.5 424.5,50.5C 424.5,39.1667 424.5,27.8333 424.5,16.5 Z"/></g>
<g><path style="opacity:1" fill="#d3caf9" d="M 382.5,50.5 C 391.167,50.5 399.833,50.5 408.5,50.5C 409.833,58.8333 409.833,67.1667 408.5,75.5C 399.833,75.5 391.167,75.5 382.5,75.5C 390.65,74.5073 398.983,74.1739 407.5,74.5C 407.5,66.8333 407.5,59.1667 407.5,51.5C 398.983,51.8261 390.65,51.4927 382.5,50.5 Z"/></g>
<g><path style="opacity:1" fill="#f36bc7" d="M 546.5,58.5 C 555.5,58.5 564.5,58.5 573.5,58.5C 573.5,61.5 573.5,64.5 573.5,67.5C 564.5,67.5 555.5,67.5 546.5,67.5C 554.984,66.507 563.651,66.1736 572.5,66.5C 572.5,64.1667 572.5,61.8333 572.5,59.5C 563.651,59.8264 554.984,59.493 546.5,58.5 Z"/></g>
<g><path style="opacity:1" fill="#aadcd4" d="M 55.5,49.5 C 60.5,49.5 65.5,49.5 70.5,49.5C 68.1667,50.1667 65.8333,50.8333 63.5,51.5C 63.5,53.8333 63.5,56.1667 63.5,58.5C 60.8333,58.5 58.1667,58.5 55.5,58.5C 55.5,61.1667 55.5,63.8333 55.5,66.5C 91.5,66.5 127.5,66.5 163.5,66.5C 163.5,63.8333 163.5,61.1667 163.5,58.5C 161.167,58.5 158.833,58.5 156.5,58.5C 156.5,56.1667 156.5,53.8333 156.5,51.5C 153.833,50.8333 151.167,50.1667 148.5,49.5C 153.5,49.5 158.5,49.5 163.5,49.5C 163.5,52.1667 163.5,54.8333 163.5,57.5C 165.833,57.5 168.167,57.5 170.5,57.5C 170.5,60.5 170.5,63.5 170.5,66.5C 173.5,66.5 176.5,66.5 179.5,66.5C 179.5,69.8333 179.5,73.1667 179.5,76.5C 182.5,76.5 185.5,76.5 188.5,76.5C 188.5,78.8333 188.5,81.1667 188.5,83.5C 188.5,83.8333 188.5,84.1667 188.5,84.5C 188.5,86.8333 188.5,89.1667 188.5,91.5C 186.167,91.5 183.833,91.5 181.5,91.5C 181.5,88.5 181.5,85.5 181.5,82.5C 178.5,82.5 175.5,82.5 172.5,82.5C 172.5,79.8333 172.5,77.1667 172.5,74.5C 169.5,74.5 166.5,74.5 163.5,74.5C 163.5,72.1667 163.5,69.8333 163.5,67.5C 127.5,67.5 91.5,67.5 55.5,67.5C 55.5,69.8333 55.5,72.1667 55.5,74.5C 52.5,74.5 49.5,74.5 46.5,74.5C 46.5,77.1667 46.5,79.8333 46.5,82.5C 43.8333,82.5 41.1667,82.5 38.5,82.5C 38.5,85.5 38.5,88.5 38.5,91.5C 35.8333,91.5 33.1667,91.5 30.5,91.5C 30.5,88.8333 30.5,86.1667 30.5,83.5C 30.5,81.1667 30.5,78.8333 30.5,76.5C 33.5,76.5 36.5,76.5 39.5,76.5C 39.5,73.1667 39.5,69.8333 39.5,66.5C 42.5,66.5 45.5,66.5 48.5,66.5C 48.5,63.5 48.5,60.5 48.5,57.5C 50.8333,57.5 53.1667,57.5 55.5,57.5C 55.5,54.8333 55.5,52.1667 55.5,49.5 Z"/></g>
<g><path style="opacity:1" fill="#e7e9e3" d="M 63.5,51.5 C 65.8333,51.5 68.1667,51.5 70.5,51.5C 70.5,53.5 70.5,55.5 70.5,57.5C 96.5,57.5 122.5,57.5 148.5,57.5C 148.5,55.5 148.5,53.5 148.5,51.5C 151.167,51.5 153.833,51.5 156.5,51.5C 156.5,53.8333 156.5,56.1667 156.5,58.5C 158.833,58.5 161.167,58.5 163.5,58.5C 163.5,61.1667 163.5,63.8333 163.5,66.5C 127.5,66.5 91.5,66.5 55.5,66.5C 55.5,63.8333 55.5,61.1667 55.5,58.5C 58.1667,58.5 60.8333,58.5 63.5,58.5C 63.5,56.1667 63.5,53.8333 63.5,51.5 Z"/></g>
<g><path style="opacity:1" fill="#4a587d" d="M 48.5,57.5 C 48.5,60.5 48.5,63.5 48.5,66.5C 45.5,66.5 42.5,66.5 39.5,66.5C 41.9479,65.5269 44.6146,65.1936 47.5,65.5C 47.1936,62.6146 47.5269,59.9479 48.5,57.5 Z"/></g>
<g><path style="opacity:1" fill="#586b8a" d="M 170.5,57.5 C 171.473,59.9479 171.806,62.6146 171.5,65.5C 174.385,65.1936 177.052,65.5269 179.5,66.5C 176.5,66.5 173.5,66.5 170.5,66.5C 170.5,63.5 170.5,60.5 170.5,57.5 Z"/></g>
<g><path style="opacity:1" fill="#f8a9df" d="M 822.5,58.5 C 822.5,61.5 822.5,64.5 822.5,67.5C 816.642,67.8222 810.975,67.4889 805.5,66.5C 810.833,66.5 816.167,66.5 821.5,66.5C 821.194,63.6146 821.527,60.9479 822.5,58.5 Z"/></g>
<g><path style="opacity:1" fill="#fac3e8" d="M 495.5,67.5 C 493.052,68.4731 490.385,68.8064 487.5,68.5C 487.826,77.0168 487.493,85.3501 486.5,93.5C 486.5,84.8333 486.5,76.1667 486.5,67.5C 489.5,67.5 492.5,67.5 495.5,67.5 Z"/></g>
<g><path style="opacity:1" fill="#21f07f" d="M 163.5,74.5 C 127.5,74.5 91.5,74.5 55.5,74.5C 55.5,72.1667 55.5,69.8333 55.5,67.5C 91.5,67.5 127.5,67.5 163.5,67.5C 163.5,69.8333 163.5,72.1667 163.5,74.5 Z"/></g>
<g><path style="opacity:1" fill="#cfc7f8" d="M 580.5,50.5 C 580.833,50.5 581.167,50.5 581.5,50.5C 581.5,58.8333 581.5,67.1667 581.5,75.5C 572.5,75.5 563.5,75.5 554.5,75.5C 562.984,74.507 571.651,74.1736 580.5,74.5C 580.5,66.5 580.5,58.5 580.5,50.5 Z"/></g>
<g><path style="opacity:1" fill="#49577c" d="M 179.5,66.5 C 180.477,69.2869 180.81,72.2869 180.5,75.5C 183.167,75.5 185.833,75.5 188.5,75.5C 188.5,75.8333 188.5,76.1667 188.5,76.5C 185.5,76.5 182.5,76.5 179.5,76.5C 179.5,73.1667 179.5,69.8333 179.5,66.5 Z"/></g>
<g><path style="opacity:1" fill="#130b4c" d="M 30.5,76.5 C 30.5,78.8333 30.5,81.1667 30.5,83.5C 28.1667,83.5 25.8333,83.5 23.5,83.5C 23.5,81.1667 23.5,78.8333 23.5,76.5C 25.8333,76.5 28.1667,76.5 30.5,76.5 Z"/></g>
<g><path style="opacity:1" fill="#00001d" d="M 55.5,75.5 C 91.5,75.5 127.5,75.5 163.5,75.5C 163.5,78.1667 163.5,80.8333 163.5,83.5C 166.5,83.5 169.5,83.5 172.5,83.5C 172.5,86.1667 172.5,88.8333 172.5,91.5C 175.167,91.5 177.833,91.5 180.5,91.5C 180.5,117.833 180.5,144.167 180.5,170.5C 177.5,170.5 174.5,170.5 171.5,170.5C 171.5,172.833 171.5,175.167 171.5,177.5C 130.5,177.5 89.5,177.5 48.5,177.5C 48.5,175.167 48.5,172.833 48.5,170.5C 45.1667,170.5 41.8333,170.5 38.5,170.5C 38.5,144.167 38.5,117.833 38.5,91.5C 41.1667,91.5 43.8333,91.5 46.5,91.5C 47.4682,89.3926 47.8016,87.0593 47.5,84.5C 50.3854,84.8064 53.0521,84.4731 55.5,83.5C 55.5,80.8333 55.5,78.1667 55.5,75.5 Z"/></g>
<g><path style="opacity:1" fill="#191352" d="M 188.5,76.5 C 191.167,76.5 193.833,76.5 196.5,76.5C 196.5,78.8333 196.5,81.1667 196.5,83.5C 193.833,83.5 191.167,83.5 188.5,83.5C 188.5,81.1667 188.5,78.8333 188.5,76.5 Z"/></g>
<g><path style="opacity:1" fill="#21b275" d="M 188.5,84.5 C 188.5,84.1667 188.5,83.8333 188.5,83.5C 191.167,83.5 193.833,83.5 196.5,83.5C 196.5,83.8333 196.5,84.1667 196.5,84.5C 196.5,87.1667 196.5,89.8333 196.5,92.5C 196.167,92.5 195.833,92.5 195.5,92.5C 195.5,89.8333 195.5,87.1667 195.5,84.5C 193.167,84.5 190.833,84.5 188.5,84.5 Z"/></g>
<g><path style="opacity:1" fill="#28ee80" d="M 55.5,74.5 C 55.5,74.8333 55.5,75.1667 55.5,75.5C 55.5,78.1667 55.5,80.8333 55.5,83.5C 52.5,83.5 49.5,83.5 46.5,83.5C 46.5,86.1667 46.5,88.8333 46.5,91.5C 43.8333,91.5 41.1667,91.5 38.5,91.5C 38.5,88.5 38.5,85.5 38.5,82.5C 41.1667,82.5 43.8333,82.5 46.5,82.5C 46.5,79.8333 46.5,77.1667 46.5,74.5C 49.5,74.5 52.5,74.5 55.5,74.5 Z"/></g>
<g><path style="opacity:1" fill="#20c871" d="M 55.5,75.5 C 55.5,75.1667 55.5,74.8333 55.5,74.5C 91.5,74.5 127.5,74.5 163.5,74.5C 166.5,74.5 169.5,74.5 172.5,74.5C 172.5,77.1667 172.5,79.8333 172.5,82.5C 175.5,82.5 178.5,82.5 181.5,82.5C 181.5,85.5 181.5,88.5 181.5,91.5C 181.167,91.5 180.833,91.5 180.5,91.5C 177.833,91.5 175.167,91.5 172.5,91.5C 172.5,88.8333 172.5,86.1667 172.5,83.5C 169.5,83.5 166.5,83.5 163.5,83.5C 163.5,80.8333 163.5,78.1667 163.5,75.5C 127.5,75.5 91.5,75.5 55.5,75.5 Z"/></g>
<g><path style="opacity:1" fill="#14104e" d="M 22.5,85.5 C 22.5,98.1667 22.5,110.833 22.5,123.5C 19.8333,123.5 17.1667,123.5 14.5,123.5C 14.5,126.167 14.5,128.833 14.5,131.5C 11.8333,131.5 9.16667,131.5 6.5,131.5C 6.5,126.833 6.5,122.167 6.5,117.5C 9.5,117.5 12.5,117.5 15.5,117.5C 15.5,106.833 15.5,96.1667 15.5,85.5C 17.8333,85.5 20.1667,85.5 22.5,85.5 Z"/></g>
<g><path style="opacity:1" fill="#0b503d" d="M 55.5,83.5 C 53.0521,84.4731 50.3854,84.8064 47.5,84.5C 47.8016,87.0593 47.4682,89.3926 46.5,91.5C 46.5,88.8333 46.5,86.1667 46.5,83.5C 49.5,83.5 52.5,83.5 55.5,83.5 Z"/></g>
<g><path style="opacity:1" fill="#130f4d" d="M 196.5,84.5 C 198.833,84.5 201.167,84.5 203.5,84.5C 203.5,95.5 203.5,106.5 203.5,117.5C 206.5,117.5 209.5,117.5 212.5,117.5C 212.5,122.167 212.5,126.833 212.5,131.5C 210.167,131.5 207.833,131.5 205.5,131.5C 205.5,128.833 205.5,126.167 205.5,123.5C 202.5,123.5 199.5,123.5 196.5,123.5C 196.5,113.167 196.5,102.833 196.5,92.5C 196.5,89.8333 196.5,87.1667 196.5,84.5 Z"/></g>
<g><path style="opacity:1" fill="#5b40e8" d="M 848.5,75.5 C 846.052,76.4731 843.385,76.8064 840.5,76.5C 840.5,79.5 840.5,82.5 840.5,85.5C 831.833,85.5 823.167,85.5 814.5,85.5C 814.828,96.6794 814.495,107.679 813.5,118.5C 813.5,107.167 813.5,95.8333 813.5,84.5C 822.167,84.5 830.833,84.5 839.5,84.5C 839.5,81.5 839.5,78.5 839.5,75.5C 842.5,75.5 845.5,75.5 848.5,75.5 Z"/></g>
<g><path style="opacity:1" fill="#654dea" d="M 382.5,75.5 C 391.167,75.5 399.833,75.5 408.5,75.5C 400.35,76.4927 392.017,76.8261 383.5,76.5C 383.5,81.8333 383.5,87.1667 383.5,92.5C 395.012,92.1719 406.346,92.5052 417.5,93.5C 405.833,93.5 394.167,93.5 382.5,93.5C 382.5,87.5 382.5,81.5 382.5,75.5 Z"/></g>
<g><path style="opacity:1" fill="#6d55eb" d="M 554.5,75.5 C 563.5,75.5 572.5,75.5 581.5,75.5C 573.016,76.493 564.349,76.8264 555.5,76.5C 555.5,81.8333 555.5,87.1667 555.5,92.5C 567.012,92.1719 578.346,92.5052 589.5,93.5C 577.833,93.5 566.167,93.5 554.5,93.5C 554.5,87.5 554.5,81.5 554.5,75.5 Z"/></g>
<g><path style="opacity:1" fill="#21e87d" d="M 23.5,83.5 C 25.8333,83.5 28.1667,83.5 30.5,83.5C 30.5,86.1667 30.5,88.8333 30.5,91.5C 33.1667,91.5 35.8333,91.5 38.5,91.5C 38.5,117.833 38.5,144.167 38.5,170.5C 36.5,170.5 34.5,170.5 32.5,170.5C 31.5318,172.607 31.1984,174.941 31.5,177.5C 28.8333,177.5 26.1667,177.5 23.5,177.5C 23.5,170.5 23.5,163.5 23.5,156.5C 25.8333,156.5 28.1667,156.5 30.5,156.5C 30.5,135.167 30.5,113.833 30.5,92.5C 28.1667,92.5 25.8333,92.5 23.5,92.5C 23.5,89.8333 23.5,87.1667 23.5,84.5C 23.5,84.1667 23.5,83.8333 23.5,83.5 Z"/></g>
<g><path style="opacity:1" fill="#20f07f" d="M 188.5,84.5 C 190.833,84.5 193.167,84.5 195.5,84.5C 195.5,87.1667 195.5,89.8333 195.5,92.5C 193.167,92.5 190.833,92.5 188.5,92.5C 188.169,114.007 188.503,135.34 189.5,156.5C 191.167,156.5 192.833,156.5 194.5,156.5C 194.833,156.5 195.167,156.5 195.5,156.5C 195.5,163.5 195.5,170.5 195.5,177.5C 192.833,177.5 190.167,177.5 187.5,177.5C 187.5,175.167 187.5,172.833 187.5,170.5C 185.5,170.5 183.5,170.5 181.5,170.5C 181.5,144.167 181.5,117.833 181.5,91.5C 183.833,91.5 186.167,91.5 188.5,91.5C 188.5,89.1667 188.5,86.8333 188.5,84.5 Z"/></g>
<g><path style="opacity:1" fill="#9fd0c8" d="M 23.5,84.5 C 23.5,87.1667 23.5,89.8333 23.5,92.5C 25.8333,92.5 28.1667,92.5 30.5,92.5C 30.5,113.833 30.5,135.167 30.5,156.5C 28.1667,156.5 25.8333,156.5 23.5,156.5C 23.5,163.5 23.5,170.5 23.5,177.5C 22.5038,162.342 22.1705,147.009 22.5,131.5C 23.8333,128.833 23.8333,126.167 22.5,123.5C 22.5,110.833 22.5,98.1667 22.5,85.5C 22.5,84.8333 22.8333,84.5 23.5,84.5 Z"/></g>
<g><path style="opacity:1" fill="#a3ddcc" d="M 195.5,92.5 C 195.833,92.5 196.167,92.5 196.5,92.5C 196.5,102.833 196.5,113.167 196.5,123.5C 196.5,123.833 196.5,124.167 196.5,124.5C 196.5,126.833 196.5,129.167 196.5,131.5C 196.5,139.833 196.5,148.167 196.5,156.5C 196.167,156.5 195.833,156.5 195.5,156.5C 195.167,156.5 194.833,156.5 194.5,156.5C 194.5,135.5 194.5,114.5 194.5,93.5C 192.833,93.5 191.167,93.5 189.5,93.5C 189.5,114.5 189.5,135.5 189.5,156.5C 188.503,135.34 188.169,114.007 188.5,92.5C 190.833,92.5 193.167,92.5 195.5,92.5 Z"/></g>
<g><path style="opacity:1" fill="#afdcd4" d="M 194.5,156.5 C 192.833,156.5 191.167,156.5 189.5,156.5C 189.5,135.5 189.5,114.5 189.5,93.5C 191.167,93.5 192.833,93.5 194.5,93.5C 194.5,114.5 194.5,135.5 194.5,156.5 Z"/></g>
<g><path style="opacity:1" fill="#eb0fa3" d="M 873.5,93.5 C 879.167,93.5 884.833,93.5 890.5,93.5C 890.5,99.1667 890.5,104.833 890.5,110.5C 884.833,110.5 879.167,110.5 873.5,110.5C 873.5,104.833 873.5,99.1667 873.5,93.5 Z"/></g>
<g><path style="opacity:1" fill="#f694d7" d="M 873.5,93.5 C 879.31,92.5104 885.31,92.1771 891.5,92.5C 891.5,98.8333 891.5,105.167 891.5,111.5C 885.31,111.823 879.31,111.49 873.5,110.5C 879.167,110.5 884.833,110.5 890.5,110.5C 890.5,104.833 890.5,99.1667 890.5,93.5C 884.833,93.5 879.167,93.5 873.5,93.5 Z"/></g>
<g><path style="opacity:1" fill="#715beb" d="M 683.5,101.5 C 683.833,101.5 684.167,101.5 684.5,101.5C 687.167,101.5 689.833,101.5 692.5,101.5C 692.5,104.167 692.5,106.833 692.5,109.5C 691.532,107.393 691.198,105.059 691.5,102.5C 688.615,102.806 685.948,102.473 683.5,101.5 Z"/></g>
<g><path style="opacity:1" fill="#f79ad9" d="M 700.5,93.5 C 701.473,95.9479 701.806,98.6146 701.5,101.5C 704.385,101.194 707.052,101.527 709.5,102.5C 706.5,102.5 703.5,102.5 700.5,102.5C 700.5,99.5 700.5,96.5 700.5,93.5 Z"/></g>
<g><path style="opacity:1" fill="#7963ec" d="M 442.5,101.5 C 445.5,101.5 448.5,101.5 451.5,101.5C 451.5,107.167 451.5,112.833 451.5,118.5C 450.512,113.36 450.179,108.026 450.5,102.5C 447.615,102.806 444.948,102.473 442.5,101.5 Z"/></g>
<g><path style="opacity:1" fill="#0b0b13" d="M 55.5,142.5 C 54.1718,137.544 53.5051,132.211 53.5,126.5C 53.5839,119.807 53.9172,113.141 54.5,106.5C 62.8694,105.517 71.2027,105.517 79.5,106.5C 80.8333,118.833 80.8333,131.167 79.5,143.5C 75.3846,144.136 71.2179,144.47 67,144.5C 62.771,144.49 58.9377,143.823 55.5,142.5 Z"/></g>
<g><path style="opacity:1" fill="#0d0d16" d="M 163.5,142.5 C 155.567,144.468 147.234,145.135 138.5,144.5C 138.168,131.816 138.501,119.149 139.5,106.5C 148.131,105.496 156.798,105.496 165.5,106.5C 166.146,118.88 165.479,130.88 163.5,142.5 Z"/></g>
<g><path style="opacity:1" fill="#f7f9f8" d="M 55.5,142.5 C 55.5,133.833 55.5,125.167 55.5,116.5C 58.1667,116.5 60.8333,116.5 63.5,116.5C 63.5,113.5 63.5,110.5 63.5,107.5C 68.5,107.5 73.5,107.5 78.5,107.5C 78.5,119.167 78.5,130.833 78.5,142.5C 70.8333,142.5 63.1667,142.5 55.5,142.5 Z"/></g>
<g><path style="opacity:1" fill="#f4f6f5" d="M 163.5,142.5 C 155.833,142.5 148.167,142.5 140.5,142.5C 140.5,130.833 140.5,119.167 140.5,107.5C 145.833,107.5 151.167,107.5 156.5,107.5C 156.5,110.5 156.5,113.5 156.5,116.5C 158.833,116.5 161.167,116.5 163.5,116.5C 163.5,125.167 163.5,133.833 163.5,142.5 Z"/></g>
<g><path style="opacity:1" fill="#f159c1" d="M 287.5,101.5 C 286.502,76.0054 286.169,50.3388 286.5,24.5C 281.167,24.5 275.833,24.5 270.5,24.5C 270.5,52.8333 270.5,81.1667 270.5,109.5C 290.833,109.5 311.167,109.5 331.5,109.5C 311.007,110.497 290.34,110.831 269.5,110.5C 269.5,81.5 269.5,52.5 269.5,23.5C 275.5,23.5 281.5,23.5 287.5,23.5C 287.5,49.5 287.5,75.5 287.5,101.5 Z"/></g>
<g><path style="opacity:1" fill="#b0a2f4" d="M 762.5,101.5 C 762.5,104.5 762.5,107.5 762.5,110.5C 759.5,110.5 756.5,110.5 753.5,110.5C 755.948,109.527 758.615,109.194 761.5,109.5C 761.194,106.615 761.527,103.948 762.5,101.5 Z"/></g>
<g><path style="opacity:1" fill="#9888f1" d="M 692.5,109.5 C 695.5,109.5 698.5,109.5 701.5,109.5C 701.5,112.5 701.5,115.5 701.5,118.5C 700.527,116.052 700.194,113.385 700.5,110.5C 697.615,110.806 694.948,110.473 692.5,109.5 Z"/></g>
<g><path style="opacity:1" fill="#dbd4fa" d="M 295.5,93.5 C 295.833,93.5 296.167,93.5 296.5,93.5C 311.167,93.5 325.833,93.5 340.5,93.5C 340.5,101.833 340.5,110.167 340.5,118.5C 314.328,118.831 288.328,118.498 262.5,117.5C 288.167,117.5 313.833,117.5 339.5,117.5C 339.5,109.833 339.5,102.167 339.5,94.5C 324.657,94.8293 309.99,94.496 295.5,93.5 Z"/></g>
<g><path style="opacity:1" fill="#d0c8f8" d="M 417.5,16.5 C 394.5,16.5 371.5,16.5 348.5,16.5C 348.5,50.1667 348.5,83.8333 348.5,117.5C 371.167,117.5 393.833,117.5 416.5,117.5C 416.5,109.833 416.5,102.167 416.5,94.5C 404.988,94.8281 393.654,94.4948 382.5,93.5C 394.167,93.5 405.833,93.5 417.5,93.5C 417.5,101.833 417.5,110.167 417.5,118.5C 394.167,118.5 370.833,118.5 347.5,118.5C 347.5,84.1667 347.5,49.8333 347.5,15.5C 371.006,15.1691 394.339,15.5025 417.5,16.5 Z"/></g>
<g><path style="opacity:1" fill="#d3caf9" d="M 589.5,93.5 C 590.493,101.65 590.826,109.983 590.5,118.5C 567.167,118.5 543.833,118.5 520.5,118.5C 520.5,118.167 520.5,117.833 520.5,117.5C 543.5,117.5 566.5,117.5 589.5,117.5C 589.5,109.5 589.5,101.5 589.5,93.5 Z"/></g>
<g><path style="opacity:1" fill="#c1b5f6" d="M 631.5,16.5 C 632.498,41.9946 632.831,67.6612 632.5,93.5C 647.167,93.5 661.833,93.5 676.5,93.5C 676.5,102.167 676.5,110.833 676.5,119.5C 650.167,119.5 623.833,119.5 597.5,119.5C 597.5,84.8333 597.5,50.1667 597.5,15.5C 609.012,15.1719 620.346,15.5052 631.5,16.5 Z"/></g>
<g><path style="opacity:1" fill="#fef8fc" d="M 631.5,16.5 C 631.5,42.5 631.5,68.5 631.5,94.5C 646.167,94.5 660.833,94.5 675.5,94.5C 675.5,102.167 675.5,109.833 675.5,117.5C 649.833,117.5 624.167,117.5 598.5,117.5C 598.5,83.8333 598.5,50.1667 598.5,16.5C 609.5,16.5 620.5,16.5 631.5,16.5 Z"/></g>
<g><path style="opacity:1" fill="#f47ccd" d="M 623.5,24.5 C 617.833,24.5 612.167,24.5 606.5,24.5C 606.5,53.1667 606.5,81.8333 606.5,110.5C 605.502,81.6715 605.169,52.6715 605.5,23.5C 611.69,23.1771 617.69,23.5104 623.5,24.5 Z"/></g>
<g><path style="opacity:1" fill="#eb15a4" d="M 623.5,24.5 C 623.5,50.1667 623.5,75.8333 623.5,101.5C 638.167,101.5 652.833,101.5 667.5,101.5C 667.5,104.5 667.5,107.5 667.5,110.5C 647.167,110.5 626.833,110.5 606.5,110.5C 606.5,81.8333 606.5,53.1667 606.5,24.5C 612.167,24.5 617.833,24.5 623.5,24.5 Z"/></g>
<g><path style="opacity:1" fill="#d2caf9" d="M 778.5,24.5 C 781.5,24.5 784.5,24.5 787.5,24.5C 785.052,25.4731 782.385,25.8064 779.5,25.5C 779.5,56.1667 779.5,86.8333 779.5,117.5C 790.5,117.5 801.5,117.5 812.5,117.5C 812.172,106.321 812.505,95.3206 813.5,84.5C 813.5,95.8333 813.5,107.167 813.5,118.5C 801.833,118.5 790.167,118.5 778.5,118.5C 778.5,87.1667 778.5,55.8333 778.5,24.5 Z"/></g>
<g><path style="opacity:1" fill="#9a88f1" d="M 865.5,7.5 C 865.5,44.5 865.5,81.5 865.5,118.5C 876.833,118.5 888.167,118.5 899.5,118.5C 888.012,119.495 876.345,119.828 864.5,119.5C 864.168,81.9963 864.502,44.6629 865.5,7.5 Z"/></g>
<g><path style="opacity:1" fill="#870f77" d="M 196.5,124.5 C 196.5,124.167 196.5,123.833 196.5,123.5C 199.5,123.5 202.5,123.5 205.5,123.5C 205.5,126.167 205.5,128.833 205.5,131.5C 205.5,135.167 205.5,138.833 205.5,142.5C 204.518,139.038 204.185,135.371 204.5,131.5C 204.5,129.167 204.5,126.833 204.5,124.5C 201.833,124.5 199.167,124.5 196.5,124.5 Z"/></g>
<g><path style="opacity:1" fill="#ed28a0" d="M 22.5,123.5 C 23.8333,126.167 23.8333,128.833 22.5,131.5C 19.8333,131.5 17.1667,131.5 14.5,131.5C 14.5,128.833 14.5,126.167 14.5,123.5C 17.1667,123.5 19.8333,123.5 22.5,123.5 Z"/></g>
<g><path style="opacity:1" fill="#f60ca1" d="M 196.5,124.5 C 199.167,124.5 201.833,124.5 204.5,124.5C 204.5,126.833 204.5,129.167 204.5,131.5C 201.833,131.5 199.167,131.5 196.5,131.5C 196.5,129.167 196.5,126.833 196.5,124.5 Z"/></g>
<g><path style="opacity:1" fill="#f80fa1" d="M 205.5,131.5 C 207.833,131.5 210.167,131.5 212.5,131.5C 212.5,131.833 212.5,132.167 212.5,132.5C 212.5,135.833 212.5,139.167 212.5,142.5C 210.167,142.5 207.833,142.5 205.5,142.5C 205.5,138.833 205.5,135.167 205.5,131.5 Z"/></g>
<g><path style="opacity:1" fill="#141151" d="M -0.5,132.5 C 1.83333,132.5 4.16667,132.5 6.5,132.5C 6.5,135.833 6.5,139.167 6.5,142.5C 4.16667,142.5 1.83333,142.5 -0.5,142.5C -0.5,139.167 -0.5,135.833 -0.5,132.5 Z"/></g>
<g><path style="opacity:1" fill="#e90f9c" d="M 6.5,131.5 C 9.16667,131.5 11.8333,131.5 14.5,131.5C 14.5,135.167 14.5,138.833 14.5,142.5C 11.8333,142.5 9.16667,142.5 6.5,142.5C 6.5,139.167 6.5,135.833 6.5,132.5C 6.5,132.167 6.5,131.833 6.5,131.5 Z"/></g>
<g><path style="opacity:1" fill="#14114e" d="M 14.5,131.5 C 17.1667,131.5 19.8333,131.5 22.5,131.5C 22.1705,147.009 22.5038,162.342 23.5,177.5C 25.9479,178.473 28.6146,178.806 31.5,178.5C 31.1984,181.059 31.5318,183.393 32.5,185.5C 34.8333,185.5 37.1667,185.5 39.5,185.5C 39.5,187.833 39.5,190.167 39.5,192.5C 34.1667,192.5 28.8333,192.5 23.5,192.5C 23.5,190.167 23.5,187.833 23.5,185.5C 20.5,185.5 17.5,185.5 14.5,185.5C 14.5,175.833 14.5,166.167 14.5,156.5C 11.8333,156.5 9.16667,156.5 6.5,156.5C 6.5,151.833 6.5,147.167 6.5,142.5C 9.16667,142.5 11.8333,142.5 14.5,142.5C 14.5,138.833 14.5,135.167 14.5,131.5 Z"/></g>
<g><path style="opacity:1" fill="#15104e" d="M 196.5,131.5 C 199.167,131.5 201.833,131.5 204.5,131.5C 204.185,135.371 204.518,139.038 205.5,142.5C 207.833,142.5 210.167,142.5 212.5,142.5C 212.5,147.167 212.5,151.833 212.5,156.5C 209.833,156.5 207.167,156.5 204.5,156.5C 204.5,166.167 204.5,175.833 204.5,185.5C 201.833,185.5 199.167,185.5 196.5,185.5C 196.5,187.833 196.5,190.167 196.5,192.5C 191.167,192.5 185.833,192.5 180.5,192.5C 180.5,190.167 180.5,187.833 180.5,185.5C 182.833,185.5 185.167,185.5 187.5,185.5C 187.5,183.167 187.5,180.833 187.5,178.5C 190.5,178.5 193.5,178.5 196.5,178.5C 196.5,171.167 196.5,163.833 196.5,156.5C 196.5,148.167 196.5,139.833 196.5,131.5 Z"/></g>
<g><path style="opacity:1" fill="#1a1158" d="M 212.5,132.5 C 215.167,132.5 217.833,132.5 220.5,132.5C 220.5,135.833 220.5,139.167 220.5,142.5C 217.833,142.5 215.167,142.5 212.5,142.5C 212.5,139.167 212.5,135.833 212.5,132.5 Z"/></g>
<g><path style="opacity:1" fill="#8e7bef" d="M 500.5,147.5 C 483.5,147.5 466.5,147.5 449.5,147.5C 449.795,149.735 449.461,151.735 448.5,153.5C 448.5,151.167 448.5,148.833 448.5,146.5C 466.008,146.17 483.341,146.503 500.5,147.5 Z"/></g>
<g><path style="opacity:1" fill="#e1dcfb" d="M 568.5,153.5 C 567.549,152.081 567.216,150.415 567.5,148.5C 553.167,148.5 538.833,148.5 524.5,148.5C 524.5,150.5 524.5,152.5 524.5,154.5C 522.167,154.5 519.833,154.5 517.5,154.5C 517.795,156.735 517.461,158.735 516.5,160.5C 516.5,158.167 516.5,155.833 516.5,153.5C 518.833,153.5 521.167,153.5 523.5,153.5C 523.5,151.5 523.5,149.5 523.5,147.5C 538.5,147.5 553.5,147.5 568.5,147.5C 568.5,149.5 568.5,151.5 568.5,153.5 Z"/></g>
<g><path style="opacity:1" fill="#fcf8fd" d="M 500.5,147.5 C 500.5,149.833 500.5,152.167 500.5,154.5C 502.5,154.5 504.5,154.5 506.5,154.5C 506.5,161.833 506.5,169.167 506.5,176.5C 499.167,176.5 491.833,176.5 484.5,176.5C 484.795,174.265 484.461,172.265 483.5,170.5C 479.833,170.5 476.167,170.5 472.5,170.5C 472.5,172.5 472.5,174.5 472.5,176.5C 470.167,176.5 467.833,176.5 465.5,176.5C 465.5,184.833 465.5,193.167 465.5,201.5C 467.833,201.5 470.167,201.5 472.5,201.5C 472.205,203.735 472.539,205.735 473.5,207.5C 476.625,208.479 479.958,208.813 483.5,208.5C 483.5,206.167 483.5,203.833 483.5,201.5C 491.5,201.5 499.5,201.5 507.5,201.5C 507.5,209.167 507.5,216.833 507.5,224.5C 505.167,224.5 502.833,224.5 500.5,224.5C 500.756,226.792 500.423,228.959 499.5,231C 482.837,231.5 466.17,231.667 449.5,231.5C 449.795,229.265 449.461,227.265 448.5,225.5C 446.735,224.539 444.735,224.205 442.5,224.5C 442.795,222.265 442.461,220.265 441.5,218.5C 439.735,217.539 437.735,217.205 435.5,217.5C 435.5,198.833 435.5,180.167 435.5,161.5C 437.735,161.795 439.735,161.461 441.5,160.5C 442.461,158.735 442.795,156.735 442.5,154.5C 444.735,154.795 446.735,154.461 448.5,153.5C 449.461,151.735 449.795,149.735 449.5,147.5C 466.5,147.5 483.5,147.5 500.5,147.5 Z"/></g>
<g><path style="opacity:1" fill="#fdf9fd" d="M 568.5,153.5 C 570.833,153.5 573.167,153.5 575.5,153.5C 575.5,155.833 575.5,158.167 575.5,160.5C 577.265,161.461 579.265,161.795 581.5,161.5C 581.5,180.167 581.5,198.833 581.5,217.5C 579.265,217.205 577.265,217.539 575.5,218.5C 575.5,220.5 575.5,222.5 575.5,224.5C 572.833,224.5 570.167,224.5 567.5,224.5C 567.5,226.5 567.5,228.5 567.5,230.5C 553.167,230.5 538.833,230.5 524.5,230.5C 524.784,228.585 524.451,226.919 523.5,225.5C 521.393,224.532 519.059,224.198 516.5,224.5C 516.5,222.5 516.5,220.5 516.5,218.5C 514.735,217.539 512.735,217.205 510.5,217.5C 510.5,198.833 510.5,180.167 510.5,161.5C 512.735,161.795 514.735,161.461 516.5,160.5C 517.461,158.735 517.795,156.735 517.5,154.5C 519.833,154.5 522.167,154.5 524.5,154.5C 524.5,152.5 524.5,150.5 524.5,148.5C 538.833,148.5 553.167,148.5 567.5,148.5C 567.216,150.415 567.549,152.081 568.5,153.5 Z"/></g>
<g><path style="opacity:1" fill="#fdf9fd" d="M 629.5,153.5 C 633.97,154.486 638.637,154.819 643.5,154.5C 643.5,156.5 643.5,158.5 643.5,160.5C 645.833,160.5 648.167,160.5 650.5,160.5C 650.5,162.833 650.5,165.167 650.5,167.5C 652.265,168.461 654.265,168.795 656.5,168.5C 656.5,182.5 656.5,196.5 656.5,210.5C 654.265,210.205 652.265,210.539 650.5,211.5C 649.539,213.265 649.205,215.265 649.5,217.5C 647.167,217.5 644.833,217.5 642.5,217.5C 642.5,219.833 642.5,222.167 642.5,224.5C 637.833,224.5 633.167,224.5 628.5,224.5C 628.5,226.833 628.5,229.167 628.5,231.5C 613.99,231.829 599.657,231.496 585.5,230.5C 585.5,203.167 585.5,175.833 585.5,148.5C 599.833,148.5 614.167,148.5 628.5,148.5C 628.216,150.415 628.549,152.081 629.5,153.5 Z"/></g>
<g><path style="opacity:1" fill="#fdf9fd" d="M 660.5,147.5 C 679.5,147.5 698.5,147.5 717.5,147.5C 717.5,154.833 717.5,162.167 717.5,169.5C 708.318,169.173 699.318,169.507 690.5,170.5C 690.5,171.833 690.5,173.167 690.5,174.5C 697.167,174.5 703.833,174.5 710.5,174.5C 710.5,181.833 710.5,189.167 710.5,196.5C 703.646,196.176 696.979,196.509 690.5,197.5C 690.187,201.042 690.521,204.375 691.5,207.5C 699.984,208.493 708.651,208.826 717.5,208.5C 717.5,216.167 717.5,223.833 717.5,231.5C 698.5,231.5 679.5,231.5 660.5,231.5C 660.5,203.5 660.5,175.5 660.5,147.5 Z"/></g>
<g><path style="opacity:1" fill="#f9bbe5" d="M 491.5,155.5 C 480.167,155.5 468.833,155.5 457.5,155.5C 457.795,157.735 457.461,159.735 456.5,161.5C 456.5,159.167 456.5,156.833 456.5,154.5C 468.345,154.172 480.012,154.505 491.5,155.5 Z"/></g>
<g><path style="opacity:1" fill="#afa2f4" d="M 448.5,153.5 C 446.735,154.461 444.735,154.795 442.5,154.5C 442.795,156.735 442.461,158.735 441.5,160.5C 441.5,158.167 441.5,155.833 441.5,153.5C 443.833,153.5 446.167,153.5 448.5,153.5 Z"/></g>
<g><path style="opacity:1" fill="#ec22a7" d="M 491.5,155.5 C 491.5,157.5 491.5,159.5 491.5,161.5C 482.318,161.173 473.318,161.507 464.5,162.5C 464.5,164.833 464.5,167.167 464.5,169.5C 462.167,169.5 459.833,169.5 457.5,169.5C 457.5,182.833 457.5,196.167 457.5,209.5C 459.833,209.5 462.167,209.5 464.5,209.5C 464.5,211.833 464.5,214.167 464.5,216.5C 473.682,216.827 482.682,216.493 491.5,215.5C 491.5,213.5 491.5,211.5 491.5,209.5C 494.167,209.5 496.833,209.5 499.5,209.5C 499.5,211.833 499.5,214.167 499.5,216.5C 497.167,216.5 494.833,216.5 492.5,216.5C 492.5,218.833 492.5,221.167 492.5,223.5C 480.833,223.5 469.167,223.5 457.5,223.5C 457.5,221.167 457.5,218.833 457.5,216.5C 455.167,216.5 452.833,216.5 450.5,216.5C 451.833,210.5 449.5,208.167 443.5,209.5C 443.5,196.167 443.5,182.833 443.5,169.5C 449.5,170.833 451.833,168.5 450.5,162.5C 452.265,161.539 454.265,161.205 456.5,161.5C 457.461,159.735 457.795,157.735 457.5,155.5C 468.833,155.5 480.167,155.5 491.5,155.5 Z"/></g>
<g><path style="opacity:1" fill="#ec24a7" d="M 567.5,168.5 C 569.265,169.461 571.265,169.795 573.5,169.5C 573.5,182.833 573.5,196.167 573.5,209.5C 571.5,209.5 569.5,209.5 567.5,209.5C 567.5,211.833 567.5,214.167 567.5,216.5C 565.167,216.5 562.833,216.5 560.5,216.5C 560.5,218.833 560.5,221.167 560.5,223.5C 550.833,223.5 541.167,223.5 531.5,223.5C 531.5,221.167 531.5,218.833 531.5,216.5C 529.5,216.5 527.5,216.5 525.5,216.5C 525.795,214.265 525.461,212.265 524.5,210.5C 522.735,209.539 520.735,209.205 518.5,209.5C 518.5,196.167 518.5,182.833 518.5,169.5C 520.265,168.539 522.265,168.205 524.5,168.5C 524.5,166.5 524.5,164.5 524.5,162.5C 526.833,162.5 529.167,162.5 531.5,162.5C 531.5,160.167 531.5,157.833 531.5,155.5C 541.167,155.5 550.833,155.5 560.5,155.5C 560.5,157.833 560.5,160.167 560.5,162.5C 562.833,162.5 565.167,162.5 567.5,162.5C 567.5,164.5 567.5,166.5 567.5,168.5 Z"/></g>
<g><path style="opacity:1" fill="#ec24a6" d="M 620.5,155.5 C 620.5,157.5 620.5,159.5 620.5,161.5C 615.968,161.182 611.634,161.515 607.5,162.5C 607.5,180.5 607.5,198.5 607.5,216.5C 611.833,216.5 616.167,216.5 620.5,216.5C 620.5,214.167 620.5,211.833 620.5,209.5C 622.833,209.5 625.167,209.5 627.5,209.5C 627.5,207.167 627.5,204.833 627.5,202.5C 629.833,202.5 632.167,202.5 634.5,202.5C 634.5,193.5 634.5,184.5 634.5,175.5C 632.167,175.5 629.833,175.5 627.5,175.5C 627.5,173.5 627.5,171.5 627.5,169.5C 625.735,168.539 623.735,168.205 621.5,168.5C 621.5,166.5 621.5,164.5 621.5,162.5C 625.833,162.5 630.167,162.5 634.5,162.5C 633.167,168.5 635.5,170.833 641.5,169.5C 641.5,171.5 641.5,173.5 641.5,175.5C 643.833,175.5 646.167,175.5 648.5,175.5C 648.5,184.833 648.5,194.167 648.5,203.5C 646.167,203.5 643.833,203.5 641.5,203.5C 641.5,205.5 641.5,207.5 641.5,209.5C 639.5,209.5 637.5,209.5 635.5,209.5C 635.5,211.833 635.5,214.167 635.5,216.5C 630.833,216.5 626.167,216.5 621.5,216.5C 621.5,218.833 621.5,221.167 621.5,223.5C 611.833,223.5 602.167,223.5 592.5,223.5C 592.5,200.833 592.5,178.167 592.5,155.5C 601.833,155.5 611.167,155.5 620.5,155.5 Z"/></g>
<g><path style="opacity:1" fill="#ec23a7" d="M 682.5,162.5 C 681.509,168.979 681.176,175.646 681.5,182.5C 688.5,182.5 695.5,182.5 702.5,182.5C 703.468,184.607 703.802,186.941 703.5,189.5C 696.5,189.5 689.5,189.5 682.5,189.5C 681.507,198.318 681.173,207.318 681.5,216.5C 690.833,216.5 700.167,216.5 709.5,216.5C 710.468,218.607 710.802,220.941 710.5,223.5C 696.167,223.5 681.833,223.5 667.5,223.5C 667.5,200.833 667.5,178.167 667.5,155.5C 681.833,155.5 696.167,155.5 710.5,155.5C 710.5,157.833 710.5,160.167 710.5,162.5C 701.167,162.5 691.833,162.5 682.5,162.5 Z"/></g>
<g><path style="opacity:1" fill="#f57fcf" d="M 491.5,155.5 C 492.461,157.265 492.795,159.265 492.5,161.5C 494.833,161.5 497.167,161.5 499.5,161.5C 499.5,164.167 499.5,166.833 499.5,169.5C 496.833,169.5 494.167,169.5 491.5,169.5C 491.5,167.167 491.5,164.833 491.5,162.5C 482.5,162.5 473.5,162.5 464.5,162.5C 473.318,161.507 482.318,161.173 491.5,161.5C 491.5,159.5 491.5,157.5 491.5,155.5 Z"/></g>
<g><path style="opacity:1" fill="#747585" d="M 128.5,159.5 C 116.167,159.5 103.833,159.5 91.5,159.5C 91.5,161.833 91.5,164.167 91.5,166.5C 90.5269,164.052 90.1936,161.385 90.5,158.5C 103.344,158.171 116.011,158.505 128.5,159.5 Z"/></g>
<g><path style="opacity:1" fill="#fefefe" d="M 128.5,159.5 C 128.5,161.833 128.5,164.167 128.5,166.5C 116.167,166.5 103.833,166.5 91.5,166.5C 91.5,164.167 91.5,161.833 91.5,159.5C 103.833,159.5 116.167,159.5 128.5,159.5 Z"/></g>
<g><path style="opacity:1" fill="#816bed" d="M 629.5,153.5 C 634.5,153.5 639.5,153.5 644.5,153.5C 644.5,155.5 644.5,157.5 644.5,159.5C 646.735,159.205 648.735,159.539 650.5,160.5C 648.167,160.5 645.833,160.5 643.5,160.5C 643.5,158.5 643.5,156.5 643.5,154.5C 638.637,154.819 633.97,154.486 629.5,153.5 Z"/></g>
<g><path style="opacity:1" fill="#6047e9" d="M 584.5,147.5 C 584.5,175.167 584.5,202.833 584.5,230.5C 584.5,231.167 584.5,231.833 584.5,232.5C 583.833,227.5 583.167,222.5 582.5,217.5C 582.5,198.833 582.5,180.167 582.5,161.5C 583.167,156.833 583.833,152.167 584.5,147.5 Z"/></g>
<g><path style="opacity:1" fill="#c3b8f6" d="M 500.5,147.5 C 501.461,149.265 501.795,151.265 501.5,153.5C 503.735,153.205 505.735,153.539 507.5,154.5C 507.5,162.167 507.5,169.833 507.5,177.5C 499.5,177.5 491.5,177.5 483.5,177.5C 483.5,175.167 483.5,172.833 483.5,170.5C 484.461,172.265 484.795,174.265 484.5,176.5C 491.833,176.5 499.167,176.5 506.5,176.5C 506.5,169.167 506.5,161.833 506.5,154.5C 504.5,154.5 502.5,154.5 500.5,154.5C 500.5,152.167 500.5,149.833 500.5,147.5 Z"/></g>
<g><path style="opacity:1" fill="#ddd7fa" d="M 584.5,147.5 C 599.5,147.5 614.5,147.5 629.5,147.5C 629.5,149.5 629.5,151.5 629.5,153.5C 628.549,152.081 628.216,150.415 628.5,148.5C 614.167,148.5 599.833,148.5 585.5,148.5C 585.5,175.833 585.5,203.167 585.5,230.5C 585.167,230.5 584.833,230.5 584.5,230.5C 584.5,202.833 584.5,175.167 584.5,147.5 Z"/></g>
<g><path style="opacity:1" fill="#beb3f6" d="M 441.5,160.5 C 439.735,161.461 437.735,161.795 435.5,161.5C 435.5,180.167 435.5,198.833 435.5,217.5C 437.735,217.205 439.735,217.539 441.5,218.5C 439.167,218.5 436.833,218.5 434.5,218.5C 434.5,199.167 434.5,179.833 434.5,160.5C 436.833,160.5 439.167,160.5 441.5,160.5 Z"/></g>
<g><path style="opacity:1" fill="#fcf8fd" d="M 553.5,209.5 C 552.539,211.265 552.205,213.265 552.5,215.5C 548.5,215.5 544.5,215.5 540.5,215.5C 540.795,213.265 540.461,211.265 539.5,209.5C 537.167,209.5 534.833,209.5 532.5,209.5C 532.5,196.167 532.5,182.833 532.5,169.5C 534.833,169.5 537.167,169.5 539.5,169.5C 539.5,167.167 539.5,164.833 539.5,162.5C 543.833,162.5 548.167,162.5 552.5,162.5C 551.167,168.5 553.5,170.833 559.5,169.5C 559.5,182.833 559.5,196.167 559.5,209.5C 557.5,209.5 555.5,209.5 553.5,209.5 Z"/></g>
<g><path style="opacity:1" fill="#c1b7f6" d="M 575.5,160.5 C 578.059,160.198 580.393,160.532 582.5,161.5C 582.5,180.167 582.5,198.833 582.5,217.5C 580.393,218.468 578.059,218.802 575.5,218.5C 577.265,217.539 579.265,217.205 581.5,217.5C 581.5,198.833 581.5,180.167 581.5,161.5C 579.265,161.795 577.265,161.461 575.5,160.5 Z"/></g>
<g><path style="opacity:1" fill="#fcf7fc" d="M 607.5,162.5 C 611.833,162.5 616.167,162.5 620.5,162.5C 620.5,164.833 620.5,167.167 620.5,169.5C 622.833,169.5 625.167,169.5 627.5,169.5C 627.5,171.5 627.5,173.5 627.5,175.5C 629.833,175.5 632.167,175.5 634.5,175.5C 634.5,184.5 634.5,193.5 634.5,202.5C 632.167,202.5 629.833,202.5 627.5,202.5C 627.5,204.833 627.5,207.167 627.5,209.5C 625.167,209.5 622.833,209.5 620.5,209.5C 620.5,211.833 620.5,214.167 620.5,216.5C 616.167,216.5 611.833,216.5 607.5,216.5C 607.5,198.5 607.5,180.5 607.5,162.5 Z"/></g>
<g><path style="opacity:1" fill="#f583d0" d="M 620.5,155.5 C 621.461,157.265 621.795,159.265 621.5,161.5C 626.032,161.182 630.366,161.515 634.5,162.5C 630.167,162.5 625.833,162.5 621.5,162.5C 621.5,164.5 621.5,166.5 621.5,168.5C 623.735,168.205 625.735,168.539 627.5,169.5C 625.167,169.5 622.833,169.5 620.5,169.5C 620.5,167.167 620.5,164.833 620.5,162.5C 616.167,162.5 611.833,162.5 607.5,162.5C 611.634,161.515 615.968,161.182 620.5,161.5C 620.5,159.5 620.5,157.5 620.5,155.5 Z"/></g>
<g><path style="opacity:1" fill="#ec1ba7" d="M 492.5,162.5 C 494.5,162.5 496.5,162.5 498.5,162.5C 498.5,164.5 498.5,166.5 498.5,168.5C 496.5,168.5 494.5,168.5 492.5,168.5C 492.5,166.5 492.5,164.5 492.5,162.5 Z"/></g>
<g><path style="opacity:1" fill="#6148e9" d="M 659.5,147.5 C 659.5,175.833 659.5,204.167 659.5,232.5C 658.833,225.5 658.167,218.5 657.5,211.5C 657.5,196.833 657.5,182.167 657.5,167.5C 658.167,160.833 658.833,154.167 659.5,147.5 Z"/></g>
<g><path style="opacity:1" fill="#b1a2f4" d="M 659.5,147.5 C 678.993,146.503 698.66,146.17 718.5,146.5C 718.5,154.5 718.5,162.5 718.5,170.5C 709.167,170.5 699.833,170.5 690.5,170.5C 699.318,169.507 708.318,169.173 717.5,169.5C 717.5,162.167 717.5,154.833 717.5,147.5C 698.5,147.5 679.5,147.5 660.5,147.5C 660.167,147.5 659.833,147.5 659.5,147.5 Z"/></g>
<g><path style="opacity:1" fill="#f9ade0" d="M 634.5,162.5 C 635.451,163.919 635.784,165.585 635.5,167.5C 641.5,166.167 643.833,168.5 642.5,174.5C 644.735,174.205 646.735,174.539 648.5,175.5C 646.167,175.5 643.833,175.5 641.5,175.5C 641.5,173.5 641.5,171.5 641.5,169.5C 635.5,170.833 633.167,168.5 634.5,162.5 Z"/></g>
<g><path style="opacity:1" fill="#c3baf7" d="M 650.5,167.5 C 652.833,167.5 655.167,167.5 657.5,167.5C 657.5,182.167 657.5,196.833 657.5,211.5C 655.167,211.5 652.833,211.5 650.5,211.5C 652.265,210.539 654.265,210.205 656.5,210.5C 656.5,196.5 656.5,182.5 656.5,168.5C 654.265,168.795 652.265,168.461 650.5,167.5 Z"/></g>
<g><path style="opacity:1" fill="#f8addf" d="M 450.5,162.5 C 451.833,168.5 449.5,170.833 443.5,169.5C 443.5,182.833 443.5,196.167 443.5,209.5C 442.339,196.006 442.173,182.34 443,168.5C 445.041,167.577 447.208,167.244 449.5,167.5C 449.216,165.585 449.549,163.919 450.5,162.5 Z"/></g>
<g><path style="opacity:1" fill="#3b1ce4" d="M 507.5,177.5 C 508.833,185.5 508.833,193.5 507.5,201.5C 499.5,201.5 491.5,201.5 483.5,201.5C 483.5,203.833 483.5,206.167 483.5,208.5C 479.958,208.813 476.625,208.479 473.5,207.5C 472.539,205.735 472.205,203.735 472.5,201.5C 470.735,200.539 468.735,200.205 466.5,200.5C 466.5,192.833 466.5,185.167 466.5,177.5C 468.735,177.795 470.735,177.461 472.5,176.5C 473.451,175.081 473.784,173.415 473.5,171.5C 476.5,171.5 479.5,171.5 482.5,171.5C 482.5,173.833 482.5,176.167 482.5,178.5C 491.017,178.826 499.35,178.493 507.5,177.5 Z"/></g>
<g><path style="opacity:1" fill="#f796d7" d="M 518.5,169.5 C 518.5,182.833 518.5,196.167 518.5,209.5C 520.735,209.205 522.735,209.539 524.5,210.5C 522.167,210.5 519.833,210.5 517.5,210.5C 517.171,196.656 517.504,182.99 518.5,169.5 Z"/></g>
<g><path style="opacity:1" fill="#f58bd3" d="M 567.5,168.5 C 569.833,168.5 572.167,168.5 574.5,168.5C 574.829,182.344 574.496,196.01 573.5,209.5C 573.5,196.167 573.5,182.833 573.5,169.5C 571.265,169.795 569.265,169.461 567.5,168.5 Z"/></g>
<g><path style="opacity:1" fill="#acd5d1" d="M 32.5,170.5 C 34.5,170.5 36.5,170.5 38.5,170.5C 38.5,172.833 38.5,175.167 38.5,177.5C 36.5,177.5 34.5,177.5 32.5,177.5C 32.5,175.167 32.5,172.833 32.5,170.5 Z"/></g>
<g><path style="opacity:1" fill="#b2dfd7" d="M 181.5,170.5 C 183.5,170.5 185.5,170.5 187.5,170.5C 187.5,172.833 187.5,175.167 187.5,177.5C 185.5,177.5 183.5,177.5 181.5,177.5C 181.5,175.167 181.5,172.833 181.5,170.5 Z"/></g>
<g><path style="opacity:1" fill="#8b77ef" d="M 690.5,170.5 C 699.833,170.5 709.167,170.5 718.5,170.5C 709.658,171.167 700.658,171.833 691.5,172.5C 698.321,173.167 704.988,173.833 711.5,174.5C 711.167,174.5 710.833,174.5 710.5,174.5C 703.833,174.5 697.167,174.5 690.5,174.5C 690.5,173.167 690.5,171.833 690.5,170.5 Z"/></g>
<g><path style="opacity:1" fill="#664dea" d="M 483.5,170.5 C 483.5,172.833 483.5,175.167 483.5,177.5C 491.5,177.5 499.5,177.5 507.5,177.5C 499.35,178.493 491.017,178.826 482.5,178.5C 482.5,176.167 482.5,173.833 482.5,171.5C 479.5,171.5 476.5,171.5 473.5,171.5C 473.784,173.415 473.451,175.081 472.5,176.5C 472.5,174.5 472.5,172.5 472.5,170.5C 476.167,170.5 479.833,170.5 483.5,170.5 Z"/></g>
<g><path style="opacity:1" fill="#6249e9" d="M 507.5,154.5 C 508.167,156.5 508.833,158.5 509.5,160.5C 509.5,179.5 509.5,198.5 509.5,217.5C 508.833,219.833 508.167,222.167 507.5,224.5C 507.5,216.833 507.5,209.167 507.5,201.5C 508.833,193.5 508.833,185.5 507.5,177.5C 507.5,169.833 507.5,162.167 507.5,154.5 Z"/></g>
<g><path style="opacity:1" fill="#beb4f6" d="M 509.5,160.5 C 511.833,160.5 514.167,160.5 516.5,160.5C 514.735,161.461 512.735,161.795 510.5,161.5C 510.5,180.167 510.5,198.833 510.5,217.5C 512.735,217.205 514.735,217.539 516.5,218.5C 513.941,218.802 511.607,218.468 509.5,217.5C 509.5,198.5 509.5,179.5 509.5,160.5 Z"/></g>
<g><path style="opacity:1" fill="#907def" d="M 472.5,176.5 C 470.735,177.461 468.735,177.795 466.5,177.5C 466.5,185.167 466.5,192.833 466.5,200.5C 468.735,200.205 470.735,200.539 472.5,201.5C 470.167,201.5 467.833,201.5 465.5,201.5C 465.5,193.167 465.5,184.833 465.5,176.5C 467.833,176.5 470.167,176.5 472.5,176.5 Z"/></g>
<g><path style="opacity:1" fill="#3d1fe4" d="M 619.5,183.5 C 621.265,184.461 623.265,184.795 625.5,184.5C 625.5,187.833 625.5,191.167 625.5,194.5C 623.5,194.5 621.5,194.5 619.5,194.5C 618.835,196.369 618.169,198.369 617.5,200.5C 616.167,192.833 616.167,185.167 617.5,177.5C 618.169,179.631 618.835,181.631 619.5,183.5 Z"/></g>
<g><path style="opacity:1" fill="#3eae81" d="M 32.5,170.5 C 32.5,172.833 32.5,175.167 32.5,177.5C 34.5,177.5 36.5,177.5 38.5,177.5C 38.8333,177.5 39.1667,177.5 39.5,177.5C 39.5,177.833 39.5,178.167 39.5,178.5C 37.1667,178.5 34.8333,178.5 32.5,178.5C 32.5,180.833 32.5,183.167 32.5,185.5C 31.5318,183.393 31.1984,181.059 31.5,178.5C 28.6146,178.806 25.9479,178.473 23.5,177.5C 26.1667,177.5 28.8333,177.5 31.5,177.5C 31.1984,174.941 31.5318,172.607 32.5,170.5 Z"/></g>
<g><path style="opacity:1" fill="#b5e8db" d="M 39.5,178.5 C 41.8333,178.5 44.1667,178.5 46.5,178.5C 46.5,180.833 46.5,183.167 46.5,185.5C 44.1667,185.5 41.8333,185.5 39.5,185.5C 39.5,183.167 39.5,180.833 39.5,178.5 Z"/></g>
<g><path style="opacity:1" fill="#101e44" d="M 38.5,170.5 C 41.8333,170.5 45.1667,170.5 48.5,170.5C 48.5,172.833 48.5,175.167 48.5,177.5C 89.5,177.5 130.5,177.5 171.5,177.5C 171.5,179.833 171.5,182.167 171.5,184.5C 130.167,184.5 88.8333,184.5 47.5,184.5C 47.5,182.167 47.5,179.833 47.5,177.5C 44.8333,177.5 42.1667,177.5 39.5,177.5C 39.1667,177.5 38.8333,177.5 38.5,177.5C 38.5,175.167 38.5,172.833 38.5,170.5 Z"/></g>
<g><path style="opacity:1" fill="#abdad1" d="M 180.5,177.5 C 180.5,177.833 180.5,178.167 180.5,178.5C 179.532,180.607 179.198,182.941 179.5,185.5C 177.167,185.5 174.833,185.5 172.5,185.5C 172.5,182.833 172.5,180.167 172.5,177.5C 175.167,177.5 177.833,177.5 180.5,177.5 Z"/></g>
<g><path style="opacity:1" fill="#8571ee" d="M 540.5,176.5 C 544.167,176.5 547.833,176.5 551.5,176.5C 551.5,184.833 551.5,193.167 551.5,201.5C 547.833,201.5 544.167,201.5 540.5,201.5C 540.5,193.167 540.5,184.833 540.5,176.5 Z"/></g>
<g><path style="opacity:1" fill="#3b1ce4" d="M 541.5,177.5 C 544.5,177.5 547.5,177.5 550.5,177.5C 550.5,185.167 550.5,192.833 550.5,200.5C 547.5,200.5 544.5,200.5 541.5,200.5C 541.5,192.833 541.5,185.167 541.5,177.5 Z"/></g>
<g><path style="opacity:1" fill="#7e69ed" d="M 619.5,183.5 C 618.835,181.631 618.169,179.631 617.5,177.5C 616.167,185.167 616.167,192.833 617.5,200.5C 618.169,198.369 618.835,196.369 619.5,194.5C 619.5,196.833 619.5,199.167 619.5,201.5C 618.167,201.5 616.833,201.5 615.5,201.5C 615.5,193.167 615.5,184.833 615.5,176.5C 616.833,176.5 618.167,176.5 619.5,176.5C 619.5,178.833 619.5,181.167 619.5,183.5 Z"/></g>
<g><path style="opacity:1" fill="#f9b6e3" d="M 682.5,162.5 C 682.5,168.833 682.5,175.167 682.5,181.5C 689.354,181.176 696.021,181.509 702.5,182.5C 695.5,182.5 688.5,182.5 681.5,182.5C 681.176,175.646 681.509,168.979 682.5,162.5 Z"/></g>
<g><path style="opacity:1" fill="#22f27f" d="M 39.5,178.5 C 39.5,180.833 39.5,183.167 39.5,185.5C 37.1667,185.5 34.8333,185.5 32.5,185.5C 32.5,183.167 32.5,180.833 32.5,178.5C 34.8333,178.5 37.1667,178.5 39.5,178.5 Z"/></g>
<g><path style="opacity:1" fill="#223850" d="M 180.5,91.5 C 180.833,91.5 181.167,91.5 181.5,91.5C 181.5,117.833 181.5,144.167 181.5,170.5C 181.5,172.833 181.5,175.167 181.5,177.5C 181.167,177.5 180.833,177.5 180.5,177.5C 177.833,177.5 175.167,177.5 172.5,177.5C 172.5,180.167 172.5,182.833 172.5,185.5C 172.167,185.5 171.833,185.5 171.5,185.5C 171.167,185.5 170.833,185.5 170.5,185.5C 170.167,185.5 169.833,185.5 169.5,185.5C 129.5,185.5 89.5,185.5 49.5,185.5C 49.1667,185.5 48.8333,185.5 48.5,185.5C 47.8333,185.5 47.1667,185.5 46.5,185.5C 46.5,183.167 46.5,180.833 46.5,178.5C 44.1667,178.5 41.8333,178.5 39.5,178.5C 39.5,178.167 39.5,177.833 39.5,177.5C 42.1667,177.5 44.8333,177.5 47.5,177.5C 47.5,179.833 47.5,182.167 47.5,184.5C 88.8333,184.5 130.167,184.5 171.5,184.5C 171.5,182.167 171.5,179.833 171.5,177.5C 171.5,175.167 171.5,172.833 171.5,170.5C 174.5,170.5 177.5,170.5 180.5,170.5C 180.5,144.167 180.5,117.833 180.5,91.5 Z"/></g>
<g><path style="opacity:1" fill="#2fbe7b" d="M 195.5,156.5 C 195.833,156.5 196.167,156.5 196.5,156.5C 196.5,163.833 196.5,171.167 196.5,178.5C 193.5,178.5 190.5,178.5 187.5,178.5C 187.5,180.833 187.5,183.167 187.5,185.5C 185.167,185.5 182.833,185.5 180.5,185.5C 180.5,187.833 180.5,190.167 180.5,192.5C 180.167,192.5 179.833,192.5 179.5,192.5C 179.5,190.167 179.5,187.833 179.5,185.5C 179.198,182.941 179.532,180.607 180.5,178.5C 180.5,178.167 180.5,177.833 180.5,177.5C 180.833,177.5 181.167,177.5 181.5,177.5C 183.5,177.5 185.5,177.5 187.5,177.5C 190.167,177.5 192.833,177.5 195.5,177.5C 195.5,170.5 195.5,163.5 195.5,156.5 Z"/></g>
<g><path style="opacity:1" fill="#1df77d" d="M 180.5,178.5 C 182.5,178.5 184.5,178.5 186.5,178.5C 186.5,180.5 186.5,182.5 186.5,184.5C 184.5,184.5 182.5,184.5 180.5,184.5C 180.5,182.5 180.5,180.5 180.5,178.5 Z"/></g>
<g><path style="opacity:1" fill="#1ef37e" d="M 171.5,185.5 C 171.833,185.5 172.167,185.5 172.5,185.5C 174.833,185.5 177.167,185.5 179.5,185.5C 179.5,187.833 179.5,190.167 179.5,192.5C 176.833,192.5 174.167,192.5 171.5,192.5C 171.5,190.167 171.5,187.833 171.5,185.5 Z"/></g>
<g><path style="opacity:1" fill="#8e7bef" d="M 619.5,183.5 C 621.833,183.5 624.167,183.5 626.5,183.5C 626.815,187.371 626.482,191.038 625.5,194.5C 625.5,191.167 625.5,187.833 625.5,184.5C 623.265,184.795 621.265,184.461 619.5,183.5 Z"/></g>
<g><path style="opacity:1" fill="#26f281" d="M 39.5,185.5 C 41.8333,185.5 44.1667,185.5 46.5,185.5C 47.1667,185.5 47.8333,185.5 48.5,185.5C 48.5,187.833 48.5,190.167 48.5,192.5C 45.5,192.5 42.5,192.5 39.5,192.5C 39.5,190.167 39.5,187.833 39.5,185.5 Z"/></g>
<g><path style="opacity:1" fill="#d8d4e6" d="M 48.5,185.5 C 48.8333,185.5 49.1667,185.5 49.5,185.5C 49.5,187.5 49.5,189.5 49.5,191.5C 89.5,191.5 129.5,191.5 169.5,191.5C 169.5,189.5 169.5,187.5 169.5,185.5C 169.833,185.5 170.167,185.5 170.5,185.5C 170.5,187.833 170.5,190.167 170.5,192.5C 129.833,192.5 89.1667,192.5 48.5,192.5C 48.5,190.167 48.5,187.833 48.5,185.5 Z"/></g>
<g><path style="opacity:1" fill="#bfd9d9" d="M 49.5,185.5 C 89.5,185.5 129.5,185.5 169.5,185.5C 169.5,187.5 169.5,189.5 169.5,191.5C 129.5,191.5 89.5,191.5 49.5,191.5C 49.5,189.5 49.5,187.5 49.5,185.5 Z"/></g>
<g><path style="opacity:1" fill="#54ce95" d="M 170.5,185.5 C 170.833,185.5 171.167,185.5 171.5,185.5C 171.5,187.833 171.5,190.167 171.5,192.5C 174.167,192.5 176.833,192.5 179.5,192.5C 179.5,192.833 179.5,193.167 179.5,193.5C 176.833,193.5 174.167,193.5 171.5,193.5C 171.5,195.5 171.5,197.5 171.5,199.5C 163.833,199.5 156.167,199.5 148.5,199.5C 155.648,198.508 162.981,198.175 170.5,198.5C 170.5,196.833 170.5,195.167 170.5,193.5C 129.833,193.5 89.1667,193.5 48.5,193.5C 48.5,195.167 48.5,196.833 48.5,198.5C 56.0191,198.175 63.3524,198.508 70.5,199.5C 62.8333,199.5 55.1667,199.5 47.5,199.5C 47.5,197.5 47.5,195.5 47.5,193.5C 44.8333,193.5 42.1667,193.5 39.5,193.5C 39.5,193.167 39.5,192.833 39.5,192.5C 42.5,192.5 45.5,192.5 48.5,192.5C 89.1667,192.5 129.833,192.5 170.5,192.5C 170.5,190.167 170.5,187.833 170.5,185.5 Z"/></g>
<g><path style="opacity:1" fill="#d1caf8" d="M 710.5,174.5 C 710.833,174.5 711.167,174.5 711.5,174.5C 711.5,182.167 711.5,189.833 711.5,197.5C 704.5,197.5 697.5,197.5 690.5,197.5C 696.979,196.509 703.646,196.176 710.5,196.5C 710.5,189.167 710.5,181.833 710.5,174.5 Z"/></g>
<g><path style="opacity:1" fill="#13124b" d="M 39.5,193.5 C 42.1667,193.5 44.8333,193.5 47.5,193.5C 47.5,195.5 47.5,197.5 47.5,199.5C 55.1667,199.5 62.8333,199.5 70.5,199.5C 70.5,201.833 70.5,204.167 70.5,206.5C 96.5,206.5 122.5,206.5 148.5,206.5C 148.5,204.167 148.5,201.833 148.5,199.5C 156.167,199.5 163.833,199.5 171.5,199.5C 171.5,197.5 171.5,195.5 171.5,193.5C 174.167,193.5 176.833,193.5 179.5,193.5C 179.5,195.833 179.5,198.167 179.5,200.5C 176.833,200.5 174.167,200.5 171.5,200.5C 171.5,202.5 171.5,204.5 171.5,206.5C 166.489,206.334 161.489,206.501 156.5,207C 154.887,209.228 154.22,211.728 154.5,214.5C 159.833,214.5 165.167,214.5 170.5,214.5C 170.5,216.5 170.5,218.5 170.5,220.5C 165.833,220.5 161.167,220.5 156.5,220.5C 155.518,223.962 155.185,227.629 155.5,231.5C 153.167,231.5 150.833,231.5 148.5,231.5C 148.5,228.5 148.5,225.5 148.5,222.5C 122.672,221.502 96.672,221.169 70.5,221.5C 70.5,224.833 70.5,228.167 70.5,231.5C 68.1667,231.5 65.8333,231.5 63.5,231.5C 63.5,227.833 63.5,224.167 63.5,220.5C 58.5,220.5 53.5,220.5 48.5,220.5C 48.5,218.5 48.5,216.5 48.5,214.5C 53.8333,214.5 59.1667,214.5 64.5,214.5C 64.9452,211.635 64.2785,209.135 62.5,207C 57.8452,206.501 53.1785,206.334 48.5,206.5C 48.5,204.5 48.5,202.5 48.5,200.5C 45.5,200.5 42.5,200.5 39.5,200.5C 39.5,198.167 39.5,195.833 39.5,193.5 Z"/></g>
<g><path style="opacity:1" fill="#1ef07f" d="M 148.5,199.5 C 148.5,201.833 148.5,204.167 148.5,206.5C 122.5,206.5 96.5,206.5 70.5,206.5C 70.5,204.167 70.5,201.833 70.5,199.5C 63.3524,198.508 56.0191,198.175 48.5,198.5C 48.5,196.833 48.5,195.167 48.5,193.5C 89.1667,193.5 129.833,193.5 170.5,193.5C 170.5,195.167 170.5,196.833 170.5,198.5C 162.981,198.175 155.648,198.508 148.5,199.5 Z"/></g>
<g><path style="opacity:1" fill="#8672ee" d="M 483.5,201.5 C 483.5,203.833 483.5,206.167 483.5,208.5C 479.958,208.813 476.625,208.479 473.5,207.5C 476.5,207.5 479.5,207.5 482.5,207.5C 482.205,205.265 482.539,203.265 483.5,201.5 Z"/></g>
<g><path style="opacity:1" fill="#fac3e8" d="M 464.5,209.5 C 465.461,211.265 465.795,213.265 465.5,215.5C 474.167,215.5 482.833,215.5 491.5,215.5C 482.682,216.493 473.682,216.827 464.5,216.5C 464.5,214.167 464.5,211.833 464.5,209.5 Z"/></g>
<g><path style="opacity:1" fill="#fab8e4" d="M 539.5,209.5 C 540.461,211.265 540.795,213.265 540.5,215.5C 544.5,215.5 548.5,215.5 552.5,215.5C 552.205,213.265 552.539,211.265 553.5,209.5C 553.5,211.833 553.5,214.167 553.5,216.5C 548.833,216.5 544.167,216.5 539.5,216.5C 539.5,214.167 539.5,211.833 539.5,209.5 Z"/></g>
<g><path style="opacity:1" fill="#f9b4e2" d="M 682.5,189.5 C 682.5,198.167 682.5,206.833 682.5,215.5C 691.682,215.173 700.682,215.507 709.5,216.5C 700.167,216.5 690.833,216.5 681.5,216.5C 681.173,207.318 681.507,198.318 682.5,189.5 Z"/></g>
<g><path style="opacity:1" fill="#2d1593" d="M 48.5,214.5 C 48.5,216.5 48.5,218.5 48.5,220.5C 48.5,221.167 48.5,221.833 48.5,222.5C 45.5,222.5 42.5,222.5 39.5,222.5C 41.9479,221.527 44.6146,221.194 47.5,221.5C 47.1984,218.941 47.5318,216.607 48.5,214.5 Z"/></g>
<g><path style="opacity:1" fill="#9ca4bd" d="M 148.5,222.5 C 122.833,222.5 97.1667,222.5 71.5,222.5C 71.5,225.5 71.5,228.5 71.5,231.5C 74.1667,231.5 76.8333,231.5 79.5,231.5C 82.3878,232.01 84.7211,231.344 86.5,229.5C 86.8333,229.5 87.1667,229.5 87.5,229.5C 87.5,230.5 87.5,231.5 87.5,232.5C 81.642,232.822 75.9753,232.489 70.5,231.5C 70.5,228.167 70.5,224.833 70.5,221.5C 96.672,221.169 122.672,221.502 148.5,222.5 Z"/></g>
<g><path style="opacity:1" fill="#1f1551" d="M 39.5,222.5 C 42.5,222.5 45.5,222.5 48.5,222.5C 48.5,224.833 48.5,227.167 48.5,229.5C 48.1667,229.5 47.8333,229.5 47.5,229.5C 44.8333,229.5 42.1667,229.5 39.5,229.5C 39.5,227.167 39.5,224.833 39.5,222.5 Z"/></g>
<g><path style="opacity:1" fill="#ed0ca3" d="M 48.5,220.5 C 53.5,220.5 58.5,220.5 63.5,220.5C 63.5,224.167 63.5,227.833 63.5,231.5C 58.5,231.5 53.5,231.5 48.5,231.5C 48.5,230.833 48.5,230.167 48.5,229.5C 48.5,227.167 48.5,224.833 48.5,222.5C 48.5,221.833 48.5,221.167 48.5,220.5 Z"/></g>
<g><path style="opacity:1" fill="#ec0fa3" d="M 156.5,220.5 C 161.167,220.5 165.833,220.5 170.5,220.5C 171.167,220.5 171.5,220.833 171.5,221.5C 171.5,221.833 171.5,222.167 171.5,222.5C 171.5,224.833 171.5,227.167 171.5,229.5C 171.5,230.167 171.5,230.833 171.5,231.5C 166.5,231.5 161.5,231.5 156.5,231.5C 156.5,227.833 156.5,224.167 156.5,220.5 Z"/></g>
<g><path style="opacity:1" fill="#15144e" d="M 171.5,222.5 C 174.167,222.5 176.833,222.5 179.5,222.5C 179.5,224.833 179.5,227.167 179.5,229.5C 176.833,229.5 174.167,229.5 171.5,229.5C 171.5,227.167 171.5,224.833 171.5,222.5 Z"/></g>
<g><path style="opacity:1" fill="#f2f8f8" d="M 148.5,222.5 C 148.5,225.5 148.5,228.5 148.5,231.5C 148.5,231.833 148.5,232.167 148.5,232.5C 143.167,232.5 137.833,232.5 132.5,232.5C 132.5,232.167 132.5,231.833 132.5,231.5C 143.02,231.422 143.02,230.755 132.5,229.5C 117.5,229.5 102.5,229.5 87.5,229.5C 87.1667,229.5 86.8333,229.5 86.5,229.5C 84.4727,229.338 82.4727,229.505 80.5,230C 79.944,230.383 79.6107,230.883 79.5,231.5C 76.8333,231.5 74.1667,231.5 71.5,231.5C 71.5,228.5 71.5,225.5 71.5,222.5C 97.1667,222.5 122.833,222.5 148.5,222.5 Z"/></g>
<g><path style="opacity:1" fill="#a091f2" d="M 441.5,218.5 C 442.461,220.265 442.795,222.265 442.5,224.5C 444.735,224.205 446.735,224.539 448.5,225.5C 446.167,225.5 443.833,225.5 441.5,225.5C 441.5,223.167 441.5,220.833 441.5,218.5 Z"/></g>
<g><path style="opacity:1" fill="#1efb81" d="M 39.5,229.5 C 42.1667,229.5 44.8333,229.5 47.5,229.5C 45.3647,231.369 42.6981,232.036 39.5,231.5C 39.5,230.833 39.5,230.167 39.5,229.5 Z"/></g>
<g><path style="opacity:1" fill="#26f07e" d="M 86.5,229.5 C 84.7211,231.344 82.3878,232.01 79.5,231.5C 79.6107,230.883 79.944,230.383 80.5,230C 82.4727,229.505 84.4727,229.338 86.5,229.5 Z"/></g>
<g><path style="opacity:1" fill="#131059" d="M 87.5,229.5 C 102.5,229.5 117.5,229.5 132.5,229.5C 132.5,230.167 132.5,230.833 132.5,231.5C 132.5,231.833 132.5,232.167 132.5,232.5C 117.5,232.5 102.5,232.5 87.5,232.5C 87.5,231.5 87.5,230.5 87.5,229.5 Z"/></g>
<g><path style="opacity:1" fill="#2bf17f" d="M 132.5,229.5 C 143.02,230.755 143.02,231.422 132.5,231.5C 132.5,230.833 132.5,230.167 132.5,229.5 Z"/></g>
<g><path style="opacity:1" fill="#22ed7f" d="M 171.5,229.5 C 174.167,229.5 176.833,229.5 179.5,229.5C 180.043,229.56 180.376,229.893 180.5,230.5C 177.572,231.484 174.572,231.817 171.5,231.5C 171.5,230.833 171.5,230.167 171.5,229.5 Z"/></g>
<g><path style="opacity:1" fill="#201777" d="M 39.5,229.5 C 39.5,230.167 39.5,230.833 39.5,231.5C 39.5,231.833 39.5,232.167 39.5,232.5C 36.7531,232.813 34.0865,232.48 31.5,231.5C 33.8511,229.771 36.5178,229.104 39.5,229.5 Z"/></g>
<g><path style="opacity:1" fill="#3f93a8" d="M 47.5,229.5 C 47.8333,229.5 48.1667,229.5 48.5,229.5C 48.5,230.167 48.5,230.833 48.5,231.5C 45.7131,232.477 42.7131,232.81 39.5,232.5C 39.5,232.167 39.5,231.833 39.5,231.5C 42.6981,232.036 45.3647,231.369 47.5,229.5 Z"/></g>
<g><path style="opacity:1" fill="#651597" d="M 156.5,220.5 C 156.5,224.167 156.5,227.833 156.5,231.5C 161.5,231.5 166.5,231.5 171.5,231.5C 171.5,231.833 171.5,232.167 171.5,232.5C 163.833,232.5 156.167,232.5 148.5,232.5C 148.5,232.167 148.5,231.833 148.5,231.5C 150.833,231.5 153.167,231.5 155.5,231.5C 155.185,227.629 155.518,223.962 156.5,220.5 Z"/></g>
<g><path style="opacity:1" fill="#2b2989" d="M 171.5,222.5 C 171.5,222.167 171.5,221.833 171.5,221.5C 174.5,221.5 177.5,221.5 180.5,221.5C 180.5,223.833 180.5,226.167 180.5,228.5C 183.588,228.377 186.255,229.377 188.5,231.5C 182.872,232.495 177.206,232.829 171.5,232.5C 171.5,232.167 171.5,231.833 171.5,231.5C 174.572,231.817 177.572,231.484 180.5,230.5C 180.376,229.893 180.043,229.56 179.5,229.5C 179.5,227.167 179.5,224.833 179.5,222.5C 176.833,222.5 174.167,222.5 171.5,222.5 Z"/></g>
<g><path style="opacity:1" fill="#bbaff5" d="M 507.5,224.5 C 505.735,225.461 503.735,225.795 501.5,225.5C 501.5,227.833 501.5,230.167 501.5,232.5C 483.833,232.5 466.167,232.5 448.5,232.5C 448.5,230.167 448.5,227.833 448.5,225.5C 449.461,227.265 449.795,229.265 449.5,231.5C 466.17,231.667 482.837,231.5 499.5,231C 500.423,228.959 500.756,226.792 500.5,224.5C 502.833,224.5 505.167,224.5 507.5,224.5 Z"/></g>
<g><path style="opacity:1" fill="#cbc2f7" d="M 575.5,224.5 C 573.393,225.468 571.059,225.802 568.5,225.5C 568.5,227.833 568.5,230.167 568.5,232.5C 553.5,232.5 538.5,232.5 523.5,232.5C 523.5,230.167 523.5,227.833 523.5,225.5C 524.451,226.919 524.784,228.585 524.5,230.5C 538.833,230.5 553.167,230.5 567.5,230.5C 567.5,228.5 567.5,226.5 567.5,224.5C 570.167,224.5 572.833,224.5 575.5,224.5 Z"/></g>
<g><path style="opacity:1" fill="#c1b6f6" d="M 650.5,211.5 C 650.5,213.833 650.5,216.167 650.5,218.5C 648.167,218.5 645.833,218.5 643.5,218.5C 643.5,220.833 643.5,223.167 643.5,225.5C 638.833,225.5 634.167,225.5 629.5,225.5C 629.5,227.833 629.5,230.167 629.5,232.5C 614.5,232.5 599.5,232.5 584.5,232.5C 584.5,231.833 584.5,231.167 584.5,230.5C 584.833,230.5 585.167,230.5 585.5,230.5C 599.657,231.496 613.99,231.829 628.5,231.5C 628.5,229.167 628.5,226.833 628.5,224.5C 633.167,224.5 637.833,224.5 642.5,224.5C 642.5,222.167 642.5,219.833 642.5,217.5C 644.833,217.5 647.167,217.5 649.5,217.5C 649.205,215.265 649.539,213.265 650.5,211.5 Z"/></g>
<g><path style="opacity:1" fill="#c5bbf7" d="M 659.5,147.5 C 659.833,147.5 660.167,147.5 660.5,147.5C 660.5,175.5 660.5,203.5 660.5,231.5C 679.5,231.5 698.5,231.5 717.5,231.5C 717.5,223.833 717.5,216.167 717.5,208.5C 708.651,208.826 699.984,208.493 691.5,207.5C 700.5,207.5 709.5,207.5 718.5,207.5C 718.5,215.833 718.5,224.167 718.5,232.5C 698.833,232.5 679.167,232.5 659.5,232.5C 659.5,204.167 659.5,175.833 659.5,147.5 Z"/></g>
</svg>
