<svg width="170" height="60" viewBox="0 0 170 60" fill="none" xmlns="http://www.w3.org/2000/svg">
<path d="M11.7911 7.37891H16.0155V25.9414H26.5765V28.0039H11.7911V7.37891ZM32.4062 7.37891H45.0794V9.44141H36.6306V15.6289H42.9672V17.6914H36.6306V25.9414H45.0794V28.0039H32.4062V7.37891ZM50.9092 7.37891H55.1336V11.5039H57.2458V15.6289H59.358V17.6914H61.4702V11.5039H63.5824V7.37891H67.8068V11.5039H65.6946V17.6914H63.5824V23.8789H61.4702V28.0039H57.2458V23.8789H55.1336V17.6914H53.0214V11.5039H50.9092V7.37891ZM73.6363 7.37891H86.3095V9.44141H77.8607V15.6289H84.1973V17.6914H77.8607V25.9414H86.3095V28.0039H73.6363V7.37891ZM92.1393 7.37891H96.3637V25.9414H106.925V28.0039H92.1393V7.37891ZM112.754 7.37891H116.978V23.8789H119.091V25.9414H123.316V23.8789H125.427V7.37891H129.652V23.8789H127.54V25.9414H125.427V28.0039H116.978V25.9414H114.867V23.8789H112.754V7.37891ZM137.593 7.37891H148.155V9.44141H150.267V15.6289H148.155V17.6914H146.042V19.7539H139.706V28.0039H135.482V9.44141H137.593V7.37891ZM139.706 9.44141V17.6914H143.931V15.6289H146.042V9.44141H139.706ZM156.097 5.31641H160.321V21.8164H156.097V5.31641ZM156.097 23.8789H160.321V28.0039H156.097V23.8789Z" fill="url(#paint0_linear_653_1307)"/>
<mask id="mask0_653_1307" style="mask-type:luminance" maskUnits="userSpaceOnUse" x="9" y="3" width="154" height="28">
<path d="M162.831 3.00391H9.21686V30.0039H162.831V3.00391Z" fill="white"/>
<path d="M11.7911 7.37891H16.0155V25.9414H26.5765V28.0039H11.7911V7.37891ZM32.4062 7.37891H45.0794V9.44141H36.6306V15.6289H42.9672V17.6914H36.6306V25.9414H45.0794V28.0039H32.4062V7.37891ZM50.9092 7.37891H55.1336V11.5039H57.2458V15.6289H59.358V17.6914H61.4702V11.5039H63.5824V7.37891H67.8068V11.5039H65.6946V17.6914H63.5824V23.8789H61.4702V28.0039H57.2458V23.8789H55.1336V17.6914H53.0214V11.5039H50.9092V7.37891ZM73.6363 7.37891H86.3095V9.44141H77.8607V15.6289H84.1973V17.6914H77.8607V25.9414H86.3095V28.0039H73.6363V7.37891ZM92.1393 7.37891H96.3637V25.9414H106.925V28.0039H92.1393V7.37891ZM112.754 7.37891H116.978V23.8789H119.091V25.9414H123.316V23.8789H125.427V7.37891H129.652V23.8789H127.54V25.9414H125.427V28.0039H116.978V25.9414H114.867V23.8789H112.754V7.37891ZM137.593 7.37891H148.155V9.44141H150.267V15.6289H148.155V17.6914H146.042V19.7539H139.706V28.0039H135.482V9.44141H137.593V7.37891ZM139.706 9.44141V17.6914H143.931V15.6289H146.042V9.44141H139.706ZM156.097 5.31641H160.321V21.8164H156.097V5.31641ZM156.097 23.8789H160.321V28.0039H156.097V23.8789Z" fill="black"/>
</mask>
<g mask="url(#mask0_653_1307)">
<path d="M11.7911 7.37891V5.37891H9.74298V7.37891H11.7911ZM16.0155 7.37891H18.0637V5.37891H16.0155V7.37891ZM16.0155 25.9414H13.9673V27.9414H16.0155V25.9414ZM26.5765 25.9414H28.6247V23.9414H26.5765V25.9414ZM26.5765 28.0039V30.0039H28.6247V28.0039H26.5765ZM11.7911 28.0039H9.74298V30.0039H11.7911V28.0039ZM11.7911 9.37891H16.0155V5.37891H11.7911V9.37891ZM13.9673 7.37891V25.9414H18.0637V7.37891H13.9673ZM16.0155 27.9414H26.5765V23.9414H16.0155V27.9414ZM24.5283 25.9414V28.0039H28.6247V25.9414H24.5283ZM26.5765 26.0039H11.7911V30.0039H26.5765V26.0039ZM13.8393 28.0039V7.37891H9.74298V28.0039H13.8393ZM32.4062 7.37891V5.37891H30.358V7.37891H32.4062ZM45.0794 7.37891H47.1276V5.37891H45.0794V7.37891ZM45.0794 9.44141V11.4414H47.1276V9.44141H45.0794ZM36.6306 9.44141V7.44141H34.5824V9.44141H36.6306ZM36.6306 15.6289H34.5824V17.6289H36.6306V15.6289ZM42.9672 15.6289H45.0154V13.6289H42.9672V15.6289ZM42.9672 17.6914V19.6914H45.0154V17.6914H42.9672ZM36.6306 17.6914V15.6914H34.5824V17.6914H36.6306ZM36.6306 25.9414H34.5824V27.9414H36.6306V25.9414ZM45.0794 25.9414H47.1276V23.9414H45.0794V25.9414ZM45.0794 28.0039V30.0039H47.1276V28.0039H45.0794ZM32.4062 28.0039H30.358V30.0039H32.4062V28.0039ZM32.4062 9.37891H45.0794V5.37891H32.4062V9.37891ZM43.0312 7.37891V9.44141H47.1276V7.37891H43.0312ZM45.0794 7.44141H36.6306V11.4414H45.0794V7.44141ZM34.5824 9.44141V15.6289H38.6788V9.44141H34.5824ZM36.6306 17.6289H42.9672V13.6289H36.6306V17.6289ZM40.919 15.6289V17.6914H45.0154V15.6289H40.919ZM42.9672 15.6914H36.6306V19.6914H42.9672V15.6914ZM34.5824 17.6914V25.9414H38.6788V17.6914H34.5824ZM36.6306 27.9414H45.0794V23.9414H36.6306V27.9414ZM43.0312 25.9414V28.0039H47.1276V25.9414H43.0312ZM45.0794 26.0039H32.4062V30.0039H45.0794V26.0039ZM34.4544 28.0039V7.37891H30.358V28.0039H34.4544ZM50.9091 7.37891V5.37891H48.861V7.37891H50.9091ZM55.1335 7.37891H57.1817V5.37891H55.1335V7.37891ZM55.1335 11.5039H53.0853V13.5039H55.1335V11.5039ZM57.2457 11.5039H59.2939V9.50391H57.2457V11.5039ZM57.2457 15.6289H55.1975V17.6289H57.2457V15.6289ZM59.3579 15.6289H61.4061V13.6289H59.3579V15.6289ZM59.3579 17.6914H57.3097V19.6914H59.3579V17.6914ZM61.4701 17.6914V19.6914H63.5183V17.6914H61.4701ZM61.4701 11.5039V9.50391H59.4219V11.5039H61.4701ZM63.5823 11.5039V13.5039H65.6305V11.5039H63.5823ZM63.5823 7.37891V5.37891H61.5341V7.37891H63.5823ZM67.8067 7.37891H69.8549V5.37891H67.8067V7.37891ZM67.8067 11.5039V13.5039H69.8549V11.5039H67.8067ZM65.6945 11.5039V9.50391H63.6463V11.5039H65.6945ZM65.6945 17.6914V19.6914H67.7427V17.6914H65.6945ZM63.5823 17.6914V15.6914H61.5341V17.6914H63.5823ZM63.5823 23.8789V25.8789H65.6305V23.8789H63.5823ZM61.4701 23.8789V21.8789H59.4219V23.8789H61.4701ZM61.4701 28.0039V30.0039H63.5183V28.0039H61.4701ZM57.2457 28.0039H55.1975V30.0039H57.2457V28.0039ZM57.2457 23.8789H59.2939V21.8789H57.2457V23.8789ZM55.1335 23.8789H53.0853V25.8789H55.1335V23.8789ZM55.1335 17.6914H57.1817V15.6914H55.1335V17.6914ZM53.0213 17.6914H50.9731V19.6914H53.0213V17.6914ZM53.0213 11.5039H55.0695V9.50391H53.0213V11.5039ZM50.9091 11.5039H48.861V13.5039H50.9091V11.5039ZM50.9091 9.37891H55.1335V5.37891H50.9091V9.37891ZM53.0853 7.37891V11.5039H57.1817V7.37891H53.0853ZM55.1335 13.5039H57.2457V9.50391H55.1335V13.5039ZM55.1975 11.5039V15.6289H59.2939V11.5039H55.1975ZM57.2457 17.6289H59.3579V13.6289H57.2457V17.6289ZM57.3097 15.6289V17.6914H61.4061V15.6289H57.3097ZM59.3579 19.6914H61.4701V15.6914H59.3579V19.6914ZM63.5183 17.6914V11.5039H59.4219V17.6914H63.5183ZM61.4701 13.5039H63.5823V9.50391H61.4701V13.5039ZM65.6305 11.5039V7.37891H61.5341V11.5039H65.6305ZM63.5823 9.37891H67.8067V5.37891H63.5823V9.37891ZM65.7585 7.37891V11.5039H69.8549V7.37891H65.7585ZM67.8067 9.50391H65.6945V13.5039H67.8067V9.50391ZM63.6463 11.5039V17.6914H67.7427V11.5039H63.6463ZM65.6945 15.6914H63.5823V19.6914H65.6945V15.6914ZM61.5341 17.6914V23.8789H65.6305V17.6914H61.5341ZM63.5823 21.8789H61.4701V25.8789H63.5823V21.8789ZM59.4219 23.8789V28.0039H63.5183V23.8789H59.4219ZM61.4701 26.0039H57.2457V30.0039H61.4701V26.0039ZM59.2939 28.0039V23.8789H55.1975V28.0039H59.2939ZM57.2457 21.8789H55.1335V25.8789H57.2457V21.8789ZM57.1817 23.8789V17.6914H53.0853V23.8789H57.1817ZM55.1335 15.6914H53.0213V19.6914H55.1335V15.6914ZM55.0695 17.6914V11.5039H50.9731V17.6914H55.0695ZM53.0213 9.50391H50.9091V13.5039H53.0213V9.50391ZM52.9573 11.5039V7.37891H48.861V11.5039H52.9573ZM73.6363 7.37891V5.37891H71.5881V7.37891H73.6363ZM86.3095 7.37891H88.3577V5.37891H86.3095V7.37891ZM86.3095 9.44141V11.4414H88.3577V9.44141H86.3095ZM77.8607 9.44141V7.44141H75.8125V9.44141H77.8607ZM77.8607 15.6289H75.8125V17.6289H77.8607V15.6289ZM84.1973 15.6289H86.2455V13.6289H84.1973V15.6289ZM84.1973 17.6914V19.6914H86.2455V17.6914H84.1973ZM77.8607 17.6914V15.6914H75.8125V17.6914H77.8607ZM77.8607 25.9414H75.8125V27.9414H77.8607V25.9414ZM86.3095 25.9414H88.3577V23.9414H86.3095V25.9414ZM86.3095 28.0039V30.0039H88.3577V28.0039H86.3095ZM73.6363 28.0039H71.5881V30.0039H73.6363V28.0039ZM73.6363 9.37891H86.3095V5.37891H73.6363V9.37891ZM84.2613 7.37891V9.44141H88.3577V7.37891H84.2613ZM86.3095 7.44141H77.8607V11.4414H86.3095V7.44141ZM75.8125 9.44141V15.6289H79.9089V9.44141H75.8125ZM77.8607 17.6289H84.1973V13.6289H77.8607V17.6289ZM82.1491 15.6289V17.6914H86.2455V15.6289H82.1491ZM84.1973 15.6914H77.8607V19.6914H84.1973V15.6914ZM75.8125 17.6914V25.9414H79.9089V17.6914H75.8125ZM77.8607 27.9414H86.3095V23.9414H77.8607V27.9414ZM84.2613 25.9414V28.0039H88.3577V25.9414H84.2613ZM86.3095 26.0039H73.6363V30.0039H86.3095V26.0039ZM75.6845 28.0039V7.37891H71.5881V28.0039H75.6845ZM92.1393 7.37891V5.37891H90.0911V7.37891H92.1393ZM96.3637 7.37891H98.4119V5.37891H96.3637V7.37891ZM96.3637 25.9414H94.3155V27.9414H96.3637V25.9414ZM106.925 25.9414H108.973V23.9414H106.925V25.9414ZM106.925 28.0039V30.0039H108.973V28.0039H106.925ZM92.1393 28.0039H90.0911V30.0039H92.1393V28.0039ZM92.1393 9.37891H96.3637V5.37891H92.1393V9.37891ZM94.3155 7.37891V25.9414H98.4119V7.37891H94.3155ZM96.3637 27.9414H106.925V23.9414H96.3637V27.9414ZM104.877 25.9414V28.0039H108.973V25.9414H104.877ZM106.925 26.0039H92.1393V30.0039H106.925V26.0039ZM94.1875 28.0039V7.37891H90.0911V28.0039H94.1875ZM112.754 7.37891V5.37891H110.706V7.37891H112.754ZM116.978 7.37891H119.027V5.37891H116.978V7.37891ZM116.978 23.8789H114.93V25.8789H116.978V23.8789ZM119.091 23.8789H121.139V21.8789H119.091V23.8789ZM119.091 25.9414H117.043V27.9414H119.091V25.9414ZM123.316 25.9414V27.9414H125.364V25.9414H123.316ZM123.316 23.8789V21.8789H121.267V23.8789H123.316ZM125.427 23.8789V25.8789H127.475V23.8789H125.427ZM125.427 7.37891V5.37891H123.379V7.37891H125.427ZM129.652 7.37891H131.7V5.37891H129.652V7.37891ZM129.652 23.8789V25.8789H131.7V23.8789H129.652ZM127.54 23.8789V21.8789H125.492V23.8789H127.54ZM127.54 25.9414V27.9414H129.588V25.9414H127.54ZM125.427 25.9414V23.9414H123.379V25.9414H125.427ZM125.427 28.0039V30.0039H127.475V28.0039H125.427ZM116.978 28.0039H114.93V30.0039H116.978V28.0039ZM116.978 25.9414H119.027V23.9414H116.978V25.9414ZM114.867 25.9414H112.819V27.9414H114.867V25.9414ZM114.867 23.8789H116.915V21.8789H114.867V23.8789ZM112.754 23.8789H110.706V25.8789H112.754V23.8789ZM112.754 9.37891H116.978V5.37891H112.754V9.37891ZM114.93 7.37891V23.8789H119.027V7.37891H114.93ZM116.978 25.8789H119.091V21.8789H116.978V25.8789ZM117.043 23.8789V25.9414H121.139V23.8789H117.043ZM119.091 27.9414H123.316V23.9414H119.091V27.9414ZM125.364 25.9414V23.8789H121.267V25.9414H125.364ZM123.316 25.8789H125.427V21.8789H123.316V25.8789ZM127.475 23.8789V7.37891H123.379V23.8789H127.475ZM125.427 9.37891H129.652V5.37891H125.427V9.37891ZM127.603 7.37891V23.8789H131.7V7.37891H127.603ZM129.652 21.8789H127.54V25.8789H129.652V21.8789ZM125.492 23.8789V25.9414H129.588V23.8789H125.492ZM127.54 23.9414H125.427V27.9414H127.54V23.9414ZM123.379 25.9414V28.0039H127.475V25.9414H123.379ZM125.427 26.0039H116.978V30.0039H125.427V26.0039ZM119.027 28.0039V25.9414H114.93V28.0039H119.027ZM116.978 23.9414H114.867V27.9414H116.978V23.9414ZM116.915 25.9414V23.8789H112.819V25.9414H116.915ZM114.867 21.8789H112.754V25.8789H114.867V21.8789ZM114.802 23.8789V7.37891H110.706V23.8789H114.802ZM137.593 7.37891V5.37891H135.545V7.37891H137.593ZM148.155 7.37891H150.203V5.37891H148.155V7.37891ZM148.155 9.44141H146.107V11.4414H148.155V9.44141ZM150.267 9.44141H152.315V7.44141H150.267V9.44141ZM150.267 15.6289V17.6289H152.315V15.6289H150.267ZM148.155 15.6289V13.6289H146.107V15.6289H148.155ZM148.155 17.6914V19.6914H150.203V17.6914H148.155ZM146.042 17.6914V15.6914H143.994V17.6914H146.042ZM146.042 19.7539V21.7539H148.09V19.7539H146.042ZM139.706 19.7539V17.7539H137.658V19.7539H139.706ZM139.706 28.0039V30.0039H141.754V28.0039H139.706ZM135.482 28.0039H133.434V30.0039H135.482V28.0039ZM135.482 9.44141V7.44141H133.434V9.44141H135.482ZM137.593 9.44141V11.4414H139.642V9.44141H137.593ZM139.706 9.44141V7.44141H137.658V9.44141H139.706ZM139.706 17.6914H137.658V19.6914H139.706V17.6914ZM143.931 17.6914V19.6914H145.979V17.6914H143.931ZM143.931 15.6289V13.6289H141.882V15.6289H143.931ZM146.042 15.6289V17.6289H148.09V15.6289H146.042ZM146.042 9.44141H148.09V7.44141H146.042V9.44141ZM137.593 9.37891H148.155V5.37891H137.593V9.37891ZM146.107 7.37891V9.44141H150.203V7.37891H146.107ZM148.155 11.4414H150.267V7.44141H148.155V11.4414ZM148.218 9.44141V15.6289H152.315V9.44141H148.218ZM150.267 13.6289H148.155V17.6289H150.267V13.6289ZM146.107 15.6289V17.6914H150.203V15.6289H146.107ZM148.155 15.6914H146.042V19.6914H148.155V15.6914ZM143.994 17.6914V19.7539H148.09V17.6914H143.994ZM146.042 17.7539H139.706V21.7539H146.042V17.7539ZM137.658 19.7539V28.0039H141.754V19.7539H137.658ZM139.706 26.0039H135.482V30.0039H139.706V26.0039ZM137.53 28.0039V9.44141H133.434V28.0039H137.53ZM135.482 11.4414H137.593V7.44141H135.482V11.4414ZM139.642 9.44141V7.37891H135.545V9.44141H139.642ZM137.658 9.44141V17.6914H141.754V9.44141H137.658ZM139.706 19.6914H143.931V15.6914H139.706V19.6914ZM145.979 17.6914V15.6289H141.882V17.6914H145.979ZM143.931 17.6289H146.042V13.6289H143.931V17.6289ZM148.09 15.6289V9.44141H143.994V15.6289H148.09ZM146.042 7.44141H139.706V11.4414H146.042V7.44141ZM156.097 5.31641V3.31641H154.049V5.31641H156.097ZM160.321 5.31641H162.369V3.31641H160.321V5.31641ZM160.321 21.8164V23.8164H162.369V21.8164H160.321ZM156.097 21.8164H154.049V23.8164H156.097V21.8164ZM156.097 23.8789V21.8789H154.049V23.8789H156.097ZM160.321 23.8789H162.369V21.8789H160.321V23.8789ZM160.321 28.0039V30.0039H162.369V28.0039H160.321ZM156.097 28.0039H154.049V30.0039H156.097V28.0039ZM156.097 7.31641H160.321V3.31641H156.097V7.31641ZM158.273 5.31641V21.8164H162.369V5.31641H158.273ZM160.321 19.8164H156.097V23.8164H160.321V19.8164ZM158.145 21.8164V5.31641H154.049V21.8164H158.145ZM156.097 25.8789H160.321V21.8789H156.097V25.8789ZM158.273 23.8789V28.0039H162.369V23.8789H158.273ZM160.321 26.0039H156.097V30.0039H160.321V26.0039ZM158.145 28.0039V23.8789H154.049V28.0039H158.145Z" fill="white"/>
</g>
<path d="M56.6108 38.7646H64.9316V40.3896H58.275V42.0146H56.6108V51.7646H58.275V53.3896H64.9316V55.0146H56.6108V53.3896H54.9467V51.7646H53.2825V42.0146H54.9467V40.3896H56.6108V38.7646ZM64.9316 40.3896H66.5958V42.0146H64.9316V40.3896ZM64.9316 51.7646H66.5958V53.3896H64.9316V51.7646ZM74.5172 38.7646H81.1738V40.3896H82.8379V42.0146H84.5021V51.7646H82.8379V53.3896H81.1738V55.0146H74.5172V53.3896H72.853V51.7646H71.1888V42.0146H72.853V40.3896H74.5172V38.7646ZM76.1813 40.3896V42.0146H74.5172V51.7646H76.1813V53.3896H79.5096V51.7646H81.1738V42.0146H79.5096V40.3896H76.1813ZM89.0952 38.7646H95.7518V40.3896H92.4235V53.3896H95.7518V55.0146H89.0952V38.7646ZM95.7518 40.3896H99.0801V42.0146H100.744V43.6396H102.408V50.1396H100.744V51.7646H99.0801V53.3896H95.7518V51.7646H97.4159V50.1396H99.0801V43.6396H97.4159V42.0146H95.7518V40.3896ZM107.001 38.7646H116.986V40.3896H110.33V45.2646H115.322V46.8896H110.33V53.3896H116.986V55.0146H107.001V38.7646Z" fill="#E91E63"/>
<mask id="mask1_653_1307" style="mask-type:luminance" maskUnits="userSpaceOnUse" x="50" y="36" width="70" height="22">
<path d="M119.122 36.0146H50.5072V57.0146H119.122V36.0146Z" fill="white"/>
<path d="M56.6109 38.7646H64.9316V40.3896H58.275V42.0146H56.6109V51.7646H58.275V53.3896H64.9316V55.0146H56.6109V53.3896H54.9467V51.7646H53.2825V42.0146H54.9467V40.3896H56.6109V38.7646ZM64.9316 40.3896H66.5958V42.0146H64.9316V40.3896ZM64.9316 51.7646H66.5958V53.3896H64.9316V51.7646ZM74.5172 38.7646H81.1738V40.3896H82.838V42.0146H84.5021V51.7646H82.838V53.3896H81.1738V55.0146H74.5172V53.3896H72.853V51.7646H71.1889V42.0146H72.853V40.3896H74.5172V38.7646ZM76.1813 40.3896V42.0146H74.5172V51.7646H76.1813V53.3896H79.5097V51.7646H81.1738V42.0146H79.5097V40.3896H76.1813ZM89.0952 38.7646H95.7518V40.3896H92.4235V53.3896H95.7518V55.0146H89.0952V38.7646ZM95.7518 40.3896H99.0801V42.0146H100.744V43.6396H102.408V50.1396H100.744V51.7646H99.0801V53.3896H95.7518V51.7646H97.416V50.1396H99.0801V43.6396H97.416V42.0146H95.7518V40.3896ZM107.002 38.7646H116.986V40.3896H110.33V45.2646H115.322V46.8896H110.33V53.3896H116.986V55.0146H107.002V38.7646Z" fill="black"/>
</mask>
<g mask="url(#mask1_653_1307)">
<path d="M56.6109 38.7646V36.7646H54.5627V38.7646H56.6109ZM64.9316 38.7646H66.9798V36.7646H64.9316V38.7646ZM64.9316 40.3896V42.3896H66.9798V40.3896H64.9316ZM58.275 40.3896V38.3896H56.2268V40.3896H58.275ZM58.275 42.0146V44.0146H60.3232V42.0146H58.275ZM56.6109 42.0146V40.0146H54.5627V42.0146H56.6109ZM56.6109 51.7646H54.5627V53.7646H56.6109V51.7646ZM58.275 51.7646H60.3232V49.7646H58.275V51.7646ZM58.275 53.3896H56.2268V55.3896H58.275V53.3896ZM64.9316 53.3896H66.9798V51.3896H64.9316V53.3896ZM64.9316 55.0146V57.0146H66.9798V55.0146H64.9316ZM56.6109 55.0146H54.5627V57.0146H56.6109V55.0146ZM56.6109 53.3896H58.6591V51.3896H56.6109V53.3896ZM54.9467 53.3896H52.8985V55.3896H54.9467V53.3896ZM54.9467 51.7646H56.9949V49.7646H54.9467V51.7646ZM53.2826 51.7646H51.2344V53.7646H53.2826V51.7646ZM53.2826 42.0146V40.0146H51.2344V42.0146H53.2826ZM54.9467 42.0146V44.0146H56.9949V42.0146H54.9467ZM54.9467 40.3896V38.3896H52.8985V40.3896H54.9467ZM56.6109 40.3896V42.3896H58.6591V40.3896H56.6109ZM64.9316 40.3896V38.3896H62.8835V40.3896H64.9316ZM66.5958 40.3896H68.644V38.3896H66.5958V40.3896ZM66.5958 42.0146V44.0146H68.644V42.0146H66.5958ZM64.9316 42.0146H62.8835V44.0146H64.9316V42.0146ZM64.9316 51.7646V49.7646H62.8835V51.7646H64.9316ZM66.5958 51.7646H68.644V49.7646H66.5958V51.7646ZM66.5958 53.3896V55.3896H68.644V53.3896H66.5958ZM64.9316 53.3896H62.8835V55.3896H64.9316V53.3896ZM56.6109 40.7646H64.9316V36.7646H56.6109V40.7646ZM62.8835 38.7646V40.3896H66.9798V38.7646H62.8835ZM64.9316 38.3896H58.275V42.3896H64.9316V38.3896ZM56.2268 40.3896V42.0146H60.3232V40.3896H56.2268ZM58.275 40.0146H56.6109V44.0146H58.275V40.0146ZM54.5627 42.0146V51.7646H58.6591V42.0146H54.5627ZM56.6109 53.7646H58.275V49.7646H56.6109V53.7646ZM56.2268 51.7646V53.3896H60.3232V51.7646H56.2268ZM58.275 55.3896H64.9316V51.3896H58.275V55.3896ZM62.8835 53.3896V55.0146H66.9798V53.3896H62.8835ZM64.9316 53.0146H56.6109V57.0146H64.9316V53.0146ZM58.6591 55.0146V53.3896H54.5627V55.0146H58.6591ZM56.6109 51.3896H54.9467V55.3896H56.6109V51.3896ZM56.9949 53.3896V51.7646H52.8985V53.3896H56.9949ZM54.9467 49.7646H53.2826V53.7646H54.9467V49.7646ZM55.3307 51.7646V42.0146H51.2344V51.7646H55.3307ZM53.2826 44.0146H54.9467V40.0146H53.2826V44.0146ZM56.9949 42.0146V40.3896H52.8985V42.0146H56.9949ZM54.9467 42.3896H56.6109V38.3896H54.9467V42.3896ZM58.6591 40.3896V38.7646H54.5627V40.3896H58.6591ZM64.9316 42.3896H66.5958V38.3896H64.9316V42.3896ZM64.5476 40.3896V42.0146H68.644V40.3896H64.5476ZM66.5958 40.0146H64.9316V44.0146H66.5958V40.0146ZM66.9798 42.0146V40.3896H62.8835V42.0146H66.9798ZM64.9316 53.7646H66.5958V49.7646H64.9316V53.7646ZM64.5476 51.7646V53.3896H68.644V51.7646H64.5476ZM66.5958 51.3896H64.9316V55.3896H66.5958V51.3896ZM66.9798 53.3896V51.7646H62.8835V53.3896H66.9798ZM74.5172 38.7646V36.7646H72.469V38.7646H74.5172ZM81.1738 38.7646H83.222V36.7646H81.1738V38.7646ZM81.1738 40.3896H79.1256V42.3896H81.1738V40.3896ZM82.838 40.3896H84.8862V38.3896H82.838V40.3896ZM82.838 42.0146H80.7898V44.0146H82.838V42.0146ZM84.5021 42.0146H86.5503V40.0146H84.5021V42.0146ZM84.5021 51.7646V53.7646H86.5503V51.7646H84.5021ZM82.838 51.7646V49.7646H80.7898V51.7646H82.838ZM82.838 53.3896V55.3896H84.8862V53.3896H82.838ZM81.1738 53.3896V51.3896H79.1256V53.3896H81.1738ZM81.1738 55.0146V57.0146H83.222V55.0146H81.1738ZM74.5172 55.0146H72.469V57.0146H74.5172V55.0146ZM74.5172 53.3896H76.5654V51.3896H74.5172V53.3896ZM72.853 53.3896H70.8048V55.3896H72.853V53.3896ZM72.853 51.7646H74.9012V49.7646H72.853V51.7646ZM71.1889 51.7646H69.1407V53.7646H71.1889V51.7646ZM71.1889 42.0146V40.0146H69.1407V42.0146H71.1889ZM72.853 42.0146V44.0146H74.9012V42.0146H72.853ZM72.853 40.3896V38.3896H70.8048V40.3896H72.853ZM74.5172 40.3896V42.3896H76.5654V40.3896H74.5172ZM76.1813 40.3896V38.3896H74.1332V40.3896H76.1813ZM76.1813 42.0146V44.0146H78.2295V42.0146H76.1813ZM74.5172 42.0146V40.0146H72.469V42.0146H74.5172ZM74.5172 51.7646H72.469V53.7646H74.5172V51.7646ZM76.1813 51.7646H78.2295V49.7646H76.1813V51.7646ZM76.1813 53.3896H74.1332V55.3896H76.1813V53.3896ZM79.5097 53.3896V55.3896H81.5579V53.3896H79.5097ZM79.5097 51.7646V49.7646H77.4615V51.7646H79.5097ZM81.1738 51.7646V53.7646H83.222V51.7646H81.1738ZM81.1738 42.0146H83.222V40.0146H81.1738V42.0146ZM79.5097 42.0146H77.4615V44.0146H79.5097V42.0146ZM79.5097 40.3896H81.5579V38.3896H79.5097V40.3896ZM74.5172 40.7646H81.1738V36.7646H74.5172V40.7646ZM79.1256 38.7646V40.3896H83.222V38.7646H79.1256ZM81.1738 42.3896H82.838V38.3896H81.1738V42.3896ZM80.7898 40.3896V42.0146H84.8862V40.3896H80.7898ZM82.838 44.0146H84.5021V40.0146H82.838V44.0146ZM82.4539 42.0146V51.7646H86.5503V42.0146H82.4539ZM84.5021 49.7646H82.838V53.7646H84.5021V49.7646ZM80.7898 51.7646V53.3896H84.8862V51.7646H80.7898ZM82.838 51.3896H81.1738V55.3896H82.838V51.3896ZM79.1256 53.3896V55.0146H83.222V53.3896H79.1256ZM81.1738 53.0146H74.5172V57.0146H81.1738V53.0146ZM76.5654 55.0146V53.3896H72.469V55.0146H76.5654ZM74.5172 51.3896H72.853V55.3896H74.5172V51.3896ZM74.9012 53.3896V51.7646H70.8048V53.3896H74.9012ZM72.853 49.7646H71.1889V53.7646H72.853V49.7646ZM73.2371 51.7646V42.0146H69.1407V51.7646H73.2371ZM71.1889 44.0146H72.853V40.0146H71.1889V44.0146ZM74.9012 42.0146V40.3896H70.8048V42.0146H74.9012ZM72.853 42.3896H74.5172V38.3896H72.853V42.3896ZM76.5654 40.3896V38.7646H72.469V40.3896H76.5654ZM74.1332 40.3896V42.0146H78.2295V40.3896H74.1332ZM76.1813 40.0146H74.5172V44.0146H76.1813V40.0146ZM72.469 42.0146V51.7646H76.5654V42.0146H72.469ZM74.5172 53.7646H76.1813V49.7646H74.5172V53.7646ZM74.1332 51.7646V53.3896H78.2295V51.7646H74.1332ZM76.1813 55.3896H79.5097V51.3896H76.1813V55.3896ZM81.5579 53.3896V51.7646H77.4615V53.3896H81.5579ZM79.5097 53.7646H81.1738V49.7646H79.5097V53.7646ZM83.222 51.7646V42.0146H79.1256V51.7646H83.222ZM81.1738 40.0146H79.5097V44.0146H81.1738V40.0146ZM81.5579 42.0146V40.3896H77.4615V42.0146H81.5579ZM79.5097 38.3896H76.1813V42.3896H79.5097V38.3896ZM89.0952 38.7646V36.7646H87.047V38.7646H89.0952ZM95.7518 38.7646H97.8V36.7646H95.7518V38.7646ZM95.7518 40.3896V42.3896H97.8V40.3896H95.7518ZM92.4235 40.3896V38.3896H90.3753V40.3896H92.4235ZM92.4235 53.3896H90.3753V55.3896H92.4235V53.3896ZM95.7518 53.3896H97.8V51.3896H95.7518V53.3896ZM95.7518 55.0146V57.0146H97.8V55.0146H95.7518ZM89.0952 55.0146H87.047V57.0146H89.0952V55.0146ZM95.7518 40.3896V38.3896H93.7036V40.3896H95.7518ZM99.0801 40.3896H101.128V38.3896H99.0801V40.3896ZM99.0801 42.0146H97.0319V44.0146H99.0801V42.0146ZM100.744 42.0146H102.792V40.0146H100.744V42.0146ZM100.744 43.6396H98.6961V45.6396H100.744V43.6396ZM102.408 43.6396H104.457V41.6396H102.408V43.6396ZM102.408 50.1396V52.1396H104.457V50.1396H102.408ZM100.744 50.1396V48.1396H98.6961V50.1396H100.744ZM100.744 51.7646V53.7646H102.792V51.7646H100.744ZM99.0801 51.7646V49.7646H97.0319V51.7646H99.0801ZM99.0801 53.3896V55.3896H101.128V53.3896H99.0801ZM95.7518 53.3896H93.7036V55.3896H95.7518V53.3896ZM95.7518 51.7646V49.7646H93.7036V51.7646H95.7518ZM97.416 51.7646V53.7646H99.4642V51.7646H97.416ZM97.416 50.1396V48.1396H95.3678V50.1396H97.416ZM99.0801 50.1396V52.1396H101.128V50.1396H99.0801ZM99.0801 43.6396H101.128V41.6396H99.0801V43.6396ZM97.416 43.6396H95.3678V45.6396H97.416V43.6396ZM97.416 42.0146H99.4642V40.0146H97.416V42.0146ZM95.7518 42.0146H93.7036V44.0146H95.7518V42.0146ZM89.0952 40.7646H95.7518V36.7646H89.0952V40.7646ZM93.7036 38.7646V40.3896H97.8V38.7646H93.7036ZM95.7518 38.3896H92.4235V42.3896H95.7518V38.3896ZM90.3753 40.3896V53.3896H94.4717V40.3896H90.3753ZM92.4235 55.3896H95.7518V51.3896H92.4235V55.3896ZM93.7036 53.3896V55.0146H97.8V53.3896H93.7036ZM95.7518 53.0146H89.0952V57.0146H95.7518V53.0146ZM91.1434 55.0146V38.7646H87.047V55.0146H91.1434ZM95.7518 42.3896H99.0801V38.3896H95.7518V42.3896ZM97.0319 40.3896V42.0146H101.128V40.3896H97.0319ZM99.0801 44.0146H100.744V40.0146H99.0801V44.0146ZM98.6961 42.0146V43.6396H102.792V42.0146H98.6961ZM100.744 45.6396H102.408V41.6396H100.744V45.6396ZM100.36 43.6396V50.1396H104.457V43.6396H100.36ZM102.408 48.1396H100.744V52.1396H102.408V48.1396ZM98.6961 50.1396V51.7646H102.792V50.1396H98.6961ZM100.744 49.7646H99.0801V53.7646H100.744V49.7646ZM97.0319 51.7646V53.3896H101.128V51.7646H97.0319ZM99.0801 51.3896H95.7518V55.3896H99.0801V51.3896ZM97.8 53.3896V51.7646H93.7036V53.3896H97.8ZM95.7518 53.7646H97.416V49.7646H95.7518V53.7646ZM99.4642 51.7646V50.1396H95.3678V51.7646H99.4642ZM97.416 52.1396H99.0801V48.1396H97.416V52.1396ZM101.128 50.1396V43.6396H97.0319V50.1396H101.128ZM99.0801 41.6396H97.416V45.6396H99.0801V41.6396ZM99.4642 43.6396V42.0146H95.3678V43.6396H99.4642ZM97.416 40.0146H95.7518V44.0146H97.416V40.0146ZM97.8 42.0146V40.3896H93.7036V42.0146H97.8ZM107.002 38.7646V36.7646H104.953V38.7646H107.002ZM116.986 38.7646H119.035V36.7646H116.986V38.7646ZM116.986 40.3896V42.3896H119.035V40.3896H116.986ZM110.33 40.3896V38.3896H108.282V40.3896H110.33ZM110.33 45.2646H108.282V47.2646H110.33V45.2646ZM115.322 45.2646H117.37V43.2646H115.322V45.2646ZM115.322 46.8896V48.8896H117.37V46.8896H115.322ZM110.33 46.8896V44.8896H108.282V46.8896H110.33ZM110.33 53.3896H108.282V55.3896H110.33V53.3896ZM116.986 53.3896H119.035V51.3896H116.986V53.3896ZM116.986 55.0146V57.0146H119.035V55.0146H116.986ZM107.002 55.0146H104.953V57.0146H107.002V55.0146ZM107.002 40.7646H116.986V36.7646H107.002V40.7646ZM114.938 38.7646V40.3896H119.035V38.7646H114.938ZM116.986 38.3896H110.33V42.3896H116.986V38.3896ZM108.282 40.3896V45.2646H112.378V40.3896H108.282ZM110.33 47.2646H115.322V43.2646H110.33V47.2646ZM113.274 45.2646V46.8896H117.37V45.2646H113.274ZM115.322 44.8896H110.33V48.8896H115.322V44.8896ZM108.282 46.8896V53.3896H112.378V46.8896H108.282ZM110.33 55.3896H116.986V51.3896H110.33V55.3896ZM114.938 53.3896V55.0146H119.035V53.3896H114.938ZM116.986 53.0146H107.002V57.0146H116.986V53.0146ZM109.05 55.0146V38.7646H104.953V55.0146H109.05Z" fill="white"/>
</g>
<defs>
<linearGradient id="paint0_linear_653_1307" x1="85" y1="0.0039028" x2="85" y2="24.0039" gradientUnits="userSpaceOnUse">
<stop offset="1" stop-color="#E91E63"/>
</linearGradient>
</defs>
</svg>
