<?xml version="1.0" encoding="UTF-8"?>
<!DOCTYPE svg PUBLIC "-//W3C//DTD SVG 1.1//EN" "http://www.w3.org/Graphics/SVG/1.1/DTD/svg11.dtd">
<svg xmlns="http://www.w3.org/2000/svg" version="1.1" width="908px" height="243px" style="shape-rendering:geometricPrecision; text-rendering:geometricPrecision; image-rendering:optimizeQuality; fill-rule:evenodd; clip-rule:evenodd" xmlns:xlink="http://www.w3.org/1999/xlink">
<g><path style="opacity:0.874" fill="#14114e" d="M 39.5,14.5 C 36.5,14.5 33.5,14.5 30.5,14.5C 29.7814,12.2362 29.448,9.90291 29.5,7.5C 32.8333,7.5 36.1667,7.5 39.5,7.5C 39.5,9.83333 39.5,12.1667 39.5,14.5 Z"/></g>
<g><path style="opacity:0.855" fill="#14114e" d="M 189.5,14.5 C 186.167,14.5 182.833,14.5 179.5,14.5C 179.5,12.1667 179.5,9.83333 179.5,7.5C 182.833,7.5 186.167,7.5 189.5,7.5C 189.5,9.83333 189.5,12.1667 189.5,14.5 Z"/></g>
<g><path style="opacity:0.902" fill="#fefbfd" d="M 863.5,7.5 C 875.5,7.5 887.5,7.5 899.5,7.5C 899.5,45.1667 899.5,82.8333 899.5,120.5C 887.586,120.821 875.753,120.488 864,119.5C 863.5,82.1682 863.333,44.8348 863.5,7.5 Z"/></g>
<g><path style="opacity:0.87" fill="#15114e" d="M 30.5,14.5 C 30.5,21.1667 30.5,27.8333 30.5,34.5C 30.5,34.8333 30.5,35.1667 30.5,35.5C 27.8333,35.5 25.1667,35.5 22.5,35.5C 22.5,28.5 22.5,21.5 22.5,14.5C 25.1667,14.5 27.8333,14.5 30.5,14.5 Z"/></g>
<g><path style="opacity:0.915" fill="#13114d" d="M 189.5,14.5 C 191.833,14.5 194.167,14.5 196.5,14.5C 196.5,21.5 196.5,28.5 196.5,35.5C 194.167,35.5 191.833,35.5 189.5,35.5C 189.5,28.5 189.5,21.5 189.5,14.5 Z"/></g>
<g><path style="opacity:0.848" fill="#fefafd" d="M 260.5,14.5 C 272.833,14.5 285.167,14.5 297.5,14.5C 297.5,40.5 297.5,66.5 297.5,92.5C 312.167,92.5 326.833,92.5 341.5,92.5C 341.5,101.833 341.5,111.167 341.5,120.5C 314.5,120.5 287.5,120.5 260.5,120.5C 260.5,85.1667 260.5,49.8333 260.5,14.5 Z"/></g>
<g><path style="opacity:0.843" fill="#fefcfe" d="M 346.5,14.5 C 370.5,14.5 394.5,14.5 418.5,14.5C 418.5,23.8333 418.5,33.1667 418.5,42.5C 406.833,42.5 395.167,42.5 383.5,42.5C 383.5,44.8333 383.5,47.1667 383.5,49.5C 392.5,49.5 401.5,49.5 410.5,49.5C 410.832,58.5246 410.498,67.5246 409.5,76.5C 400.888,77.4711 392.221,77.8044 383.5,77.5C 383.5,82.5 383.5,87.5 383.5,92.5C 395.167,92.5 406.833,92.5 418.5,92.5C 418.5,101.833 418.5,111.167 418.5,120.5C 394.5,120.5 370.5,120.5 346.5,120.5C 346.5,85.1667 346.5,49.8333 346.5,14.5 Z"/></g>
<g><path style="opacity:0.84" fill="#fefcfe" d="M 423.5,14.5 C 435.838,14.3335 448.171,14.5001 460.5,15C 461.833,20.3333 461.833,25.6667 460.5,31C 465.823,31.4994 471.156,31.666 476.5,31.5C 476.5,25.8333 476.5,20.1667 476.5,14.5C 489.167,14.5 501.833,14.5 514.5,14.5C 514.667,26.5046 514.5,38.5046 514,50.5C 510.943,51.4505 507.777,51.7839 504.5,51.5C 504.5,60.1667 504.5,68.8333 504.5,77.5C 501.833,77.5 499.167,77.5 496.5,77.5C 496.5,85.8333 496.5,94.1667 496.5,102.5C 493.5,102.5 490.5,102.5 487.5,102.5C 487.5,108.5 487.5,114.5 487.5,120.5C 475.167,120.5 462.833,120.5 450.5,120.5C 450.5,114.5 450.5,108.5 450.5,102.5C 447.5,102.5 444.5,102.5 441.5,102.5C 441.5,94.1667 441.5,85.8333 441.5,77.5C 438.5,77.5 435.5,77.5 432.5,77.5C 432.5,68.8333 432.5,60.1667 432.5,51.5C 429.5,51.5 426.5,51.5 423.5,51.5C 423.5,39.1667 423.5,26.8333 423.5,14.5 Z"/></g>
<g><path style="opacity:0.827" fill="#fefcfd" d="M 518.5,14.5 C 542.833,14.5 567.167,14.5 591.5,14.5C 591.5,23.8333 591.5,33.1667 591.5,42.5C 579.482,42.1677 567.482,42.501 555.5,43.5C 556.833,45.1667 556.833,46.8333 555.5,48.5C 564.475,49.4982 573.475,49.8315 582.5,49.5C 582.5,58.8333 582.5,68.1667 582.5,77.5C 573.494,77.3336 564.494,77.5002 555.5,78C 556.811,82.4692 556.811,86.9692 555.5,91.5C 567.482,92.499 579.482,92.8323 591.5,92.5C 591.5,101.833 591.5,111.167 591.5,120.5C 567.167,120.5 542.833,120.5 518.5,120.5C 518.5,85.1667 518.5,49.8333 518.5,14.5 Z"/></g>
<g><path style="opacity:0.812" fill="#fefcfd" d="M 596.5,14.5 C 608.833,14.5 621.167,14.5 633.5,14.5C 633.5,40.5 633.5,66.5 633.5,92.5C 648.167,92.5 662.833,92.5 677.5,92.5C 677.555,101.876 677.555,111.043 677.5,120C 650.494,120.833 623.494,120.667 596.5,119.5C 595.18,84.5123 595.18,49.5123 596.5,14.5 Z"/></g>
<g><path style="opacity:0.838" fill="#fefbfd" d="M 682.5,14.5 C 694.833,14.5 707.167,14.5 719.5,14.5C 719.5,37.5 719.5,60.5 719.5,83.5C 724.875,83.8282 730.208,83.4948 735.5,82.5C 734.344,60.2097 734.178,37.8763 735,15.5C 747.42,14.5112 759.92,14.1779 772.5,14.5C 772.5,43.8333 772.5,73.1667 772.5,102.5C 769.428,102.183 766.428,102.516 763.5,103.5C 764.393,106.084 764.726,108.751 764.5,111.5C 761.167,111.5 757.833,111.5 754.5,111.5C 754.5,114.5 754.5,117.5 754.5,120.5C 736.5,120.5 718.5,120.5 700.5,120.5C 700.5,117.5 700.5,114.5 700.5,111.5C 697.421,111.74 694.421,111.407 691.5,110.5C 690.223,107.966 690.223,105.466 691.5,103C 688.518,102.502 685.518,102.335 682.5,102.5C 682.5,73.1667 682.5,43.8333 682.5,14.5 Z"/></g>
<g><path style="opacity:0.843" fill="#fefcfd" d="M 786.5,14.5 C 807.833,14.5 829.167,14.5 850.5,14.5C 850.5,17.5 850.5,20.5 850.5,23.5C 853.167,23.5 855.833,23.5 858.5,23.5C 858.5,38.5 858.5,53.5 858.5,68.5C 855.833,68.5 853.167,68.5 850.5,68.5C 851.845,76.5114 848.512,79.5114 840.5,77.5C 840.5,80.1667 840.5,82.8333 840.5,85.5C 831.833,85.5 823.167,85.5 814.5,85.5C 814.5,97.1667 814.5,108.833 814.5,120.5C 802.167,120.5 789.833,120.5 777.5,120.5C 777.5,88.1667 777.5,55.8333 777.5,23.5C 780.5,23.5 783.5,23.5 786.5,23.5C 786.5,20.5 786.5,17.5 786.5,14.5 Z M 814.5,42.5 C 816.833,42.5 819.167,42.5 821.5,42.5C 821.5,44.8333 821.5,47.1667 821.5,49.5C 819.167,49.5 816.833,49.5 814.5,49.5C 814.5,47.1667 814.5,44.8333 814.5,42.5 Z"/></g>
<g><path style="opacity:1" fill="#b6088c" d="M 30.5,14.5 C 33.5,14.5 36.5,14.5 39.5,14.5C 39.5,16.5 39.5,18.5 39.5,20.5C 42.5,20.5 45.5,20.5 48.5,20.5C 48.5,23.8333 48.5,27.1667 48.5,30.5C 45.5,30.5 42.5,30.5 39.5,30.5C 41.9479,29.5269 44.6146,29.1936 47.5,29.5C 47.5,26.8333 47.5,24.1667 47.5,21.5C 44.5,21.5 41.5,21.5 38.5,21.5C 38.5,19.5 38.5,17.5 38.5,15.5C 36.1667,15.5 33.8333,15.5 31.5,15.5C 31.8235,22.0221 31.4902,28.3554 30.5,34.5C 30.5,27.8333 30.5,21.1667 30.5,14.5 Z"/></g>
<g><path style="opacity:1" fill="#e905a0" d="M 39.5,30.5 C 39.5,32.5 39.5,34.5 39.5,36.5C 36.5,36.5 33.5,36.5 30.5,36.5C 30.5,36.1667 30.5,35.8333 30.5,35.5C 30.5,35.1667 30.5,34.8333 30.5,34.5C 31.4902,28.3554 31.8235,22.0221 31.5,15.5C 33.8333,15.5 36.1667,15.5 38.5,15.5C 38.5,17.5 38.5,19.5 38.5,21.5C 41.5,21.5 44.5,21.5 47.5,21.5C 47.5,24.1667 47.5,26.8333 47.5,29.5C 44.6146,29.1936 41.9479,29.5269 39.5,30.5 Z"/></g>
<g><path style="opacity:1" fill="#ef04a2" d="M 171.5,29.5 C 171.5,26.8333 171.5,24.1667 171.5,21.5C 174.5,21.5 177.5,21.5 180.5,21.5C 180.5,19.5 180.5,17.5 180.5,15.5C 183.167,15.5 185.833,15.5 188.5,15.5C 188.5,22.1667 188.5,28.8333 188.5,35.5C 185.833,35.5 183.167,35.5 180.5,35.5C 180.5,33.5 180.5,31.5 180.5,29.5C 177.5,29.5 174.5,29.5 171.5,29.5 Z"/></g>
<g><path style="opacity:1" fill="#eb0aa2" d="M 890.5,15.5 C 890.5,38.5 890.5,61.5 890.5,84.5C 884.833,84.5 879.167,84.5 873.5,84.5C 873.5,61.5 873.5,38.5 873.5,15.5C 879.167,15.5 884.833,15.5 890.5,15.5 Z"/></g>
<g><path style="opacity:1" fill="#f47acd" d="M 890.5,15.5 C 891.498,38.6607 891.831,61.994 891.5,85.5C 885.31,85.8229 879.31,85.4896 873.5,84.5C 879.167,84.5 884.833,84.5 890.5,84.5C 890.5,61.5 890.5,38.5 890.5,15.5 Z"/></g>
<g><path style="opacity:1" fill="#eb0ca2" d="M 287.5,101.5 C 302.167,101.5 316.833,101.5 331.5,101.5C 331.5,104.167 331.5,106.833 331.5,109.5C 311.167,109.5 290.833,109.5 270.5,109.5C 270.5,81.1667 270.5,52.8333 270.5,24.5C 275.833,24.5 281.167,24.5 286.5,24.5C 286.169,50.3388 286.502,76.0054 287.5,101.5 Z"/></g>
<g><path style="opacity:1" fill="#ec24a6" d="M 356.5,24.5 C 373.833,24.5 391.167,24.5 408.5,24.5C 408.5,27.1667 408.5,29.8333 408.5,32.5C 396.988,32.1719 385.654,32.5052 374.5,33.5C 374.5,41.8333 374.5,50.1667 374.5,58.5C 382.65,59.4927 390.983,59.8261 399.5,59.5C 399.5,61.8333 399.5,64.1667 399.5,66.5C 390.983,66.1739 382.65,66.5073 374.5,67.5C 374.5,78.8333 374.5,90.1667 374.5,101.5C 386.167,101.5 397.833,101.5 409.5,101.5C 409.5,104.5 409.5,107.5 409.5,110.5C 391.5,110.5 373.5,110.5 355.5,110.5C 355.169,81.6618 355.502,52.9951 356.5,24.5 Z"/></g>
<g><path style="opacity:1" fill="#eb1aa5" d="M 433.5,24.5 C 439.167,24.5 444.833,24.5 450.5,24.5C 450.178,30.358 450.511,36.0247 451.5,41.5C 454.5,41.5 457.5,41.5 460.5,41.5C 460.5,47.1667 460.5,52.8333 460.5,58.5C 463.5,58.5 466.5,58.5 469.5,58.5C 469.5,61.1667 469.5,63.8333 469.5,66.5C 471.948,67.4731 474.615,67.8064 477.5,67.5C 477.5,58.8333 477.5,50.1667 477.5,41.5C 480.5,41.5 483.5,41.5 486.5,41.5C 486.5,35.8333 486.5,30.1667 486.5,24.5C 492.5,24.5 498.5,24.5 504.5,24.5C 504.5,30.1667 504.5,35.8333 504.5,41.5C 501.5,41.5 498.5,41.5 495.5,41.5C 495.5,50.1667 495.5,58.8333 495.5,67.5C 492.5,67.5 489.5,67.5 486.5,67.5C 486.5,76.1667 486.5,84.8333 486.5,93.5C 483.5,93.5 480.5,93.5 477.5,93.5C 477.5,99.1667 477.5,104.833 477.5,110.5C 471.5,110.5 465.5,110.5 459.5,110.5C 459.5,104.833 459.5,99.1667 459.5,93.5C 456.5,93.5 453.5,93.5 450.5,93.5C 450.5,84.8333 450.5,76.1667 450.5,67.5C 447.833,67.5 445.167,67.5 442.5,67.5C 442.5,58.8333 442.5,50.1667 442.5,41.5C 439.5,41.5 436.5,41.5 433.5,41.5C 433.5,35.8333 433.5,30.1667 433.5,24.5 Z"/></g>
<g><path style="opacity:1" fill="#eb0fa2" d="M 546.5,58.5 C 554.984,59.493 563.651,59.8264 572.5,59.5C 572.5,61.8333 572.5,64.1667 572.5,66.5C 563.651,66.1736 554.984,66.507 546.5,67.5C 546.172,79.0123 546.505,90.3456 547.5,101.5C 558.833,101.5 570.167,101.5 581.5,101.5C 581.5,104.167 581.5,106.833 581.5,109.5C 564.167,109.5 546.833,109.5 529.5,109.5C 529.5,81.5 529.5,53.5 529.5,25.5C 546.5,25.5 563.5,25.5 580.5,25.5C 580.5,27.5 580.5,29.5 580.5,31.5C 568.833,31.5 557.167,31.5 545.5,31.5C 545.173,40.6822 545.507,49.6822 546.5,58.5 Z"/></g>
<g><path style="opacity:1" fill="#eb15a4" d="M 623.5,24.5 C 623.5,50.1667 623.5,75.8333 623.5,101.5C 638.167,101.5 652.833,101.5 667.5,101.5C 667.5,104.5 667.5,107.5 667.5,110.5C 647.167,110.5 626.833,110.5 606.5,110.5C 606.5,81.8333 606.5,53.1667 606.5,24.5C 612.167,24.5 617.833,24.5 623.5,24.5 Z"/></g>
<g><path style="opacity:1" fill="#ec23a6" d="M 736.5,93.5 C 739.5,93.5 742.5,93.5 745.5,93.5C 745.5,70.5 745.5,47.5 745.5,24.5C 751.5,24.5 757.5,24.5 763.5,24.5C 763.5,47.5 763.5,70.5 763.5,93.5C 760.5,93.5 757.5,93.5 754.5,93.5C 754.664,96.1873 754.497,98.854 754,101.5C 751.281,102.444 748.448,102.777 745.5,102.5C 745.5,105.167 745.5,107.833 745.5,110.5C 733.5,110.5 721.5,110.5 709.5,110.5C 709.5,107.833 709.5,105.167 709.5,102.5C 707.052,101.527 704.385,101.194 701.5,101.5C 701.806,98.6146 701.473,95.9479 700.5,93.5C 697.5,93.5 694.5,93.5 691.5,93.5C 691.5,70.5 691.5,47.5 691.5,24.5C 697.5,24.5 703.5,24.5 709.5,24.5C 709.5,47.1667 709.5,69.8333 709.5,92.5C 712.5,92.5 715.5,92.5 718.5,92.5C 718.5,95.5 718.5,98.5 718.5,101.5C 724.167,101.5 729.833,101.5 735.5,101.5C 735.194,98.6146 735.527,95.9479 736.5,93.5 Z"/></g>
<g><path style="opacity:1" fill="#f799d8" d="M 745.5,24.5 C 745.5,47.5 745.5,70.5 745.5,93.5C 742.5,93.5 739.5,93.5 736.5,93.5C 738.948,92.5269 741.615,92.1936 744.5,92.5C 744.169,69.6605 744.503,46.9939 745.5,24.5 Z"/></g>
<g><path style="opacity:1" fill="#ec1da5" d="M 787.5,110.5 C 787.5,84.8333 787.5,59.1667 787.5,33.5C 790.385,33.8064 793.052,33.4731 795.5,32.5C 795.5,29.8333 795.5,27.1667 795.5,24.5C 810.5,24.5 825.5,24.5 840.5,24.5C 840.5,27.1667 840.5,29.8333 840.5,32.5C 843.5,32.5 846.5,32.5 849.5,32.5C 849.5,41.1667 849.5,49.8333 849.5,58.5C 846.5,58.5 843.5,58.5 840.5,58.5C 840.5,61.5 840.5,64.5 840.5,67.5C 837.5,67.5 834.5,67.5 831.5,67.5C 831.5,70.5 831.5,73.5 831.5,76.5C 822.833,76.5 814.167,76.5 805.5,76.5C 805.5,87.8333 805.5,99.1667 805.5,110.5C 799.5,110.5 793.5,110.5 787.5,110.5 Z M 814.5,42.5 C 814.5,44.8333 814.5,47.1667 814.5,49.5C 816.833,49.5 819.167,49.5 821.5,49.5C 821.5,47.1667 821.5,44.8333 821.5,42.5C 819.167,42.5 816.833,42.5 814.5,42.5 Z"/></g>
<g><path style="opacity:1" fill="#f68dd4" d="M 433.5,24.5 C 439.31,23.5104 445.31,23.1771 451.5,23.5C 451.5,29.5 451.5,35.5 451.5,41.5C 450.511,36.0247 450.178,30.358 450.5,24.5C 444.833,24.5 439.167,24.5 433.5,24.5 Z"/></g>
<g><path style="opacity:1" fill="#f9b2e2" d="M 486.5,24.5 C 486.5,30.1667 486.5,35.8333 486.5,41.5C 483.5,41.5 480.5,41.5 477.5,41.5C 479.948,40.5269 482.615,40.1936 485.5,40.5C 485.179,34.9738 485.512,29.6405 486.5,24.5 Z"/></g>
<g><path style="opacity:1" fill="#f25cbf" d="M 546.5,58.5 C 545.507,49.6822 545.173,40.6822 545.5,31.5C 557.167,31.5 568.833,31.5 580.5,31.5C 580.5,29.5 580.5,27.5 580.5,25.5C 563.5,25.5 546.5,25.5 529.5,25.5C 529.5,53.5 529.5,81.5 529.5,109.5C 546.833,109.5 564.167,109.5 581.5,109.5C 564.008,110.497 546.341,110.83 528.5,110.5C 528.5,81.5 528.5,52.5 528.5,23.5C 546.167,23.5 563.833,23.5 581.5,23.5C 581.5,26.8333 581.5,30.1667 581.5,33.5C 569.833,33.5 558.167,33.5 546.5,33.5C 546.5,41.8333 546.5,50.1667 546.5,58.5 Z"/></g>
<g><path style="opacity:1" fill="#f68ed4" d="M 623.5,24.5 C 617.833,24.5 612.167,24.5 606.5,24.5C 606.5,53.1667 606.5,81.8333 606.5,110.5C 626.833,110.5 647.167,110.5 667.5,110.5C 647.007,111.497 626.34,111.831 605.5,111.5C 605.5,82.1667 605.5,52.8333 605.5,23.5C 611.69,23.1771 617.69,23.5104 623.5,24.5 Z"/></g>
<g><path style="opacity:1" fill="#f79cda" d="M 356.5,24.5 C 373.992,23.5033 391.659,23.1699 409.5,23.5C 409.5,26.8333 409.5,30.1667 409.5,33.5C 397.833,33.5 386.167,33.5 374.5,33.5C 385.654,32.5052 396.988,32.1719 408.5,32.5C 408.5,29.8333 408.5,27.1667 408.5,24.5C 391.167,24.5 373.833,24.5 356.5,24.5 Z"/></g>
<g><path style="opacity:0.938" fill="#fefefe" d="M 805.5,33.5 C 813.833,33.5 822.167,33.5 830.5,33.5C 830.5,41.8333 830.5,50.1667 830.5,58.5C 827.833,58.5 825.167,58.5 822.5,58.5C 821.527,60.9479 821.194,63.6146 821.5,66.5C 816.167,66.5 810.833,66.5 805.5,66.5C 805.5,55.5 805.5,44.5 805.5,33.5 Z M 814.5,42.5 C 814.5,44.8333 814.5,47.1667 814.5,49.5C 816.833,49.5 819.167,49.5 821.5,49.5C 821.5,47.1667 821.5,44.8333 821.5,42.5C 819.167,42.5 816.833,42.5 814.5,42.5 Z"/></g>
<g><path style="opacity:1" fill="#750c73" d="M 179.5,14.5 C 182.833,14.5 186.167,14.5 189.5,14.5C 189.5,21.5 189.5,28.5 189.5,35.5C 189.5,35.8333 189.5,36.1667 189.5,36.5C 186.167,36.5 182.833,36.5 179.5,36.5C 179.5,34.5 179.5,32.5 179.5,30.5C 176.615,30.8064 173.948,30.4731 171.5,29.5C 174.5,29.5 177.5,29.5 180.5,29.5C 180.5,31.5 180.5,33.5 180.5,35.5C 183.167,35.5 185.833,35.5 188.5,35.5C 188.5,28.8333 188.5,22.1667 188.5,15.5C 185.833,15.5 183.167,15.5 180.5,15.5C 180.5,17.5 180.5,19.5 180.5,21.5C 177.5,21.5 174.5,21.5 171.5,21.5C 173.948,20.5269 176.615,20.1936 179.5,20.5C 179.5,18.5 179.5,16.5 179.5,14.5 Z"/></g>
<g><path style="opacity:1" fill="#f58dd4" d="M 795.5,32.5 C 793.052,33.4731 790.385,33.8064 787.5,33.5C 787.5,59.1667 787.5,84.8333 787.5,110.5C 786.502,84.672 786.169,58.672 786.5,32.5C 789.5,32.5 792.5,32.5 795.5,32.5 Z"/></g>
<g><path style="opacity:1" fill="#f9b1e2" d="M 805.5,33.5 C 813.984,32.507 822.651,32.1736 831.5,32.5C 831.826,41.3494 831.493,50.0161 830.5,58.5C 830.5,50.1667 830.5,41.8333 830.5,33.5C 822.167,33.5 813.833,33.5 805.5,33.5 Z"/></g>
<g><path style="opacity:0.887" fill="#14114d" d="M 39.5,14.5 C 44.8333,14.5 50.1667,14.5 55.5,14.5C 55.5,19.8333 55.5,25.1667 55.5,30.5C 53.5,30.5 51.5,30.5 49.5,30.5C 49.5,32.5 49.5,34.5 49.5,36.5C 46.8333,36.5 44.1667,36.5 41.5,36.5C 41.5,38.5 41.5,40.5 41.5,42.5C 43.5,42.5 45.5,42.5 47.5,42.5C 47.5,44.8333 47.5,47.1667 47.5,49.5C 50.1667,49.5 52.8333,49.5 55.5,49.5C 55.5,52.1667 55.5,54.8333 55.5,57.5C 53.1667,57.5 50.8333,57.5 48.5,57.5C 47.5269,59.9479 47.1936,62.6146 47.5,65.5C 44.6146,65.1936 41.9479,65.5269 39.5,66.5C 39.5,69.8333 39.5,73.1667 39.5,76.5C 36.5,76.5 33.5,76.5 30.5,76.5C 30.5,78.8333 30.5,81.1667 30.5,83.5C 27.8333,83.5 25.1667,83.5 22.5,83.5C 22.5,80.8333 22.5,78.1667 22.5,75.5C 25.1873,75.6641 27.854,75.4974 30.5,75C 29.5442,71.6064 29.2108,68.1064 29.5,64.5C 32.5,64.5 35.5,64.5 38.5,64.5C 38.5,61.8333 38.5,59.1667 38.5,56.5C 39.8333,56.5 41.1667,56.5 42.5,56.5C 42.5,54.5 42.5,52.5 42.5,50.5C 41.1667,50.5 39.8333,50.5 38.5,50.5C 38.5,48.5 38.5,46.5 38.5,44.5C 30.5004,46.5054 27.8337,43.8388 30.5,36.5C 33.5,36.5 36.5,36.5 39.5,36.5C 39.5,34.5 39.5,32.5 39.5,30.5C 42.5,30.5 45.5,30.5 48.5,30.5C 48.5,27.1667 48.5,23.8333 48.5,20.5C 45.5,20.5 42.5,20.5 39.5,20.5C 39.5,18.5 39.5,16.5 39.5,14.5 Z"/></g>
<g><path style="opacity:0.853" fill="#16134e" d="M 179.5,14.5 C 179.5,16.5 179.5,18.5 179.5,20.5C 176.615,20.1936 173.948,20.5269 171.5,21.5C 171.5,24.1667 171.5,26.8333 171.5,29.5C 173.948,30.4731 176.615,30.8064 179.5,30.5C 179.5,32.5 179.5,34.5 179.5,36.5C 182.833,36.5 186.167,36.5 189.5,36.5C 189.5,39.1667 189.5,41.8333 189.5,44.5C 186.5,44.5 183.5,44.5 180.5,44.5C 180.5,46.5 180.5,48.5 180.5,50.5C 179.167,50.5 177.833,50.5 176.5,50.5C 176.5,52.5 176.5,54.5 176.5,56.5C 177.833,56.5 179.167,56.5 180.5,56.5C 180.5,59.1667 180.5,61.8333 180.5,64.5C 183.5,64.5 186.5,64.5 189.5,64.5C 189.5,68.1667 189.5,71.8333 189.5,75.5C 191.833,75.5 194.167,75.5 196.5,75.5C 196.5,78.1667 196.5,80.8333 196.5,83.5C 193.833,83.5 191.167,83.5 188.5,83.5C 188.5,81.1667 188.5,78.8333 188.5,76.5C 186.052,75.5269 183.385,75.1936 180.5,75.5C 180.81,72.2869 180.477,69.2869 179.5,66.5C 177.052,65.5269 174.385,65.1936 171.5,65.5C 171.806,62.6146 171.473,59.9479 170.5,57.5C 168.167,57.5 165.833,57.5 163.5,57.5C 163.5,54.8333 163.5,52.1667 163.5,49.5C 158.5,49.5 153.5,49.5 148.5,49.5C 148.5,47.1667 148.5,44.8333 148.5,42.5C 122.5,42.5 96.5,42.5 70.5,42.5C 70.5,42.1667 70.5,41.8333 70.5,41.5C 70.5,39.1667 70.5,36.8333 70.5,34.5C 96.8333,34.5 123.167,34.5 149.5,34.5C 149.5,36.8333 149.5,39.1667 149.5,41.5C 154.5,41.5 159.5,41.5 164.5,41.5C 164.5,44.1667 164.5,46.8333 164.5,49.5C 166.833,49.5 169.167,49.5 171.5,49.5C 171.5,47.1667 171.5,44.8333 171.5,42.5C 173.833,42.5 176.167,42.5 178.5,42.5C 178.5,40.5 178.5,38.5 178.5,36.5C 175.5,36.5 172.5,36.5 169.5,36.5C 169.5,34.5 169.5,32.5 169.5,30.5C 167.833,30.5 166.167,30.5 164.5,30.5C 164.5,25.1667 164.5,19.8333 164.5,14.5C 169.5,14.5 174.5,14.5 179.5,14.5 Z"/></g>
<g><path style="opacity:0.855" fill="#110e4b" d="M 70.5,41.5 C 70.5,41.8333 70.5,42.1667 70.5,42.5C 70.5,44.8333 70.5,47.1667 70.5,49.5C 65.5,49.5 60.5,49.5 55.5,49.5C 55.5,46.8333 55.5,44.1667 55.5,41.5C 60.5,41.5 65.5,41.5 70.5,41.5 Z"/></g>
<g><path style="opacity:1" fill="#fac8ea" d="M 477.5,41.5 C 477.5,50.1667 477.5,58.8333 477.5,67.5C 474.615,67.8064 471.948,67.4731 469.5,66.5C 471.833,66.5 474.167,66.5 476.5,66.5C 476.174,57.9832 476.507,49.6499 477.5,41.5 Z"/></g>
<g><path style="opacity:1" fill="#f5faf9" d="M 70.5,42.5 C 96.5,42.5 122.5,42.5 148.5,42.5C 148.5,44.8333 148.5,47.1667 148.5,49.5C 151.167,50.1667 153.833,50.8333 156.5,51.5C 153.833,51.5 151.167,51.5 148.5,51.5C 148.5,53.5 148.5,55.5 148.5,57.5C 122.5,57.5 96.5,57.5 70.5,57.5C 70.5,55.5 70.5,53.5 70.5,51.5C 68.1667,51.5 65.8333,51.5 63.5,51.5C 65.8333,50.8333 68.1667,50.1667 70.5,49.5C 70.5,47.1667 70.5,44.8333 70.5,42.5 Z"/></g>
<g><path style="opacity:1" fill="#f7a1db" d="M 433.5,41.5 C 436.5,41.5 439.5,41.5 442.5,41.5C 442.5,50.1667 442.5,58.8333 442.5,67.5C 441.507,59.3501 441.174,51.0168 441.5,42.5C 438.615,42.8064 435.948,42.4731 433.5,41.5 Z"/></g>
<g><path style="opacity:1" fill="#f265c5" d="M 374.5,58.5 C 383.167,58.5 391.833,58.5 400.5,58.5C 400.5,61.5 400.5,64.5 400.5,67.5C 391.833,67.5 383.167,67.5 374.5,67.5C 382.65,66.5073 390.983,66.1739 399.5,66.5C 399.5,64.1667 399.5,61.8333 399.5,59.5C 390.983,59.8261 382.65,59.4927 374.5,58.5 Z"/></g>
<g><path style="opacity:1" fill="#f36bc7" d="M 546.5,58.5 C 555.5,58.5 564.5,58.5 573.5,58.5C 573.81,61.7131 573.477,64.7131 572.5,67.5C 563.833,67.5 555.167,67.5 546.5,67.5C 554.984,66.507 563.651,66.1736 572.5,66.5C 572.5,64.1667 572.5,61.8333 572.5,59.5C 563.651,59.8264 554.984,59.493 546.5,58.5 Z"/></g>
<g><path style="opacity:1" fill="#a8d8d2" d="M 55.5,49.5 C 60.5,49.5 65.5,49.5 70.5,49.5C 68.1667,50.1667 65.8333,50.8333 63.5,51.5C 63.5,53.8333 63.5,56.1667 63.5,58.5C 60.8333,58.5 58.1667,58.5 55.5,58.5C 55.5,61.1667 55.5,63.8333 55.5,66.5C 91.5,66.5 127.5,66.5 163.5,66.5C 163.5,63.8333 163.5,61.1667 163.5,58.5C 161.167,58.5 158.833,58.5 156.5,58.5C 156.5,56.1667 156.5,53.8333 156.5,51.5C 153.833,50.8333 151.167,50.1667 148.5,49.5C 153.5,49.5 158.5,49.5 163.5,49.5C 163.5,52.1667 163.5,54.8333 163.5,57.5C 165.833,57.5 168.167,57.5 170.5,57.5C 170.5,60.5 170.5,63.5 170.5,66.5C 173.5,66.5 176.5,66.5 179.5,66.5C 179.5,69.8333 179.5,73.1667 179.5,76.5C 182.5,76.5 185.5,76.5 188.5,76.5C 188.5,78.8333 188.5,81.1667 188.5,83.5C 188.5,86.1667 188.5,88.8333 188.5,91.5C 186.167,91.5 183.833,91.5 181.5,91.5C 181.5,88.5 181.5,85.5 181.5,82.5C 178.5,82.5 175.5,82.5 172.5,82.5C 172.5,79.8333 172.5,77.1667 172.5,74.5C 169.5,74.5 166.5,74.5 163.5,74.5C 163.5,72.1667 163.5,69.8333 163.5,67.5C 127.5,67.5 91.5,67.5 55.5,67.5C 55.5,69.8333 55.5,72.1667 55.5,74.5C 52.5,74.5 49.5,74.5 46.5,74.5C 46.5,77.1667 46.5,79.8333 46.5,82.5C 43.8333,82.5 41.1667,82.5 38.5,82.5C 38.5,85.5 38.5,88.5 38.5,91.5C 35.8333,91.5 33.1667,91.5 30.5,91.5C 30.5,89.1667 30.5,86.8333 30.5,84.5C 28.1667,84.5 25.8333,84.5 23.5,84.5C 23.5,87.1667 23.5,89.8333 23.5,92.5C 23.5,102.833 23.5,113.167 23.5,123.5C 23.1667,123.5 22.8333,123.5 22.5,123.5C 22.5,110.5 22.5,97.5 22.5,84.5C 22.5,84.1667 22.5,83.8333 22.5,83.5C 25.1667,83.5 27.8333,83.5 30.5,83.5C 30.5,81.1667 30.5,78.8333 30.5,76.5C 33.5,76.5 36.5,76.5 39.5,76.5C 39.5,73.1667 39.5,69.8333 39.5,66.5C 42.5,66.5 45.5,66.5 48.5,66.5C 48.5,63.5 48.5,60.5 48.5,57.5C 50.8333,57.5 53.1667,57.5 55.5,57.5C 55.5,54.8333 55.5,52.1667 55.5,49.5 Z"/></g>
<g><path style="opacity:1" fill="#e7e9e3" d="M 63.5,51.5 C 65.8333,51.5 68.1667,51.5 70.5,51.5C 70.5,53.5 70.5,55.5 70.5,57.5C 96.5,57.5 122.5,57.5 148.5,57.5C 148.5,55.5 148.5,53.5 148.5,51.5C 151.167,51.5 153.833,51.5 156.5,51.5C 156.5,53.8333 156.5,56.1667 156.5,58.5C 158.833,58.5 161.167,58.5 163.5,58.5C 163.5,61.1667 163.5,63.8333 163.5,66.5C 127.5,66.5 91.5,66.5 55.5,66.5C 55.5,63.8333 55.5,61.1667 55.5,58.5C 58.1667,58.5 60.8333,58.5 63.5,58.5C 63.5,56.1667 63.5,53.8333 63.5,51.5 Z"/></g>
<g><path style="opacity:1" fill="#4a587d" d="M 48.5,57.5 C 48.5,60.5 48.5,63.5 48.5,66.5C 45.5,66.5 42.5,66.5 39.5,66.5C 41.9479,65.5269 44.6146,65.1936 47.5,65.5C 47.1936,62.6146 47.5269,59.9479 48.5,57.5 Z"/></g>
<g><path style="opacity:1" fill="#586b8a" d="M 170.5,57.5 C 171.473,59.9479 171.806,62.6146 171.5,65.5C 174.385,65.1936 177.052,65.5269 179.5,66.5C 176.5,66.5 173.5,66.5 170.5,66.5C 170.5,63.5 170.5,60.5 170.5,57.5 Z"/></g>
<g><path style="opacity:1" fill="#f8a9df" d="M 822.5,58.5 C 822.5,61.5 822.5,64.5 822.5,67.5C 816.642,67.8222 810.975,67.4889 805.5,66.5C 810.833,66.5 816.167,66.5 821.5,66.5C 821.194,63.6146 821.527,60.9479 822.5,58.5 Z"/></g>
<g><path style="opacity:1" fill="#fac3e8" d="M 495.5,67.5 C 493.052,68.4731 490.385,68.8064 487.5,68.5C 487.826,77.0168 487.493,85.3501 486.5,93.5C 486.5,84.8333 486.5,76.1667 486.5,67.5C 489.5,67.5 492.5,67.5 495.5,67.5 Z"/></g>
<g><path style="opacity:1" fill="#21f07f" d="M 163.5,74.5 C 127.5,74.5 91.5,74.5 55.5,74.5C 55.5,72.1667 55.5,69.8333 55.5,67.5C 91.5,67.5 127.5,67.5 163.5,67.5C 163.5,69.8333 163.5,72.1667 163.5,74.5 Z"/></g>
<g><path style="opacity:1" fill="#fcd8f0" d="M 546.5,67.5 C 555.167,67.5 563.833,67.5 572.5,67.5C 564.35,68.4927 556.017,68.8261 547.5,68.5C 547.5,79.5 547.5,90.5 547.5,101.5C 546.505,90.3456 546.172,79.0123 546.5,67.5 Z"/></g>
<g><path style="opacity:1" fill="#49577c" d="M 179.5,66.5 C 180.477,69.2869 180.81,72.2869 180.5,75.5C 183.385,75.1936 186.052,75.5269 188.5,76.5C 185.5,76.5 182.5,76.5 179.5,76.5C 179.5,73.1667 179.5,69.8333 179.5,66.5 Z"/></g>
<g><path style="opacity:1" fill="#00001d" d="M 55.5,75.5 C 91.5,75.5 127.5,75.5 163.5,75.5C 163.5,78.1667 163.5,80.8333 163.5,83.5C 166.5,83.5 169.5,83.5 172.5,83.5C 172.5,86.1667 172.5,88.8333 172.5,91.5C 175.167,91.5 177.833,91.5 180.5,91.5C 180.5,117.833 180.5,144.167 180.5,170.5C 177.5,170.5 174.5,170.5 171.5,170.5C 171.5,172.833 171.5,175.167 171.5,177.5C 130.5,177.5 89.5,177.5 48.5,177.5C 48.5,175.167 48.5,172.833 48.5,170.5C 45.1667,170.5 41.8333,170.5 38.5,170.5C 38.5,144.167 38.5,117.833 38.5,91.5C 41.1667,91.5 43.8333,91.5 46.5,91.5C 47.4682,89.3926 47.8016,87.0593 47.5,84.5C 50.3854,84.8064 53.0521,84.4731 55.5,83.5C 55.5,80.8333 55.5,78.1667 55.5,75.5 Z"/></g>
<g><path style="opacity:0.883" fill="#13104c" d="M 22.5,84.5 C 22.5,97.5 22.5,110.5 22.5,123.5C 19.8333,123.5 17.1667,123.5 14.5,123.5C 14.5,126.167 14.5,128.833 14.5,131.5C 11.8333,131.5 9.16667,131.5 6.5,131.5C 6.5,126.833 6.5,122.167 6.5,117.5C 9.16667,117.5 11.8333,117.5 14.5,117.5C 14.5,106.5 14.5,95.5 14.5,84.5C 17.1667,84.5 19.8333,84.5 22.5,84.5 Z"/></g>
<g><path style="opacity:1" fill="#28ee80" d="M 55.5,74.5 C 55.5,74.8333 55.5,75.1667 55.5,75.5C 55.5,78.1667 55.5,80.8333 55.5,83.5C 52.5,83.5 49.5,83.5 46.5,83.5C 46.5,86.1667 46.5,88.8333 46.5,91.5C 43.8333,91.5 41.1667,91.5 38.5,91.5C 38.5,88.5 38.5,85.5 38.5,82.5C 41.1667,82.5 43.8333,82.5 46.5,82.5C 46.5,79.8333 46.5,77.1667 46.5,74.5C 49.5,74.5 52.5,74.5 55.5,74.5 Z"/></g>
<g><path style="opacity:1" fill="#20c871" d="M 55.5,75.5 C 55.5,75.1667 55.5,74.8333 55.5,74.5C 91.5,74.5 127.5,74.5 163.5,74.5C 166.5,74.5 169.5,74.5 172.5,74.5C 172.5,77.1667 172.5,79.8333 172.5,82.5C 175.5,82.5 178.5,82.5 181.5,82.5C 181.5,85.5 181.5,88.5 181.5,91.5C 181.167,91.5 180.833,91.5 180.5,91.5C 177.833,91.5 175.167,91.5 172.5,91.5C 172.5,88.8333 172.5,86.1667 172.5,83.5C 169.5,83.5 166.5,83.5 163.5,83.5C 163.5,80.8333 163.5,78.1667 163.5,75.5C 127.5,75.5 91.5,75.5 55.5,75.5 Z"/></g>
<g><path style="opacity:0.893" fill="#130f4c" d="M 196.5,84.5 C 199.167,84.5 201.833,84.5 204.5,84.5C 204.5,95.5 204.5,106.5 204.5,117.5C 207.5,117.5 210.5,117.5 213.5,117.5C 213.5,122.167 213.5,126.833 213.5,131.5C 210.833,131.5 208.167,131.5 205.5,131.5C 205.5,128.833 205.5,126.167 205.5,123.5C 202.5,123.5 199.5,123.5 196.5,123.5C 196.5,113.167 196.5,102.833 196.5,92.5C 196.5,89.8333 196.5,87.1667 196.5,84.5 Z"/></g>
<g><path style="opacity:1" fill="#0b503d" d="M 55.5,83.5 C 53.0521,84.4731 50.3854,84.8064 47.5,84.5C 47.8016,87.0593 47.4682,89.3926 46.5,91.5C 46.5,88.8333 46.5,86.1667 46.5,83.5C 49.5,83.5 52.5,83.5 55.5,83.5 Z"/></g>
<g><path style="opacity:1" fill="#21e87d" d="M 38.5,91.5 C 38.5,117.833 38.5,144.167 38.5,170.5C 36.5,170.5 34.5,170.5 32.5,170.5C 31.5318,172.607 31.1984,174.941 31.5,177.5C 28.8333,177.5 26.1667,177.5 23.5,177.5C 23.5,170.5 23.5,163.5 23.5,156.5C 25.8333,156.5 28.1667,156.5 30.5,156.5C 30.5,135.167 30.5,113.833 30.5,92.5C 28.1667,92.5 25.8333,92.5 23.5,92.5C 23.5,89.8333 23.5,87.1667 23.5,84.5C 25.8333,84.5 28.1667,84.5 30.5,84.5C 30.5,86.8333 30.5,89.1667 30.5,91.5C 33.1667,91.5 35.8333,91.5 38.5,91.5 Z"/></g>
<g><path style="opacity:1" fill="#21f07f" d="M 188.5,83.5 C 191.167,83.5 193.833,83.5 196.5,83.5C 196.5,83.8333 196.5,84.1667 196.5,84.5C 196.5,87.1667 196.5,89.8333 196.5,92.5C 193.833,92.5 191.167,92.5 188.5,92.5C 188.169,114.007 188.503,135.34 189.5,156.5C 191.167,156.5 192.833,156.5 194.5,156.5C 194.833,156.5 195.167,156.5 195.5,156.5C 195.5,163.5 195.5,170.5 195.5,177.5C 192.833,177.5 190.167,177.5 187.5,177.5C 187.5,175.167 187.5,172.833 187.5,170.5C 185.5,170.5 183.5,170.5 181.5,170.5C 181.5,144.167 181.5,117.833 181.5,91.5C 183.833,91.5 186.167,91.5 188.5,91.5C 188.5,88.8333 188.5,86.1667 188.5,83.5 Z"/></g>
<g><path style="opacity:1" fill="#a4d7cd" d="M 23.5,92.5 C 25.8333,92.5 28.1667,92.5 30.5,92.5C 30.5,113.833 30.5,135.167 30.5,156.5C 28.1667,156.5 25.8333,156.5 23.5,156.5C 23.5,163.5 23.5,170.5 23.5,177.5C 22.5038,162.342 22.1705,147.009 22.5,131.5C 23.4731,129.052 23.8064,126.385 23.5,123.5C 23.5,113.167 23.5,102.833 23.5,92.5 Z"/></g>
<g><path style="opacity:1" fill="#a3ddcc" d="M 196.5,92.5 C 196.5,102.833 196.5,113.167 196.5,123.5C 196.5,123.833 196.5,124.167 196.5,124.5C 196.5,126.833 196.5,129.167 196.5,131.5C 196.5,139.833 196.5,148.167 196.5,156.5C 196.167,156.5 195.833,156.5 195.5,156.5C 195.167,156.5 194.833,156.5 194.5,156.5C 194.5,135.5 194.5,114.5 194.5,93.5C 192.833,93.5 191.167,93.5 189.5,93.5C 189.5,114.5 189.5,135.5 189.5,156.5C 188.503,135.34 188.169,114.007 188.5,92.5C 191.167,92.5 193.833,92.5 196.5,92.5 Z"/></g>
<g><path style="opacity:1" fill="#afdcd4" d="M 194.5,156.5 C 192.833,156.5 191.167,156.5 189.5,156.5C 189.5,135.5 189.5,114.5 189.5,93.5C 191.167,93.5 192.833,93.5 194.5,93.5C 194.5,114.5 194.5,135.5 194.5,156.5 Z"/></g>
<g><path style="opacity:1" fill="#eb0fa3" d="M 873.5,93.5 C 879.167,93.5 884.833,93.5 890.5,93.5C 890.5,99.1667 890.5,104.833 890.5,110.5C 884.833,110.5 879.167,110.5 873.5,110.5C 873.5,104.833 873.5,99.1667 873.5,93.5 Z"/></g>
<g><path style="opacity:1" fill="#f694d7" d="M 873.5,93.5 C 879.31,92.5104 885.31,92.1771 891.5,92.5C 891.5,98.8333 891.5,105.167 891.5,111.5C 885.31,111.823 879.31,111.49 873.5,110.5C 879.167,110.5 884.833,110.5 890.5,110.5C 890.5,104.833 890.5,99.1667 890.5,93.5C 884.833,93.5 879.167,93.5 873.5,93.5 Z"/></g>
<g><path style="opacity:1" fill="#f79ad9" d="M 700.5,93.5 C 701.473,95.9479 701.806,98.6146 701.5,101.5C 704.385,101.194 707.052,101.527 709.5,102.5C 706.5,102.5 703.5,102.5 700.5,102.5C 700.5,99.5 700.5,96.5 700.5,93.5 Z"/></g>
<g><path style="opacity:1" fill="#0b0b13" d="M 55.5,142.5 C 54.1718,137.544 53.5051,132.211 53.5,126.5C 53.5839,119.807 53.9172,113.141 54.5,106.5C 62.8694,105.517 71.2027,105.517 79.5,106.5C 80.8333,118.833 80.8333,131.167 79.5,143.5C 75.3846,144.136 71.2179,144.47 67,144.5C 62.771,144.49 58.9377,143.823 55.5,142.5 Z"/></g>
<g><path style="opacity:1" fill="#0d0d16" d="M 163.5,142.5 C 155.567,144.468 147.234,145.135 138.5,144.5C 138.168,131.816 138.501,119.149 139.5,106.5C 148.131,105.496 156.798,105.496 165.5,106.5C 166.146,118.88 165.479,130.88 163.5,142.5 Z"/></g>
<g><path style="opacity:1" fill="#f7f9f8" d="M 55.5,142.5 C 55.5,133.833 55.5,125.167 55.5,116.5C 58.1667,116.5 60.8333,116.5 63.5,116.5C 63.5,113.5 63.5,110.5 63.5,107.5C 68.5,107.5 73.5,107.5 78.5,107.5C 78.5,119.167 78.5,130.833 78.5,142.5C 70.8333,142.5 63.1667,142.5 55.5,142.5 Z"/></g>
<g><path style="opacity:1" fill="#f4f6f5" d="M 163.5,142.5 C 155.833,142.5 148.167,142.5 140.5,142.5C 140.5,130.833 140.5,119.167 140.5,107.5C 145.833,107.5 151.167,107.5 156.5,107.5C 156.5,110.5 156.5,113.5 156.5,116.5C 158.833,116.5 161.167,116.5 163.5,116.5C 163.5,125.167 163.5,133.833 163.5,142.5 Z"/></g>
<g><path style="opacity:1" fill="#f159c1" d="M 287.5,101.5 C 286.502,76.0054 286.169,50.3388 286.5,24.5C 281.167,24.5 275.833,24.5 270.5,24.5C 270.5,52.8333 270.5,81.1667 270.5,109.5C 290.833,109.5 311.167,109.5 331.5,109.5C 311.007,110.497 290.34,110.831 269.5,110.5C 269.5,81.5 269.5,52.5 269.5,23.5C 275.5,23.5 281.5,23.5 287.5,23.5C 287.5,49.5 287.5,75.5 287.5,101.5 Z"/></g>
<g><path style="opacity:1" fill="#870f77" d="M 196.5,124.5 C 196.5,124.167 196.5,123.833 196.5,123.5C 199.5,123.5 202.5,123.5 205.5,123.5C 205.5,126.167 205.5,128.833 205.5,131.5C 205.5,135.167 205.5,138.833 205.5,142.5C 204.518,139.038 204.185,135.371 204.5,131.5C 204.5,129.167 204.5,126.833 204.5,124.5C 201.833,124.5 199.167,124.5 196.5,124.5 Z"/></g>
<g><path style="opacity:1" fill="#ed28a0" d="M 22.5,123.5 C 22.8333,123.5 23.1667,123.5 23.5,123.5C 23.8064,126.385 23.4731,129.052 22.5,131.5C 19.8333,131.5 17.1667,131.5 14.5,131.5C 14.5,128.833 14.5,126.167 14.5,123.5C 17.1667,123.5 19.8333,123.5 22.5,123.5 Z"/></g>
<g><path style="opacity:1" fill="#f60ca1" d="M 196.5,124.5 C 199.167,124.5 201.833,124.5 204.5,124.5C 204.5,126.833 204.5,129.167 204.5,131.5C 201.833,131.5 199.167,131.5 196.5,131.5C 196.5,129.167 196.5,126.833 196.5,124.5 Z"/></g>
<g><path style="opacity:1" fill="#e90f9c" d="M 6.5,131.5 C 9.16667,131.5 11.8333,131.5 14.5,131.5C 14.5,135.167 14.5,138.833 14.5,142.5C 11.8333,142.5 9.16667,142.5 6.5,142.5C 6.5,139.167 6.5,135.833 6.5,132.5C 6.5,132.167 6.5,131.833 6.5,131.5 Z"/></g>
<g><path style="opacity:0.924" fill="#15104d" d="M 196.5,131.5 C 199.167,131.5 201.833,131.5 204.5,131.5C 204.185,135.371 204.518,139.038 205.5,142.5C 207.833,142.5 210.167,142.5 212.5,142.5C 212.187,138.958 212.521,135.625 213.5,132.5C 215.833,132.5 218.167,132.5 220.5,132.5C 220.5,136.167 220.5,139.833 220.5,143.5C 218.167,143.5 215.833,143.5 213.5,143.5C 213.5,148.167 213.5,152.833 213.5,157.5C 210.833,157.5 208.167,157.5 205.5,157.5C 205.666,166.839 205.5,176.173 205,185.5C 202.281,186.444 199.448,186.777 196.5,186.5C 196.5,188.833 196.5,191.167 196.5,193.5C 191.167,193.5 185.833,193.5 180.5,193.5C 180.5,190.833 180.5,188.167 180.5,185.5C 182.833,185.5 185.167,185.5 187.5,185.5C 187.5,183.167 187.5,180.833 187.5,178.5C 190.5,178.5 193.5,178.5 196.5,178.5C 196.5,171.167 196.5,163.833 196.5,156.5C 196.5,148.167 196.5,139.833 196.5,131.5 Z"/></g>
<g><path style="opacity:1" fill="#f50fa0" d="M 205.5,131.5 C 208.167,131.5 210.833,131.5 213.5,131.5C 213.5,131.833 213.5,132.167 213.5,132.5C 212.521,135.625 212.187,138.958 212.5,142.5C 210.167,142.5 207.833,142.5 205.5,142.5C 205.5,138.833 205.5,135.167 205.5,131.5 Z"/></g>
<g><path style="opacity:0.858" fill="#fefcfe" d="M 447.5,145.5 C 465.5,145.5 483.5,145.5 501.5,145.5C 501.5,147.833 501.5,150.167 501.5,152.5C 503.833,152.5 506.167,152.5 508.5,152.5C 508.5,154.833 508.5,157.167 508.5,159.5C 510.833,159.5 513.167,159.5 515.5,159.5C 515.5,157.167 515.5,154.833 515.5,152.5C 517.833,152.5 520.167,152.5 522.5,152.5C 522.5,150.167 522.5,147.833 522.5,145.5C 538.167,145.5 553.833,145.5 569.5,145.5C 569.5,147.833 569.5,150.167 569.5,152.5C 571.833,152.5 574.167,152.5 576.5,152.5C 576.5,154.833 576.5,157.167 576.5,159.5C 578.833,159.5 581.167,159.5 583.5,159.5C 583.5,154.833 583.5,150.167 583.5,145.5C 599.167,145.5 614.833,145.5 630.5,145.5C 630.5,147.833 630.5,150.167 630.5,152.5C 635.167,152.5 639.833,152.5 644.5,152.5C 644.5,154.833 644.5,157.167 644.5,159.5C 646.833,159.5 649.167,159.5 651.5,159.5C 651.5,161.833 651.5,164.167 651.5,166.5C 653.833,166.5 656.167,166.5 658.5,166.5C 658.5,159.5 658.5,152.5 658.5,145.5C 678.833,145.5 699.167,145.5 719.5,145.5C 719.5,154.167 719.5,162.833 719.5,171.5C 710.161,171.334 700.827,171.5 691.5,172C 698.323,173.46 705.323,173.96 712.5,173.5C 712.5,182.167 712.5,190.833 712.5,199.5C 705.492,199.334 698.492,199.5 691.5,200C 692.833,202 692.833,204 691.5,206C 700.827,206.5 710.161,206.666 719.5,206.5C 719.5,215.167 719.5,223.833 719.5,232.5C 699.167,232.5 678.833,232.5 658.5,232.5C 658.5,225.833 658.5,219.167 658.5,212.5C 656.167,212.5 653.833,212.5 651.5,212.5C 652.833,218.5 650.5,220.833 644.5,219.5C 644.5,221.5 644.5,223.5 644.5,225.5C 639.833,225.5 635.167,225.5 630.5,225.5C 630.5,227.833 630.5,230.167 630.5,232.5C 614.833,232.5 599.167,232.5 583.5,232.5C 583.666,227.821 583.499,223.155 583,218.5C 580.959,219.423 578.792,219.756 576.5,219.5C 576.5,221.5 576.5,223.5 576.5,225.5C 574.167,225.5 571.833,225.5 569.5,225.5C 569.5,227.833 569.5,230.167 569.5,232.5C 553.833,232.5 538.167,232.5 522.5,232.5C 522.5,230.167 522.5,227.833 522.5,225.5C 520.167,225.5 517.833,225.5 515.5,225.5C 515.5,223.5 515.5,221.5 515.5,219.5C 513.208,219.756 511.041,219.423 509,218.5C 508.503,220.81 508.337,223.143 508.5,225.5C 506.167,225.5 503.833,225.5 501.5,225.5C 501.5,227.833 501.5,230.167 501.5,232.5C 483.5,232.5 465.5,232.5 447.5,232.5C 447.5,230.167 447.5,227.833 447.5,225.5C 445.167,225.5 442.833,225.5 440.5,225.5C 440.5,223.5 440.5,221.5 440.5,219.5C 438.208,219.756 436.041,219.423 434,218.5C 433.5,198.836 433.333,179.169 433.5,159.5C 435.833,159.5 438.167,159.5 440.5,159.5C 440.5,157.167 440.5,154.833 440.5,152.5C 442.833,152.5 445.167,152.5 447.5,152.5C 447.5,150.167 447.5,147.833 447.5,145.5 Z M 473.5,171.5 C 476.5,171.5 479.5,171.5 482.5,171.5C 482.5,173.833 482.5,176.167 482.5,178.5C 491.167,178.5 499.833,178.5 508.5,178.5C 508.5,185.833 508.5,193.167 508.5,200.5C 499.833,200.5 491.167,200.5 482.5,200.5C 482.5,202.5 482.5,204.5 482.5,206.5C 479.833,206.5 477.167,206.5 474.5,206.5C 474.5,204.5 474.5,202.5 474.5,200.5C 472.167,200.5 469.833,200.5 467.5,200.5C 467.5,193.167 467.5,185.833 467.5,178.5C 469.833,178.5 472.167,178.5 474.5,178.5C 474.552,176.097 474.219,173.764 473.5,171.5 Z M 542.5,178.5 C 545.167,178.5 547.833,178.5 550.5,178.5C 550.5,185.833 550.5,193.167 550.5,200.5C 547.833,200.5 545.167,200.5 542.5,200.5C 542.5,193.167 542.5,185.833 542.5,178.5 Z M 616.5,178.5 C 618.344,180.279 619.01,182.612 618.5,185.5C 620.833,185.5 623.167,185.5 625.5,185.5C 625.5,188.167 625.5,190.833 625.5,193.5C 623.167,193.5 620.833,193.5 618.5,193.5C 618.808,195.924 618.474,198.257 617.5,200.5C 617.167,199.667 616.833,198.833 616.5,198C 617.695,191.503 617.695,185.003 616.5,178.5 Z"/></g>
<g><path style="opacity:1" fill="#f9bbe5" d="M 491.5,155.5 C 480.167,155.5 468.833,155.5 457.5,155.5C 457.795,157.735 457.461,159.735 456.5,161.5C 456.5,159.167 456.5,156.833 456.5,154.5C 468.345,154.172 480.012,154.505 491.5,155.5 Z"/></g>
<g><path style="opacity:1" fill="#ec22a7" d="M 491.5,155.5 C 491.5,157.5 491.5,159.5 491.5,161.5C 482.318,161.173 473.318,161.507 464.5,162.5C 464.5,164.833 464.5,167.167 464.5,169.5C 462.167,169.5 459.833,169.5 457.5,169.5C 457.5,182.833 457.5,196.167 457.5,209.5C 459.833,209.5 462.167,209.5 464.5,209.5C 464.5,211.833 464.5,214.167 464.5,216.5C 473.682,216.827 482.682,216.493 491.5,215.5C 491.5,213.5 491.5,211.5 491.5,209.5C 494.167,209.5 496.833,209.5 499.5,209.5C 499.5,211.833 499.5,214.167 499.5,216.5C 497.167,216.5 494.833,216.5 492.5,216.5C 492.5,218.833 492.5,221.167 492.5,223.5C 480.833,223.5 469.167,223.5 457.5,223.5C 457.5,221.167 457.5,218.833 457.5,216.5C 455.167,216.5 452.833,216.5 450.5,216.5C 451.833,210.5 449.5,208.167 443.5,209.5C 443.5,196.167 443.5,182.833 443.5,169.5C 449.5,170.833 451.833,168.5 450.5,162.5C 452.265,161.539 454.265,161.205 456.5,161.5C 457.461,159.735 457.795,157.735 457.5,155.5C 468.833,155.5 480.167,155.5 491.5,155.5 Z"/></g>
<g><path style="opacity:1" fill="#ec24a7" d="M 532.5,155.5 C 541.833,155.5 551.167,155.5 560.5,155.5C 560.5,157.833 560.5,160.167 560.5,162.5C 562.833,162.5 565.167,162.5 567.5,162.5C 567.5,164.5 567.5,166.5 567.5,168.5C 569.265,169.461 571.265,169.795 573.5,169.5C 573.5,182.833 573.5,196.167 573.5,209.5C 571.5,209.5 569.5,209.5 567.5,209.5C 567.5,211.833 567.5,214.167 567.5,216.5C 565.167,216.5 562.833,216.5 560.5,216.5C 560.5,218.833 560.5,221.167 560.5,223.5C 550.833,223.5 541.167,223.5 531.5,223.5C 531.5,221.167 531.5,218.833 531.5,216.5C 529.5,216.5 527.5,216.5 525.5,216.5C 525.795,214.265 525.461,212.265 524.5,210.5C 522.735,209.539 520.735,209.205 518.5,209.5C 518.5,196.167 518.5,182.833 518.5,169.5C 520.265,168.539 522.265,168.205 524.5,168.5C 524.5,166.5 524.5,164.5 524.5,162.5C 526.833,162.5 529.167,162.5 531.5,162.5C 531.198,159.941 531.532,157.607 532.5,155.5 Z M 542.5,178.5 C 542.5,185.833 542.5,193.167 542.5,200.5C 545.167,200.5 547.833,200.5 550.5,200.5C 550.5,193.167 550.5,185.833 550.5,178.5C 547.833,178.5 545.167,178.5 542.5,178.5 Z"/></g>
<g><path style="opacity:1" fill="#ec23a7" d="M 682.5,162.5 C 681.509,168.979 681.176,175.646 681.5,182.5C 688.5,182.5 695.5,182.5 702.5,182.5C 703.468,184.607 703.802,186.941 703.5,189.5C 696.5,189.5 689.5,189.5 682.5,189.5C 681.507,198.318 681.173,207.318 681.5,216.5C 690.833,216.5 700.167,216.5 709.5,216.5C 710.468,218.607 710.802,220.941 710.5,223.5C 696.167,223.5 681.833,223.5 667.5,223.5C 667.5,200.833 667.5,178.167 667.5,155.5C 681.833,155.5 696.167,155.5 710.5,155.5C 710.5,157.833 710.5,160.167 710.5,162.5C 701.167,162.5 691.833,162.5 682.5,162.5 Z"/></g>
<g><path style="opacity:1" fill="#f57fcf" d="M 491.5,155.5 C 492.461,157.265 492.795,159.265 492.5,161.5C 494.833,161.5 497.167,161.5 499.5,161.5C 499.5,164.167 499.5,166.833 499.5,169.5C 496.941,169.802 494.607,169.468 492.5,168.5C 491.539,166.735 491.205,164.735 491.5,162.5C 482.5,162.5 473.5,162.5 464.5,162.5C 473.318,161.507 482.318,161.173 491.5,161.5C 491.5,159.5 491.5,157.5 491.5,155.5 Z"/></g>
<g><path style="opacity:1" fill="#fcd0ed" d="M 532.5,155.5 C 541.986,154.506 551.652,154.173 561.5,154.5C 561.5,156.5 561.5,158.5 561.5,160.5C 567.164,159.499 569.498,161.833 568.5,167.5C 570.415,167.216 572.081,167.549 573.5,168.5C 571.5,168.5 569.5,168.5 567.5,168.5C 567.5,166.5 567.5,164.5 567.5,162.5C 565.167,162.5 562.833,162.5 560.5,162.5C 560.5,160.167 560.5,157.833 560.5,155.5C 551.167,155.5 541.833,155.5 532.5,155.5 Z"/></g>
<g><path style="opacity:1" fill="#747585" d="M 128.5,159.5 C 116.167,159.5 103.833,159.5 91.5,159.5C 91.5,161.833 91.5,164.167 91.5,166.5C 90.5269,164.052 90.1936,161.385 90.5,158.5C 103.344,158.171 116.011,158.505 128.5,159.5 Z"/></g>
<g><path style="opacity:1" fill="#20a46e" d="M 195.5,156.5 C 195.833,156.5 196.167,156.5 196.5,156.5C 196.5,163.833 196.5,171.167 196.5,178.5C 193.5,178.5 190.5,178.5 187.5,178.5C 187.5,178.167 187.5,177.833 187.5,177.5C 190.167,177.5 192.833,177.5 195.5,177.5C 195.5,170.5 195.5,163.5 195.5,156.5 Z"/></g>
<g><path style="opacity:1" fill="#fefefe" d="M 128.5,159.5 C 128.5,161.833 128.5,164.167 128.5,166.5C 116.167,166.5 103.833,166.5 91.5,166.5C 91.5,164.167 91.5,161.833 91.5,159.5C 103.833,159.5 116.167,159.5 128.5,159.5 Z"/></g>
<g><path style="opacity:0.915" fill="#fefbfd" d="M 553.5,209.5 C 552.539,211.265 552.205,213.265 552.5,215.5C 548.5,215.5 544.5,215.5 540.5,215.5C 540.795,213.265 540.461,211.265 539.5,209.5C 537.167,209.5 534.833,209.5 532.5,209.5C 532.5,196.167 532.5,182.833 532.5,169.5C 534.833,169.5 537.167,169.5 539.5,169.5C 539.5,167.167 539.5,164.833 539.5,162.5C 543.833,162.5 548.167,162.5 552.5,162.5C 551.167,168.5 553.5,170.833 559.5,169.5C 559.5,182.833 559.5,196.167 559.5,209.5C 557.5,209.5 555.5,209.5 553.5,209.5 Z M 542.5,178.5 C 542.5,185.833 542.5,193.167 542.5,200.5C 545.167,200.5 547.833,200.5 550.5,200.5C 550.5,193.167 550.5,185.833 550.5,178.5C 547.833,178.5 545.167,178.5 542.5,178.5 Z"/></g>
<g><path style="opacity:1" fill="#f583d0" d="M 620.5,155.5 C 621.461,157.265 621.795,159.265 621.5,161.5C 626.032,161.182 630.366,161.515 634.5,162.5C 630.167,162.5 625.833,162.5 621.5,162.5C 621.5,164.5 621.5,166.5 621.5,168.5C 623.735,168.205 625.735,168.539 627.5,169.5C 624.941,169.802 622.607,169.468 620.5,168.5C 620.5,166.5 620.5,164.5 620.5,162.5C 616.167,162.5 611.833,162.5 607.5,162.5C 611.634,161.515 615.968,161.182 620.5,161.5C 620.5,159.5 620.5,157.5 620.5,155.5 Z"/></g>
<g><path style="opacity:1" fill="#ec23a7" d="M 593.5,155.5 C 602.5,155.5 611.5,155.5 620.5,155.5C 620.5,157.5 620.5,159.5 620.5,161.5C 615.968,161.182 611.634,161.515 607.5,162.5C 607.5,180.5 607.5,198.5 607.5,216.5C 612.032,216.818 616.366,216.485 620.5,215.5C 620.5,213.5 620.5,211.5 620.5,209.5C 622.833,209.5 625.167,209.5 627.5,209.5C 627.5,207.167 627.5,204.833 627.5,202.5C 629.833,202.5 632.167,202.5 634.5,202.5C 634.5,193.5 634.5,184.5 634.5,175.5C 632.167,175.5 629.833,175.5 627.5,175.5C 627.5,173.5 627.5,171.5 627.5,169.5C 625.735,168.539 623.735,168.205 621.5,168.5C 621.5,166.5 621.5,164.5 621.5,162.5C 625.833,162.5 630.167,162.5 634.5,162.5C 633.167,168.5 635.5,170.833 641.5,169.5C 641.5,171.5 641.5,173.5 641.5,175.5C 643.833,175.5 646.167,175.5 648.5,175.5C 648.5,184.833 648.5,194.167 648.5,203.5C 646.167,203.5 643.833,203.5 641.5,203.5C 641.5,205.5 641.5,207.5 641.5,209.5C 639.5,209.5 637.5,209.5 635.5,209.5C 635.5,211.833 635.5,214.167 635.5,216.5C 630.833,216.5 626.167,216.5 621.5,216.5C 621.802,219.059 621.468,221.393 620.5,223.5C 611.5,223.5 602.5,223.5 593.5,223.5C 593.5,200.833 593.5,178.167 593.5,155.5 Z M 616.5,178.5 C 617.695,185.003 617.695,191.503 616.5,198C 616.833,198.833 617.167,199.667 617.5,200.5C 618.474,198.257 618.808,195.924 618.5,193.5C 620.833,193.5 623.167,193.5 625.5,193.5C 625.5,190.833 625.5,188.167 625.5,185.5C 623.167,185.5 620.833,185.5 618.5,185.5C 619.01,182.612 618.344,180.279 616.5,178.5 Z"/></g>
<g><path style="opacity:0.918" fill="#fefcfe" d="M 620.5,168.5 C 622.607,169.468 624.941,169.802 627.5,169.5C 627.5,171.5 627.5,173.5 627.5,175.5C 629.833,175.5 632.167,175.5 634.5,175.5C 634.5,184.5 634.5,193.5 634.5,202.5C 632.167,202.5 629.833,202.5 627.5,202.5C 627.5,204.833 627.5,207.167 627.5,209.5C 625.167,209.5 622.833,209.5 620.5,209.5C 620.5,211.5 620.5,213.5 620.5,215.5C 616.5,215.5 612.5,215.5 608.5,215.5C 608.5,198.167 608.5,180.833 608.5,163.5C 612.167,163.5 615.833,163.5 619.5,163.5C 619.216,165.415 619.549,167.081 620.5,168.5 Z M 616.5,178.5 C 617.695,185.003 617.695,191.503 616.5,198C 616.833,198.833 617.167,199.667 617.5,200.5C 618.474,198.257 618.808,195.924 618.5,193.5C 620.833,193.5 623.167,193.5 625.5,193.5C 625.5,190.833 625.5,188.167 625.5,185.5C 623.167,185.5 620.833,185.5 618.5,185.5C 619.01,182.612 618.344,180.279 616.5,178.5 Z"/></g>
<g><path style="opacity:1" fill="#ec1ba7" d="M 492.5,168.5 C 492.5,166.5 492.5,164.5 492.5,162.5C 494.5,162.5 496.5,162.5 498.5,162.5C 498.5,164.5 498.5,166.5 498.5,168.5C 496.5,168.5 494.5,168.5 492.5,168.5 Z"/></g>
<g><path style="opacity:1" fill="#fbdbf1" d="M 607.5,162.5 C 611.833,162.5 616.167,162.5 620.5,162.5C 620.5,164.5 620.5,166.5 620.5,168.5C 619.549,167.081 619.216,165.415 619.5,163.5C 615.833,163.5 612.167,163.5 608.5,163.5C 608.5,180.833 608.5,198.167 608.5,215.5C 612.5,215.5 616.5,215.5 620.5,215.5C 616.366,216.485 612.032,216.818 607.5,216.5C 607.5,198.5 607.5,180.5 607.5,162.5 Z"/></g>
<g><path style="opacity:1" fill="#f9ade0" d="M 634.5,162.5 C 635.451,163.919 635.784,165.585 635.5,167.5C 641.5,166.167 643.833,168.5 642.5,174.5C 644.735,174.205 646.735,174.539 648.5,175.5C 646.167,175.5 643.833,175.5 641.5,175.5C 641.5,173.5 641.5,171.5 641.5,169.5C 635.5,170.833 633.167,168.5 634.5,162.5 Z"/></g>
<g><path style="opacity:1" fill="#f8addf" d="M 450.5,162.5 C 451.833,168.5 449.5,170.833 443.5,169.5C 443.5,182.833 443.5,196.167 443.5,209.5C 442.339,196.006 442.173,182.34 443,168.5C 445.041,167.577 447.208,167.244 449.5,167.5C 449.216,165.585 449.549,163.919 450.5,162.5 Z"/></g>
<g><path style="opacity:1" fill="#f796d7" d="M 518.5,169.5 C 518.5,182.833 518.5,196.167 518.5,209.5C 520.735,209.205 522.735,209.539 524.5,210.5C 522.167,210.5 519.833,210.5 517.5,210.5C 517.171,196.656 517.504,182.99 518.5,169.5 Z"/></g>
<g><path style="opacity:1" fill="#f58bd3" d="M 567.5,168.5 C 569.5,168.5 571.5,168.5 573.5,168.5C 574.833,182.167 574.833,195.833 573.5,209.5C 573.5,196.167 573.5,182.833 573.5,169.5C 571.265,169.795 569.265,169.461 567.5,168.5 Z"/></g>
<g><path style="opacity:1" fill="#acd5d1" d="M 32.5,170.5 C 34.5,170.5 36.5,170.5 38.5,170.5C 38.5,172.833 38.5,175.167 38.5,177.5C 36.5,177.5 34.5,177.5 32.5,177.5C 32.5,175.167 32.5,172.833 32.5,170.5 Z"/></g>
<g><path style="opacity:1" fill="#b2dfd7" d="M 181.5,170.5 C 183.5,170.5 185.5,170.5 187.5,170.5C 187.5,172.833 187.5,175.167 187.5,177.5C 185.5,177.5 183.5,177.5 181.5,177.5C 181.5,175.167 181.5,172.833 181.5,170.5 Z"/></g>
<g><path style="opacity:1" fill="#3eae81" d="M 32.5,170.5 C 32.5,172.833 32.5,175.167 32.5,177.5C 34.5,177.5 36.5,177.5 38.5,177.5C 38.8333,177.5 39.1667,177.5 39.5,177.5C 39.5,177.833 39.5,178.167 39.5,178.5C 37.1667,178.5 34.8333,178.5 32.5,178.5C 32.5,180.833 32.5,183.167 32.5,185.5C 31.5318,183.393 31.1984,181.059 31.5,178.5C 28.6146,178.806 25.9479,178.473 23.5,177.5C 26.1667,177.5 28.8333,177.5 31.5,177.5C 31.1984,174.941 31.5318,172.607 32.5,170.5 Z"/></g>
<g><path style="opacity:1" fill="#b1e2d7" d="M 39.5,178.5 C 41.8333,178.5 44.1667,178.5 46.5,178.5C 46.5,180.833 46.5,183.167 46.5,185.5C 44.1667,185.5 41.8333,185.5 39.5,185.5C 39.5,183.167 39.5,180.833 39.5,178.5 Z"/></g>
<g><path style="opacity:1" fill="#101e44" d="M 38.5,170.5 C 41.8333,170.5 45.1667,170.5 48.5,170.5C 48.5,172.833 48.5,175.167 48.5,177.5C 89.5,177.5 130.5,177.5 171.5,177.5C 171.5,179.833 171.5,182.167 171.5,184.5C 130.167,184.5 88.8333,184.5 47.5,184.5C 47.5,182.167 47.5,179.833 47.5,177.5C 44.8333,177.5 42.1667,177.5 39.5,177.5C 39.1667,177.5 38.8333,177.5 38.5,177.5C 38.5,175.167 38.5,172.833 38.5,170.5 Z"/></g>
<g><path style="opacity:1" fill="#abdad1" d="M 180.5,177.5 C 179.612,180.054 179.279,182.721 179.5,185.5C 177.167,185.5 174.833,185.5 172.5,185.5C 172.5,182.833 172.5,180.167 172.5,177.5C 175.167,177.5 177.833,177.5 180.5,177.5 Z"/></g>
<g><path style="opacity:1" fill="#f9b6e3" d="M 682.5,162.5 C 682.5,168.833 682.5,175.167 682.5,181.5C 689.354,181.176 696.021,181.509 702.5,182.5C 695.5,182.5 688.5,182.5 681.5,182.5C 681.176,175.646 681.509,168.979 682.5,162.5 Z"/></g>
<g><path style="opacity:1" fill="#22f27f" d="M 39.5,178.5 C 39.5,180.833 39.5,183.167 39.5,185.5C 37.1667,185.5 34.8333,185.5 32.5,185.5C 32.5,183.167 32.5,180.833 32.5,178.5C 34.8333,178.5 37.1667,178.5 39.5,178.5 Z"/></g>
<g><path style="opacity:1" fill="#2aef80" d="M 180.5,177.5 C 180.833,177.5 181.167,177.5 181.5,177.5C 183.5,177.5 185.5,177.5 187.5,177.5C 187.5,177.833 187.5,178.167 187.5,178.5C 187.5,180.833 187.5,183.167 187.5,185.5C 185.167,185.5 182.833,185.5 180.5,185.5C 180.167,185.5 179.833,185.5 179.5,185.5C 179.279,182.721 179.612,180.054 180.5,177.5 Z"/></g>
<g><path style="opacity:1" fill="#223850" d="M 180.5,91.5 C 180.833,91.5 181.167,91.5 181.5,91.5C 181.5,117.833 181.5,144.167 181.5,170.5C 181.5,172.833 181.5,175.167 181.5,177.5C 181.167,177.5 180.833,177.5 180.5,177.5C 177.833,177.5 175.167,177.5 172.5,177.5C 172.5,180.167 172.5,182.833 172.5,185.5C 172.167,185.5 171.833,185.5 171.5,185.5C 171.167,185.5 170.833,185.5 170.5,185.5C 170.167,185.5 169.833,185.5 169.5,185.5C 129.5,185.5 89.5,185.5 49.5,185.5C 49.1667,185.5 48.8333,185.5 48.5,185.5C 47.8333,185.5 47.1667,185.5 46.5,185.5C 46.5,183.167 46.5,180.833 46.5,178.5C 44.1667,178.5 41.8333,178.5 39.5,178.5C 39.5,178.167 39.5,177.833 39.5,177.5C 42.1667,177.5 44.8333,177.5 47.5,177.5C 47.5,179.833 47.5,182.167 47.5,184.5C 88.8333,184.5 130.167,184.5 171.5,184.5C 171.5,182.167 171.5,179.833 171.5,177.5C 171.5,175.167 171.5,172.833 171.5,170.5C 174.5,170.5 177.5,170.5 180.5,170.5C 180.5,144.167 180.5,117.833 180.5,91.5 Z"/></g>
<g><path style="opacity:1" fill="#1ef37e" d="M 171.5,185.5 C 171.833,185.5 172.167,185.5 172.5,185.5C 174.833,185.5 177.167,185.5 179.5,185.5C 179.5,187.833 179.5,190.167 179.5,192.5C 176.833,192.5 174.167,192.5 171.5,192.5C 171.5,190.167 171.5,187.833 171.5,185.5 Z"/></g>
<g><path style="opacity:1" fill="#26f281" d="M 39.5,185.5 C 41.8333,185.5 44.1667,185.5 46.5,185.5C 47.1667,185.5 47.8333,185.5 48.5,185.5C 48.5,187.833 48.5,190.167 48.5,192.5C 45.5,192.5 42.5,192.5 39.5,192.5C 39.5,190.167 39.5,187.833 39.5,185.5 Z"/></g>
<g><path style="opacity:1" fill="#d8d4e6" d="M 48.5,185.5 C 48.8333,185.5 49.1667,185.5 49.5,185.5C 49.5,187.5 49.5,189.5 49.5,191.5C 89.5,191.5 129.5,191.5 169.5,191.5C 169.5,189.5 169.5,187.5 169.5,185.5C 169.833,185.5 170.167,185.5 170.5,185.5C 170.5,187.833 170.5,190.167 170.5,192.5C 129.833,192.5 89.1667,192.5 48.5,192.5C 48.5,190.167 48.5,187.833 48.5,185.5 Z"/></g>
<g><path style="opacity:1" fill="#bfd9d9" d="M 49.5,185.5 C 89.5,185.5 129.5,185.5 169.5,185.5C 169.5,187.5 169.5,189.5 169.5,191.5C 129.5,191.5 89.5,191.5 49.5,191.5C 49.5,189.5 49.5,187.5 49.5,185.5 Z"/></g>
<g><path style="opacity:1" fill="#1a7262" d="M 39.5,192.5 C 42.5,192.5 45.5,192.5 48.5,192.5C 48.5,192.833 48.5,193.167 48.5,193.5C 48.5,195.5 48.5,197.5 48.5,199.5C 47.5386,197.735 47.2053,195.735 47.5,193.5C 44.6146,193.806 41.9479,193.473 39.5,192.5 Z"/></g>
<g><path style="opacity:1" fill="#60dba0" d="M 170.5,185.5 C 170.833,185.5 171.167,185.5 171.5,185.5C 171.5,187.833 171.5,190.167 171.5,192.5C 171.5,192.833 171.5,193.167 171.5,193.5C 171.5,195.5 171.5,197.5 171.5,199.5C 163.833,199.5 156.167,199.5 148.5,199.5C 155.648,198.508 162.981,198.175 170.5,198.5C 170.5,196.833 170.5,195.167 170.5,193.5C 129.833,193.5 89.1667,193.5 48.5,193.5C 48.5,193.167 48.5,192.833 48.5,192.5C 89.1667,192.5 129.833,192.5 170.5,192.5C 170.5,190.167 170.5,187.833 170.5,185.5 Z"/></g>
<g><path style="opacity:1" fill="#1a7462" d="M 179.5,185.5 C 179.833,185.5 180.167,185.5 180.5,185.5C 180.5,188.167 180.5,190.833 180.5,193.5C 177.5,193.5 174.5,193.5 171.5,193.5C 171.5,193.167 171.5,192.833 171.5,192.5C 174.167,192.5 176.833,192.5 179.5,192.5C 179.5,190.167 179.5,187.833 179.5,185.5 Z"/></g>
<g><path style="opacity:0.967" fill="#13124b" d="M 14.5,131.5 C 17.1667,131.5 19.8333,131.5 22.5,131.5C 22.1705,147.009 22.5038,162.342 23.5,177.5C 25.9479,178.473 28.6146,178.806 31.5,178.5C 31.1984,181.059 31.5318,183.393 32.5,185.5C 34.8333,185.5 37.1667,185.5 39.5,185.5C 39.5,187.833 39.5,190.167 39.5,192.5C 41.9479,193.473 44.6146,193.806 47.5,193.5C 47.2053,195.735 47.5386,197.735 48.5,199.5C 55.8333,199.5 63.1667,199.5 70.5,199.5C 70.5,201.833 70.5,204.167 70.5,206.5C 96.5,206.5 122.5,206.5 148.5,206.5C 148.5,204.167 148.5,201.833 148.5,199.5C 156.167,199.5 163.833,199.5 171.5,199.5C 171.5,197.5 171.5,195.5 171.5,193.5C 174.5,193.5 177.5,193.5 180.5,193.5C 180.5,196.167 180.5,198.833 180.5,201.5C 177.5,201.5 174.5,201.5 171.5,201.5C 171.5,203.5 171.5,205.5 171.5,207.5C 166.489,207.334 161.489,207.501 156.5,208C 155.594,209.699 155.261,211.533 155.5,213.5C 160.833,213.5 166.167,213.5 171.5,213.5C 171.5,215.833 171.5,218.167 171.5,220.5C 166.167,220.5 160.833,220.5 155.5,220.5C 155.5,224.5 155.5,228.5 155.5,232.5C 153.167,232.5 150.833,232.5 148.5,232.5C 148.5,229.167 148.5,225.833 148.5,222.5C 122.672,221.502 96.672,221.169 70.5,221.5C 70.5,225.167 70.5,228.833 70.5,232.5C 68.1667,232.5 65.8333,232.5 63.5,232.5C 63.5,228.5 63.5,224.5 63.5,220.5C 58.1667,220.5 52.8333,220.5 47.5,220.5C 47.5,218.167 47.5,215.833 47.5,213.5C 53.1764,213.666 58.8431,213.499 64.5,213C 63.8333,211.333 63.1667,209.667 62.5,208C 57.5111,207.501 52.5111,207.334 47.5,207.5C 47.5,205.5 47.5,203.5 47.5,201.5C 44.5,201.5 41.5,201.5 38.5,201.5C 38.5,198.833 38.5,196.167 38.5,193.5C 33.1667,193.5 27.8333,193.5 22.5,193.5C 22.5,191.167 22.5,188.833 22.5,186.5C 19.5525,186.777 16.7191,186.444 14,185.5C 13.5002,176.173 13.3335,166.839 13.5,157.5C 11.1667,157.5 8.83333,157.5 6.5,157.5C 6.5,152.833 6.5,148.167 6.5,143.5C 4.16667,143.5 1.83333,143.5 -0.5,143.5C -0.5,139.833 -0.5,136.167 -0.5,132.5C 1.83333,132.5 4.16667,132.5 6.5,132.5C 6.5,135.833 6.5,139.167 6.5,142.5C 9.16667,142.5 11.8333,142.5 14.5,142.5C 14.5,138.833 14.5,135.167 14.5,131.5 Z"/></g>
<g><path style="opacity:1" fill="#1eef7e" d="M 48.5,193.5 C 89.1667,193.5 129.833,193.5 170.5,193.5C 170.5,195.167 170.5,196.833 170.5,198.5C 162.981,198.175 155.648,198.508 148.5,199.5C 148.5,201.833 148.5,204.167 148.5,206.5C 122.5,206.5 96.5,206.5 70.5,206.5C 70.5,204.167 70.5,201.833 70.5,199.5C 63.1667,199.5 55.8333,199.5 48.5,199.5C 48.5,197.5 48.5,195.5 48.5,193.5 Z"/></g>
<g><path style="opacity:1" fill="#fac3e8" d="M 464.5,209.5 C 465.461,211.265 465.795,213.265 465.5,215.5C 474.167,215.5 482.833,215.5 491.5,215.5C 482.682,216.493 473.682,216.827 464.5,216.5C 464.5,214.167 464.5,211.833 464.5,209.5 Z"/></g>
<g><path style="opacity:1" fill="#fab8e4" d="M 539.5,209.5 C 540.461,211.265 540.795,213.265 540.5,215.5C 544.5,215.5 548.5,215.5 552.5,215.5C 552.205,213.265 552.539,211.265 553.5,209.5C 553.5,211.833 553.5,214.167 553.5,216.5C 548.833,216.5 544.167,216.5 539.5,216.5C 539.5,214.167 539.5,211.833 539.5,209.5 Z"/></g>
<g><path style="opacity:1" fill="#f9b4e2" d="M 682.5,189.5 C 682.5,198.167 682.5,206.833 682.5,215.5C 691.682,215.173 700.682,215.507 709.5,216.5C 700.167,216.5 690.833,216.5 681.5,216.5C 681.173,207.318 681.507,198.318 682.5,189.5 Z"/></g>
<g><path style="opacity:1" fill="#b0198b" d="M 171.5,220.5 C 171.5,220.833 171.5,221.167 171.5,221.5C 171.5,224.167 171.5,226.833 171.5,229.5C 171.5,230.5 171.5,231.5 171.5,232.5C 171.167,232.5 170.833,232.5 170.5,232.5C 170.5,228.833 170.5,225.167 170.5,221.5C 165.833,221.5 161.167,221.5 156.5,221.5C 156.5,225.167 156.5,228.833 156.5,232.5C 156.167,232.5 155.833,232.5 155.5,232.5C 155.5,228.5 155.5,224.5 155.5,220.5C 160.833,220.5 166.167,220.5 171.5,220.5 Z"/></g>
<g><path style="opacity:0.94" fill="#1c1450" d="M 47.5,221.5 C 48.4731,223.948 48.8064,226.615 48.5,229.5C 45.5,229.5 42.5,229.5 39.5,229.5C 39.5,230.5 39.5,231.5 39.5,232.5C 36.4281,232.817 33.4281,232.484 30.5,231.5C 32.6473,229.337 35.314,228.337 38.5,228.5C 38.5,226.167 38.5,223.833 38.5,221.5C 41.5,221.5 44.5,221.5 47.5,221.5 Z"/></g>
<g><path style="opacity:1" fill="#a5a9bc" d="M 148.5,222.5 C 122.833,222.5 97.1667,222.5 71.5,222.5C 71.5,225.833 71.5,229.167 71.5,232.5C 71.1667,232.5 70.8333,232.5 70.5,232.5C 70.5,228.833 70.5,225.167 70.5,221.5C 96.672,221.169 122.672,221.502 148.5,222.5 Z"/></g>
<g><path style="opacity:0.89" fill="#16154f" d="M 171.5,221.5 C 174.5,221.5 177.5,221.5 180.5,221.5C 180.5,223.833 180.5,226.167 180.5,228.5C 183.972,228.126 186.972,229.126 189.5,231.5C 186.232,232.487 182.898,232.82 179.5,232.5C 179.5,231.5 179.5,230.5 179.5,229.5C 176.833,229.5 174.167,229.5 171.5,229.5C 171.5,226.833 171.5,224.167 171.5,221.5 Z"/></g>
<g><path style="opacity:1" fill="#ee0ca3" d="M 47.5,221.5 C 47.5,221.167 47.5,220.833 47.5,220.5C 52.8333,220.5 58.1667,220.5 63.5,220.5C 63.5,224.5 63.5,228.5 63.5,232.5C 58.5,232.5 53.5,232.5 48.5,232.5C 48.5,231.5 48.5,230.5 48.5,229.5C 48.8064,226.615 48.4731,223.948 47.5,221.5 Z"/></g>
<g><path style="opacity:0.996" fill="#f10ca4" d="M 170.5,232.5 C 165.833,232.5 161.167,232.5 156.5,232.5C 156.5,228.833 156.5,225.167 156.5,221.5C 161.167,221.5 165.833,221.5 170.5,221.5C 170.5,225.167 170.5,228.833 170.5,232.5 Z"/></g>
<g><path style="opacity:0.99" fill="#f5fbf8" d="M 148.5,222.5 C 148.5,225.833 148.5,229.167 148.5,232.5C 145.833,232.5 143.167,232.5 140.5,232.5C 140.423,231.25 139.756,230.417 138.5,230C 136.527,229.505 134.527,229.338 132.5,229.5C 117.5,229.5 102.5,229.5 87.5,229.5C 85.1432,229.337 82.8098,229.503 80.5,230C 79.6195,230.708 78.9528,231.542 78.5,232.5C 76.1667,232.5 73.8333,232.5 71.5,232.5C 71.5,229.167 71.5,225.833 71.5,222.5C 97.1667,222.5 122.833,222.5 148.5,222.5 Z"/></g>
<g><path style="opacity:1" fill="#fab5e3" d="M 593.5,155.5 C 593.5,178.167 593.5,200.833 593.5,223.5C 602.5,223.5 611.5,223.5 620.5,223.5C 611.348,224.494 602.015,224.827 592.5,224.5C 592.169,201.327 592.502,178.327 593.5,155.5 Z"/></g>
<g><path style="opacity:0.681" fill="#21e87b" d="M 87.5,229.5 C 87.5,230.5 87.5,231.5 87.5,232.5C 84.5,232.5 81.5,232.5 78.5,232.5C 78.9528,231.542 79.6195,230.708 80.5,230C 82.8098,229.503 85.1432,229.337 87.5,229.5 Z"/></g>
<g><path style="opacity:1" fill="#0f0f4a" d="M 87.5,229.5 C 102.5,229.5 117.5,229.5 132.5,229.5C 132.5,230.5 132.5,231.5 132.5,232.5C 117.5,232.5 102.5,232.5 87.5,232.5C 87.5,231.5 87.5,230.5 87.5,229.5 Z"/></g>
<g><path style="opacity:0.721" fill="#25f17d" d="M 132.5,229.5 C 134.527,229.338 136.527,229.505 138.5,230C 139.756,230.417 140.423,231.25 140.5,232.5C 137.833,232.5 135.167,232.5 132.5,232.5C 132.5,231.5 132.5,230.5 132.5,229.5 Z"/></g>
<g><path style="opacity:1" fill="#1ffa81" d="M 171.5,229.5 C 174.167,229.5 176.833,229.5 179.5,229.5C 179.5,230.5 179.5,231.5 179.5,232.5C 176.833,232.5 174.167,232.5 171.5,232.5C 171.5,231.5 171.5,230.5 171.5,229.5 Z"/></g>
<g><path style="opacity:0.553" fill="#2df381" d="M 48.5,229.5 C 48.5,230.5 48.5,231.5 48.5,232.5C 45.5,232.5 42.5,232.5 39.5,232.5C 39.5,231.5 39.5,230.5 39.5,229.5C 42.5,229.5 45.5,229.5 48.5,229.5 Z"/></g>
</svg>
