<svg width="166" height="60" viewBox="0 0 166 60" fill="none" xmlns="http://www.w3.org/2000/svg">
<mask id="path-1-outside-1_77_37" maskUnits="userSpaceOnUse" x="9" y="3.00391" width="150" height="27" fill="black">
<rect fill="white" x="9" y="3.00391" width="150" height="27"/>
<path d="M11.5137 7.37891H15.6387V25.9414H25.9512V28.0039H11.5137V7.37891ZM31.6437 7.37891H44.0187V9.44141H35.7687V15.6289H41.9562V17.6914H35.7687V25.9414H44.0187V28.0039H31.6437V7.37891ZM49.7113 7.37891H53.8363V11.5039H55.8988V15.6289H57.9613V17.6914H60.0238V11.5039H62.0863V7.37891H66.2113V11.5039H64.1488V17.6914H62.0863V23.8789H60.0238V28.0039H55.8988V23.8789H53.8363V17.6914H51.7738V11.5039H49.7113V7.37891ZM71.9037 7.37891H84.2787V9.44141H76.0287V15.6289H82.2162V17.6914H76.0287V25.9414H84.2787V28.0039H71.9037V7.37891ZM89.9713 7.37891H94.0963V25.9414H104.409V28.0039H89.9713V7.37891ZM110.101 7.37891H114.226V23.8789H116.289V25.9414H120.414V23.8789H122.476V7.37891H126.601V23.8789H124.539V25.9414H122.476V28.0039H114.226V25.9414H112.164V23.8789H110.101V7.37891ZM134.356 7.37891H144.669V9.44141H146.731V15.6289H144.669V17.6914H142.606V19.7539H136.419V28.0039H132.294V9.44141H134.356V7.37891ZM136.419 9.44141V17.6914H140.544V15.6289H142.606V9.44141H136.419ZM152.424 5.31641H156.549V21.8164H152.424V5.31641ZM152.424 23.8789H156.549V28.0039H152.424V23.8789Z"/>
</mask>
<path d="M11.5137 7.37891H15.6387V25.9414H25.9512V28.0039H11.5137V7.37891ZM31.6437 7.37891H44.0187V9.44141H35.7687V15.6289H41.9562V17.6914H35.7687V25.9414H44.0187V28.0039H31.6437V7.37891ZM49.7113 7.37891H53.8363V11.5039H55.8988V15.6289H57.9613V17.6914H60.0238V11.5039H62.0863V7.37891H66.2113V11.5039H64.1488V17.6914H62.0863V23.8789H60.0238V28.0039H55.8988V23.8789H53.8363V17.6914H51.7738V11.5039H49.7113V7.37891ZM71.9037 7.37891H84.2787V9.44141H76.0287V15.6289H82.2162V17.6914H76.0287V25.9414H84.2787V28.0039H71.9037V7.37891ZM89.9713 7.37891H94.0963V25.9414H104.409V28.0039H89.9713V7.37891ZM110.101 7.37891H114.226V23.8789H116.289V25.9414H120.414V23.8789H122.476V7.37891H126.601V23.8789H124.539V25.9414H122.476V28.0039H114.226V25.9414H112.164V23.8789H110.101V7.37891ZM134.356 7.37891H144.669V9.44141H146.731V15.6289H144.669V17.6914H142.606V19.7539H136.419V28.0039H132.294V9.44141H134.356V7.37891ZM136.419 9.44141V17.6914H140.544V15.6289H142.606V9.44141H136.419ZM152.424 5.31641H156.549V21.8164H152.424V5.31641ZM152.424 23.8789H156.549V28.0039H152.424V23.8789Z" fill="url(#paint0_linear_77_37)"/>
<path d="M11.5137 7.37891V5.37891H9.51375V7.37891H11.5137ZM15.6387 7.37891H17.6387V5.37891H15.6387V7.37891ZM15.6387 25.9414H13.6387V27.9414H15.6387V25.9414ZM25.9512 25.9414H27.9512V23.9414H25.9512V25.9414ZM25.9512 28.0039V30.0039H27.9512V28.0039H25.9512ZM11.5137 28.0039H9.51375V30.0039H11.5137V28.0039ZM11.5137 9.37891H15.6387V5.37891H11.5137V9.37891ZM13.6387 7.37891V25.9414H17.6387V7.37891H13.6387ZM15.6387 27.9414H25.9512V23.9414H15.6387V27.9414ZM23.9512 25.9414V28.0039H27.9512V25.9414H23.9512ZM25.9512 26.0039H11.5137V30.0039H25.9512V26.0039ZM13.5137 28.0039V7.37891H9.51375V28.0039H13.5137ZM31.6437 7.37891V5.37891H29.6437V7.37891H31.6437ZM44.0187 7.37891H46.0187V5.37891H44.0187V7.37891ZM44.0187 9.44141V11.4414H46.0187V9.44141H44.0187ZM35.7687 9.44141V7.44141H33.7687V9.44141H35.7687ZM35.7687 15.6289H33.7687V17.6289H35.7687V15.6289ZM41.9562 15.6289H43.9562V13.6289H41.9562V15.6289ZM41.9562 17.6914V19.6914H43.9562V17.6914H41.9562ZM35.7687 17.6914V15.6914H33.7687V17.6914H35.7687ZM35.7687 25.9414H33.7687V27.9414H35.7687V25.9414ZM44.0187 25.9414H46.0187V23.9414H44.0187V25.9414ZM44.0187 28.0039V30.0039H46.0187V28.0039H44.0187ZM31.6437 28.0039H29.6437V30.0039H31.6437V28.0039ZM31.6437 9.37891H44.0187V5.37891H31.6437V9.37891ZM42.0187 7.37891V9.44141H46.0187V7.37891H42.0187ZM44.0187 7.44141H35.7687V11.4414H44.0187V7.44141ZM33.7687 9.44141V15.6289H37.7687V9.44141H33.7687ZM35.7687 17.6289H41.9562V13.6289H35.7687V17.6289ZM39.9562 15.6289V17.6914H43.9562V15.6289H39.9562ZM41.9562 15.6914H35.7687V19.6914H41.9562V15.6914ZM33.7687 17.6914V25.9414H37.7687V17.6914H33.7687ZM35.7687 27.9414H44.0187V23.9414H35.7687V27.9414ZM42.0187 25.9414V28.0039H46.0187V25.9414H42.0187ZM44.0187 26.0039H31.6437V30.0039H44.0187V26.0039ZM33.6437 28.0039V7.37891H29.6437V28.0039H33.6437ZM49.7113 7.37891V5.37891H47.7113V7.37891H49.7113ZM53.8363 7.37891H55.8363V5.37891H53.8363V7.37891ZM53.8363 11.5039H51.8363V13.5039H53.8363V11.5039ZM55.8988 11.5039H57.8988V9.50391H55.8988V11.5039ZM55.8988 15.6289H53.8988V17.6289H55.8988V15.6289ZM57.9613 15.6289H59.9613V13.6289H57.9613V15.6289ZM57.9613 17.6914H55.9613V19.6914H57.9613V17.6914ZM60.0238 17.6914V19.6914H62.0238V17.6914H60.0238ZM60.0238 11.5039V9.50391H58.0238V11.5039H60.0238ZM62.0863 11.5039V13.5039H64.0863V11.5039H62.0863ZM62.0863 7.37891V5.37891H60.0863V7.37891H62.0863ZM66.2113 7.37891H68.2113V5.37891H66.2113V7.37891ZM66.2113 11.5039V13.5039H68.2113V11.5039H66.2113ZM64.1488 11.5039V9.50391H62.1488V11.5039H64.1488ZM64.1488 17.6914V19.6914H66.1488V17.6914H64.1488ZM62.0863 17.6914V15.6914H60.0863V17.6914H62.0863ZM62.0863 23.8789V25.8789H64.0863V23.8789H62.0863ZM60.0238 23.8789V21.8789H58.0238V23.8789H60.0238ZM60.0238 28.0039V30.0039H62.0238V28.0039H60.0238ZM55.8988 28.0039H53.8988V30.0039H55.8988V28.0039ZM55.8988 23.8789H57.8988V21.8789H55.8988V23.8789ZM53.8363 23.8789H51.8363V25.8789H53.8363V23.8789ZM53.8363 17.6914H55.8363V15.6914H53.8363V17.6914ZM51.7738 17.6914H49.7738V19.6914H51.7738V17.6914ZM51.7738 11.5039H53.7738V9.50391H51.7738V11.5039ZM49.7113 11.5039H47.7113V13.5039H49.7113V11.5039ZM49.7113 9.37891H53.8363V5.37891H49.7113V9.37891ZM51.8363 7.37891V11.5039H55.8363V7.37891H51.8363ZM53.8363 13.5039H55.8988V9.50391H53.8363V13.5039ZM53.8988 11.5039V15.6289H57.8988V11.5039H53.8988ZM55.8988 17.6289H57.9613V13.6289H55.8988V17.6289ZM55.9613 15.6289V17.6914H59.9613V15.6289H55.9613ZM57.9613 19.6914H60.0238V15.6914H57.9613V19.6914ZM62.0238 17.6914V11.5039H58.0238V17.6914H62.0238ZM60.0238 13.5039H62.0863V9.50391H60.0238V13.5039ZM64.0863 11.5039V7.37891H60.0863V11.5039H64.0863ZM62.0863 9.37891H66.2113V5.37891H62.0863V9.37891ZM64.2113 7.37891V11.5039H68.2113V7.37891H64.2113ZM66.2113 9.50391H64.1488V13.5039H66.2113V9.50391ZM62.1488 11.5039V17.6914H66.1488V11.5039H62.1488ZM64.1488 15.6914H62.0863V19.6914H64.1488V15.6914ZM60.0863 17.6914V23.8789H64.0863V17.6914H60.0863ZM62.0863 21.8789H60.0238V25.8789H62.0863V21.8789ZM58.0238 23.8789V28.0039H62.0238V23.8789H58.0238ZM60.0238 26.0039H55.8988V30.0039H60.0238V26.0039ZM57.8988 28.0039V23.8789H53.8988V28.0039H57.8988ZM55.8988 21.8789H53.8363V25.8789H55.8988V21.8789ZM55.8363 23.8789V17.6914H51.8363V23.8789H55.8363ZM53.8363 15.6914H51.7738V19.6914H53.8363V15.6914ZM53.7738 17.6914V11.5039H49.7738V17.6914H53.7738ZM51.7738 9.50391H49.7113V13.5039H51.7738V9.50391ZM51.7113 11.5039V7.37891H47.7113V11.5039H51.7113ZM71.9037 7.37891V5.37891H69.9037V7.37891H71.9037ZM84.2787 7.37891H86.2787V5.37891H84.2787V7.37891ZM84.2787 9.44141V11.4414H86.2787V9.44141H84.2787ZM76.0287 9.44141V7.44141H74.0287V9.44141H76.0287ZM76.0287 15.6289H74.0287V17.6289H76.0287V15.6289ZM82.2162 15.6289H84.2162V13.6289H82.2162V15.6289ZM82.2162 17.6914V19.6914H84.2162V17.6914H82.2162ZM76.0287 17.6914V15.6914H74.0287V17.6914H76.0287ZM76.0287 25.9414H74.0287V27.9414H76.0287V25.9414ZM84.2787 25.9414H86.2787V23.9414H84.2787V25.9414ZM84.2787 28.0039V30.0039H86.2787V28.0039H84.2787ZM71.9037 28.0039H69.9037V30.0039H71.9037V28.0039ZM71.9037 9.37891H84.2787V5.37891H71.9037V9.37891ZM82.2787 7.37891V9.44141H86.2787V7.37891H82.2787ZM84.2787 7.44141H76.0287V11.4414H84.2787V7.44141ZM74.0287 9.44141V15.6289H78.0287V9.44141H74.0287ZM76.0287 17.6289H82.2162V13.6289H76.0287V17.6289ZM80.2162 15.6289V17.6914H84.2162V15.6289H80.2162ZM82.2162 15.6914H76.0287V19.6914H82.2162V15.6914ZM74.0287 17.6914V25.9414H78.0287V17.6914H74.0287ZM76.0287 27.9414H84.2787V23.9414H76.0287V27.9414ZM82.2787 25.9414V28.0039H86.2787V25.9414H82.2787ZM84.2787 26.0039H71.9037V30.0039H84.2787V26.0039ZM73.9037 28.0039V7.37891H69.9037V28.0039H73.9037ZM89.9713 7.37891V5.37891H87.9713V7.37891H89.9713ZM94.0963 7.37891H96.0963V5.37891H94.0963V7.37891ZM94.0963 25.9414H92.0963V27.9414H94.0963V25.9414ZM104.409 25.9414H106.409V23.9414H104.409V25.9414ZM104.409 28.0039V30.0039H106.409V28.0039H104.409ZM89.9713 28.0039H87.9713V30.0039H89.9713V28.0039ZM89.9713 9.37891H94.0963V5.37891H89.9713V9.37891ZM92.0963 7.37891V25.9414H96.0963V7.37891H92.0963ZM94.0963 27.9414H104.409V23.9414H94.0963V27.9414ZM102.409 25.9414V28.0039H106.409V25.9414H102.409ZM104.409 26.0039H89.9713V30.0039H104.409V26.0039ZM91.9713 28.0039V7.37891H87.9713V28.0039H91.9713ZM110.101 7.37891V5.37891H108.101V7.37891H110.101ZM114.226 7.37891H116.226V5.37891H114.226V7.37891ZM114.226 23.8789H112.226V25.8789H114.226V23.8789ZM116.289 23.8789H118.289V21.8789H116.289V23.8789ZM116.289 25.9414H114.289V27.9414H116.289V25.9414ZM120.414 25.9414V27.9414H122.414V25.9414H120.414ZM120.414 23.8789V21.8789H118.414V23.8789H120.414ZM122.476 23.8789V25.8789H124.476V23.8789H122.476ZM122.476 7.37891V5.37891H120.476V7.37891H122.476ZM126.601 7.37891H128.601V5.37891H126.601V7.37891ZM126.601 23.8789V25.8789H128.601V23.8789H126.601ZM124.539 23.8789V21.8789H122.539V23.8789H124.539ZM124.539 25.9414V27.9414H126.539V25.9414H124.539ZM122.476 25.9414V23.9414H120.476V25.9414H122.476ZM122.476 28.0039V30.0039H124.476V28.0039H122.476ZM114.226 28.0039H112.226V30.0039H114.226V28.0039ZM114.226 25.9414H116.226V23.9414H114.226V25.9414ZM112.164 25.9414H110.164V27.9414H112.164V25.9414ZM112.164 23.8789H114.164V21.8789H112.164V23.8789ZM110.101 23.8789H108.101V25.8789H110.101V23.8789ZM110.101 9.37891H114.226V5.37891H110.101V9.37891ZM112.226 7.37891V23.8789H116.226V7.37891H112.226ZM114.226 25.8789H116.289V21.8789H114.226V25.8789ZM114.289 23.8789V25.9414H118.289V23.8789H114.289ZM116.289 27.9414H120.414V23.9414H116.289V27.9414ZM122.414 25.9414V23.8789H118.414V25.9414H122.414ZM120.414 25.8789H122.476V21.8789H120.414V25.8789ZM124.476 23.8789V7.37891H120.476V23.8789H124.476ZM122.476 9.37891H126.601V5.37891H122.476V9.37891ZM124.601 7.37891V23.8789H128.601V7.37891H124.601ZM126.601 21.8789H124.539V25.8789H126.601V21.8789ZM122.539 23.8789V25.9414H126.539V23.8789H122.539ZM124.539 23.9414H122.476V27.9414H124.539V23.9414ZM120.476 25.9414V28.0039H124.476V25.9414H120.476ZM122.476 26.0039H114.226V30.0039H122.476V26.0039ZM116.226 28.0039V25.9414H112.226V28.0039H116.226ZM114.226 23.9414H112.164V27.9414H114.226V23.9414ZM114.164 25.9414V23.8789H110.164V25.9414H114.164ZM112.164 21.8789H110.101V25.8789H112.164V21.8789ZM112.101 23.8789V7.37891H108.101V23.8789H112.101ZM134.356 7.37891V5.37891H132.356V7.37891H134.356ZM144.669 7.37891H146.669V5.37891H144.669V7.37891ZM144.669 9.44141H142.669V11.4414H144.669V9.44141ZM146.731 9.44141H148.731V7.44141H146.731V9.44141ZM146.731 15.6289V17.6289H148.731V15.6289H146.731ZM144.669 15.6289V13.6289H142.669V15.6289H144.669ZM144.669 17.6914V19.6914H146.669V17.6914H144.669ZM142.606 17.6914V15.6914H140.606V17.6914H142.606ZM142.606 19.7539V21.7539H144.606V19.7539H142.606ZM136.419 19.7539V17.7539H134.419V19.7539H136.419ZM136.419 28.0039V30.0039H138.419V28.0039H136.419ZM132.294 28.0039H130.294V30.0039H132.294V28.0039ZM132.294 9.44141V7.44141H130.294V9.44141H132.294ZM134.356 9.44141V11.4414H136.356V9.44141H134.356ZM136.419 9.44141V7.44141H134.419V9.44141H136.419ZM136.419 17.6914H134.419V19.6914H136.419V17.6914ZM140.544 17.6914V19.6914H142.544V17.6914H140.544ZM140.544 15.6289V13.6289H138.544V15.6289H140.544ZM142.606 15.6289V17.6289H144.606V15.6289H142.606ZM142.606 9.44141H144.606V7.44141H142.606V9.44141ZM134.356 9.37891H144.669V5.37891H134.356V9.37891ZM142.669 7.37891V9.44141H146.669V7.37891H142.669ZM144.669 11.4414H146.731V7.44141H144.669V11.4414ZM144.731 9.44141V15.6289H148.731V9.44141H144.731ZM146.731 13.6289H144.669V17.6289H146.731V13.6289ZM142.669 15.6289V17.6914H146.669V15.6289H142.669ZM144.669 15.6914H142.606V19.6914H144.669V15.6914ZM140.606 17.6914V19.7539H144.606V17.6914H140.606ZM142.606 17.7539H136.419V21.7539H142.606V17.7539ZM134.419 19.7539V28.0039H138.419V19.7539H134.419ZM136.419 26.0039H132.294V30.0039H136.419V26.0039ZM134.294 28.0039V9.44141H130.294V28.0039H134.294ZM132.294 11.4414H134.356V7.44141H132.294V11.4414ZM136.356 9.44141V7.37891H132.356V9.44141H136.356ZM134.419 9.44141V17.6914H138.419V9.44141H134.419ZM136.419 19.6914H140.544V15.6914H136.419V19.6914ZM142.544 17.6914V15.6289H138.544V17.6914H142.544ZM140.544 17.6289H142.606V13.6289H140.544V17.6289ZM144.606 15.6289V9.44141H140.606V15.6289H144.606ZM142.606 7.44141H136.419V11.4414H142.606V7.44141ZM152.424 5.31641V3.31641H150.424V5.31641H152.424ZM156.549 5.31641H158.549V3.31641H156.549V5.31641ZM156.549 21.8164V23.8164H158.549V21.8164H156.549ZM152.424 21.8164H150.424V23.8164H152.424V21.8164ZM152.424 23.8789V21.8789H150.424V23.8789H152.424ZM156.549 23.8789H158.549V21.8789H156.549V23.8789ZM156.549 28.0039V30.0039H158.549V28.0039H156.549ZM152.424 28.0039H150.424V30.0039H152.424V28.0039ZM152.424 7.31641H156.549V3.31641H152.424V7.31641ZM154.549 5.31641V21.8164H158.549V5.31641H154.549ZM156.549 19.8164H152.424V23.8164H156.549V19.8164ZM154.424 21.8164V5.31641H150.424V21.8164H154.424ZM152.424 25.8789H156.549V21.8789H152.424V25.8789ZM154.549 23.8789V28.0039H158.549V23.8789H154.549ZM156.549 26.0039H152.424V30.0039H156.549V26.0039ZM154.424 28.0039V23.8789H150.424V28.0039H154.424Z" fill="white" mask="url(#path-1-outside-1_77_37)"/>
<mask id="path-3-outside-2_77_37" maskUnits="userSpaceOnUse" x="92" y="32.9961" width="67" height="21" fill="black">
<rect fill="white" x="92" y="32.9961" width="67" height="21"/>
<path d="M97.96 35.7461H106.085V37.3711H99.585V38.9961H97.96V48.7461H99.585V50.3711H106.085V51.9961H97.96V50.3711H96.335V48.7461H94.71V38.9961H96.335V37.3711H97.96V35.7461ZM106.085 37.3711H107.71V38.9961H106.085V37.3711ZM106.085 48.7461H107.71V50.3711H106.085V48.7461ZM115.445 35.7461H121.945V37.3711H123.57V38.9961H125.195V48.7461H123.57V50.3711H121.945V51.9961H115.445V50.3711H113.82V48.7461H112.195V38.9961H113.82V37.3711H115.445V35.7461ZM117.07 37.3711V38.9961H115.445V48.7461H117.07V50.3711H120.32V48.7461H121.945V38.9961H120.32V37.3711H117.07ZM129.68 35.7461H136.18V37.3711H132.93V50.3711H136.18V51.9961H129.68V35.7461ZM136.18 37.3711H139.43V38.9961H141.055V40.6211H142.68V47.1211H141.055V48.7461H139.43V50.3711H136.18V48.7461H137.805V47.1211H139.43V40.6211H137.805V38.9961H136.18V37.3711ZM147.165 35.7461H156.915V37.3711H150.415V42.2461H155.29V43.8711H150.415V50.3711H156.915V51.9961H147.165V35.7461Z"/>
</mask>
<path d="M97.96 35.7461H106.085V37.3711H99.585V38.9961H97.96V48.7461H99.585V50.3711H106.085V51.9961H97.96V50.3711H96.335V48.7461H94.71V38.9961H96.335V37.3711H97.96V35.7461ZM106.085 37.3711H107.71V38.9961H106.085V37.3711ZM106.085 48.7461H107.71V50.3711H106.085V48.7461ZM115.445 35.7461H121.945V37.3711H123.57V38.9961H125.195V48.7461H123.57V50.3711H121.945V51.9961H115.445V50.3711H113.82V48.7461H112.195V38.9961H113.82V37.3711H115.445V35.7461ZM117.07 37.3711V38.9961H115.445V48.7461H117.07V50.3711H120.32V48.7461H121.945V38.9961H120.32V37.3711H117.07ZM129.68 35.7461H136.18V37.3711H132.93V50.3711H136.18V51.9961H129.68V35.7461ZM136.18 37.3711H139.43V38.9961H141.055V40.6211H142.68V47.1211H141.055V48.7461H139.43V50.3711H136.18V48.7461H137.805V47.1211H139.43V40.6211H137.805V38.9961H136.18V37.3711ZM147.165 35.7461H156.915V37.3711H150.415V42.2461H155.29V43.8711H150.415V50.3711H156.915V51.9961H147.165V35.7461Z" fill="url(#paint1_linear_77_37)"/>
<path d="M97.96 35.7461V33.7461H95.96V35.7461H97.96ZM106.085 35.7461H108.085V33.7461H106.085V35.7461ZM106.085 37.3711V39.3711H108.085V37.3711H106.085ZM99.585 37.3711V35.3711H97.585V37.3711H99.585ZM99.585 38.9961V40.9961H101.585V38.9961H99.585ZM97.96 38.9961V36.9961H95.96V38.9961H97.96ZM97.96 48.7461H95.96V50.7461H97.96V48.7461ZM99.585 48.7461H101.585V46.7461H99.585V48.7461ZM99.585 50.3711H97.585V52.3711H99.585V50.3711ZM106.085 50.3711H108.085V48.3711H106.085V50.3711ZM106.085 51.9961V53.9961H108.085V51.9961H106.085ZM97.96 51.9961H95.96V53.9961H97.96V51.9961ZM97.96 50.3711H99.96V48.3711H97.96V50.3711ZM96.335 50.3711H94.335V52.3711H96.335V50.3711ZM96.335 48.7461H98.335V46.7461H96.335V48.7461ZM94.71 48.7461H92.71V50.7461H94.71V48.7461ZM94.71 38.9961V36.9961H92.71V38.9961H94.71ZM96.335 38.9961V40.9961H98.335V38.9961H96.335ZM96.335 37.3711V35.3711H94.335V37.3711H96.335ZM97.96 37.3711V39.3711H99.96V37.3711H97.96ZM106.085 37.3711V35.3711H104.085V37.3711H106.085ZM107.71 37.3711H109.71V35.3711H107.71V37.3711ZM107.71 38.9961V40.9961H109.71V38.9961H107.71ZM106.085 38.9961H104.085V40.9961H106.085V38.9961ZM106.085 48.7461V46.7461H104.085V48.7461H106.085ZM107.71 48.7461H109.71V46.7461H107.71V48.7461ZM107.71 50.3711V52.3711H109.71V50.3711H107.71ZM106.085 50.3711H104.085V52.3711H106.085V50.3711ZM97.96 37.7461H106.085V33.7461H97.96V37.7461ZM104.085 35.7461V37.3711H108.085V35.7461H104.085ZM106.085 35.3711H99.585V39.3711H106.085V35.3711ZM97.585 37.3711V38.9961H101.585V37.3711H97.585ZM99.585 36.9961H97.96V40.9961H99.585V36.9961ZM95.96 38.9961V48.7461H99.96V38.9961H95.96ZM97.96 50.7461H99.585V46.7461H97.96V50.7461ZM97.585 48.7461V50.3711H101.585V48.7461H97.585ZM99.585 52.3711H106.085V48.3711H99.585V52.3711ZM104.085 50.3711V51.9961H108.085V50.3711H104.085ZM106.085 49.9961H97.96V53.9961H106.085V49.9961ZM99.96 51.9961V50.3711H95.96V51.9961H99.96ZM97.96 48.3711H96.335V52.3711H97.96V48.3711ZM98.335 50.3711V48.7461H94.335V50.3711H98.335ZM96.335 46.7461H94.71V50.7461H96.335V46.7461ZM96.71 48.7461V38.9961H92.71V48.7461H96.71ZM94.71 40.9961H96.335V36.9961H94.71V40.9961ZM98.335 38.9961V37.3711H94.335V38.9961H98.335ZM96.335 39.3711H97.96V35.3711H96.335V39.3711ZM99.96 37.3711V35.7461H95.96V37.3711H99.96ZM106.085 39.3711H107.71V35.3711H106.085V39.3711ZM105.71 37.3711V38.9961H109.71V37.3711H105.71ZM107.71 36.9961H106.085V40.9961H107.71V36.9961ZM108.085 38.9961V37.3711H104.085V38.9961H108.085ZM106.085 50.7461H107.71V46.7461H106.085V50.7461ZM105.71 48.7461V50.3711H109.71V48.7461H105.71ZM107.71 48.3711H106.085V52.3711H107.71V48.3711ZM108.085 50.3711V48.7461H104.085V50.3711H108.085ZM115.445 35.7461V33.7461H113.445V35.7461H115.445ZM121.945 35.7461H123.945V33.7461H121.945V35.7461ZM121.945 37.3711H119.945V39.3711H121.945V37.3711ZM123.57 37.3711H125.57V35.3711H123.57V37.3711ZM123.57 38.9961H121.57V40.9961H123.57V38.9961ZM125.195 38.9961H127.195V36.9961H125.195V38.9961ZM125.195 48.7461V50.7461H127.195V48.7461H125.195ZM123.57 48.7461V46.7461H121.57V48.7461H123.57ZM123.57 50.3711V52.3711H125.57V50.3711H123.57ZM121.945 50.3711V48.3711H119.945V50.3711H121.945ZM121.945 51.9961V53.9961H123.945V51.9961H121.945ZM115.445 51.9961H113.445V53.9961H115.445V51.9961ZM115.445 50.3711H117.445V48.3711H115.445V50.3711ZM113.82 50.3711H111.82V52.3711H113.82V50.3711ZM113.82 48.7461H115.82V46.7461H113.82V48.7461ZM112.195 48.7461H110.195V50.7461H112.195V48.7461ZM112.195 38.9961V36.9961H110.195V38.9961H112.195ZM113.82 38.9961V40.9961H115.82V38.9961H113.82ZM113.82 37.3711V35.3711H111.82V37.3711H113.82ZM115.445 37.3711V39.3711H117.445V37.3711H115.445ZM117.07 37.3711V35.3711H115.07V37.3711H117.07ZM117.07 38.9961V40.9961H119.07V38.9961H117.07ZM115.445 38.9961V36.9961H113.445V38.9961H115.445ZM115.445 48.7461H113.445V50.7461H115.445V48.7461ZM117.07 48.7461H119.07V46.7461H117.07V48.7461ZM117.07 50.3711H115.07V52.3711H117.07V50.3711ZM120.32 50.3711V52.3711H122.32V50.3711H120.32ZM120.32 48.7461V46.7461H118.32V48.7461H120.32ZM121.945 48.7461V50.7461H123.945V48.7461H121.945ZM121.945 38.9961H123.945V36.9961H121.945V38.9961ZM120.32 38.9961H118.32V40.9961H120.32V38.9961ZM120.32 37.3711H122.32V35.3711H120.32V37.3711ZM115.445 37.7461H121.945V33.7461H115.445V37.7461ZM119.945 35.7461V37.3711H123.945V35.7461H119.945ZM121.945 39.3711H123.57V35.3711H121.945V39.3711ZM121.57 37.3711V38.9961H125.57V37.3711H121.57ZM123.57 40.9961H125.195V36.9961H123.57V40.9961ZM123.195 38.9961V48.7461H127.195V38.9961H123.195ZM125.195 46.7461H123.57V50.7461H125.195V46.7461ZM121.57 48.7461V50.3711H125.57V48.7461H121.57ZM123.57 48.3711H121.945V52.3711H123.57V48.3711ZM119.945 50.3711V51.9961H123.945V50.3711H119.945ZM121.945 49.9961H115.445V53.9961H121.945V49.9961ZM117.445 51.9961V50.3711H113.445V51.9961H117.445ZM115.445 48.3711H113.82V52.3711H115.445V48.3711ZM115.82 50.3711V48.7461H111.82V50.3711H115.82ZM113.82 46.7461H112.195V50.7461H113.82V46.7461ZM114.195 48.7461V38.9961H110.195V48.7461H114.195ZM112.195 40.9961H113.82V36.9961H112.195V40.9961ZM115.82 38.9961V37.3711H111.82V38.9961H115.82ZM113.82 39.3711H115.445V35.3711H113.82V39.3711ZM117.445 37.3711V35.7461H113.445V37.3711H117.445ZM115.07 37.3711V38.9961H119.07V37.3711H115.07ZM117.07 36.9961H115.445V40.9961H117.07V36.9961ZM113.445 38.9961V48.7461H117.445V38.9961H113.445ZM115.445 50.7461H117.07V46.7461H115.445V50.7461ZM115.07 48.7461V50.3711H119.07V48.7461H115.07ZM117.07 52.3711H120.32V48.3711H117.07V52.3711ZM122.32 50.3711V48.7461H118.32V50.3711H122.32ZM120.32 50.7461H121.945V46.7461H120.32V50.7461ZM123.945 48.7461V38.9961H119.945V48.7461H123.945ZM121.945 36.9961H120.32V40.9961H121.945V36.9961ZM122.32 38.9961V37.3711H118.32V38.9961H122.32ZM120.32 35.3711H117.07V39.3711H120.32V35.3711ZM129.68 35.7461V33.7461H127.68V35.7461H129.68ZM136.18 35.7461H138.18V33.7461H136.18V35.7461ZM136.18 37.3711V39.3711H138.18V37.3711H136.18ZM132.93 37.3711V35.3711H130.93V37.3711H132.93ZM132.93 50.3711H130.93V52.3711H132.93V50.3711ZM136.18 50.3711H138.18V48.3711H136.18V50.3711ZM136.18 51.9961V53.9961H138.18V51.9961H136.18ZM129.68 51.9961H127.68V53.9961H129.68V51.9961ZM136.18 37.3711V35.3711H134.18V37.3711H136.18ZM139.43 37.3711H141.43V35.3711H139.43V37.3711ZM139.43 38.9961H137.43V40.9961H139.43V38.9961ZM141.055 38.9961H143.055V36.9961H141.055V38.9961ZM141.055 40.6211H139.055V42.6211H141.055V40.6211ZM142.68 40.6211H144.68V38.6211H142.68V40.6211ZM142.68 47.1211V49.1211H144.68V47.1211H142.68ZM141.055 47.1211V45.1211H139.055V47.1211H141.055ZM141.055 48.7461V50.7461H143.055V48.7461H141.055ZM139.43 48.7461V46.7461H137.43V48.7461H139.43ZM139.43 50.3711V52.3711H141.43V50.3711H139.43ZM136.18 50.3711H134.18V52.3711H136.18V50.3711ZM136.18 48.7461V46.7461H134.18V48.7461H136.18ZM137.805 48.7461V50.7461H139.805V48.7461H137.805ZM137.805 47.1211V45.1211H135.805V47.1211H137.805ZM139.43 47.1211V49.1211H141.43V47.1211H139.43ZM139.43 40.6211H141.43V38.6211H139.43V40.6211ZM137.805 40.6211H135.805V42.6211H137.805V40.6211ZM137.805 38.9961H139.805V36.9961H137.805V38.9961ZM136.18 38.9961H134.18V40.9961H136.18V38.9961ZM129.68 37.7461H136.18V33.7461H129.68V37.7461ZM134.18 35.7461V37.3711H138.18V35.7461H134.18ZM136.18 35.3711H132.93V39.3711H136.18V35.3711ZM130.93 37.3711V50.3711H134.93V37.3711H130.93ZM132.93 52.3711H136.18V48.3711H132.93V52.3711ZM134.18 50.3711V51.9961H138.18V50.3711H134.18ZM136.18 49.9961H129.68V53.9961H136.18V49.9961ZM131.68 51.9961V35.7461H127.68V51.9961H131.68ZM136.18 39.3711H139.43V35.3711H136.18V39.3711ZM137.43 37.3711V38.9961H141.43V37.3711H137.43ZM139.43 40.9961H141.055V36.9961H139.43V40.9961ZM139.055 38.9961V40.6211H143.055V38.9961H139.055ZM141.055 42.6211H142.68V38.6211H141.055V42.6211ZM140.68 40.6211V47.1211H144.68V40.6211H140.68ZM142.68 45.1211H141.055V49.1211H142.68V45.1211ZM139.055 47.1211V48.7461H143.055V47.1211H139.055ZM141.055 46.7461H139.43V50.7461H141.055V46.7461ZM137.43 48.7461V50.3711H141.43V48.7461H137.43ZM139.43 48.3711H136.18V52.3711H139.43V48.3711ZM138.18 50.3711V48.7461H134.18V50.3711H138.18ZM136.18 50.7461H137.805V46.7461H136.18V50.7461ZM139.805 48.7461V47.1211H135.805V48.7461H139.805ZM137.805 49.1211H139.43V45.1211H137.805V49.1211ZM141.43 47.1211V40.6211H137.43V47.1211H141.43ZM139.43 38.6211H137.805V42.6211H139.43V38.6211ZM139.805 40.6211V38.9961H135.805V40.6211H139.805ZM137.805 36.9961H136.18V40.9961H137.805V36.9961ZM138.18 38.9961V37.3711H134.18V38.9961H138.18ZM147.165 35.7461V33.7461H145.165V35.7461H147.165ZM156.915 35.7461H158.915V33.7461H156.915V35.7461ZM156.915 37.3711V39.3711H158.915V37.3711H156.915ZM150.415 37.3711V35.3711H148.415V37.3711H150.415ZM150.415 42.2461H148.415V44.2461H150.415V42.2461ZM155.29 42.2461H157.29V40.2461H155.29V42.2461ZM155.29 43.8711V45.8711H157.29V43.8711H155.29ZM150.415 43.8711V41.8711H148.415V43.8711H150.415ZM150.415 50.3711H148.415V52.3711H150.415V50.3711ZM156.915 50.3711H158.915V48.3711H156.915V50.3711ZM156.915 51.9961V53.9961H158.915V51.9961H156.915ZM147.165 51.9961H145.165V53.9961H147.165V51.9961ZM147.165 37.7461H156.915V33.7461H147.165V37.7461ZM154.915 35.7461V37.3711H158.915V35.7461H154.915ZM156.915 35.3711H150.415V39.3711H156.915V35.3711ZM148.415 37.3711V42.2461H152.415V37.3711H148.415ZM150.415 44.2461H155.29V40.2461H150.415V44.2461ZM153.29 42.2461V43.8711H157.29V42.2461H153.29ZM155.29 41.8711H150.415V45.8711H155.29V41.8711ZM148.415 43.8711V50.3711H152.415V43.8711H148.415ZM150.415 52.3711H156.915V48.3711H150.415V52.3711ZM154.915 50.3711V51.9961H158.915V50.3711H154.915ZM156.915 49.9961H147.165V53.9961H156.915V49.9961ZM149.165 51.9961V35.7461H145.165V51.9961H149.165Z" fill="white" mask="url(#path-3-outside-2_77_37)"/>
<defs>
<linearGradient id="paint0_linear_77_37" x1="83" y1="0.00390625" x2="83" y2="24.0039" gradientUnits="userSpaceOnUse">
<stop stop-color="#21EF80"/>
<stop offset="1" stop-color="#50A0FF"/>
</linearGradient>
<linearGradient id="paint1_linear_77_37" x1="125" y1="29.9961" x2="125" y2="59.9961" gradientUnits="userSpaceOnUse">
<stop stop-color="#21EF80"/>
<stop offset="1" stop-color="#50A0FF"/>
</linearGradient>
</defs>
</svg>
