<svg width="30" height="30" viewBox="0 0 30 30" fill="none" xmlns="http://www.w3.org/2000/svg">
<path d="M28.6364 1.36363V0H1.36364V1.36363H0V28.6364H1.36364V30H28.6364V28.6364H30V1.36363H28.6364Z" fill="#343178"/>
<path d="M24.0909 12.2727V10.4545H23.1818V8.63636H22.2727V7.72727H21.3636V6.81818H19.5455V5.90909H17.7273V5H12.2727V5.90909H10.4545V6.81818H8.63636V7.72727H7.72727V8.63636H6.81818V10.4545H5.90909V12.2727H5V17.7273H5.90909V19.5455H6.81818V21.3636H7.72727V22.2727H8.63636V23.1818H10.4545V24.0909H12.2727V25H17.7273V24.0909H19.5455V23.1818H21.3636V22.2727H22.2727V21.3636H23.1818V19.5455H24.0909V17.7273H25V12.2727H24.0909ZM23.1818 17.7273H22.2727V19.5455H21.3636V20.4545H20.4545V21.3636H19.5455V22.2727H17.7273V23.1818H12.2727V22.2727H10.4545V21.3636H9.54545V20.4545H8.63636V19.5455H7.72727V17.7273H6.81818V12.2727H7.72727V10.4545H8.63636V9.54545H9.54545V8.63636H10.4545V7.72727H12.2727V6.81818H17.7273V7.72727H19.5455V8.63636H20.4545V9.54545H21.3636V10.4545H22.2727V12.2727H23.1818V17.7273Z" fill="#21EF80"/>
</svg>
