<svg width="90" height="90" viewBox="0 0 90 90" fill="none" xmlns="http://www.w3.org/2000/svg">
<g clip-path="url(#clip0_303_837)">
<path d="M5.84545 83.7058H6.93784V84.3754V87.054H9.41037H80.7088H83.1814V84.3754V83.7058H84.2737H86.7463V81.0272V14.0629V11.3843H84.2737H83.1814V10.7147V8.03613H80.7088H9.41037H6.93784V10.7147V11.3843H5.84545H3.37292V14.0629V81.0272V83.7058H5.84545Z" fill="#BF0082" stroke="#BF0082" stroke-width="5"/>
<path d="M80.7088 8.70564V5.35742H9.41038V8.70564H5.84546V75.6699H9.41038V79.0181H80.7088V75.6699H84.2737V8.70564H80.7088Z" fill="#21EF80"/>
<path d="M5.84545 78.3484H6.93784V79.018V81.6966H9.41037H80.7088H83.1814V79.018V78.3484H84.2737H86.7463V75.6698V8.7055V6.02693H84.2737H83.1814V5.35728V2.67871H80.7088H9.41037H6.93784V5.35728V6.02693H5.84545H3.37292V8.7055V75.6698V78.3484H5.84545Z" fill="#EB05A2" stroke="#BF0082" stroke-width="5"/>
<path d="M33.7185 31.0718V30.5361H33.224H28.6609H28.1664V31.0718V32.679H26.3794H25.8849V33.2147V34.8218H24.0978H23.6033V35.3576V36.9647H21.8163H21.3218V37.5004V39.1076H19.5347H19.0402V39.6433V43.929V44.4647H19.5347H21.3218V46.0718V46.6076H21.8163H23.6033V48.2147V48.7504H24.0978H25.8849V50.3576V50.8933H26.3794H28.1664V52.5004V53.0361H28.6609H33.224H33.7185V52.5004V50.3576V49.8218H33.224H31.437V48.2147V47.679H30.9425H29.1554V46.0718V45.5361H28.6609H26.8739V43.929V43.3933H26.3794H24.5923V40.179H26.3794H26.8739V39.6433V38.0361H28.6609H29.1554V37.5004V35.8933H30.9425H31.437V35.3576V33.7504H33.224H33.7185V33.2147V31.0718Z" fill="#9F006C" stroke="#9F006C"/>
<path d="M51.4765 21.9639H50.982V22.4996V24.1067H49.1949H48.7004V24.6424V30.5353H46.9134H46.4189V31.071V36.9639H44.6318H44.1373V37.4996V41.2496H42.3503H41.8558V41.7853V47.6782H40.0687H39.5742V48.2139V54.1067H37.7872H37.2927V54.6424V61.071V61.6067H37.7872H40.0687H40.5632V61.071V59.4639H42.3503H42.8448V58.9282V53.0353H44.6318H45.1263V52.4996V46.6067H46.9134H47.4079V46.071V42.321H49.1949H49.6894V41.7853V35.8924H51.4765H51.971V35.3567V29.4639H53.758H54.2525V28.9282V22.4996V21.9639H53.758H51.4765Z" fill="#9F006C" stroke="#9F006C"/>
<path d="M70.2234 39.6433V39.1076H69.7288H67.9418V37.5004V36.9647H67.4473H65.6603V35.3576V34.8218H65.1657H63.3787V33.2147V32.679H62.8842H61.0972V31.0718V30.5361H60.6026H56.0395H55.545V31.0718V33.2147V33.7504H56.0395H57.8266V35.3576V35.8933H58.3211H60.1081V37.5004V38.0361H60.6026H62.3897V39.6433V40.179H62.8842H64.6712V43.3933H62.8842H62.3897V43.929V45.5361H60.6026H60.1081V46.0718V47.679H58.3211H57.8266V48.2147V49.8218H56.0395H55.545V50.3576V52.5004V53.0361H56.0395H60.6026H61.0972V52.5004V50.8933H62.8842H63.3787V50.3576V48.7504H65.1657H65.6603V48.2147V46.6076H67.4473H67.9418V46.0718V44.4647H69.7288H70.2234V43.929V39.6433Z" fill="#9F006C" stroke="#9F006C"/>
</g>
<defs>
<clipPath id="clip0_303_837">
<rect width="90" height="90" fill="white"/>
</clipPath>
</defs>
</svg>
