<svg width="90" height="90" viewBox="0 0 90 90" fill="none" xmlns="http://www.w3.org/2000/svg">
<g clip-path="url(#clip0_303_844)">
<path d="M5 83.7058H6.10453V84.3754V87.054H8.60453H80.6952H83.1952V84.3754V83.7058H84.2997H86.7997V81.0272V14.0629V11.3843H84.2997H83.1952V10.7147V8.03613H80.6952H8.60453H6.10453V10.7147V11.3843H5H2.5V14.0629V81.0272V83.7058H5Z" fill="#423E90" stroke="#423E90" stroke-width="5"/>
<path d="M5 78.3484H6.10453V79.018V81.6966H8.60453H80.6952H83.1952V79.018V78.3484H84.2997H86.7997V75.6698V8.7055V6.02693H84.2997H83.1952V5.35728V2.67871H80.6952H8.60453H6.10453V5.35728V6.02693H5H2.5V8.7055V75.6698V78.3484H5Z" fill="#343178" stroke="#423E90" stroke-width="5"/>
<path d="M33.1828 31.0718V30.5361H32.6828H28.069H27.569V31.0718V32.679H25.7621H25.2621V33.2147V34.8218H23.4552H22.9552V35.3576V36.9647H21.1483H20.6483V37.5004V39.1076H18.8414H18.3414V39.6433V43.929V44.4647H18.8414H20.6483V46.0718V46.6076H21.1483H22.9552V48.2147V48.7504H23.4552H25.2621V50.3576V50.8933H25.7621H27.569V52.5004V53.0361H28.069H32.6828H33.1828V52.5004V50.3576V49.8218H32.6828H30.8759V48.2147V47.679H30.3759H28.569V46.0718V45.5361H28.069H26.2621V43.929V43.3933H25.7621H23.9552V40.179H25.7621H26.2621V39.6433V38.0361H28.069H28.569V37.5004V35.8933H30.3759H30.8759V35.3576V33.7504H32.6828H33.1828V33.2147V31.0718Z" fill="#746ED5" stroke="#746ED5"/>
<path d="M51.138 21.9639H50.638V22.4996V24.1067H48.8311H48.3311V24.6424V30.5353H46.5242H46.0242V31.071V36.9639H44.2173H43.7173V37.4996V41.2496H41.9104H41.4104V41.7853V47.6782H39.6035H39.1035V48.2139V54.1067H37.2966H36.7966V54.6424V61.071V61.6067H37.2966H39.6035H40.1035V61.071V59.4639H41.9104H42.4104V58.9282V53.0353H44.2173H44.7173V52.4996V46.6067H46.5242H47.0242V46.071V42.321H48.8311H49.3311V41.7853V35.8924H51.138H51.638V35.3567V29.4639H53.4449H53.9449V28.9282V22.4996V21.9639H53.4449H51.138Z" fill="#746ED5" stroke="#746ED5"/>
<path d="M70.0932 39.6433V39.1076H69.5932H67.7863V37.5004V36.9647H67.2863H65.4794V35.3576V34.8218H64.9794H63.1725V33.2147V32.679H62.6725H60.8656V31.0718V30.5361H60.3656H55.7518H55.2518V31.0718V33.2147V33.7504H55.7518H57.5587V35.3576V35.8933H58.0587H59.8656V37.5004V38.0361H60.3656H62.1725V39.6433V40.179H62.6725H64.4794V43.3933H62.6725H62.1725V43.929V45.5361H60.3656H59.8656V46.0718V47.679H58.0587H57.5587V48.2147V49.8218H55.7518H55.2518V50.3576V52.5004V53.0361H55.7518H60.3656H60.8656V52.5004V50.8933H62.6725H63.1725V50.3576V48.7504H64.9794H65.4794V48.2147V46.6076H67.2863H67.7863V46.0718V44.4647H69.5932H70.0932V43.929V39.6433Z" fill="#746ED5" stroke="#746ED5"/>
</g>
<defs>
<clipPath id="clip0_303_844">
<rect width="90" height="90" fill="white"/>
</clipPath>
</defs>
</svg>
