<svg width="30" height="30" viewBox="0 0 30 30" fill="none" xmlns="http://www.w3.org/2000/svg">
<path d="M28.6364 1.36363V0H1.36364V1.36363H0V28.6364H1.36364V30H28.6364V28.6364H30V1.36363H28.6364Z" fill="#343178"/>
<path d="M13.7977 5.09454L12.9179 5.09454L12.9179 6.18943L12.0381 6.18943L12.0381 8.37921L11.1584 8.37921L11.1584 10.569L10.2786 10.569L10.2786 11.6639L9.39883 11.6639L9.39883 13.8537L8.51906 13.8537L8.51906 16.0434L7.6393 16.0434L7.6393 17.1383L6.75953 17.1383L6.75953 19.3281L5.87977 19.3281L5.87977 21.5179L5 21.5179L5 24.8026L5.87977 24.8026L5.87977 25.8975L23.4751 25.8975L23.4751 24.8026L24.3548 24.8026L24.3548 21.5179L23.4751 21.5179L23.4751 19.3281L22.5953 19.3281L22.5953 17.1383L21.7155 17.1383L21.7155 16.0434L20.8358 16.0434L20.8358 13.8537L19.956 13.8537L19.956 11.6639L19.0762 11.6639L19.0762 10.569L18.1965 10.569L18.1965 8.37921L17.3167 8.37921L17.3167 6.18943L16.437 6.18943L16.437 5.09454L15.5572 5.09454L15.5572 3.99965L13.7977 3.99965L13.7977 5.09454ZM15.5572 7.28432L15.5572 9.4741L16.437 9.4741L16.437 11.6639L17.3167 11.6639L17.3167 12.7588L18.1965 12.7588L18.1965 14.9486L19.0762 14.9486L19.0762 17.1383L19.956 17.1383L19.956 18.2332L20.8358 18.2332L20.8358 20.423L21.7155 20.423L21.7155 22.6128L22.5953 22.6128L22.5953 23.7077L6.75953 23.7077L6.75953 22.6128L7.6393 22.6128L7.6393 20.423L8.51906 20.423L8.51906 18.2332L9.39883 18.2332L9.39883 17.1383L10.2786 17.1383L10.2786 14.9486L11.1584 14.9486L11.1584 12.7588L12.0381 12.7588L12.0381 11.6639L12.9179 11.6639L12.9179 9.4741L13.7977 9.4741L13.7977 7.28432L15.5572 7.28432Z" fill="#EB05A2"/>
</svg>
