<svg width="30" height="30" viewBox="0 0 30 30" fill="none" xmlns="http://www.w3.org/2000/svg">
<path d="M28.6364 1.36363V0H1.36364V1.36363H0V28.6364H1.36364V30H28.6364V28.6364H30V1.36363H28.6364Z" fill="#343178"/>
<path opacity="0.986" fill-rule="evenodd" clip-rule="evenodd" d="M6.40625 5C7.05729 5 7.70833 5 8.35938 5C8.35938 5.46875 8.35938 5.9375 8.35938 6.40625C8.82813 6.40625 9.29688 6.40625 9.76563 6.40625C9.76563 6.88802 9.76563 7.36979 9.76563 7.85156C10.2474 7.85156 10.7292 7.85156 11.2109 7.85156C11.2109 8.32031 11.2109 8.78906 11.2109 9.25781C11.6927 9.25781 12.1745 9.25781 12.6563 9.25781C12.6563 9.73957 12.6563 10.2214 12.6563 10.7031C13.125 10.7031 13.5938 10.7031 14.0625 10.7031C14.0625 11.1719 14.0625 11.6406 14.0625 12.1094C14.6875 12.1094 15.3125 12.1094 15.9375 12.1094C15.9375 11.6406 15.9375 11.1719 15.9375 10.7031C16.4063 10.7031 16.875 10.7031 17.3438 10.7031C17.3438 10.2214 17.3438 9.73957 17.3438 9.25781C17.8255 9.25781 18.3073 9.25781 18.7891 9.25781C18.7891 8.78906 18.7891 8.32031 18.7891 7.85156C19.2708 7.85156 19.7526 7.85156 20.2344 7.85156C20.2344 7.36979 20.2344 6.88802 20.2344 6.40625C20.7031 6.40625 21.1719 6.40625 21.6406 6.40625C21.6406 5.9375 21.6406 5.46875 21.6406 5C22.2917 5 22.9427 5 23.5938 5C23.5938 5.46875 23.5938 5.9375 23.5938 6.40625C24.0625 6.40625 24.5313 6.40625 25 6.40625C25 7.05729 25 7.70833 25 8.35938C24.5313 8.35938 24.0625 8.35938 23.5938 8.35938C23.5938 8.82813 23.5938 9.29688 23.5938 9.76563C23.112 9.76563 22.6302 9.76563 22.1484 9.76563C22.1484 10.2474 22.1484 10.7292 22.1484 11.2109C21.6797 11.2109 21.2109 11.2109 20.7422 11.2109C20.7422 11.6927 20.7422 12.1745 20.7422 12.6562C20.2604 12.6562 19.7786 12.6562 19.2969 12.6562C19.2969 13.125 19.2969 13.5938 19.2969 14.0625C18.8281 14.0625 18.3594 14.0625 17.8906 14.0625C17.8906 14.6875 17.8906 15.3125 17.8906 15.9375C18.3594 15.9375 18.8281 15.9375 19.2969 15.9375C19.2969 16.4063 19.2969 16.875 19.2969 17.3438C19.7786 17.3438 20.2604 17.3438 20.7422 17.3438C20.7422 17.8255 20.7422 18.3073 20.7422 18.7891C21.2109 18.7891 21.6797 18.7891 22.1484 18.7891C22.1484 19.2708 22.1484 19.7526 22.1484 20.2344C22.6302 20.2344 23.112 20.2344 23.5938 20.2344C23.5938 20.7031 23.5938 21.1719 23.5938 21.6406C24.0625 21.6406 24.5313 21.6406 25 21.6406C25 22.2917 25 22.9427 25 23.5938C24.5313 23.5938 24.0625 23.5938 23.5938 23.5938C23.5938 24.0625 23.5938 24.5313 23.5938 25C22.9427 25 22.2917 25 21.6406 25C21.6406 24.5313 21.6406 24.0625 21.6406 23.5938C21.1719 23.5938 20.7031 23.5938 20.2344 23.5938C20.2344 23.112 20.2344 22.6302 20.2344 22.1484C19.7526 22.1484 19.2708 22.1484 18.7891 22.1484C18.7891 21.6797 18.7891 21.2109 18.7891 20.7422C18.3073 20.7422 17.8255 20.7422 17.3438 20.7422C17.3438 20.2604 17.3438 19.7786 17.3438 19.2969C16.875 19.2969 16.4063 19.2969 15.9375 19.2969C15.9375 18.8281 15.9375 18.3594 15.9375 17.8906C15.3125 17.8906 14.6875 17.8906 14.0625 17.8906C14.0625 18.3594 14.0625 18.8281 14.0625 19.2969C13.5938 19.2969 13.125 19.2969 12.6563 19.2969C12.6563 19.7786 12.6563 20.2604 12.6563 20.7422C12.1745 20.7422 11.6927 20.7422 11.2109 20.7422C11.2109 21.2109 11.2109 21.6797 11.2109 22.1484C10.7292 22.1484 10.2474 22.1484 9.76563 22.1484C9.76563 22.6302 9.76563 23.112 9.76563 23.5938C9.29688 23.5938 8.82813 23.5938 8.35938 23.5938C8.35938 24.0625 8.35938 24.5313 8.35938 25C7.70833 25 7.05729 25 6.40625 25C6.40625 24.5313 6.40625 24.0625 6.40625 23.5938C5.9375 23.5938 5.46875 23.5938 5 23.5938C5 22.9427 5 22.2917 5 21.6406C5.46875 21.6406 5.9375 21.6406 6.40625 21.6406C6.40625 21.1719 6.40625 20.7031 6.40625 20.2344C6.88802 20.2344 7.36979 20.2344 7.85156 20.2344C7.85156 19.7526 7.85156 19.2708 7.85156 18.7891C8.32031 18.7891 8.78906 18.7891 9.25781 18.7891C9.25781 18.3073 9.25781 17.8255 9.25781 17.3438C9.73957 17.3438 10.2214 17.3438 10.7031 17.3438C10.7031 16.875 10.7031 16.4063 10.7031 15.9375C11.1719 15.9375 11.6406 15.9375 12.1094 15.9375C12.1094 15.3125 12.1094 14.6875 12.1094 14.0625C11.6406 14.0625 11.1719 14.0625 10.7031 14.0625C10.7031 13.5938 10.7031 13.125 10.7031 12.6562C10.2214 12.6562 9.73957 12.6562 9.25781 12.6562C9.25781 12.1745 9.25781 11.6927 9.25781 11.2109C8.78906 11.2109 8.32031 11.2109 7.85156 11.2109C7.85156 10.7292 7.85156 10.2474 7.85156 9.76563C7.36979 9.76563 6.88802 9.76563 6.40625 9.76563C6.40625 9.29688 6.40625 8.82813 6.40625 8.35938C5.9375 8.35938 5.46875 8.35938 5 8.35938C5 7.70833 5 7.05729 5 6.40625C5.46875 6.40625 5.9375 6.40625 6.40625 6.40625C6.40625 5.9375 6.40625 5.46875 6.40625 5Z" fill="#15124E"/>
</svg>
