<svg version="1.1" id="Layer_1" xmlns="http://www.w3.org/2000/svg" xmlns:xlink="http://www.w3.org/1999/xlink" x="0px" y="0px"
	 width="100%" viewBox="0 0 512 513" enable-background="new 0 0 512 513" xml:space="preserve">
<path fill="#EA05A2" opacity="1.000000" stroke="none" 
	d="
M416.000000,514.000000 
	C310.645782,514.000000 205.291550,514.000000 99.809174,513.722595 
	C99.050102,512.972595 98.487869,512.301147 97.778351,512.056030 
	C67.827431,501.707855 44.098064,483.014740 26.171013,457.210663 
	C14.103614,439.840912 5.951249,420.576050 2.890779,399.406555 
	C2.811486,398.858063 1.654429,398.465363 0.999998,398.000000 
	C1.000000,309.312439 1.000000,220.624878 1.325976,131.804153 
	C2.086870,131.002838 2.809088,130.377243 2.915240,129.660416 
	C6.941916,102.468445 18.734177,78.772011 36.494701,58.205315 
	C51.665306,40.637745 70.129715,27.158934 91.896790,18.541729 
	C108.566246,11.942584 125.776024,8.006222 143.776703,8.003569 
	C218.070801,7.992620 292.365814,7.815812 366.658112,8.181690 
	C378.851776,8.241742 391.398621,9.306677 403.149811,12.349577 
	C433.813354,20.289715 459.617432,36.480743 479.870544,61.262463 
	C495.964874,80.955505 506.499817,103.080757 511.078247,128.085434 
	C511.212097,128.816406 512.337097,129.365891 513.000000,130.000000 
	C513.000000,219.020889 513.000000,308.041779 512.673767,397.195770 
	C511.912811,397.996826 511.173279,398.628326 511.088379,399.338165 
	C509.407684,413.388763 504.675629,426.558411 498.339569,438.998932 
	C489.374939,456.600372 477.891937,472.358765 462.489075,485.191284 
	C449.189087,496.271851 434.938751,505.415344 418.580872,511.208099 
	C417.523621,511.582550 416.851379,513.044189 416.000000,514.000000 
M271.280029,272.500549 
	C271.280029,266.075623 271.280029,259.650726 271.280029,252.739929 
	C259.234222,252.739929 247.979828,252.739929 236.519196,252.739929 
	C236.519196,243.014664 236.519196,233.804413 236.519196,224.007416 
	C261.080475,224.007416 285.303528,224.007416 309.533478,224.007416 
	C309.533478,215.014557 309.533478,206.615967 309.533478,197.604782 
	C291.264679,197.604782 273.359222,197.604782 255.574860,197.604782 
	C255.574860,194.391663 255.574860,191.821335 255.574860,188.580963 
	C279.842804,188.580963 303.722473,188.580963 327.515472,188.580963 
	C327.515472,167.471619 327.515472,147.046097 327.515472,125.973175 
	C321.490021,125.973175 315.776733,125.973175 309.651123,125.973175 
	C309.651123,120.064163 309.651123,114.805542 309.651123,109.537582 
	C270.491669,109.537582 231.777573,109.537582 192.585251,109.537582 
	C192.585251,115.190598 192.585251,120.461197 192.585251,126.207184 
	C186.518631,126.207184 180.923950,126.207184 174.689331,126.207184 
	C174.689331,156.398895 174.689331,186.108719 174.689331,216.322205 
	C167.955750,216.322205 161.872650,216.322205 155.199905,216.322205 
	C155.199905,222.558701 155.199905,228.293594 155.199905,234.389175 
	C152.621796,234.389175 150.645676,234.388046 148.669540,234.389359 
	C139.318954,234.395584 139.318954,234.395828 139.318817,243.490524 
	C139.318771,246.433746 139.318802,249.376984 139.318802,253.016708 
	C133.808914,253.016708 128.933136,253.016708 123.682220,253.016708 
	C123.682220,259.334442 123.682220,264.949341 123.682220,270.715088 
	C112.598816,270.715088 101.921181,270.715088 90.743393,270.715088 
	C90.743393,264.395966 90.743393,258.493622 90.743393,252.053497 
	C84.511070,252.053497 78.773689,252.053497 72.546921,252.053497 
	C72.546921,246.247391 72.546921,240.996948 72.546921,235.210648 
	C66.283150,235.210648 60.529270,235.210648 54.234268,235.210648 
	C54.234268,222.916901 54.234268,211.165054 54.234268,199.410156 
	C45.251022,199.410156 36.826588,199.410156 28.210709,199.410156 
	C28.210709,232.806625 28.210709,265.896271 28.210709,299.554749 
	C34.169373,299.554749 39.920860,299.554749 46.205803,299.554749 
	C46.205803,305.356140 46.205803,310.608490 46.205803,316.521027 
	C51.522785,316.521027 56.309532,316.622803 61.089172,316.482544 
	C63.917049,316.399567 64.932251,317.499908 64.821571,320.302856 
	C64.653450,324.560333 64.777596,328.829376 64.777596,333.682770 
	C71.179573,333.682770 76.914696,333.682770 83.159637,333.682770 
	C83.159637,340.190369 83.159637,346.108673 83.159637,352.546539 
	C89.437355,352.546539 95.177376,352.546539 100.859383,352.546539 
	C100.859383,361.327576 100.859383,369.557037 100.859383,378.292023 
	C77.724686,378.292023 54.982079,378.292023 32.235722,378.292023 
	C32.235722,381.084869 32.235722,383.358124 32.235722,386.153503 
	C55.215637,386.153503 77.954834,386.153503 101.323204,386.153503 
	C101.323204,397.393066 101.323204,408.126038 101.323204,418.866516 
	C116.537781,418.866516 131.114044,418.866516 145.712646,418.866516 
	C145.712646,410.134003 145.712646,401.729126 145.712646,392.776947 
	C139.647644,392.776947 133.898346,392.776947 128.178680,392.776947 
	C128.178680,390.303711 128.178680,388.400421 128.178680,386.430725 
	C143.784927,386.430725 159.029205,386.430725 174.890472,386.430725 
	C174.890472,397.442230 174.890472,408.162994 174.890472,418.985565 
	C189.962601,418.985565 204.414291,418.985565 218.964554,418.985565 
	C218.964554,410.255280 218.964554,401.736603 218.964554,392.664978 
	C212.777176,392.664978 207.035629,392.664978 201.322113,392.664978 
	C201.322113,390.327515 201.322113,388.554260 201.322113,386.453949 
	C264.970154,386.453949 328.362976,386.453949 392.403076,386.453949 
	C392.403076,397.426788 392.403076,408.152527 392.403076,418.832886 
	C406.953400,418.832886 420.854156,418.832886 435.328918,418.832886 
	C435.328918,407.762207 435.328918,397.038574 435.328918,385.909790 
	C451.166595,385.909790 466.428131,385.909790 481.605316,385.909790 
	C481.605316,383.084320 481.605316,380.706818 481.605316,377.899170 
	C465.950470,377.899170 450.696838,377.899170 435.450500,377.899170 
	C435.450500,364.737976 435.450500,352.028931 435.450500,338.774170 
	C446.421753,338.774170 456.991974,338.774170 467.992157,338.774170 
	C467.992157,334.960785 467.992157,331.693787 467.992157,328.161163 
	C471.160065,327.974548 473.902802,327.812958 476.843353,327.639740 
	C477.016022,324.391724 477.171326,321.470886 477.340515,318.288757 
	C480.340271,318.113922 483.062256,317.955322 485.775330,317.797211 
	C485.775330,277.482788 485.775330,237.710220 485.775330,197.683105 
	C482.846191,197.444931 480.124023,197.223572 476.949402,196.965424 
	C476.949402,194.025009 476.949402,191.445770 476.949402,188.860840 
	C468.412231,188.860840 460.377502,188.860840 451.881561,188.860840 
	C451.881561,191.908371 451.881561,194.504181 451.881561,197.129623 
	C448.809631,197.320740 446.208740,197.482559 443.129242,197.674133 
	C443.129242,228.350739 443.129242,258.599792 443.129242,288.981873 
	C440.219574,288.981873 437.831360,288.981873 434.952057,288.981873 
	C434.952057,245.590271 434.952057,202.512451 434.952057,159.218933 
	C431.760986,159.033081 429.049805,158.875168 426.374573,158.719360 
	C426.177551,155.489853 426.020111,152.909286 425.864288,150.354980 
	C417.442291,150.354980 409.526611,150.354980 401.329834,150.354980 
	C401.167328,153.371994 401.020905,156.090576 400.873352,158.830276 
	C397.817200,158.966736 395.361481,159.076401 392.277222,159.214111 
	C392.277222,187.726639 392.277222,215.956192 392.277222,244.267227 
	C389.239716,244.267227 386.852417,244.267227 383.892487,244.267227 
	C383.892487,228.506088 383.892487,213.112915 383.892487,197.553726 
	C380.746399,197.391449 378.158112,197.257935 375.368591,197.114029 
	C375.219360,194.070892 375.092041,191.475128 374.964050,188.865540 
	C366.521301,188.865540 358.484833,188.865540 350.344818,188.865540 
	C350.197083,191.915939 350.071045,194.518021 349.948547,197.046555 
	C341.318970,197.765137 341.318848,197.765137 341.318817,206.111450 
	C341.318787,226.609604 341.318817,247.107773 341.318848,267.605927 
	C341.318848,269.357361 341.318878,271.108795 341.318878,272.988251 
	C344.677063,273.157501 347.272675,273.288330 349.927887,273.422180 
	C350.100952,276.835846 350.249847,279.773743 350.407135,282.876495 
	C353.562561,283.046783 356.334106,283.196381 359.470337,283.365631 
	C359.637054,286.986725 359.793549,290.386078 359.977936,294.390930 
	C370.844635,294.390930 381.396698,294.390930 391.903473,294.390930 
	C391.903473,322.591400 391.903473,350.158081 391.903473,377.766663 
	C328.149231,377.766663 264.771881,377.766663 201.414185,377.766663 
	C201.414185,362.117950 201.414185,346.888794 201.414185,331.059814 
	C207.472610,331.059814 213.195038,331.059814 219.360626,331.059814 
	C219.360626,325.696747 219.360626,320.934418 219.360626,315.654297 
	C225.088684,315.654297 230.354980,315.654297 236.169189,315.654297 
	C236.169189,303.387329 236.169189,291.636475 236.169189,279.674988 
	C239.768677,279.674988 242.803696,279.674988 246.437866,279.674988 
	C246.437866,285.768829 246.437866,291.501678 246.437866,297.298767 
	C254.974884,297.298767 262.900818,297.298767 271.280029,297.298767 
	C271.280029,289.117279 271.280029,281.308807 271.280029,272.500549 
M333.617249,402.064728 
	C341.682861,402.064728 349.748474,402.064728 357.844482,402.064728 
	C357.844482,399.066315 357.844482,396.804657 357.844482,394.376770 
	C347.265869,394.376770 336.941223,394.376770 326.522461,394.376770 
	C326.522461,397.014313 326.522461,399.254761 326.522461,402.064697 
	C328.765533,402.064697 330.709717,402.064697 333.617249,402.064728 
M77.409317,402.056824 
	C79.513893,402.056824 81.618469,402.056824 83.685730,402.056824 
	C83.685730,399.011353 83.685730,396.635773 83.685730,394.243408 
	C76.001732,394.243408 68.734200,394.243408 61.224754,394.243408 
	C61.224754,396.875458 61.224754,399.250214 61.224754,402.056824 
	C66.500267,402.056824 71.464561,402.056824 77.409317,402.056824 
M467.952118,419.211121 
	C474.999634,418.749176 470.396393,414.202393 471.345428,411.441895 
	C465.261292,411.441895 459.828308,411.441895 454.307190,411.441895 
	C454.307190,414.164154 454.307190,416.567657 454.307190,419.212219 
	C458.764343,419.212219 462.919830,419.212219 467.952118,419.211121 
M275.078369,418.381897 
	C280.627686,418.765442 286.177002,419.148956 292.031097,419.553558 
	C292.031097,416.431702 292.031097,414.009521 292.031097,411.559570 
	C286.219391,411.559570 280.689575,411.559570 274.953461,411.559570 
	C274.953461,413.792084 274.953461,415.616821 275.078369,418.381897 
M32.004387,417.427887 
	C32.459072,417.989624 32.900928,419.026703 33.370438,419.039337 
	C37.920353,419.162109 42.474907,419.113129 47.040123,419.113129 
	C47.040123,416.148102 47.040123,413.773712 47.040123,411.415100 
	C41.920094,411.415100 37.188026,411.415100 31.987753,411.415100 
	C31.987753,413.272583 31.987753,414.884216 32.004387,417.427887 
z"/>
<path fill="none" opacity="1.000000" stroke="none" 
	d="
M513.000000,129.531342 
	C512.337097,129.365891 511.212097,128.816406 511.078247,128.085434 
	C506.499817,103.080757 495.964874,80.955505 479.870544,61.262463 
	C459.617432,36.480743 433.813354,20.289715 403.149811,12.349577 
	C391.398621,9.306677 378.851776,8.241742 366.658112,8.181690 
	C292.365814,7.815812 218.070801,7.992620 143.776703,8.003569 
	C125.776024,8.006222 108.566246,11.942584 91.896790,18.541729 
	C70.129715,27.158934 51.665306,40.637745 36.494701,58.205315 
	C18.734177,78.772011 6.941916,102.468445 2.915240,129.660416 
	C2.809088,130.377243 2.086870,131.002838 1.325976,131.335495 
	C1.000000,87.691254 1.000000,44.382500 1.000000,1.036876 
	C171.545258,1.036876 342.090546,1.036876 513.000000,1.036876 
	C513.000000,43.686871 513.000000,86.374779 513.000000,129.531342 
z"/>
<path fill="none" opacity="1.000000" stroke="none" 
	d="
M416.468658,514.000000 
	C416.851379,513.044189 417.523621,511.582550 418.580872,511.208099 
	C434.938751,505.415344 449.189087,496.271851 462.489075,485.191284 
	C477.891937,472.358765 489.374939,456.600372 498.339569,438.998932 
	C504.675629,426.558411 509.407684,413.388763 511.088379,399.338165 
	C511.173279,398.628326 511.912811,397.996826 512.673767,397.664429 
	C513.000000,436.587097 513.000000,475.174194 513.000000,514.000000 
	C480.979492,514.000000 448.958405,514.000000 416.468658,514.000000 
z"/>
<path fill="none" opacity="1.000000" stroke="none" 
	d="
M0.999998,398.468658 
	C1.654429,398.465363 2.811486,398.858063 2.890779,399.406555 
	C5.951249,420.576050 14.103614,439.840912 26.171013,457.210663 
	C44.098064,483.014740 67.827431,501.707855 97.778351,512.056030 
	C98.487869,512.301147 99.050102,512.972595 99.340515,513.722595 
	C66.400246,514.000000 33.800488,514.000000 1.000000,514.000000 
	C1.000000,475.645996 1.000000,437.291656 0.999998,398.468658 
z"/>
<path fill="#050105" opacity="1.000000" stroke="none" 
	d="
M271.280029,273.000427 
	C271.280029,281.308807 271.280029,289.117279 271.280029,297.298767 
	C262.900818,297.298767 254.974884,297.298767 246.437866,297.298767 
	C246.437866,291.501678 246.437866,285.768829 246.437866,279.674988 
	C242.803696,279.674988 239.768677,279.674988 236.169189,279.674988 
	C236.169189,291.636475 236.169189,303.387329 236.169189,315.654297 
	C230.354980,315.654297 225.088684,315.654297 219.360626,315.654297 
	C219.360626,320.934418 219.360626,325.696747 219.360626,331.059814 
	C213.195038,331.059814 207.472610,331.059814 201.414185,331.059814 
	C201.414185,346.888794 201.414185,362.117950 201.414185,377.766663 
	C264.771881,377.766663 328.149231,377.766663 391.903473,377.766663 
	C391.903473,350.158081 391.903473,322.591400 391.903473,294.390930 
	C381.396698,294.390930 370.844635,294.390930 359.977936,294.390930 
	C359.793549,290.386078 359.637054,286.986725 359.470337,283.365631 
	C356.334106,283.196381 353.562561,283.046783 350.407135,282.876495 
	C350.249847,279.773743 350.100952,276.835846 349.927887,273.422180 
	C347.272675,273.288330 344.677063,273.157501 341.318878,272.988251 
	C341.318878,271.108795 341.318848,269.357361 341.318848,267.605927 
	C341.318817,247.107773 341.318787,226.609604 341.318817,206.111450 
	C341.318848,197.765137 341.318970,197.765137 349.948547,197.046555 
	C350.071045,194.518021 350.197083,191.915939 350.344818,188.865540 
	C358.484833,188.865540 366.521301,188.865540 374.964050,188.865540 
	C375.092041,191.475128 375.219360,194.070892 375.368591,197.114029 
	C378.158112,197.257935 380.746399,197.391449 383.892487,197.553726 
	C383.892487,213.112915 383.892487,228.506088 383.892487,244.267227 
	C386.852417,244.267227 389.239716,244.267227 392.277222,244.267227 
	C392.277222,215.956192 392.277222,187.726639 392.277222,159.214111 
	C395.361481,159.076401 397.817200,158.966736 400.873352,158.830276 
	C401.020905,156.090576 401.167328,153.371994 401.329834,150.354980 
	C409.526611,150.354980 417.442291,150.354980 425.864288,150.354980 
	C426.020111,152.909286 426.177551,155.489853 426.374573,158.719360 
	C429.049805,158.875168 431.760986,159.033081 434.952057,159.218933 
	C434.952057,202.512451 434.952057,245.590271 434.952057,288.981873 
	C437.831360,288.981873 440.219574,288.981873 443.129242,288.981873 
	C443.129242,258.599792 443.129242,228.350739 443.129242,197.674133 
	C446.208740,197.482559 448.809631,197.320740 451.881561,197.129623 
	C451.881561,194.504181 451.881561,191.908371 451.881561,188.860840 
	C460.377502,188.860840 468.412231,188.860840 476.949402,188.860840 
	C476.949402,191.445770 476.949402,194.025009 476.949402,196.965424 
	C480.124023,197.223572 482.846191,197.444931 485.775330,197.683105 
	C485.775330,237.710220 485.775330,277.482788 485.775330,317.797211 
	C483.062256,317.955322 480.340271,318.113922 477.340515,318.288757 
	C477.171326,321.470886 477.016022,324.391724 476.843353,327.639740 
	C473.902802,327.812958 471.160065,327.974548 467.992157,328.161163 
	C467.992157,331.693787 467.992157,334.960785 467.992157,338.774170 
	C456.991974,338.774170 446.421753,338.774170 435.450500,338.774170 
	C435.450500,352.028931 435.450500,364.737976 435.450500,377.899170 
	C450.696838,377.899170 465.950470,377.899170 481.605316,377.899170 
	C481.605316,380.706818 481.605316,383.084320 481.605316,385.909790 
	C466.428131,385.909790 451.166595,385.909790 435.328918,385.909790 
	C435.328918,397.038574 435.328918,407.762207 435.328918,418.832886 
	C420.854156,418.832886 406.953400,418.832886 392.403076,418.832886 
	C392.403076,408.152527 392.403076,397.426788 392.403076,386.453949 
	C328.362976,386.453949 264.970154,386.453949 201.322113,386.453949 
	C201.322113,388.554260 201.322113,390.327515 201.322113,392.664978 
	C207.035629,392.664978 212.777176,392.664978 218.964554,392.664978 
	C218.964554,401.736603 218.964554,410.255280 218.964554,418.985565 
	C204.414291,418.985565 189.962601,418.985565 174.890472,418.985565 
	C174.890472,408.162994 174.890472,397.442230 174.890472,386.430725 
	C159.029205,386.430725 143.784927,386.430725 128.178680,386.430725 
	C128.178680,388.400421 128.178680,390.303711 128.178680,392.776947 
	C133.898346,392.776947 139.647644,392.776947 145.712646,392.776947 
	C145.712646,401.729126 145.712646,410.134003 145.712646,418.866516 
	C131.114044,418.866516 116.537781,418.866516 101.323204,418.866516 
	C101.323204,408.126038 101.323204,397.393066 101.323204,386.153503 
	C77.954834,386.153503 55.215637,386.153503 32.235722,386.153503 
	C32.235722,383.358124 32.235722,381.084869 32.235722,378.292023 
	C54.982079,378.292023 77.724686,378.292023 100.859383,378.292023 
	C100.859383,369.557037 100.859383,361.327576 100.859383,352.546539 
	C95.177376,352.546539 89.437355,352.546539 83.159637,352.546539 
	C83.159637,346.108673 83.159637,340.190369 83.159637,333.682770 
	C76.914696,333.682770 71.179573,333.682770 64.777596,333.682770 
	C64.777596,328.829376 64.653450,324.560333 64.821571,320.302856 
	C64.932251,317.499908 63.917049,316.399567 61.089172,316.482544 
	C56.309532,316.622803 51.522785,316.521027 46.205803,316.521027 
	C46.205803,310.608490 46.205803,305.356140 46.205803,299.554749 
	C39.920860,299.554749 34.169373,299.554749 28.210709,299.554749 
	C28.210709,265.896271 28.210709,232.806625 28.210709,199.410156 
	C36.826588,199.410156 45.251022,199.410156 54.234268,199.410156 
	C54.234268,211.165054 54.234268,222.916901 54.234268,235.210648 
	C60.529270,235.210648 66.283150,235.210648 72.546921,235.210648 
	C72.546921,240.996948 72.546921,246.247391 72.546921,252.053497 
	C78.773689,252.053497 84.511070,252.053497 90.743393,252.053497 
	C90.743393,258.493622 90.743393,264.395966 90.743393,270.715088 
	C101.921181,270.715088 112.598816,270.715088 123.682220,270.715088 
	C123.682220,264.949341 123.682220,259.334442 123.682220,253.016708 
	C128.933136,253.016708 133.808914,253.016708 139.318802,253.016708 
	C139.318802,249.376984 139.318771,246.433746 139.318817,243.490524 
	C139.318954,234.395828 139.318954,234.395584 148.669540,234.389359 
	C150.645676,234.388046 152.621796,234.389175 155.199905,234.389175 
	C155.199905,228.293594 155.199905,222.558701 155.199905,216.322205 
	C161.872650,216.322205 167.955750,216.322205 174.689331,216.322205 
	C174.689331,186.108719 174.689331,156.398895 174.689331,126.207184 
	C180.923950,126.207184 186.518631,126.207184 192.585251,126.207184 
	C192.585251,120.461197 192.585251,115.190598 192.585251,109.537582 
	C231.777573,109.537582 270.491669,109.537582 309.651123,109.537582 
	C309.651123,114.805542 309.651123,120.064163 309.651123,125.973175 
	C315.776733,125.973175 321.490021,125.973175 327.515472,125.973175 
	C327.515472,147.046097 327.515472,167.471619 327.515472,188.580963 
	C303.722473,188.580963 279.842804,188.580963 255.574860,188.580963 
	C255.574860,191.821335 255.574860,194.391663 255.574860,197.604782 
	C273.359222,197.604782 291.264679,197.604782 309.533478,197.604782 
	C309.533478,206.615967 309.533478,215.014557 309.533478,224.007416 
	C285.303528,224.007416 261.080475,224.007416 236.519196,224.007416 
	C236.519196,233.804413 236.519196,243.014664 236.519196,252.739929 
	C247.979828,252.739929 259.234222,252.739929 271.280029,252.739929 
	C271.280029,259.650726 271.280029,266.075623 271.280029,273.000427 
M249.500000,117.108620 
	C235.169281,117.109123 220.836258,117.253807 206.509216,117.024261 
	C202.080124,116.953293 200.768814,118.461853 200.813766,122.793060 
	C200.930573,134.050034 200.752701,134.051865 189.421539,134.108749 
	C182.955627,134.141205 182.938904,134.141205 182.936752,140.895187 
	C182.929031,165.224808 182.969116,189.554504 182.917953,213.884018 
	C182.893707,225.418716 184.174896,224.011459 172.855835,224.086990 
	C163.787872,224.147507 163.791687,224.100586 163.783768,232.869736 
	C163.773865,243.850479 164.493683,242.947525 153.771957,242.729919 
	C149.222656,242.637604 147.648254,244.137985 147.692383,248.743256 
	C147.802094,260.196045 147.619125,260.278503 136.062408,260.981750 
	C133.116425,261.161072 131.815887,262.228271 131.914673,265.199493 
	C132.019806,268.361847 131.812897,271.535400 131.943695,274.695740 
	C132.075562,277.882202 130.757767,279.189850 127.542526,279.166931 
	C114.045654,279.070709 100.547699,279.060242 87.050568,279.117584 
	C84.021881,279.130463 82.895897,277.834381 82.968895,274.900146 
	C83.083481,270.294617 82.999313,265.684082 82.999313,260.819824 
	C79.957642,260.819824 77.664093,260.825684 75.370575,260.818848 
	C64.906952,260.787628 64.907318,260.786346 64.873932,250.431427 
	C64.870705,249.431641 64.817238,248.430069 64.859795,247.432434 
	C64.983925,244.522461 63.676689,243.112122 60.703915,243.172913 
	C57.539333,243.237640 54.358231,242.979752 51.209427,243.208344 
	C47.206509,243.498932 45.975075,241.747360 46.057777,237.930588 
	C46.241848,229.435928 45.991802,220.932022 46.164886,212.436890 
	C46.240097,208.745483 45.290592,206.958084 41.160671,206.994049 
	C37.303925,207.027634 35.927662,208.206741 35.951271,212.186798 
	C36.097569,236.848831 36.073738,261.512360 35.972363,286.174835 
	C35.957619,289.761017 37.057137,291.446289 40.824158,291.200623 
	C43.810524,291.005890 46.824352,291.271515 49.819008,291.154327 
	C53.069263,291.027161 54.083916,292.532684 54.208179,295.665375 
	C54.696083,307.965546 54.782379,308.141266 66.987282,308.077057 
	C71.622086,308.052673 73.017990,309.711548 72.987297,314.214447 
	C72.904144,326.413849 71.204163,325.085419 83.788414,325.166687 
	C91.010246,325.213348 91.010406,325.187103 91.025757,332.212280 
	C91.051521,344.010284 91.057938,344.272858 102.896507,343.983887 
	C108.174545,343.855072 109.315773,345.818268 109.252655,350.670166 
	C109.014236,368.997589 109.249580,387.330780 109.089363,405.659912 
	C109.053551,409.757172 110.365364,411.320160 114.536514,411.137268 
	C120.690445,410.867432 126.869171,410.928345 133.029007,411.118439 
	C136.613922,411.229095 138.088837,410.072083 138.080963,406.284821 
	C138.073181,402.542694 137.105576,400.628021 133.014740,400.948669 
	C130.034119,401.182281 127.016953,400.902313 124.020615,400.996155 
	C121.036537,401.089569 119.812126,399.754791 119.878838,396.799042 
	C119.980347,392.302155 120.117363,387.787109 119.831299,383.305817 
	C119.556282,378.997589 121.465736,377.703827 125.431007,378.003693 
	C128.247314,378.216644 131.097549,377.937531 133.925323,378.054657 
	C136.964706,378.180542 138.099869,376.788330 138.002228,373.852325 
	C137.885986,370.357025 138.109650,366.849274 137.960403,363.356567 
	C137.822739,360.135132 139.158981,358.852020 142.364014,358.922272 
	C148.027008,359.046417 153.703186,359.140137 159.357819,358.887787 
	C163.603043,358.698364 164.906754,360.549469 164.836594,364.521088 
	C164.763687,368.648590 163.655167,374.430084 165.832047,376.479340 
	C168.263031,378.767792 173.880371,377.966827 178.110153,377.960663 
	C181.850967,377.955231 183.067093,379.381683 182.985382,383.000580 
	C182.808624,390.828613 183.007812,398.664459 182.907104,406.495239 
	C182.867905,409.543518 183.770706,411.164093 187.146576,411.095123 
	C193.809418,410.958984 200.478333,410.970703 207.141953,411.084381 
	C210.690521,411.144897 211.175278,409.107849 211.173325,406.258392 
	C211.171310,403.319336 210.952484,400.867645 207.039734,401.009460 
	C203.878448,401.123962 200.701065,400.856110 197.544434,401.020050 
	C194.015320,401.203369 192.774902,399.623169 192.967514,396.250397 
	C193.138260,393.260712 192.999100,390.253387 192.999176,387.253845 
	C192.999710,367.590179 193.079453,347.925964 192.935013,328.263367 
	C192.906418,324.369873 194.143921,322.764496 198.105927,323.091309 
	C201.084625,323.336975 204.101593,323.082458 207.100006,323.135956 
	C209.774109,323.183624 211.026794,322.052368 211.084625,319.280182 
	C211.156738,315.824188 210.251328,310.977936 212.101746,309.289246 
	C214.228088,307.348785 218.901184,308.024292 222.479996,307.895691 
	C226.656006,307.745667 228.356476,305.991791 228.134323,301.687256 
	C227.834122,295.870331 228.061371,290.026215 228.061508,284.193787 
	C228.061798,271.109528 228.061600,271.109528 241.254913,271.109528 
	C253.956284,271.109528 253.956345,271.109528 254.154678,283.531982 
	C254.160004,283.865234 254.179077,284.199677 254.159027,284.531616 
	C253.980682,287.485229 254.857834,289.233917 258.321411,289.223114 
	C261.651947,289.212708 263.223328,288.155823 263.134949,284.612518 
	C262.977081,278.284149 262.973969,271.945862 263.139099,265.617828 
	C263.230927,262.097443 261.721222,260.935242 258.364838,260.986298 
	C250.201355,261.110352 242.025238,260.785004 233.872833,261.109467 
	C229.138458,261.297852 227.874054,259.478424 227.980484,255.013336 
	C228.234558,244.354355 228.055679,233.685211 228.064056,223.020172 
	C228.069504,216.077240 228.079269,216.062027 234.871246,216.059219 
	C255.368118,216.050735 275.865143,216.014450 296.361694,216.094528 
	C299.794342,216.107925 302.036713,215.737320 302.029388,211.348267 
	C302.022491,207.203323 300.626831,205.840332 296.519104,205.889053 
	C281.690155,206.064941 266.857178,205.880859 252.027176,206.004684 
	C248.424988,206.034760 246.842987,204.871872 247.015045,201.115402 
	C247.228302,196.459274 247.326920,191.766708 246.989212,187.125229 
	C246.642975,182.366470 248.293549,180.752625 253.168381,180.807755 
	C273.496002,181.037735 293.828430,180.815323 314.157440,180.971207 
	C318.491547,181.004440 320.035614,179.528244 319.955841,175.173340 
	C319.742218,163.512375 319.682922,151.839828 319.978180,140.182419 
	C320.104187,135.206757 318.156738,133.956497 313.530548,134.022247 
	C302.127899,134.184296 301.959930,134.004837 302.001678,122.436539 
	C302.016785,118.250061 300.567200,116.989662 296.492126,117.037590 
	C281.163269,117.217873 265.830994,117.109360 249.500000,117.108620 
M400.310760,180.515442 
	C400.310760,204.441971 400.310760,228.368500 400.310760,252.240082 
	C391.829041,252.240082 384.113678,252.240082 376.004425,252.240082 
	C376.004425,236.536407 376.004425,221.263611 376.004425,205.764526 
	C372.909271,205.481689 370.193878,205.233566 367.335846,204.972397 
	C367.187042,201.986435 367.058624,199.409927 366.927368,196.776245 
	C363.833740,196.776245 361.252747,196.776245 358.435303,196.776245 
	C358.255646,199.692337 358.095917,202.284897 357.923553,205.082626 
	C356.895874,205.193466 356.075867,205.453537 355.314117,205.336090 
	C350.508911,204.595230 349.081635,206.527924 349.231995,211.361267 
	C349.589203,222.845718 349.346832,234.348816 349.346802,245.844376 
	C349.346771,252.142227 349.346802,258.440094 349.346802,264.997162 
	C352.446228,265.224243 355.037750,265.414093 357.899200,265.623749 
	C358.086609,268.749390 358.261292,271.663483 358.447906,274.775970 
	C361.609802,275.014618 364.500519,275.232819 367.801544,275.481995 
	C367.801544,279.156128 367.801544,282.415771 367.801544,286.298950 
	C378.806671,286.298950 389.361969,286.298950 400.406006,286.298950 
	C400.406006,328.181549 400.406006,369.432953 400.406006,410.879822 
	C409.477692,410.879822 418.040710,410.879822 427.159241,410.879822 
	C427.159241,384.208435 427.159241,357.823547 427.159241,330.885620 
	C438.275177,330.885620 448.847046,330.885620 460.032501,330.885620 
	C460.032501,326.942780 460.032501,323.552948 460.032501,320.093536 
	C463.400238,319.923553 466.136108,319.785492 468.922089,319.644867 
	C469.084045,316.112305 469.217743,313.196136 469.352936,310.247375 
	C472.519806,310.066101 475.104309,309.918182 477.583557,309.776245 
	C477.583557,274.762512 477.583557,240.232590 477.583557,205.595184 
	C474.601196,205.410645 472.023407,205.251129 468.959045,205.061523 
	C468.959045,202.025650 468.959045,199.453949 468.959045,196.904327 
	C465.718597,196.904327 463.029602,196.904327 460.253693,196.904327 
	C460.115387,199.966736 459.998230,202.559891 459.883331,205.103699 
	C456.767944,205.343201 454.171570,205.542786 451.083801,205.780151 
	C451.083801,236.427582 451.083801,266.663849 451.083801,296.963287 
	C442.831177,296.963287 435.114807,296.963287 426.898621,296.963287 
	C426.898621,253.545914 426.898621,210.483810 426.898621,167.251465 
	C423.820465,167.061676 421.232880,166.902130 418.360229,166.725006 
	C418.185822,163.701355 418.029266,160.986603 417.880951,158.415054 
	C414.705780,158.415054 412.127838,158.415054 409.382355,158.415054 
	C409.198792,161.359589 409.037292,163.950058 408.860901,166.779495 
	C405.998108,166.955704 403.418488,167.114487 400.310791,167.305786 
	C400.310791,171.601730 400.310791,175.562286 400.310760,180.515442 
M146.054153,376.258667 
	C149.189392,377.105804 152.324631,377.952942 156.013336,378.949585 
	C156.013336,374.224182 156.013336,370.851776 156.013336,367.209167 
	C152.647552,367.209167 149.597092,367.209167 146.032791,367.209167 
	C146.032791,370.097168 146.032791,372.709503 146.054153,376.258667 
z"/>
<path fill="#0D0009" opacity="1.000000" stroke="none" 
	d="
M333.135559,402.064697 
	C330.709717,402.064697 328.765533,402.064697 326.522461,402.064697 
	C326.522461,399.254761 326.522461,397.014313 326.522461,394.376770 
	C336.941223,394.376770 347.265869,394.376770 357.844482,394.376770 
	C357.844482,396.804657 357.844482,399.066315 357.844482,402.064728 
	C349.748474,402.064728 341.682861,402.064728 333.135559,402.064697 
z"/>
<path fill="#0B0007" opacity="1.000000" stroke="none" 
	d="
M76.919083,402.056824 
	C71.464561,402.056824 66.500267,402.056824 61.224754,402.056824 
	C61.224754,399.250214 61.224754,396.875458 61.224754,394.243408 
	C68.734200,394.243408 76.001732,394.243408 83.685730,394.243408 
	C83.685730,396.635773 83.685730,399.011353 83.685730,402.056824 
	C81.618469,402.056824 79.513893,402.056824 76.919083,402.056824 
z"/>
<path fill="#0D0009" opacity="1.000000" stroke="none" 
	d="
M467.513702,419.211670 
	C462.919830,419.212219 458.764343,419.212219 454.307190,419.212219 
	C454.307190,416.567657 454.307190,414.164154 454.307190,411.441895 
	C459.828308,411.441895 465.261292,411.441895 471.345428,411.441895 
	C470.396393,414.202393 474.999634,418.749176 467.513702,419.211670 
z"/>
<path fill="#080005" opacity="1.000000" stroke="none" 
	d="
M275.015930,417.911743 
	C274.953461,415.616821 274.953461,413.792084 274.953461,411.559570 
	C280.689575,411.559570 286.219391,411.559570 292.031097,411.559570 
	C292.031097,414.009521 292.031097,416.431702 292.031097,419.553558 
	C286.177002,419.148956 280.627686,418.765442 275.015930,417.911743 
z"/>
<path fill="#080005" opacity="1.000000" stroke="none" 
	d="
M31.996071,416.961853 
	C31.987753,414.884216 31.987753,413.272583 31.987753,411.415100 
	C37.188026,411.415100 41.920094,411.415100 47.040123,411.415100 
	C47.040123,413.773712 47.040123,416.148102 47.040123,419.113129 
	C42.474907,419.113129 37.920353,419.162109 33.370438,419.039337 
	C32.900928,419.026703 32.459072,417.989624 31.996071,416.961853 
z"/>
<path fill="#27254C" opacity="1.000000" stroke="none" 
	d="
M250.000000,117.108826 
	C265.830994,117.109360 281.163269,117.217873 296.492126,117.037590 
	C300.567200,116.989662 302.016785,118.250061 302.001678,122.436539 
	C301.959930,134.004837 302.127899,134.184296 313.530548,134.022247 
	C318.156738,133.956497 320.104187,135.206757 319.978180,140.182419 
	C319.682922,151.839828 319.742218,163.512375 319.955841,175.173340 
	C320.035614,179.528244 318.491547,181.004440 314.157440,180.971207 
	C293.828430,180.815323 273.496002,181.037735 253.168381,180.807755 
	C248.293549,180.752625 246.642975,182.366470 246.989212,187.125229 
	C247.326920,191.766708 247.228302,196.459274 247.015045,201.115402 
	C246.842987,204.871872 248.424988,206.034760 252.027176,206.004684 
	C266.857178,205.880859 281.690155,206.064941 296.519104,205.889053 
	C300.626831,205.840332 302.022491,207.203323 302.029388,211.348267 
	C302.036713,215.737320 299.794342,216.107925 296.361694,216.094528 
	C275.865143,216.014450 255.368118,216.050735 234.871246,216.059219 
	C228.079269,216.062027 228.069504,216.077240 228.064056,223.020172 
	C228.055679,233.685211 228.234558,244.354355 227.980484,255.013336 
	C227.874054,259.478424 229.138458,261.297852 233.872833,261.109467 
	C242.025238,260.785004 250.201355,261.110352 258.364838,260.986298 
	C261.721222,260.935242 263.230927,262.097443 263.139099,265.617828 
	C262.973969,271.945862 262.977081,278.284149 263.134949,284.612518 
	C263.223328,288.155823 261.651947,289.212708 258.321411,289.223114 
	C254.857834,289.233917 253.980682,287.485229 254.159027,284.531616 
	C254.179077,284.199677 254.160004,283.865234 254.154678,283.531982 
	C253.956345,271.109528 253.956284,271.109528 241.254913,271.109528 
	C228.061600,271.109528 228.061798,271.109528 228.061508,284.193787 
	C228.061371,290.026215 227.834122,295.870331 228.134323,301.687256 
	C228.356476,305.991791 226.656006,307.745667 222.479996,307.895691 
	C218.901184,308.024292 214.228088,307.348785 212.101746,309.289246 
	C210.251328,310.977936 211.156738,315.824188 211.084625,319.280182 
	C211.026794,322.052368 209.774109,323.183624 207.100006,323.135956 
	C204.101593,323.082458 201.084625,323.336975 198.105927,323.091309 
	C194.143921,322.764496 192.906418,324.369873 192.935013,328.263367 
	C193.079453,347.925964 192.999710,367.590179 192.999176,387.253845 
	C192.999100,390.253387 193.138260,393.260712 192.967514,396.250397 
	C192.774902,399.623169 194.015320,401.203369 197.544434,401.020050 
	C200.701065,400.856110 203.878448,401.123962 207.039734,401.009460 
	C210.952484,400.867645 211.171310,403.319336 211.173325,406.258392 
	C211.175278,409.107849 210.690521,411.144897 207.141953,411.084381 
	C200.478333,410.970703 193.809418,410.958984 187.146576,411.095123 
	C183.770706,411.164093 182.867905,409.543518 182.907104,406.495239 
	C183.007812,398.664459 182.808624,390.828613 182.985382,383.000580 
	C183.067093,379.381683 181.850967,377.955231 178.110153,377.960663 
	C173.880371,377.966827 168.263031,378.767792 165.832047,376.479340 
	C163.655167,374.430084 164.763687,368.648590 164.836594,364.521088 
	C164.906754,360.549469 163.603043,358.698364 159.357819,358.887787 
	C153.703186,359.140137 148.027008,359.046417 142.364014,358.922272 
	C139.158981,358.852020 137.822739,360.135132 137.960403,363.356567 
	C138.109650,366.849274 137.885986,370.357025 138.002228,373.852325 
	C138.099869,376.788330 136.964706,378.180542 133.925323,378.054657 
	C131.097549,377.937531 128.247314,378.216644 125.431007,378.003693 
	C121.465736,377.703827 119.556282,378.997589 119.831299,383.305817 
	C120.117363,387.787109 119.980347,392.302155 119.878838,396.799042 
	C119.812126,399.754791 121.036537,401.089569 124.020615,400.996155 
	C127.016953,400.902313 130.034119,401.182281 133.014740,400.948669 
	C137.105576,400.628021 138.073181,402.542694 138.080963,406.284821 
	C138.088837,410.072083 136.613922,411.229095 133.029007,411.118439 
	C126.869171,410.928345 120.690445,410.867432 114.536514,411.137268 
	C110.365364,411.320160 109.053551,409.757172 109.089363,405.659912 
	C109.249580,387.330780 109.014236,368.997589 109.252655,350.670166 
	C109.315773,345.818268 108.174545,343.855072 102.896507,343.983887 
	C91.057938,344.272858 91.051521,344.010284 91.025757,332.212280 
	C91.010406,325.187103 91.010246,325.213348 83.788414,325.166687 
	C71.204163,325.085419 72.904144,326.413849 72.987297,314.214447 
	C73.017990,309.711548 71.622086,308.052673 66.987282,308.077057 
	C54.782379,308.141266 54.696083,307.965546 54.208179,295.665375 
	C54.083916,292.532684 53.069263,291.027161 49.819008,291.154327 
	C46.824352,291.271515 43.810524,291.005890 40.824158,291.200623 
	C37.057137,291.446289 35.957619,289.761017 35.972363,286.174835 
	C36.073738,261.512360 36.097569,236.848831 35.951271,212.186798 
	C35.927662,208.206741 37.303925,207.027634 41.160671,206.994049 
	C45.290592,206.958084 46.240097,208.745483 46.164886,212.436890 
	C45.991802,220.932022 46.241848,229.435928 46.057777,237.930588 
	C45.975075,241.747360 47.206509,243.498932 51.209427,243.208344 
	C54.358231,242.979752 57.539333,243.237640 60.703915,243.172913 
	C63.676689,243.112122 64.983925,244.522461 64.859795,247.432434 
	C64.817238,248.430069 64.870705,249.431641 64.873932,250.431427 
	C64.907318,260.786346 64.906952,260.787628 75.370575,260.818848 
	C77.664093,260.825684 79.957642,260.819824 82.999313,260.819824 
	C82.999313,265.684082 83.083481,270.294617 82.968895,274.900146 
	C82.895897,277.834381 84.021881,279.130463 87.050568,279.117584 
	C100.547699,279.060242 114.045654,279.070709 127.542526,279.166931 
	C130.757767,279.189850 132.075562,277.882202 131.943695,274.695740 
	C131.812897,271.535400 132.019806,268.361847 131.914673,265.199493 
	C131.815887,262.228271 133.116425,261.161072 136.062408,260.981750 
	C147.619125,260.278503 147.802094,260.196045 147.692383,248.743256 
	C147.648254,244.137985 149.222656,242.637604 153.771957,242.729919 
	C164.493683,242.947525 163.773865,243.850479 163.783768,232.869736 
	C163.791687,224.100586 163.787872,224.147507 172.855835,224.086990 
	C184.174896,224.011459 182.893707,225.418716 182.917953,213.884018 
	C182.969116,189.554504 182.929031,165.224808 182.936752,140.895187 
	C182.938904,134.141205 182.955627,134.141205 189.421539,134.108749 
	C200.752701,134.051865 200.930573,134.050034 200.813766,122.793060 
	C200.768814,118.461853 202.080124,116.953293 206.509216,117.024261 
	C220.836258,117.253807 235.169281,117.109123 250.000000,117.108826 
M226.451431,151.097549 
	C227.613190,151.097137 228.793777,150.961395 229.933456,151.119812 
	C234.786285,151.794327 236.411896,149.690765 236.071625,144.936203 
	C235.717102,139.982254 235.916992,134.982651 236.006058,130.005356 
	C236.054657,127.289520 234.958755,126.050293 232.199371,126.082062 
	C226.391403,126.148903 220.581635,126.148216 214.773651,126.081993 
	C212.026627,126.050674 210.902496,127.271576 210.941910,129.992203 
	C211.023651,135.633804 211.037445,141.278763 210.934006,146.919693 
	C210.880417,149.841705 211.999359,151.206268 215.015259,151.108383 
	C218.496658,150.995407 221.984894,151.092194 226.451431,151.097549 
z"/>
<path fill="#21EB7E" opacity="1.000000" stroke="none" 
	d="
M400.310791,180.019135 
	C400.310791,175.562286 400.310791,171.601730 400.310791,167.305786 
	C403.418488,167.114487 405.998108,166.955704 408.860901,166.779495 
	C409.037292,163.950058 409.198792,161.359589 409.382355,158.415054 
	C412.127838,158.415054 414.705780,158.415054 417.880951,158.415054 
	C418.029266,160.986603 418.185822,163.701355 418.360229,166.725006 
	C421.232880,166.902130 423.820465,167.061676 426.898621,167.251465 
	C426.898621,210.483810 426.898621,253.545914 426.898621,296.963287 
	C435.114807,296.963287 442.831177,296.963287 451.083801,296.963287 
	C451.083801,266.663849 451.083801,236.427582 451.083801,205.780151 
	C454.171570,205.542786 456.767944,205.343201 459.883331,205.103699 
	C459.998230,202.559891 460.115387,199.966736 460.253693,196.904327 
	C463.029602,196.904327 465.718597,196.904327 468.959045,196.904327 
	C468.959045,199.453949 468.959045,202.025650 468.959045,205.061523 
	C472.023407,205.251129 474.601196,205.410645 477.583557,205.595184 
	C477.583557,240.232590 477.583557,274.762512 477.583557,309.776245 
	C475.104309,309.918182 472.519806,310.066101 469.352936,310.247375 
	C469.217743,313.196136 469.084045,316.112305 468.922089,319.644867 
	C466.136108,319.785492 463.400238,319.923553 460.032501,320.093536 
	C460.032501,323.552948 460.032501,326.942780 460.032501,330.885620 
	C448.847046,330.885620 438.275177,330.885620 427.159241,330.885620 
	C427.159241,357.823547 427.159241,384.208435 427.159241,410.879822 
	C418.040710,410.879822 409.477692,410.879822 400.406006,410.879822 
	C400.406006,369.432953 400.406006,328.181549 400.406006,286.298950 
	C389.361969,286.298950 378.806671,286.298950 367.801544,286.298950 
	C367.801544,282.415771 367.801544,279.156128 367.801544,275.481995 
	C364.500519,275.232819 361.609802,275.014618 358.447906,274.775970 
	C358.261292,271.663483 358.086609,268.749390 357.899200,265.623749 
	C355.037750,265.414093 352.446228,265.224243 349.346802,264.997162 
	C349.346802,258.440094 349.346771,252.142227 349.346802,245.844376 
	C349.346832,234.348816 349.589203,222.845718 349.231995,211.361267 
	C349.081635,206.527924 350.508911,204.595230 355.314117,205.336090 
	C356.075867,205.453537 356.895874,205.193466 357.923553,205.082626 
	C358.095917,202.284897 358.255646,199.692337 358.435303,196.776245 
	C361.252747,196.776245 363.833740,196.776245 366.927368,196.776245 
	C367.058624,199.409927 367.187042,201.986435 367.335846,204.972397 
	C370.193878,205.233566 372.909271,205.481689 376.004425,205.764526 
	C376.004425,221.263611 376.004425,236.536407 376.004425,252.240082 
	C384.113678,252.240082 391.829041,252.240082 400.310760,252.240082 
	C400.310760,228.368500 400.310760,204.441971 400.310791,180.019135 
z"/>
<path fill="#E5059E" opacity="1.000000" stroke="none" 
	d="
M146.043472,375.790253 
	C146.032791,372.709503 146.032791,370.097168 146.032791,367.209167 
	C149.597092,367.209167 152.647552,367.209167 156.013336,367.209167 
	C156.013336,370.851776 156.013336,374.224182 156.013336,378.949585 
	C152.324631,377.952942 149.189392,377.105804 146.043472,375.790253 
z"/>
<path fill="#020102" opacity="1.000000" stroke="none" 
	d="
M225.960785,151.097717 
	C221.984894,151.092194 218.496658,150.995407 215.015259,151.108383 
	C211.999359,151.206268 210.880417,149.841705 210.934006,146.919693 
	C211.037445,141.278763 211.023651,135.633804 210.941910,129.992203 
	C210.902496,127.271576 212.026627,126.050674 214.773651,126.081993 
	C220.581635,126.148216 226.391403,126.148903 232.199371,126.082062 
	C234.958755,126.050293 236.054657,127.289520 236.006058,130.005356 
	C235.916992,134.982651 235.717102,139.982254 236.071625,144.936203 
	C236.411896,149.690765 234.786285,151.794327 229.933456,151.119812 
	C228.793777,150.961395 227.613190,151.097137 225.960785,151.097717 
M227.091003,134.336029 
	C224.497086,134.336029 221.903152,134.336029 219.262772,134.336029 
	C219.262772,137.484589 219.262772,140.200317 219.262772,142.780121 
	C222.338730,142.780121 225.050049,142.780121 227.745499,142.780121 
	C227.745499,139.909378 227.745499,137.439087 227.091003,134.336029 
z"/>
<path fill="#E2059C" opacity="1.000000" stroke="none" 
	d="
M227.418243,134.652405 
	C227.745499,137.439087 227.745499,139.909378 227.745499,142.780121 
	C225.050049,142.780121 222.338730,142.780121 219.262772,142.780121 
	C219.262772,140.200317 219.262772,137.484589 219.262772,134.336029 
	C221.903152,134.336029 224.497086,134.336029 227.418243,134.652405 
z"/>
</svg>