<svg version="1.1" id="Layer_1" xmlns="http://www.w3.org/2000/svg" xmlns:xlink="http://www.w3.org/1999/xlink" x="0px" y="0px"
	 width="100%" viewBox="0 0 512 513" enable-background="new 0 0 512 513" xml:space="preserve">
<path fill="#EB05A2" opacity="1.000000" stroke="none" 
	d="
M416.000000,514.000000 
	C310.645782,514.000000 205.291550,514.000000 99.794846,513.705444 
	C99.179642,512.970398 98.781006,512.306519 98.223495,512.121582 
	C72.028404,503.431702 50.554100,487.835785 33.266865,466.618500 
	C17.404249,447.149719 6.998314,424.974548 2.922156,400.010345 
	C2.798939,399.255707 1.663515,398.666382 1.000005,398.000000 
	C1.000000,309.312439 1.000000,220.624878 1.354916,131.764923 
	C2.128407,130.917435 2.818359,130.282944 2.926385,129.561356 
	C6.997234,102.368538 18.783041,78.651413 36.595131,58.109802 
	C51.688103,40.703979 69.975822,27.294031 91.618980,18.699223 
	C108.150345,12.134380 125.158188,8.046934 142.974960,8.029572 
	C216.304749,7.958110 289.634674,7.973728 362.964478,8.042935 
	C369.725220,8.049316 376.494659,8.533350 383.244019,9.018484 
	C400.176056,10.235526 416.053802,15.341421 431.220032,22.698147 
	C450.382568,31.993378 466.597992,45.027092 480.110504,61.540077 
	C496.106171,81.087601 506.503265,103.149796 511.074951,127.988998 
	C511.215332,128.751602 512.336243,129.333740 513.000000,130.000000 
	C513.000000,219.020889 513.000000,308.041779 512.644775,397.235352 
	C511.871277,398.081665 511.164917,398.720062 511.077332,399.434296 
	C509.357666,413.460693 504.643829,426.615479 498.310608,439.048706 
	C489.350586,456.638855 477.873535,472.374207 462.484406,485.192719 
	C449.196716,496.260773 434.960632,505.400208 418.620941,511.195038 
	C417.550385,511.574768 416.864716,513.039795 416.000000,514.000000 
M305.903320,455.139740 
	C314.942688,455.083069 323.982025,455.026398 333.102722,455.908020 
	C333.102722,465.145569 333.102722,474.383087 333.102722,483.479980 
	C352.810364,483.479980 371.555817,483.479980 390.797241,483.479980 
	C390.797241,416.707062 390.797241,350.296906 390.797241,282.982727 
	C400.386932,282.982727 409.482910,282.982727 419.046753,282.155975 
	C419.046753,231.783691 419.046753,181.411392 419.046753,130.479614 
	C409.186218,130.479614 400.047882,130.479614 391.012970,130.490417 
	C391.012970,130.490417 391.010742,130.594360 390.797180,129.599213 
	C390.797180,111.041313 390.797180,92.483414 390.797180,73.364182 
	C387.312195,73.364182 384.528564,73.383377 381.745300,73.361015 
	C365.467041,73.230232 349.188843,73.089737 333.020142,72.965782 
	C333.020142,72.965782 333.027313,73.075821 333.161774,72.137184 
	C333.161774,63.203644 333.161774,54.270100 333.161774,45.287712 
	C282.091034,45.287712 231.573883,45.287712 180.973495,45.287712 
	C180.973495,54.787426 180.973495,63.930710 180.978668,72.964882 
	C180.978668,72.964882 181.086746,72.949013 180.176147,73.239716 
	C161.298386,73.239716 142.420639,73.239716 123.270035,73.239716 
	C123.270035,77.562561 123.288345,80.879623 123.266907,84.196419 
	C123.165916,99.823471 123.054031,115.450462 122.959717,130.973740 
	C122.959717,130.973740 123.063713,130.962280 122.125153,130.838898 
	C113.191650,130.838898 104.258148,130.838898 95.070320,130.838898 
	C94.976837,132.512497 94.858871,133.641312 94.858650,134.770157 
	C94.849159,182.884659 94.845726,230.999176 94.873749,279.113678 
	C94.874504,280.403229 95.229988,281.692596 96.114326,283.271240 
	C105.024361,283.271240 113.934395,283.271240 123.441971,283.271240 
	C123.441971,350.554871 123.441971,417.037476 123.441971,483.559357 
	C142.796997,483.559357 161.538040,483.559357 180.975021,483.559357 
	C180.975021,473.844543 180.975021,464.404877 181.902100,455.136505 
	C190.943588,455.084869 199.985077,455.033264 209.096832,455.919128 
	C209.096832,465.121399 209.096832,474.323669 209.096832,483.528046 
	C219.126221,483.528046 228.321487,483.528046 237.975571,483.528046 
	C237.975571,473.802948 237.975571,464.394928 238.903687,455.151459 
	C251.276840,455.097015 263.649994,455.042603 275.992126,455.925812 
	C275.992126,465.045563 275.992126,474.165314 275.992126,483.402985 
	C285.915161,483.402985 295.264496,483.402985 304.973480,483.402985 
	C304.973480,473.631165 304.973480,464.306366 305.903320,455.139740 
z"/>
<path fill="none" opacity="1.000000" stroke="none" 
	d="
M513.000000,129.531342 
	C512.336243,129.333740 511.215332,128.751602 511.074951,127.988998 
	C506.503265,103.149796 496.106171,81.087601 480.110504,61.540077 
	C466.597992,45.027092 450.382568,31.993378 431.220032,22.698147 
	C416.053802,15.341421 400.176056,10.235526 383.244019,9.018484 
	C376.494659,8.533350 369.725220,8.049316 362.964478,8.042935 
	C289.634674,7.973728 216.304749,7.958110 142.974960,8.029572 
	C125.158188,8.046934 108.150345,12.134380 91.618980,18.699223 
	C69.975822,27.294031 51.688103,40.703979 36.595131,58.109802 
	C18.783041,78.651413 6.997234,102.368538 2.926385,129.561356 
	C2.818359,130.282944 2.128407,130.917435 1.354916,131.296265 
	C1.000000,87.691254 1.000000,44.382500 1.000000,1.036876 
	C171.545258,1.036876 342.090546,1.036876 513.000000,1.036876 
	C513.000000,43.686871 513.000000,86.374779 513.000000,129.531342 
z"/>
<path fill="none" opacity="1.000000" stroke="none" 
	d="
M416.468628,514.000000 
	C416.864716,513.039795 417.550385,511.574768 418.620941,511.195038 
	C434.960632,505.400208 449.196716,496.260773 462.484406,485.192719 
	C477.873535,472.374207 489.350586,456.638855 498.310608,439.048706 
	C504.643829,426.615479 509.357666,413.460693 511.077332,399.434296 
	C511.164917,398.720062 511.871277,398.081665 512.644775,397.703979 
	C513.000000,436.587097 513.000000,475.174194 513.000000,514.000000 
	C480.979492,514.000000 448.958405,514.000000 416.468628,514.000000 
z"/>
<path fill="none" opacity="1.000000" stroke="none" 
	d="
M1.000005,398.468658 
	C1.663515,398.666382 2.798939,399.255707 2.922156,400.010345 
	C6.998314,424.974548 17.404249,447.149719 33.266865,466.618500 
	C50.554100,487.835785 72.028404,503.431702 98.223495,512.121582 
	C98.781006,512.306519 99.179642,512.970398 99.326187,513.705444 
	C66.400246,514.000000 33.800488,514.000000 1.000000,514.000000 
	C1.000000,475.645996 1.000000,437.291656 1.000005,398.468658 
z"/>
<path fill="#FDDC45" opacity="1.000000" stroke="none" 
	d="
M391.010742,130.594360 
	C391.010742,130.594360 391.012970,130.490417 390.872986,130.980728 
	C390.716949,180.813766 390.698151,230.156509 390.701843,279.499237 
	C390.701935,280.639740 390.955597,281.780212 390.628723,283.036865 
	C380.902588,283.153046 371.638672,283.153046 361.827271,283.153046 
	C361.827271,293.122681 361.827271,302.355988 361.827271,312.107788 
	C352.049988,312.107788 342.823700,312.107788 332.987793,312.107788 
	C332.987793,322.095978 332.987793,331.545563 332.532928,340.878357 
	C282.721130,340.747498 233.364212,340.732086 184.007278,340.729370 
	C183.017578,340.729309 182.027878,340.876923 180.985413,340.492065 
	C180.932648,330.782379 180.932648,321.536285 180.932648,311.776184 
	C170.859879,311.776184 161.627151,311.776184 151.847687,311.776184 
	C151.847687,302.040833 151.847687,292.827362 151.847687,282.926117 
	C141.833801,282.926117 132.386398,282.926117 123.097855,282.490417 
	C123.275932,232.514038 123.296364,182.973358 123.303894,133.432678 
	C123.304016,132.609222 123.147263,131.785751 123.063713,130.962280 
	C123.063713,130.962280 122.959717,130.973740 123.419952,130.949249 
	C133.144211,130.924744 142.408218,130.924744 152.232056,130.924744 
	C152.232056,120.891357 152.232056,111.653633 152.232056,101.889488 
	C162.028473,101.889488 171.257401,101.889488 181.086746,101.889488 
	C181.086746,91.875595 181.086746,82.412300 181.086746,72.949013 
	C181.086746,72.949013 180.978668,72.964882 181.423462,73.176758 
	C231.274765,73.410767 280.681305,73.435081 330.087830,73.439156 
	C331.067657,73.439240 332.047485,73.202225 333.027313,73.075821 
	C333.027313,73.075821 333.020142,72.965782 333.024231,73.261070 
	C333.172119,73.702583 333.315857,73.848816 333.336975,74.449554 
	C333.214294,83.835205 333.214294,92.766342 333.214294,102.203827 
	C343.052246,102.203827 352.291534,102.203827 362.076111,102.203827 
	C362.076111,111.938499 362.076111,121.161469 362.076111,130.534012 
	C371.744751,130.534012 380.850525,130.534012 390.212738,130.674332 
	C390.649689,130.741211 390.830231,130.667786 391.010742,130.594360 
M263.489319,130.826477 
	C248.733994,130.826477 233.978668,130.826477 219.084808,130.826477 
	C219.084808,140.601013 219.084808,149.677414 219.084808,159.351898 
	C228.574966,159.351898 237.805176,159.351898 247.666656,159.351898 
	C247.666656,200.952347 247.666656,241.958206 247.666656,283.009583 
	C257.405792,283.009583 266.493286,283.009583 275.727417,283.009583 
	C275.727417,232.238770 275.727417,181.719269 275.727417,130.826477 
	C271.760437,130.826477 268.121857,130.826477 263.489319,130.826477 
z"/>
<path fill="#050102" opacity="1.000000" stroke="none" 
	d="
M122.938980,282.926117 
	C132.386398,282.926117 141.833801,282.926117 151.847687,282.926117 
	C151.847687,292.827362 151.847687,302.040833 151.847687,311.776184 
	C161.627151,311.776184 170.859879,311.776184 180.932648,311.776184 
	C180.932648,321.536285 180.932648,330.782379 180.976074,340.500244 
	C181.019485,340.971985 181.029297,340.984772 180.563446,340.910278 
	C170.873367,340.835754 161.649155,340.835754 152.400574,340.835754 
	C152.400574,379.243744 152.400574,416.895569 152.400574,455.036713 
	C162.179871,455.036713 171.614212,455.036713 181.028793,455.020264 
	C181.009048,455.003784 180.975021,454.965210 180.975021,454.965210 
	C180.975021,464.404877 180.975021,473.844543 180.975021,483.559357 
	C161.538040,483.559357 142.796997,483.559357 123.441971,483.559357 
	C123.441971,417.037476 123.441971,350.554871 123.441971,283.271240 
	C113.934395,283.271240 105.024361,283.271240 96.208862,283.118500 
	C105.181923,282.952545 114.060455,282.939331 122.938980,282.926117 
z"/>
<path fill="#050102" opacity="1.000000" stroke="none" 
	d="
M332.987793,340.995148 
	C332.987793,331.545563 332.987793,322.095978 332.987793,312.107788 
	C342.823700,312.107788 352.049988,312.107788 361.827271,312.107788 
	C361.827271,302.355988 361.827271,293.122681 361.827271,283.153046 
	C371.638672,283.153046 380.902588,283.153046 391.094391,283.051147 
	C400.874481,282.960419 409.726685,282.971588 418.578888,282.982727 
	C409.482910,282.982727 400.386932,282.982727 390.797241,282.982727 
	C390.797241,350.296906 390.797241,416.707062 390.797241,483.479980 
	C371.555817,483.479980 352.810364,483.479980 333.102722,483.479980 
	C333.102722,474.383087 333.102722,465.145569 333.046265,455.456787 
	C332.989838,455.005524 332.952789,455.035583 333.424072,455.059631 
	C343.120941,455.083710 352.346527,455.083710 361.609833,455.083710 
	C361.609833,416.554321 361.609833,378.896301 361.609833,340.983643 
	C351.835419,340.983643 342.400818,340.983643 332.975586,340.981506 
	C332.984955,340.979370 332.987793,340.995148 332.987793,340.995148 
z"/>
<path fill="#000000" opacity="1.000000" stroke="none" 
	d="
M333.094543,72.606506 
	C332.047485,73.202225 331.067657,73.439240 330.087830,73.439156 
	C280.681305,73.435081 231.274765,73.410767 181.420868,73.231316 
	C180.973495,63.930710 180.973495,54.787426 180.973495,45.287712 
	C231.573883,45.287712 282.091034,45.287712 333.161774,45.287712 
	C333.161774,54.270100 333.161774,63.203644 333.094543,72.606506 
z"/>
<path fill="#000000" opacity="1.000000" stroke="none" 
	d="
M123.097855,282.490417 
	C114.060455,282.939331 105.181923,282.952545 95.861725,282.973907 
	C95.229988,281.692596 94.874504,280.403229 94.873749,279.113678 
	C94.845726,230.999176 94.849159,182.884659 94.858650,134.770157 
	C94.858871,133.641312 94.976837,132.512497 95.070320,130.838898 
	C104.258148,130.838898 113.191650,130.838898 122.594437,130.900589 
	C123.147263,131.785751 123.304016,132.609222 123.303894,133.432678 
	C123.296364,182.973358 123.275932,232.514038 123.097855,282.490417 
z"/>
<path fill="#000000" opacity="1.000000" stroke="none" 
	d="
M418.812805,282.569366 
	C409.726685,282.971588 400.874481,282.960419 391.556641,282.934998 
	C390.955597,281.780212 390.701935,280.639740 390.701843,279.499237 
	C390.698151,230.156509 390.716949,180.813766 390.821289,130.975327 
	C400.047882,130.479614 409.186218,130.479614 419.046753,130.479614 
	C419.046753,181.411392 419.046753,231.783691 418.812805,282.569366 
z"/>
<path fill="#070403" opacity="1.000000" stroke="none" 
	d="
M180.631439,73.094360 
	C181.086746,82.412300 181.086746,91.875595 181.086746,101.889488 
	C171.257401,101.889488 162.028473,101.889488 152.232056,101.889488 
	C152.232056,111.653633 152.232056,120.891357 152.232056,130.924744 
	C142.408218,130.924744 133.144211,130.924744 123.413116,131.001099 
	C123.054031,115.450462 123.165916,99.823471 123.266907,84.196419 
	C123.288345,80.879623 123.270035,77.562561 123.270035,73.239716 
	C142.420639,73.239716 161.298386,73.239716 180.631439,73.094360 
z"/>
<path fill="#060001" opacity="1.000000" stroke="none" 
	d="
M276.023132,454.988159 
	C263.649994,455.042603 251.276840,455.097015 238.455109,455.085938 
	C238.006516,455.020447 238.048279,455.038818 238.003082,454.569580 
	C237.957901,445.011292 237.957901,435.922272 237.957901,426.724731 
	C250.995651,426.724731 263.362396,426.724731 275.951935,426.724731 
	C275.951935,436.428741 275.951935,445.733704 275.972412,455.029816 
	C275.992920,455.020966 276.023132,454.988159 276.023132,454.988159 
z"/>
<path fill="#090003" opacity="1.000000" stroke="none" 
	d="
M237.991043,455.003693 
	C237.975571,464.394928 237.975571,473.802948 237.975571,483.528046 
	C228.321487,483.528046 219.126221,483.528046 209.096832,483.528046 
	C209.096832,474.323669 209.096832,465.121399 209.046509,455.469299 
	C208.996170,455.019470 208.950104,455.034851 209.421356,455.063446 
	C219.277817,455.074310 228.663055,455.056549 238.048279,455.038818 
	C238.048279,455.038818 238.006516,455.020447 237.991043,455.003693 
z"/>
<path fill="#090003" opacity="1.000000" stroke="none" 
	d="
M304.973480,454.981598 
	C304.973480,464.306366 304.973480,473.631165 304.973480,483.402985 
	C295.264496,483.402985 285.915161,483.402985 275.992126,483.402985 
	C275.992126,474.165314 275.992126,465.045563 276.007629,455.456970 
	C276.023132,454.988159 275.992920,455.020966 276.443634,455.055725 
	C286.279541,455.071960 295.664703,455.053406 305.026886,455.027161 
	C305.003876,455.019440 304.973480,454.981598 304.973480,454.981598 
z"/>
<path fill="#050001" opacity="1.000000" stroke="none" 
	d="
M209.011368,455.000549 
	C199.985077,455.033264 190.943588,455.084869 181.438568,455.050842 
	C180.975021,454.965210 181.009048,455.003784 180.943069,454.555908 
	C180.877090,445.028473 180.877090,435.948914 180.877090,426.771698 
	C190.573990,426.771698 199.727448,426.771698 208.950104,426.771698 
	C208.950104,436.488617 208.950104,445.761719 208.950104,455.034851 
	C208.950104,455.034851 208.996170,455.019470 209.011368,455.000549 
z"/>
<path fill="#050001" opacity="1.000000" stroke="none" 
	d="
M333.005615,454.987640 
	C323.982025,455.026398 314.942688,455.083069 305.438416,455.060669 
	C304.973480,454.981598 305.003876,455.019440 304.928131,454.565125 
	C304.852386,445.031494 304.852386,435.952148 304.852386,426.769989 
	C314.555573,426.769989 323.709137,426.769989 332.952789,426.769989 
	C332.952789,436.486328 332.952789,445.760956 332.952789,455.035583 
	C332.952789,455.035583 332.989838,455.005524 333.005615,454.987640 
z"/>
<path fill="#070403" opacity="1.000000" stroke="none" 
	d="
M390.903961,130.096786 
	C390.830231,130.667786 390.649689,130.741211 390.225220,130.165070 
	C389.987366,112.872368 389.859772,96.227379 390.089233,79.587326 
	C390.149994,75.179787 388.758148,73.856888 384.386566,73.912300 
	C367.413300,74.127495 350.435638,73.996925 333.459625,73.995056 
	C333.315857,73.848816 333.172119,73.702583 332.969482,73.254440 
	C349.188843,73.089737 365.467041,73.230232 381.745300,73.361015 
	C384.528564,73.383377 387.312195,73.364182 390.797180,73.364182 
	C390.797180,92.483414 390.797180,111.041313 390.903961,130.096786 
z"/>
<path fill="#010100" opacity="1.000000" stroke="none" 
	d="
M263.986298,130.826477 
	C268.121857,130.826477 271.760437,130.826477 275.727417,130.826477 
	C275.727417,181.719269 275.727417,232.238770 275.727417,283.009583 
	C266.493286,283.009583 257.405792,283.009583 247.666656,283.009583 
	C247.666656,241.958206 247.666656,200.952347 247.666656,159.351898 
	C237.805176,159.351898 228.574966,159.351898 219.084808,159.351898 
	C219.084808,149.677414 219.084808,140.601013 219.084808,130.826477 
	C233.978668,130.826477 248.733994,130.826477 263.986298,130.826477 
z"/>
<path fill="#010000" opacity="1.000000" stroke="none" 
	d="
M181.028839,340.963806 
	C182.027878,340.876923 183.017578,340.729309 184.007278,340.729370 
	C233.364212,340.732086 282.721130,340.747498 332.532928,340.878357 
	C332.987793,340.995148 332.984955,340.979370 333.060059,341.444580 
	C333.135193,350.839508 333.135193,359.769196 333.135193,368.781616 
	C282.080902,368.781616 231.622101,368.781616 181.029297,368.781616 
	C181.029297,359.241638 181.029297,350.113220 181.029297,340.984772 
	C181.029297,340.984772 181.019485,340.971985 181.028839,340.963806 
z"/>
<path fill="#070403" opacity="1.000000" stroke="none" 
	d="
M333.336975,74.449554 
	C350.435638,73.996925 367.413300,74.127495 384.386566,73.912300 
	C388.758148,73.856888 390.149994,75.179787 390.089233,79.587326 
	C389.859772,96.227379 389.987366,112.872368 389.968811,130.024750 
	C380.850525,130.534012 371.744751,130.534012 362.076111,130.534012 
	C362.076111,121.161469 362.076111,111.938499 362.076111,102.203827 
	C352.291534,102.203827 343.052246,102.203827 333.214294,102.203827 
	C333.214294,92.766342 333.214294,83.835205 333.336975,74.449554 
z"/>
<path fill="#F80023" opacity="1.000000" stroke="none" 
	d="
M180.563446,340.910278 
	C181.029297,350.113220 181.029297,359.241638 181.029297,368.781616 
	C231.622101,368.781616 282.080902,368.781616 333.135193,368.781616 
	C333.135193,359.769196 333.135193,350.839508 333.050720,341.446716 
	C342.400818,340.983643 351.835419,340.983643 361.609833,340.983643 
	C361.609833,378.896301 361.609833,416.554321 361.609833,455.083710 
	C352.346527,455.083710 343.120941,455.083710 333.424072,455.059631 
	C332.952789,445.760956 332.952789,436.486328 332.952789,426.769989 
	C323.709137,426.769989 314.555573,426.769989 304.852386,426.769989 
	C304.852386,435.952148 304.852386,445.031494 304.951141,454.572845 
	C295.664703,455.053406 286.279541,455.071960 276.423157,455.064575 
	C275.951935,445.733704 275.951935,436.428741 275.951935,426.724731 
	C263.362396,426.724731 250.995651,426.724731 237.957901,426.724731 
	C237.957901,435.922272 237.957901,445.011292 238.003082,454.569550 
	C228.663055,455.056549 219.277817,455.074310 209.421356,455.063446 
	C208.950104,445.761719 208.950104,436.488617 208.950104,426.771698 
	C199.727448,426.771698 190.573990,426.771698 180.877090,426.771698 
	C180.877090,435.948914 180.877090,445.028473 180.962814,454.572388 
	C171.614212,455.036713 162.179871,455.036713 152.400574,455.036713 
	C152.400574,416.895569 152.400574,379.243744 152.400574,340.835754 
	C161.649155,340.835754 170.873367,340.835754 180.563446,340.910278 
z"/>
</svg>